<?xml version="1.0" encoding="UTF-8"?>
<svg id="Laag_2" data-name="Laag 2" xmlns="http://www.w3.org/2000/svg" viewBox="0 0 1595.66 301.08">
  <defs>
    <style>
      .cls-1 {
        stroke: #fff;
        stroke-linecap: round;
        stroke-linejoin: round;
        stroke-width: 17.65px;
      }

      .cls-1, .cls-2 {
        fill: #fff;
      }

      .cls-2 {
        stroke-width: 0px;
      }
    </style>
  </defs>
  <g id="Laag_1-2" data-name="Laag 1">
    <path class="cls-1" d="M285.16,150.54c-38.15,0-72.71,15.85-97.7,41.51-25.02,25.66-40.48,61.06-40.48,100.21,0-39.14-15.46-74.55-40.45-100.21-24.99-25.66-59.54-41.51-97.7-41.51,0-39.14,15.46-74.58,40.45-100.21,25.02-25.66,59.54-41.51,97.7-41.51s72.71,15.85,97.7,41.51c25.02,25.63,40.48,61.06,40.48,100.21Z"/>
    <g>
      <path class="cls-2" d="M423.78,205.29l-38.8-88.24c-2.76-6.3,0-14.18,6.5-17.14,6.5-2.76,14.18.2,17.14,6.7l29.15,67.95,29.54-67.95c2.95-6.5,10.64-9.45,17.14-6.7,6.5,2.95,9.26,10.83,6.5,17.14l-54.95,124.68c-2.95,6.5-10.64,9.46-17.14,6.7-6.5-2.95-9.26-10.83-6.5-17.14l11.42-26Z"/>
      <path class="cls-2" d="M571.49,112.13c0-7.29,5.91-13.2,13.2-13.2s13.2,5.91,13.2,13.2v48.06c0,26.79-20.68,47.86-47.07,47.86s-47.07-21.08-47.07-47.86v-48.06c0-7.29,5.91-13.2,13.2-13.2s13.2,5.91,13.2,13.2v48.45c0,12.8,9.06,21.86,20.68,21.86s20.68-9.06,20.68-21.86v-48.45Z"/>
      <path class="cls-2" d="M683.76,146.4c0-11.42-8.47-19.7-19.7-19.7h-21.27v67.75c0,7.29-5.91,13.2-13.2,13.2s-13.2-5.91-13.2-13.2v-82.53c0-5.91,4.92-10.83,10.83-10.83h37.62c25.8,0,45.3,19.5,45.3,45.3v48.06c0,7.29-5.91,13.2-13.2,13.2s-13.2-5.91-13.2-13.2v-48.06Z"/>
      <path class="cls-2" d="M728.66,70.97c0-7.29,5.91-13.2,13.2-13.2s13.2,5.91,13.2,13.2v123.49c0,7.29-5.91,13.2-13.2,13.2s-13.2-5.91-13.2-13.2v-123.49Z"/>
      <path class="cls-2" d="M802.52,205.49c-19.5,0-32.89-14.77-32.89-33.09s13.39-33.09,32.89-33.09h17.92c6.7,0,12.21,5.51,12.21,12.21s-5.52,12.21-12.21,12.21h-16.54c-4.73,0-7.88,3.94-7.88,8.08s3.15,8.08,7.88,8.08h36.63v-33.48c0-11.42-8.47-19.7-19.7-19.7h-30.33c-7.09,0-12.8-5.71-12.8-12.8s5.71-12.8,12.8-12.8h31.12c25.8,0,45.3,19.5,45.3,45.3v48.25c0,5.91-4.92,10.83-10.83,10.83h-53.57Z"/>
      <path class="cls-2" d="M970.92,146.6c0,7.29-5.91,13.2-13.2,13.2s-13.2-5.91-13.2-13.2v-2.36c0-11.42-5.91-17.53-17.33-17.53h-15.36v67.75c0,7.29-5.91,13.2-13.2,13.2s-13.2-5.91-13.2-13.2v-82.53c0-5.91,4.92-10.83,10.83-10.83h30.92c26.79,0,43.72,16.35,43.72,43.13v2.36Z"/>
      <path class="cls-2" d="M1036.7,205.49c-7.09,0-12.8-5.71-12.8-12.8s5.71-12.8,12.8-12.8h44.12c3.74,0,6.89-3.15,6.89-6.89s-3.15-6.89-6.89-6.89h-26.98c-19.3,0-33.48-13.79-33.48-32.5s14.18-32.5,33.48-32.5h43.53c7.09,0,12.8,5.71,12.8,12.8s-5.71,12.8-12.8,12.8h-44.12c-3.74,0-6.89,3.15-6.89,6.89s3.15,6.89,6.89,6.89h26.98c19.3,0,33.48,13.79,33.48,32.5s-14.18,32.5-33.48,32.5h-43.53Z"/>
      <path class="cls-2" d="M1179.69,205.49c-22.45,0-39.19-16.74-39.19-39.2v-39.59h-10.24c-7.09,0-12.8-5.71-12.8-12.8s5.71-12.8,12.8-12.8h10.24v-18.71c0-7.29,5.91-13.2,13.2-13.2s13.2,5.91,13.2,13.2v18.71h23.63c7.09,0,12.8,5.71,12.8,12.8s-5.71,12.8-12.8,12.8h-23.63v39.59c0,7.88,5.71,13.59,13.59,13.59h10.04c7.09,0,12.8,5.71,12.8,12.8s-5.71,12.8-12.8,12.8h-10.83Z"/>
      <path class="cls-2" d="M1282.5,112.13c0-7.29,5.91-13.2,13.2-13.2s13.2,5.91,13.2,13.2v48.06c0,26.79-20.68,47.86-47.07,47.86s-47.07-21.08-47.07-47.86v-48.06c0-7.29,5.91-13.2,13.2-13.2s13.2,5.91,13.2,13.2v48.45c0,12.8,9.06,21.86,20.68,21.86s20.68-9.06,20.68-21.86v-48.45Z"/>
      <path class="cls-2" d="M1376.84,205.49c-31.51,0-53.77-23.44-53.77-52.19s22.26-52.19,53.77-52.19h21.47v-30.13c0-7.29,5.91-13.2,13.2-13.2s13.2,5.91,13.2,13.2v123.69c0,5.91-4.92,10.83-10.83,10.83h-37.03ZM1398.31,126.71h-21.47c-15.95,0-27.38,12.01-27.38,26.59s11.42,26.59,27.38,26.59h21.47v-53.18Z"/>
      <path class="cls-2" d="M1440.85,71.36c0-8.86,7.09-15.95,15.95-15.95s15.95,7.09,15.95,15.95-7.09,15.95-15.95,15.95-15.95-7.09-15.95-15.95ZM1443.61,112.13c0-7.29,5.91-13.2,13.2-13.2s13.2,5.91,13.2,13.2v82.33c0,7.29-5.91,13.2-13.2,13.2s-13.2-5.91-13.2-13.2v-82.33Z"/>
      <path class="cls-2" d="M1540.12,208.05c-32.7,0-55.54-24.42-55.54-54.75s22.85-54.76,55.54-54.76,55.54,24.42,55.54,54.76-23.04,54.75-55.54,54.75ZM1540.12,124.14c-17.14,0-29.15,13.2-29.15,29.15s12.21,29.15,29.15,29.15,29.15-13.2,29.15-29.15-12.01-29.15-29.15-29.15Z"/>
    </g>
  </g>
</svg>