<?xml version="1.0" encoding="UTF-8"?>
<svg id="Laag_1" data-name="Laag 1" xmlns="http://www.w3.org/2000/svg" viewBox="0 0 164.41 249.45">
  <defs>
    <style>
      .cls-1 {
        stroke: #fff;
        stroke-miterlimit: 10;
        stroke-width: .46px;
      }

      .cls-1, .cls-2 {
        fill: #fff;
      }

      .cls-3, .cls-4, .cls-5, .cls-6, .cls-7, .cls-8, .cls-2 {
        stroke-width: 0px;
      }

      .cls-4 {
        fill: #8082b8;
      }

      .cls-5 {
        fill: #2f2f2f;
      }

      .cls-6 {
        fill: #1d1d1b;
      }

      .cls-7 {
        fill: #1d1d1d;
      }

      .cls-8 {
        fill: #de2b65;
      }
    </style>
  </defs>
  <rect class="cls-5" x="0" width="164.41" height="249.45"/>
  <g>
    <path class="cls-4" d="M141.73,206.68c-4.35,0-7.89-3.7-7.89-8.26s3.54-8.25,7.89-8.25,7.89,3.7,7.89,8.25-3.54,8.26-7.89,8.26Z"/>
    <path class="cls-6" d="M141.73,191.17c3.8,0,6.89,3.25,6.89,7.26s-3.09,7.26-6.89,7.26-6.89-3.25-6.89-7.26,3.09-7.26,6.89-7.26M141.73,189.17c-4.91,0-8.89,4.14-8.89,9.26s3.98,9.26,8.89,9.26,8.89-4.14,8.89-9.26-3.98-9.26-8.89-9.26h0Z"/>
  </g>
  <g>
    <ellipse class="cls-8" cx="141.73" cy="226.17" rx="7.89" ry="8.26"/>
    <path class="cls-6" d="M141.73,218.92c3.8,0,6.89,3.25,6.89,7.26s-3.09,7.26-6.89,7.26-6.89-3.25-6.89-7.26,3.09-7.26,6.89-7.26M141.73,216.92c-4.91,0-8.89,4.14-8.89,9.26s3.98,9.26,8.89,9.26,8.89-4.14,8.89-9.26-3.98-9.26-8.89-9.26h0Z"/>
  </g>
  <g>
    <path class="cls-2" d="M38.36,28.54c.35-.52.7-.93,1.04-1.23.34-.3.67-.53.99-.7.32-.17.61-.27.89-.32.28-.05.52-.08.74-.08.58,0,1.06.08,1.42.24.37.16.67.38.9.66.77-.42,1.66-.6,2.67-.55.92.05,1.75.27,2.49.65.74.38,1.38.89,1.91,1.52.53.63.96,1.36,1.26,2.18.31.82.49,1.68.54,2.6.07,1.1-.11,2.1-.53,2.99s-1.05,1.61-1.9,2.16c.42.97.86,1.93,1.33,2.9.47.97.97,1.95,1.5,2.95-.83.03-1.59-.07-2.26-.32-.67-.25-1.27-.6-1.79-1.04-.52-.44-.95-.96-1.3-1.55s-.62-1.21-.83-1.86c-.1.02-.2.02-.31.02h-.34c-.63.02-1.27-.07-1.92-.27.02.53.04,1.05.07,1.56.03.51.08.98.12,1.4.05.43.11.8.18,1.12.07.33.14.59.22.79-.92-.02-1.65-.1-2.21-.24s-.99-.38-1.3-.71c-.31-.33-.52-.78-.62-1.34-.11-.56-.16-1.26-.16-2.11,0-1.75,0-3.25-.01-4.51,0-1.26-.04-2.31-.1-3.16-.06-.85-.15-1.53-.26-2.04-.12-.51-.28-.89-.49-1.15-.21-.26-.47-.42-.79-.49-.32-.07-.7-.09-1.15-.07ZM44.9,31.99c-.02.18-.03.45-.04.79,0,.34-.02.73-.04,1.17-.02.44-.03.93-.03,1.45v1.61c.52,0,1.02-.07,1.51-.22.49-.15.92-.38,1.3-.68.38-.3.67-.67.89-1.12.22-.45.32-.98.3-1.57-.03-.57-.12-1.1-.25-1.6s-.33-.95-.6-1.34c-.27-.39-.6-.72-.99-.98-.39-.26-.86-.41-1.41-.46-.1-.02-.2-.03-.3-.03h-.3c.03.43.04.9.03,1.4-.02.5-.04,1.02-.08,1.57Z"/>
    <path class="cls-2" d="M68.11,38.86c-.68.1-1.3.19-1.86.26-.56.07-1.13.13-1.71.17-.58.04-1.22.07-1.92.09-.7.02-1.53.03-2.48.03.12,1.07.7,1.86,1.74,2.38,1.04.52,2.65.67,4.81.45-.28.38-.65.71-1.1.99-.45.27-.93.5-1.45.66-.52.17-1.05.28-1.59.35-.54.07-1.05.08-1.54.05-.8-.05-1.57-.24-2.3-.58-.73-.33-1.38-.81-1.92-1.44s-.99-1.4-1.31-2.31c-.33-.92-.48-1.98-.46-3.17.02-1.23.22-2.32.6-3.25.38-.93.88-1.71,1.49-2.33.61-.62,1.28-1.08,2.03-1.39.74-.31,1.48-.46,2.21-.46,1.08,0,2.06.16,2.94.48.88.32,1.61.85,2.21,1.59.6.74,1.05,1.72,1.34,2.94.29,1.22.39,2.72.29,4.5ZM61.75,31.94c-.35,0-.65.08-.91.25-.26.17-.47.45-.64.84s-.29.91-.36,1.56-.1,1.46-.09,2.42c.27.02.75.02,1.45.01.7,0,1.61-.03,2.73-.06.05-.83.02-1.57-.09-2.2-.11-.63-.26-1.16-.46-1.57-.2-.42-.44-.73-.72-.94s-.58-.31-.9-.31Z"/>
    <path class="cls-2" d="M70.78,26.51c.62-.05,1.17.01,1.66.19.49.18.92.43,1.28.78.36.34.66.75.91,1.24s.45,1.02.6,1.62c.27-.07.54-.11.81-.12.28-.02.55-.02.84,0,.92.05,1.76.28,2.54.69.78.41,1.45.95,2.01,1.61.57.67,1,1.43,1.31,2.29.31.86.45,1.77.44,2.74-.02.93-.16,1.8-.44,2.59-.28.79-.67,1.48-1.19,2.06-.52.58-1.15,1.05-1.9,1.39-.75.34-1.61.52-2.58.54-.77.03-1.49-.07-2.17-.3s-1.25-.6-1.7-1.1c-.65,1.05-1.35,1.74-2.1,2.08.05-.43.09-1.12.11-2.05.03-.93.04-1.99.05-3.17,0-1.18,0-2.43-.01-3.75-.02-1.32-.05-2.58-.09-3.79-.04-1.21-.1-2.3-.16-3.29-.07-.98-.14-1.73-.22-2.23ZM75.56,32.89c.02.7,0,1.43-.06,2.18-.06.75-.16,1.49-.31,2.21-.15.73-.33,1.44-.55,2.14-.22.7-.46,1.35-.72,1.95.7.2,1.44.2,2.22,0,1.77-.43,2.62-1.74,2.58-3.92-.02-.53-.1-1.06-.25-1.58-.15-.52-.36-.98-.64-1.39s-.6-.75-.99-1.04c-.38-.28-.81-.47-1.27-.55Z"/>
    <path class="cls-2" d="M92.85,29.01c-.87.72-1.56,1.51-2.07,2.38-.52.87-.89,1.73-1.12,2.6-.23.87-.35,1.7-.34,2.51,0,.81.11,1.53.31,2.16.2.63.47,1.14.82,1.51.35.38.75.56,1.2.56.48,0,.89-.16,1.24-.48.34-.32.6-.73.79-1.25.18-.52.28-1.11.29-1.77,0-.67-.08-1.35-.25-2.06-.18-.71-.44-1.4-.8-2.09-.36-.68-.82-1.3-1.39-1.85,1.32.02,2.42.27,3.32.75.9.48,1.6,1.11,2.11,1.89.51.77.83,1.65.96,2.61.13.97.08,1.95-.15,2.95-.15.68-.41,1.34-.78,1.96-.37.62-.81,1.17-1.34,1.65s-1.12.85-1.8,1.12-1.4.41-2.16.41c-.98,0-1.87-.17-2.65-.5-.78-.33-1.45-.8-2-1.41-.55-.61-.98-1.33-1.29-2.17-.31-.84-.47-1.76-.49-2.76-.03-1.07.12-2.08.45-3.05.33-.97.83-1.84,1.47-2.62.65-.78,1.45-1.44,2.4-1.98.95-.53,2.03-.89,3.25-1.08Z"/>
    <path class="cls-2" d="M107.93,29.01c-.87.72-1.56,1.51-2.08,2.38-.52.87-.89,1.73-1.12,2.6-.23.87-.35,1.7-.34,2.51,0,.81.11,1.53.31,2.16.2.63.48,1.14.83,1.51.35.38.75.56,1.2.56.48,0,.9-.16,1.24-.48.34-.32.6-.73.79-1.25.18-.52.28-1.11.29-1.77,0-.67-.08-1.35-.25-2.06-.17-.71-.44-1.4-.8-2.09-.36-.68-.82-1.3-1.39-1.85,1.32.02,2.42.27,3.33.75.9.48,1.6,1.11,2.11,1.89.51.77.83,1.65.96,2.61.13.97.08,1.95-.15,2.95-.15.68-.41,1.34-.78,1.96-.37.62-.81,1.17-1.34,1.65-.53.48-1.12.85-1.8,1.12-.68.27-1.4.41-2.16.41-.98,0-1.87-.17-2.65-.5-.78-.33-1.45-.8-2-1.41-.55-.61-.98-1.33-1.29-2.17-.31-.84-.47-1.76-.49-2.76-.03-1.07.12-2.08.45-3.05.33-.97.83-1.84,1.47-2.62.65-.78,1.45-1.44,2.4-1.98.95-.53,2.03-.89,3.25-1.08Z"/>
    <path class="cls-2" d="M125.1,30.69c-.12.7-.33,1.3-.64,1.81-.31.51-.66.92-1.06,1.25-.4.32-.83.57-1.3.73s-.92.24-1.38.24h-.47c.03.97.09,1.88.16,2.73.08.85.19,1.6.34,2.24.15.64.34,1.15.57,1.54.23.38.53.6.88.65.17.03.35.05.56.04.21,0,.44-.07.69-.19.25-.12.52-.31.81-.58.29-.27.61-.65.96-1.15.05.65.02,1.25-.1,1.81-.12.56-.33,1.05-.65,1.46-.32.42-.74.74-1.28.98-.53.23-1.18.35-1.95.35-1,0-1.89-.24-2.66-.73-.78-.48-1.32-1.15-1.64-2-.17-.45-.3-.98-.4-1.57-.1-.6-.17-1.25-.23-1.95-.05-.7-.06-1.43-.04-2.2.03-.77.08-1.53.16-2.3-.72-.4-1.24-.89-1.57-1.46-.33-.58-.57-1.15-.7-1.74.48.07.96.12,1.42.16.47.04.92.08,1.35.11.15-.65.34-1.27.56-1.85.23-.58.48-1.1.75-1.55.28-.45.59-.82.94-1.12.35-.3.73-.5,1.12-.6-.02.78-.04,1.6-.06,2.46-.02.86-.04,1.78-.06,2.76.8-.02,1.59-.05,2.38-.11.78-.06,1.62-.13,2.53-.21Z"/>
  </g>
  <path class="cls-3" d="M96.61,62.25s.05.01.07.02c-.03,0-.05,0-.08-.01,0,0,0,0,0,0Z"/>
  <path class="cls-3" d="M84.64,68.2s-.08-.02-.11-.03c.04,0,.08.01.12.02,0,0,0,0,0,0Z"/>
  <g>
    <g>
      <path class="cls-7" d="M104.72,131.71c-.09-.1-.16-.18-.25-.28-1.19.22-2.37.44-3.56.67-1.19.22-2.38.45-3.57.67-1.24.23-2.49.47-3.73.69-.32.06-.59.19-.84.38-1.11.84-2.23,1.67-3.35,2.5-1.15.85-2.3,1.71-3.46,2.54-.57.4-1.18.75-1.83.99-.81.3-1.64.51-2.51.59-.53.05-1.06.05-1.59.04-1.18-.02-2.28-.36-3.34-.84-1.13-.51-2.11-1.24-2.94-2.17-.43-.48-.81-.99-1.17-1.52-2.76-4.07-5.51-8.14-8.27-12.21-2.41-3.55-4.81-7.11-7.22-10.66-2.66-3.93-5.33-7.86-7.99-11.8-.29-.42-.59-.84-.87-1.27-.52-.82-.82-1.72-1.03-2.65-.18-.83-.23-1.67-.21-2.52.03-1.12.31-2.17.74-3.19.32-.77.74-1.48,1.26-2.12.52-.64,1.1-1.23,1.77-1.73,1.82-1.37,3.65-2.72,5.46-4.08.22-.16.42-.35.61-.55.69-.75,1.47-1.38,2.37-1.86.47-.25.91-.56,1.37-.81.86-.48,1.74-.94,2.61-1.42.98-.53,1.97-1.07,2.95-1.61.22-.12.45-.26.64-.42.97-.78,2.06-1.33,3.23-1.73,1.14-.39,2.28-.83,3.43-1.19,1.1-.35,2.22-.65,3.33-.95,2.89-.78,5.77-1.56,8.66-2.32.34-.09.66-.22.96-.41.81-.5,1.69-.78,2.61-.98.76-.16,1.52-.22,2.29-.23,4.64-.06,9.29-.1,13.93-.15,3.54-.04,7.08-.06,10.63-.11,1.02-.01,2.01.12,2.99.38.51.14,1,.36,1.46.62.78.45,1.56.9,2.21,1.53,1.29,1.27,2.25,2.74,2.71,4.52.18.69.32,1.39.33,2.11.03,2.33.08,4.66.11,6.99.11,8.56.22,17.13.33,25.69.04,3.5.08,7.01.14,10.51.01.81-.02,1.61-.13,2.41-.05.38-.13.76-.24,1.13-.4,1.31-1,2.52-1.89,3.57-.12.14-.23.28-.35.42-1.12,1.35-2.54,2.25-4.21,2.79-.83.27-1.68.37-2.55.35-3.93-.09-7.85-.19-11.78-.29-.07,0-.15,0-.25-.02Z"/>
      <path class="cls-7" d="M47.53,85.68c-.1-.13-.21-.25-.3-.38-.74-1-1.48-2-2.23-3-.09-.12-.17-.24-.28-.34-.17-.16-.38-.22-.61-.11-.16.08-.32.17-.48.27-1.32.85-2.65,1.71-3.97,2.56-.12.08-.24.14-.41.16.07-.09.14-.19.23-.27,1.18-1.21,2.34-2.43,3.54-3.61.51-.5.63-.99.36-1.67-.66-1.63-1.26-3.28-1.88-4.93-.03-.09-.12-.19-.01-.33.14.18.27.34.39.52.88,1.24,1.75,2.49,2.62,3.73.09.13.18.28.3.4.2.22.42.26.7.13.15-.07.29-.16.43-.25,1.43-.93,2.85-1.86,4.28-2.79.1-.07.2-.15.4-.15-.11.13-.16.21-.24.29-1.28,1.29-2.55,2.59-3.85,3.85-.53.51-.66,1.02-.39,1.72.51,1.3.94,2.62,1.4,3.93.03.08.05.17.08.25-.03.01-.06.02-.09.03Z"/>
      <path class="cls-7" d="M59.02,68.36c.06,0,.09,0,.09,0,.08.19.16.37.23.56.41,1.16.82,2.31,1.22,3.47.02.07.05.14.08.21.14.31.33.4.66.32.14-.04.28-.09.42-.14,1.76-.62,3.52-1.24,5.28-1.86.15-.05.31-.09.49-.1-.11.07-.21.16-.32.22-1.73.93-3.45,1.86-5.18,2.79-.15.08-.29.15-.43.24-.36.22-.54.53-.52.96.03,1.01.05,2.02.07,3.02,0,.16,0,.33,0,.49-.15.04-.17-.06-.2-.14-.33-.85-.67-1.71-1-2.56-.05-.12-.09-.24-.14-.36-.14-.31-.26-.39-.6-.34-.14.02-.28.07-.42.11-1.22.39-2.44.78-3.66,1.17-.07.02-.13.03-.23-.01.1-.07.19-.14.29-.2,1.11-.65,2.22-1.29,3.33-1.94.13-.07.26-.14.38-.22.29-.2.45-.47.43-.83-.03-.42-.03-.84-.06-1.26-.06-1.06-.13-2.12-.19-3.18,0-.14,0-.28,0-.42Z"/>
      <path class="cls-7" d="M72.96,70.79c0-.05-.04-.13-.02-.15.11-.09.24-.17.36-.25.7-.43,1.41-.86,2.11-1.29.12-.08.25-.15.37-.24.2-.15.32-.35.36-.6.02-.11.02-.22.03-.33.08-1.41.17-2.82.25-4.23,0-.05.02-.11.02-.16.17,0,.15.13.17.23.23,1.11.46,2.22.69,3.34.03.16.06.32.11.48.04.15.18.25.33.22.16-.03.32-.08.47-.14,1.49-.61,2.98-1.23,4.46-1.85.66-.27,1.32-.54,1.98-.82.1-.04.19-.11.28-.16h0c.05.16-.07.2-.16.25-.4.22-.8.44-1.2.66-1.79.96-3.58,1.93-5.36,2.89-.08.04-.16.09-.24.13-.34.2-.52.49-.56.89-.1.8-.23,1.59-.35,2.38-.14,0-.16-.09-.19-.18-.17-.6-.36-1.19-.51-1.79-.09-.36-.28-.38-.57-.32-.05.01-.1.04-.16.05-.81.29-1.62.57-2.43.86-.08.03-.16.09-.24.13h0Z"/>
      <path class="cls-2" d="M122.3,99.14c.1,6.95.19,13.9.29,20.85,0,.66-.03,1.32-.12,1.97-.11.77-.42,1.47-.87,2.12-.53.77-1.19,1.39-2.04,1.8-.55.27-1.11.48-1.72.55-.31.03-.62.06-.93.06-8.18.11-16.37.21-24.55.31-.81.01-1.61-.08-2.38-.34-.82-.27-1.52-.72-2.12-1.33-.62-.64-1.06-1.4-1.35-2.24-.19-.57-.25-1.15-.26-1.73-.04-2.77-.08-5.54-.11-8.31-.06-4.62-.12-9.24-.17-13.87-.08-6.91-.16-13.83-.24-20.74,0-.62,0-1.25.19-1.85.4-1.34,1.16-2.4,2.36-3.13.33-.2.66-.38,1.03-.52.72-.27,1.46-.37,2.21-.38,3.69-.04,7.38-.08,11.07-.11,4.46-.05,8.92-.1,13.38-.14.76,0,1.5.05,2.23.26.83.24,1.54.69,2.14,1.29.4.4.75.85,1.05,1.34.31.51.47,1.07.57,1.65.06.4.09.8.09,1.21.1,7.1.19,14.2.29,21.29,0,0,0,0-.01,0ZM94.01,98.96c-.09.17-.15.28-.21.39-.83,1.45-1.66,2.89-2.49,4.34-.72,1.25-1.45,2.5-2.17,3.76-.17.3-.34.61-.46.94-.23.63-.36,1.28-.19,1.94.19.73.5,1.42,1.11,1.92.16.13.31.26.47.38.44.34.94.57,1.5.65.27.04.54.1.81.14.31.04.62.1.93.1,3.43,0,6.86,0,10.29,0,.14,0,.29-.02.44-.03.1-.36.04-.71.05-1.06,0-.35.01-.7,0-1.05-.01-.34.07-.69-.09-1.06-.22,0-.44,0-.66,0-3.27,0-6.53,0-9.8,0-.24,0-.48,0-.71-.03-.67-.1-1.04-.7-.82-1.34.1-.29.25-.57.4-.84.19-.35.41-.69.61-1.04,1.2-2.08,2.4-4.16,3.6-6.24.05-.09.12-.16.2-.26.3.16.58.31.84.46.56.32,1.11.65,1.66.97.1.05.2.18.36.06-.43-.79-.85-1.58-1.29-2.36-.45-.8-.83-1.63-1.32-2.39-.16,0-.29,0-.42,0-1.17.03-2.35.07-3.52.1-.44.01-.88.01-1.32.02-.06,0-.11.05-.23.1.83.49,1.6.94,2.42,1.42ZM98.19,95.41c.08-.09.12-.13.15-.17.8-1.38,1.6-2.76,2.4-4.14.97-1.68,1.95-3.36,2.93-5.04.09-.16.21-.3.34-.43.43-.42,1-.41,1.41.03.16.17.3.37.42.57,1.45,2.51,2.9,5.01,4.35,7.52.05.09.08.2.13.32-.32.18-.62.35-.92.53-.32.18-.63.37-.95.56-.29.18-.61.31-.87.57.6.04,1.19.13,1.79.13.62,0,1.25.03,1.87.02.6-.01,1.2.11,1.81.03.78-1.45,1.54-2.87,2.3-4.29.08-.15.15-.29.22-.44,0-.02.01-.04,0-.05,0-.02-.02-.03-.06-.07-.78.45-1.56.91-2.37,1.38-.09-.13-.17-.23-.23-.34-1.59-2.74-3.18-5.49-4.77-8.23-.15-.25-.31-.5-.5-.72-1.03-1.29-2.56-1.66-4.05-1.09-.75.29-1.41.69-1.88,1.37-.16.23-.35.42-.52.64-.12.16-.25.32-.35.49-1.69,2.92-3.38,5.84-5.07,8.76-.1.17-.19.35-.3.55.89.57,1.8,1.03,2.71,1.56ZM112.45,98.57c.06.12.11.26.18.38.13.22.26.44.39.66.98,1.7,1.96,3.4,2.94,5.1.57.98,1.14,1.97,1.71,2.95.16.27.31.54.35.86.08.6-.23,1.05-.83,1.15-.18.03-.37.03-.55.03-2.88,0-5.76,0-8.64,0-.14,0-.28-.02-.45-.03-.07-1.08.02-2.13-.06-3.31-.3.38-.45.71-.64,1.01-.19.31-.38.63-.57.94-.18.3-.37.59-.55.89-.19.31-.38.63-.57.94-.19.31-.37.62-.54.9.02.09.02.13.04.16.9,1.47,1.8,2.94,2.7,4.41.02.03.08.04.16.08,0-.21.02-.39.02-.57,0-.61,0-1.21,0-1.82,0-.12.04-.24.06-.39.23,0,.43,0,.63,0,3.01,0,6.02,0,9.03,0,.48,0,.95,0,1.42-.13.54-.14,1.06-.35,1.47-.72.8-.74,1.21-1.69,1.24-2.79,0-.33.03-.68-.07-.98-.25-.78-.52-1.57-.93-2.29-1.68-2.9-3.36-5.81-5.04-8.71-.06-.11-.14-.2-.21-.29-.54.23-2.34,1.28-2.69,1.57Z"/>
    </g>
    <path class="cls-2" d="M75.95,127.09c-.13-.24-.28-.47-.4-.71-1.61-3.32-3.21-6.64-4.81-9.97-1.24-2.57-2.48-5.14-3.72-7.71-1.74-3.59-3.49-7.19-5.24-10.78-.99-2.05-1.97-4.1-2.97-6.14-.29-.58-.48-1.18-.59-1.82-.22-1.23.04-2.36.61-3.45.2-.38.47-.69.82-.94.87-.61,1.72-1.26,2.57-1.89.29-.22.61-.4.91-.54.15.07.13.17.12.26-.1,1.13.06,2.23.39,3.31,1.21,3.96,2.44,7.92,3.66,11.88.59,1.91,1.18,3.81,1.76,5.72.56,1.82,1.1,3.64,1.66,5.45.48,1.57.95,3.14,1.44,4.71.4,1.3.83,2.6,1.23,3.9.29.96.56,1.92.85,2.88.37,1.22.74,2.43,1.12,3.64.18.59.38,1.17.56,1.76.04.13.03.29.04.43h0Z"/>
    <path class="cls-2" d="M73.27,77.76c-.07.2-.12.38-.19.55-.31.74-.4,1.52-.49,2.3-.12,1,.03,1.98.2,2.95.19,1.08.37,2.17.57,3.25.24,1.35.48,2.71.72,4.06.13.76.26,1.52.39,2.27.13.72.26,1.44.39,2.16.14.79.27,1.59.4,2.38.06.34.12.68.18,1.03.1.59.19,1.19.3,1.78.14.75.29,1.51.43,2.26.08.43.13.87.2,1.3.06.4.14.79.21,1.18.09.52.18,1.04.28,1.56.08.45.17.89.25,1.34.02.11.05.22.05.33,0,.2.02.4.11.59.02.05.03.1.04.16.06.43.11.87.17,1.3.02.11.05.21.08.32.03.16.06.32.09.48.02.14.05.29.07.43.03.16.05.32.08.48.03.16.06.32.1.48.01.05.04.1.05.16.06.43.12.86.18,1.3.02.11.04.21.07.32.03.16.08.32.09.48.01.18.02.36.11.53.03.06.05.14.05.21,0,.28.02.54.14.8.04.09.02.22.03.33.02.14.05.29.08.43.03.14.08.28.08.43,0,.2.03.4.11.59.05.11.03.25.05.38.02.13,0,.27.06.38.1.21.11.42.11.64,0,.11.03.21.05.32.03.16.07.32.09.48.01.18,0,.36.11.53.04.07.06.17.06.26,0,.26.07.5.12.75.06.36.16.72.18,1.07.03.46.24.88.2,1.35-.01.11.1.23.13.36.02.12,0,.24,0,.36-.16.02-.12-.08-.14-.14-.25-.8-.5-1.59-.74-2.39-.29-.96-.55-1.92-.84-2.87-.3-.97-.62-1.94-.91-2.91-.29-.96-.56-1.92-.85-2.88-.4-1.32-.83-2.64-1.24-3.97-.33-1.08-.65-2.17-.98-3.25-.62-2.05-1.25-4.09-1.88-6.14-.88-2.89-1.76-5.79-2.64-8.68-.67-2.19-1.34-4.38-2.03-6.57-.34-1.08-.39-2.18-.08-3.25.24-.84.61-1.65,1.28-2.28.13-.12.28-.24.44-.33.77-.42,1.54-.85,2.33-1.24.44-.22.92-.37,1.38-.55.03,0,.07.02.16.05Z"/>
    <path class="cls-2" d="M72.92,128.85c-.14-.17-.29-.33-.41-.51-3.78-5.59-7.55-11.19-11.32-16.78-2.74-4.06-5.49-8.11-8.23-12.16-.11-.17-.23-.33-.35-.49-.43-.58-.78-1.21-.98-1.9-.26-.89-.33-1.79-.13-2.72.17-.77.46-1.46.92-2.1.31-.44.71-.79,1.11-1.14.33-.29.69-.55,1.04-.81.07-.05.15-.09.26-.16.04.15.09.27.1.39.08.81.27,1.59.54,2.35.08.22.17.45.27.66,1.97,4.04,3.94,8.07,5.91,12.11,2.25,4.61,4.49,9.22,6.74,13.83,1.46,2.99,2.91,5.98,4.37,8.98.07.15.18.28.13.46l.02-.02Z"/>
    <path class="cls-2" d="M82.48,74.55c0,.13.01.21,0,.28-.19.88-.24,1.78-.23,2.68.09,5.41.21,10.82.25,16.23.02,3.45.15,6.89.19,10.34,0,.04,0,.07,0,.11-.01,3.32,0,6.64.14,9.96,0,.2,0,.4-.07.61-.04-.17-.08-.33-.11-.5-.03-.16-.07-.32-.1-.48-.09-.49-.17-.97-.25-1.46-.08-.49-.16-.97-.24-1.46-.06-.36-.11-.72-.17-1.08-.08-.43-.18-.86-.26-1.29-.08-.45-.13-.9-.21-1.35-.08-.45-.17-.9-.25-1.35-.08-.47-.15-.94-.23-1.41-.05-.32-.1-.65-.16-.97-.08-.45-.18-.9-.26-1.35-.08-.47-.15-.94-.23-1.41-.08-.45-.16-.9-.24-1.35-.07-.36-.14-.72-.2-1.08-.18-1.06-.35-2.13-.53-3.2-.18-1.06-.38-2.13-.57-3.19-.19-1.06-.36-2.13-.54-3.2-.24-1.37-.49-2.74-.72-4.12-.22-1.28-.41-2.57-.63-3.85-.11-.65.01-1.28.15-1.91.15-.69.47-1.31.89-1.88.44-.6.98-1.08,1.62-1.46.62-.37,1.29-.62,2-.73.3-.05.6-.17.96-.14Z"/>
  </g>
  <g>
    <path class="cls-1" d="M22.56,159.17h-1.85c-.32,0-.59-.27-.59-.59s.27-.59.59-.59h4.93c.32,0,.59.27.59.59s-.27.59-.59.59h-1.85v5.36c0,.33-.28.61-.61.61s-.61-.28-.61-.61v-5.36Z"/>
    <path class="cls-1" d="M28.57,165.05c-1.78,0-3.03-1.32-3.03-2.94s1.25-2.94,3.03-2.94h.7c1.12,0,1.86.79,1.86,1.77s-.74,1.76-1.86,1.76h-1.12c-.32,0-.59-.27-.59-.59s.27-.59.59-.59h1.12c.4,0,.67-.27.67-.59s-.27-.59-.67-.59h-.7c-1.07,0-1.83.8-1.83,1.76s.77,1.77,1.83,1.77h1.7c.32,0,.59.27.59.59s-.27.59-.59.59h-1.7Z"/>
    <path class="cls-1" d="M32.05,157.33c0-.33.27-.6.6-.6s.6.27.6.6v7.22c0,.33-.27.6-.6.6s-.6-.27-.6-.6v-7.22Z"/>
    <path class="cls-1" d="M40.75,161.5c0-.63-.52-1.15-1.15-1.15h-1.51v4.2c0,.33-.27.6-.6.6s-.6-.27-.6-.6v-7.22c0-.33.27-.6.6-.6s.6.27.6.6v1.84h1.51c1.3,0,2.35,1.05,2.35,2.35v3.02c0,.33-.27.6-.6.6s-.6-.27-.6-.6v-3.04Z"/>
    <path class="cls-1" d="M45.9,165.05c-1.78,0-3.03-1.32-3.03-2.94s1.25-2.94,3.03-2.94h.7c1.12,0,1.86.79,1.86,1.77s-.74,1.76-1.86,1.76h-1.12c-.32,0-.59-.27-.59-.59s.27-.59.59-.59h1.12c.4,0,.67-.27.67-.59s-.27-.59-.67-.59h-.7c-1.07,0-1.83.8-1.83,1.76s.77,1.77,1.83,1.77h1.7c.32,0,.59.27.59.59s-.27.59-.59.59h-1.7Z"/>
    <path class="cls-1" d="M52.25,165.05c-1.14,0-2.08-.93-2.08-2.08v-2.63h-.7c-.32,0-.59-.27-.59-.59s.27-.59.59-.59h.7v-1.18c0-.33.27-.6.6-.6s.6.27.6.6v1.18h1.54c.32,0,.59.27.59.59s-.27.59-.59.59h-1.54v2.64c0,.5.38.89.89.89h.66c.32,0,.59.27.59.59s-.27.59-.59.59h-.67Z"/>
    <path class="cls-1" d="M58.32,165.05c-1.08,0-1.82-.82-1.82-1.82s.74-1.82,1.82-1.82h1.12c.32,0,.59.27.59.59s-.27.59-.59.59h-1.12c-.37,0-.62.31-.62.64s.26.64.62.64h2.15v-2.49c0-.59-.41-1.04-1.02-1.04h-1.89c-.32,0-.59-.27-.59-.59s.27-.59.59-.59h1.89c1.24,0,2.22.99,2.22,2.21v3.07c0,.33-.21.6-.6.6h-2.75Z"/>
    <path class="cls-1" d="M64.43,165.05c-1.08,0-1.82-.82-1.82-1.82s.74-1.82,1.82-1.82h1.12c.32,0,.59.27.59.59s-.27.59-.59.59h-1.12c-.37,0-.62.31-.62.64s.25.64.62.64h2.15v-2.49c0-.59-.41-1.04-1.02-1.04h-1.89c-.32,0-.59-.27-.59-.59s.27-.59.59-.59h1.89c1.24,0,2.22.99,2.22,2.21v3.07c0,.33-.21.6-.6.6h-2.75Z"/>
    <path class="cls-1" d="M72.85,161.5c0-.63-.52-1.15-1.16-1.15h-1.51v4.2c0,.33-.27.6-.6.6s-.6-.27-.6-.6v-4.77c0-.33.27-.6.6-.6h2.11c1.3,0,2.35,1.05,2.35,2.35v3.02c0,.33-.27.6-.6.6s-.6-.27-.6-.6v-3.04Z"/>
    <path class="cls-1" d="M77.79,165.05c-1.14,0-2.08-.93-2.08-2.08v-2.63h-.7c-.32,0-.59-.27-.59-.59s.27-.59.59-.59h.7v-1.18c0-.33.27-.6.6-.6s.6.27.6.6v1.18h1.54c.32,0,.59.27.59.59s-.27.59-.59.59h-1.54v2.64c0,.5.38.89.89.89h.66c.32,0,.59.27.59.59s-.27.59-.59.59h-.67Z"/>
    <path class="cls-1" d="M81.43,165.05c-1.08,0-1.82-.82-1.82-1.82s.74-1.82,1.82-1.82h1.12c.32,0,.59.27.59.59s-.27.59-.59.59h-1.12c-.37,0-.62.31-.62.64s.25.64.62.64h2.15v-2.49c0-.59-.41-1.04-1.02-1.04h-1.89c-.32,0-.59-.27-.59-.59s.27-.59.59-.59h1.89c1.24,0,2.22.99,2.22,2.21v3.07c0,.33-.21.6-.6.6h-2.75Z"/>
    <path class="cls-1" d="M85.98,157.33c0-.33.27-.6.6-.6s.6.27.6.6v7.22c0,.33-.27.6-.6.6s-.6-.27-.6-.6v-7.22Z"/>
    <path class="cls-1" d="M92.02,162.22v2.32c0,.33-.27.6-.6.6s-.6-.27-.6-.6v-7.22c0-.33.27-.6.6-.6s.6.27.6.6v4.67l2.74-2.74c.23-.23.6-.23.83,0,.22.23.22.6,0,.83l-2.02,2.02,2.02,2.02c.23.23.22.6,0,.83-.23.23-.6.23-.83,0l-2.74-2.74Z"/>
    <path class="cls-1" d="M98.08,165.05c-1.08,0-1.82-.82-1.82-1.82s.74-1.82,1.82-1.82h1.12c.32,0,.59.27.59.59s-.27.59-.59.59h-1.12c-.37,0-.62.31-.62.64s.25.64.62.64h2.15v-2.49c0-.59-.41-1.04-1.02-1.04h-1.89c-.32,0-.59-.27-.59-.59s.27-.59.59-.59h1.89c1.24,0,2.22.99,2.22,2.21v3.07c0,.33-.21.6-.6.6h-2.75Z"/>
    <path class="cls-1" d="M104.19,165.05c-1.08,0-1.82-.82-1.82-1.82s.74-1.82,1.82-1.82h1.12c.32,0,.59.27.59.59s-.27.59-.59.59h-1.12c-.37,0-.62.31-.62.64s.25.64.62.64h2.15v-2.49c0-.59-.41-1.04-1.02-1.04h-1.89c-.32,0-.59-.27-.59-.59s.27-.59.59-.59h1.89c1.24,0,2.22.99,2.22,2.21v3.07c0,.33-.21.6-.6.6h-2.75Z"/>
    <path class="cls-1" d="M113.25,161.47c0,.33-.27.6-.6.6s-.6-.27-.6-.59v-.08c0-.59-.43-1.05-1.05-1.05h-1.05v4.2c0,.33-.27.6-.6.6s-.6-.27-.6-.6v-4.77c0-.33.27-.6.6-.6h1.65c1.27,0,2.25,1.01,2.25,2.23v.07Z"/>
    <path class="cls-1" d="M116.9,165.05c-1.14,0-2.08-.93-2.08-2.08v-2.63h-.7c-.32,0-.59-.27-.59-.59s.27-.59.59-.59h.7v-1.18c0-.33.27-.6.6-.6s.6.27.6.6v1.18h1.54c.32,0,.59.27.59.59s-.27.59-.59.59h-1.54v2.64c0,.5.38.89.89.89h.66c.32,0,.59.27.59.59s-.27.59-.59.59h-.67Z"/>
    <path class="cls-1" d="M121.55,165.05c-1.78,0-3.03-1.32-3.03-2.94s1.25-2.94,3.03-2.94h.7c1.12,0,1.87.79,1.87,1.77s-.74,1.76-1.87,1.76h-1.12c-.32,0-.59-.27-.59-.59s.27-.59.59-.59h1.12c.4,0,.67-.27.67-.59s-.27-.59-.67-.59h-.7c-1.07,0-1.83.8-1.83,1.76s.77,1.77,1.83,1.77h1.7c.32,0,.59.27.59.59s-.27.59-.59.59h-1.7Z"/>
    <path class="cls-1" d="M128.89,161.5c0-.63-.52-1.15-1.15-1.15h-1.51v4.2c0,.33-.27.6-.6.6s-.6-.27-.6-.6v-4.77c0-.33.27-.6.6-.6h2.11c1.3,0,2.35,1.05,2.35,2.35v3.02c0,.33-.27.6-.6.6s-.6-.27-.6-.6v-3.04Z"/>
    <path class="cls-1" d="M136.48,165.05c-1.78,0-3.03-1.32-3.03-2.94s1.25-2.94,3.03-2.94h1.36v-1.84c0-.33.27-.6.6-.6s.6.27.6.6v7.13c0,.33-.27.6-.6.6h-1.96ZM137.84,160.35h-1.36c-1.07,0-1.83.8-1.83,1.76s.77,1.77,1.83,1.77h1.36v-3.53Z"/>
    <path class="cls-1" d="M141.8,165.05c-1.08,0-1.82-.82-1.82-1.82s.74-1.82,1.82-1.82h1.12c.32,0,.59.27.59.59s-.27.59-.59.59h-1.12c-.37,0-.62.31-.62.64s.25.64.62.64h2.15v-2.49c0-.59-.41-1.04-1.02-1.04h-1.89c-.32,0-.59-.27-.59-.59s.27-.59.59-.59h1.89c1.24,0,2.22.99,2.22,2.21v3.07c0,.33-.21.6-.6.6h-2.75Z"/>
    <path class="cls-1" d="M148.89,165.05c-1.14,0-2.08-.93-2.08-2.08v-2.63h-.7c-.32,0-.59-.27-.59-.59s.27-.59.59-.59h.7v-1.18c0-.33.27-.6.6-.6s.6.27.6.6v1.18h1.54c.32,0,.59.27.59.59s-.27.59-.59.59h-1.54v2.64c0,.5.38.89.89.89h.66c.32,0,.59.27.59.59s-.27.59-.59.59h-.67Z"/>
    <path class="cls-1" d="M21.44,183.14c-.32,0-.59-.27-.59-.59s.27-.59.59-.59h.23c1,0,1.38-.52,1.38-1.51v-5.04c0-.33.27-.6.6-.6s.6.27.6.6v5.03c0,1.65-.84,2.7-2.57,2.7h-.24ZM23.65,173.93c-.41,0-.74-.32-.74-.73s.33-.73.74-.73.74.32.74.73-.33.73-.74.73Z"/>
    <path class="cls-1" d="M28.19,180.79c-1.78,0-3.03-1.32-3.03-2.94s1.25-2.94,3.03-2.94h.7c1.12,0,1.87.79,1.87,1.77s-.74,1.76-1.87,1.76h-1.12c-.32,0-.59-.27-.59-.59s.27-.59.59-.59h1.12c.4,0,.67-.27.67-.59s-.27-.59-.67-.59h-.7c-1.06,0-1.83.8-1.83,1.76s.77,1.77,1.83,1.77h1.7c.32,0,.59.27.59.59s-.27.59-.59.59h-1.7Z"/>
    <path class="cls-1" d="M37.98,177.23c0-.63-.52-1.15-1.16-1.15h-1.51v4.2c0,.33-.27.6-.6.6s-.6-.27-.6-.6v-4.77c0-.33.27-.6.6-.6h2.11c1.3,0,2.35,1.05,2.35,2.35v3.02c0,.33-.27.6-.6.6s-.6-.27-.6-.6v-3.04Z"/>
    <path class="cls-1" d="M44.26,175.41c0-.33.27-.6.6-.6s.6.27.6.6v2.97c0,1.4-1.14,2.54-2.54,2.54s-2.54-1.14-2.54-2.54v-2.97c0-.33.27-.6.6-.6s.6.27.6.6v3.01c0,.73.61,1.34,1.34,1.34s1.34-.61,1.34-1.34v-3.01Z"/>
    <path class="cls-1" d="M52.97,177.23c0-.63-.52-1.15-1.15-1.15h-1.51v4.2c0,.33-.27.6-.6.6s-.6-.27-.6-.6v-7.22c0-.33.27-.6.6-.6s.6.27.6.6v1.84h1.51c1.3,0,2.35,1.05,2.35,2.35v3.02c0,.33-.27.6-.6.6s-.6-.27-.6-.6v-3.04Z"/>
    <path class="cls-1" d="M58.11,180.79c-1.78,0-3.03-1.32-3.03-2.94s1.25-2.94,3.03-2.94h.7c1.12,0,1.86.79,1.86,1.77s-.74,1.76-1.86,1.76h-1.12c-.32,0-.59-.27-.59-.59s.27-.59.59-.59h1.12c.4,0,.67-.27.67-.59s-.27-.59-.67-.59h-.7c-1.07,0-1.83.8-1.83,1.76s.77,1.77,1.83,1.77h1.7c.32,0,.59.27.59.59s-.27.59-.59.59h-1.7Z"/>
    <path class="cls-1" d="M62.19,180.79c-.33,0-.6-.27-.6-.6v-7.13c0-.33.27-.6.6-.6s.6.27.6.6v1.84h1.37c1.78,0,3.03,1.32,3.03,2.94s-1.25,2.94-3.03,2.94h-1.96ZM64.16,179.61c1.07,0,1.83-.8,1.83-1.77s-.77-1.76-1.83-1.76h-1.37v3.53h1.37Z"/>
    <path class="cls-1" d="M70.7,180.79c-1.14,0-2.08-.93-2.08-2.08v-2.63h-.7c-.32,0-.59-.27-.59-.59s.27-.59.59-.59h.7v-1.18c0-.33.27-.6.6-.6s.6.27.6.6v1.18h1.54c.32,0,.59.27.59.59s-.27.59-.59.59h-1.54v2.64c0,.5.38.89.89.89h.66c.32,0,.59.27.59.59s-.27.59-.59.59h-.67Z"/>
    <path class="cls-1" d="M77.96,180.79c-1.78,0-3.03-1.32-3.03-2.94s1.25-2.94,3.03-2.94h.7c1.12,0,1.87.79,1.87,1.77s-.74,1.76-1.87,1.76h-1.12c-.32,0-.59-.27-.59-.59s.27-.59.59-.59h1.12c.4,0,.67-.27.67-.59s-.27-.59-.67-.59h-.7c-1.06,0-1.83.8-1.83,1.76s.77,1.77,1.83,1.77h1.7c.32,0,.59.27.59.59s-.27.59-.59.59h-1.7Z"/>
    <path class="cls-1" d="M85.3,177.23c0-.63-.52-1.15-1.15-1.15h-1.51v4.2c0,.33-.27.6-.6.6s-.6-.27-.6-.6v-4.77c0-.33.27-.6.6-.6h2.11c1.3,0,2.35,1.05,2.35,2.35v3.02c0,.33-.27.6-.6.6s-.6-.27-.6-.6v-3.04Z"/>
    <path class="cls-1" d="M91.34,180.79v1.84c0,.33-.27.6-.6.6s-.6-.27-.6-.6v-7.13c0-.33.27-.6.6-.6h1.96c1.78,0,3.03,1.32,3.03,2.94s-1.25,2.94-3.03,2.94h-1.36ZM92.71,179.61c1.07,0,1.83-.8,1.83-1.77s-.77-1.76-1.83-1.76h-1.36v3.53h1.36Z"/>
    <path class="cls-1" d="M98.21,180.79c-1.08,0-1.82-.82-1.82-1.82s.74-1.82,1.82-1.82h1.12c.32,0,.59.27.59.59s-.27.59-.59.59h-1.12c-.37,0-.62.31-.62.64s.25.64.62.64h2.15v-2.49c0-.59-.41-1.04-1.02-1.04h-1.89c-.32,0-.59-.27-.59-.59s.27-.59.59-.59h1.89c1.24,0,2.22.99,2.22,2.21v3.07c0,.33-.21.6-.6.6h-2.75Z"/>
    <path class="cls-1" d="M103.96,177.95v2.32c0,.33-.27.6-.6.6s-.6-.27-.6-.6v-7.22c0-.33.27-.6.6-.6s.6.27.6.6v4.67l2.74-2.74c.23-.23.6-.23.83,0,.22.23.22.6,0,.83l-2.02,2.02,2.02,2.02c.23.23.22.6,0,.83-.23.23-.6.23-.83,0l-2.74-2.74Z"/>
    <path class="cls-1" d="M110.54,175.66c-.13-.3,0-.66.3-.79.3-.14.66,0,.79.3l1.73,4,1.73-4c.13-.3.49-.44.79-.3.3.13.43.49.3.79l-2.15,4.8c-.11.25-.34.43-.67.43s-.55-.18-.67-.43l-2.15-4.8Z"/>
    <path class="cls-1" d="M119.72,180.93c-1.83,0-3.12-1.38-3.12-3.09s1.29-3.09,3.12-3.09,3.12,1.38,3.12,3.09-1.3,3.09-3.12,3.09ZM119.72,175.92c-1.11,0-1.92.87-1.92,1.92s.81,1.92,1.92,1.92,1.92-.87,1.92-1.92-.81-1.92-1.92-1.92Z"/>
    <path class="cls-1" d="M126.69,180.93c-1.83,0-3.12-1.38-3.12-3.09s1.29-3.09,3.12-3.09,3.12,1.38,3.12,3.09-1.3,3.09-3.12,3.09ZM126.69,175.92c-1.11,0-1.92.87-1.92,1.92s.81,1.92,1.92,1.92,1.92-.87,1.92-1.92-.81-1.92-1.92-1.92Z"/>
    <path class="cls-1" d="M135.23,177.2c0,.33-.27.6-.6.6s-.6-.27-.6-.59v-.08c0-.59-.43-1.05-1.05-1.05h-1.05v4.2c0,.33-.27.6-.6.6s-.6-.27-.6-.6v-4.77c0-.33.27-.6.6-.6h1.65c1.27,0,2.25,1.01,2.25,2.23v.07Z"/>
    <path class="cls-1" d="M23.35,196.52c-1.78,0-3.03-1.32-3.03-2.94s1.25-2.94,3.03-2.94h1.36v-1.84c0-.33.27-.6.6-.6s.6.27.6.6v7.13c0,.33-.27.6-.6.6h-1.96ZM24.72,191.81h-1.36c-1.07,0-1.83.8-1.83,1.76s.77,1.77,1.83,1.77h1.36v-3.53Z"/>
    <path class="cls-1" d="M28.67,196.52c-1.08,0-1.82-.82-1.82-1.82s.74-1.82,1.82-1.82h1.12c.32,0,.59.27.59.59s-.27.59-.59.59h-1.12c-.37,0-.62.31-.62.64s.26.64.62.64h2.15v-2.49c0-.59-.41-1.04-1.02-1.04h-1.89c-.32,0-.59-.27-.59-.59s.27-.59.59-.59h1.89c1.24,0,2.22.99,2.22,2.21v3.07c0,.33-.21.6-.6.6h-2.75Z"/>
    <path class="cls-1" d="M35.77,196.52c-1.14,0-2.08-.93-2.08-2.08v-2.63h-.7c-.32,0-.59-.27-.59-.59s.27-.59.59-.59h.7v-1.18c0-.33.27-.6.6-.6s.6.27.6.6v1.18h1.54c.32,0,.59.27.59.59s-.27.59-.59.59h-1.54v2.64c0,.5.38.89.89.89h.65c.32,0,.59.27.59.59s-.27.59-.59.59h-.67Z"/>
    <path class="cls-1" d="M41.84,196.52c-1.08,0-1.82-.82-1.82-1.82s.74-1.82,1.82-1.82h1.12c.32,0,.59.27.59.59s-.27.59-.59.59h-1.12c-.37,0-.62.31-.62.64s.25.64.62.64h2.15v-2.49c0-.59-.41-1.04-1.02-1.04h-1.89c-.32,0-.59-.27-.59-.59s.27-.59.59-.59h1.89c1.24,0,2.22.99,2.22,2.21v3.07c0,.33-.21.6-.6.6h-2.75Z"/>
    <path class="cls-1" d="M47.95,196.52c-1.08,0-1.82-.82-1.82-1.82s.74-1.82,1.82-1.82h1.12c.32,0,.59.27.59.59s-.27.59-.59.59h-1.12c-.37,0-.62.31-.62.64s.25.64.62.64h2.15v-2.49c0-.59-.41-1.04-1.02-1.04h-1.89c-.32,0-.59-.27-.59-.59s.27-.59.59-.59h1.89c1.24,0,2.22.99,2.22,2.21v3.07c0,.33-.21.6-.6.6h-2.75Z"/>
    <path class="cls-1" d="M56.37,192.97c0-.63-.52-1.15-1.15-1.15h-1.51v4.2c0,.33-.27.6-.6.6s-.6-.27-.6-.6v-4.77c0-.33.27-.6.6-.6h2.11c1.3,0,2.35,1.05,2.35,2.35v3.02c0,.33-.27.6-.6.6s-.6-.27-.6-.6v-3.04Z"/>
    <path class="cls-1" d="M61.31,196.52c-1.14,0-2.08-.93-2.08-2.08v-2.63h-.7c-.32,0-.59-.27-.59-.59s.27-.59.59-.59h.7v-1.18c0-.33.27-.6.6-.6s.6.27.6.6v1.18h1.54c.32,0,.59.27.59.59s-.27.59-.59.59h-1.54v2.64c0,.5.38.89.89.89h.65c.32,0,.59.27.59.59s-.27.59-.59.59h-.67Z"/>
    <path class="cls-1" d="M64.94,196.52c-1.08,0-1.82-.82-1.82-1.82s.74-1.82,1.82-1.82h1.12c.32,0,.59.27.59.59s-.27.59-.59.59h-1.12c-.37,0-.62.31-.62.64s.26.64.62.64h2.15v-2.49c0-.59-.41-1.04-1.02-1.04h-1.89c-.32,0-.59-.27-.59-.59s.27-.59.59-.59h1.89c1.24,0,2.22.99,2.22,2.21v3.07c0,.33-.21.6-.6.6h-2.75Z"/>
    <path class="cls-1" d="M69.5,188.79c0-.33.27-.6.6-.6s.6.27.6.6v7.22c0,.33-.27.6-.6.6s-.6-.27-.6-.6v-7.22Z"/>
    <path class="cls-1" d="M75.54,193.69v2.32c0,.33-.27.6-.6.6s-.6-.27-.6-.6v-7.22c0-.33.27-.6.6-.6s.6.27.6.6v4.67l2.74-2.74c.23-.23.6-.23.83,0,.22.23.22.6,0,.83l-2.02,2.02,2.02,2.02c.23.23.22.6,0,.83-.23.23-.6.23-.83,0l-2.74-2.74Z"/>
    <path class="cls-1" d="M81.6,196.52c-1.08,0-1.82-.82-1.82-1.82s.74-1.82,1.82-1.82h1.12c.32,0,.59.27.59.59s-.27.59-.59.59h-1.12c-.37,0-.62.31-.62.64s.25.64.62.64h2.15v-2.49c0-.59-.41-1.04-1.02-1.04h-1.89c-.32,0-.59-.27-.59-.59s.27-.59.59-.59h1.89c1.24,0,2.22.99,2.22,2.21v3.07c0,.33-.21.6-.6.6h-2.75Z"/>
    <path class="cls-1" d="M87.71,196.52c-1.08,0-1.82-.82-1.82-1.82s.74-1.82,1.82-1.82h1.12c.32,0,.59.27.59.59s-.27.59-.59.59h-1.12c-.37,0-.62.31-.62.64s.26.64.62.64h2.15v-2.49c0-.59-.41-1.04-1.02-1.04h-1.89c-.32,0-.59-.27-.59-.59s.27-.59.59-.59h1.89c1.24,0,2.22.99,2.22,2.21v3.07c0,.33-.21.6-.6.6h-2.75Z"/>
    <path class="cls-1" d="M96.77,192.93c0,.33-.27.6-.6.6s-.6-.27-.6-.59v-.08c0-.59-.43-1.05-1.05-1.05h-1.05v4.2c0,.33-.27.6-.6.6s-.6-.27-.6-.6v-4.77c0-.33.27-.6.6-.6h1.65c1.27,0,2.25,1.01,2.25,2.23v.07Z"/>
    <path class="cls-1" d="M100.42,196.52c-1.14,0-2.08-.93-2.08-2.08v-2.63h-.7c-.32,0-.59-.27-.59-.59s.27-.59.59-.59h.7v-1.18c0-.33.27-.6.6-.6s.6.27.6.6v1.18h1.54c.32,0,.59.27.59.59s-.27.59-.59.59h-1.54v2.64c0,.5.38.89.89.89h.66c.32,0,.59.27.59.59s-.27.59-.59.59h-.67Z"/>
    <path class="cls-1" d="M105.07,196.52c-1.78,0-3.03-1.32-3.03-2.94s1.25-2.94,3.03-2.94h.7c1.12,0,1.87.79,1.87,1.77s-.74,1.76-1.87,1.76h-1.12c-.32,0-.59-.27-.59-.59s.27-.59.59-.59h1.12c.4,0,.67-.27.67-.59s-.27-.59-.67-.59h-.7c-1.07,0-1.83.8-1.83,1.76s.77,1.77,1.83,1.77h1.7c.32,0,.59.27.59.59s-.27.59-.59.59h-1.7Z"/>
    <path class="cls-1" d="M112.41,192.97c0-.63-.52-1.15-1.15-1.15h-1.51v4.2c0,.33-.27.6-.6.6s-.6-.27-.6-.6v-4.77c0-.33.27-.6.6-.6h2.11c1.3,0,2.35,1.05,2.35,2.35v3.02c0,.33-.27.6-.6.6s-.6-.27-.6-.6v-3.04Z"/>
    <path class="cls-1" d="M23.35,212.25c-1.78,0-3.03-1.32-3.03-2.94s1.25-2.94,3.03-2.94h.7c1.12,0,1.86.79,1.86,1.77s-.74,1.76-1.86,1.76h-1.12c-.32,0-.59-.27-.59-.59s.27-.59.59-.59h1.12c.4,0,.67-.27.67-.59s-.27-.59-.67-.59h-.7c-1.07,0-1.83.8-1.83,1.76s.77,1.77,1.83,1.77h1.7c.32,0,.59.27.59.59s-.27.59-.59.59h-1.7Z"/>
    <path class="cls-1" d="M29.68,212.25c-1.78,0-3.03-1.32-3.03-2.94s1.25-2.94,3.03-2.94h.7c1.12,0,1.86.79,1.86,1.77s-.74,1.76-1.86,1.76h-1.12c-.32,0-.59-.27-.59-.59s.27-.59.59-.59h1.12c.4,0,.67-.27.67-.59s-.27-.59-.67-.59h-.7c-1.07,0-1.83.8-1.83,1.76s.77,1.77,1.83,1.77h1.7c.32,0,.59.27.59.59s-.27.59-.59.59h-1.7Z"/>
    <path class="cls-1" d="M37.02,208.7c0-.63-.52-1.15-1.16-1.15h-1.51v4.2c0,.33-.27.6-.6.6s-.6-.27-.6-.6v-4.77c0-.33.27-.6.6-.6h2.11c1.3,0,2.35,1.05,2.35,2.35v3.02c0,.33-.27.6-.6.6s-.6-.27-.6-.6v-3.04Z"/>
    <path class="cls-1" d="M45.73,208.7c0-.63-.52-1.15-1.15-1.15h-1.51v4.2c0,.33-.27.6-.6.6s-.6-.27-.6-.6v-4.77c0-.33.27-.6.6-.6h2.11c1.3,0,2.35,1.05,2.35,2.35v3.02c0,.33-.27.6-.6.6s-.6-.27-.6-.6v-3.04Z"/>
    <path class="cls-1" d="M48.73,205.39c-.41,0-.74-.32-.74-.73s.33-.73.74-.73.74.32.74.73-.33.73-.74.73ZM48.13,206.88c0-.33.27-.6.6-.6s.6.27.6.6v4.86c0,.33-.27.6-.6.6s-.6-.27-.6-.6v-4.86Z"/>
    <path class="cls-1" d="M53.27,212.25c-1.78,0-3.03-1.32-3.03-2.94s1.25-2.94,3.03-2.94h.7c1.12,0,1.86.79,1.86,1.77s-.74,1.76-1.86,1.76h-1.12c-.32,0-.59-.27-.59-.59s.27-.59.59-.59h1.12c.4,0,.67-.27.67-.59s-.27-.59-.67-.59h-.7c-1.07,0-1.83.8-1.83,1.76s.77,1.77,1.83,1.77h1.7c.32,0,.59.27.59.59s-.27.59-.59.59h-1.7Z"/>
    <path class="cls-1" d="M60.63,206.88c0-.33.27-.6.6-.6s.6.27.6.6v2.97c0,1.4-1.14,2.54-2.54,2.54s-2.54-1.14-2.54-2.54v-2.97c0-.33.27-.6.6-.6s.6.27.6.6v3.01c0,.73.61,1.34,1.34,1.34s1.34-.61,1.34-1.34v-3.01Z"/>
    <path class="cls-1" d="M69.83,206.88c0-.33.27-.6.6-.6s.6.27.6.6v3.26c0,1.24-1.01,2.25-2.25,2.25-.7,0-1.33-.32-1.74-.82-.41.5-1.04.82-1.74.82-1.24,0-2.25-1.01-2.25-2.25v-3.26c0-.33.27-.6.6-.6s.6.27.6.6v3.29c0,.6.5,1.1,1.1,1.1s1.1-.5,1.1-1.1v-3.29c0-.33.27-.6.6-.6s.6.27.6.6v3.29c0,.6.5,1.1,1.1,1.1s1.1-.5,1.1-1.1v-3.29Z"/>
    <path class="cls-1" d="M77.42,212.25c-1.78,0-3.03-1.32-3.03-2.94s1.25-2.94,3.03-2.94h1.37v-1.84c0-.33.27-.6.6-.6s.6.27.6.6v7.13c0,.33-.27.6-.6.6h-1.96ZM78.78,207.55h-1.37c-1.06,0-1.83.8-1.83,1.76s.77,1.77,1.83,1.77h1.37v-3.53Z"/>
    <path class="cls-1" d="M83.92,212.25c-1.78,0-3.03-1.32-3.03-2.94s1.25-2.94,3.03-2.94h.7c1.12,0,1.86.79,1.86,1.77s-.74,1.76-1.86,1.76h-1.12c-.32,0-.59-.27-.59-.59s.27-.59.59-.59h1.12c.4,0,.67-.27.67-.59s-.27-.59-.67-.59h-.7c-1.07,0-1.83.8-1.83,1.76s.77,1.77,1.83,1.77h1.7c.32,0,.59.27.59.59s-.27.59-.59.59h-1.7Z"/>
    <path class="cls-1" d="M88.6,209.42v2.32c0,.33-.27.6-.6.6s-.6-.27-.6-.6v-7.22c0-.33.27-.6.6-.6s.6.27.6.6v4.67l2.74-2.74c.23-.23.6-.23.83,0,.22.23.22.6,0,.83l-2.02,2.02,2.02,2.02c.23.23.22.6,0,.83-.23.23-.6.23-.83,0l-2.74-2.74Z"/>
    <path class="cls-1" d="M95.18,207.12c-.13-.3,0-.66.3-.79.3-.14.66,0,.79.3l1.73,4,1.73-4c.13-.3.49-.44.79-.3.3.13.43.49.3.79l-2.15,4.8c-.11.25-.34.43-.67.43s-.55-.18-.67-.43l-2.15-4.8Z"/>
    <path class="cls-1" d="M103.19,212.25c-1.08,0-1.82-.82-1.82-1.82s.74-1.82,1.82-1.82h1.12c.32,0,.59.27.59.59s-.27.59-.59.59h-1.12c-.37,0-.62.31-.62.64s.25.64.62.64h2.15v-2.49c0-.59-.41-1.04-1.02-1.04h-1.89c-.32,0-.59-.27-.59-.59s.27-.59.59-.59h1.89c1.24,0,2.22.99,2.22,2.21v3.07c0,.33-.21.6-.6.6h-2.75Z"/>
    <path class="cls-1" d="M111.61,208.7c0-.63-.52-1.15-1.15-1.15h-1.51v4.2c0,.33-.27.6-.6.6s-.6-.27-.6-.6v-4.77c0-.33.27-.6.6-.6h2.11c1.3,0,2.35,1.05,2.35,2.35v3.02c0,.33-.27.6-.6.6s-.6-.27-.6-.6v-3.04Z"/>
    <path class="cls-1" d="M119.2,212.25c-1.78,0-3.03-1.32-3.03-2.94s1.25-2.94,3.03-2.94h1.36v-1.84c0-.33.27-.6.6-.6s.6.27.6.6v7.13c0,.33-.27.6-.6.6h-1.96ZM120.56,207.55h-1.36c-1.07,0-1.83.8-1.83,1.76s.77,1.77,1.83,1.77h1.36v-3.53Z"/>
    <path class="cls-1" d="M125.7,212.25c-1.78,0-3.03-1.32-3.03-2.94s1.25-2.94,3.03-2.94h.7c1.12,0,1.87.79,1.87,1.77s-.74,1.76-1.87,1.76h-1.12c-.32,0-.59-.27-.59-.59s.27-.59.59-.59h1.12c.4,0,.67-.27.67-.59s-.27-.59-.67-.59h-.7c-1.07,0-1.83.8-1.83,1.76s.77,1.77,1.83,1.77h1.7c.32,0,.59.27.59.59s-.27.59-.59.59h-1.7Z"/>
    <path class="cls-1" d="M21.81,225.16v2.32c0,.33-.27.6-.6.6s-.6-.27-.6-.6v-7.22c0-.33.27-.6.6-.6s.6.27.6.6v4.67l2.74-2.74c.23-.23.6-.23.83,0,.22.23.22.6,0,.83l-2.02,2.02,2.02,2.02c.23.23.22.6,0,.83-.23.23-.6.23-.83,0l-2.74-2.74Z"/>
    <path class="cls-1" d="M28.82,228.13c-1.83,0-3.12-1.38-3.12-3.09s1.29-3.09,3.12-3.09,3.12,1.38,3.12,3.09-1.3,3.09-3.12,3.09ZM28.82,223.12c-1.11,0-1.92.87-1.92,1.92s.81,1.92,1.92,1.92,1.92-.87,1.92-1.92-.81-1.92-1.92-1.92Z"/>
    <path class="cls-1" d="M35.79,228.13c-1.83,0-3.12-1.38-3.12-3.09s1.29-3.09,3.12-3.09,3.12,1.38,3.12,3.09-1.3,3.09-3.12,3.09ZM35.79,223.12c-1.11,0-1.92.87-1.92,1.92s.81,1.92,1.92,1.92,1.92-.87,1.92-1.92-.81-1.92-1.92-1.92Z"/>
    <path class="cls-1" d="M41.02,227.99v1.84c0,.33-.27.6-.6.6s-.6-.27-.6-.6v-7.13c0-.33.27-.6.6-.6h1.96c1.78,0,3.03,1.32,3.03,2.94s-1.25,2.94-3.03,2.94h-1.37ZM42.39,226.81c1.07,0,1.83-.8,1.83-1.77s-.77-1.76-1.83-1.76h-1.37v3.53h1.37Z"/>
    <path class="cls-1" d="M46.8,227.99c-.32,0-.59-.27-.59-.59s.27-.59.59-.59h2.49c.4,0,.67-.27.67-.59s-.27-.59-.67-.59h-1.38c-1.12,0-1.86-.79-1.86-1.76s.74-1.77,1.86-1.77h2.49c.32,0,.59.27.59.59s-.27.59-.59.59h-2.49c-.4,0-.67.27-.67.59s.27.59.67.59h1.38c1.12,0,1.86.79,1.86,1.76s-.74,1.77-1.86,1.77h-2.49Z"/>
    <path class="cls-1" d="M54.83,227.99c-1.14,0-2.08-.93-2.08-2.08v-2.63h-.7c-.32,0-.59-.27-.59-.59s.27-.59.59-.59h.7v-1.18c0-.33.27-.6.6-.6s.6.27.6.6v1.18h1.54c.32,0,.59.27.59.59s-.27.59-.59.59h-1.54v2.64c0,.5.38.89.89.89h.65c.32,0,.59.27.59.59s-.27.59-.59.59h-.67Z"/>
    <path class="cls-1" d="M58.46,227.99c-1.08,0-1.82-.82-1.82-1.82s.74-1.82,1.82-1.82h1.12c.32,0,.59.27.59.59s-.27.59-.59.59h-1.12c-.37,0-.62.31-.62.64s.26.64.62.64h2.15v-2.49c0-.59-.41-1.04-1.02-1.04h-1.89c-.32,0-.59-.27-.59-.59s.27-.59.59-.59h1.89c1.24,0,2.22.99,2.22,2.21v3.07c0,.33-.21.6-.6.6h-2.75Z"/>
    <path class="cls-1" d="M64.21,227.99v1.84c0,.33-.27.6-.6.6s-.6-.27-.6-.6v-7.13c0-.33.27-.6.6-.6h1.96c1.78,0,3.03,1.32,3.03,2.94s-1.25,2.94-3.03,2.94h-1.36ZM65.58,226.81c1.07,0,1.83-.8,1.83-1.77s-.77-1.76-1.83-1.76h-1.36v3.53h1.36Z"/>
    <path class="cls-1" d="M72.37,227.99c-1.78,0-3.03-1.32-3.03-2.94s1.25-2.94,3.03-2.94h.7c1.12,0,1.86.79,1.86,1.77s-.74,1.76-1.86,1.76h-1.12c-.32,0-.59-.27-.59-.59s.27-.59.59-.59h1.12c.4,0,.67-.27.67-.59s-.27-.59-.67-.59h-.7c-1.07,0-1.83.8-1.83,1.76s.77,1.77,1.83,1.77h1.7c.32,0,.59.27.59.59s-.27.59-.59.59h-1.7Z"/>
    <path class="cls-1" d="M75.85,220.26c0-.33.27-.6.6-.6s.6.27.6.6v7.22c0,.33-.27.6-.6.6s-.6-.27-.6-.6v-7.22Z"/>
  </g>
</svg>