<?xml version="1.0" encoding="UTF-8"?>
<svg id="Laag_1" data-name="Laag 1" xmlns="http://www.w3.org/2000/svg" viewBox="0 0 164.41 249.45">
  <defs>
    <style>
      .cls-1 {
        stroke: #fff;
        stroke-miterlimit: 10;
        stroke-width: .49px;
      }

      .cls-1, .cls-2 {
        fill: #fff;
      }

      .cls-3 {
        fill: #8082b8;
      }

      .cls-3, .cls-4, .cls-5, .cls-6, .cls-7, .cls-2 {
        stroke-width: 0px;
      }

      .cls-4 {
        fill: #2f2f2f;
      }

      .cls-5 {
        fill: #1d1d1b;
      }

      .cls-6 {
        fill: #1d1d1d;
      }

      .cls-7 {
        fill: #8abb2a;
      }
    </style>
  </defs>
  <rect class="cls-4" x="0" width="164.41" height="249.45"/>
  <g>
    <path class="cls-3" d="M141.73,206.68c-4.35,0-7.89-3.7-7.89-8.26s3.54-8.25,7.89-8.25,7.89,3.7,7.89,8.25-3.54,8.26-7.89,8.26Z"/>
    <path class="cls-5" d="M141.73,191.17c3.8,0,6.89,3.25,6.89,7.26s-3.09,7.26-6.89,7.26-6.89-3.25-6.89-7.26,3.09-7.26,6.89-7.26M141.73,189.17c-4.91,0-8.89,4.14-8.89,9.26s3.98,9.26,8.89,9.26,8.89-4.14,8.89-9.26-3.98-9.26-8.89-9.26h0Z"/>
  </g>
  <g>
    <ellipse class="cls-7" cx="141.73" cy="226.17" rx="7.89" ry="8.26"/>
    <path class="cls-5" d="M141.73,218.92c3.8,0,6.89,3.25,6.89,7.26s-3.09,7.26-6.89,7.26-6.89-3.25-6.89-7.26,3.09-7.26,6.89-7.26M141.73,216.92c-4.91,0-8.89,4.14-8.89,9.26s3.98,9.26,8.89,9.26,8.89-4.14,8.89-9.26-3.98-9.26-8.89-9.26h0Z"/>
  </g>
  <g>
    <path class="cls-2" d="M29.29,34.46c0-1.05-.03-1.88-.08-2.49-.05-.62-.15-1.08-.29-1.4-.14-.31-.35-.51-.61-.59-.27-.08-.62-.11-1.06-.1.3-.44.6-.8.89-1.05s.58-.46.85-.6c.27-.14.53-.24.76-.28.24-.04.45-.06.63-.06.69,0,1.2.13,1.55.38.34.25.59.6.73,1.05.14.45.21.98.21,1.58v1.96c0,.67-.01,1.4-.04,2.17-.03.77-.1,1.54-.21,2.3-.12.76-.29,1.49-.53,2.18-.24.7-.56,1.31-.97,1.85-.41.54-.93.96-1.56,1.28-.63.32-1.39.47-2.28.47-1.18,0-2.12-.2-2.85-.59-.72-.39-1.28-.95-1.68-1.66-.39-.71-.66-1.55-.8-2.51-.14-.97-.2-2.02-.2-3.17,0-.67-.01-1.36-.03-2.06-.02-.7-.1-1.32-.25-1.86-.14-.54-.37-.95-.67-1.22-.3-.28-.72-.33-1.25-.14.3-.44.6-.8.89-1.05.29-.26.58-.46.85-.6.27-.14.53-.24.76-.28.24-.04.45-.06.63-.06.69,0,1.22.13,1.59.38.37.25.64.6.82,1.05s.27.98.29,1.58c.02.6.02,1.25.01,1.96-.03.85-.04,1.71-.04,2.59s.05,1.68.16,2.4.29,1.3.55,1.76c.26.46.64.69,1.14.69.4,0,.73-.15,1-.44.27-.29.48-.7.63-1.22.16-.52.27-1.14.33-1.85.06-.71.1-1.48.1-2.31Z"/>
    <path class="cls-2" d="M47.37,41.66c-.24.36-.49.64-.73.86s-.48.38-.7.49c-.22.11-.43.19-.62.23-.19.04-.37.05-.53.05-.56,0-1.01-.1-1.37-.3-.35-.2-.62-.48-.82-.84-.19-.36-.32-.79-.39-1.29-.06-.5-.1-1.05-.12-1.63v-.78c0-.35,0-.75.01-1.2,0-.45.01-.94.01-1.46s0-1.05-.02-1.58c-.01-.5-.1-.84-.26-1.01-.16-.17-.49-.26-1.01-.26-.26,0-.5.01-.74.03-.24.02-.48.05-.72.08.14.6.21,1.25.2,1.93,0,.69-.07,1.38-.19,2.09s-.3,1.39-.54,2.06c-.24.67-.52,1.29-.84,1.85s-.67,1.04-1.05,1.45c-.38.41-.78.7-1.21.87.04-.37.08-.9.1-1.58.02-.68.04-1.44.04-2.28,0-.84,0-1.72-.01-2.64-.01-.92-.04-1.82-.08-2.68s-.08-1.65-.14-2.37c-.06-.72-.12-1.3-.19-1.73.82-.07,1.5.04,2.04.33.54.29.98.71,1.31,1.24.54-.34,1.14-.61,1.78-.8.64-.19,1.29-.28,1.93-.28.6,0,1.09.08,1.46.23.37.15.66.37.87.64.21.28.35.62.42,1.03.07.41.11.87.11,1.39,0,1.23,0,2.29.01,3.16,0,.87.03,1.6.08,2.19.04.59.1,1.05.18,1.4.08.34.19.6.33.76.14.16.33.27.55.31s.5.06.83.04Z"/>
    <path class="cls-2" d="M54.76,27.79c.83-.06,1.52.1,2.07.46.55.37.99.88,1.31,1.55.32.67.54,1.44.64,2.31s.13,1.79.05,2.74c-.07.95-.22,1.9-.44,2.84-.22.94-.5,1.81-.84,2.6-.34.8-.72,1.48-1.15,2.05s-.89.96-1.38,1.16c.01-.12.03-.24.03-.39,0-.14.02-.31.03-.52-.6.24-1.27.35-2,.32-.83-.01-1.57-.17-2.21-.46-.64-.29-1.19-.69-1.63-1.19s-.78-1.09-1.02-1.77c-.24-.68-.36-1.42-.38-2.22-.01-.83.11-1.62.38-2.35.26-.74.64-1.39,1.12-1.97.48-.57,1.06-1.03,1.73-1.39.67-.35,1.4-.55,2.19-.59.31-.01.62,0,.91.02.29.03.58.09.85.17-.03-.75-.07-1.41-.12-2-.05-.59-.1-1.05-.16-1.38ZM55.15,40.69c.03-1.07.04-2.27.02-3.6-.01-1.32-.04-2.63-.06-3.9-.09,0-.17,0-.26.01-.09,0-.18.02-.28.03-.43.04-.82.19-1.16.43-.34.24-.64.54-.89.9-.25.36-.44.77-.58,1.23-.14.46-.21.92-.23,1.4-.04,1.88.7,3,2.21,3.37.42.12.82.16,1.22.13Z"/>
    <path class="cls-2" d="M72.1,38.41c-.59.09-1.12.16-1.6.23-.48.06-.97.11-1.47.15-.5.04-1.05.06-1.65.08-.6.01-1.31.02-2.13.02.1.92.6,1.6,1.49,2.04.89.44,2.27.57,4.14.39-.24.33-.56.61-.95.85-.39.24-.8.43-1.25.57-.44.14-.9.24-1.37.3-.47.06-.91.07-1.32.04-.69-.04-1.35-.21-1.98-.49-.63-.29-1.18-.7-1.65-1.24s-.85-1.2-1.13-1.99c-.28-.79-.41-1.7-.4-2.73.01-1.06.19-1.99.52-2.79.33-.8.76-1.47,1.28-2,.52-.53,1.1-.93,1.74-1.19.64-.26,1.27-.4,1.9-.4.93,0,1.77.14,2.53.41.75.27,1.39.73,1.9,1.36.52.64.9,1.48,1.15,2.53.25,1.05.33,2.34.25,3.87ZM66.65,32.46c-.3,0-.56.07-.78.21s-.4.38-.55.72c-.14.34-.25.78-.31,1.34s-.09,1.25-.07,2.08c.23.01.64.02,1.25.01.6,0,1.38-.02,2.34-.05.04-.72.02-1.35-.08-1.89-.09-.54-.23-1-.4-1.35-.17-.36-.38-.63-.62-.81s-.5-.27-.77-.27Z"/>
    <path class="cls-2" d="M81.24,37.68c.03-1.59-.17-2.81-.6-3.65-.43-.85-1.06-1.25-1.89-1.22-.12,0-.21,0-.3.01-.09,0-.17.02-.26.03.2.57.31,1.21.34,1.91.03.7-.01,1.42-.13,2.15-.12.73-.29,1.45-.52,2.16-.23.71-.51,1.36-.84,1.96-.33.59-.7,1.11-1.1,1.55-.4.44-.82.75-1.27.94.04-.37.07-.9.1-1.57.02-.67.04-1.43.04-2.26,0-.83,0-1.7-.01-2.61-.01-.91-.04-1.79-.07-2.63-.04-.85-.08-1.63-.14-2.34-.06-.72-.12-1.29-.19-1.72.69-.06,1.28.02,1.78.23.5.21.92.5,1.25.89.62-.63,1.48-.95,2.6-.95.7,0,1.3.12,1.79.35s.88.55,1.16.95.45.85.52,1.35c.06.51.02,1.03-.12,1.56-.14.53-.39,1.05-.75,1.56-.36.51-.82.96-1.4,1.36Z"/>
    <path class="cls-2" d="M95.1,39.53c-.04.6-.2,1.12-.46,1.55-.27.43-.6.78-.99,1.06-.39.28-.85.48-1.35.61-.51.13-1.04.19-1.58.17-.87-.01-1.65-.18-2.32-.48-.67-.31-1.24-.73-1.71-1.26-.47-.53-.82-1.16-1.07-1.88-.25-.72-.38-1.51-.4-2.35-.01-.87.12-1.71.4-2.49.28-.79.67-1.48,1.18-2.08.51-.6,1.11-1.09,1.82-1.46.7-.37,1.47-.58,2.3-.62.5-.03.98,0,1.45.1s.87.27,1.22.52.63.58.84.99c.21.41.31.92.31,1.54-.43-.37-.82-.61-1.18-.71-.36-.1-.79-.11-1.29-.04-.44.06-.85.21-1.21.46-.37.25-.68.57-.95.96s-.47.82-.61,1.3c-.14.48-.22.97-.24,1.47-.03,1,.16,1.8.56,2.39.4.59.99.98,1.76,1.18.66.16,1.3.16,1.91.01.62-.15,1.15-.46,1.61-.91Z"/>
    <path class="cls-2" d="M103.4,29.94c-.75.62-1.34,1.3-1.78,2.04-.44.75-.77,1.49-.97,2.24-.2.75-.3,1.47-.29,2.16,0,.7.1,1.31.27,1.86.17.54.41.98.71,1.3.3.32.64.48,1.03.48.42,0,.77-.14,1.06-.41.29-.27.52-.63.68-1.07.16-.44.24-.95.25-1.53,0-.57-.06-1.16-.21-1.77-.15-.61-.38-1.21-.69-1.79-.31-.59-.71-1.12-1.19-1.59,1.13.01,2.08.23,2.86.64.77.42,1.38.96,1.82,1.62s.71,1.42.83,2.25c.11.83.07,1.68-.13,2.54-.13.59-.35,1.15-.67,1.69-.32.54-.7,1.01-1.15,1.42s-.97.73-1.55.97-1.2.35-1.86.35c-.85,0-1.6-.14-2.28-.43-.67-.29-1.25-.69-1.72-1.21-.47-.52-.84-1.15-1.11-1.87-.27-.72-.4-1.52-.42-2.38-.03-.92.1-1.79.39-2.62.29-.83.71-1.58,1.27-2.26.56-.67,1.25-1.24,2.06-1.7.82-.46,1.75-.77,2.79-.92Z"/>
    <path class="cls-2" d="M112.55,43.29c-.09-1.29-.28-2.6-.59-3.94-.31-1.34-.65-2.6-1.04-3.77-.39-1.17-.78-2.22-1.17-3.13-.39-.91-.72-1.58-.98-2.01.6.1,1.24.39,1.9.86.67.47,1.29,1.09,1.87,1.84.58.75,1.08,1.62,1.5,2.59.42.97.69,2,.81,3.07.36-.5.72-1.15,1.08-1.93.37-.79.71-1.6,1.04-2.44.33-.84.62-1.64.88-2.42.26-.77.46-1.4.6-1.89.42.54.7,1.24.86,2.1.16.85.18,1.77.08,2.74-.11.97-.33,1.95-.68,2.93-.34.98-.81,1.87-1.39,2.68-.58.8-1.27,1.45-2.07,1.96-.8.5-1.71.76-2.71.77Z"/>
    <path class="cls-2" d="M132.5,38.41c-.59.09-1.12.16-1.6.23-.48.06-.97.11-1.47.15-.5.04-1.05.06-1.65.08-.6.01-1.31.02-2.13.02.1.92.6,1.6,1.49,2.04.89.44,2.27.57,4.14.39-.24.33-.56.61-.95.85-.39.24-.8.43-1.25.57-.44.14-.9.24-1.37.3-.47.06-.91.07-1.32.04-.69-.04-1.35-.21-1.98-.49-.63-.29-1.18-.7-1.65-1.24s-.85-1.2-1.13-1.99c-.28-.79-.41-1.7-.4-2.73.01-1.06.19-1.99.52-2.79.33-.8.76-1.47,1.28-2,.52-.53,1.1-.93,1.74-1.19.64-.26,1.27-.4,1.9-.4.93,0,1.77.14,2.53.41.75.27,1.39.73,1.9,1.36.52.64.9,1.48,1.15,2.53.25,1.05.33,2.34.25,3.87ZM127.04,32.46c-.3,0-.56.07-.78.21s-.4.38-.55.72c-.14.34-.25.78-.31,1.34s-.09,1.25-.07,2.08c.23.01.64.02,1.25.01.6,0,1.38-.02,2.34-.05.04-.72.02-1.35-.08-1.89-.09-.54-.23-1-.4-1.35-.17-.36-.38-.63-.62-.81s-.5-.27-.77-.27Z"/>
    <path class="cls-2" d="M141.63,37.68c.03-1.59-.17-2.81-.6-3.65-.43-.85-1.06-1.25-1.89-1.22-.11,0-.21,0-.3.01s-.17.02-.26.03c.2.57.31,1.21.34,1.91.03.7-.01,1.42-.13,2.15-.12.73-.29,1.45-.52,2.16-.23.71-.51,1.36-.84,1.96-.33.59-.7,1.11-1.1,1.55-.4.44-.82.75-1.27.94.04-.37.08-.9.1-1.57.02-.67.04-1.43.04-2.26,0-.83,0-1.7-.01-2.61-.02-.91-.04-1.79-.08-2.63-.04-.85-.08-1.63-.14-2.34-.06-.72-.12-1.29-.19-1.72.69-.06,1.28.02,1.78.23.5.21.92.5,1.25.89.62-.63,1.48-.95,2.6-.95.7,0,1.3.12,1.79.35s.88.55,1.16.95c.28.39.45.85.52,1.35.06.51.02,1.03-.12,1.56-.14.53-.39,1.05-.75,1.56-.36.51-.82.96-1.4,1.36Z"/>
  </g>
  <g>
    <path class="cls-1" d="M22,194.13c-.35,0-.65-.29-.65-.65v-6.28c0-.35.29-.65.65-.65s.65.29.65.65v5.68h2.9c.34,0,.62.28.62.62s-.28.62-.62.62h-3.55Z"/>
    <path class="cls-1" d="M29.37,194.13c-1.88,0-3.21-1.4-3.21-3.12s1.33-3.11,3.21-3.11h.74c1.19,0,1.97.83,1.97,1.87s-.79,1.87-1.97,1.87h-1.19c-.34,0-.62-.28-.62-.62s.28-.62.62-.62h1.19c.42,0,.71-.28.71-.62s-.28-.62-.71-.62h-.74c-1.13,0-1.94.85-1.94,1.87s.81,1.87,1.94,1.87h1.8c.34,0,.62.28.62.62s-.28.62-.62.62h-1.8Z"/>
    <path class="cls-1" d="M34.33,196.63c-.34,0-.62-.28-.62-.62s.28-.62.62-.62h2.23c.53,0,.95-.42.95-.95v-.29h-1.45c-1.88,0-3.21-1.4-3.21-3.12s1.33-3.11,3.21-3.11h2.08c.35,0,.63.28.63.63v5.89c0,1.21-.99,2.2-2.2,2.2h-2.26ZM37.52,189.15h-1.45c-1.13,0-1.94.85-1.94,1.87s.81,1.87,1.94,1.87h1.45v-3.74Z"/>
    <path class="cls-1" d="M45.55,194.13c-1.88,0-3.21-1.4-3.21-3.12s1.33-3.11,3.21-3.11h.74c1.19,0,1.97.83,1.97,1.87s-.79,1.87-1.97,1.87h-1.19c-.34,0-.62-.28-.62-.62s.28-.62.62-.62h1.19c.42,0,.71-.28.71-.62s-.28-.62-.71-.62h-.74c-1.13,0-1.94.85-1.94,1.87s.81,1.87,1.94,1.87h1.8c.34,0,.62.28.62.62s-.28.62-.62.62h-1.8Z"/>
    <path class="cls-1" d="M52.26,194.13c-1.88,0-3.21-1.4-3.21-3.12s1.33-3.11,3.21-3.11h.74c1.19,0,1.97.83,1.97,1.87s-.79,1.87-1.97,1.87h-1.19c-.34,0-.62-.28-.62-.62s.28-.62.62-.62h1.19c.42,0,.71-.28.71-.62s-.28-.62-.71-.62h-.74c-1.13,0-1.94.85-1.94,1.87s.81,1.87,1.94,1.87h1.8c.34,0,.62.28.62.62s-.28.62-.62.62h-1.8Z"/>
    <path class="cls-1" d="M60.03,190.37c0-.67-.55-1.22-1.22-1.22h-1.6v4.44c0,.35-.28.63-.63.63s-.64-.28-.64-.63v-5.06c0-.35.28-.63.64-.63h2.23c1.38,0,2.49,1.12,2.49,2.49v3.2c0,.35-.28.63-.63.63s-.64-.28-.64-.63v-3.22Z"/>
    <path class="cls-1" d="M66.43,191.13v2.46c0,.35-.28.63-.63.63s-.63-.28-.63-.63v-7.64c0-.35.28-.63.63-.63s.63.28.63.63v4.95l2.9-2.9c.25-.25.63-.25.88,0,.24.25.24.63,0,.88l-2.14,2.14,2.14,2.14c.25.25.24.63,0,.88-.25.25-.63.25-.88,0l-2.9-2.9Z"/>
    <path class="cls-1" d="M72.85,194.13c-1.14,0-1.93-.87-1.93-1.93s.79-1.93,1.93-1.93h1.19c.34,0,.62.28.62.62s-.28.62-.62.62h-1.19c-.39,0-.66.33-.66.68s.27.68.66.68h2.28v-2.63c0-.62-.44-1.1-1.08-1.1h-2c-.34,0-.62-.28-.62-.62s.28-.62.62-.62h2c1.32,0,2.35,1.05,2.35,2.34v3.26c0,.35-.22.63-.63.63h-2.92Z"/>
    <path class="cls-1" d="M79.32,194.13c-1.14,0-1.93-.87-1.93-1.93s.79-1.93,1.93-1.93h1.19c.34,0,.62.28.62.62s-.28.62-.62.62h-1.19c-.39,0-.66.33-.66.68s.27.68.66.68h2.28v-2.63c0-.62-.43-1.1-1.08-1.1h-2c-.34,0-.62-.28-.62-.62s.28-.62.62-.62h2c1.32,0,2.35,1.05,2.35,2.34v3.26c0,.35-.22.63-.63.63h-2.92Z"/>
    <path class="cls-1" d="M88.92,190.34c0,.35-.28.63-.64.63s-.63-.28-.63-.62v-.08c0-.62-.46-1.12-1.12-1.12h-1.12v4.44c0,.35-.28.63-.63.63s-.64-.28-.64-.63v-5.06c0-.35.28-.63.64-.63h1.75c1.34,0,2.39,1.07,2.39,2.36v.07Z"/>
    <path class="cls-1" d="M92.78,194.13c-1.21,0-2.2-.99-2.2-2.2v-2.79h-.74c-.34,0-.62-.28-.62-.62s.28-.62.62-.62h.74v-1.25c0-.35.28-.63.63-.63s.64.28.64.63v1.25h1.63c.34,0,.62.28.62.62s-.28.62-.62.62h-1.63v2.8c0,.53.4.94.94.94h.69c.34,0,.62.28.62.62s-.28.62-.62.62h-.71Z"/>
    <path class="cls-1" d="M101.66,190.37c0-.67-.55-1.22-1.22-1.22h-1.6v4.44c0,.35-.28.63-.64.63s-.63-.28-.63-.63v-5.06c0-.35.28-.63.63-.63h2.23c1.38,0,2.49,1.12,2.49,2.49v3.2c0,.35-.28.63-.63.63s-.63-.28-.63-.63v-3.22Z"/>
    <path class="cls-1" d="M105.85,194.13c-1.14,0-1.93-.87-1.93-1.93s.79-1.93,1.93-1.93h1.19c.34,0,.62.28.62.62s-.28.62-.62.62h-1.19c-.39,0-.66.33-.66.68s.27.68.66.68h2.28v-2.63c0-.62-.43-1.1-1.08-1.1h-2c-.34,0-.62-.28-.62-.62s.28-.62.62-.62h2c1.32,0,2.35,1.05,2.35,2.34v3.26c0,.35-.22.63-.64.63h-2.91Z"/>
    <path class="cls-1" d="M112.31,194.13c-1.14,0-1.93-.87-1.93-1.93s.79-1.93,1.93-1.93h1.19c.34,0,.62.28.62.62s-.28.62-.62.62h-1.19c-.39,0-.66.33-.66.68s.27.68.66.68h2.28v-2.63c0-.62-.43-1.1-1.08-1.1h-2c-.34,0-.62-.28-.62-.62s.28-.62.62-.62h2c1.32,0,2.35,1.05,2.35,2.34v3.26c0,.35-.22.63-.64.63h-2.91Z"/>
    <path class="cls-1" d="M121.91,190.34c0,.35-.28.63-.63.63s-.63-.28-.63-.62v-.08c0-.62-.46-1.12-1.12-1.12h-1.12v4.44c0,.35-.28.63-.64.63s-.63-.28-.63-.63v-5.06c0-.35.28-.63.63-.63h1.75c1.34,0,2.39,1.07,2.39,2.36v.07Z"/>
    <path class="cls-1" d="M22.61,207.8v2.46c0,.35-.28.63-.63.63s-.63-.28-.63-.63v-7.64c0-.35.28-.63.63-.63s.63.28.63.63v4.95l2.9-2.9c.25-.25.63-.25.88,0,.24.25.24.63,0,.88l-2.14,2.14,2.14,2.14c.25.25.24.63,0,.88-.25.25-.63.25-.88,0l-2.9-2.9Z"/>
    <path class="cls-1" d="M29.94,210.8c-1.88,0-3.21-1.4-3.21-3.12s1.33-3.11,3.21-3.11h.74c1.19,0,1.97.83,1.97,1.87s-.79,1.87-1.97,1.87h-1.19c-.34,0-.62-.28-.62-.62s.28-.62.62-.62h1.19c.42,0,.71-.28.71-.62s-.28-.62-.71-.62h-.74c-1.13,0-1.94.85-1.94,1.87s.81,1.87,1.94,1.87h1.8c.34,0,.62.28.62.62s-.28.62-.62.62h-1.8Z"/>
    <path class="cls-1" d="M37.74,205.11c0-.35.28-.63.63-.63s.63.28.63.63v3.15c0,1.48-1.21,2.69-2.69,2.69s-2.69-1.21-2.69-2.69v-3.15c0-.35.28-.63.64-.63s.63.28.63.63v3.19c0,.78.65,1.42,1.42,1.42s1.42-.65,1.42-1.42v-3.19Z"/>
    <path class="cls-1" d="M40.68,210.8c-.34,0-.62-.27-.62-.61,0-.14.06-.32.19-.47l3.21-3.9h-2.67c-.34,0-.62-.28-.62-.62s.28-.62.62-.62h3.95c.34,0,.61.27.61.61,0,.15-.06.32-.19.47l-3.21,3.9h2.66c.34,0,.62.28.62.62s-.28.62-.62.62h-3.93Z"/>
    <path class="cls-1" d="M48.83,210.8c-1.88,0-3.21-1.4-3.21-3.12s1.33-3.11,3.21-3.11h.74c1.19,0,1.97.83,1.97,1.87s-.79,1.87-1.97,1.87h-1.19c-.34,0-.62-.28-.62-.62s.28-.62.62-.62h1.19c.42,0,.71-.28.71-.62s-.28-.62-.71-.62h-.74c-1.13,0-1.94.85-1.94,1.87s.81,1.87,1.94,1.87h1.8c.34,0,.62.28.62.62s-.28.62-.62.62h-1.8Z"/>
    <path class="cls-1" d="M58.1,210.95c-1.94,0-3.3-1.46-3.3-3.27s1.36-3.27,3.3-3.27,3.3,1.46,3.3,3.27-1.38,3.27-3.3,3.27ZM58.1,205.65c-1.18,0-2.03.92-2.03,2.03s.86,2.03,2.03,2.03,2.03-.92,2.03-2.03-.86-2.03-2.03-2.03Z"/>
    <path class="cls-1" d="M66.46,207.03c0-.67-.55-1.22-1.22-1.22h-1.6v4.44c0,.35-.28.63-.63.63s-.63-.28-.63-.63v-5.06c0-.35.28-.63.63-.63h2.23c1.37,0,2.49,1.12,2.49,2.49v3.2c0,.35-.28.63-.63.63s-.63-.28-.63-.63v-3.22Z"/>
    <path class="cls-1" d="M71.91,210.8c-1.88,0-3.21-1.4-3.21-3.12s1.33-3.11,3.21-3.11h1.45v-1.95c0-.35.28-.63.63-.63s.63.28.63.63v7.55c0,.35-.28.63-.63.63h-2.08ZM73.36,205.81h-1.45c-1.13,0-1.94.85-1.94,1.87s.81,1.87,1.94,1.87h1.45v-3.74Z"/>
    <path class="cls-1" d="M78.8,210.8c-1.88,0-3.21-1.4-3.21-3.12s1.33-3.11,3.21-3.11h.74c1.19,0,1.97.83,1.97,1.87s-.79,1.87-1.97,1.87h-1.19c-.34,0-.62-.28-.62-.62s.28-.62.62-.62h1.19c.42,0,.71-.28.71-.62s-.28-.62-.71-.62h-.74c-1.13,0-1.94.85-1.94,1.87s.81,1.87,1.94,1.87h1.8c.34,0,.62.28.62.62s-.28.62-.62.62h-1.8Z"/>
    <path class="cls-1" d="M87.26,207c0,.35-.28.63-.64.63s-.63-.28-.63-.62v-.08c0-.62-.46-1.12-1.12-1.12h-1.12v4.44c0,.35-.28.63-.63.63s-.64-.28-.64-.63v-5.06c0-.35.28-.63.64-.63h1.75c1.34,0,2.39,1.07,2.39,2.36v.07Z"/>
    <path class="cls-1" d="M91.25,210.95c-1.94,0-3.3-1.46-3.3-3.27s1.36-3.27,3.3-3.27,3.3,1.46,3.3,3.27-1.38,3.27-3.3,3.27ZM91.25,205.65c-1.18,0-2.03.92-2.03,2.03s.86,2.03,2.03,2.03,2.03-.92,2.03-2.03-.86-2.03-2.03-2.03Z"/>
    <path class="cls-1" d="M96.79,210.8v1.95c0,.35-.28.63-.64.63s-.63-.28-.63-.63v-7.55c0-.35.28-.63.63-.63h2.08c1.88,0,3.21,1.4,3.21,3.11s-1.33,3.12-3.21,3.12h-1.45ZM98.23,209.55c1.13,0,1.94-.85,1.94-1.87s-.81-1.87-1.94-1.87h-1.45v3.74h1.45Z"/>
    <path class="cls-1" d="M107.9,210.8c-1.88,0-3.21-1.4-3.21-3.12s1.33-3.11,3.21-3.11h1.45v-1.95c0-.35.28-.63.63-.63s.64.28.64.63v7.55c0,.35-.28.63-.64.63h-2.08ZM109.35,205.81h-1.45c-1.13,0-1.94.85-1.94,1.87s.81,1.87,1.94,1.87h1.45v-3.74Z"/>
    <path class="cls-1" d="M114.8,210.8c-1.88,0-3.21-1.4-3.21-3.12s1.33-3.11,3.21-3.11h.74c1.19,0,1.98.83,1.98,1.87s-.79,1.87-1.98,1.87h-1.19c-.34,0-.62-.28-.62-.62s.28-.62.62-.62h1.19c.42,0,.71-.28.71-.62s-.28-.62-.71-.62h-.74c-1.13,0-1.94.85-1.94,1.87s.81,1.87,1.94,1.87h1.8c.34,0,.62.28.62.62s-.28.62-.62.62h-1.8Z"/>
    <path class="cls-1" d="M22.61,224.46v2.46c0,.35-.28.63-.63.63s-.63-.28-.63-.63v-7.64c0-.35.28-.63.63-.63s.63.28.63.63v4.95l2.9-2.9c.25-.25.63-.25.88,0,.24.25.24.63,0,.88l-2.14,2.14,2.14,2.14c.25.25.24.63,0,.88-.25.25-.63.25-.88,0l-2.9-2.9Z"/>
    <path class="cls-1" d="M30.04,227.61c-1.94,0-3.3-1.46-3.3-3.27s1.36-3.27,3.3-3.27,3.3,1.46,3.3,3.27-1.38,3.27-3.3,3.27ZM30.04,222.31c-1.18,0-2.03.92-2.03,2.03s.86,2.03,2.03,2.03,2.03-.92,2.03-2.03-.86-2.03-2.03-2.03Z"/>
    <path class="cls-1" d="M37.42,227.61c-1.94,0-3.3-1.46-3.3-3.27s1.36-3.27,3.3-3.27,3.3,1.46,3.3,3.27-1.38,3.27-3.3,3.27ZM37.42,222.31c-1.18,0-2.03.92-2.03,2.03s.86,2.03,2.03,2.03,2.03-.92,2.03-2.03-.86-2.03-2.03-2.03Z"/>
    <path class="cls-1" d="M42.96,227.46v1.95c0,.35-.28.63-.63.63s-.63-.28-.63-.63v-7.55c0-.35.28-.63.63-.63h2.08c1.88,0,3.21,1.4,3.21,3.11s-1.33,3.12-3.21,3.12h-1.45ZM44.41,226.21c1.13,0,1.94-.85,1.94-1.87s-.81-1.87-1.94-1.87h-1.45v3.74h1.45Z"/>
    <path class="cls-1" d="M49.08,227.46c-.34,0-.62-.28-.62-.62s.28-.62.62-.62h2.63c.42,0,.71-.28.71-.62s-.28-.62-.71-.62h-1.46c-1.19,0-1.97-.83-1.97-1.87s.79-1.87,1.97-1.87h2.63c.34,0,.62.28.62.62s-.28.62-.62.62h-2.63c-.42,0-.71.28-.71.62s.28.62.71.62h1.46c1.19,0,1.97.83,1.97,1.87s-.79,1.87-1.97,1.87h-2.63Z"/>
    <path class="cls-1" d="M57.58,227.46c-1.21,0-2.2-.99-2.2-2.2v-2.79h-.74c-.34,0-.62-.28-.62-.62s.28-.62.62-.62h.74v-1.25c0-.35.28-.63.63-.63s.63.28.63.63v1.25h1.63c.34,0,.62.28.62.62s-.28.62-.62.62h-1.63v2.8c0,.53.4.94.94.94h.69c.34,0,.62.28.62.62s-.28.62-.62.62h-.71Z"/>
    <path class="cls-1" d="M61.43,227.46c-1.14,0-1.93-.87-1.93-1.93s.79-1.93,1.93-1.93h1.19c.34,0,.62.28.62.62s-.28.62-.62.62h-1.19c-.39,0-.66.33-.66.68s.27.68.66.68h2.28v-2.63c0-.62-.44-1.1-1.08-1.1h-2c-.34,0-.62-.28-.62-.62s.28-.62.62-.62h2c1.32,0,2.35,1.05,2.35,2.34v3.26c0,.35-.22.63-.63.63h-2.92Z"/>
    <path class="cls-1" d="M67.52,227.46v1.95c0,.35-.28.63-.63.63s-.63-.28-.63-.63v-7.55c0-.35.28-.63.63-.63h2.08c1.88,0,3.21,1.4,3.21,3.11s-1.33,3.12-3.21,3.12h-1.45ZM68.97,226.21c1.13,0,1.94-.85,1.94-1.87s-.81-1.87-1.94-1.87h-1.45v3.74h1.45Z"/>
    <path class="cls-1" d="M76.17,227.46c-1.88,0-3.21-1.4-3.21-3.12s1.33-3.11,3.21-3.11h.74c1.19,0,1.97.83,1.97,1.87s-.79,1.87-1.97,1.87h-1.19c-.34,0-.62-.28-.62-.62s.28-.62.62-.62h1.19c.42,0,.71-.28.71-.62s-.28-.62-.71-.62h-.74c-1.13,0-1.94.85-1.94,1.87s.81,1.87,1.94,1.87h1.8c.34,0,.62.28.62.62s-.28.62-.62.62h-1.8Z"/>
    <path class="cls-1" d="M79.85,219.28c0-.35.28-.63.63-.63s.63.28.63.63v7.64c0,.35-.28.63-.63.63s-.63-.28-.63-.63v-7.64Z"/>
  </g>
  <g>
    <g>
      <path class="cls-6" d="M148.13,129.81c-.59.67-1.1,1.34-1.7,1.92-7.28,6.99-14.6,13.94-21.84,20.98-1.87,1.82-4.2,1.87-6.46,2.12-8.52.96-16.66-.61-24.52-3.94-5.95-2.52-11.39-5.87-16.38-9.96-2.68-2.19-2.58-5.04.31-6.97,4.36-2.91,8.76-5.74,13.15-8.61,2.38-1.56,4.75-3.12,7.13-4.68,2.49-1.63,5.07-1.58,7.43.27,3.36,2.63,6.87,4.99,10.87,6.57,6.35,2.51,12.93,3.4,19.7,2.75,2.9-.28,5.75-.94,8.63-1.39,1.26-.2,2.57-.45,3.68.93ZM141.5,132.51c-3.02.23-5.96.57-8.91.65-7.59.2-14.87-1.23-21.54-4.95-2.71-1.51-5.16-3.49-7.7-5.3-1.48-1.05-2.21-1.12-3.69-.15-6.9,4.53-13.79,9.05-20.69,13.57-1.4.92-1.42,1.22-.14,2.27,4.73,3.89,9.86,7.16,15.49,9.6,7.56,3.27,15.42,4.88,23.68,3.88,1.73-.21,3.54-.14,5.01-1.58,5.14-5.05,10.38-9.99,15.57-14.99,1-.96,1.94-1.98,2.92-3Z"/>
      <g>
        <path class="cls-6" d="M66.5,71.67c1.79.67,3.67,1.3,5.49,2.05,10.84,4.48,21.67,8.97,32.47,13.53.92.39,1.7,1.25,2.37,2.04.74.87.38,1.85-.08,2.81-.2.41-.23,1.09-.02,1.46.66,1.14.57,2.16-.02,3.29-.19.36-.19.99,0,1.34.62,1.13.68,2.15.01,3.28-.21.35-.22,1.01-.02,1.36.67,1.17.67,2.24-.04,3.39-.18.3-.21.85-.06,1.17,1.03,2.23.55,3.77-1.66,4.93-7.8,4.09-15.62,8.16-23.42,12.24-6.32,3.3-12.66,6.55-18.93,9.93-3.06,1.65-5.96,1.79-9.15.31-11.51-5.34-23.07-10.56-34.61-15.83-1.94-.89-2.65-1.95-2.48-3.77.04-.41.35-.79.43-1.21.08-.42.17-.96-.02-1.3-.63-1.16-.63-2.24.03-3.38.18-.3.21-.88.04-1.16-.73-1.23-.71-2.38.02-3.59.16-.27.16-.8,0-1.06-.75-1.22-.73-2.37,0-3.58.15-.25.16-.71.05-.99-1.12-2.7-.63-3.95,2.06-5.23,6.51-3.09,13.01-6.18,19.52-9.28,8.14-3.86,16.26-7.74,24.42-11.57,1.05-.5,2.23-.73,3.61-1.17ZM66.47,73.83c-1.17.37-2.21.57-3.13,1.01-12.19,5.77-24.37,11.57-36.55,17.36-2.5,1.19-5,2.36-7.48,3.57-1.15.56-1.33,1.58-.44,2.26.31.24.69.4,1.06.57,11.72,5.36,23.44,10.71,35.18,16.05,1.81.82,3.66.84,5.45-.09,6.54-3.39,13.07-6.8,19.61-10.21,7.88-4.12,15.77-8.22,23.63-12.39.55-.29,1.17-.99,1.22-1.54.03-.41-.75-1.07-1.3-1.3-10.85-4.55-21.72-9.07-32.59-13.57-1.54-.64-3.12-1.17-4.65-1.73ZM57.59,120.17c1.16-.38,2.21-.57,3.11-1.04,10.59-5.49,21.16-11.01,31.73-16.53,3.87-2.02,7.74-4.03,11.59-6.07.75-.39,1.44-.94.91-1.89-.55-.98-1.23-.3-1.84.02-13.77,7.18-27.53,14.37-41.3,21.55-2.37,1.24-4.84,1.47-7.29.35-11.3-5.12-22.57-10.29-33.87-15.42-.69-.31-1.57-1.15-2.15.03-.57,1.18.47,1.59,1.29,2.03.07.04.15.07.22.1,10.99,5.02,21.97,10.06,32.97,15.06,1.51.69,3.1,1.22,4.62,1.81ZM57.81,129.42c1.06-.35,2.21-.58,3.22-1.1,9.6-4.97,19.17-9.98,28.75-14.99,4.72-2.47,9.43-4.95,14.15-7.43.8-.42,1.53-.93,1-1.95-.6-1.15-1.28-.09-1.92.04-.04,0-.07.04-.11.06-13.62,7.13-27.24,14.26-40.86,21.39-2.49,1.3-5.03,1.61-7.63.44-6.31-2.85-12.6-5.74-18.9-8.62-5.2-2.38-10.4-4.78-15.62-7.13-.34-.15-1.15-.03-1.22.16-.17.44-.13,1.04.03,1.51.09.27.54.45.86.6,11.71,5.37,23.43,10.74,35.16,16.07.93.42,1.97.6,3.11.94ZM57.63,124.89c1.41-.53,2.7-.86,3.84-1.46,12.25-6.37,24.49-12.78,36.72-19.18,2.02-1.06,4.05-2.1,6.05-3.2.68-.37,1.14-.97.66-1.79-.48-.84-1.06-.36-1.64-.06-13.8,7.22-27.59,14.44-41.39,21.65-2.49,1.3-5.02,1.5-7.63.3-6.18-2.84-12.37-5.65-18.56-8.47-5.24-2.39-10.47-4.81-15.73-7.16-.38-.17-.98.13-1.47.22.14.56.22,1.15.46,1.67.11.23.53.33.82.46,10.92,5,21.83,10,32.76,14.97,1.66.75,3.38,1.37,5.09,2.06ZM57.6,134.19c1.34-.48,2.56-.76,3.63-1.32,12.83-6.66,25.63-13.36,38.44-20.05,1.49-.78,3.01-1.51,4.44-2.39.45-.28.91-.97.92-1.47.02-.91-.68-1-1.92-.35-13.84,7.23-27.68,14.46-41.53,21.69-2.4,1.25-4.86,1.24-7.31.21-1.59-.67-3.13-1.44-4.69-2.15-9.87-4.51-19.73-9.01-29.59-13.53-.58-.27-1.2-.45-1.4.22-.14.49.13,1.15.35,1.68.09.22.53.31.82.44,10.92,4.99,21.84,9.99,32.76,14.96,1.66.75,3.38,1.38,5.08,2.07Z"/>
        <path class="cls-2" d="M66.47,73.83c1.52.56,3.11,1.09,4.65,1.73,10.87,4.5,21.74,9.01,32.59,13.57.55.23,1.33.9,1.3,1.3-.04.55-.66,1.25-1.22,1.54-7.86,4.16-15.74,8.27-23.63,12.39-6.53,3.41-13.07,6.82-19.61,10.21-1.79.93-3.64.91-5.45.09-11.73-5.34-23.45-10.7-35.18-16.05-.36-.17-.74-.33-1.06-.57-.89-.68-.71-1.7.44-2.26,2.48-1.22,4.98-2.39,7.48-3.57,12.18-5.79,24.36-11.59,36.55-17.36.92-.44,1.95-.64,3.13-1.01Z"/>
        <path class="cls-2" d="M57.59,120.17c-1.53-.59-3.11-1.12-4.62-1.81-11-5-21.98-10.04-32.97-15.06-.07-.03-.15-.06-.22-.1-.82-.43-1.86-.85-1.29-2.03.57-1.19,1.45-.35,2.15-.03,11.29,5.13,22.57,10.3,33.87,15.42,2.46,1.11,4.92.88,7.29-.35,13.77-7.18,27.53-14.37,41.3-21.55.61-.32,1.29-.99,1.84-.02.54.96-.16,1.5-.91,1.89-3.86,2.03-7.73,4.05-11.59,6.07-10.57,5.52-21.14,11.04-31.73,16.53-.9.47-1.94.66-3.11,1.04Z"/>
        <path class="cls-2" d="M57.81,129.42c-1.14-.34-2.18-.52-3.11-.94-11.73-5.33-23.44-10.7-35.16-16.07-.32-.15-.77-.33-.86-.6-.15-.47-.2-1.07-.03-1.51.08-.2.88-.31,1.22-.16,5.22,2.35,10.41,4.75,15.62,7.13,6.3,2.88,12.59,5.77,18.9,8.62,2.6,1.17,5.14.86,7.63-.44,13.62-7.14,27.24-14.26,40.86-21.39.04-.02.07-.05.11-.06.64-.13,1.32-1.19,1.92-.04.53,1.02-.2,1.53-1,1.95-4.72,2.47-9.43,4.96-14.15,7.43-9.58,5.01-19.15,10.02-28.75,14.99-1,.52-2.16.75-3.22,1.1Z"/>
        <path class="cls-2" d="M57.63,124.89c-1.71-.69-3.43-1.3-5.09-2.06-10.93-4.97-21.84-9.98-32.76-14.97-.29-.13-.71-.23-.82-.46-.24-.52-.32-1.11-.46-1.67.5-.08,1.09-.39,1.47-.22,5.26,2.35,10.49,4.77,15.73,7.16,6.19,2.83,12.38,5.63,18.56,8.47,2.61,1.2,5.14,1,7.63-.3,13.8-7.21,27.6-14.43,41.39-21.65.57-.3,1.15-.78,1.64.06.47.82.01,1.42-.66,1.79-2,1.1-4.03,2.14-6.05,3.2-12.24,6.4-24.47,12.81-36.72,19.18-1.15.6-2.43.93-3.84,1.46Z"/>
        <path class="cls-2" d="M57.6,134.19c-1.7-.69-3.42-1.31-5.08-2.07-10.93-4.97-21.85-9.97-32.76-14.96-.29-.13-.73-.22-.82-.44-.22-.53-.49-1.19-.35-1.68.2-.67.82-.49,1.4-.22,9.86,4.52,19.73,9.02,29.59,13.53,1.57.72,3.11,1.48,4.69,2.15,2.45,1.03,4.92,1.04,7.31-.21,13.84-7.23,27.69-14.46,41.53-21.69,1.25-.65,1.94-.56,1.92.35,0,.51-.46,1.19-.92,1.47-1.43.88-2.95,1.61-4.44,2.39-12.81,6.69-25.61,13.39-38.44,20.05-1.08.56-2.3.84-3.63,1.32Z"/>
      </g>
      <path class="cls-2" d="M141.5,132.51c-.98,1.01-1.92,2.04-2.92,3-5.19,5-10.43,9.94-15.57,14.99-1.47,1.44-3.28,1.37-5.01,1.58-8.26,1.01-16.12-.6-23.68-3.88-5.63-2.44-10.76-5.71-15.49-9.6-1.28-1.05-1.25-1.35.14-2.27,6.9-4.52,13.8-9.05,20.69-13.57,1.48-.97,2.21-.91,3.69.15,2.54,1.81,4.99,3.79,7.7,5.3,6.67,3.72,13.95,5.14,21.54,4.95,2.95-.08,5.89-.42,8.91-.65ZM124.22,140.76c-7.44,2.68-15.06-2.22-18.16-6.07,1.49-1.51,3-3.03,4.59-4.63h-14.35v14.14c.11.08.22.16.32.24,1.43-1.6,2.86-3.2,4.29-4.78,7.85,7.36,17.93,5.88,23.31,1.11Z"/>
    </g>
    <path class="cls-6" d="M124.22,140.76c-5.37,4.77-15.46,6.25-23.31-1.11-1.42,1.59-2.85,3.19-4.29,4.78-.11-.08-.22-.16-.32-.24,0-4.69,0-9.38,0-14.14,4.82,0,9.55,0,14.35,0-1.59,1.61-3.1,3.13-4.59,4.63,3.09,3.85,10.72,8.75,18.16,6.07Z"/>
  </g>
</svg>