<?xml version="1.0" encoding="UTF-8"?>
<svg id="Laag_1" data-name="Laag 1" xmlns="http://www.w3.org/2000/svg" viewBox="0 0 164.41 249.45">
  <defs>
    <style>
      .cls-1 {
        stroke-width: .35px;
      }

      .cls-1, .cls-2, .cls-3, .cls-4 {
        stroke: #000;
      }

      .cls-1, .cls-3, .cls-4 {
        stroke-linecap: round;
        stroke-linejoin: round;
      }

      .cls-2, .cls-5 {
        stroke-miterlimit: 10;
      }

      .cls-2, .cls-3, .cls-4 {
        stroke-width: 1.7px;
      }

      .cls-2, .cls-4 {
        fill: none;
      }

      .cls-5 {
        stroke: #fff;
        stroke-width: .45px;
      }

      .cls-5, .cls-3, .cls-6 {
        fill: #fff;
      }

      .cls-7 {
        fill: #4d4d4d;
      }

      .cls-7, .cls-8, .cls-9, .cls-10, .cls-11, .cls-6 {
        stroke-width: 0px;
      }

      .cls-8 {
        fill: #8082b8;
      }

      .cls-9 {
        fill: #2f2f2f;
      }

      .cls-10 {
        fill: #1d1d1b;
      }

      .cls-11 {
        fill: #8abb2a;
      }
    </style>
  </defs>
  <rect class="cls-9" x="0" width="164.41" height="249.45"/>
  <g>
    <path class="cls-8" d="M141.73,206.68c-4.35,0-7.89-3.7-7.89-8.26s3.54-8.25,7.89-8.25,7.89,3.7,7.89,8.25-3.54,8.26-7.89,8.26Z"/>
    <path class="cls-10" d="M141.73,191.17c3.8,0,6.89,3.25,6.89,7.26s-3.09,7.26-6.89,7.26-6.89-3.25-6.89-7.26,3.09-7.26,6.89-7.26M141.73,189.17c-4.91,0-8.89,4.14-8.89,9.26s3.98,9.26,8.89,9.26,8.89-4.14,8.89-9.26-3.98-9.26-8.89-9.26h0Z"/>
  </g>
  <g>
    <path class="cls-11" d="M141.73,234.43c-4.35,0-7.89-3.7-7.89-8.26s3.54-8.26,7.89-8.26,7.89,3.7,7.89,8.26-3.54,8.26-7.89,8.26Z"/>
    <path class="cls-10" d="M141.73,218.92c3.8,0,6.89,3.25,6.89,7.26s-3.09,7.26-6.89,7.26-6.89-3.25-6.89-7.26,3.09-7.26,6.89-7.26M141.73,216.92c-4.91,0-8.89,4.14-8.89,9.26s3.98,9.26,8.89,9.26,8.89-4.14,8.89-9.26-3.98-9.26-8.89-9.26h0Z"/>
  </g>
  <g>
    <path class="cls-7" d="M104.87,141.07c-.76-.06-1.58-.06-2.21.44-.27.22-.45.52-.73.74s-.57.38-.83.61-.52.51-.6.84c-.1.43.22.75.63.79s.84-.05,1.23-.1c.5-.07.99-.15,1.48-.26.92-.2,1.82-.46,2.72-.73.57-.18,2.12-.39,1.74-1.32-.16-.38-.55-.52-.91-.64-.46-.14-.93-.25-1.41-.33-.88-.14-1.87-.29-2.69.13-.36.18-.87.49-1.04.87s0,.78.34.99c.76.47,1.97.07,2.71-.27.52-.24.15-1.14-.39-.93-.44.17-.88.34-1.32.5s-.88.42-1.32.5c.1-.02.01.13.04-.02.01-.06-.01-.15,0-.21.02-.14.09-.27.18-.37.24-.26.65-.33.98-.28l.14-1c-.72-.04-1.42.2-1.99.64-.48.38-1.18,1.17-.94,1.84.26.72,1.49.75,2.11.71.9-.05,1.77-.32,2.62-.61l-.5-.85c-.44.42-.99.64-1.6.66-.67.02-.65.96,0,1.02,1.53.14,3.82.37,4.73-1.22.36-.63.38-1.58-.34-1.96-.37-.2-.87-.2-1.28-.22-.52-.03-1.03-.01-1.54.04s-.71.67-.26.95c.71.45,1.49.77,2.31.96.36.08.76-.24.63-.63-.22-.65-.78-1.06-1.45-1.2-.79-.17-1.6.1-2.37-.1v.98c.97-.14,1.95-.13,2.91-.02.61.07.64-.82.14-1-.92-.34-1.87-.41-2.84-.27-.49.07-.48.91,0,.98.74.12,1.49-.17,2.21.14.63.28,1.14.79,1.62,1.27.14.14.44.21.62.08.6-.46.54-1.55-.31-1.7l.23.85c-.07.06-.12.07-.15.02l-.03-.03s-.08.11-.13.14c-.19.13-.47.14-.68.16-.56.06-1.12.06-1.68.11s-1.08.14-1.59.34c-.4.15-.87.4-1.27.14-.55-.37-1.06.52-.52.88.78.52,1.58.11,2.36-.14.92-.29,1.89-.21,2.84-.32.74-.09,1.69-.4,1.69-1.31,0-.82-.96-1.26-1.56-.71-.27.25-.15.78.23.85.03,0,0-.05-.02-.04,0,0,0,0,0,.01-.03.05,0,0,.08-.14l.62.08c-.54-.55-1.12-1.11-1.83-1.44-.35-.16-.71-.27-1.09-.29-.45-.03-.91.12-1.35.05v.98c.78-.11,1.56,0,2.29.27l.14-1c-1.07-.12-2.12-.09-3.18.06-.51.07-.46.87,0,.98.66.17,1.31.06,1.98.06.39,0,.98.09,1.13.52l.63-.63c-.74-.17-1.42-.46-2.07-.86l-.26.95c.68-.07,1.38-.09,2.06,0,.25.03.36.03.32.31-.03.24-.2.46-.38.61-.43.37-1.05.44-1.6.46-.66.02-1.32-.01-1.97-.07v1.02c.88-.03,1.68-.36,2.33-.96.36-.34-.01-1.02-.5-.85-1.07.36-2.28.79-3.41.47-.07-.02-.13-.04-.19-.06.08.19.13.23.17.12.08-.06.13-.24.19-.33.12-.16.27-.3.43-.42.38-.27.81-.38,1.28-.36.56.03.71-.92.14-1-.64-.1-1.29-.02-1.81.4-.49.39-.75,1.05-.61,1.67.07.3.23.6.51.75.36.19.71.03,1.06-.11.76-.29,1.53-.58,2.29-.88l-.39-.93c-.24.11-.49.2-.75.25s-.54.01-.79.06c-.02,0-.05,0-.07-.01-.12-.04-.12.06,0,.3.04,0,.26-.2.3-.23.22-.15.44-.28.7-.33.53-.09,1.15.02,1.68.11.26.05.52.1.78.17.09.02.72.18.73.2l.05-.39c.17-.09.16-.1-.02-.03l-.14.04c-.14.04-.28.09-.41.13-.28.09-.55.17-.83.26-.53.16-1.06.31-1.6.45s-1.07.26-1.62.35c-.29.05-.57.09-.86.12-.12.01-.24.02-.36.03-.07,0-.14.01-.22.02-.19-.01-.19.01,0,.07l.15.36c0-.15.49-.46.62-.55.28-.19.56-.38.79-.63.26-.28.44-.53.83-.62.36-.08.75-.04,1.11-.01.66.05.65-.97,0-1.02h0Z"/>
    <path class="cls-7" d="M65.67,150.68h.55v-1.01c-.66.03-1.24.27-1.73.73-.26.25-.15.61.1.8.49.37,1.12.16,1.55-.2.35-.29.56-.95,1.04-1.06l-.39-.93c-.33.21-.66.41-.98.62l-.25.16c-.2.08-.15.2.16.38.09-.02.31-.25.39-.31.6-.43,1.21-.85,1.83-1.25,1.29-.83,2.56-1.5,4.12-1.56.66-.03.66-.99,0-1.02-.74-.03-1.25.54-1.6,1.13-.15.26-.04.53.18.7.38.28.89.19,1.25-.08.41-.31.46-.79.77-1.16.24-.29.17-.74-.23-.85-.59-.17-1.82-.21-2.05.55-.25.81.88,1.17,1.48.99l-.58-.75c-.23.5-.67.8-1.11,1.1-.52.37-1.04.73-1.56,1.1-.9.63-1.8,1.27-2.9,1.48l.58.75c.51-.81,1.32-1.34,2.09-1.87.92-.63,1.84-1.26,2.76-1.89l-.62-.8c-.84.82-1.69,1.65-2.66,2.31-.46.32-.97.64-1.5.83-.21.08-.2-.01-.11.25s.09.17.3.08c.28-.13.55-.25.82-.41,1.07-.61,1.94-1.47,2.91-2.22.34-.26,1.03-.84,1.5-.64.53.23-.28.7-.48.84-1.07.74-2.23,1.52-3.57,1.66-.65.07-.65,1.09,0,1.02,1.64-.17,3.07-1.05,4.38-2,.56-.41,1.09-1.01.79-1.74s-1.12-.94-1.81-.75c-.81.22-1.49.85-2.12,1.38s-1.28,1.08-2,1.51c-.53.32-1.63.56-1.63,1.34,0,.34.24.64.57.73.35.1.7-.04,1.02-.18,1.67-.73,3.02-2.03,4.31-3.28.41-.39-.13-1.14-.62-.8-1,.69-1.99,1.37-2.99,2.06-.84.58-1.67,1.19-2.22,2.08-.25.4.16.83.58.75,1.23-.24,2.26-.97,3.26-1.67.57-.4,1.14-.8,1.71-1.2.48-.35.94-.73,1.2-1.28.18-.38-.12-.89-.58-.75.02,0-.24.02-.22.01-.11-.1-.13-.04-.08.19-.08.23-.05.29.11.2.11.02.26-.05.38-.04.13,0,.25.03.38.07l-.23-.85c-.19.24-.31.49-.45.76-.06.11-.11.2-.19.3-.03.03-.07.05-.11.06.07.04.06.02-.03-.03l.18.7c.16-.27.36-.64.72-.63v-1.02c-1.06.04-2.08.29-3.03.76s-1.86,1.09-2.74,1.7c-.55.38-2.01,1.12-1.52,2.01.23.42.72.46,1.11.28.5-.22.96-.58,1.42-.87.49-.31.17-1.06-.39-.93-.46.1-.77.42-1.04.79-.14.19-.48.79-.76.57l.1.8c.28-.26.62-.41,1.01-.43.65-.03.66-1.01,0-1.02h-.55c-.66-.02-.66,1,0,1.01h0Z"/>
    <path class="cls-7" d="M88.96,149.12c.53.06,1.06.21,1.55.43l.39-.93c-.55-.08-1.07-.25-1.58-.48-.47-.21-1.18-.15-1.18.51,0,.62.78.83,1.24,1.02.55.22,1.11.41,1.68.57s1.11.29,1.67.43,1.15.29,1.65-.07c.45-.32.58-.93.24-1.38-.31-.41-.85-.52-1.32-.65-1.35-.39-2.7-.77-4.05-1.16-.41-.12-.83.37-.58.75.48.7,1.32.81,2.08.99.43.1.86.2,1.29.3.26.06.67.09.8.36l.31-.75c-.54.16-1.09.1-1.58-.19l-.39.93c.08.02.16.05.25.07.63.18.9-.81.27-.98-.08-.02-.16-.05-.25-.07-.56-.16-.9.64-.39.93.72.42,1.57.52,2.37.29.34-.1.44-.45.31-.75-.34-.74-1.36-.82-2.05-.98-.43-.1-.86-.2-1.29-.3-.27-.06-.66-.12-.83-.37l-.58.75c.92.26,1.85.53,2.77.79.46.13.92.26,1.38.4.18.05.38.09.55.17,0,0,.14.08.13.08,0,0-.03-.12,0-.11,0,0-.08.05-.1.06-.08.02-.18,0-.25-.01-.22-.04-.45-.1-.67-.16-.44-.11-.88-.22-1.32-.34s-.87-.25-1.3-.41c-.2-.07-.41-.15-.61-.23-.1-.04-.19-.08-.29-.13-.06-.03-.13-.06-.19-.09-.08-.04-.09-.05-.02-.01l.07.26v-.07c-.02.09-.05.17-.07.26l-.02.02-.23.13s-.04,0-.04,0c.02.04.19.09.22.11.18.08.35.15.54.22.34.12.7.2,1.06.26.25.04.5-.04.6-.3.09-.21.03-.53-.21-.64-.67-.3-1.34-.48-2.06-.57-.27-.03-.51.26-.51.51,0,.3.24.48.51.51h0Z"/>
    <path class="cls-7" d="M55.47,145.44c-1.3.79-2.07,2.52-1.61,4.01.07.22.18.43.39.54.26.15.56.07.81-.04.35-.15.66-.37.94-.64.53-.49.91-1.12,1.39-1.66.52-.59,1.42-1.04,1.25-1.96-.19-1.03-1.33-1.24-2.21-1.17-.46.04-.92.14-1.27.47s-.52.81-.35,1.26.61.77,1.1.68c.43-.08.89-.45,1.08-.84.23-.5.03-1.17-.55-1.31s-.99.3-1.32.68c-.64.72-1.23,1.84-.55,2.75.18.23.57.39.8.1.49-.6.97-1.2,1.46-1.81l-.87-.36c.02.33-.21.59-.41.83-.18.21-.21.52,0,.72.19.19.53.2.72,0,.33-.35.67-.69,1-1.04s.68-.67.52-1.18c-.13-.39-.58-.72-.91-.94-.4-.27-.92-.16-1.15.27-.17.31-.15.68-.25,1.02-.09.32-.24.61-.4.91-.36.69-.71,1.36-.78,2.14-.04.42.6.7.87.36.88-1.08,1.84-2.1,2.86-3.04.19-.17.19-.48.04-.67-.16-.21-.42-.25-.66-.13-.75.37-1.12,1.13-1.47,1.84-.15.3-.31.76-.59.96,0,0-.12.08-.12.06,0-.01.1.01.11.01.09.01.03.08.03,0,0-.1-.06-.23-.07-.33-.02-.11-.03-.22-.03-.33-.03-.8.29-1.66,1.07-2,.21-.09.72-.25.86.02.18.35.11.85.01,1.2-.28.97-1.1,1.64-1.95,2.11-.57.32-.06,1.2.52.88,1.06-.6,2.02-1.45,2.4-2.65.18-.58.22-1.27,0-1.85-.27-.7-.93-.93-1.63-.82-1.21.18-2.08,1.26-2.25,2.43-.08.57-.08,1.29.19,1.82.35.69,1.17.57,1.66.1.77-.74.84-2.12,1.81-2.6l-.62-.8c-1.03.94-1.98,1.96-2.86,3.04l.87.36c.04-.49.28-.95.51-1.38.26-.5.55-1.01.68-1.57.03-.15.05-.3.07-.44-.01.07.02-.1.02-.1,0-.04.02-.12.03-.09.03.07-.34,0-.3.08.02.06.17.14.22.17.02.02.28.26.29.25-.05.02.02-.2.02-.19,0,0-.15.16-.17.18l-.37.39-.75.78.72.72c.38-.45.74-.94.71-1.55-.02-.4-.57-.73-.87-.36-.49.6-.97,1.2-1.46,1.81l.8.1c-.31-.42-.09-.91.2-1.28.15-.19.32-.4.5-.56.16-.13.08,0-.04-.13-.09-.1,0-.11-.08-.02-.08.08-.19.13-.27.21l-.03.02s-.02,0,.06,0c.05-.02-.06.18-.03-.03,0,.05,0-.03,0-.03.03-.08.07-.13.15-.18.19-.13.45-.14.68-.15.27-.01.6-.04.85.11.12.07.23.2.2.31-.04.16-.27.32-.41.43-.39.33-.71.71-1.02,1.11-.29.38-.58.77-.93,1.09-.16.15-.31.26-.5.37-.03.02-.09.03-.11.06h0c-.16.04-.09.11.19.22.01-.11-.07-.26-.09-.37-.13-.95.35-2.02,1.21-2.54.56-.34.05-1.22-.52-.88h0Z"/>
    <path class="cls-7" d="M45.88,135.42c.14-.17.29-.34.44-.5.07-.07.15-.15.22-.22.04-.03.08-.07.12-.1.03-.02.05-.04.08-.06-.03.02-.03.02,0,0,.09-.06.18-.12.27-.17.04-.02.09-.05.13-.07-.08.04.04-.01.06-.02.05-.01.09-.03.14-.04.03,0,.14-.02.05-.01.11-.01.23,0,.34,0v-1.02c-.49.03-1.04.02-1.49-.05-.26-.04-.5.04-.6.3s0,.5.21.64c.88.58,2,.75,3.03.48.2-.05.34-.23.37-.42.03-.21-.07-.39-.24-.51-.29-.21-.59-.42-.88-.63l-.12.93s.07-.02.11-.03c.06-.02-.07,0,0,0,.04,0,.07,0,.11,0-.07,0-.03,0,.02.01.01,0,.09.04.04.01-.06-.03.04.03.06.04-.04-.02-.03-.03,0,0,.01.01.09.12.03.03l.31-.75c-.45.16-.9.33-1.35.49-.23.08-.46.17-.69.25-.07.02-.13.05-.2.06-.04.01-.08.02-.13.03.12-.02,0,0-.03,0-.03,0-.12-.03-.05,0,.04,0,.04,0,0,0,.06.03.07.03.04.02-.05-.03.06.07,0,0,.04.05.06.07.06.14-.01.06-.02.08,0,.04.01-.04,0-.03-.01.03.06-.07-.04.02,0-.02.01-.02.03-.03.05-.05-.04.03-.04.03-.01,0,.03-.02.07-.04.1-.06-.09.04.04,0,.05-.01-.09.02.06,0,.08,0,.1,0,.19,0,.29,0,.25,0,.51,0,.75-.1.2-.07.34-.21.37-.42s-.08-.38-.24-.51c-.3-.23-.65-.4-1.01-.51l-.14,1c.4,0,.8,0,1.2.04.27.02.52-.25.51-.51-.01-.3-.22-.49-.51-.51-.4-.04-.8-.05-1.2-.04-.58.01-.69.83-.14,1,.27.08.51.21.77.41l.12-.93c-.23.09-.44.05-.73.06s-.59.07-.83.26-.46.47-.47.8c0,.31.16.62.42.77.48.27,1.01.08,1.48-.09.58-.21,1.16-.43,1.74-.64.29-.11.5-.46.31-.75-.33-.48-.95-.74-1.51-.53-.43.16-.49.67-.12.93.29.21.59.42.88.63l.12-.93c-.1.03-.21.05-.32.07-.17.03.09,0-.08,0-.05,0-.11,0-.16.01-.11,0-.22,0-.32,0-.05,0-.11,0-.16-.01-.17-.02.09.02-.08-.01-.21-.04-.42-.1-.62-.17-.09-.03.02.01-.08-.03-.04-.02-.08-.04-.12-.06-.1-.05-.2-.11-.3-.18l-.39.93c.58.09,1.17.12,1.76.08.27-.02.52-.22.51-.51-.01-.3-.23-.48-.51-.51-1.08-.13-1.94.73-2.57,1.48-.18.21-.21.51,0,.72.18.18.55.21.72,0h0Z"/>
    <path class="cls-3" d="M104.43,118.79c-5.11-14.98-5.45-30.64-7.15-46.31-.68-6.13-5.45-11.58-11.92-12.6-2.72-.34-5.45-.34-8.17.34-.68.34-1.36.68-2.38,1.02-4.09,1.7-7.15,5.45-9.19,9.53-4.09,9.53-5.45,19.41-7.15,29.62-1.36,10.55-6.47,19.75-11.24,28.94-.6,1.2-1.46,2.39-1.77,3.47.02.01.04.03.07.04.07.04.11.11.14.17,2.45-1.65,5.27.78,6.22,3.12.68,1.7.69,3.65.91,5.45.25,2.01.49,4.01.56,6.04.01,0,.02.01.03.02.85-2.13,2.83-4.86,5.37-3.3,2.27,1.39,3.59,4.39,4.32,6.88.09.04.17.08.25.12,1.37-1.56,11.25-12.2,16.03.13.02,0,.05,0,.07,0,1.2-1.72,9.78-4.61,13.43-3.18.38.04.77.13,1.06.34.36.08.7.19,1.03.33.46.2.9.45,1.31.75,3.1-4.22,5.12-12.49,12.82-8.24l-4.66-22.7Z"/>
    <path class="cls-4" d="M90.66,116.58c-1.53,5.78,6.52,31.27,5.58,32.7"/>
    <path class="cls-4" d="M103.51,140.24s1.18-5.62-1.78-16.57c-.59-2.07-4.15-14.64-4.29-16.49"/>
    <path class="cls-4" d="M57.26,148.85c1.12-.96,1.8-2.31,2.64-3.5"/>
    <ellipse class="cls-1" cx="87.89" cy="78.1" rx="2.55" ry="6.13"/>
    <ellipse class="cls-1" cx="79.38" cy="78.1" rx="2.55" ry="6.13"/>
    <path class="cls-4" d="M109.43,141.15s2.95,3.52-10.13,3.78"/>
    <path class="cls-4" d="M64.07,151.89c4.02-.37,7.4-3.38,10.42-5.79"/>
    <path class="cls-4" d="M63.02,105.41c1.37,6.07-11.68,29.89-10.63,31.51"/>
    <path class="cls-4" d="M60.79,146.09s4.06-5.22,6.51-18.04c.43-2.44,3.08-17.24,3.87-19.23"/>
    <path class="cls-4" d="M79.08,150.94c1.17-2.19.83-4.57,1.17-6.95.68-8.85-.68-17.36.15-25.88"/>
    <path class="cls-4" d="M45.06,133.61c.63-.35-1.52,2.34,1.09,1.84,1.49-.28,2.97-.36,4.35-.8"/>
    <path class="cls-4" d="M53.19,148.24c.34-.34-.46,5.11,4.54,0"/>
    <path class="cls-2" d="M63.42,150.57s-.78,2.02,2.5.53"/>
    <path class="cls-4" d="M95.25,150.06s3.56,2.8-10.22-1.21"/>
  </g>
  <g>
    <path class="cls-6" d="M32.07,26.76c.97-.07,1.77.11,2.41.54.64.43,1.15,1.01,1.53,1.76s.62,1.63.75,2.64c.12,1.01.15,2.06.06,3.15-.08,1.09-.25,2.18-.51,3.26-.26,1.08-.58,2.08-.98,2.99-.39.91-.84,1.69-1.34,2.35-.5.66-1.03,1.1-1.6,1.34.05-.43.09-1.11.11-2.03.03-.92.04-1.96.05-3.12,0-1.17,0-2.4-.01-3.7-.02-1.3-.05-2.55-.09-3.74-.04-1.19-.1-2.27-.16-3.24-.07-.97-.14-1.7-.22-2.2Z"/>
    <path class="cls-6" d="M53.79,42.64c-.28.42-.57.75-.85,1-.28.25-.55.44-.81.58-.26.13-.5.22-.73.26-.22.04-.43.06-.61.06-.65,0-1.18-.12-1.59-.35-.41-.23-.72-.56-.95-.98-.23-.42-.38-.92-.45-1.5-.08-.58-.12-1.22-.14-1.9v-.91c0-.41,0-.88.01-1.4,0-.52.01-1.09.01-1.7s0-1.22-.03-1.84c-.02-.58-.12-.98-.3-1.17-.18-.2-.58-.3-1.17-.3-.3,0-.59.01-.86.04-.27.02-.55.05-.84.09.17.7.25,1.45.24,2.25,0,.8-.08,1.61-.22,2.43-.14.82-.35,1.62-.62,2.4-.28.78-.6,1.5-.98,2.15s-.78,1.21-1.22,1.69c-.44.48-.91.81-1.41,1.01.05-.43.09-1.05.11-1.84.02-.79.04-1.67.05-2.65,0-.98,0-2-.01-3.07-.02-1.08-.05-2.11-.09-3.11-.04-1-.1-1.92-.16-2.76s-.14-1.51-.22-2.01c.95-.08,1.74.05,2.38.39.63.34,1.14.82,1.52,1.44.63-.4,1.33-.71,2.08-.93.75-.22,1.5-.32,2.25-.32.7,0,1.27.09,1.7.26.43.18.77.43,1.01.75.24.33.4.73.49,1.2.08.48.12,1.01.12,1.61,0,1.43,0,2.66.01,3.68,0,1.02.04,1.87.09,2.55.05.68.12,1.23.21,1.62.09.4.22.7.39.89.17.19.38.31.64.36.26.05.58.07.96.05Z"/>
    <path class="cls-6" d="M58.14,44.54c-.1-1.5-.33-3.03-.69-4.59-.36-1.56-.76-3.02-1.21-4.39-.45-1.37-.9-2.58-1.36-3.64-.46-1.06-.84-1.84-1.14-2.34.7.12,1.44.45,2.21,1s1.5,1.26,2.18,2.14c.67.88,1.26,1.88,1.75,3.01.49,1.13.8,2.33.94,3.58.42-.58.84-1.33,1.26-2.25.43-.92.83-1.86,1.21-2.84.38-.98.72-1.91,1.03-2.81.3-.9.53-1.63.7-2.2.48.63.82,1.45,1,2.44.18.99.21,2.05.09,3.19-.12,1.13-.39,2.27-.79,3.41-.4,1.14-.94,2.18-1.61,3.11-.67.93-1.48,1.69-2.41,2.27-.93.58-1.98.88-3.15.9Z"/>
    <path class="cls-6" d="M68.79,25.21c1.47-.02,2.53.18,3.19.59.66.41.97.89.95,1.45-.02.56-.37,1.12-1.04,1.69-.67.57-1.59,1-2.78,1.3.02-.55.02-1.02.01-1.42s-.02-.78-.05-1.15-.06-.74-.11-1.11-.11-.82-.17-1.34ZM68.87,31.71c.93-.05,1.71.07,2.34.36.62.29,1.12.7,1.47,1.24.36.53.6,1.16.71,1.88.12.72.13,1.46.05,2.24s-.25,1.55-.5,2.33-.56,1.5-.94,2.17c-.38.68-.8,1.27-1.29,1.77-.48.51-.99.87-1.53,1.09.05-.43.09-.99.11-1.66.03-.68.04-1.41.05-2.21,0-.8,0-1.63-.01-2.5s-.05-1.71-.09-2.54c-.04-.83-.1-1.6-.16-2.33-.07-.73-.14-1.34-.23-1.84Z"/>
    <path class="cls-6" d="M85.32,34.91c0-.25-.08-.52-.25-.81s-.39-.56-.66-.81c-.27-.25-.61-.46-1-.62-.39-.17-.81-.25-1.26-.25-.18,0-.37.01-.56.04-.19.03-.38.08-.55.16-.17.08-.32.2-.45.34-.12.14-.21.33-.24.56-.05.3.03.59.25.86s.53.53.95.76c.33.18.66.37.97.55.32.18.58.32.8.42.73.37,1.35.73,1.85,1.08s.9.71,1.2,1.09c.3.38.52.77.65,1.17.13.41.2.85.2,1.31,0,.58-.12,1.12-.36,1.6-.24.48-.59.9-1.05,1.26s-1.02.64-1.69.84-1.42.3-2.28.3c-1,0-1.91-.13-2.74-.4-.83-.27-1.48-.64-1.95-1.11-.47-.48-.74-1.04-.8-1.69-.06-.65.18-1.37.71-2.15.12.45.32.84.6,1.16.28.33.62.58,1,.78.38.19.8.32,1.25.39.45.07.91.08,1.38.02.43-.05.82-.2,1.17-.44.35-.24.53-.53.53-.86,0-.27-.04-.49-.12-.66-.08-.17-.23-.35-.45-.51-.22-.17-.52-.35-.91-.54-.39-.19-.89-.44-1.49-.74-.83-.42-1.5-.83-1.99-1.25-.49-.42-.87-.82-1.12-1.22-.26-.4-.42-.8-.5-1.21-.07-.41-.11-.81-.11-1.21,0-.5.13-.97.39-1.41.26-.44.62-.82,1.09-1.15.47-.32,1.01-.59,1.64-.79.62-.2,1.3-.32,2.04-.35.93-.03,1.79.1,2.56.4.77.3,1.37.7,1.79,1.21.42.51.61,1.1.57,1.79-.03.68-.38,1.38-1.05,2.1Z"/>
    <path class="cls-6" d="M89.94,25.21c1.47-.02,2.53.18,3.19.59.66.41.98.89.95,1.45-.03.56-.37,1.12-1.04,1.69-.67.57-1.59,1-2.77,1.3.02-.55.02-1.02.01-1.42s-.03-.78-.05-1.15-.06-.74-.11-1.11c-.05-.38-.11-.82-.18-1.34ZM90.02,31.71c.93-.05,1.71.07,2.34.36.62.29,1.12.7,1.48,1.24.36.53.6,1.16.71,1.88.12.72.13,1.46.05,2.24s-.25,1.55-.5,2.33-.56,1.5-.94,2.17c-.38.68-.8,1.27-1.29,1.77-.48.51-.99.87-1.53,1.09.05-.43.09-.99.11-1.66.02-.68.04-1.41.05-2.21,0-.8,0-1.63-.01-2.5-.02-.87-.05-1.71-.09-2.54-.04-.83-.1-1.6-.16-2.33s-.14-1.34-.22-1.84Z"/>
    <path class="cls-6" d="M97.42,26.51c.62-.05,1.17.01,1.66.19.49.18.92.43,1.27.78.36.34.66.75.91,1.24s.45,1.02.6,1.62c.27-.07.54-.11.81-.12.27-.02.55-.02.84,0,.92.05,1.76.28,2.54.69.77.41,1.45.95,2.01,1.61.57.67,1,1.43,1.31,2.29.31.86.45,1.77.44,2.74-.02.93-.16,1.8-.44,2.59s-.67,1.48-1.19,2.06-1.15,1.05-1.9,1.39c-.75.34-1.61.52-2.57.54-.77.03-1.49-.07-2.18-.3s-1.25-.6-1.7-1.1c-.65,1.05-1.35,1.74-2.1,2.08.05-.43.09-1.12.11-2.05.03-.93.04-1.99.05-3.17,0-1.18,0-2.43-.01-3.75-.02-1.32-.05-2.58-.09-3.79-.04-1.21-.1-2.3-.16-3.29-.07-.98-.14-1.73-.23-2.23ZM102.19,32.89c.02.7,0,1.43-.06,2.18s-.16,1.49-.31,2.21-.33,1.44-.55,2.14c-.22.7-.46,1.35-.73,1.95.7.2,1.44.2,2.23,0,1.77-.43,2.62-1.74,2.58-3.92-.02-.53-.1-1.06-.25-1.58-.15-.52-.36-.98-.64-1.39s-.6-.75-.99-1.04c-.38-.28-.81-.47-1.28-.55Z"/>
    <path class="cls-6" d="M112.22,26.76c.97-.07,1.77.11,2.41.54.64.43,1.15,1.01,1.53,1.76s.62,1.63.75,2.64c.12,1.01.15,2.06.06,3.15-.08,1.09-.25,2.18-.51,3.26-.26,1.08-.58,2.08-.98,2.99-.39.91-.84,1.69-1.34,2.35-.5.66-1.03,1.1-1.6,1.34.05-.43.09-1.11.11-2.03.03-.92.04-1.96.05-3.12,0-1.17,0-2.4-.01-3.7-.02-1.3-.05-2.55-.09-3.74-.04-1.19-.1-2.27-.16-3.24-.07-.97-.14-1.7-.22-2.2Z"/>
    <path class="cls-6" d="M132.77,38.86c-.68.1-1.3.19-1.86.26-.56.07-1.13.13-1.71.17-.58.04-1.22.07-1.92.09-.7.02-1.53.03-2.48.03.12,1.07.7,1.86,1.74,2.38,1.04.52,2.65.67,4.81.45-.28.38-.65.71-1.1.99-.45.27-.93.5-1.45.66-.52.17-1.05.28-1.59.35-.54.07-1.05.08-1.54.05-.8-.05-1.57-.24-2.3-.58-.73-.33-1.38-.81-1.92-1.44s-.99-1.4-1.31-2.31c-.33-.92-.48-1.98-.46-3.17.02-1.23.22-2.32.6-3.25.38-.93.88-1.71,1.49-2.33.61-.62,1.28-1.08,2.03-1.39.74-.31,1.48-.46,2.21-.46,1.08,0,2.06.16,2.94.48.88.32,1.61.85,2.21,1.59.6.74,1.05,1.72,1.34,2.94.29,1.22.39,2.72.29,4.5ZM126.42,31.94c-.35,0-.65.08-.91.25-.26.17-.47.45-.64.84s-.29.91-.36,1.56-.1,1.46-.09,2.42c.27.02.75.02,1.45.01.7,0,1.61-.03,2.73-.06.05-.83.02-1.57-.09-2.2-.11-.63-.26-1.16-.46-1.57-.2-.42-.44-.73-.72-.94s-.58-.31-.9-.31Z"/>
  </g>
  <g>
    <path class="cls-5" d="M19.12,183.75c-.33,0-.6-.27-.6-.6v-5.73c0-.33.27-.6.6-.6h1.85c1.97,0,3.49,1.5,3.49,3.46s-1.52,3.46-3.49,3.46h-1.85ZM20.97,182.6c1.3,0,2.29-.99,2.29-2.31s-.99-2.31-2.29-2.31h-1.25v4.62h1.25Z"/>
    <path class="cls-5" d="M28.15,183.9c-1.8,0-3.06-1.35-3.06-3.03s1.26-3.03,3.06-3.03,3.06,1.35,3.06,3.03-1.27,3.03-3.06,3.03ZM28.15,178.98c-1.09,0-1.89.85-1.89,1.88s.8,1.89,1.89,1.89,1.88-.85,1.88-1.89-.79-1.88-1.88-1.88Z"/>
    <path class="cls-5" d="M35,183.9c-1.8,0-3.06-1.35-3.06-3.03s1.26-3.03,3.06-3.03,3.06,1.35,3.06,3.03-1.27,3.03-3.06,3.03ZM35,178.98c-1.09,0-1.89.85-1.89,1.88s.8,1.89,1.89,1.89,1.88-.85,1.88-1.89-.79-1.88-1.88-1.88Z"/>
    <path class="cls-5" d="M43.38,180.24c0,.33-.26.59-.59.59s-.59-.26-.59-.58v-.08c0-.58-.42-1.03-1.03-1.03h-1.04v4.12c0,.33-.26.59-.59.59s-.59-.26-.59-.59v-4.68c0-.33.26-.59.59-.59h1.62c1.24,0,2.21.99,2.21,2.19v.07Z"/>
    <path class="cls-5" d="M44.18,183.75c-.32,0-.58-.25-.58-.57,0-.13.05-.29.17-.44l2.97-3.62h-2.47c-.32,0-.58-.26-.58-.58s.26-.58.58-.58h3.66c.32,0,.57.25.57.57,0,.14-.05.29-.17.44l-2.97,3.62h2.46c.32,0,.58.26.58.58s-.26.58-.58.58h-3.64Z"/>
    <path class="cls-5" d="M50.06,177.02c-.4,0-.73-.32-.73-.72s.33-.72.73-.72.73.32.73.72-.33.72-.73.72ZM49.48,178.48c0-.33.26-.59.59-.59s.59.26.59.59v4.77c0,.33-.26.59-.59.59s-.59-.26-.59-.59v-4.77Z"/>
    <path class="cls-5" d="M54.52,183.75c-1.74,0-2.97-1.3-2.97-2.89s1.23-2.89,2.97-2.89h1.2c.32,0,.58.26.58.58s-.26.58-.58.58h-1.2c-1.05,0-1.8.78-1.8,1.73s.75,1.73,1.8,1.73h1.2c.32,0,.58.26.58.58s-.26.58-.58.58h-1.2Z"/>
    <path class="cls-5" d="M60.96,180.27c0-.62-.51-1.13-1.13-1.13h-1.48v4.12c0,.33-.26.59-.59.59s-.59-.26-.59-.59v-7.08c0-.33.26-.59.59-.59s.59.26.59.59v1.81h1.48c1.27,0,2.31,1.04,2.31,2.31v2.96c0,.33-.26.59-.59.59s-.59-.26-.59-.59v-2.98Z"/>
    <path class="cls-5" d="M65.81,183.75c-1.12,0-2.04-.92-2.04-2.04v-2.58h-.69c-.32,0-.58-.26-.58-.58s.26-.58.58-.58h.69v-1.15c0-.33.26-.59.59-.59s.59.26.59.59v1.15h1.51c.32,0,.58.26.58.58s-.26.58-.58.58h-1.51v2.59c0,.49.37.87.87.87h.64c.32,0,.58.26.58.58s-.26.58-.58.58h-.65Z"/>
    <path class="cls-5" d="M68.44,177.02c-.4,0-.73-.32-.73-.72s.33-.72.73-.72.73.32.73.72-.33.72-.73.72ZM67.85,178.48c0-.33.26-.59.59-.59s.59.26.59.59v4.77c0,.33-.26.59-.59.59s-.59-.26-.59-.59v-4.77Z"/>
    <path class="cls-5" d="M71.29,186.06c-.32,0-.58-.26-.58-.58s.26-.58.58-.58h2.07c.49,0,.88-.39.88-.88v-.27h-1.34c-1.74,0-2.97-1.3-2.97-2.89s1.23-2.89,2.97-2.89h1.93c.33,0,.59.26.59.59v5.46c0,1.12-.92,2.04-2.04,2.04h-2.09ZM74.24,179.14h-1.34c-1.04,0-1.8.78-1.8,1.73s.75,1.73,1.8,1.73h1.34v-3.46Z"/>
    <path class="cls-5" d="M79.29,183.75c-1.74,0-2.97-1.3-2.97-2.89s1.23-2.89,2.97-2.89h.69c1.1,0,1.83.77,1.83,1.73s-.73,1.73-1.83,1.73h-1.1c-.32,0-.58-.26-.58-.58s.26-.58.58-.58h1.1c.39,0,.65-.26.65-.58s-.26-.58-.65-.58h-.69c-1.05,0-1.8.78-1.8,1.73s.75,1.73,1.8,1.73h1.67c.32,0,.58.26.58.58s-.26.58-.58.58h-1.67Z"/>
    <path class="cls-5" d="M86.27,180.98v2.28c0,.33-.26.59-.59.59s-.59-.26-.59-.59v-7.08c0-.33.26-.59.59-.59s.59.26.59.59v4.59l2.69-2.69c.23-.23.59-.23.82,0,.22.23.22.59,0,.82l-1.98,1.98,1.98,1.98c.23.23.22.59,0,.82-.23.23-.59.23-.82,0l-2.69-2.69Z"/>
    <path class="cls-5" d="M92.22,183.75c-1.06,0-1.79-.81-1.79-1.79s.73-1.79,1.79-1.79h1.1c.32,0,.58.26.58.58s-.26.58-.58.58h-1.1c-.36,0-.61.3-.61.63s.25.63.61.63h2.11v-2.44c0-.58-.4-1.02-1-1.02h-1.85c-.32,0-.58-.26-.58-.58s.26-.58.58-.58h1.85c1.22,0,2.18.97,2.18,2.17v3.02c0,.33-.21.59-.59.59h-2.7Z"/>
    <path class="cls-5" d="M98.22,183.75c-1.06,0-1.79-.81-1.79-1.79s.73-1.79,1.79-1.79h1.1c.32,0,.58.26.58.58s-.26.58-.58.58h-1.1c-.36,0-.61.3-.61.63s.25.63.61.63h2.11v-2.44c0-.58-.4-1.02-1-1.02h-1.85c-.32,0-.58-.26-.58-.58s.26-.58.58-.58h1.85c1.22,0,2.18.97,2.18,2.17v3.02c0,.33-.21.59-.59.59h-2.7Z"/>
    <path class="cls-5" d="M107.11,180.24c0,.33-.26.59-.59.59s-.59-.26-.59-.58v-.08c0-.58-.42-1.03-1.04-1.03h-1.03v4.12c0,.33-.26.59-.59.59s-.59-.26-.59-.59v-4.68c0-.33.26-.59.59-.59h1.62c1.24,0,2.21.99,2.21,2.19v.07Z"/>
    <path class="cls-5" d="M110.69,183.75c-1.12,0-2.04-.92-2.04-2.04v-2.58h-.69c-.32,0-.58-.26-.58-.58s.26-.58.58-.58h.69v-1.15c0-.33.26-.59.59-.59s.59.26.59.59v1.15h1.51c.32,0,.58.26.58.58s-.26.58-.58.58h-1.51v2.59c0,.49.37.87.87.87h.64c.32,0,.58.26.58.58s-.26.58-.58.58h-.65Z"/>
    <path class="cls-5" d="M112.88,185.37c-.14.28-.48.39-.76.26-.28-.14-.4-.49-.27-.76l1.02-2.15c.14-.29.49-.39.77-.26.28.14.41.5.26.77l-1.02,2.14Z"/>
    <path class="cls-5" d="M116.94,178.72c-.13-.29,0-.64.29-.77.29-.14.64,0,.77.29l1.7,3.92,1.7-3.92c.13-.29.48-.44.77-.29.29.13.42.48.29.77l-2.11,4.71c-.11.25-.34.42-.65.42s-.54-.17-.65-.42l-2.11-4.71Z"/>
    <path class="cls-5" d="M124.8,183.75c-1.06,0-1.79-.81-1.79-1.79s.73-1.79,1.79-1.79h1.1c.32,0,.58.26.58.58s-.26.58-.58.58h-1.1c-.36,0-.61.3-.61.63s.25.63.61.63h2.11v-2.44c0-.58-.4-1.02-1-1.02h-1.85c-.32,0-.58-.26-.58-.58s.26-.58.58-.58h1.85c1.22,0,2.18.97,2.18,2.17v3.02c0,.33-.21.59-.59.59h-2.7Z"/>
    <path class="cls-5" d="M133.07,180.27c0-.62-.51-1.13-1.13-1.13h-1.48v4.12c0,.33-.26.59-.59.59s-.59-.26-.59-.59v-4.68c0-.33.26-.59.59-.59h2.07c1.27,0,2.31,1.04,2.31,2.31v2.96c0,.33-.26.59-.59.59s-.59-.26-.59-.59v-2.98Z"/>
    <path class="cls-5" d="M21.2,199.2c-1.74,0-2.97-1.3-2.97-2.89s1.23-2.89,2.97-2.89h1.34v-1.81c0-.33.26-.59.59-.59s.59.26.59.59v6.99c0,.33-.26.59-.59.59h-1.93ZM22.54,194.58h-1.34c-1.05,0-1.8.78-1.8,1.73s.75,1.73,1.8,1.73h1.34v-3.46Z"/>
    <path class="cls-5" d="M27.59,199.2c-1.74,0-2.97-1.3-2.97-2.89s1.23-2.89,2.97-2.89h.69c1.1,0,1.83.77,1.83,1.73s-.73,1.73-1.83,1.73h-1.1c-.32,0-.58-.26-.58-.58s.26-.58.58-.58h1.1c.39,0,.65-.26.65-.58s-.26-.58-.65-.58h-.69c-1.04,0-1.8.78-1.8,1.73s.75,1.73,1.8,1.73h1.67c.32,0,.58.26.58.58s-.26.58-.58.58h-1.67Z"/>
    <path class="cls-5" d="M34.57,196.42v2.28c0,.33-.26.59-.59.59s-.59-.26-.59-.59v-7.08c0-.33.26-.59.59-.59s.59.26.59.59v4.59l2.69-2.69c.23-.23.59-.23.82,0,.22.23.22.59,0,.82l-1.98,1.98,1.98,1.98c.23.23.22.59,0,.82-.23.23-.59.23-.82,0l-2.69-2.69Z"/>
    <path class="cls-5" d="M40.53,199.2c-1.06,0-1.79-.81-1.79-1.79s.73-1.79,1.79-1.79h1.1c.32,0,.58.26.58.58s-.26.58-.58.58h-1.1c-.36,0-.61.3-.61.63s.25.63.61.63h2.11v-2.44c0-.58-.4-1.02-1-1.02h-1.85c-.32,0-.58-.26-.58-.58s.26-.58.58-.58h1.85c1.22,0,2.18.97,2.18,2.17v3.02c0,.33-.21.59-.59.59h-2.7Z"/>
    <path class="cls-5" d="M46.52,199.2c-1.06,0-1.79-.81-1.79-1.79s.73-1.79,1.79-1.79h1.1c.32,0,.58.26.58.58s-.26.58-.58.58h-1.1c-.36,0-.61.3-.61.63s.25.63.61.63h2.11v-2.44c0-.58-.4-1.02-1-1.02h-1.85c-.32,0-.58-.26-.58-.58s.26-.58.58-.58h1.85c1.22,0,2.18.97,2.18,2.17v3.02c0,.33-.21.59-.59.59h-2.7Z"/>
    <path class="cls-5" d="M55.41,195.68c0,.33-.26.59-.59.59s-.59-.26-.59-.58v-.08c0-.58-.43-1.03-1.04-1.03h-1.04v4.12c0,.33-.26.59-.59.59s-.59-.26-.59-.59v-4.68c0-.33.26-.59.59-.59h1.62c1.24,0,2.21.99,2.21,2.19v.07Z"/>
    <path class="cls-5" d="M58.99,199.2c-1.12,0-2.04-.92-2.04-2.04v-2.58h-.69c-.32,0-.58-.26-.58-.58s.26-.58.58-.58h.69v-1.15c0-.33.26-.59.59-.59s.59.26.59.59v1.15h1.51c.32,0,.58.26.58.58s-.26.58-.58.58h-1.51v2.59c0,.49.37.87.87.87h.64c.32,0,.58.26.58.58s-.26.58-.58.58h-.65Z"/>
    <path class="cls-5" d="M67.22,195.71c0-.62-.51-1.13-1.13-1.13h-1.48v4.12c0,.33-.26.59-.59.59s-.59-.26-.59-.59v-7.08c0-.33.26-.59.59-.59s.59.26.59.59v1.81h1.48c1.27,0,2.31,1.04,2.31,2.31v2.96c0,.33-.26.59-.59.59s-.59-.26-.59-.59v-2.98Z"/>
    <path class="cls-5" d="M70.16,192.46c-.4,0-.73-.32-.73-.72s.33-.72.73-.72.73.32.73.72-.33.72-.73.72ZM69.57,193.92c0-.33.26-.59.59-.59s.59.26.59.59v4.77c0,.33-.26.59-.59.59s-.59-.26-.59-.59v-4.77Z"/>
    <path class="cls-5" d="M74.62,199.2c-1.74,0-2.97-1.3-2.97-2.89s1.23-2.89,2.97-2.89h.69c1.1,0,1.83.77,1.83,1.73s-.73,1.73-1.83,1.73h-1.1c-.32,0-.58-.26-.58-.58s.26-.58.58-.58h1.1c.39,0,.65-.26.65-.58s-.26-.58-.65-.58h-.69c-1.05,0-1.8.78-1.8,1.73s.75,1.73,1.8,1.73h1.67c.32,0,.58.26.58.58s-.26.58-.58.58h-1.67Z"/>
    <path class="cls-5" d="M82.46,195.68c0,.33-.26.59-.59.59s-.59-.26-.59-.58v-.08c0-.58-.43-1.03-1.04-1.03h-1.04v4.12c0,.33-.26.59-.59.59s-.59-.26-.59-.59v-4.68c0-.33.26-.59.59-.59h1.62c1.24,0,2.21.99,2.21,2.19v.07Z"/>
    <path class="cls-5" d="M86.15,199.34c-1.8,0-3.06-1.35-3.06-3.03s1.26-3.03,3.06-3.03,3.06,1.35,3.06,3.03-1.27,3.03-3.06,3.03ZM86.15,194.42c-1.09,0-1.88.85-1.88,1.88s.79,1.89,1.88,1.89,1.89-.85,1.89-1.89-.79-1.88-1.89-1.88Z"/>
    <path class="cls-5" d="M93.9,195.71c0-.62-.51-1.13-1.13-1.13h-1.48v4.12c0,.33-.26.59-.59.59s-.59-.26-.59-.59v-4.68c0-.33.26-.59.59-.59h2.07c1.27,0,2.31,1.04,2.31,2.31v2.96c0,.33-.26.59-.59.59s-.59-.26-.59-.59v-2.98Z"/>
    <path class="cls-5" d="M98.95,199.2c-1.74,0-2.97-1.3-2.97-2.89s1.23-2.89,2.97-2.89h1.34v-1.81c0-.33.26-.59.59-.59s.59.26.59.59v6.99c0,.33-.26.59-.59.59h-1.93ZM100.29,194.58h-1.34c-1.05,0-1.8.78-1.8,1.73s.75,1.73,1.8,1.73h1.34v-3.46Z"/>
    <path class="cls-5" d="M105.34,199.2c-1.74,0-2.97-1.3-2.97-2.89s1.23-2.89,2.97-2.89h.69c1.1,0,1.83.77,1.83,1.73s-.73,1.73-1.83,1.73h-1.1c-.32,0-.58-.26-.58-.58s.26-.58.58-.58h1.1c.39,0,.65-.26.65-.58s-.26-.58-.65-.58h-.69c-1.05,0-1.8.78-1.8,1.73s.75,1.73,1.8,1.73h1.67c.32,0,.58.26.58.58s-.26.58-.58.58h-1.67Z"/>
    <path class="cls-5" d="M113.17,195.68c0,.33-.26.59-.59.59s-.59-.26-.59-.58v-.08c0-.58-.42-1.03-1.04-1.03h-1.03v4.12c0,.33-.26.59-.59.59s-.59-.26-.59-.59v-4.68c0-.33.26-.59.59-.59h1.62c1.24,0,2.21.99,2.21,2.19v.07Z"/>
    <path class="cls-5" d="M19.59,216.95c-.32,0-.58-.26-.58-.58s.26-.58.58-.58h2.07c.49,0,.88-.39.88-.88v-.27h-1.34c-1.74,0-2.97-1.3-2.97-2.89s1.23-2.89,2.97-2.89h1.93c.33,0,.59.26.59.59v5.46c0,1.12-.91,2.04-2.04,2.04h-2.09ZM22.54,210.02h-1.34c-1.05,0-1.8.78-1.8,1.73s.75,1.73,1.8,1.73h1.34v-3.46Z"/>
    <path class="cls-5" d="M27.59,214.64c-1.74,0-2.97-1.3-2.97-2.89s1.23-2.89,2.97-2.89h.69c1.1,0,1.83.77,1.83,1.73s-.73,1.73-1.83,1.73h-1.1c-.32,0-.58-.26-.58-.58s.26-.58.58-.58h1.1c.39,0,.65-.26.65-.58s-.26-.58-.65-.58h-.69c-1.04,0-1.8.78-1.8,1.73s.75,1.73,1.8,1.73h1.67c.32,0,.58.26.58.58s-.26.58-.58.58h-1.67Z"/>
    <path class="cls-5" d="M31,207.06c0-.33.26-.59.59-.59s.59.26.59.59v7.08c0,.33-.26.59-.59.59s-.59-.26-.59-.59v-7.08Z"/>
    <path class="cls-5" d="M36.05,214.64c-1.74,0-2.97-1.3-2.97-2.89s1.23-2.89,2.97-2.89h1.34v-1.81c0-.33.26-.59.59-.59s.59.26.59.59v6.99c0,.33-.26.59-.59.59h-1.93ZM37.38,210.02h-1.34c-1.05,0-1.8.78-1.8,1.73s.75,1.73,1.8,1.73h1.34v-3.46Z"/>
    <path class="cls-5" d="M42.43,214.64c-1.74,0-2.97-1.3-2.97-2.89s1.23-2.89,2.97-2.89h.69c1.1,0,1.83.77,1.83,1.73s-.73,1.73-1.83,1.73h-1.1c-.32,0-.58-.26-.58-.58s.26-.58.58-.58h1.1c.39,0,.65-.26.65-.58s-.26-.58-.65-.58h-.69c-1.04,0-1.8.78-1.8,1.73s.75,1.73,1.8,1.73h1.67c.32,0,.58.26.58.58s-.26.58-.58.58h-1.67Z"/>
    <path class="cls-5" d="M49.64,211.15c0-.62-.51-1.13-1.13-1.13h-1.48v4.12c0,.33-.26.59-.59.59s-.59-.26-.59-.59v-4.68c0-.33.26-.59.59-.59h2.07c1.27,0,2.31,1.04,2.31,2.31v2.96c0,.33-.26.59-.59.59s-.59-.26-.59-.59v-2.98Z"/>
    <path class="cls-5" d="M58.18,211.15c0-.62-.51-1.13-1.13-1.13h-1.48v4.12c0,.33-.26.59-.59.59s-.59-.26-.59-.59v-4.68c0-.33.26-.59.59-.59h2.07c1.27,0,2.31,1.04,2.31,2.31v2.96c0,.33-.26.59-.59.59s-.59-.26-.59-.59v-2.98Z"/>
    <path class="cls-5" d="M63.32,214.78c-1.8,0-3.06-1.35-3.06-3.03s1.26-3.03,3.06-3.03,3.06,1.35,3.06,3.03-1.27,3.03-3.06,3.03ZM63.32,209.87c-1.09,0-1.89.85-1.89,1.88s.8,1.89,1.89,1.89,1.88-.85,1.88-1.89-.79-1.88-1.88-1.88Z"/>
    <path class="cls-5" d="M68.46,216.95c-.32,0-.58-.26-.58-.58s.26-.58.58-.58h2.07c.49,0,.88-.39.88-.88v-.27h-1.34c-1.74,0-2.97-1.3-2.97-2.89s1.23-2.89,2.97-2.89h1.93c.33,0,.59.26.59.59v5.46c0,1.12-.92,2.04-2.04,2.04h-2.09ZM71.42,210.02h-1.34c-1.04,0-1.8.78-1.8,1.73s.75,1.73,1.8,1.73h1.34v-3.46Z"/>
    <path class="cls-5" d="M76.63,214.64c-.32,0-.58-.26-.58-.58s.26-.58.58-.58h2.44c.39,0,.65-.26.65-.58s-.26-.58-.65-.58h-1.35c-1.1,0-1.83-.77-1.83-1.73s.73-1.73,1.83-1.73h2.44c.32,0,.58.26.58.58s-.26.58-.58.58h-2.44c-.39,0-.65.26-.65.58s.26.58.65.58h1.35c1.1,0,1.83.77,1.83,1.73s-.73,1.73-1.83,1.73h-2.44Z"/>
    <path class="cls-5" d="M84.51,214.64c-1.12,0-2.04-.92-2.04-2.04v-2.58h-.69c-.32,0-.58-.26-.58-.58s.26-.58.58-.58h.69v-1.15c0-.33.26-.59.59-.59s.59.26.59.59v1.15h1.51c.32,0,.58.26.58.58s-.26.58-.58.58h-1.51v2.59c0,.49.37.87.87.87h.64c.32,0,.58.26.58.58s-.26.58-.58.58h-.65Z"/>
    <path class="cls-5" d="M89.07,214.64c-1.74,0-2.97-1.3-2.97-2.89s1.23-2.89,2.97-2.89h.69c1.1,0,1.83.77,1.83,1.73s-.73,1.73-1.83,1.73h-1.1c-.32,0-.58-.26-.58-.58s.26-.58.58-.58h1.1c.39,0,.65-.26.65-.58s-.26-.58-.65-.58h-.69c-1.05,0-1.8.78-1.8,1.73s.75,1.73,1.8,1.73h1.67c.32,0,.58.26.58.58s-.26.58-.58.58h-1.67Z"/>
    <path class="cls-5" d="M95.29,214.64c-1.74,0-2.97-1.3-2.97-2.89s1.23-2.89,2.97-2.89h.69c1.1,0,1.83.77,1.83,1.73s-.73,1.73-1.83,1.73h-1.1c-.32,0-.58-.26-.58-.58s.26-.58.58-.58h1.1c.39,0,.65-.26.65-.58s-.26-.58-.65-.58h-.69c-1.05,0-1.8.78-1.8,1.73s.75,1.73,1.8,1.73h1.67c.32,0,.58.26.58.58s-.26.58-.58.58h-1.67Z"/>
    <path class="cls-5" d="M101.5,214.64c-1.74,0-2.97-1.3-2.97-2.89s1.23-2.89,2.97-2.89h1.34v-1.81c0-.33.26-.59.59-.59s.59.26.59.59v6.99c0,.33-.26.59-.59.59h-1.93ZM102.84,210.02h-1.34c-1.05,0-1.8.78-1.8,1.73s.75,1.73,1.8,1.73h1.34v-3.46Z"/>
    <path class="cls-5" d="M105.65,214.64c-.32,0-.58-.26-.58-.58s.26-.58.58-.58h2.44c.39,0,.65-.26.65-.58s-.26-.58-.65-.58h-1.35c-1.1,0-1.83-.77-1.83-1.73s.73-1.73,1.83-1.73h2.44c.32,0,.58.26.58.58s-.26.58-.58.58h-2.44c-.39,0-.65.26-.65.58s.26.58.65.58h1.35c1.1,0,1.83.77,1.83,1.73s-.73,1.73-1.83,1.73h-2.44Z"/>
    <path class="cls-5" d="M115.91,214.64c-1.74,0-2.97-1.3-2.97-2.89s1.23-2.89,2.97-2.89h1.34v-1.81c0-.33.26-.59.59-.59s.59.26.59.59v6.99c0,.33-.26.59-.59.59h-1.93ZM117.25,210.02h-1.34c-1.05,0-1.8.78-1.8,1.73s.75,1.73,1.8,1.73h1.34v-3.46Z"/>
    <path class="cls-5" d="M122.3,214.64c-1.74,0-2.97-1.3-2.97-2.89s1.23-2.89,2.97-2.89h.69c1.1,0,1.83.77,1.83,1.73s-.73,1.73-1.83,1.73h-1.1c-.32,0-.58-.26-.58-.58s.26-.58.58-.58h1.1c.39,0,.65-.26.65-.58s-.26-.58-.65-.58h-.69c-1.05,0-1.8.78-1.8,1.73s.75,1.73,1.8,1.73h1.67c.32,0,.58.26.58.58s-.26.58-.58.58h-1.67Z"/>
    <path class="cls-5" d="M19.68,227.3v2.28c0,.33-.26.59-.59.59s-.59-.26-.59-.59v-7.08c0-.33.26-.59.59-.59s.59.26.59.59v4.59l2.69-2.69c.23-.23.59-.23.82,0,.22.23.22.59,0,.82l-1.98,1.98,1.98,1.98c.23.23.22.59,0,.82-.23.23-.59.23-.82,0l-2.69-2.69Z"/>
    <path class="cls-5" d="M24.11,222.5c0-.33.26-.59.59-.59s.59.26.59.59v7.08c0,.33-.26.59-.59.59s-.59-.26-.59-.59v-7.08Z"/>
    <path class="cls-5" d="M29.16,230.08c-1.74,0-2.97-1.3-2.97-2.89s1.23-2.89,2.97-2.89h.69c1.1,0,1.83.77,1.83,1.73s-.73,1.73-1.83,1.73h-1.1c-.32,0-.58-.26-.58-.58s.26-.58.58-.58h1.1c.39,0,.65-.26.65-.58s-.26-.58-.65-.58h-.69c-1.05,0-1.8.78-1.8,1.73s.75,1.73,1.8,1.73h1.67c.32,0,.58.26.58.58s-.26.58-.58.58h-1.67Z"/>
    <path class="cls-5" d="M36.38,224.81c0-.33.26-.59.59-.59s.59.26.59.59v2.92c0,1.37-1.12,2.5-2.49,2.5s-2.5-1.12-2.5-2.5v-2.92c0-.33.26-.59.59-.59s.59.26.59.59v2.95c0,.72.6,1.32,1.32,1.32s1.32-.6,1.32-1.32v-2.95Z"/>
    <path class="cls-5" d="M43.16,226.56c0,.33-.26.59-.59.59s-.59-.26-.59-.58v-.08c0-.58-.42-1.03-1.03-1.03h-1.04v4.12c0,.33-.26.59-.59.59s-.59-.26-.59-.59v-4.68c0-.33.26-.59.59-.59h1.62c1.24,0,2.21.99,2.21,2.19v.07Z"/>
    <path class="cls-5" d="M49.17,230.08c-1.74,0-2.97-1.3-2.97-2.89s1.23-2.89,2.97-2.89h.69c1.1,0,1.83.77,1.83,1.73s-.73,1.73-1.83,1.73h-1.1c-.32,0-.58-.26-.58-.58s.26-.58.58-.58h1.1c.39,0,.65-.26.65-.58s-.26-.58-.65-.58h-.69c-1.05,0-1.8.78-1.8,1.73s.75,1.73,1.8,1.73h1.67c.32,0,.58.26.58.58s-.26.58-.58.58h-1.67Z"/>
    <path class="cls-5" d="M56.37,226.59c0-.62-.51-1.13-1.13-1.13h-1.48v4.12c0,.33-.26.59-.59.59s-.59-.26-.59-.59v-4.68c0-.33.26-.59.59-.59h2.07c1.27,0,2.31,1.04,2.31,2.31v2.96c0,.33-.26.59-.59.59s-.59-.26-.59-.59v-2.98Z"/>
    <path class="cls-5" d="M64.92,226.59c0-.62-.51-1.13-1.13-1.13h-1.48v4.12c0,.33-.26.59-.59.59s-.59-.26-.59-.59v-7.08c0-.33.26-.59.59-.59s.59.26.59.59v1.81h1.48c1.27,0,2.31,1.04,2.31,2.31v2.96c0,.33-.26.59-.59.59s-.59-.26-.59-.59v-2.98Z"/>
    <path class="cls-5" d="M69.97,230.08c-1.74,0-2.97-1.3-2.97-2.89s1.23-2.89,2.97-2.89h.69c1.1,0,1.83.77,1.83,1.73s-.73,1.73-1.83,1.73h-1.1c-.32,0-.58-.26-.58-.58s.26-.58.58-.58h1.1c.39,0,.65-.26.65-.58s-.26-.58-.65-.58h-.69c-1.05,0-1.8.78-1.8,1.73s.75,1.73,1.8,1.73h1.67c.32,0,.58.26.58.58s-.26.58-.58.58h-1.67Z"/>
    <path class="cls-5" d="M76.2,230.08c-1.12,0-2.04-.92-2.04-2.04v-2.58h-.69c-.32,0-.58-.26-.58-.58s.26-.58.58-.58h.69v-1.15c0-.33.26-.59.59-.59s.59.26.59.59v1.15h1.51c.32,0,.58.26.58.58s-.26.58-.58.58h-1.51v2.59c0,.49.37.87.87.87h.64c.32,0,.58.26.58.58s-.26.58-.58.58h-.65Z"/>
    <path class="cls-5" d="M81.23,223.35c-.4,0-.73-.32-.73-.72s.33-.72.73-.72.73.32.73.72-.33.72-.73.72ZM80.64,224.81c0-.33.26-.59.59-.59s.59.26.59.59v4.77c0,.33-.26.59-.59.59s-.59-.26-.59-.59v-4.77Z"/>
    <path class="cls-5" d="M85.68,230.08c-1.74,0-2.97-1.3-2.97-2.89s1.23-2.89,2.97-2.89h1.2c.32,0,.58.26.58.58s-.26.58-.58.58h-1.2c-1.05,0-1.8.78-1.8,1.73s.75,1.73,1.8,1.73h1.2c.32,0,.58.26.58.58s-.26.58-.58.58h-1.2Z"/>
    <path class="cls-5" d="M90.89,230.22c-1.8,0-3.06-1.35-3.06-3.03s1.26-3.03,3.06-3.03,3.06,1.35,3.06,3.03-1.27,3.03-3.06,3.03ZM90.89,225.31c-1.09,0-1.89.85-1.89,1.88s.8,1.89,1.89,1.89,1.89-.85,1.89-1.89-.8-1.88-1.89-1.88Z"/>
    <path class="cls-5" d="M97.74,230.22c-1.8,0-3.06-1.35-3.06-3.03s1.26-3.03,3.06-3.03,3.06,1.35,3.06,3.03-1.27,3.03-3.06,3.03ZM97.74,225.31c-1.09,0-1.89.85-1.89,1.88s.8,1.89,1.89,1.89,1.89-.85,1.89-1.89-.8-1.88-1.89-1.88Z"/>
    <path class="cls-5" d="M105.49,226.59c0-.62-.51-1.13-1.13-1.13h-1.48v4.12c0,.33-.26.59-.59.59s-.59-.26-.59-.59v-4.68c0-.33.26-.59.59-.59h2.07c1.27,0,2.31,1.04,2.31,2.31v2.96c0,.33-.26.59-.59.59s-.59-.26-.59-.59v-2.98Z"/>
    <path class="cls-5" d="M110.34,230.08c-1.12,0-2.04-.92-2.04-2.04v-2.58h-.69c-.32,0-.58-.26-.58-.58s.26-.58.58-.58h.69v-1.15c0-.33.26-.59.59-.59s.59.26.59.59v1.15h1.51c.32,0,.58.26.58.58s-.26.58-.58.58h-1.51v2.59c0,.49.37.87.87.87h.64c.32,0,.58.26.58.58s-.26.58-.58.58h-.65Z"/>
    <path class="cls-5" d="M110.8,232.39c-.32,0-.58-.26-.58-.58s.26-.58.58-.58h.23c.98,0,1.35-.51,1.35-1.48v-4.95c0-.33.26-.59.59-.59s.59.26.59.59v4.93c0,1.62-.83,2.65-2.52,2.65h-.24ZM112.97,223.35c-.4,0-.73-.32-.73-.72s.33-.72.73-.72.73.32.73.72-.33.72-.73.72Z"/>
    <path class="cls-5" d="M117.43,230.08c-1.74,0-2.97-1.3-2.97-2.89s1.23-2.89,2.97-2.89h.69c1.1,0,1.83.77,1.83,1.73s-.73,1.73-1.83,1.73h-1.1c-.32,0-.58-.26-.58-.58s.26-.58.58-.58h1.1c.39,0,.65-.26.65-.58s-.26-.58-.65-.58h-.69c-1.05,0-1.8.78-1.8,1.73s.75,1.73,1.8,1.73h1.67c.32,0,.58.26.58.58s-.26.58-.58.58h-1.67Z"/>
  </g>
</svg>