<?xml version="1.0" encoding="UTF-8"?>
<svg id="Laag_1" data-name="Laag 1" xmlns="http://www.w3.org/2000/svg" viewBox="0 0 164.41 249.45">
  <defs>
    <style>
      .cls-1 {
        stroke: #fff;
        stroke-width: .48px;
      }

      .cls-1, .cls-2 {
        stroke-miterlimit: 10;
      }

      .cls-1, .cls-2, .cls-3 {
        fill: #fff;
      }

      .cls-2 {
        stroke-width: 2.74px;
      }

      .cls-2, .cls-4 {
        stroke: #1d1d1b;
      }

      .cls-4 {
        fill: #f7f7f7;
        stroke-linecap: round;
        stroke-linejoin: round;
        stroke-width: 2.72px;
      }

      .cls-5 {
        fill: #8082b8;
      }

      .cls-5, .cls-6, .cls-7, .cls-3, .cls-8 {
        stroke-width: 0px;
      }

      .cls-6 {
        fill: #2f2f2f;
      }

      .cls-7 {
        fill: #1d1d1b;
      }

      .cls-8 {
        fill: #eb7c19;
      }
    </style>
  </defs>
  <rect class="cls-6" x="0" width="164.41" height="249.45"/>
  <g>
    <path class="cls-5" d="M141.73,206.68c-4.35,0-7.89-3.7-7.89-8.26s3.54-8.25,7.89-8.25,7.89,3.7,7.89,8.25-3.54,8.26-7.89,8.26Z"/>
    <path class="cls-7" d="M141.73,191.17c3.8,0,6.89,3.25,6.89,7.26s-3.09,7.26-6.89,7.26-6.89-3.25-6.89-7.26,3.09-7.26,6.89-7.26M141.73,189.17c-4.91,0-8.89,4.14-8.89,9.26s3.98,9.26,8.89,9.26,8.89-4.14,8.89-9.26-3.98-9.26-8.89-9.26h0Z"/>
  </g>
  <g>
    <ellipse class="cls-8" cx="141.73" cy="226.17" rx="7.89" ry="8.26"/>
    <path class="cls-7" d="M141.73,218.92c3.8,0,6.89,3.25,6.89,7.26s-3.09,7.26-6.89,7.26-6.89-3.25-6.89-7.26,3.09-7.26,6.89-7.26M141.73,216.92c-4.91,0-8.89,4.14-8.89,9.26s3.98,9.26,8.89,9.26,8.89-4.14,8.89-9.26-3.98-9.26-8.89-9.26h0Z"/>
  </g>
  <g>
    <path class="cls-3" d="M59.59,37.76c-.02.35.06.73.24,1.15s.42.8.74,1.15.7.65,1.14.89c.44.24.91.36,1.41.36.2,0,.44-.02.71-.06.27-.04.54-.12.79-.25s.46-.3.64-.51c.17-.22.26-.5.26-.85,0-.45-.15-.85-.44-1.2-.29-.35-.64-.66-1.04-.94-.4-.27-.81-.51-1.22-.7-.42-.19-.75-.35-1-.49-.82-.43-1.5-.87-2.05-1.3-.55-.43-1-.88-1.34-1.32-.34-.45-.59-.93-.74-1.43s-.22-1.03-.22-1.6c0-.7.14-1.35.41-1.94s.67-1.1,1.17-1.54c.51-.43,1.13-.77,1.88-1.01.74-.24,1.59-.36,2.54-.36s1.87.13,2.7.4c.83.27,1.5.66,2,1.17.5.52.78,1.14.84,1.88.06.73-.21,1.58-.81,2.53-.05-.53-.22-1-.5-1.39s-.62-.7-1.03-.94c-.4-.23-.83-.39-1.29-.46-.46-.08-.89-.08-1.29-.01-.25.05-.49.12-.73.21-.23.09-.44.22-.62.39-.18.17-.33.37-.42.61-.1.24-.14.52-.12.84.02.33.07.62.16.88s.26.5.5.74c.24.24.57.5.99.76.42.27.97.58,1.65.95.93.52,1.67,1,2.23,1.46.55.46.97.91,1.26,1.36.29.45.48.9.56,1.35.08.45.12.92.12,1.42,0,.6-.15,1.17-.44,1.7-.29.53-.7,1-1.21,1.4s-1.12.72-1.83.96c-.7.24-1.46.38-2.28.41-1.05.03-2-.13-2.86-.49-.86-.36-1.52-.85-1.99-1.47s-.68-1.35-.65-2.16c.03-.82.43-1.67,1.18-2.55Z"/>
    <path class="cls-3" d="M72.52,26.51c.92-.07,1.69.1,2.33.49s1.14.94,1.51,1.65c.38.71.64,1.54.79,2.49.15.95.2,1.95.15,3,.65-.37,1.26-.73,1.84-1.09.57-.36,1.14-.74,1.69-1.15.55-.41,1.1-.85,1.65-1.34s1.12-1.04,1.73-1.68c.72,1.63.77,3.12.15,4.48s-1.99,2.61-4.12,3.77c.63,1.2,1.42,2.44,2.38,3.71.95,1.27,2.06,2.46,3.33,3.56-.77-.02-1.57-.15-2.41-.41-.84-.26-1.68-.63-2.5-1.11-.83-.48-1.62-1.07-2.38-1.77-.76-.7-1.44-1.52-2.04-2.45-.2.75-.43,1.46-.7,2.12s-.56,1.27-.89,1.81c-.33.54-.67,1-1.03,1.38s-.74.65-1.14.81c.05-.43.09-1.12.11-2.05.03-.93.04-1.99.05-3.17,0-1.18,0-2.43-.01-3.75-.02-1.32-.05-2.58-.09-3.79-.04-1.21-.1-2.3-.16-3.29-.07-.98-.14-1.73-.23-2.23Z"/>
    <path class="cls-3" d="M87.62,25.21c1.47-.02,2.53.18,3.19.59.66.41.97.89.95,1.45-.03.56-.37,1.12-1.04,1.69-.67.57-1.59,1-2.77,1.3.02-.55.02-1.02.01-1.42,0-.4-.02-.78-.05-1.15-.02-.37-.06-.74-.11-1.11s-.11-.82-.17-1.34ZM87.69,31.71c.93-.05,1.71.07,2.34.36.62.29,1.12.7,1.48,1.24.36.53.6,1.16.71,1.88.12.72.13,1.46.05,2.24-.08.77-.25,1.55-.5,2.33s-.56,1.5-.94,2.17c-.38.68-.8,1.27-1.29,1.77-.48.51-.99.87-1.53,1.09.05-.43.09-.99.11-1.66.02-.68.04-1.41.05-2.21,0-.8,0-1.63-.01-2.5s-.05-1.71-.09-2.54c-.04-.83-.1-1.6-.16-2.33s-.14-1.34-.22-1.84Z"/>
    <path class="cls-3" d="M95.09,29.59c.65-.05,1.22.03,1.71.24.49.21.93.5,1.31.89.38-.3.85-.51,1.39-.62.54-.12,1.1-.16,1.69-.12.92.05,1.76.28,2.54.69.77.41,1.45.95,2.01,1.61.57.67,1,1.43,1.31,2.29.31.86.45,1.77.44,2.74-.02.93-.16,1.8-.44,2.59-.28.79-.67,1.48-1.19,2.06-.52.58-1.15,1.05-1.9,1.39-.75.34-1.61.52-2.58.54-.87.02-1.67-.12-2.42-.42-.2.7-.43,1.36-.7,1.99s-.55,1.18-.85,1.68c-.3.49-.62.91-.95,1.26-.33.35-.68.6-1.05.75.05-.43.09-1.15.11-2.14.03-.99.04-2.13.05-3.41s0-2.64-.01-4.06c-.02-1.43-.05-2.79-.09-4.09-.04-1.3-.1-2.47-.16-3.51-.07-1.04-.14-1.81-.22-2.31ZM99.19,32.54c.22.58.38,1.22.5,1.91.12.69.18,1.41.2,2.16s-.01,1.52-.09,2.31c-.08.79-.19,1.57-.34,2.34.17-.02.33-.03.49-.05s.32-.05.49-.1c1.77-.43,2.62-1.74,2.58-3.92-.02-.55-.1-1.09-.26-1.62-.16-.53-.38-1.01-.67-1.43-.29-.42-.64-.77-1.04-1.05-.4-.28-.85-.45-1.35-.5-.08-.02-.17-.02-.25-.02s-.17,0-.25-.02Z"/>
  </g>
  <g>
    <path class="cls-1" d="M21.45,195.85c-.35,0-.63-.29-.63-.63v-6.07c0-.35.29-.64.63-.64h1.96c2.09,0,3.69,1.59,3.69,3.67s-1.6,3.67-3.69,3.67h-1.96ZM23.41,194.63c1.37,0,2.42-1.05,2.42-2.45s-1.05-2.45-2.42-2.45h-1.33v4.89h1.33Z"/>
    <path class="cls-1" d="M30.92,195.85c-1.85,0-3.15-1.37-3.15-3.06s1.3-3.06,3.15-3.06h.73c1.17,0,1.94.82,1.94,1.83s-.77,1.83-1.94,1.83h-1.16c-.33,0-.61-.28-.61-.61s.28-.61.61-.61h1.16c.42,0,.69-.28.69-.61s-.28-.61-.69-.61h-.73c-1.11,0-1.9.83-1.9,1.83s.8,1.83,1.9,1.83h1.77c.34,0,.61.28.61.61s-.28.61-.61.61h-1.77Z"/>
    <path class="cls-1" d="M38.32,195.85v1.92c0,.35-.28.62-.62.62s-.62-.28-.62-.62v-7.41c0-.35.28-.62.62-.62h2.04c1.85,0,3.15,1.37,3.15,3.06s-1.3,3.06-3.15,3.06h-1.42ZM39.74,194.63c1.11,0,1.9-.83,1.9-1.83s-.8-1.83-1.9-1.83h-1.42v3.67h1.42Z"/>
    <path class="cls-1" d="M46.81,195.85c-1.85,0-3.15-1.37-3.15-3.06s1.3-3.06,3.15-3.06h.73c1.17,0,1.94.82,1.94,1.83s-.77,1.83-1.94,1.83h-1.16c-.33,0-.61-.28-.61-.61s.28-.61.61-.61h1.16c.42,0,.69-.28.69-.61s-.28-.61-.69-.61h-.73c-1.11,0-1.9.83-1.9,1.83s.8,1.83,1.9,1.83h1.77c.34,0,.61.28.61.61s-.28.61-.61.61h-1.77Z"/>
    <path class="cls-1" d="M55.11,192.13c0,.35-.28.62-.62.62s-.62-.28-.62-.61v-.08c0-.61-.45-1.1-1.1-1.1h-1.1v4.36c0,.35-.28.62-.62.62s-.62-.28-.62-.62v-4.96c0-.35.28-.62.62-.62h1.72c1.32,0,2.34,1.05,2.34,2.32v.07Z"/>
    <path class="cls-1" d="M56.56,195.85c-.33,0-.61-.28-.61-.61s.28-.61.61-.61h2.58c.42,0,.69-.28.69-.61s-.28-.61-.69-.61h-1.43c-1.17,0-1.94-.82-1.94-1.83s.77-1.83,1.94-1.83h2.58c.33,0,.61.28.61.61s-.28.61-.61.61h-2.58c-.42,0-.69.28-.69.61s.28.61.69.61h1.43c1.16,0,1.94.82,1.94,1.83s-.77,1.83-1.94,1.83h-2.58Z"/>
    <path class="cls-1" d="M64.98,196c-1.9,0-3.24-1.43-3.24-3.21s1.34-3.21,3.24-3.21,3.24,1.43,3.24,3.21-1.35,3.21-3.24,3.21ZM64.98,190.8c-1.15,0-2,.9-2,2s.84,2,2,2,2-.9,2-2-.84-2-2-2Z"/>
    <path class="cls-1" d="M72.23,196c-1.9,0-3.24-1.43-3.24-3.21s1.34-3.21,3.24-3.21,3.24,1.43,3.24,3.21-1.35,3.21-3.24,3.21ZM72.23,190.8c-1.15,0-2,.9-2,2s.84,2,2,2,2-.9,2-2-.84-2-2-2Z"/>
    <path class="cls-1" d="M80.43,192.16c0-.66-.54-1.2-1.2-1.2h-1.57v4.36c0,.35-.28.62-.62.62s-.62-.28-.62-.62v-4.96c0-.35.28-.62.62-.62h2.19c1.35,0,2.45,1.1,2.45,2.45v3.14c0,.35-.28.62-.62.62s-.62-.28-.62-.62v-3.16Z"/>
    <path class="cls-1" d="M89.48,192.16c0-.66-.54-1.2-1.2-1.2h-1.57v4.36c0,.35-.28.62-.62.62s-.62-.28-.62-.62v-4.96c0-.35.28-.62.62-.62h2.19c1.35,0,2.45,1.1,2.45,2.45v3.14c0,.35-.28.62-.62.62s-.62-.28-.62-.62v-3.16Z"/>
    <path class="cls-1" d="M93.59,195.85c-1.12,0-1.89-.85-1.89-1.89s.77-1.89,1.89-1.89h1.16c.34,0,.61.28.61.61s-.28.61-.61.61h-1.16c-.38,0-.65.32-.65.67s.27.67.65.67h2.24v-2.58c0-.61-.43-1.08-1.06-1.08h-1.96c-.33,0-.61-.28-.61-.61s.28-.61.61-.61h1.96c1.29,0,2.31,1.03,2.31,2.3v3.2c0,.35-.22.62-.62.62h-2.86Z"/>
    <path class="cls-1" d="M99.19,198.3c-.33,0-.61-.28-.61-.61s.28-.61.61-.61h.24c1.04,0,1.43-.54,1.43-1.57v-5.24c0-.35.28-.62.62-.62s.62.28.62.62v5.23c0,1.72-.88,2.8-2.67,2.8h-.25ZM101.49,188.72c-.43,0-.77-.33-.77-.76s.35-.76.77-.76.77.33.77.76-.35.76-.77.76Z"/>
    <path class="cls-1" d="M106.3,196c-1.9,0-3.24-1.43-3.24-3.21s1.34-3.21,3.24-3.21,3.24,1.43,3.24,3.21-1.35,3.21-3.24,3.21ZM106.3,190.8c-1.15,0-2,.9-2,2s.84,2,2,2,2-.9,2-2-.84-2-2-2Z"/>
    <path class="cls-1" d="M114.53,190.27c0-.35.28-.62.62-.62s.62.28.62.62v3.09c0,1.45-1.19,2.64-2.64,2.64s-2.64-1.19-2.64-2.64v-3.09c0-.35.28-.62.62-.62s.62.28.62.62v3.13c0,.76.63,1.4,1.4,1.4s1.4-.63,1.4-1.4v-3.13Z"/>
    <path class="cls-1" d="M27.86,208.52c0-.66-.54-1.2-1.2-1.2h-1.1v4.36c0,.35-.28.62-.62.62s-.62-.28-.62-.62v-4.36h-2.27v4.36c0,.35-.28.62-.62.62s-.62-.28-.62-.62v-4.96c0-.35.28-.62.62-.62h5.24c1.35,0,2.45,1.1,2.45,2.45v3.14c0,.35-.28.62-.62.62s-.62-.28-.62-.62v-3.16Z"/>
    <path class="cls-1" d="M33.3,212.36c-1.9,0-3.24-1.43-3.24-3.21s1.34-3.21,3.24-3.21,3.24,1.43,3.24,3.21-1.35,3.21-3.24,3.21ZM33.3,207.15c-1.15,0-2,.9-2,2s.84,2,2,2,2-.9,2-2-.84-2-2-2Z"/>
    <path class="cls-1" d="M40.46,212.21c-1.85,0-3.15-1.37-3.15-3.06s1.3-3.06,3.15-3.06h.73c1.16,0,1.94.82,1.94,1.83s-.77,1.83-1.94,1.83h-1.17c-.33,0-.61-.28-.61-.61s.28-.61.61-.61h1.17c.42,0,.69-.28.69-.61s-.28-.61-.69-.61h-.73c-1.11,0-1.9.83-1.9,1.83s.8,1.83,1.9,1.83h1.77c.33,0,.61.28.61.61s-.28.61-.61.61h-1.77Z"/>
    <path class="cls-1" d="M47.06,212.21c-1.19,0-2.16-.97-2.16-2.16v-2.73h-.73c-.33,0-.61-.28-.61-.61s.28-.61.61-.61h.73v-1.22c0-.35.28-.62.62-.62s.62.28.62.62v1.22h1.6c.33,0,.61.28.61.61s-.28.61-.61.61h-1.6v2.75c0,.52.39.92.92.92h.68c.33,0,.61.28.61.61s-.28.61-.61.61h-.69Z"/>
    <path class="cls-1" d="M54.61,212.21c-1.85,0-3.15-1.37-3.15-3.06s1.3-3.06,3.15-3.06h.73c1.16,0,1.94.82,1.94,1.83s-.77,1.83-1.94,1.83h-1.17c-.33,0-.61-.28-.61-.61s.28-.61.61-.61h1.17c.42,0,.69-.28.69-.61s-.28-.61-.69-.61h-.73c-1.11,0-1.9.83-1.9,1.83s.8,1.83,1.9,1.83h1.77c.33,0,.61.28.61.61s-.28.61-.61.61h-1.77Z"/>
    <path class="cls-1" d="M61.19,212.21c-1.85,0-3.15-1.37-3.15-3.06s1.3-3.06,3.15-3.06h.73c1.16,0,1.94.82,1.94,1.83s-.77,1.83-1.94,1.83h-1.17c-.33,0-.61-.28-.61-.61s.28-.61.61-.61h1.17c.42,0,.69-.28.69-.61s-.28-.61-.69-.61h-.73c-1.11,0-1.9.83-1.9,1.83s.8,1.83,1.9,1.83h1.77c.33,0,.61.28.61.61s-.28.61-.61.61h-1.77Z"/>
    <path class="cls-1" d="M68.82,208.52c0-.66-.54-1.2-1.2-1.2h-1.57v4.36c0,.35-.28.62-.62.62s-.62-.28-.62-.62v-4.96c0-.35.28-.62.62-.62h2.19c1.35,0,2.45,1.1,2.45,2.45v3.14c0,.35-.28.62-.62.62s-.62-.28-.62-.62v-3.16Z"/>
    <path class="cls-1" d="M74.48,212.21c-.35,0-.62-.28-.62-.62v-7.41c0-.35.28-.62.62-.62s.62.28.62.62v1.92h1.42c1.85,0,3.15,1.37,3.15,3.06s-1.3,3.06-3.15,3.06h-2.04ZM76.52,210.98c1.11,0,1.9-.83,1.9-1.83s-.8-1.83-1.9-1.83h-1.42v3.67h1.42Z"/>
    <path class="cls-1" d="M83.58,212.21c-1.85,0-3.15-1.37-3.15-3.06s1.3-3.06,3.15-3.06h.73c1.17,0,1.94.82,1.94,1.83s-.77,1.83-1.94,1.83h-1.16c-.33,0-.61-.28-.61-.61s.28-.61.61-.61h1.16c.42,0,.69-.28.69-.61s-.28-.61-.69-.61h-.73c-1.11,0-1.9.83-1.9,1.83s.8,1.83,1.9,1.83h1.77c.34,0,.61.28.61.61s-.28.61-.61.61h-1.77Z"/>
    <path class="cls-1" d="M91.24,206.62c0-.35.28-.62.62-.62s.62.28.62.62v3.09c0,1.45-1.19,2.64-2.64,2.64s-2.64-1.19-2.64-2.64v-3.09c0-.35.28-.62.62-.62s.62.28.62.62v3.13c0,.76.64,1.4,1.4,1.4s1.4-.63,1.4-1.4v-3.13Z"/>
    <path class="cls-1" d="M98.42,208.48c0,.35-.28.62-.62.62s-.62-.28-.62-.61v-.08c0-.61-.45-1.1-1.1-1.1h-1.1v4.36c0,.35-.28.62-.62.62s-.62-.28-.62-.62v-4.96c0-.35.28-.62.62-.62h1.72c1.32,0,2.34,1.05,2.34,2.32v.07Z"/>
    <path class="cls-1" d="M102.2,212.21c-1.19,0-2.16-.97-2.16-2.16v-2.73h-.73c-.33,0-.61-.28-.61-.61s.28-.61.61-.61h.73v-1.22c0-.35.28-.62.62-.62s.62.28.62.62v1.22h1.6c.33,0,.61.28.61.61s-.28.61-.61.61h-1.6v2.75c0,.52.39.92.92.92h.68c.33,0,.61.28.61.61s-.28.61-.61.61h-.69Z"/>
    <path class="cls-1" d="M23.74,228.71c-1.9,0-3.24-1.43-3.24-3.21s1.34-3.21,3.24-3.21,3.24,1.43,3.24,3.21-1.35,3.21-3.24,3.21ZM23.74,223.51c-1.15,0-2,.9-2,2s.84,2,2,2,2-.9,2-2-.84-2-2-2Z"/>
    <path class="cls-1" d="M27.43,223.23c-.14-.31,0-.68.31-.82.31-.15.68,0,.82.31l1.8,4.15,1.8-4.15c.14-.31.51-.46.82-.31.31.14.45.51.31.82l-2.24,4.98c-.12.26-.36.45-.69.45s-.58-.19-.69-.45l-2.24-4.98Z"/>
    <path class="cls-1" d="M36.88,228.56c-1.85,0-3.15-1.37-3.15-3.06s1.3-3.06,3.15-3.06h.73c1.16,0,1.94.82,1.94,1.83s-.77,1.83-1.94,1.83h-1.17c-.33,0-.61-.28-.61-.61s.28-.61.61-.61h1.17c.42,0,.69-.28.69-.61s-.28-.61-.69-.61h-.73c-1.11,0-1.9.83-1.9,1.83s.8,1.83,1.9,1.83h1.77c.33,0,.61.28.61.61s-.28.61-.61.61h-1.77Z"/>
    <path class="cls-1" d="M45.18,224.83c0,.35-.28.62-.62.62s-.62-.28-.62-.61v-.08c0-.61-.45-1.1-1.1-1.1h-1.1v4.36c0,.35-.28.62-.62.62s-.62-.28-.62-.62v-4.96c0-.35.28-.62.62-.62h1.72c1.32,0,2.34,1.05,2.34,2.32v.07Z"/>
    <path class="cls-1" d="M46.63,228.56c-.33,0-.61-.28-.61-.61s.28-.61.61-.61h2.58c.42,0,.69-.28.69-.61s-.28-.61-.69-.61h-1.43c-1.16,0-1.94-.82-1.94-1.83s.77-1.83,1.94-1.83h2.58c.34,0,.61.28.61.61s-.28.61-.61.61h-2.58c-.42,0-.69.28-.69.61s.28.61.69.61h1.43c1.17,0,1.94.82,1.94,1.83s-.77,1.83-1.94,1.83h-2.58Z"/>
    <path class="cls-1" d="M52.11,220.53c0-.35.28-.62.62-.62s.62.28.62.62v7.5c0,.35-.28.62-.62.62s-.62-.28-.62-.62v-7.5Z"/>
    <path class="cls-1" d="M56.22,228.56c-1.12,0-1.89-.85-1.89-1.89s.77-1.89,1.89-1.89h1.16c.33,0,.61.28.61.61s-.28.61-.61.61h-1.16c-.38,0-.65.32-.65.67s.27.67.65.67h2.24v-2.58c0-.61-.43-1.08-1.06-1.08h-1.96c-.33,0-.61-.28-.61-.61s.28-.61.61-.61h1.96c1.29,0,2.31,1.03,2.31,2.3v3.2c0,.35-.22.62-.62.62h-2.86Z"/>
    <path class="cls-1" d="M62.56,228.56c-1.12,0-1.89-.85-1.89-1.89s.77-1.89,1.89-1.89h1.16c.33,0,.61.28.61.61s-.28.61-.61.61h-1.16c-.38,0-.65.32-.65.67s.27.67.65.67h2.24v-2.58c0-.61-.43-1.08-1.06-1.08h-1.96c-.33,0-.61-.28-.61-.61s.28-.61.61-.61h1.96c1.29,0,2.31,1.03,2.31,2.3v3.2c0,.35-.22.62-.62.62h-2.86Z"/>
    <path class="cls-1" d="M71.31,224.87c0-.66-.54-1.2-1.2-1.2h-1.57v4.36c0,.35-.28.62-.62.62s-.62-.28-.62-.62v-4.96c0-.35.28-.62.62-.62h2.19c1.35,0,2.45,1.1,2.45,2.45v3.14c0,.35-.28.62-.62.62s-.62-.28-.62-.62v-3.16Z"/>
  </g>
  <g>
    <g>
      <path class="cls-4" d="M127.98,141.43c0,4.57-1.87,8.73-4.89,11.75-3.02,3.02-7.17,4.89-11.75,4.89h-12.91c-8.88,0-16.19-7.05-16.61-15.83-.01-.27-.02-.53-.02-.8v-12.13c0-3.04,2.33-5.64,5.37-5.82,1.25-.07,2.42.26,3.4.89v-15.44c0-3.01,2.28-5.58,5.28-5.8,1.24-.09,2.27.21,3.24.81.44-2.72,2.96-4.8,5.79-4.8,1.57,0,3,.64,4.03,1.68.85.85,1.42,1.87,1.59,3.12.9-.59,2-.83,3.14-.83,1.57,0,3,.64,4.03,1.68.94.94,1.49,2.06,1.59,3.45.85-.51,1.92-.66,2.98-.66,1.57,0,3,.64,4.03,1.68,1.03,1.03,1.68,2.46,1.68,4.03v24.33"/>
      <line class="cls-4" x1="99.1" y1="126.28" x2="99.1" y2="103.94"/>
      <line class="cls-4" x1="110.52" y1="126.28" x2="110.52" y2="103.94"/>
      <line class="cls-4" x1="119.29" y1="126.28" x2="119.29" y2="108.24"/>
      <line class="cls-4" x1="127.98" y1="137.29" x2="127.98" y2="141.43"/>
      <line class="cls-4" x1="90.57" y1="138.03" x2="90.57" y2="124.38"/>
    </g>
    <circle class="cls-2" cx="60.58" cy="81.52" r="24.15"/>
    <circle class="cls-2" cx="60.8" cy="81.52" r="19.25"/>
    <line class="cls-2" x1="59.16" y1="83.92" x2="59.16" y2="65.94"/>
    <line class="cls-2" x1="77.08" y1="82.62" x2="57.84" y2="82.62"/>
  </g>
</svg>