<?xml version="1.0" encoding="UTF-8"?>
<svg id="Laag_1" data-name="Laag 1" xmlns="http://www.w3.org/2000/svg" viewBox="0 0 164.41 249.45">
  <defs>
    <style>
      .cls-1 {
        stroke: #fff;
        stroke-miterlimit: 10;
        stroke-width: .47px;
      }

      .cls-1, .cls-2, .cls-3 {
        fill: #fff;
      }

      .cls-4 {
        fill: #de2b65;
      }

      .cls-4, .cls-2 {
        stroke: #1d1d1b;
        stroke-linecap: round;
        stroke-linejoin: round;
        stroke-width: 3.72px;
      }

      .cls-5 {
        fill: #8082b8;
      }

      .cls-5, .cls-6, .cls-7, .cls-3, .cls-8 {
        stroke-width: 0px;
      }

      .cls-6 {
        fill: #2f2f2f;
      }

      .cls-7 {
        fill: #1d1d1b;
      }

      .cls-8 {
        fill: #eb7c19;
      }
    </style>
  </defs>
  <rect class="cls-6" x="0" width="164.41" height="249.45"/>
  <g>
    <path class="cls-5" d="M141.73,206.68c-4.35,0-7.89-3.7-7.89-8.26s3.54-8.25,7.89-8.25,7.89,3.7,7.89,8.25-3.54,8.26-7.89,8.26Z"/>
    <path class="cls-7" d="M141.73,191.17c3.8,0,6.89,3.25,6.89,7.26s-3.09,7.26-6.89,7.26-6.89-3.25-6.89-7.26,3.09-7.26,6.89-7.26M141.73,189.17c-4.91,0-8.89,4.14-8.89,9.26s3.98,9.26,8.89,9.26,8.89-4.14,8.89-9.26-3.98-9.26-8.89-9.26h0Z"/>
  </g>
  <g>
    <ellipse class="cls-8" cx="141.73" cy="226.17" rx="7.89" ry="8.26"/>
    <path class="cls-7" d="M141.73,218.92c3.8,0,6.89,3.25,6.89,7.26s-3.09,7.26-6.89,7.26-6.89-3.25-6.89-7.26,3.09-7.26,6.89-7.26M141.73,216.92c-4.91,0-8.89,4.14-8.89,9.26s3.98,9.26,8.89,9.26,8.89-4.14,8.89-9.26-3.98-9.26-8.89-9.26h0Z"/>
  </g>
  <g>
    <path class="cls-3" d="M56.42,44.51c-.75.02-1.48-.09-2.19-.32-.71-.23-1.31-.59-1.81-1.08-.57.83-1.17,1.39-1.83,1.68.03-.38.07-.93.1-1.64.03-.71.06-1.52.09-2.42s.04-1.88.05-2.9c0-1.02,0-2.05,0-3.07,0-1.02-.03-2-.06-2.93-.03-.92-.08-1.75-.12-2.46-.4-.23-.71-.5-.93-.81-.22-.31-.36-.63-.42-.96-.07-.33-.07-.68,0-1.04.07-.36.18-.7.35-1.04.38.47.82.8,1.3.99.48.19,1.15.3,2,.31,1.27.02,2.42.08,3.45.19,1.03.11,1.93.31,2.7.6s1.39.7,1.86,1.21c.47.52.78,1.18.91,2,.13.75.08,1.45-.15,2.11-.23.66-.75,1.3-1.55,1.94.6.3,1.09.66,1.46,1.09.38.43.66.87.85,1.33.19.46.31.91.35,1.36.04.45.03.86-.04,1.23-.1.57-.29,1.12-.58,1.68-.28.55-.68,1.04-1.19,1.47-.51.43-1.14.79-1.9,1.06-.76.28-1.66.42-2.71.44ZM54.84,41.49c.48.1.96.12,1.43.05.47-.07.88-.21,1.25-.44.37-.23.67-.52.9-.89.23-.37.35-.8.35-1.3s-.11-.93-.31-1.3c-.21-.37-.5-.67-.86-.91-.37-.24-.8-.43-1.29-.56-.49-.13-1-.23-1.54-.3-.08.88-.23,1.75-.43,2.61-.2.86-.45,1.66-.75,2.41.18.15.38.28.58.39s.42.19.67.24ZM54.07,30.09c.28.58.49,1.24.61,1.98s.18,1.5.16,2.3c.85-.15,1.53-.43,2.03-.84.5-.41.75-.94.75-1.59,0-.37-.09-.67-.26-.91-.17-.24-.42-.43-.74-.56-.32-.13-.69-.23-1.11-.29-.42-.06-.89-.09-1.39-.09h-.05Z"/>
    <path class="cls-3" d="M65.64,26.76c.97-.07,1.77.11,2.41.54.64.43,1.15,1.01,1.52,1.76s.62,1.63.75,2.64c.12,1.01.15,2.06.06,3.15s-.25,2.18-.51,3.26c-.26,1.08-.58,2.08-.97,2.99s-.84,1.69-1.34,2.35c-.5.66-1.03,1.1-1.6,1.34.05-.43.09-1.11.11-2.03.03-.92.04-1.96.05-3.12,0-1.17,0-2.4-.01-3.7-.02-1.3-.05-2.55-.09-3.74-.04-1.19-.1-2.27-.16-3.24-.07-.97-.14-1.7-.23-2.2Z"/>
    <path class="cls-3" d="M81.19,29.01c-.87.72-1.56,1.51-2.07,2.38-.52.87-.89,1.73-1.12,2.6-.23.87-.35,1.7-.34,2.51,0,.81.11,1.53.31,2.16.2.63.47,1.14.82,1.51.35.38.75.56,1.2.56.48,0,.89-.16,1.24-.48.34-.32.6-.73.79-1.25.18-.52.28-1.11.29-1.77,0-.67-.08-1.35-.25-2.06-.18-.71-.44-1.4-.8-2.09-.36-.68-.82-1.3-1.39-1.85,1.32.02,2.42.27,3.32.75.9.48,1.6,1.11,2.11,1.89.51.77.83,1.65.96,2.61.13.97.08,1.95-.15,2.95-.15.68-.41,1.34-.78,1.96-.37.62-.81,1.17-1.34,1.65s-1.12.85-1.8,1.12-1.4.41-2.16.41c-.98,0-1.87-.17-2.65-.5-.78-.33-1.45-.8-2-1.41-.55-.61-.98-1.33-1.29-2.17-.31-.84-.47-1.76-.49-2.76-.03-1.07.12-2.08.45-3.05.33-.97.83-1.84,1.47-2.62.65-.78,1.45-1.44,2.4-1.98.95-.53,2.03-.89,3.25-1.08Z"/>
    <path class="cls-3" d="M99.82,40.16c-.05.7-.23,1.3-.54,1.8-.31.5-.69.91-1.15,1.24-.46.33-.98.56-1.58.71-.59.15-1.2.22-1.84.2-1.02-.02-1.92-.2-2.7-.56-.78-.36-1.45-.85-1.99-1.46-.54-.62-.96-1.35-1.25-2.19-.29-.84-.45-1.75-.46-2.74-.02-1.02.14-1.98.46-2.9.32-.92.78-1.72,1.38-2.42.59-.7,1.29-1.27,2.11-1.7.82-.43,1.71-.67,2.67-.72.58-.03,1.15,0,1.69.11.54.11,1.02.31,1.42.6s.73.67.98,1.15c.24.48.36,1.07.36,1.79-.5-.43-.96-.71-1.38-.83-.42-.12-.92-.13-1.5-.05-.52.07-.99.25-1.41.54-.42.29-.79.66-1.1,1.11s-.55.95-.71,1.51c-.17.56-.26,1.13-.27,1.71-.03,1.17.18,2.09.65,2.77.47.68,1.15,1.14,2.05,1.38.77.18,1.51.19,2.22.01.72-.18,1.34-.53,1.88-1.06Z"/>
    <path class="cls-3" d="M101.94,26.51c.92-.07,1.69.1,2.33.49s1.14.94,1.51,1.65c.38.71.64,1.54.79,2.49.15.95.2,1.95.15,3,.65-.37,1.26-.73,1.84-1.09.57-.36,1.14-.74,1.69-1.15.55-.41,1.1-.85,1.65-1.34s1.12-1.04,1.73-1.68c.72,1.63.77,3.12.15,4.48s-1.99,2.61-4.12,3.77c.63,1.2,1.42,2.44,2.38,3.71.95,1.27,2.06,2.46,3.33,3.56-.77-.02-1.57-.15-2.41-.41-.84-.26-1.68-.63-2.5-1.11-.83-.48-1.62-1.07-2.38-1.77-.76-.7-1.44-1.52-2.04-2.45-.2.75-.43,1.46-.7,2.12s-.56,1.27-.89,1.81c-.33.54-.67,1-1.03,1.38-.36.38-.74.65-1.14.81.05-.43.09-1.12.11-2.05.03-.93.04-1.99.05-3.17,0-1.18,0-2.43-.01-3.75-.02-1.32-.04-2.58-.09-3.79-.04-1.21-.1-2.3-.16-3.29-.07-.98-.14-1.73-.22-2.23Z"/>
  </g>
  <g>
    <path class="cls-1" d="M19.92,194.25c-.34,0-.62-.28-.62-.62v-5.89c0-.34.28-.62.62-.62h2.9c1.12,0,2.03.85,2.03,2.03,0,.64-.29,1.2-.74,1.53.45.34.74.9.74,1.54,0,1.18-.91,2.02-2.03,2.02h-2.9ZM21.69,191.28c-.32,0-.59-.27-.59-.59s.27-.59.59-.59h1.03c.56,0,.9-.4.9-.89s-.34-.9-.9-.9h-2.18v4.75h2.18c.56,0,.9-.4.9-.88s-.34-.9-.9-.9h-1.03Z"/>
    <path class="cls-1" d="M25.91,186.46c0-.34.27-.6.6-.6s.6.27.6.6v7.28c0,.34-.27.6-.6.6s-.6-.27-.6-.6v-7.28Z"/>
    <path class="cls-1" d="M31.18,194.4c-1.85,0-3.15-1.39-3.15-3.11s1.3-3.11,3.15-3.11,3.15,1.39,3.15,3.11-1.31,3.11-3.15,3.11ZM31.18,189.35c-1.12,0-1.94.87-1.94,1.94s.82,1.94,1.94,1.94,1.94-.87,1.94-1.94-.82-1.94-1.94-1.94Z"/>
    <path class="cls-1" d="M36.46,191.4v2.34c0,.34-.27.6-.6.6s-.6-.27-.6-.6v-7.28c0-.34.27-.6.6-.6s.6.27.6.6v4.72l2.77-2.77c.24-.24.6-.24.84,0,.22.24.22.6,0,.84l-2.04,2.04,2.04,2.04c.24.24.22.6,0,.84-.24.24-.6.24-.84,0l-2.77-2.77Z"/>
    <path class="cls-1" d="M42.22,191.4v2.34c0,.34-.27.6-.6.6s-.6-.27-.6-.6v-7.28c0-.34.27-.6.6-.6s.6.27.6.6v4.72l2.77-2.77c.24-.24.6-.24.84,0,.22.24.22.6,0,.84l-2.04,2.04,2.04,2.04c.24.24.22.6,0,.84-.24.24-.6.24-.84,0l-2.77-2.77Z"/>
    <path class="cls-1" d="M49.2,194.25c-1.79,0-3.06-1.33-3.06-2.97s1.26-2.97,3.06-2.97h.71c1.13,0,1.88.8,1.88,1.78s-.75,1.78-1.88,1.78h-1.13c-.32,0-.59-.27-.59-.59s.27-.59.59-.59h1.13c.4,0,.67-.27.67-.59s-.27-.59-.67-.59h-.71c-1.08,0-1.85.81-1.85,1.78s.77,1.78,1.85,1.78h1.71c.33,0,.59.27.59.59s-.27.59-.59.59h-1.71Z"/>
    <path class="cls-1" d="M55.59,194.25c-1.79,0-3.06-1.33-3.06-2.97s1.26-2.97,3.06-2.97h.71c1.13,0,1.88.8,1.88,1.78s-.75,1.78-1.88,1.78h-1.13c-.32,0-.59-.27-.59-.59s.27-.59.59-.59h1.13c.4,0,.67-.27.67-.59s-.27-.59-.67-.59h-.71c-1.08,0-1.85.81-1.85,1.78s.77,1.78,1.85,1.78h1.71c.33,0,.59.27.59.59s-.27.59-.59.59h-1.71Z"/>
    <path class="cls-1" d="M63.65,190.64c0,.34-.27.6-.6.6s-.6-.27-.6-.59v-.08c0-.59-.44-1.06-1.06-1.06h-1.07v4.23c0,.34-.27.6-.6.6s-.61-.27-.61-.6v-4.82c0-.34.27-.6.61-.6h1.67c1.28,0,2.27,1.02,2.27,2.25v.07Z"/>
    <path class="cls-1" d="M67.33,194.25c-1.15,0-2.09-.94-2.09-2.09v-2.65h-.71c-.32,0-.59-.27-.59-.59s.27-.59.59-.59h.71v-1.19c0-.34.27-.6.6-.6s.61.27.61.6v1.19h1.56c.32,0,.59.27.59.59s-.27.59-.59.59h-1.56v2.67c0,.5.38.9.9.9h.66c.32,0,.59.27.59.59s-.27.59-.59.59h-.67Z"/>
    <path class="cls-1" d="M74.65,194.25c-1.79,0-3.06-1.33-3.06-2.97s1.26-2.97,3.06-2.97h.71c1.13,0,1.88.8,1.88,1.78s-.75,1.78-1.88,1.78h-1.13c-.32,0-.59-.27-.59-.59s.27-.59.59-.59h1.13c.4,0,.67-.27.67-.59s-.27-.59-.67-.59h-.71c-1.08,0-1.85.81-1.85,1.78s.77,1.78,1.85,1.78h1.71c.33,0,.59.27.59.59s-.27.59-.59.59h-1.71Z"/>
    <path class="cls-1" d="M81.04,194.25c-1.79,0-3.06-1.33-3.06-2.97s1.26-2.97,3.06-2.97h.71c1.13,0,1.88.8,1.88,1.78s-.75,1.78-1.88,1.78h-1.13c-.32,0-.59-.27-.59-.59s.27-.59.59-.59h1.13c.4,0,.67-.27.67-.59s-.27-.59-.67-.59h-.71c-1.08,0-1.85.81-1.85,1.78s.77,1.78,1.85,1.78h1.71c.33,0,.59.27.59.59s-.27.59-.59.59h-1.71Z"/>
    <path class="cls-1" d="M88.45,190.67c0-.64-.53-1.16-1.17-1.16h-1.52v4.23c0,.34-.27.6-.6.6s-.6-.27-.6-.6v-4.82c0-.34.27-.6.6-.6h2.13c1.31,0,2.37,1.06,2.37,2.37v3.05c0,.34-.27.6-.61.6s-.6-.27-.6-.6v-3.07Z"/>
    <path class="cls-1" d="M20.86,210.13c-1.09,0-1.84-.83-1.84-1.84s.75-1.84,1.84-1.84h1.13c.32,0,.59.27.59.59s-.27.59-.59.59h-1.13c-.37,0-.63.31-.63.65s.26.65.63.65h2.17v-2.51c0-.59-.41-1.05-1.03-1.05h-1.9c-.32,0-.59-.27-.59-.59s.27-.59.59-.59h1.9c1.25,0,2.24,1,2.24,2.23v3.1c0,.34-.21.6-.6.6h-2.78Z"/>
    <path class="cls-1" d="M28.22,210.13c-1.79,0-3.06-1.33-3.06-2.97s1.27-2.97,3.06-2.97h1.23c.32,0,.59.27.59.59s-.27.59-.59.59h-1.23c-1.08,0-1.85.81-1.85,1.78s.77,1.78,1.85,1.78h1.23c.32,0,.59.27.59.59s-.27.59-.59.59h-1.23Z"/>
    <path class="cls-1" d="M33.85,210.13c-1.15,0-2.09-.94-2.09-2.09v-2.65h-.71c-.32,0-.59-.27-.59-.59s.27-.59.59-.59h.71v-1.19c0-.34.27-.6.6-.6s.61.27.61.6v1.19h1.56c.32,0,.59.27.59.59s-.27.59-.59.59h-1.56v2.67c0,.5.38.9.9.9h.66c.32,0,.59.27.59.59s-.27.59-.59.59h-.67Z"/>
    <path class="cls-1" d="M36.55,203.21c-.41,0-.75-.32-.75-.74s.34-.74.75-.74.75.32.75.74-.34.74-.75.74ZM35.95,204.71c0-.34.27-.6.6-.6s.61.27.61.6v4.91c0,.34-.27.6-.61.6s-.6-.27-.6-.6v-4.91Z"/>
    <path class="cls-1" d="M41.13,210.13c-1.79,0-3.06-1.33-3.06-2.97s1.27-2.97,3.06-2.97h.71c1.13,0,1.88.8,1.88,1.78s-.75,1.78-1.88,1.78h-1.13c-.32,0-.59-.27-.59-.59s.27-.59.59-.59h1.13c.4,0,.67-.27.67-.59s-.27-.59-.67-.59h-.71c-1.08,0-1.85.81-1.85,1.78s.77,1.78,1.85,1.78h1.71c.32,0,.59.27.59.59s-.27.59-.59.59h-1.71Z"/>
    <path class="cls-1" d="M45.85,207.27v2.34c0,.34-.27.6-.6.6s-.61-.27-.61-.6v-7.28c0-.34.27-.6.61-.6s.6.27.6.6v4.72l2.77-2.77c.24-.24.61-.24.84,0,.22.24.22.6,0,.84l-2.04,2.04,2.04,2.04c.24.24.22.6,0,.84-.24.24-.61.24-.84,0l-2.77-2.77Z"/>
    <path class="cls-1" d="M51.97,210.13c-1.09,0-1.84-.83-1.84-1.84s.75-1.84,1.84-1.84h1.13c.32,0,.59.27.59.59s-.27.59-.59.59h-1.13c-.37,0-.63.31-.63.65s.26.65.63.65h2.17v-2.51c0-.59-.41-1.05-1.03-1.05h-1.9c-.32,0-.59-.27-.59-.59s.27-.59.59-.59h1.9c1.25,0,2.24,1,2.24,2.23v3.1c0,.34-.21.6-.6.6h-2.78Z"/>
    <path class="cls-1" d="M58.14,210.13c-1.09,0-1.84-.83-1.84-1.84s.75-1.84,1.84-1.84h1.13c.32,0,.59.27.59.59s-.27.59-.59.59h-1.13c-.37,0-.63.31-.63.65s.26.65.63.65h2.17v-2.51c0-.59-.41-1.05-1.03-1.05h-1.9c-.32,0-.59-.27-.59-.59s.27-.59.59-.59h1.9c1.25,0,2.24,1,2.24,2.23v3.1c0,.34-.21.6-.6.6h-2.78Z"/>
    <path class="cls-1" d="M67.28,206.51c0,.34-.27.6-.61.6s-.6-.27-.6-.59v-.08c0-.59-.44-1.06-1.06-1.06h-1.06v4.23c0,.34-.27.6-.61.6s-.6-.27-.6-.6v-4.82c0-.34.27-.6.6-.6h1.67c1.28,0,2.27,1.02,2.27,2.25v.07Z"/>
    <path class="cls-1" d="M70.95,210.13c-1.15,0-2.09-.94-2.09-2.09v-2.65h-.71c-.32,0-.59-.27-.59-.59s.27-.59.59-.59h.71v-1.19c0-.34.27-.6.6-.6s.6.27.6.6v1.19h1.56c.32,0,.59.27.59.59s-.27.59-.59.59h-1.56v2.67c0,.5.38.9.9.9h.66c.32,0,.59.27.59.59s-.27.59-.59.59h-.67Z"/>
    <path class="cls-1" d="M78.28,210.13c-1.79,0-3.06-1.33-3.06-2.97s1.27-2.97,3.06-2.97h1.38v-1.86c0-.34.27-.6.6-.6s.6.27.6.6v7.19c0,.34-.27.6-.6.6h-1.98ZM79.66,205.38h-1.38c-1.08,0-1.85.81-1.85,1.78s.77,1.78,1.85,1.78h1.38v-3.56Z"/>
    <path class="cls-1" d="M82.69,203.21c-.41,0-.75-.32-.75-.74s.34-.74.75-.74.75.32.75.74-.34.74-.75.74ZM82.09,204.71c0-.34.27-.6.61-.6s.6.27.6.6v4.91c0,.34-.27.6-.6.6s-.61-.27-.61-.6v-4.91Z"/>
    <path class="cls-1" d="M87.27,210.13c-1.79,0-3.06-1.33-3.06-2.97s1.26-2.97,3.06-2.97h.71c1.13,0,1.88.8,1.88,1.78s-.75,1.78-1.88,1.78h-1.13c-.32,0-.59-.27-.59-.59s.27-.59.59-.59h1.13c.4,0,.67-.27.67-.59s-.27-.59-.67-.59h-.71c-1.08,0-1.85.81-1.85,1.78s.77,1.78,1.85,1.78h1.71c.32,0,.59.27.59.59s-.27.59-.59.59h-1.71Z"/>
    <path class="cls-1" d="M96.15,210.13c-1.15,0-2.1-.94-2.1-2.09v-2.65h-.7c-.32,0-.59-.27-.59-.59s.27-.59.59-.59h.7v-1.19c0-.34.27-.6.61-.6s.61.27.61.6v1.19h1.56c.32,0,.59.27.59.59s-.27.59-.59.59h-1.56v2.67c0,.5.38.9.9.9h.66c.32,0,.59.27.59.59s-.27.59-.59.59h-.67Z"/>
    <path class="cls-1" d="M100.84,210.13c-1.79,0-3.06-1.33-3.06-2.97s1.27-2.97,3.06-2.97h.71c1.13,0,1.88.8,1.88,1.78s-.75,1.78-1.88,1.78h-1.13c-.32,0-.59-.27-.59-.59s.27-.59.59-.59h1.13c.4,0,.67-.27.67-.59s-.27-.59-.67-.59h-.71c-1.07,0-1.85.81-1.85,1.78s.77,1.78,1.85,1.78h1.71c.32,0,.59.27.59.59s-.27.59-.59.59h-1.71Z"/>
    <path class="cls-1" d="M105.57,212.5c-.32,0-.59-.27-.59-.59s.27-.59.59-.59h2.13c.5,0,.91-.4.91-.91v-.28h-1.38c-1.79,0-3.06-1.33-3.06-2.97s1.27-2.97,3.06-2.97h1.98c.34,0,.61.27.61.6v5.61c0,1.15-.94,2.09-2.1,2.09h-2.15ZM108.61,205.38h-1.38c-1.07,0-1.85.81-1.85,1.78s.77,1.78,1.85,1.78h1.38v-3.56Z"/>
    <path class="cls-1" d="M113.8,210.13c-1.79,0-3.06-1.33-3.06-2.97s1.27-2.97,3.06-2.97h.7c1.13,0,1.88.8,1.88,1.78s-.75,1.78-1.88,1.78h-1.13c-.32,0-.59-.27-.59-.59s.27-.59.59-.59h1.13c.4,0,.67-.27.67-.59s-.27-.59-.67-.59h-.7c-1.08,0-1.85.81-1.85,1.78s.77,1.78,1.85,1.78h1.71c.32,0,.59.27.59.59s-.27.59-.59.59h-1.71Z"/>
    <path class="cls-1" d="M121.21,206.55c0-.64-.53-1.16-1.16-1.16h-1.52v4.23c0,.34-.27.6-.61.6s-.61-.27-.61-.6v-4.82c0-.34.27-.6.61-.6h2.13c1.31,0,2.37,1.06,2.37,2.37v3.05c0,.34-.27.6-.6.6s-.61-.27-.61-.6v-3.07Z"/>
    <path class="cls-1" d="M20.14,228.38c-.32,0-.59-.27-.59-.59s.27-.59.59-.59h.24c1.01,0,1.39-.53,1.39-1.52v-5.09c0-.34.27-.6.61-.6s.6.27.6.6v5.07c0,1.67-.85,2.72-2.59,2.72h-.25ZM22.36,219.08c-.41,0-.75-.32-.75-.74s.34-.74.75-.74.75.32.75.74-.34.74-.75.74Z"/>
    <path class="cls-1" d="M27.04,226.15c-1.85,0-3.15-1.39-3.15-3.11s1.3-3.11,3.15-3.11,3.15,1.39,3.15,3.11-1.31,3.11-3.15,3.11ZM27.04,221.1c-1.12,0-1.94.87-1.94,1.94s.82,1.94,1.94,1.94,1.94-.87,1.94-1.94-.82-1.94-1.94-1.94Z"/>
    <path class="cls-1" d="M35.03,220.58c0-.34.27-.6.6-.6s.61.27.61.6v3c0,1.41-1.15,2.57-2.57,2.57s-2.57-1.15-2.57-2.57v-3c0-.34.27-.6.61-.6s.6.27.6.6v3.04c0,.74.62,1.36,1.36,1.36s1.36-.62,1.36-1.36v-3.04Z"/>
    <path class="cls-1" d="M41.02,228.38c-.32,0-.59-.27-.59-.59s.27-.59.59-.59h2.13c.5,0,.91-.4.91-.91v-.28h-1.38c-1.79,0-3.06-1.33-3.06-2.97s1.27-2.97,3.06-2.97h1.98c.34,0,.61.27.61.6v5.61c0,1.15-.94,2.09-2.09,2.09h-2.15ZM44.06,221.26h-1.38c-1.07,0-1.85.81-1.85,1.78s.77,1.78,1.85,1.78h1.38v-3.56Z"/>
    <path class="cls-1" d="M49.25,226.01c-1.79,0-3.06-1.33-3.06-2.97s1.27-2.97,3.06-2.97h.71c1.13,0,1.88.8,1.88,1.78s-.75,1.78-1.88,1.78h-1.13c-.32,0-.59-.27-.59-.59s.27-.59.59-.59h1.13c.4,0,.67-.27.67-.59s-.27-.59-.67-.59h-.71c-1.08,0-1.85.81-1.85,1.78s.77,1.78,1.85,1.78h1.71c.32,0,.59.27.59.59s-.27.59-.59.59h-1.71Z"/>
    <path class="cls-1" d="M57.31,222.39c0,.34-.27.6-.61.6s-.6-.27-.6-.59v-.08c0-.59-.44-1.06-1.06-1.06h-1.06v4.23c0,.34-.27.6-.61.6s-.6-.27-.6-.6v-4.82c0-.34.27-.6.6-.6h1.67c1.28,0,2.27,1.02,2.27,2.25v.07Z"/>
    <path class="cls-1" d="M58.85,219.08c-.41,0-.75-.32-.75-.74s.34-.74.75-.74.75.32.75.74-.34.74-.75.74ZM58.25,220.58c0-.34.27-.6.61-.6s.6.27.6.6v4.91c0,.34-.27.6-.6.6s-.61-.27-.61-.6v-4.91Z"/>
    <path class="cls-1" d="M63.44,226.01c-1.79,0-3.06-1.33-3.06-2.97s1.26-2.97,3.06-2.97h1.23c.32,0,.59.27.59.59s-.27.59-.59.59h-1.23c-1.08,0-1.85.81-1.85,1.78s.77,1.78,1.85,1.78h1.23c.32,0,.59.27.59.59s-.27.59-.59.59h-1.23Z"/>
    <path class="cls-1" d="M70.06,222.42c0-.64-.53-1.16-1.16-1.16h-1.52v4.23c0,.34-.27.6-.61.6s-.6-.27-.6-.6v-7.28c0-.34.27-.6.6-.6s.61.27.61.6v1.86h1.52c1.31,0,2.37,1.06,2.37,2.37v3.05c0,.34-.27.6-.61.6s-.6-.27-.6-.6v-3.07Z"/>
    <path class="cls-1" d="M75.05,226.01c-1.15,0-2.09-.94-2.09-2.09v-2.65h-.71c-.32,0-.59-.27-.59-.59s.27-.59.59-.59h.71v-1.19c0-.34.27-.6.6-.6s.61.27.61.6v1.19h1.56c.32,0,.59.27.59.59s-.27.59-.59.59h-1.56v2.67c0,.5.38.9.9.9h.66c.32,0,.59.27.59.59s-.27.59-.59.59h-.67Z"/>
    <path class="cls-1" d="M86.46,220.58c0-.34.27-.6.6-.6s.6.27.6.6v3.29c0,1.25-1.02,2.27-2.27,2.27-.71,0-1.34-.33-1.76-.83-.41.5-1.05.83-1.76.83-1.25,0-2.27-1.02-2.27-2.27v-3.29c0-.34.27-.6.61-.6s.6.27.6.6v3.32c0,.6.5,1.11,1.11,1.11s1.11-.5,1.11-1.11v-3.32c0-.34.27-.6.61-.6s.6.27.6.6v3.32c0,.6.5,1.11,1.11,1.11s1.11-.5,1.11-1.11v-3.32Z"/>
    <path class="cls-1" d="M90.34,226.01c-1.09,0-1.84-.83-1.84-1.84s.75-1.84,1.84-1.84h1.13c.32,0,.59.27.59.59s-.27.59-.59.59h-1.13c-.37,0-.63.31-.63.65s.26.65.63.65h2.17v-2.51c0-.59-.41-1.05-1.03-1.05h-1.9c-.32,0-.59-.27-.59-.59s.27-.59.59-.59h1.9c1.25,0,2.24,1,2.24,2.23v3.1c0,.34-.21.6-.61.6h-2.78Z"/>
    <path class="cls-1" d="M95.41,226.01c-.32,0-.59-.27-.59-.59s.27-.59.59-.59h2.51c.4,0,.67-.27.67-.59s-.27-.59-.67-.59h-1.39c-1.13,0-1.88-.8-1.88-1.78s.75-1.78,1.88-1.78h2.51c.32,0,.59.27.59.59s-.27.59-.59.59h-2.51c-.4,0-.67.27-.67.59s.27.59.67.59h1.39c1.13,0,1.88.8,1.88,1.78s-.75,1.78-1.88,1.78h-2.51Z"/>
  </g>
  <g>
    <path class="cls-4" d="M45.78,104c0-10.26,2.53-19.94,7-28.43,7.8,3.61,16.48,5.63,25.65,5.63,11.5,0,22.27-3.18,31.46-8.71,5.55,9.2,8.74,19.99,8.74,31.52,0,24.98-14.97,46.45-36.42,55.95-21.45-9.5-36.42-30.97-36.42-55.95Z"/>
    <g>
      <path class="cls-2" d="M99.43,122.89c0,3.41-1.39,6.51-3.64,8.75-2.25,2.25-5.35,3.64-8.75,3.64h-9.62c-6.62,0-12.07-5.25-12.38-11.8,0-.2-.01-.4-.01-.6v-9.04c0-2.27,1.74-4.2,4-4.34.93-.05,1.81.2,2.53.66v-11.5c0-2.24,1.7-4.16,3.93-4.32.93-.07,1.69.16,2.42.6.32-2.03,2.2-3.58,4.32-3.58,1.17,0,2.23.48,3.01,1.25.64.64,1.06,1.39,1.19,2.33.67-.44,1.49-.62,2.34-.62,1.17,0,2.23.48,3.01,1.25.7.7,1.11,1.53,1.19,2.57.64-.38,1.43-.49,2.22-.49,1.17,0,2.23.48,3.01,1.25s1.25,1.84,1.25,3.01v18.13"/>
      <line class="cls-2" x1="77.9" y1="111.6" x2="77.9" y2="94.95"/>
      <line class="cls-2" x1="86.41" y1="111.6" x2="86.41" y2="94.95"/>
      <line class="cls-2" x1="92.95" y1="111.6" x2="92.95" y2="98.16"/>
      <line class="cls-2" x1="99.43" y1="119.81" x2="99.43" y2="122.89"/>
      <line class="cls-2" x1="71.55" y1="120.36" x2="71.55" y2="110.19"/>
    </g>
  </g>
</svg>