<?xml version="1.0" encoding="UTF-8"?>
<svg id="Laag_1" data-name="Laag 1" xmlns="http://www.w3.org/2000/svg" viewBox="0 0 164.41 249.45">
  <defs>
    <style>
      .cls-1 {
        stroke: #fff;
        stroke-miterlimit: 10;
        stroke-width: .44px;
      }

      .cls-1, .cls-2 {
        fill: #fff;
      }

      .cls-3 {
        fill: #8082b8;
      }

      .cls-3, .cls-4, .cls-5, .cls-6, .cls-7, .cls-2, .cls-8 {
        stroke-width: 0px;
      }

      .cls-4 {
        fill: #2f2f2f;
      }

      .cls-5 {
        fill: #1d1d1b;
      }

      .cls-6 {
        fill: #de2b65;
      }

      .cls-7 {
        fill: #8abb2a;
      }

      .cls-8 {
        fill: #eb7c19;
      }
    </style>
  </defs>
  <rect class="cls-4" x="0" y="0" width="164.41" height="249.45"/>
  <g>
    <path class="cls-6" d="M141.74,206.68c-4.35,0-7.89-3.7-7.89-8.26s3.54-8.25,7.89-8.25,7.89,3.7,7.89,8.25-3.54,8.26-7.89,8.26Z"/>
    <path class="cls-5" d="M141.74,191.17c3.8,0,6.89,3.25,6.89,7.26s-3.09,7.26-6.89,7.26-6.89-3.25-6.89-7.26,3.09-7.26,6.89-7.26M141.74,189.17c-4.91,0-8.89,4.14-8.89,9.26s3.98,9.26,8.89,9.26,8.89-4.14,8.89-9.26-3.98-9.26-8.89-9.26h0Z"/>
  </g>
  <g>
    <ellipse class="cls-7" cx="141.74" cy="226.17" rx="7.89" ry="8.26"/>
    <path class="cls-5" d="M141.74,218.92c3.8,0,6.89,3.25,6.89,7.26s-3.09,7.26-6.89,7.26-6.89-3.25-6.89-7.26,3.09-7.26,6.89-7.26M141.74,216.92c-4.91,0-8.89,4.14-8.89,9.26s3.98,9.26,8.89,9.26,8.89-4.14,8.89-9.26-3.98-9.26-8.89-9.26h0Z"/>
  </g>
  <g>
    <g>
      <path class="cls-3" d="M54.88,149.01c-3.37,0-6.51-1.8-8.18-4.7l-18.04-31.24c-1.25-2.17-1.58-4.7-.93-7.14.65-2.44,2.21-4.47,4.37-5.72l14.18-8.19c1.42-.82,3.04-1.25,4.68-1.25,3.37,0,6.51,1.8,8.18,4.7l18.04,31.24c1.25,2.17,1.58,4.7.93,7.14-.65,2.44-2.21,4.47-4.37,5.72l-14.18,8.19c-1.42.82-3.04,1.25-4.68,1.25Z"/>
      <path class="cls-5" d="M50.96,92.21h0c2.86,0,5.52,1.53,6.94,3.98l18.04,31.24c1.06,1.83,1.34,3.98.78,6.05-.55,2.07-1.87,3.79-3.7,4.85l-14.18,8.19c-1.2.69-2.57,1.06-3.96,1.06-2.86,0-5.52-1.52-6.94-3.98l-18.04-31.24c-1.06-1.83-1.34-3.98-.78-6.05.55-2.07,1.87-3.79,3.7-4.85l14.18-8.19c1.2-.69,2.57-1.06,3.96-1.06M50.96,89.34c-1.84,0-3.7.47-5.39,1.45l-14.18,8.19c-5.17,2.98-6.96,9.65-3.97,14.82l18.04,31.24c2,3.47,5.67,5.42,9.43,5.42,1.84,0,3.7-.47,5.39-1.45l14.18-8.19c5.17-2.98,6.96-9.65,3.97-14.82l-18.04-31.24c-2-3.47-5.67-5.42-9.43-5.42h0Z"/>
    </g>
    <g>
      <path class="cls-6" d="M68.65,139.7c-4.26,0-8.01-2.87-9.11-6.98l-9.34-34.84c-1.34-5.01,1.64-10.19,6.66-11.53l15.82-4.24c.79-.21,1.61-.32,2.42-.32,4.26,0,8.01,2.87,9.11,6.98l9.34,34.84c1.34,5.01-1.64,10.19-6.66,11.53l-15.82,4.24c-.79.21-1.61.32-2.42.32Z"/>
      <path class="cls-5" d="M75.1,83.23c3.61,0,6.79,2.43,7.72,5.91l9.34,34.84c1.14,4.25-1.39,8.63-5.64,9.77l-15.82,4.24c-.67.18-1.36.27-2.05.27-3.61,0-6.79-2.43-7.72-5.91l-9.34-34.84c-1.14-4.25,1.39-8.63,5.64-9.77l15.82-4.24c.67-.18,1.36-.27,2.05-.27M75.09,80.36c-.92,0-1.86.12-2.79.37l-15.82,4.24c-5.76,1.54-9.22,7.52-7.67,13.29l9.34,34.84c1.29,4.83,5.71,8.04,10.5,8.04.92,0,1.86-.12,2.79-.37l15.82-4.24c5.76-1.54,9.22-7.52,7.67-13.29l-9.34-34.84c-1.29-4.83-5.71-8.04-10.5-8.04h0Z"/>
    </g>
    <g>
      <path class="cls-8" d="M94.04,139.7c-.81,0-1.63-.11-2.42-.32l-15.82-4.24c-5.01-1.34-8-6.52-6.66-11.53l9.34-34.84c1.1-4.11,4.85-6.98,9.11-6.98.81,0,1.63.11,2.42.32l15.82,4.24c5.01,1.34,8,6.52,6.66,11.53l-9.34,34.84c-1.1,4.11-4.85,6.98-9.11,6.98Z"/>
      <path class="cls-5" d="M87.6,83.23h0c.69,0,1.38.09,2.05.27l15.82,4.24c2.05.55,3.76,1.87,4.83,3.72,1.07,1.85,1.36,4,.81,6.05l-9.34,34.84c-.93,3.48-4.11,5.91-7.72,5.91-.69,0-1.38-.09-2.05-.27l-15.82-4.24c-2.05-.55-3.76-1.87-4.83-3.72s-1.36-4-.81-6.05l9.34-34.84c.93-3.48,4.11-5.91,7.72-5.91M87.6,80.36c-4.79,0-9.2,3.21-10.5,8.04l-9.34,34.84c-1.54,5.76,1.91,11.74,7.67,13.29l15.82,4.24c.93.25,1.87.37,2.79.37,4.79,0,9.2-3.21,10.5-8.04l9.34-34.84c1.54-5.76-1.91-11.74-7.67-13.29l-15.82-4.24c-.93-.25-1.87-.37-2.79-.37h0Z"/>
    </g>
    <g>
      <path class="cls-7" d="M109.56,150.1c-1.64,0-3.26-.43-4.68-1.25l-14.18-8.19c-4.5-2.6-6.04-8.36-3.45-12.86l18.04-31.24c1.67-2.9,4.81-4.7,8.18-4.7,1.64,0,3.26.43,4.67,1.25l14.18,8.19c2.17,1.25,3.72,3.28,4.37,5.72.65,2.44.32,4.97-.93,7.14l-18.04,31.24c-1.67,2.9-4.81,4.7-8.18,4.7Z"/>
      <path class="cls-5" d="M113.47,93.3h0c1.39,0,2.76.37,3.96,1.06l14.18,8.19c1.83,1.06,3.15,2.78,3.7,4.85.55,2.07.27,4.21-.78,6.05l-18.04,31.24c-1.42,2.45-4.08,3.98-6.94,3.98-1.39,0-2.76-.37-3.96-1.06l-14.18-8.19c-1.83-1.06-3.15-2.78-3.7-4.85-.55-2.07-.27-4.21.78-6.05l18.04-31.24c1.42-2.45,4.08-3.98,6.94-3.98M113.47,90.43c-3.76,0-7.42,1.95-9.43,5.42l-18.04,31.24c-2.98,5.17-1.2,11.84,3.97,14.82l14.18,8.19c1.7.98,3.56,1.45,5.39,1.45,3.76,0,7.42-1.95,9.43-5.42l18.04-31.24c2.98-5.17,1.2-11.84-3.97-14.82l-14.18-8.19c-1.7-.98-3.56-1.45-5.39-1.45h0Z"/>
    </g>
  </g>
  <g>
    <path class="cls-2" d="M63.2,39.39c.02.73-.13,1.39-.44,1.98s-.72,1.08-1.25,1.5-1.12.73-1.79.95c-.67.22-1.33.32-2,.3-1.22-.02-2.28-.24-3.2-.67s-1.68-1.02-2.3-1.75c-.62-.73-1.08-1.6-1.4-2.6s-.48-2.09-.5-3.27c-.02-1.22.15-2.37.5-3.45s.84-2.05,1.47-2.89c.63-.84,1.39-1.52,2.26-2.03.88-.51,1.84-.79,2.89-.86.62-.03,1.22.03,1.81.17.59.15,1.12.4,1.58.76s.83.82,1.12,1.39.46,1.24.51,2.03c-.53-.52-1.07-.84-1.61-.98-.54-.13-1.12-.16-1.74-.08-.63.08-1.2.3-1.69.65-.49.35-.91.79-1.25,1.33-.34.53-.61,1.13-.79,1.79-.18.66-.28,1.34-.3,2.04-.03,1.4.21,2.51.72,3.32.52.82,1.33,1.37,2.45,1.65.4.1.83.15,1.29.15s.91-.05,1.35-.16.86-.27,1.26-.47c.4-.21.74-.47,1.03-.79Z"/>
    <path class="cls-2" d="M72.83,29.01c-.87.72-1.56,1.51-2.07,2.38-.52.87-.89,1.73-1.12,2.6-.23.87-.35,1.7-.34,2.51,0,.81.11,1.53.31,2.16.2.63.47,1.14.82,1.51.35.38.75.56,1.2.56.48,0,.89-.16,1.24-.48.34-.32.6-.73.79-1.25.18-.52.28-1.11.29-1.77,0-.67-.08-1.35-.25-2.06-.18-.71-.44-1.4-.8-2.09-.36-.68-.82-1.3-1.39-1.85,1.32.02,2.42.27,3.32.75s1.6,1.11,2.11,1.89c.51.77.83,1.65.96,2.61s.08,1.95-.15,2.95c-.15.68-.41,1.34-.78,1.96-.37.62-.81,1.17-1.34,1.65-.53.47-1.12.85-1.8,1.12-.67.27-1.4.41-2.16.41-.98,0-1.87-.17-2.65-.5-.78-.33-1.45-.8-2-1.41s-.98-1.33-1.29-2.17-.47-1.76-.49-2.76c-.03-1.07.12-2.08.45-3.05s.83-1.84,1.47-2.62c.65-.78,1.45-1.44,2.4-1.98.95-.53,2.03-.89,3.25-1.08Z"/>
    <path class="cls-2" d="M80.63,26.76c.97-.07,1.77.11,2.41.54.64.42,1.15,1.01,1.52,1.76s.62,1.63.75,2.64c.12,1.01.15,2.06.06,3.15s-.25,2.18-.51,3.26c-.26,1.08-.58,2.08-.97,2.99s-.84,1.69-1.34,2.35c-.5.66-1.03,1.1-1.6,1.34.05-.43.09-1.11.11-2.03.03-.92.04-1.96.05-3.12,0-1.17,0-2.4-.01-3.7-.02-1.3-.05-2.55-.09-3.74-.04-1.19-.1-2.27-.16-3.24-.07-.97-.14-1.7-.23-2.2Z"/>
    <path class="cls-2" d="M96.18,29.01c-.87.72-1.56,1.51-2.07,2.38-.52.87-.89,1.73-1.12,2.6-.23.87-.35,1.7-.34,2.51,0,.81.11,1.53.31,2.16.2.63.47,1.14.82,1.51.35.38.75.56,1.2.56.48,0,.89-.16,1.24-.48.34-.32.6-.73.79-1.25.18-.52.28-1.11.29-1.77,0-.67-.08-1.35-.25-2.06-.18-.71-.44-1.4-.8-2.09-.36-.68-.82-1.3-1.39-1.85,1.32.02,2.42.27,3.32.75s1.6,1.11,2.11,1.89c.51.77.83,1.65.96,2.61s.08,1.95-.15,2.95c-.15.68-.41,1.34-.78,1.96-.37.62-.81,1.17-1.34,1.65-.53.47-1.12.85-1.8,1.12-.67.27-1.4.41-2.16.41-.98,0-1.87-.17-2.65-.5-.78-.33-1.45-.8-2-1.41s-.98-1.33-1.29-2.17-.47-1.76-.49-2.76c-.03-1.07.12-2.08.45-3.05s.83-1.84,1.47-2.62c.65-.78,1.45-1.44,2.4-1.98.95-.53,2.03-.89,3.25-1.08Z"/>
    <path class="cls-2" d="M111.68,38.01c.03-1.85-.2-3.27-.7-4.25-.5-.98-1.23-1.46-2.2-1.42-.13,0-.25,0-.35.01-.1,0-.2.02-.3.04.23.67.37,1.41.4,2.23.03.82-.02,1.65-.15,2.5-.13.85-.33,1.69-.6,2.51-.27.82-.59,1.58-.98,2.27-.38.69-.81,1.29-1.27,1.8-.47.51-.96.87-1.48,1.09.05-.43.09-1.04.11-1.83.03-.78.04-1.66.05-2.62,0-.97,0-1.98-.01-3.04s-.05-2.08-.09-3.06c-.04-.98-.1-1.89-.16-2.73-.07-.83-.14-1.5-.22-2,.8-.07,1.49.02,2.07.26.58.24,1.07.59,1.45,1.04.72-.73,1.72-1.1,3.02-1.1.82,0,1.51.14,2.09.41.58.27,1.03.64,1.35,1.1.33.46.52.98.6,1.58.07.59.03,1.2-.14,1.81-.17.62-.46,1.22-.88,1.81-.42.59-.96,1.12-1.62,1.59Z"/>
  </g>
  <g>
    <path class="cls-1" d="M19.75,191.2c-.13-.29.02-.63.32-.76.28-.13.63.01.76.3l1.89,4.62,1.89-4.62c.13-.29.47-.43.76-.3.29.13.44.46.32.76l-2.43,5.75c-.09.22-.3.35-.52.35s-.43-.13-.52-.35l-2.43-5.75Z"/>
    <path class="cls-1" d="M28.52,197.16c-1.68,0-2.86-1.25-2.86-2.78s1.19-2.78,2.86-2.78h.66c1.06,0,1.76.74,1.76,1.67s-.7,1.67-1.76,1.67h-1.06c-.3,0-.56-.25-.56-.56s.25-.56.56-.56h1.06c.38,0,.63-.25.63-.56s-.25-.56-.63-.56h-.66c-1.01,0-1.73.76-1.73,1.67s.72,1.67,1.73,1.67h1.6c.3,0,.56.25.56.56s-.25.56-.56.56h-1.6Z"/>
    <path class="cls-1" d="M36.06,193.77c0,.32-.25.57-.57.57s-.57-.25-.57-.56v-.07c0-.56-.41-1-1-1h-1v3.96c0,.31-.25.57-.57.57s-.57-.25-.57-.57v-4.51c0-.31.25-.57.57-.57h1.56c1.2,0,2.13.95,2.13,2.11v.06Z"/>
    <path class="cls-1" d="M38.1,197.16c-1.02,0-1.72-.78-1.72-1.72s.7-1.72,1.72-1.72h1.06c.3,0,.56.25.56.56s-.25.56-.56.56h-1.06c-.35,0-.59.29-.59.61s.24.61.59.61h2.04v-2.35c0-.56-.39-.99-.96-.99h-1.78c-.3,0-.56-.25-.56-.56s.25-.56.56-.56h1.78c1.17,0,2.1.93,2.1,2.09v2.91c0,.31-.2.57-.57.57h-2.6Z"/>
    <path class="cls-1" d="M46.05,193.8c0-.6-.49-1.09-1.09-1.09h-1.43v3.96c0,.31-.25.57-.57.57s-.57-.25-.57-.57v-4.51c0-.31.25-.57.57-.57h1.99c1.23,0,2.22,1,2.22,2.22v2.85c0,.31-.25.57-.57.57s-.57-.25-.57-.57v-2.87Z"/>
    <path class="cls-1" d="M50.91,197.16c-1.68,0-2.86-1.25-2.86-2.78s1.18-2.78,2.86-2.78h1.29v-1.74c0-.31.25-.57.57-.57s.57.25.57.57v6.73c0,.31-.25.57-.57.57h-1.86ZM52.2,192.71h-1.29c-1.01,0-1.73.76-1.73,1.67s.72,1.67,1.73,1.67h1.29v-3.34Z"/>
    <path class="cls-1" d="M57.06,197.16c-1.68,0-2.86-1.25-2.86-2.78s1.18-2.78,2.86-2.78h.66c1.06,0,1.76.74,1.76,1.67s-.7,1.67-1.76,1.67h-1.06c-.3,0-.56-.25-.56-.56s.25-.56.56-.56h1.06c.38,0,.63-.25.63-.56s-.25-.56-.63-.56h-.66c-1.01,0-1.73.76-1.73,1.67s.72,1.67,1.73,1.67h1.6c.3,0,.56.25.56.56s-.25.56-.56.56h-1.6Z"/>
    <path class="cls-1" d="M64.61,193.77c0,.32-.25.57-.57.57s-.57-.25-.57-.56v-.07c0-.56-.41-1-1-1h-1v3.96c0,.31-.25.57-.57.57s-.57-.25-.57-.57v-4.51c0-.31.25-.57.57-.57h1.56c1.2,0,2.13.95,2.13,2.11v.06Z"/>
    <path class="cls-1" d="M70.39,197.16c-1.68,0-2.86-1.25-2.86-2.78s1.18-2.78,2.86-2.78h1.29v-1.74c0-.31.25-.57.57-.57s.57.25.57.57v6.73c0,.31-.25.57-.57.57h-1.86ZM71.68,192.71h-1.29c-1.01,0-1.73.76-1.73,1.67s.72,1.67,1.73,1.67h1.29v-3.34Z"/>
    <path class="cls-1" d="M76.54,197.16c-1.68,0-2.86-1.25-2.86-2.78s1.18-2.78,2.86-2.78h.66c1.06,0,1.76.74,1.76,1.67s-.7,1.67-1.76,1.67h-1.06c-.3,0-.56-.25-.56-.56s.25-.56.56-.56h1.06c.38,0,.63-.25.63-.56s-.25-.56-.63-.56h-.66c-1.01,0-1.73.76-1.73,1.67s.72,1.67,1.73,1.67h1.6c.3,0,.56.25.56.56s-.25.56-.56.56h-1.6Z"/>
    <path class="cls-1" d="M20.5,212.03c-.3,0-.56-.25-.56-.56s.25-.56.56-.56h2.35c.38,0,.63-.25.63-.56s-.25-.56-.63-.56h-1.3c-1.06,0-1.76-.74-1.76-1.67s.7-1.67,1.76-1.67h2.35c.3,0,.56.25.56.56s-.25.56-.56.56h-2.35c-.38,0-.63.25-.63.56s.25.56.63.56h1.3c1.06,0,1.76.74,1.76,1.67s-.7,1.67-1.76,1.67h-2.35Z"/>
    <path class="cls-1" d="M26.61,212.03v1.74c0,.31-.25.57-.57.57s-.57-.25-.57-.57v-6.73c0-.31.25-.57.57-.57h1.86c1.68,0,2.86,1.25,2.86,2.78s-1.19,2.78-2.86,2.78h-1.29ZM27.9,210.92c1.01,0,1.73-.76,1.73-1.67s-.72-1.67-1.73-1.67h-1.29v3.34h1.29Z"/>
    <path class="cls-1" d="M34.32,212.03c-1.68,0-2.86-1.25-2.86-2.78s1.18-2.78,2.86-2.78h.66c1.06,0,1.76.74,1.76,1.67s-.7,1.67-1.76,1.67h-1.06c-.3,0-.56-.25-.56-.56s.25-.56.56-.56h1.06c.38,0,.63-.25.63-.56s-.25-.56-.63-.56h-.66c-1.01,0-1.73.76-1.73,1.67s.72,1.67,1.73,1.67h1.6c.3,0,.56.25.56.56s-.25.56-.56.56h-1.6Z"/>
    <path class="cls-1" d="M40.3,212.03c-1.68,0-2.86-1.25-2.86-2.78s1.18-2.78,2.86-2.78h.66c1.06,0,1.76.74,1.76,1.67s-.7,1.67-1.76,1.67h-1.06c-.3,0-.56-.25-.56-.56s.25-.56.56-.56h1.06c.38,0,.63-.25.63-.56s-.25-.56-.63-.56h-.66c-1.01,0-1.73.76-1.73,1.67s.72,1.67,1.73,1.67h1.6c.3,0,.56.25.56.56s-.25.56-.56.56h-1.6Z"/>
    <path class="cls-1" d="M43.59,204.73c0-.31.25-.57.57-.57s.57.25.57.57v6.82c0,.31-.25.57-.57.57s-.57-.25-.57-.57v-6.82Z"/>
    <path class="cls-1" d="M46.99,209.35v2.19c0,.31-.25.57-.57.57s-.57-.25-.57-.57v-6.82c0-.31.25-.57.57-.57s.57.25.57.57v4.42l2.59-2.59c.22-.22.57-.22.79,0,.21.22.21.57,0,.79l-1.91,1.91,1.91,1.91c.22.22.21.57,0,.79-.22.22-.57.22-.79,0l-2.59-2.59Z"/>
    <path class="cls-1" d="M51.25,204.73c0-.31.25-.57.57-.57s.57.25.57.57v6.82c0,.31-.25.57-.57.57s-.57-.25-.57-.57v-6.82Z"/>
    <path class="cls-1" d="M56.11,212.03c-1.68,0-2.86-1.25-2.86-2.78s1.18-2.78,2.86-2.78h.66c1.06,0,1.76.74,1.76,1.67s-.7,1.67-1.76,1.67h-1.06c-.3,0-.56-.25-.56-.56s.25-.56.56-.56h1.06c.38,0,.63-.25.63-.56s-.25-.56-.63-.56h-.66c-1.01,0-1.73.76-1.73,1.67s.72,1.67,1.73,1.67h1.6c.3,0,.56.25.56.56s-.25.56-.56.56h-1.6Z"/>
    <path class="cls-1" d="M63.06,206.95c0-.32.25-.57.57-.57s.57.25.57.57v2.81c0,1.32-1.08,2.4-2.4,2.4s-2.4-1.08-2.4-2.4v-2.81c0-.32.25-.57.57-.57s.57.25.57.57v2.84c0,.69.58,1.27,1.27,1.27s1.27-.58,1.27-1.27v-2.84Z"/>
    <path class="cls-1" d="M69.59,208.64c0,.32-.25.57-.57.57s-.57-.25-.57-.56v-.07c0-.56-.41-1-1-1h-1v3.96c0,.31-.25.57-.57.57s-.57-.25-.57-.57v-4.51c0-.31.25-.57.57-.57h1.56c1.2,0,2.13.95,2.13,2.11v.06Z"/>
    <path class="cls-1" d="M76.43,208.67c0-.6-.49-1.09-1.09-1.09h-1.43v3.96c0,.31-.25.57-.57.57s-.57-.25-.57-.57v-4.51c0-.31.25-.57.57-.57h1.99c1.23,0,2.22,1,2.22,2.22v2.85c0,.31-.25.57-.57.57s-.57-.25-.57-.57v-2.87Z"/>
    <path class="cls-1" d="M80.17,212.03c-1.02,0-1.72-.78-1.72-1.72s.7-1.72,1.72-1.72h1.06c.3,0,.56.25.56.56s-.25.56-.56.56h-1.06c-.35,0-.59.29-.59.61s.24.61.59.61h2.03v-2.35c0-.56-.39-.99-.97-.99h-1.78c-.3,0-.56-.25-.56-.56s.25-.56.56-.56h1.78c1.18,0,2.1.93,2.1,2.09v2.91c0,.31-.2.57-.57.57h-2.6Z"/>
    <path class="cls-1" d="M85.94,212.03c-1.02,0-1.72-.78-1.72-1.72s.7-1.72,1.72-1.72h1.06c.31,0,.56.25.56.56s-.25.56-.56.56h-1.06c-.35,0-.59.29-.59.61s.24.61.59.61h2.04v-2.35c0-.56-.39-.99-.97-.99h-1.78c-.3,0-.56-.25-.56-.56s.25-.56.56-.56h1.78c1.17,0,2.1.93,2.1,2.09v2.91c0,.31-.2.57-.57.57h-2.6Z"/>
    <path class="cls-1" d="M94.51,208.64c0,.32-.25.57-.57.57s-.57-.25-.57-.56v-.07c0-.56-.41-1-1-1h-1v3.96c0,.31-.25.57-.57.57s-.57-.25-.57-.57v-4.51c0-.31.25-.57.57-.57h1.56c1.2,0,2.13.95,2.13,2.11v.06Z"/>
    <path class="cls-1" d="M100.29,212.03c-1.68,0-2.86-1.25-2.86-2.78s1.19-2.78,2.86-2.78h.66c1.06,0,1.76.74,1.76,1.67s-.7,1.67-1.76,1.67h-1.06c-.3,0-.56-.25-.56-.56s.25-.56.56-.56h1.06c.38,0,.63-.25.63-.56s-.25-.56-.63-.56h-.66c-1.01,0-1.73.76-1.73,1.67s.72,1.67,1.73,1.67h1.6c.3,0,.56.25.56.56s-.25.56-.56.56h-1.6Z"/>
    <path class="cls-1" d="M106.27,212.03c-1.68,0-2.86-1.25-2.86-2.78s1.19-2.78,2.86-2.78h.66c1.06,0,1.76.74,1.76,1.67s-.7,1.67-1.76,1.67h-1.06c-.3,0-.56-.25-.56-.56s.25-.56.56-.56h1.06c.38,0,.63-.25.63-.56s-.25-.56-.63-.56h-.66c-1.01,0-1.73.76-1.73,1.67s.72,1.67,1.73,1.67h1.6c.3,0,.56.25.56.56s-.25.56-.56.56h-1.6Z"/>
    <path class="cls-1" d="M113.21,208.67c0-.6-.49-1.09-1.09-1.09h-1.43v3.96c0,.31-.25.57-.57.57s-.57-.25-.57-.57v-4.51c0-.31.25-.57.57-.57h1.99c1.23,0,2.22,1,2.22,2.22v2.85c0,.31-.25.57-.57.57s-.57-.25-.57-.57v-2.87Z"/>
    <path class="cls-1" d="M21.19,224.22v2.19c0,.31-.25.57-.57.57s-.57-.25-.57-.57v-6.82c0-.31.25-.57.57-.57s.57.25.57.57v4.42l2.59-2.59c.22-.22.57-.22.79,0,.21.22.21.57,0,.79l-1.91,1.91,1.91,1.91c.22.22.21.57,0,.79-.22.22-.57.22-.79,0l-2.59-2.59Z"/>
    <path class="cls-1" d="M25.45,219.59c0-.31.25-.57.57-.57s.57.25.57.57v6.82c0,.31-.25.57-.57.57s-.57-.25-.57-.57v-6.82Z"/>
    <path class="cls-1" d="M30.31,226.9c-1.68,0-2.86-1.25-2.86-2.78s1.18-2.78,2.86-2.78h.66c1.06,0,1.76.74,1.76,1.67s-.7,1.67-1.76,1.67h-1.06c-.3,0-.56-.25-.56-.56s.25-.56.56-.56h1.06c.38,0,.63-.25.63-.56s-.25-.56-.63-.56h-.66c-1.01,0-1.73.76-1.73,1.67s.72,1.67,1.73,1.67h1.6c.3,0,.56.25.56.56s-.25.56-.56.56h-1.6Z"/>
    <path class="cls-1" d="M37.27,221.82c0-.32.25-.57.57-.57s.57.25.57.57v2.81c0,1.32-1.08,2.4-2.4,2.4s-2.4-1.08-2.4-2.4v-2.81c0-.32.25-.57.57-.57s.57.25.57.57v2.84c0,.69.58,1.27,1.27,1.27s1.27-.58,1.27-1.27v-2.84Z"/>
    <path class="cls-1" d="M43.79,223.51c0,.32-.25.57-.57.57s-.57-.25-.57-.56v-.07c0-.56-.41-1-1-1h-1v3.96c0,.31-.25.57-.57.57s-.57-.25-.57-.57v-4.51c0-.31.25-.57.57-.57h1.56c1.2,0,2.13.95,2.13,2.11v.06Z"/>
    <path class="cls-1" d="M50.64,223.54c0-.6-.49-1.09-1.09-1.09h-1.43v3.96c0,.31-.25.57-.57.57s-.57-.25-.57-.57v-4.51c0-.31.25-.57.57-.57h1.99c1.23,0,2.22,1,2.22,2.22v2.85c0,.31-.25.57-.57.57s-.57-.25-.57-.57v-2.87Z"/>
    <path class="cls-1" d="M54.38,226.9c-1.02,0-1.72-.78-1.72-1.72s.7-1.72,1.72-1.72h1.06c.3,0,.56.25.56.56s-.25.56-.56.56h-1.06c-.35,0-.59.29-.59.61s.24.61.59.61h2.04v-2.35c0-.56-.39-.99-.97-.99h-1.78c-.3,0-.56-.25-.56-.56s.25-.56.56-.56h1.78c1.18,0,2.1.93,2.1,2.09v2.91c0,.31-.2.57-.57.57h-2.6Z"/>
    <path class="cls-1" d="M60.15,226.9c-1.02,0-1.72-.78-1.72-1.72s.7-1.72,1.72-1.72h1.06c.3,0,.56.25.56.56s-.25.56-.56.56h-1.06c-.35,0-.59.29-.59.61s.24.61.59.61h2.04v-2.35c0-.56-.39-.99-.97-.99h-1.78c-.3,0-.56-.25-.56-.56s.25-.56.56-.56h1.78c1.18,0,2.1.93,2.1,2.09v2.91c0,.31-.2.57-.57.57h-2.6Z"/>
    <path class="cls-1" d="M68.71,223.51c0,.32-.25.57-.57.57s-.57-.25-.57-.56v-.07c0-.56-.41-1-1-1h-1v3.96c0,.31-.25.57-.57.57s-.57-.25-.57-.57v-4.51c0-.31.25-.57.57-.57h1.56c1.2,0,2.13.95,2.13,2.11v.06Z"/>
    <path class="cls-1" d="M73.03,224.22v2.19c0,.31-.25.57-.57.57s-.57-.25-.57-.57v-6.82c0-.31.25-.57.57-.57s.57.25.57.57v4.42l2.59-2.59c.22-.22.57-.22.79,0,.21.22.21.57,0,.79l-1.91,1.91,1.91,1.91c.22.22.21.57,0,.79-.22.22-.57.22-.79,0l-2.59-2.59Z"/>
    <path class="cls-1" d="M79.57,226.9c-1.68,0-2.86-1.25-2.86-2.78s1.19-2.78,2.86-2.78h.66c1.06,0,1.76.74,1.76,1.67s-.7,1.67-1.76,1.67h-1.06c-.3,0-.56-.25-.56-.56s.25-.56.56-.56h1.06c.38,0,.63-.25.63-.56s-.25-.56-.63-.56h-.66c-1.01,0-1.73.76-1.73,1.67s.72,1.67,1.73,1.67h1.6c.3,0,.56.25.56.56s-.25.56-.56.56h-1.6Z"/>
    <path class="cls-1" d="M86.53,221.82c0-.32.25-.57.57-.57s.57.25.57.57v2.81c0,1.32-1.08,2.4-2.4,2.4s-2.4-1.08-2.4-2.4v-2.81c0-.32.25-.57.57-.57s.57.25.57.57v2.84c0,.69.58,1.27,1.27,1.27s1.27-.58,1.27-1.27v-2.84Z"/>
    <path class="cls-1" d="M89.16,226.9c-.3,0-.56-.24-.56-.55,0-.13.05-.28.17-.42l2.86-3.48h-2.38c-.3,0-.56-.25-.56-.56s.25-.56.56-.56h3.52c.3,0,.54.24.54.55,0,.14-.05.28-.17.42l-2.86,3.48h2.37c.3,0,.56.25.56.56s-.25.56-.56.56h-3.5Z"/>
    <path class="cls-1" d="M96.43,226.9c-1.68,0-2.86-1.25-2.86-2.78s1.19-2.78,2.86-2.78h.66c1.06,0,1.76.74,1.76,1.67s-.7,1.67-1.76,1.67h-1.06c-.3,0-.56-.25-.56-.56s.25-.56.56-.56h1.06c.38,0,.63-.25.63-.56s-.25-.56-.63-.56h-.66c-1.01,0-1.73.76-1.73,1.67s.72,1.67,1.73,1.67h1.6c.3,0,.56.25.56.56s-.25.56-.56.56h-1.6Z"/>
  </g>
</svg>