<?xml version="1.0" encoding="UTF-8"?>
<svg id="Laag_1" data-name="Laag 1" xmlns="http://www.w3.org/2000/svg" viewBox="0 0 164.41 249.45">
  <defs>
    <style>
      .cls-1, .cls-2 {
        stroke: #1d1d1b;
      }

      .cls-1, .cls-2, .cls-3, .cls-4 {
        stroke-miterlimit: 10;
      }

      .cls-1, .cls-2, .cls-4 {
        stroke-width: 5.17px;
      }

      .cls-1, .cls-5 {
        fill: #eb7c19;
      }

      .cls-2, .cls-6 {
        fill: #8082b8;
      }

      .cls-3 {
        stroke: #fff;
        stroke-width: .51px;
      }

      .cls-3, .cls-7 {
        fill: #fff;
      }

      .cls-4 {
        fill: none;
        stroke: #000;
      }

      .cls-6, .cls-8, .cls-9, .cls-7, .cls-5 {
        stroke-width: 0px;
      }

      .cls-8 {
        fill: #2f2f2f;
      }

      .cls-9 {
        fill: #1d1d1b;
      }
    </style>
  </defs>
  <rect class="cls-8" x="0" width="164.41" height="249.45"/>
  <g>
    <path class="cls-6" d="M141.73,206.68c-4.35,0-7.89-3.7-7.89-8.26s3.54-8.25,7.89-8.25,7.89,3.7,7.89,8.25-3.54,8.26-7.89,8.26Z"/>
    <path class="cls-9" d="M141.73,191.17c3.8,0,6.89,3.25,6.89,7.26s-3.09,7.26-6.89,7.26-6.89-3.25-6.89-7.26,3.09-7.26,6.89-7.26M141.73,189.17c-4.91,0-8.89,4.14-8.89,9.26s3.98,9.26,8.89,9.26,8.89-4.14,8.89-9.26-3.98-9.26-8.89-9.26h0Z"/>
  </g>
  <g>
    <ellipse class="cls-5" cx="141.73" cy="226.17" rx="7.89" ry="8.26"/>
    <path class="cls-9" d="M141.73,218.92c3.8,0,6.89,3.25,6.89,7.26s-3.09,7.26-6.89,7.26-6.89-3.25-6.89-7.26,3.09-7.26,6.89-7.26M141.73,216.92c-4.91,0-8.89,4.14-8.89,9.26s3.98,9.26,8.89,9.26,8.89-4.14,8.89-9.26-3.98-9.26-8.89-9.26h0Z"/>
  </g>
  <g>
    <path class="cls-7" d="M22.06,27.13c.43,0,.8.05,1.1.15.3.1.55.24.77.44.56-.21,1.19-.29,1.91-.25.95.06,1.81.3,2.59.71.78.41,1.46.97,2.03,1.67.57.7,1.01,1.51,1.33,2.44.31.93.47,1.94.47,3.04s-.14,2.09-.43,3.07c-.28.98-.72,1.85-1.29,2.61-.58.76-1.3,1.36-2.16,1.81-.86.45-1.87.67-3.03.65-.87-.01-1.57-.09-2.09-.21-.53-.13-.93-.34-1.23-.64s-.49-.7-.58-1.2c-.1-.5-.15-1.14-.15-1.9,0-1.58,0-2.93-.01-4.06,0-1.13-.04-2.08-.09-2.85-.05-.77-.13-1.38-.24-1.83s-.25-.8-.44-1.04c-.19-.23-.42-.38-.71-.44-.29-.06-.63-.08-1.04-.07.31-.47.63-.83.93-1.1.31-.27.6-.48.89-.63.28-.15.55-.25.8-.29.25-.05.47-.07.66-.07ZM24.67,32.33c-.01.17-.03.45-.03.87,0,.41-.02.89-.03,1.42-.01.53-.02,1.11-.02,1.73v1.82c0,.59,0,1.15.02,1.68.01.53.04.96.07,1.31.68-.05,1.24-.26,1.69-.65.45-.39.81-.87,1.09-1.45.28-.58.47-1.21.58-1.89s.16-1.33.15-1.95c-.01-.63-.1-1.25-.26-1.87-.16-.62-.38-1.17-.68-1.68-.29-.5-.65-.92-1.08-1.26-.43-.34-.91-.54-1.45-.62.03.38.04.78.02,1.2s-.04.87-.07,1.34Z"/>
    <path class="cls-7" d="M41.28,29.65c-.78.65-1.4,1.36-1.87,2.14-.47.78-.8,1.56-1.01,2.34-.21.78-.31,1.54-.3,2.26,0,.73.1,1.38.28,1.95.18.57.43,1.02.74,1.36.32.34.68.51,1.08.51.44,0,.81-.14,1.11-.43.31-.28.54-.66.71-1.13.16-.46.25-1,.26-1.6,0-.6-.07-1.22-.23-1.86-.16-.64-.4-1.26-.72-1.88-.32-.62-.74-1.17-1.25-1.67,1.19.02,2.18.24,2.99.68.81.44,1.44,1,1.9,1.7s.75,1.48.87,2.35c.12.87.07,1.76-.14,2.66-.13.62-.37,1.2-.7,1.77-.33.56-.73,1.06-1.2,1.49s-1.01.77-1.62,1.01-1.26.37-1.95.37c-.89,0-1.68-.15-2.39-.45-.71-.3-1.31-.72-1.8-1.27-.5-.55-.88-1.2-1.16-1.96-.28-.76-.42-1.59-.44-2.49-.03-.96.1-1.88.41-2.75.3-.87.74-1.66,1.33-2.36.59-.71,1.31-1.3,2.16-1.78.86-.48,1.83-.8,2.93-.97Z"/>
    <path class="cls-7" d="M46.87,31.81c.26-.38.51-.68.77-.9s.5-.4.73-.52c.23-.12.45-.2.65-.24.2-.04.39-.06.55-.06.58,0,1.06.11,1.43.32.37.21.65.5.86.88.2.38.34.83.41,1.35.07.53.11,1.1.12,1.71.01.38.01.95-.01,1.73-.02.78-.02,1.73.01,2.86.01.53.1.88.27,1.06.16.18.52.27,1.06.27.33,0,.64-.01.93-.03.29-.02.6-.06.93-.1.01-.87.01-1.8,0-2.78-.01-.98-.04-1.93-.07-2.84-.03-.91-.08-1.75-.14-2.52s-.13-1.39-.23-1.86c1.05,0,1.88.3,2.48.89.6.59,1.02,1.34,1.25,2.25.23.91.31,1.91.23,3.02-.08,1.1-.29,2.16-.62,3.17s-.76,1.92-1.28,2.72c-.53.8-1.11,1.36-1.76,1.68.01-.18.03-.39.04-.63.01-.24.03-.51.05-.81-.54.36-1.12.63-1.73.8s-1.24.26-1.87.26-1.14-.08-1.53-.24c-.39-.16-.69-.38-.91-.68-.22-.29-.36-.65-.44-1.08-.08-.43-.11-.91-.11-1.45,0-1.29,0-2.39-.01-3.31,0-.92-.03-1.68-.08-2.3-.04-.62-.11-1.1-.19-1.46-.08-.36-.2-.63-.35-.8-.15-.17-.35-.28-.59-.33s-.53-.06-.85-.04Z"/>
    <path class="cls-7" d="M61.55,27.4c.55-.04,1.05.01,1.5.17.44.16.83.39,1.15.7s.6.68.82,1.11.41.92.54,1.46c.24-.06.48-.1.73-.11.25-.01.5-.01.75,0,.83.04,1.59.25,2.29.62.7.37,1.3.85,1.81,1.45.51.6.9,1.29,1.18,2.06.28.77.41,1.59.39,2.47-.02.84-.15,1.62-.39,2.33-.25.71-.61,1.33-1.07,1.86-.47.53-1.04.94-1.71,1.25-.68.31-1.45.47-2.32.48-.69.03-1.34-.06-1.96-.27s-1.13-.54-1.53-.99c-.58.95-1.22,1.57-1.89,1.87.04-.39.08-1.01.1-1.85.02-.84.04-1.79.04-2.86,0-1.07,0-2.19-.01-3.38-.01-1.19-.04-2.32-.08-3.41-.04-1.09-.09-2.07-.15-2.96-.06-.89-.13-1.55-.2-2ZM65.85,33.14c.01.63,0,1.28-.06,1.96-.05.68-.15,1.34-.28,1.99-.14.65-.3,1.29-.5,1.93-.2.63-.41,1.22-.65,1.76.63.18,1.3.18,2,0,1.59-.39,2.36-1.57,2.32-3.53-.01-.48-.09-.95-.23-1.42-.13-.46-.33-.88-.57-1.25-.25-.37-.54-.68-.89-.93-.35-.26-.73-.42-1.15-.5Z"/>
    <path class="cls-7" d="M74.87,27.62c.87-.06,1.6.1,2.17.48.58.38,1.04.91,1.37,1.59s.56,1.47.68,2.37c.11.91.13,1.85.06,2.84-.07.98-.23,1.96-.46,2.94-.23.98-.53,1.87-.88,2.69s-.75,1.52-1.2,2.12c-.45.59-.93.99-1.44,1.2.04-.39.08-1,.1-1.82.02-.82.04-1.76.05-2.81,0-1.05,0-2.16-.01-3.33-.01-1.17-.04-2.29-.08-3.37-.04-1.07-.09-2.04-.15-2.92-.06-.87-.13-1.53-.2-1.98Z"/>
    <path class="cls-7" d="M93.38,38.52c-.62.09-1.17.17-1.68.24-.5.07-1.02.12-1.54.16-.53.04-1.1.06-1.73.08-.63.02-1.37.02-2.23.02.1.96.63,1.67,1.56,2.14.94.47,2.38.6,4.33.4-.26.35-.58.64-.99.89-.41.25-.84.45-1.31.6-.47.15-.94.26-1.43.32-.49.06-.95.08-1.39.05-.72-.05-1.41-.22-2.07-.52-.66-.3-1.24-.73-1.73-1.29s-.89-1.26-1.18-2.08c-.29-.83-.43-1.78-.42-2.86.01-1.11.2-2.09.54-2.93.34-.84.79-1.54,1.34-2.09.55-.55,1.16-.97,1.82-1.25.67-.28,1.33-.42,1.99-.42.98,0,1.86.14,2.65.43.79.29,1.45.76,1.99,1.43.54.67.94,1.55,1.2,2.65.26,1.1.35,2.45.26,4.05ZM87.66,32.28c-.31,0-.59.08-.82.23-.23.15-.42.4-.57.75-.15.35-.26.82-.33,1.41s-.09,1.31-.08,2.18c.24.02.68.02,1.31.01.63,0,1.45-.03,2.45-.06.05-.75.02-1.41-.08-1.98-.1-.57-.24-1.04-.42-1.42s-.4-.66-.65-.84c-.26-.19-.53-.28-.81-.28Z"/>
    <path class="cls-7" d="M104.46,31.16c-.1.63-.3,1.17-.57,1.63-.28.46-.6.83-.96,1.13-.36.29-.75.51-1.17.65s-.83.21-1.24.21h-.43c.03.87.08,1.69.15,2.45.07.77.17,1.44.3,2.01.14.58.31,1.04.52,1.38.21.35.47.54.79.59.15.03.32.04.51.03.19,0,.39-.06.62-.17.23-.1.47-.28.73-.52.26-.24.55-.59.87-1.04.05.59.01,1.13-.09,1.63-.11.5-.3.94-.59,1.32-.28.38-.67.67-1.15.88-.48.21-1.07.32-1.76.32-.9,0-1.7-.22-2.4-.65-.7-.43-1.19-1.04-1.47-1.8-.15-.4-.27-.88-.36-1.42-.09-.54-.16-1.13-.2-1.76s-.06-1.29-.03-1.98c.02-.69.07-1.38.15-2.07-.65-.36-1.12-.8-1.42-1.32-.3-.52-.51-1.04-.63-1.56.44.06.86.11,1.28.15.42.04.83.07,1.22.1.13-.59.3-1.14.51-1.67.2-.53.43-.99.68-1.4.25-.4.53-.74.84-1.01.31-.27.65-.45,1.01-.54-.01.71-.03,1.44-.06,2.22-.02.77-.04,1.6-.06,2.49.72-.01,1.43-.05,2.14-.1.71-.05,1.46-.12,2.27-.19Z"/>
    <path class="cls-7" d="M114.16,41.96c-.63.63-1.29,1.04-1.98,1.23-.69.19-1.34.27-1.94.24-.59-.03-1.13-.18-1.64-.45-.51-.27-.95-.63-1.32-1.07s-.65-.96-.84-1.54c-.2-.59-.28-1.21-.25-1.87.03-.59.14-1.16.34-1.72.19-.56.49-1.07.88-1.51s.89-.8,1.5-1.06c.61-.26,1.34-.39,2.2-.39.48,0,.93.06,1.36.17.43.11.84.31,1.23.6-.04-.63-.32-1.11-.82-1.43s-1.1-.54-1.8-.66-1.42-.15-2.17-.1c-.75.05-1.39.15-1.91.28.3-.5.66-.93,1.07-1.31.41-.38.85-.69,1.33-.93s.96-.43,1.45-.55c.5-.12.98-.16,1.46-.13.86.05,1.58.26,2.18.64.6.38,1.09.88,1.47,1.49.38.61.66,1.31.84,2.09s.27,1.62.27,2.49c0,.72-.05,1.45-.15,2.18-.1.74-.25,1.44-.45,2.1-.2.67-.45,1.29-.74,1.86-.29.57-.63,1.06-1,1.46-.08-.28-.16-.62-.25-1-.09-.38-.2-.75-.31-1.09ZM109.54,38.18c.01.23.06.45.12.66s.17.42.3.6c.14.18.31.33.53.46.22.13.49.22.82.28.39.08.74.06,1.04-.03.3-.1.55-.24.75-.44.2-.19.36-.42.46-.69.11-.26.16-.53.16-.8,0-.36-.05-.69-.14-1-.09-.31-.23-.58-.41-.81-.18-.23-.41-.42-.7-.55-.29-.14-.62-.2-1.01-.18-.69.03-1.2.27-1.54.73-.34.46-.47,1.05-.39,1.77Z"/>
    <path class="cls-7" d="M119.49,27.4c.82-.06,1.52.09,2.09.44.57.35,1.02.85,1.36,1.49.34.64.57,1.38.71,2.24.14.86.18,1.76.14,2.7.58-.33,1.14-.66,1.65-.98.52-.32,1.02-.67,1.52-1.04.5-.37.99-.77,1.49-1.2s1.01-.94,1.55-1.51c.65,1.47.69,2.81.14,4.03-.56,1.22-1.79,2.35-3.71,3.4.57,1.08,1.28,2.2,2.14,3.34.86,1.15,1.85,2.22,2.99,3.21-.69-.02-1.42-.14-2.17-.37s-1.51-.57-2.25-1c-.74-.43-1.46-.97-2.14-1.6-.68-.63-1.29-1.37-1.83-2.21-.18.68-.39,1.31-.63,1.91s-.51,1.14-.8,1.63-.6.9-.92,1.24c-.32.34-.66.58-1.02.73.04-.39.08-1.01.1-1.85.02-.84.04-1.79.04-2.86,0-1.07,0-2.19-.01-3.38-.01-1.19-.04-2.32-.08-3.41-.04-1.09-.09-2.07-.15-2.96-.06-.89-.13-1.55-.2-2Z"/>
    <path class="cls-7" d="M144.39,38.52c-.62.09-1.17.17-1.68.24-.5.07-1.02.12-1.54.16-.53.04-1.1.06-1.73.08-.63.02-1.37.02-2.23.02.1.96.63,1.67,1.56,2.14.94.47,2.38.6,4.33.4-.26.35-.58.64-.99.89-.41.25-.84.45-1.31.6-.47.15-.94.26-1.43.32-.49.06-.95.08-1.39.05-.72-.05-1.41-.22-2.07-.52-.66-.3-1.24-.73-1.73-1.29s-.89-1.26-1.18-2.08c-.29-.83-.43-1.78-.42-2.86.01-1.11.2-2.09.54-2.93.34-.84.79-1.54,1.34-2.09.55-.55,1.16-.97,1.82-1.25.67-.28,1.33-.42,1.99-.42.98,0,1.86.14,2.65.43.79.29,1.45.76,1.99,1.43.54.67.94,1.55,1.2,2.65.26,1.1.35,2.45.26,4.05ZM138.68,32.28c-.31,0-.59.08-.82.23-.23.15-.42.4-.57.75-.15.35-.26.82-.33,1.41s-.09,1.31-.08,2.18c.24.02.68.02,1.31.01.63,0,1.45-.03,2.45-.06.05-.75.02-1.41-.08-1.98-.1-.57-.24-1.04-.42-1.42s-.4-.66-.65-.84c-.26-.19-.53-.28-.81-.28Z"/>
  </g>
  <g>
    <path class="cls-6" d="M32.24,131.15c4.08,3.07,8.16,6.14,12.23,9.21,3.37,2.54,6.72,5.44,10.76,6.85,4.35,1.52,8.63.88,13.12.66s8.35.25,12.52-1.56c3.72-1.62,7.61-2.48,11.35-4.14,4.26-1.89,8.73-1.45,13.07-2.92,1.98-.67,3.53-1.88,5.36-2.84,2.3-1.2,4.78-1.33,7.3-1.82,4.77-.93,9.26-2.6,13.67-4.62,2.1-.97,3.09-4.5,1.67-6.37-1.76-2.31-3.27-2.95-5.75-4.26s-4.3-3.78-6.65-5.45c-4.91-3.49-10.38-6.84-16.21-8.54s-11.2-.94-16.89.47c-2.91.72-5.67,1.68-8.34,3.05s-5.03,3.37-8.21,3.29c.41,3.05.83,6.1,1.24,9.15,3.54-.78,6.23-2.29,9.03-4.54,3.54-2.84-.29-9.51-4.53-7.78-3.85,1.57-7.43,1.19-11.12,3.51s-7.22,2.63-11.62,3.21c-7.31.96-14.84,1.72-20.16,7.4-3.41,3.64.1,8.44,4.53,7.78,7.06-1.05,14.11-2.09,21.17-3.14l-3.59-8.51c-3.02,1.63-6.03,3.25-9.05,4.88-4.09,2.2-2.2,8.74,2.35,8.68,4.14-.06,8.29-.11,12.43-.17-.78-2.89-1.57-5.78-2.35-8.68-1.88,1.26-3.73,2.29-5.87,3.06-4.65,1.67-4.34,9.43,1.24,9.15l8.97-.46c-.78-2.89-1.57-5.78-2.35-8.68-2.38,1.36-4.76,2.72-7.15,4.08-4.55,2.6-1.52,10,3.59,8.51,2.36-.68,4.48-.95,6.93-.89-1.1-2.65-2.19-5.3-3.29-7.95-1.06.87-2.12,1.73-3.17,2.6-3.87,3.17.4,8.67,4.53,7.78,2.49-.54,4.9-.8,7.44-.86-1.1-2.65-2.19-5.3-3.29-7.95-.54.54-1.08,1.09-1.61,1.63-3.53,3.57.18,8.45,4.53,7.78,1.99-.31,3.9-.42,5.9-.47-.78-2.89-1.57-5.78-2.35-8.68-.58.54-1.24.95-1.98,1.24-4.67,2.34-1.42,10.24,3.59,8.51.83-.29,1.67-.58,2.5-.86,4.93-1.7,4.14-8.92-1.24-9.15-6.06-.26-13.27.47-19.15-1.01l2.78,2.14c-2.46-3.27-4.96-4.6-9.06-4.73.78,2.89,1.57,5.78,2.35,8.68,8.87-4.74,18.48-7.49,28.12-10.19,5.33-1.49,3.79-8.64-1.24-9.15s-10.01-.2-14.9,1.28c-5.83,1.76-3.35,9.99,2.48,8.98,7.12-1.24,14.19-2.73,21.2-4.48-1.75-2.28-3.51-4.56-5.26-6.84-2.69,4.64-9.11,6.67-13.19,9.99-4.22,3.43,1.17,9.77,5.64,7.31,2.54-1.4,5.1-2.64,7.81-3.68-1.51-2.59-3.02-5.19-4.53-7.78-1.88,1.73-3.39,3.63-4.72,5.81-1.93,3.17,1.38,8.48,5.26,6.84,2.94-1.24,5.89-2.18,9.07-2.54l-2.35-8.68c-3.19,1.67-6.43,3.11-9.81,4.34.83,2.99,1.65,5.99,2.48,8.98,3.91-1.62,7.8-3.26,12.07-3.54-1.1-2.65-2.19-5.3-3.29-7.95-1.42,1.39-2.84,2.77-4.26,4.16-3.16,3.08.05,9.47,4.53,7.78,3.16-1.19,6.14-2.57,9.03-4.33,3.99-2.43,2.26-8.54-2.35-8.68-8.79-.26-17.58-.22-26.37.12-6.12.24-5.84,8.64,0,9.31,6.41.74,12.81-.34,18.6-3.21,2.79-1.38,5.08-3.53,7.83-4.93,2.47-1.26,4.66-1.7,6.72-3.73,2.53-2.5,1.28-6.81-2.05-7.78-2.82-.83-5.58-1.23-8.52-1.29,1.34,2.34,2.68,4.67,4.02,7.01l.63-.87-2.78,2.14c6.54-2.64,11.58,2.72,16.27,6.33,2.6,2,5.92-.31,6.84-2.78l.58-1.56c-1.91,1.08-3.82,2.17-5.73,3.25l-.19-.24c1.91-1.91,3.82-3.82,5.73-5.73-7.8-1.36-14.77.49-20.86,5.54,2.65,1.1,5.3,2.19,7.95,3.29l-.55.84c4.31-2.2,2.02-8.52-2.35-8.68-1.75-.06-3.49-.12-5.24-.18-5.99-.21-5.99,9.1,0,9.31,1.75.06,3.49.12,5.24.18-.78-2.89-1.57-5.78-2.35-8.68-2.75,1.4-4.34,4.09-4.06,7.2.38,4.17,4.74,5.95,7.95,3.29s7.56-3.89,11.8-3.15c3.23.56,6.97-2.06,5.73-5.73-1.11-3.26-3.03-5.21-6.32-6.26-2.55-.82-4.88.97-5.73,3.25l-.58,1.56,6.84-2.78c-4.36-3.36-8.13-7.26-13.81-7.81-4.96-.48-9.89-.81-13.05,3.55-2.17,2.99.78,6.94,4.02,7.01,2.14.05,3.98.35,6.04.96-.68-2.59-1.37-5.19-2.05-7.78-1.35,1.34-3.82,1.71-5.47,2.65-1.98,1.14-3.72,2.65-5.72,3.77-4.77,2.68-10,3.33-15.38,2.71v9.31c8.79-.34,17.58-.38,26.37-.12-.78-2.89-1.57-5.78-2.35-8.68-2.2,1.34-4.39,2.48-6.81,3.39,1.51,2.59,3.02,5.19,4.53,7.78,1.42-1.39,2.84-2.77,4.26-4.16,2.76-2.69.8-8.22-3.29-7.95-5.17.34-9.79,1.9-14.55,3.87-5.38,2.24-3.27,11.06,2.48,8.98,4.13-1.5,8.14-3.24,12.04-5.28,3.9-2.04,2.31-9.21-2.35-8.68-4.07.47-7.76,1.28-11.55,2.88l5.26,6.84c.94-1.55,1.93-2.7,3.26-3.92,3.28-3.02-.13-9.48-4.53-7.78-3.46,1.33-6.79,2.83-10.03,4.62,1.88,2.44,3.76,4.87,5.64,7.31,5.1-4.15,11.16-5.88,14.64-11.88,2.07-3.57-1.35-7.81-5.26-6.84-7.02,1.75-14.08,3.24-21.2,4.48.83,2.99,1.65,5.99,2.48,8.98,4.18-1.26,8.1-1.38,12.42-.95l-1.24-9.15c-10.42,2.91-20.76,6-30.34,11.13-4.23,2.26-2.08,8.53,2.35,8.68,1.53.05,1.32.93,2.69,1.79,1.86,1.17,4.6,1.04,6.66,1.13,5.36.23,10.72.46,16.08.69-.41-3.05-.83-6.1-1.24-9.15-.83.29-1.67.58-2.5.86,1.2,2.84,2.39,5.67,3.59,8.51.74-.29,1.4-.7,1.98-1.24,3.37-2.58,2.73-8.8-2.35-8.68-2.83.07-5.58.37-8.38.8,1.51,2.59,3.02,5.19,4.53,7.78l1.61-1.63c2.78-2.81.8-8.05-3.29-7.95-3.36.08-6.63.49-9.91,1.2l4.53,7.78c1.06-.87,2.12-1.73,3.17-2.6,3.3-2.7.42-7.85-3.29-7.95-3.23-.09-6.3.32-9.41,1.22l3.59,8.51c2.38-1.36,4.76-2.72,7.15-4.08,3.9-2.22,2.33-8.91-2.35-8.68-2.99.15-5.98.3-8.97.46.41,3.05.83,6.1,1.24,9.15,2.88-1.04,5.54-2.29,8.09-4,3.68-2.47,2.5-8.74-2.35-8.68-4.14.06-8.29.11-12.43.17l2.35,8.68c3.02-1.63,6.03-3.25,9.05-4.88,5.01-2.7,1.27-9.23-3.59-8.51-7.06,1.05-14.11,2.09-21.17,3.14l4.53,7.78c4.76-5.08,13.97-4.66,20.37-5.57,3.07-.44,5.65-1.05,8.3-2.68,1.58-.97,2.61-1.96,4.47-2.34,1.98-.4,3.73-.35,5.65-1.13l-4.53-7.78c-1.52,1.22-3.06,1.73-4.92,2.14-5.25,1.16-3.89,9.02,1.24,9.15s8.58-2.42,12.91-4.56,10.74-3.95,15.74-3.16,9.93,3.97,14.26,6.82c2.28,1.5,3.89,3.38,5.94,5.08,1.01.84,4.55,1.85,5.16,2.65.56-2.12,1.11-4.25,1.67-6.37-3.94,1.81-8.05,3.07-12.31,3.85s-6.97,1.88-10.72,3.91c-3.52,1.9-7.61,1.23-11.37,2.32-3.97,1.15-7.79,2.93-11.76,4.16-3.64,1.13-5.88,2.35-9.86,2.34s-8.65,1.27-12.6-.12c-3.65-1.29-6.83-4.35-9.88-6.65-3.82-2.88-7.65-5.76-11.47-8.64-4.79-3.61-9.43,4.48-4.7,8.04h0Z"/>
    <path class="cls-5" d="M26.73,137.74c1.35,1.75,2.96,3.14,4.99,4.03,1.83.8,3.21-1.5,1.57-2.68-1.79-1.29-3.42-2.85-4.77-4.6l-2.12,2.12c11.52,6.3,23.03,12.61,34.55,18.91l.37-2.84c-2.48.47-5.09.19-7.39-.87-2.48-1.15-4.7-2.86-6.95-4.39-4.67-3.16-9.34-6.32-14.01-9.48-.52.89-1.04,1.79-1.57,2.68,2.11,1.43,4.22,2.85,6.33,4.28l1.2-2.84c-1.46-.55-2.92-1.1-4.37-1.65-1.78-.67-2.49,1.88-1.2,2.84,6.35,4.73,14.12,6.96,21.54,9.39,3.92,1.29,7.97,2.61,12.15,2.18s8.66-1.89,12.89-2.95c4.99-1.25,9.98-2.5,14.97-3.75,1.67-.42,1.36-3.16-.41-3.05-.97.06-1.93.12-2.9.18l.41,3.05c7.9-1.51,15.7-3.54,23.33-6.07l-1.2-2.84c-5.89,3.09-12.25,5.09-18.84,5.99l1.51,2.59c2.64-2.19,6.48-2.2,9.69-2.82,3.84-.74,6.99-2.81,10.51-4.38,6.81-3.04,14.77-1.92,21.28-5.87,1.49-.91.53-3.3-1.2-2.84-2.52.68-4.92,1.7-7.16,3.03-1.06.63-1,2.61.37,2.84,2.68.44,5.19.12,7.66-1,1.6-.72.47-3.38-1.2-2.84-4.67,1.53-9.37,2.95-14.11,4.24-2.33.63-4.67,1.23-7.02,1.8-1.17.29-2.35.56-3.53.83-.63.14-1.26.29-1.89.42-.15.03-1.7.31-1.32.48l.71.93-.03-.2-.4,1.51.12-.16-1.51.4.16.03c1.95.35,2.79-2.65.83-2.99l-.16-.03c-.5-.09-1.16-.05-1.51.4-.73.94-.82,2.22.36,2.86s2.64-.02,3.8-.28c2.99-.66,5.96-1.38,8.93-2.14,5.85-1.51,11.64-3.21,17.38-5.1l-1.2-2.84c-1.65.74-3.49.98-5.27.69l.37,2.84c2.02-1.2,4.15-2.1,6.42-2.72-.4-.95-.8-1.89-1.2-2.84-3.27,1.99-7.06,2.61-10.78,3.19s-7.42,1.24-10.89,2.86c-1.74.81-3.39,1.79-5.14,2.58s-3.53,1.2-5.39,1.51c-3.56.59-7.04,1.04-9.91,3.42-1.35,1.12.18,2.77,1.51,2.59,6.85-.93,13.46-3.08,19.58-6.3,1.54-.81.48-3.39-1.2-2.84-7.64,2.53-15.43,4.56-23.33,6.07-1.71.33-1.33,3.15.41,3.05.97-.06,1.93-.12,2.9-.18-.14-1.02-.28-2.03-.41-3.05-8.33,2.09-16.65,4.46-25.06,6.25-4.09.87-7.85.03-11.75-1.23-3.7-1.19-7.41-2.37-11.05-3.72-4-1.48-7.86-3.31-11.29-5.86l-1.2,2.84c1.46.55,2.92,1.1,4.37,1.65,1.73.65,2.57-1.91,1.2-2.84-2.11-1.43-4.22-2.85-6.33-4.28-1.66-1.12-3.21,1.57-1.57,2.68,5.07,3.43,10.15,6.87,15.22,10.3,2.34,1.59,4.66,3.28,7.35,4.23s5.44,1.03,8.16.51c1.32-.25,1.49-2.22.37-2.84-11.52-6.3-23.03-12.61-34.55-18.91-1.24-.68-3.14.81-2.12,2.12,1.7,2.2,3.63,4.09,5.89,5.72.52-.89,1.04-1.79,1.57-2.68-1.51-.66-2.87-1.59-3.88-2.92-.51-.67-1.33-1.01-2.12-.56-.66.37-1.07,1.46-.56,2.12h0Z"/>
    <path class="cls-1" d="M26.99,140.67c8.75,5.47,17.49,10.93,26.24,16.4"/>
    <path class="cls-1" d="M51.82,156.19h0s8.22,4.53,15.49,2.78c23.66-5.68,46.57-14.2,70.38-19.33"/>
    <path class="cls-2" d="M52.86,146.88c5.19,2.68,10.36,3.71,16.57,2.68,22.76-5.17,42.42-12.42,64.55-18.16"/>
    <path class="cls-2" d="M132.54,119.9c-7.52-4.7-15.05-9.41-22.57-14.11"/>
    <path class="cls-4" d="M111.37,106.67h0s-8.22-4.53-15.49-2.78"/>
    <path class="cls-2" d="M132.54,131.77s17.37-3.83-.88-12.42"/>
    <path class="cls-1" d="M27.23,130.35c-1.91.62-4.97,1.72-5.62,3.88-1.19,3.95,5.66,6.87,8.2,8.07"/>
    <path class="cls-2" d="M111.61,106.6c-5.19-2.68-10.36-3.71-16.57-2.68-22.76,5.17-42.42,12.42-64.55,18.16"/>
    <path class="cls-2" d="M31.93,133.58c7.52,4.7,15.05,9.41,22.57,14.11"/>
    <path class="cls-2" d="M32.82,134.13c-18.26-8.59-.88-12.42-.88-12.42"/>
    <path class="cls-1" d="M135.6,140.09c2.01-.48,4.35-1.18,5.93-2.57,3.59-3.15-.48-6.36-3.43-8.08"/>
    <g>
      <path class="cls-7" d="M31.42,85.39c.92-.02,1.73.1,2.44.38.7.27,1.31.66,1.81,1.15.5.49.91,1.08,1.2,1.76.3.68.5,1.4.61,2.17.88-.07,1.72-.15,2.54-.26.81-.11,1.65-.22,2.5-.33-.15.51-.4.99-.74,1.47-.34.47-.75.92-1.22,1.33-.47.42-1,.79-1.58,1.12-.58.33-1.19.62-1.83.86-.35,1.27-.94,2.45-1.76,3.54s-1.87,1.92-3.15,2.49c.04-.77.07-1.61.08-2.52.01-.91,0-1.86-.05-2.85-1.34-.13-2.54-.58-3.61-1.35-1.06-.77-1.82-1.95-2.25-3.56,1.08.11,2.07.18,3,.21.92.03,1.8.06,2.63.08-.09-1.23-.19-2.34-.3-3.34-.11-1-.22-1.78-.33-2.35Z"/>
      <path class="cls-7" d="M53.12,81.47c.94.04,1.82.19,2.63.44.81.25,1.53.63,2.14,1.14.61.51,1.11,1.15,1.48,1.93.37.78.59,1.72.66,2.82.09,1.58-.1,3.06-.56,4.43s-1.07,2.62-1.83,3.75c-.76,1.13-1.58,2.14-2.45,3.01-.88.88-1.68,1.61-2.4,2.21,1.78-.11,3.46-.31,5.04-.61s3.04-.66,4.38-1.1c-.2,1.05-.69,1.97-1.48,2.75-.79.78-1.73,1.42-2.82,1.93s-2.25.86-3.49,1.07c-1.24.21-2.41.25-3.51.13s-2.05-.41-2.85-.86c-.8-.45-1.3-1.08-1.5-1.89.86-.72,1.77-1.58,2.75-2.55.98-.98,1.87-2.06,2.68-3.24s1.49-2.46,2.03-3.84.81-2.83.81-4.36c0-.5-.11-1-.33-1.5s-.7-.84-1.45-1.04c-.42-.11-.92-.09-1.51.07-.59.15-1.17.49-1.73,1-.56.52-1.06,1.24-1.5,2.16s-.71,2.11-.82,3.56c-.64-1.05-1.09-2.03-1.35-2.91s-.37-1.72-.33-2.49c.04-1.03.31-1.93.81-2.7.49-.77,1.1-1.4,1.83-1.89s1.5-.86,2.34-1.09c.83-.23,1.61-.33,2.34-.31Z"/>
    </g>
  </g>
  <g>
    <path class="cls-3" d="M21.59,206.3v2c0,.36-.3.67-.67.67s-.67-.3-.67-.67v-6.49c0-.36.3-.67.67-.67h2.77c1.42,0,2.57,1.15,2.57,2.58s-1.15,2.57-2.57,2.57h-2.1ZM23.67,205.02c.74,0,1.26-.57,1.26-1.29s-.52-1.29-1.26-1.29h-2.08v2.58h2.08Z"/>
    <path class="cls-3" d="M28.49,208.88c-1.18,0-1.99-.9-1.99-1.99s.81-1.99,1.99-1.99h1.23c.35,0,.64.29.64.64s-.29.64-.64.64h-1.23c-.4,0-.68.34-.68.7s.28.7.68.7h2.36v-2.72c0-.64-.45-1.14-1.12-1.14h-2.06c-.35,0-.64-.29-.64-.64s.29-.64.64-.64h2.06c1.36,0,2.43,1.08,2.43,2.42v3.36c0,.36-.23.66-.66.66h-3.01Z"/>
    <path class="cls-3" d="M34.79,205.78v2.54c0,.36-.29.66-.66.66s-.66-.29-.66-.66v-7.9c0-.36.29-.66.66-.66s.66.29.66.66v5.11l3-3c.26-.26.66-.26.91,0,.24.26.24.66,0,.91l-2.21,2.21,2.21,2.21c.26.26.24.66,0,.91-.26.26-.66.26-.91,0l-3-3Z"/>
    <path class="cls-3" d="M45.55,208.88c-1.25,0-2.27-1.02-2.27-2.27v-2.88h-.77c-.35,0-.64-.29-.64-.64s.29-.64.64-.64h.77v-1.29c0-.36.29-.66.66-.66s.66.29.66.66v1.29h1.69c.35,0,.64.29.64.64s-.29.64-.64.64h-1.69v2.89c0,.55.41.97.97.97h.72c.35,0,.64.29.64.64s-.29.64-.64.64h-.73Z"/>
    <path class="cls-3" d="M55.25,203c0-.36.29-.66.66-.66s.66.29.66.66v3.57c0,1.36-1.1,2.47-2.47,2.47-.77,0-1.46-.35-1.91-.9-.45.55-1.14.9-1.91.9-1.36,0-2.47-1.11-2.47-2.47v-3.57c0-.36.29-.66.66-.66s.66.29.66.66v3.6c0,.66.55,1.2,1.2,1.2s1.2-.55,1.2-1.2v-3.6c0-.36.29-.66.66-.66s.66.29.66.66v3.6c0,.66.55,1.2,1.2,1.2s1.2-.55,1.2-1.2v-3.6Z"/>
    <path class="cls-3" d="M60.88,208.88c-1.94,0-3.32-1.45-3.32-3.22s1.37-3.22,3.32-3.22h.77c1.23,0,2.04.86,2.04,1.93s-.81,1.93-2.04,1.93h-1.23c-.35,0-.64-.29-.64-.64s.29-.64.64-.64h1.23c.44,0,.73-.29.73-.64s-.29-.64-.73-.64h-.77c-1.17,0-2,.87-2,1.93s.84,1.93,2,1.93h1.86c.35,0,.64.29.64.64s-.29.64-.64.64h-1.86Z"/>
    <path class="cls-3" d="M67.81,208.88c-1.94,0-3.32-1.45-3.32-3.22s1.37-3.22,3.32-3.22h.77c1.23,0,2.04.86,2.04,1.93s-.81,1.93-2.04,1.93h-1.23c-.35,0-.64-.29-.64-.64s.29-.64.64-.64h1.23c.44,0,.73-.29.73-.64s-.29-.64-.73-.64h-.77c-1.17,0-2,.87-2,1.93s.84,1.93,2,1.93h1.86c.35,0,.64.29.64.64s-.29.64-.64.64h-1.86Z"/>
    <path class="cls-3" d="M75.6,205.78v2.54c0,.36-.29.66-.66.66s-.66-.29-.66-.66v-7.9c0-.36.29-.66.66-.66s.66.29.66.66v5.11l3-3c.26-.26.65-.26.91,0,.24.26.24.66,0,.91l-2.21,2.21,2.21,2.21c.26.26.24.66,0,.91-.26.26-.65.26-.91,0l-3-3Z"/>
    <path class="cls-3" d="M82.24,208.88c-1.18,0-1.99-.9-1.99-1.99s.81-1.99,1.99-1.99h1.23c.35,0,.64.29.64.64s-.29.64-.64.64h-1.23c-.4,0-.68.34-.68.7s.28.7.68.7h2.36v-2.72c0-.64-.45-1.14-1.12-1.14h-2.07c-.35,0-.64-.29-.64-.64s.29-.64.64-.64h2.07c1.36,0,2.43,1.08,2.43,2.42v3.36c0,.36-.23.66-.66.66h-3.01Z"/>
    <path class="cls-3" d="M88.92,208.88c-1.18,0-1.99-.9-1.99-1.99s.81-1.99,1.99-1.99h1.23c.35,0,.64.29.64.64s-.29.64-.64.64h-1.23c-.4,0-.68.34-.68.7s.28.7.68.7h2.36v-2.72c0-.64-.45-1.14-1.12-1.14h-2.07c-.35,0-.64-.29-.64-.64s.29-.64.64-.64h2.07c1.36,0,2.43,1.08,2.43,2.42v3.36c0,.36-.23.66-.66.66h-3.01Z"/>
    <path class="cls-3" d="M98.84,204.95c0,.36-.29.66-.65.66s-.66-.29-.66-.64v-.09c0-.64-.47-1.15-1.15-1.15h-1.16v4.59c0,.36-.29.66-.65.66s-.66-.29-.66-.66v-5.22c0-.36.29-.66.66-.66h1.81c1.38,0,2.46,1.11,2.46,2.44v.07Z"/>
    <path class="cls-3" d="M102.83,208.88c-1.25,0-2.27-1.02-2.27-2.27v-2.88h-.76c-.35,0-.64-.29-.64-.64s.29-.64.64-.64h.76v-1.29c0-.36.29-.66.66-.66s.66.29.66.66v1.29h1.69c.35,0,.64.29.64.64s-.29.64-.64.64h-1.69v2.89c0,.55.41.97.97.97h.72c.35,0,.64.29.64.64s-.29.64-.64.64h-.73Z"/>
    <path class="cls-3" d="M107.92,208.88c-1.94,0-3.32-1.45-3.32-3.22s1.37-3.22,3.32-3.22h.77c1.23,0,2.04.86,2.04,1.93s-.82,1.93-2.04,1.93h-1.23c-.35,0-.64-.29-.64-.64s.29-.64.64-.64h1.23c.44,0,.73-.29.73-.64s-.29-.64-.73-.64h-.77c-1.17,0-2,.87-2,1.93s.84,1.93,2,1.93h1.86c.35,0,.64.29.64.64s-.29.64-.64.64h-1.86Z"/>
    <path class="cls-3" d="M115.95,204.99c0-.69-.57-1.26-1.26-1.26h-1.65v4.59c0,.36-.29.66-.66.66s-.65-.29-.65-.66v-5.22c0-.36.29-.66.65-.66h2.31c1.42,0,2.58,1.15,2.58,2.58v3.3c0,.36-.29.66-.66.66s-.65-.29-.65-.66v-3.33Z"/>
    <path class="cls-3" d="M19.83,220.48c-.15-.33,0-.72.33-.86.33-.16.72,0,.86.33l1.9,4.37,1.9-4.37c.15-.33.53-.49.86-.33.33.15.47.53.33.86l-2.36,5.25c-.12.28-.38.47-.73.47s-.61-.19-.73-.47l-2.36-5.25Z"/>
    <path class="cls-3" d="M28.6,226.1c-1.18,0-1.99-.9-1.99-1.99s.82-1.99,1.99-1.99h1.23c.35,0,.64.29.64.64s-.29.64-.64.64h-1.23c-.4,0-.68.34-.68.7s.28.7.68.7h2.36v-2.72c0-.64-.45-1.14-1.12-1.14h-2.07c-.35,0-.64-.29-.64-.64s.29-.64.64-.64h2.07c1.36,0,2.43,1.08,2.43,2.42v3.36c0,.36-.23.66-.66.66h-3.01Z"/>
    <path class="cls-3" d="M37.82,222.21c0-.69-.57-1.26-1.26-1.26h-1.65v4.59c0,.36-.29.66-.66.66s-.66-.29-.66-.66v-5.22c0-.36.29-.66.66-.66h2.31c1.42,0,2.58,1.15,2.58,2.58v3.3c0,.36-.29.66-.66.66s-.65-.29-.65-.66v-3.33Z"/>
    <path class="cls-3" d="M46.12,226.1c-1.94,0-3.32-1.45-3.32-3.22s1.37-3.22,3.32-3.22h1.5v-2.02c0-.36.29-.66.65-.66s.66.29.66.66v7.8c0,.36-.29.66-.66.66h-2.15ZM47.61,220.95h-1.5c-1.17,0-2,.87-2,1.93s.84,1.93,2,1.93h1.5v-3.86Z"/>
    <path class="cls-3" d="M53.24,226.1c-1.94,0-3.32-1.45-3.32-3.22s1.37-3.22,3.32-3.22h.77c1.23,0,2.04.86,2.04,1.93s-.81,1.93-2.04,1.93h-1.23c-.35,0-.64-.29-.64-.64s.29-.64.64-.64h1.23c.44,0,.73-.29.73-.64s-.29-.64-.73-.64h-.77c-1.17,0-2,.87-2,1.93s.84,1.93,2,1.93h1.86c.35,0,.64.29.64.64s-.29.64-.64.64h-1.86Z"/>
    <path class="cls-3" d="M61.03,223v2.54c0,.36-.29.66-.65.66s-.66-.29-.66-.66v-7.9c0-.36.29-.66.66-.66s.65.29.65.66v5.11l3-3c.26-.26.66-.26.91,0,.24.26.24.66,0,.91l-2.21,2.21,2.21,2.21c.26.26.24.66,0,.91-.26.26-.66.26-.91,0l-3-3Z"/>
    <path class="cls-3" d="M68.7,226.25c-2,0-3.41-1.51-3.41-3.38s1.41-3.38,3.41-3.38,3.41,1.51,3.41,3.38-1.42,3.38-3.41,3.38ZM68.7,220.78c-1.21,0-2.1.95-2.1,2.1s.89,2.1,2.1,2.1,2.1-.95,2.1-2.1-.89-2.1-2.1-2.1Z"/>
    <path class="cls-3" d="M76.33,226.25c-2,0-3.41-1.51-3.41-3.38s1.41-3.38,3.41-3.38,3.41,1.51,3.41,3.38-1.42,3.38-3.41,3.38ZM76.33,220.78c-1.21,0-2.1.95-2.1,2.1s.89,2.1,2.1,2.1,2.1-.95,2.1-2.1-.89-2.1-2.1-2.1Z"/>
    <path class="cls-3" d="M82.06,226.1v2.02c0,.36-.29.66-.65.66s-.66-.29-.66-.66v-7.8c0-.36.29-.66.66-.66h2.15c1.94,0,3.32,1.45,3.32,3.22s-1.37,3.22-3.32,3.22h-1.49ZM83.55,224.81c1.17,0,2-.87,2-1.93s-.84-1.93-2-1.93h-1.49v3.86h1.49Z"/>
    <path class="cls-3" d="M88.38,226.1c-.35,0-.64-.29-.64-.64s.29-.64.64-.64h2.72c.44,0,.73-.29.73-.64s-.29-.64-.73-.64h-1.51c-1.23,0-2.04-.86-2.04-1.93s.81-1.93,2.04-1.93h2.72c.35,0,.64.29.64.64s-.29.64-.64.64h-2.72c-.44,0-.73.29-.73.64s.29.64.73.64h1.51c1.23,0,2.04.86,2.04,1.93s-.82,1.93-2.04,1.93h-2.72Z"/>
    <path class="cls-3" d="M97.16,226.1c-1.25,0-2.27-1.02-2.27-2.27v-2.88h-.77c-.35,0-.64-.29-.64-.64s.29-.64.64-.64h.77v-1.29c0-.36.29-.66.66-.66s.66.29.66.66v1.29h1.69c.35,0,.64.29.64.64s-.29.64-.64.64h-1.69v2.89c0,.55.41.97.97.97h.72c.35,0,.64.29.64.64s-.29.64-.64.64h-.73Z"/>
    <path class="cls-3" d="M101.14,226.1c-1.18,0-1.99-.9-1.99-1.99s.82-1.99,1.99-1.99h1.23c.35,0,.64.29.64.64s-.29.64-.64.64h-1.23c-.4,0-.68.34-.68.7s.28.7.68.7h2.36v-2.72c0-.64-.45-1.14-1.12-1.14h-2.07c-.35,0-.64-.29-.64-.64s.29-.64.64-.64h2.07c1.36,0,2.43,1.08,2.43,2.42v3.36c0,.36-.23.66-.66.66h-3.01Z"/>
    <path class="cls-3" d="M107.43,226.1v2.02c0,.36-.29.66-.66.66s-.65-.29-.65-.66v-7.8c0-.36.29-.66.65-.66h2.15c1.94,0,3.32,1.45,3.32,3.22s-1.37,3.22-3.32,3.22h-1.49ZM108.93,224.81c1.17,0,2.01-.87,2.01-1.93s-.84-1.93-2.01-1.93h-1.49v3.86h1.49Z"/>
    <path class="cls-3" d="M116.37,226.1c-1.94,0-3.32-1.45-3.32-3.22s1.37-3.22,3.32-3.22h.77c1.23,0,2.04.86,2.04,1.93s-.82,1.93-2.04,1.93h-1.23c-.35,0-.64-.29-.64-.64s.29-.64.64-.64h1.23c.44,0,.73-.29.73-.64s-.29-.64-.73-.64h-.77c-1.17,0-2,.87-2,1.93s.84,1.93,2,1.93h1.86c.35,0,.64.29.64.64s-.29.64-.64.64h-1.86Z"/>
    <path class="cls-3" d="M120.17,217.64c0-.36.29-.66.66-.66s.66.29.66.66v7.9c0,.36-.29.66-.66.66s-.66-.29-.66-.66v-7.9Z"/>
  </g>
</svg>