<?xml version="1.0" encoding="UTF-8"?>
<svg id="Laag_1" data-name="Laag 1" xmlns="http://www.w3.org/2000/svg" viewBox="0 0 164.41 249.45">
  <defs>
    <style>
      .cls-1 {
        stroke: #fff;
        stroke-miterlimit: 10;
        stroke-width: .44px;
      }

      .cls-1, .cls-2, .cls-3 {
        fill: #fff;
      }

      .cls-2 {
        stroke: #1d1d1b;
        stroke-linejoin: round;
        stroke-width: 1.42px;
      }

      .cls-4 {
        fill: #2f2f2f;
      }

      .cls-4, .cls-5, .cls-6, .cls-3, .cls-7 {
        stroke-width: 0px;
      }

      .cls-5 {
        fill: #1d1d1b;
      }

      .cls-6 {
        fill: #de2b65;
      }

      .cls-7 {
        fill: #eb7c19;
      }
    </style>
  </defs>
  <rect class="cls-4" x="0" y="0" width="164.41" height="249.45"/>
  <g>
    <path class="cls-6" d="M141.74,206.68c-4.35,0-7.89-3.7-7.89-8.26s3.54-8.25,7.89-8.25,7.89,3.7,7.89,8.25-3.54,8.26-7.89,8.26Z"/>
    <path class="cls-5" d="M141.74,191.17c3.8,0,6.89,3.25,6.89,7.26s-3.09,7.26-6.89,7.26-6.89-3.25-6.89-7.26,3.09-7.26,6.89-7.26M141.74,189.17c-4.91,0-8.89,4.14-8.89,9.26s3.98,9.26,8.89,9.26,8.89-4.14,8.89-9.26-3.98-9.26-8.89-9.26h0Z"/>
  </g>
  <g>
    <ellipse class="cls-7" cx="141.74" cy="226.17" rx="7.89" ry="8.26"/>
    <path class="cls-5" d="M141.74,218.92c3.8,0,6.89,3.25,6.89,7.26s-3.09,7.26-6.89,7.26-6.89-3.25-6.89-7.26,3.09-7.26,6.89-7.26M141.74,216.92c-4.91,0-8.89,4.14-8.89,9.26s3.98,9.26,8.89,9.26,8.89-4.14,8.89-9.26-3.98-9.26-8.89-9.26h0Z"/>
  </g>
  <g>
    <path class="cls-3" d="M54.6,37.76c-.02.35.06.73.24,1.15.18.42.42.8.74,1.15.32.35.7.65,1.14.89.44.24.91.36,1.41.36.2,0,.44-.02.71-.06.28-.04.54-.12.79-.25s.46-.3.64-.51c.17-.22.26-.5.26-.85,0-.45-.15-.85-.44-1.2-.29-.35-.64-.66-1.04-.94-.4-.27-.81-.51-1.22-.7-.42-.19-.75-.35-1-.49-.82-.43-1.5-.87-2.05-1.3-.55-.43-1-.88-1.34-1.33s-.59-.92-.74-1.42c-.15-.5-.23-1.03-.23-1.6,0-.7.14-1.35.41-1.94.27-.59.67-1.1,1.17-1.54.51-.43,1.13-.77,1.88-1.01.74-.24,1.59-.36,2.54-.36s1.87.13,2.7.4c.83.27,1.5.66,2,1.17s.78,1.14.84,1.88c.06.73-.21,1.58-.81,2.53-.05-.53-.22-1-.5-1.39-.28-.39-.62-.7-1.03-.94s-.83-.39-1.29-.46c-.46-.08-.89-.08-1.29-.01-.25.05-.49.12-.73.21-.23.09-.44.22-.62.39s-.32.37-.42.61c-.1.24-.14.52-.12.84.02.33.07.62.16.88s.26.5.5.74c.24.24.57.5.99.76s.97.58,1.65.95c.93.52,1.68,1,2.23,1.46.55.46.97.91,1.26,1.36.29.45.48.9.56,1.35.08.45.12.92.12,1.42,0,.6-.15,1.17-.44,1.7-.29.53-.7,1-1.21,1.4-.52.4-1.12.72-1.82.96-.7.24-1.46.38-2.28.41-1.05.03-2-.13-2.86-.49-.86-.36-1.52-.85-1.99-1.47-.47-.62-.68-1.35-.65-2.16.03-.82.42-1.67,1.17-2.55Z"/>
    <path class="cls-3" d="M76.85,44.54c-.08-1.33-.22-2.69-.41-4.08s-.42-2.71-.69-3.98c-.07,1.08-.24,2.14-.51,3.18-.28,1.03-.66,1.93-1.16,2.7-.5.77-1.12,1.36-1.88,1.78s-1.63.55-2.65.4c-.1-1.52-.27-3.06-.51-4.64-.24-1.58-.52-3.06-.82-4.45s-.63-2.62-.97-3.69c-.34-1.07-.66-1.86-.96-2.38.7.12,1.38.48,2.03,1.09.65.61,1.24,1.38,1.77,2.32.53.94.99,2.01,1.36,3.2.38,1.19.63,2.42.76,3.69.53-1.48.92-2.93,1.17-4.35s.43-2.7.55-3.85c.03-.43.03-.81-.01-1.12-.04-.32-.15-.64-.31-.97.83.2,1.59.64,2.26,1.33.67.68,1.26,1.5,1.76,2.46.5.96.91,2,1.22,3.14.32,1.13.54,2.26.68,3.38.38-1.07.69-2.14.92-3.21.23-1.08.41-2.09.54-3.04s.22-1.81.29-2.58c.07-.77.12-1.38.17-1.82.37.47.67,1.06.92,1.79s.44,1.51.56,2.36c.12.85.18,1.74.16,2.66-.02.92-.11,1.83-.27,2.71-.17.88-.41,1.71-.74,2.49-.33.78-.73,1.44-1.22,2-.49.56-1.07.98-1.74,1.25-.67.28-1.42.35-2.28.24Z"/>
    <path class="cls-3" d="M94.18,42.69c-.7.7-1.43,1.15-2.2,1.36-.77.21-1.48.3-2.15.26-.65-.03-1.26-.2-1.83-.5s-1.05-.7-1.46-1.19c-.41-.49-.72-1.06-.94-1.71-.22-.65-.31-1.34-.27-2.08.03-.65.16-1.29.38-1.91.22-.62.54-1.18.98-1.67.43-.49.99-.88,1.66-1.17.67-.29,1.49-.44,2.44-.44.53,0,1.04.06,1.51.19.48.12.93.35,1.36.66-.05-.7-.35-1.23-.91-1.59-.56-.36-1.23-.6-2-.74-.78-.13-1.58-.17-2.41-.11-.83.06-1.54.16-2.12.31.33-.55.73-1.03,1.19-1.45.46-.42.95-.76,1.48-1.04.52-.27,1.06-.48,1.61-.61.55-.13,1.09-.18,1.62-.15.95.05,1.76.29,2.43.71.67.42,1.21.97,1.64,1.65.43.67.74,1.45.94,2.32.2.88.3,1.8.3,2.76,0,.8-.05,1.61-.16,2.42-.11.82-.28,1.6-.5,2.34-.23.74-.5,1.43-.83,2.06-.32.63-.7,1.17-1.11,1.62-.08-.32-.18-.69-.28-1.11s-.22-.83-.35-1.21ZM89.05,38.49c.02.25.06.5.14.74.08.24.19.46.34.66s.35.37.59.51c.24.14.54.25.91.31.43.08.82.07,1.15-.04.33-.11.61-.27.84-.49.23-.22.4-.47.51-.76.12-.29.17-.59.17-.89,0-.4-.05-.77-.15-1.11-.1-.34-.25-.64-.45-.9-.2-.26-.46-.46-.77-.61-.32-.15-.69-.22-1.12-.2-.77.03-1.34.3-1.71.81s-.52,1.16-.44,1.96Z"/>
    <path class="cls-3" d="M100.1,29.59c.65-.05,1.22.03,1.71.24.49.21.93.5,1.31.89.38-.3.85-.51,1.39-.62.54-.12,1.1-.16,1.69-.12.92.05,1.76.28,2.54.69s1.45.95,2.01,1.61c.57.67,1,1.43,1.31,2.29.31.86.45,1.77.44,2.74-.02.93-.16,1.8-.44,2.59-.28.79-.67,1.48-1.19,2.06-.52.58-1.15,1.05-1.9,1.39s-1.61.52-2.57.54c-.87.02-1.68-.12-2.43-.42-.2.7-.43,1.36-.7,1.99-.27.62-.55,1.18-.85,1.68-.3.49-.62.91-.95,1.26-.33.35-.68.6-1.05.75.05-.43.09-1.15.11-2.14.03-.99.04-2.13.05-3.41,0-1.28,0-2.64-.01-4.06-.02-1.42-.04-2.79-.09-4.09-.04-1.3-.1-2.47-.16-3.51s-.14-1.81-.22-2.31ZM104.2,32.54c.22.58.38,1.22.5,1.91.12.69.18,1.41.2,2.16.02.75-.01,1.52-.09,2.31-.08.79-.19,1.57-.34,2.34.17-.02.33-.03.49-.05.16-.02.32-.05.49-.1,1.77-.43,2.62-1.74,2.58-3.92-.02-.55-.11-1.09-.26-1.62-.16-.53-.38-1.01-.67-1.42-.29-.42-.64-.77-1.04-1.05s-.85-.45-1.35-.5c-.08-.02-.17-.03-.25-.03s-.17,0-.25-.02Z"/>
  </g>
  <g>
    <path class="cls-1" d="M21.4,194.16c-.1-.11-.16-.24-.16-.39,0-.32.26-.58.58-.58h1.19c.52,0,.84-.37.84-.83s-.33-.84-.84-.84h-2.37v5.1c0,.32-.26.58-.58.58s-.58-.26-.58-.58v-5.64c0-.32.26-.58.58-.58h2.96c1.15,0,2,.88,2,1.96s-.81,1.93-1.95,1.94l1.75,1.93c.21.23.2.6-.04.81-.23.21-.6.19-.81-.04l-2.57-2.84Z"/>
    <path class="cls-1" d="M29.71,192c0-.32.25-.57.57-.57s.57.25.57.57v2.83c0,1.33-1.09,2.42-2.42,2.42s-2.42-1.09-2.42-2.42v-2.83c0-.32.25-.57.57-.57s.57.25.57.57v2.86c0,.7.58,1.28,1.28,1.28s1.28-.58,1.28-1.28v-2.86Z"/>
    <path class="cls-1" d="M32.56,190.58c-.39,0-.71-.31-.71-.7s.32-.7.71-.7.71.31.71.7-.32.7-.71.7ZM31.99,192c0-.32.25-.57.57-.57s.57.25.57.57v4.62c0,.32-.25.57-.57.57s-.57-.25-.57-.57v-4.62Z"/>
    <path class="cls-1" d="M34.27,189.76c0-.32.25-.57.57-.57s.57.25.57.57v6.86c0,.32-.25.57-.57.57s-.57-.25-.57-.57v-6.86Z"/>
    <path class="cls-1" d="M37.34,199.34c-.31,0-.56-.25-.56-.56s.25-.56.56-.56h.22c.95,0,1.31-.5,1.31-1.44v-4.79c0-.32.25-.57.57-.57s.57.25.57.57v4.78c0,1.57-.8,2.57-2.44,2.57h-.23ZM39.44,190.58c-.39,0-.71-.31-.71-.7s.32-.7.71-.7.71.31.71.7-.32.7-.71.7Z"/>
    <path class="cls-1" d="M43.85,197.24c-1.74,0-2.96-1.31-2.96-2.93s1.22-2.93,2.96-2.93,2.97,1.31,2.97,2.93-1.24,2.93-2.97,2.93ZM43.85,192.48c-1.06,0-1.83.82-1.83,1.83s.77,1.83,1.83,1.83,1.83-.82,1.83-1.83-.77-1.83-1.83-1.83Z"/>
    <path class="cls-1" d="M51.37,192c0-.32.25-.57.57-.57s.57.25.57.57v2.83c0,1.33-1.09,2.42-2.42,2.42s-2.42-1.09-2.42-2.42v-2.83c0-.32.25-.57.57-.57s.57.25.57.57v2.86c0,.7.58,1.28,1.28,1.28s1.28-.58,1.28-1.28v-2.86Z"/>
    <path class="cls-1" d="M60.12,192c0-.32.25-.57.57-.57s.57.25.57.57v3.1c0,1.18-.96,2.14-2.14,2.14-.66,0-1.27-.31-1.66-.78-.39.47-.99.78-1.66.78-1.18,0-2.14-.96-2.14-2.14v-3.1c0-.32.25-.57.57-.57s.57.25.57.57v3.12c0,.57.47,1.05,1.05,1.05s1.05-.48,1.05-1.05v-3.12c0-.32.25-.57.57-.57s.57.25.57.57v3.12c0,.57.47,1.05,1.05,1.05s1.05-.48,1.05-1.05v-3.12Z"/>
    <path class="cls-1" d="M67.33,197.11c-1.69,0-2.88-1.26-2.88-2.8s1.19-2.8,2.88-2.8h1.3v-1.75c0-.32.25-.57.57-.57s.57.25.57.57v6.78c0,.32-.25.57-.57.57h-1.87ZM68.63,192.63h-1.3c-1.01,0-1.74.76-1.74,1.68s.73,1.68,1.74,1.68h1.3v-3.36Z"/>
    <path class="cls-1" d="M73.52,197.11c-1.69,0-2.88-1.26-2.88-2.8s1.19-2.8,2.88-2.8h.67c1.07,0,1.77.75,1.77,1.68s-.71,1.68-1.77,1.68h-1.07c-.31,0-.56-.25-.56-.56s.25-.56.56-.56h1.07c.38,0,.63-.25.63-.56s-.25-.56-.63-.56h-.67c-1.01,0-1.74.76-1.74,1.68s.73,1.68,1.74,1.68h1.61c.31,0,.56.25.56.56s-.25.56-.56.56h-1.61Z"/>
    <path class="cls-1" d="M77.97,194.41v2.21c0,.32-.25.57-.57.57s-.57-.25-.57-.57v-6.86c0-.32.25-.57.57-.57s.57.25.57.57v4.44l2.61-2.61c.22-.22.57-.22.79,0,.21.22.21.57,0,.79l-1.92,1.92,1.92,1.92c.22.22.21.57,0,.79-.22.22-.57.22-.79,0l-2.61-2.61Z"/>
    <path class="cls-1" d="M91.04,193.73c0-.6-.5-1.1-1.1-1.1h-1v3.99c0,.32-.25.57-.57.57s-.57-.25-.57-.57v-3.99h-2.08v3.99c0,.32-.25.57-.57.57s-.57-.25-.57-.57v-4.54c0-.32.25-.57.57-.57h4.79c1.23,0,2.24,1,2.24,2.24v2.87c0,.32-.25.57-.57.57s-.57-.25-.57-.57v-2.89Z"/>
    <path class="cls-1" d="M95.93,197.11c-1.69,0-2.88-1.26-2.88-2.8s1.19-2.8,2.88-2.8h.67c1.07,0,1.77.75,1.77,1.68s-.71,1.68-1.77,1.68h-1.07c-.31,0-.56-.25-.56-.56s.25-.56.56-.56h1.07c.38,0,.63-.25.63-.56s-.25-.56-.63-.56h-.67c-1.01,0-1.74.76-1.74,1.68s.73,1.68,1.74,1.68h1.62c.31,0,.56.25.56.56s-.25.56-.56.56h-1.62Z"/>
    <path class="cls-1" d="M101.97,197.11c-1.09,0-1.97-.89-1.97-1.97v-2.5h-.67c-.31,0-.56-.25-.56-.56s.25-.56.56-.56h.67v-1.12c0-.32.25-.57.57-.57s.57.25.57.57v1.12h1.47c.31,0,.56.25.56.56s-.25.56-.56.56h-1.47v2.51c0,.47.36.84.84.84h.62c.31,0,.56.25.56.56s-.25.56-.56.56h-.63Z"/>
    <path class="cls-1" d="M109.94,193.73c0-.6-.5-1.1-1.1-1.1h-1.44v3.99c0,.32-.25.57-.57.57s-.57-.25-.57-.57v-6.86c0-.32.25-.57.57-.57s.57.25.57.57v1.75h1.44c1.23,0,2.24,1,2.24,2.24v2.87c0,.32-.25.57-.57.57s-.57-.25-.57-.57v-2.89Z"/>
    <path class="cls-1" d="M114.83,197.11c-1.69,0-2.88-1.26-2.88-2.8s1.19-2.8,2.88-2.8h.66c1.07,0,1.77.75,1.77,1.68s-.71,1.68-1.77,1.68h-1.07c-.31,0-.56-.25-.56-.56s.25-.56.56-.56h1.07c.38,0,.63-.25.63-.56s-.25-.56-.63-.56h-.66c-1.01,0-1.74.76-1.74,1.68s.73,1.68,1.74,1.68h1.61c.31,0,.56.25.56.56s-.25.56-.56.56h-1.61Z"/>
    <path class="cls-1" d="M120.87,197.11c-1.09,0-1.97-.89-1.97-1.97v-2.5h-.66c-.31,0-.56-.25-.56-.56s.25-.56.56-.56h.66v-1.12c0-.32.25-.57.57-.57s.57.25.57.57v1.12h1.47c.31,0,.56.25.56.56s-.25.56-.56.56h-1.47v2.51c0,.47.36.84.84.84h.62c.31,0,.56.25.56.56s-.25.56-.56.56h-.63Z"/>
    <path class="cls-1" d="M22.07,212.07c-1.69,0-2.88-1.26-2.88-2.8s1.19-2.8,2.88-2.8h1.3v-1.75c0-.32.25-.57.57-.57s.57.25.57.57v6.78c0,.32-.25.57-.57.57h-1.87ZM23.37,207.59h-1.3c-1.01,0-1.74.76-1.74,1.68s.73,1.68,1.74,1.68h1.3v-3.36Z"/>
    <path class="cls-1" d="M28.26,212.07c-1.69,0-2.88-1.26-2.88-2.8s1.19-2.8,2.88-2.8h.67c1.07,0,1.77.75,1.77,1.68s-.71,1.68-1.77,1.68h-1.07c-.31,0-.56-.25-.56-.56s.25-.56.56-.56h1.07c.38,0,.63-.25.63-.56s-.25-.56-.63-.56h-.67c-1.01,0-1.74.76-1.74,1.68s.73,1.68,1.74,1.68h1.61c.31,0,.56.25.56.56s-.25.56-.56.56h-1.61Z"/>
    <path class="cls-1" d="M32.71,209.37v2.21c0,.32-.25.57-.57.57s-.57-.25-.57-.57v-6.86c0-.32.25-.57.57-.57s.57.25.57.57v4.44l2.61-2.61c.22-.22.57-.22.79,0,.21.22.21.57,0,.79l-1.92,1.92,1.92,1.92c.22.22.21.57,0,.79-.22.22-.57.22-.79,0l-2.61-2.61Z"/>
    <path class="cls-1" d="M38.96,207.19c-.13-.29,0-.62.28-.75.29-.14.62,0,.75.29l1.65,3.8,1.65-3.8c.13-.29.46-.42.75-.29.29.13.41.46.29.75l-2.05,4.56c-.11.24-.33.41-.63.41s-.53-.17-.63-.41l-2.05-4.56Z"/>
    <path class="cls-1" d="M46.58,212.07c-1.02,0-1.73-.78-1.73-1.73s.71-1.73,1.73-1.73h1.07c.31,0,.56.25.56.56s-.25.56-.56.56h-1.07c-.35,0-.59.29-.59.61s.24.61.59.61h2.05v-2.36c0-.56-.39-.99-.97-.99h-1.79c-.31,0-.56-.25-.56-.56s.25-.56.56-.56h1.79c1.18,0,2.11.94,2.11,2.1v2.92c0,.32-.2.57-.57.57h-2.62Z"/>
    <path class="cls-1" d="M54.58,208.69c0-.6-.5-1.1-1.1-1.1h-1.44v3.99c0,.32-.25.57-.57.57s-.57-.25-.57-.57v-4.54c0-.32.25-.57.57-.57h2.01c1.23,0,2.24,1,2.24,2.24v2.87c0,.32-.25.57-.57.57s-.57-.25-.57-.57v-2.89Z"/>
    <path class="cls-1" d="M61.8,212.07c-1.69,0-2.88-1.26-2.88-2.8s1.19-2.8,2.88-2.8h.67c1.07,0,1.77.75,1.77,1.68s-.71,1.68-1.77,1.68h-1.07c-.31,0-.56-.25-.56-.56s.25-.56.56-.56h1.07c.38,0,.63-.25.63-.56s-.25-.56-.63-.56h-.67c-1.01,0-1.74.76-1.74,1.68s.73,1.68,1.74,1.68h1.61c.31,0,.56.25.56.56s-.25.56-.56.56h-1.61Z"/>
    <path class="cls-1" d="M67.82,212.07c-1.69,0-2.88-1.26-2.88-2.8s1.19-2.8,2.88-2.8h.67c1.07,0,1.77.75,1.77,1.68s-.71,1.68-1.77,1.68h-1.07c-.31,0-.56-.25-.56-.56s.25-.56.56-.56h1.07c.38,0,.63-.25.63-.56s-.25-.56-.63-.56h-.67c-1.01,0-1.74.76-1.74,1.68s.73,1.68,1.74,1.68h1.61c.31,0,.56.25.56.56s-.25.56-.56.56h-1.61Z"/>
    <path class="cls-1" d="M74.8,208.69c0-.6-.5-1.1-1.1-1.1h-1.44v3.99c0,.32-.25.57-.57.57s-.57-.25-.57-.57v-4.54c0-.32.25-.57.57-.57h2c1.23,0,2.24,1,2.24,2.24v2.87c0,.32-.25.57-.57.57s-.57-.25-.57-.57v-2.89Z"/>
    <path class="cls-1" d="M80.54,212.07v1.75c0,.32-.25.57-.57.57s-.57-.25-.57-.57v-6.78c0-.32.25-.57.57-.57h1.87c1.69,0,2.88,1.26,2.88,2.8s-1.19,2.8-2.88,2.8h-1.3ZM81.84,210.95c1.01,0,1.74-.76,1.74-1.68s-.73-1.68-1.74-1.68h-1.3v3.36h1.3Z"/>
    <path class="cls-1" d="M88.3,212.07c-1.69,0-2.88-1.26-2.88-2.8s1.19-2.8,2.88-2.8h.67c1.07,0,1.77.75,1.77,1.68s-.71,1.68-1.77,1.68h-1.07c-.31,0-.56-.25-.56-.56s.25-.56.56-.56h1.07c.38,0,.63-.25.63-.56s-.25-.56-.63-.56h-.67c-1.01,0-1.74.76-1.74,1.68s.73,1.68,1.74,1.68h1.62c.31,0,.56.25.56.56s-.25.56-.56.56h-1.62Z"/>
    <path class="cls-1" d="M95.9,208.66c0,.32-.25.57-.57.57s-.57-.25-.57-.56v-.07c0-.56-.41-1-1-1h-1v3.99c0,.32-.25.57-.57.57s-.57-.25-.57-.57v-4.54c0-.32.25-.57.57-.57h1.57c1.2,0,2.14.96,2.14,2.12v.06Z"/>
    <path class="cls-1" d="M97.23,212.07c-.31,0-.56-.25-.56-.56s.25-.56.56-.56h2.37c.38,0,.63-.25.63-.56s-.25-.56-.63-.56h-1.31c-1.07,0-1.77-.75-1.77-1.68s.71-1.68,1.77-1.68h2.37c.31,0,.56.25.56.56s-.25.56-.56.56h-2.37c-.38,0-.63.25-.63.56s.25.56.63.56h1.31c1.07,0,1.77.75,1.77,1.68s-.71,1.68-1.77,1.68h-2.37Z"/>
    <path class="cls-1" d="M104.93,212.2c-1.74,0-2.97-1.31-2.97-2.93s1.23-2.93,2.97-2.93,2.96,1.31,2.96,2.93-1.23,2.93-2.96,2.93ZM104.93,207.44c-1.06,0-1.83.82-1.83,1.83s.77,1.83,1.83,1.83,1.83-.82,1.83-1.83-.77-1.83-1.83-1.83Z"/>
    <path class="cls-1" d="M111.56,212.2c-1.74,0-2.96-1.31-2.96-2.93s1.22-2.93,2.96-2.93,2.97,1.31,2.97,2.93-1.24,2.93-2.97,2.93ZM111.56,207.44c-1.06,0-1.83.82-1.83,1.83s.77,1.83,1.83,1.83,1.83-.82,1.83-1.83-.77-1.83-1.83-1.83Z"/>
    <path class="cls-1" d="M119.06,208.69c0-.6-.5-1.1-1.1-1.1h-1.44v3.99c0,.32-.25.57-.57.57s-.57-.25-.57-.57v-4.54c0-.32.25-.57.57-.57h2.01c1.23,0,2.24,1,2.24,2.24v2.87c0,.32-.25.57-.57.57s-.57-.25-.57-.57v-2.89Z"/>
    <path class="cls-1" d="M23.14,223.65c0-.6-.5-1.1-1.1-1.1h-1.44v3.99c0,.32-.25.57-.57.57s-.57-.25-.57-.57v-4.54c0-.32.25-.57.57-.57h2c1.23,0,2.24,1,2.24,2.24v2.87c0,.32-.25.57-.57.57s-.57-.25-.57-.57v-2.89Z"/>
    <path class="cls-1" d="M26.9,227.03c-1.02,0-1.73-.78-1.73-1.73s.71-1.73,1.73-1.73h1.07c.31,0,.56.25.56.56s-.25.56-.56.56h-1.07c-.35,0-.59.29-.59.61s.24.61.59.61h2.05v-2.36c0-.56-.39-.99-.97-.99h-1.79c-.31,0-.56-.25-.56-.56s.25-.56.56-.56h1.79c1.18,0,2.11.94,2.11,2.1v2.92c0,.32-.2.57-.57.57h-2.62Z"/>
    <path class="cls-1" d="M32.71,227.03c-1.02,0-1.73-.78-1.73-1.73s.71-1.73,1.73-1.73h1.07c.31,0,.56.25.56.56s-.25.56-.56.56h-1.07c-.35,0-.59.29-.59.61s.24.61.59.61h2.05v-2.36c0-.56-.39-.99-.97-.99h-1.79c-.31,0-.56-.25-.56-.56s.25-.56.56-.56h1.79c1.18,0,2.11.94,2.11,2.1v2.92c0,.32-.2.57-.57.57h-2.62Z"/>
    <path class="cls-1" d="M41.32,223.62c0,.32-.25.57-.57.57s-.57-.25-.57-.56v-.07c0-.56-.41-1-1-1h-1v3.99c0,.32-.25.57-.57.57s-.57-.25-.57-.57v-4.54c0-.32.25-.57.57-.57h1.57c1.2,0,2.14.96,2.14,2.12v.06Z"/>
    <path class="cls-1" d="M45.67,224.33v2.21c0,.32-.25.57-.57.57s-.57-.25-.57-.57v-6.86c0-.32.25-.57.57-.57s.57.25.57.57v4.44l2.61-2.61c.22-.22.57-.22.79,0,.21.22.21.57,0,.79l-1.92,1.92,1.92,1.92c.22.22.21.57,0,.79-.22.22-.57.22-.79,0l-2.61-2.61Z"/>
    <path class="cls-1" d="M52.25,227.03c-1.69,0-2.88-1.26-2.88-2.8s1.19-2.8,2.88-2.8h.67c1.07,0,1.77.75,1.77,1.68s-.71,1.68-1.77,1.68h-1.07c-.31,0-.56-.25-.56-.56s.25-.56.56-.56h1.07c.38,0,.63-.25.63-.56s-.25-.56-.63-.56h-.67c-1.01,0-1.74.76-1.74,1.68s.73,1.68,1.74,1.68h1.61c.31,0,.56.25.56.56s-.25.56-.56.56h-1.61Z"/>
    <path class="cls-1" d="M59.25,221.92c0-.32.25-.57.57-.57s.57.25.57.57v2.83c0,1.33-1.09,2.42-2.42,2.42s-2.42-1.09-2.42-2.42v-2.83c0-.32.25-.57.57-.57s.57.25.57.57v2.86c0,.7.58,1.28,1.28,1.28s1.28-.58,1.28-1.28v-2.86Z"/>
    <path class="cls-1" d="M61.89,227.03c-.31,0-.56-.24-.56-.55,0-.13.05-.28.17-.42l2.88-3.5h-2.4c-.31,0-.56-.25-.56-.56s.25-.56.56-.56h3.55c.31,0,.55.24.55.55,0,.14-.05.28-.17.42l-2.88,3.5h2.39c.31,0,.56.25.56.56s-.25.56-.56.56h-3.53Z"/>
    <path class="cls-1" d="M69.21,227.03c-1.69,0-2.88-1.26-2.88-2.8s1.19-2.8,2.88-2.8h.67c1.07,0,1.77.75,1.77,1.68s-.71,1.68-1.77,1.68h-1.07c-.31,0-.56-.25-.56-.56s.25-.56.56-.56h1.07c.38,0,.63-.25.63-.56s-.25-.56-.63-.56h-.67c-1.01,0-1.74.76-1.74,1.68s.73,1.68,1.74,1.68h1.61c.31,0,.56.25.56.56s-.25.56-.56.56h-1.61Z"/>
  </g>
  <g>
    <path class="cls-2" d="M101.63,86.28v-1.61c4.46.43,8,4.34,8.31,9.21h3.42c-.32-6.92-5.39-12.49-11.74-12.93v-1.54c0-1.33-1.33-2.16-2.39-1.5l-5.48,3.44c-1.06.67-1.06,2.33,0,2.99l5.48,3.44c1.06.67,2.39-.17,2.39-1.5Z"/>
    <g>
      <rect class="cls-3" x="84.18" y="114.03" width="34.33" height="48.35" rx="10.16" ry="10.16"/>
      <path class="cls-5" d="M108.34,115.29c4.91,0,8.9,3.99,8.9,8.9v28.03c0,4.91-3.99,8.9-8.9,8.9h-14.01c-4.91,0-8.9-3.99-8.9-8.9v-28.03c0-4.91,3.99-8.9,8.9-8.9h14.01M108.34,112.77h-14.01c-6.28,0-11.42,5.14-11.42,11.42v28.03c0,6.28,5.14,11.42,11.42,11.42h14.01c6.28,0,11.42-5.14,11.42-11.42v-28.03c0-6.28-5.14-11.42-11.42-11.42h0Z"/>
    </g>
    <g>
      <path class="cls-3" d="M112.49,163.14c-.41,0-.83-.03-1.25-.08l-13.9-1.72c-5.56-.69-9.52-5.77-8.83-11.33l3.45-27.82c.63-5.08,4.96-8.91,10.08-8.91.42,0,.83.03,1.25.08l13.9,1.72c2.68.33,5.08,1.7,6.75,3.85,1.67,2.15,2.41,4.81,2.08,7.49l-3.45,27.82c-.63,5.08-4.96,8.91-10.08,8.91Z"/>
      <path class="cls-5" d="M102.04,114.54h0c.36,0,.73.02,1.09.07l13.9,1.72c4.87.6,8.34,5.06,7.74,9.93l-3.45,27.82c-.55,4.45-4.35,7.81-8.83,7.81-.36,0-.73-.02-1.09-.07l-13.9-1.72c-4.87-.6-8.34-5.06-7.74-9.93l3.45-27.82c.55-4.45,4.35-7.81,8.83-7.81M102.04,112.02c-5.67,0-10.62,4.25-11.34,10.02l-3.45,27.82c-.77,6.23,3.7,11.97,9.93,12.74l13.9,1.72c.47.06.94.09,1.4.09,5.67,0,10.62-4.25,11.34-10.02l3.45-27.82c.77-6.23-3.7-11.97-9.93-12.74l-13.9-1.72c-.47-.06-.94-.09-1.4-.09h0Z"/>
    </g>
    <g>
      <path class="cls-3" d="M118.88,167.11c-.81,0-1.62-.1-2.41-.29l-13.6-3.34c-2.62-.64-4.85-2.28-6.26-4.61-1.41-2.33-1.83-5.06-1.19-7.68l6.69-27.22c1.12-4.56,5.18-7.74,9.88-7.74.81,0,1.62.1,2.41.29l13.6,3.34c2.62.64,4.85,2.28,6.26,4.61s1.83,5.06,1.19,7.68l-6.69,27.22c-1.12,4.56-5.18,7.74-9.88,7.74Z"/>
      <path class="cls-5" d="M112,117.49h0c.71,0,1.42.09,2.11.26l13.6,3.34c2.3.56,4.24,2,5.48,4.04,1.24,2.04,1.61,4.43,1.04,6.73l-6.69,27.22c-.98,3.99-4.54,6.78-8.66,6.78-.71,0-1.42-.09-2.11-.26l-13.6-3.34c-2.3-.56-4.24-2-5.48-4.04-1.24-2.04-1.61-4.43-1.04-6.73l6.69-27.22c.98-3.99,4.54-6.78,8.66-6.78M111.99,114.97c-5.13,0-9.83,3.5-11.11,8.7l-6.69,27.22c-1.5,6.1,2.27,12.32,8.37,13.82l13.6,3.34c.91.22,1.81.33,2.71.33,5.13,0,9.83-3.5,11.11-8.7l6.69-27.22c1.5-6.1-2.27-12.32-8.37-13.82l-13.6-3.34c-.91-.22-1.81-.33-2.71-.33h0Z"/>
    </g>
    <path class="cls-2" d="M68.94,137.71v1.61c-4.46-.43-8-4.34-8.31-9.21h-3.42c.32,6.92,5.39,12.49,11.74,12.93v1.54c0,1.33,1.33,2.16,2.39,1.5l5.48-3.44c1.06-.67,1.06-2.33,0-2.99l-5.48-3.44c-1.06-.67-2.39.17-2.39,1.5Z"/>
    <g>
      <path class="cls-3" d="M45.28,116.94c-4.67,0-8.84-3.29-9.91-7.83l-6.42-27.29c-1.28-5.46,2.11-10.94,7.57-12.22l13.64-3.21c.76-.18,1.54-.27,2.31-.27,4.67,0,8.84,3.29,9.91,7.83l6.42,27.29c1.28,5.45-2.11,10.93-7.57,12.22l-13.64,3.21c-.76.18-1.54.27-2.31.27Z"/>
      <path class="cls-5" d="M52.47,64.87v2.52c4.09,0,7.74,2.89,8.68,6.86l6.42,27.28c1.12,4.78-1.85,9.58-6.63,10.7l-13.64,3.21c-.67.16-1.35.24-2.02.24-4.09,0-7.74-2.89-8.68-6.86l-6.42-27.28c-1.12-4.78,1.85-9.58,6.63-10.7l13.64-3.21c.67-.16,1.35-.24,2.02-.24v-2.52M52.47,64.87c-.86,0-1.73.1-2.6.3l-13.64,3.21c-6.11,1.44-9.94,7.62-8.5,13.73l6.42,27.29c1.23,5.25,5.95,8.81,11.13,8.81.86,0,1.73-.1,2.6-.3l13.64-3.21c6.11-1.44,9.94-7.62,8.5-13.73l-6.42-27.29c-1.23-5.25-5.95-8.81-11.13-8.81h0Z"/>
    </g>
    <g>
      <path class="cls-3" d="M49.19,115.02c-5.2,0-9.54-3.9-10.1-9.07l-3.01-27.87c-.29-2.69.49-5.33,2.2-7.45s4.13-3.45,6.81-3.74l13.93-1.5c.37-.04.73-.06,1.09-.06,5.2,0,9.54,3.9,10.1,9.07l3.01,27.87c.6,5.57-3.44,10.59-9.01,11.19l-13.93,1.5c-.37.04-.73.06-1.09.06Z"/>
      <path class="cls-5" d="M60.11,66.59c4.48,0,8.37,3.49,8.85,7.94l3.01,27.87c.25,2.35-.43,4.67-1.93,6.53-1.5,1.86-3.62,3.02-5.97,3.28l-13.93,1.5c-.32.03-.64.05-.96.05-4.56,0-8.36-3.42-8.85-7.94l-3.01-27.87c-.53-4.88,3.01-9.28,7.89-9.8l13.93-1.5c.32-.03.64-.05.96-.05M60.11,64.07c-.41,0-.81.02-1.23.07l-13.93,1.5c-6.25.67-10.8,6.34-10.13,12.58l3.01,27.87c.63,5.83,5.61,10.19,11.35,10.19.41,0,.81-.02,1.23-.07l13.93-1.5c6.25-.67,10.8-6.34,10.13-12.58l-3.01-27.87c-.63-5.83-5.61-10.19-11.35-10.19h0Z"/>
    </g>
    <g>
      <path class="cls-3" d="M56.15,115.78c-5.6-.06-10.12-4.66-10.06-10.26l.28-28.03c.06-5.55,4.61-10.06,10.16-10.06l14.11.14c5.6.06,10.12,4.66,10.06,10.26l-.28,28.03c-.06,5.55-4.61,10.06-10.16,10.06l-14.11-.14Z"/>
      <path class="cls-5" d="M56.53,68.69h.09s14.01.14,14.01.14c4.91.05,8.86,4.08,8.81,8.99l-.28,28.03c-.05,4.86-4.04,8.81-8.9,8.81h-.09s-14.01-.14-14.01-.14c-2.36-.02-4.59-.97-6.26-2.68s-2.58-3.94-2.55-6.31l.28-28.03c.05-4.86,4.04-8.81,8.9-8.81M56.53,66.17c-6.23,0-11.36,5.06-11.42,11.31l-.28,28.03c-.06,6.28,5.03,11.47,11.31,11.53l14.01.14s.08,0,.11,0c6.23,0,11.36-5.06,11.42-11.31l.28-28.03c.06-6.28-5.03-11.47-11.31-11.53l-14.01-.14s-.08,0-.11,0h0Z"/>
    </g>
  </g>
</svg>