<?xml version="1.0" encoding="UTF-8"?>
<svg id="Laag_1" data-name="Laag 1" xmlns="http://www.w3.org/2000/svg" viewBox="0 0 164.41 249.45">
  <defs>
    <style>
      .cls-1 {
        stroke: #fff;
        stroke-miterlimit: 10;
        stroke-width: .45px;
      }

      .cls-1, .cls-2, .cls-3 {
        fill: #fff;
      }

      .cls-2 {
        stroke: #1d1d1b;
        stroke-linejoin: round;
        stroke-width: 1.64px;
      }

      .cls-4 {
        fill: #8082b8;
      }

      .cls-4, .cls-5, .cls-6, .cls-7, .cls-3 {
        stroke-width: 0px;
      }

      .cls-5 {
        fill: #2f2f2f;
      }

      .cls-6 {
        fill: #1d1d1b;
      }

      .cls-7 {
        fill: #8abb2a;
      }
    </style>
  </defs>
  <rect class="cls-5" x="0" width="164.41" height="249.45"/>
  <g>
    <path class="cls-4" d="M141.73,206.68c-4.35,0-7.89-3.7-7.89-8.26s3.54-8.25,7.89-8.25,7.89,3.7,7.89,8.25-3.54,8.26-7.89,8.26Z"/>
    <path class="cls-6" d="M141.73,191.17c3.8,0,6.89,3.25,6.89,7.26s-3.09,7.26-6.89,7.26-6.89-3.25-6.89-7.26,3.09-7.26,6.89-7.26M141.73,189.17c-4.91,0-8.89,4.14-8.89,9.26s3.98,9.26,8.89,9.26,8.89-4.14,8.89-9.26-3.98-9.26-8.89-9.26h0Z"/>
  </g>
  <g>
    <ellipse class="cls-7" cx="141.73" cy="226.17" rx="7.89" ry="8.26"/>
    <path class="cls-6" d="M141.73,218.92c3.8,0,6.89,3.25,6.89,7.26s-3.09,7.26-6.89,7.26-6.89-3.25-6.89-7.26,3.09-7.26,6.89-7.26M141.73,216.92c-4.91,0-8.89,4.14-8.89,9.26s3.98,9.26,8.89,9.26,8.89-4.14,8.89-9.26-3.98-9.26-8.89-9.26h0Z"/>
  </g>
  <g>
    <path class="cls-3" d="M60.76,26.71c-.25.7-.57,1.3-.96,1.79s-.83.9-1.32,1.23c-.49.32-1.03.57-1.6.72-.58.16-1.17.25-1.79.26.43.67.73,1.45.89,2.34.16.89.21,1.82.16,2.79-.05.97-.2,1.93-.45,2.89s-.57,1.85-.96,2.66c-.39.82-.84,1.53-1.35,2.14s-1.05,1.03-1.64,1.26c.03-.37.06-.89.09-1.56.03-.68.04-1.43.05-2.28,0-.84.01-1.74.01-2.7s-.01-1.91-.04-2.86c-.03-.95-.06-1.87-.1-2.75-.04-.88-.09-1.67-.14-2.35-.63-.18-1.23-.41-1.79-.68-.56-.27-1.05-.56-1.49-.88-.43-.32-.79-.65-1.09-1.01s-.48-.71-.56-1.06c1.03.13,2.13.22,3.3.27,1.17.05,2.36.07,3.59.06s2.45-.04,3.66-.09c1.22-.05,2.39-.12,3.53-.2Z"/>
    <path class="cls-3" d="M69.73,38.01c.03-1.85-.2-3.27-.7-4.25-.5-.98-1.23-1.46-2.2-1.42-.13,0-.25,0-.35.01-.1,0-.2.02-.3.04.23.67.37,1.41.4,2.23.03.82-.02,1.65-.15,2.5-.13.85-.33,1.69-.6,2.51-.27.82-.59,1.58-.98,2.27-.38.69-.81,1.29-1.27,1.8-.47.51-.96.87-1.48,1.09.05-.43.09-1.04.11-1.83.03-.78.04-1.66.05-2.62,0-.97,0-1.98-.01-3.04-.02-1.06-.05-2.08-.09-3.06-.04-.98-.1-1.89-.16-2.73-.07-.83-.14-1.5-.22-2,.8-.07,1.49.02,2.07.26.58.24,1.07.59,1.45,1.04.72-.73,1.72-1.1,3.02-1.1.82,0,1.51.14,2.09.41.58.27,1.03.64,1.35,1.1s.52.98.6,1.57c.07.59.03,1.2-.14,1.81-.17.62-.46,1.22-.88,1.81-.42.59-.96,1.12-1.62,1.59Z"/>
    <path class="cls-3" d="M83.18,42.69c-.7.7-1.43,1.15-2.2,1.36-.77.21-1.48.3-2.15.26-.65-.03-1.26-.2-1.82-.5-.57-.3-1.05-.7-1.46-1.19s-.72-1.06-.94-1.71c-.22-.65-.31-1.34-.28-2.08.03-.65.16-1.29.38-1.91s.54-1.18.98-1.67c.43-.49.99-.88,1.66-1.18.67-.29,1.49-.44,2.44-.44.53,0,1.04.06,1.51.19s.93.35,1.36.66c-.05-.7-.35-1.23-.91-1.59-.56-.36-1.23-.6-2-.74-.78-.13-1.58-.17-2.41-.11-.83.06-1.54.16-2.12.31.33-.55.73-1.03,1.19-1.45.46-.42.95-.76,1.48-1.04.52-.27,1.06-.48,1.61-.61.55-.13,1.09-.18,1.62-.15.95.05,1.76.29,2.42.71.67.43,1.21.98,1.64,1.65.42.67.74,1.45.94,2.32s.3,1.8.3,2.76c0,.8-.05,1.61-.16,2.42-.11.82-.28,1.6-.5,2.34-.23.74-.5,1.43-.83,2.06-.33.63-.7,1.18-1.11,1.62-.08-.32-.17-.69-.28-1.11-.1-.42-.22-.83-.35-1.21ZM78.06,38.49c.02.25.06.5.14.74.07.24.19.46.34.66.15.2.35.37.59.51.24.14.55.25.91.31.43.08.82.07,1.15-.04.33-.11.61-.27.84-.49.23-.22.4-.47.51-.76.12-.29.17-.59.17-.89,0-.4-.05-.77-.15-1.11-.1-.34-.25-.64-.45-.9-.2-.26-.46-.46-.78-.61-.32-.15-.69-.22-1.12-.2-.77.03-1.34.3-1.71.81-.38.51-.52,1.16-.44,1.96Z"/>
    <path class="cls-3" d="M96.45,26.51c.97-.07,1.77.11,2.41.54.64.43,1.15,1.02,1.52,1.8.38.77.62,1.67.75,2.69s.15,2.08.06,3.19c-.08,1.11-.25,2.21-.51,3.3-.26,1.09-.58,2.1-.97,3.02-.39.93-.84,1.72-1.34,2.39s-1.03,1.12-1.6,1.35c.02-.13.03-.28.04-.45,0-.17.02-.37.04-.6-.7.28-1.47.41-2.32.38-.97-.02-1.83-.2-2.58-.54-.75-.34-1.38-.8-1.9-1.39s-.91-1.27-1.19-2.06-.42-1.65-.44-2.59c-.02-.97.13-1.88.44-2.74.31-.86.74-1.62,1.3-2.29.56-.67,1.23-1.2,2.01-1.61.78-.41,1.63-.64,2.55-.69.37-.02.72,0,1.06.02.34.03.67.1.99.2-.03-.87-.08-1.64-.14-2.33-.06-.68-.12-1.22-.19-1.6ZM96.91,41.51c.03-1.25.04-2.65.02-4.19-.02-1.54-.04-3.05-.08-4.54-.1,0-.2,0-.3.01-.1,0-.21.02-.33.04-.5.05-.95.22-1.35.5-.4.28-.75.63-1.04,1.05-.29.42-.52.89-.68,1.43-.16.53-.25,1.07-.26,1.62-.05,2.18.81,3.49,2.57,3.92.48.13.96.18,1.43.15Z"/>
    <path class="cls-3" d="M116.63,38.86c-.68.1-1.3.19-1.86.26-.56.07-1.13.13-1.71.17-.58.04-1.23.07-1.92.09-.7.02-1.53.03-2.47.03.12,1.07.7,1.86,1.74,2.38,1.04.52,2.65.67,4.81.45-.28.38-.65.71-1.1.99-.45.27-.93.5-1.45.66-.52.17-1.05.28-1.59.35-.54.07-1.05.08-1.54.05-.8-.05-1.57-.24-2.3-.58-.73-.33-1.38-.81-1.92-1.44s-.99-1.4-1.31-2.31c-.33-.92-.48-1.98-.46-3.17.02-1.23.22-2.32.6-3.25.38-.93.88-1.71,1.49-2.33.61-.62,1.28-1.08,2.02-1.39.74-.31,1.48-.46,2.21-.46,1.08,0,2.06.16,2.94.48.88.32,1.61.85,2.21,1.59.6.74,1.04,1.72,1.34,2.94.29,1.22.39,2.72.29,4.5ZM110.28,31.94c-.35,0-.65.08-.91.25s-.47.45-.64.84-.29.91-.36,1.56-.1,1.46-.09,2.42c.27.02.75.02,1.45.01.7,0,1.61-.03,2.72-.06.05-.83.02-1.57-.09-2.2-.11-.63-.26-1.16-.46-1.57-.2-.42-.44-.73-.73-.94-.28-.21-.58-.31-.9-.31Z"/>
  </g>
  <g>
    <path class="cls-1" d="M22.27,178.59c-.1-.11-.16-.25-.16-.4,0-.33.27-.6.6-.6h1.23c.53,0,.87-.38.87-.86s-.34-.87-.87-.87h-2.45v5.26c0,.33-.27.6-.6.6s-.6-.27-.6-.6v-5.82c0-.33.27-.6.6-.6h3.06c1.19,0,2.06.9,2.06,2.03s-.84,1.99-2.02,2.01l1.81,1.99c.22.24.21.62-.04.84-.24.22-.62.2-.84-.04l-2.65-2.93Z"/>
    <path class="cls-1" d="M30.85,176.36c0-.33.26-.59.59-.59s.59.26.59.59v2.92c0,1.37-1.12,2.5-2.5,2.5s-2.5-1.12-2.5-2.5v-2.92c0-.33.26-.59.59-.59s.59.26.59.59v2.95c0,.72.6,1.32,1.32,1.32s1.32-.6,1.32-1.32v-2.95Z"/>
    <path class="cls-1" d="M33.79,174.9c-.4,0-.73-.32-.73-.72s.33-.72.73-.72.73.32.73.72-.33.72-.73.72ZM33.2,176.36c0-.33.26-.59.59-.59s.59.26.59.59v4.77c0,.33-.26.59-.59.59s-.59-.26-.59-.59v-4.77Z"/>
    <path class="cls-1" d="M35.56,174.05c0-.33.26-.59.59-.59s.59.26.59.59v7.08c0,.33-.26.59-.59.59s-.59-.26-.59-.59v-7.08Z"/>
    <path class="cls-1" d="M43,181.63c-1.74,0-2.97-1.3-2.97-2.89s1.23-2.89,2.97-2.89h.69c1.1,0,1.83.77,1.83,1.73s-.73,1.73-1.83,1.73h-1.1c-.32,0-.58-.26-.58-.58s.26-.58.58-.58h1.1c.39,0,.65-.26.65-.58s-.26-.58-.65-.58h-.69c-1.05,0-1.8.78-1.8,1.73s.75,1.73,1.8,1.73h1.67c.32,0,.58.26.58.58s-.26.58-.58.58h-1.67Z"/>
    <path class="cls-1" d="M49.22,181.63c-1.74,0-2.97-1.3-2.97-2.89s1.23-2.89,2.97-2.89h.69c1.1,0,1.83.77,1.83,1.73s-.73,1.73-1.83,1.73h-1.1c-.32,0-.58-.26-.58-.58s.26-.58.58-.58h1.1c.39,0,.65-.26.65-.58s-.26-.58-.65-.58h-.69c-1.05,0-1.8.78-1.8,1.73s.75,1.73,1.8,1.73h1.67c.32,0,.58.26.58.58s-.26.58-.58.58h-1.67Z"/>
    <path class="cls-1" d="M56.42,178.15c0-.62-.51-1.13-1.13-1.13h-1.48v4.12c0,.33-.26.59-.59.59s-.59-.26-.59-.59v-4.69c0-.33.26-.59.59-.59h2.07c1.27,0,2.31,1.04,2.31,2.31v2.96c0,.33-.26.59-.59.59s-.59-.26-.59-.59v-2.99Z"/>
    <path class="cls-1" d="M62.26,183.94c-.32,0-.58-.26-.58-.58s.26-.58.58-.58h2.07c.49,0,.88-.39.88-.88v-.27h-1.34c-1.74,0-2.97-1.3-2.97-2.89s1.23-2.89,2.97-2.89h1.93c.33,0,.59.26.59.59v5.46c0,1.12-.92,2.04-2.04,2.04h-2.09ZM65.21,177.01h-1.34c-1.05,0-1.8.78-1.8,1.73s.75,1.73,1.8,1.73h1.34v-3.46Z"/>
    <path class="cls-1" d="M70.26,181.63c-1.74,0-2.97-1.3-2.97-2.89s1.23-2.89,2.97-2.89h.69c1.1,0,1.83.77,1.83,1.73s-.73,1.73-1.83,1.73h-1.1c-.32,0-.58-.26-.58-.58s.26-.58.58-.58h1.1c.39,0,.65-.26.65-.58s-.26-.58-.65-.58h-.69c-1.05,0-1.8.78-1.8,1.73s.75,1.73,1.8,1.73h1.67c.32,0,.58.26.58.58s-.26.58-.58.58h-1.67Z"/>
    <path class="cls-1" d="M74.85,178.85v2.28c0,.33-.26.59-.59.59s-.59-.26-.59-.59v-7.08c0-.33.26-.59.59-.59s.59.26.59.59v4.59l2.69-2.69c.23-.23.59-.23.82,0,.22.23.22.59,0,.82l-1.98,1.98,1.98,1.98c.23.23.22.59,0,.82-.23.23-.59.23-.82,0l-2.69-2.69Z"/>
    <path class="cls-1" d="M81.73,181.77c-1.8,0-3.06-1.35-3.06-3.03s1.26-3.03,3.06-3.03,3.06,1.35,3.06,3.03-1.27,3.03-3.06,3.03ZM81.73,176.86c-1.09,0-1.89.85-1.89,1.88s.8,1.89,1.89,1.89,1.89-.85,1.89-1.89-.8-1.88-1.89-1.88Z"/>
    <path class="cls-1" d="M85.62,181.63c-.32,0-.58-.25-.58-.57,0-.13.06-.29.17-.44l2.97-3.62h-2.47c-.32,0-.58-.26-.58-.58s.26-.58.58-.58h3.66c.32,0,.57.25.57.57,0,.14-.05.29-.17.44l-2.97,3.62h2.46c.32,0,.58.26.58.58s-.26.58-.58.58h-3.64Z"/>
    <path class="cls-1" d="M93.17,181.63c-1.74,0-2.97-1.3-2.97-2.89s1.23-2.89,2.97-2.89h.69c1.1,0,1.83.77,1.83,1.73s-.73,1.73-1.83,1.73h-1.1c-.32,0-.58-.26-.58-.58s.26-.58.58-.58h1.1c.39,0,.65-.26.65-.58s-.26-.58-.65-.58h-.69c-1.05,0-1.8.78-1.8,1.73s.75,1.73,1.8,1.73h1.67c.32,0,.58.26.58.58s-.26.58-.58.58h-1.67Z"/>
    <path class="cls-1" d="M100.38,178.15c0-.62-.51-1.13-1.13-1.13h-1.48v4.12c0,.33-.26.59-.59.59s-.59-.26-.59-.59v-4.69c0-.33.26-.59.59-.59h2.07c1.27,0,2.31,1.04,2.31,2.31v2.96c0,.33-.26.59-.59.59s-.59-.26-.59-.59v-2.99Z"/>
    <path class="cls-1" d="M106.31,178.85v2.28c0,.33-.26.59-.59.59s-.59-.26-.59-.59v-7.08c0-.33.26-.59.59-.59s.59.26.59.59v4.59l2.69-2.69c.23-.23.59-.23.82,0,.22.23.22.59,0,.82l-1.98,1.98,1.98,1.98c.23.23.22.59,0,.82-.23.23-.59.23-.82,0l-2.69-2.69Z"/>
    <path class="cls-1" d="M112.26,181.63c-1.06,0-1.79-.81-1.79-1.79s.73-1.79,1.79-1.79h1.1c.32,0,.58.26.58.58s-.26.58-.58.58h-1.1c-.36,0-.61.3-.61.63s.25.63.61.63h2.11v-2.44c0-.58-.4-1.02-1-1.02h-1.85c-.32,0-.58-.26-.58-.58s.26-.58.58-.58h1.85c1.22,0,2.18.97,2.18,2.17v3.02c0,.33-.21.59-.59.59h-2.7Z"/>
    <path class="cls-1" d="M118.26,181.63c-1.06,0-1.79-.81-1.79-1.79s.73-1.79,1.79-1.79h1.1c.32,0,.58.26.58.58s-.26.58-.58.58h-1.1c-.36,0-.61.3-.61.63s.25.63.61.63h2.11v-2.44c0-.58-.4-1.02-1-1.02h-1.85c-.32,0-.58-.26-.58-.58s.26-.58.58-.58h1.85c1.22,0,2.18.97,2.18,2.17v3.02c0,.33-.21.59-.59.59h-2.7Z"/>
    <path class="cls-1" d="M127.15,178.11c0,.33-.26.59-.59.59s-.59-.26-.59-.58v-.08c0-.58-.42-1.03-1.04-1.03h-1.03v4.12c0,.33-.26.59-.59.59s-.59-.26-.59-.59v-4.69c0-.33.26-.59.59-.59h1.62c1.24,0,2.21.99,2.21,2.19v.07Z"/>
    <path class="cls-1" d="M130.73,181.63c-1.12,0-2.04-.92-2.04-2.04v-2.58h-.69c-.32,0-.58-.26-.58-.58s.26-.58.58-.58h.69v-1.16c0-.33.26-.59.59-.59s.59.26.59.59v1.16h1.51c.32,0,.58.26.58.58s-.26.58-.58.58h-1.51v2.59c0,.49.37.87.87.87h.64c.32,0,.58.26.58.58s-.26.58-.58.58h-.65Z"/>
    <path class="cls-1" d="M19.9,192.04c-.13-.29,0-.64.29-.77.29-.14.64,0,.77.29l1.7,3.92,1.7-3.92c.13-.29.48-.44.77-.29.29.13.42.48.29.77l-2.11,4.71c-.11.25-.34.42-.65.42s-.54-.17-.65-.42l-2.11-4.71Z"/>
    <path class="cls-1" d="M27.77,197.08c-1.06,0-1.79-.81-1.79-1.79s.73-1.79,1.79-1.79h1.1c.32,0,.58.26.58.58s-.26.58-.58.58h-1.1c-.36,0-.61.3-.61.63s.25.63.61.63h2.11v-2.44c0-.58-.4-1.02-1-1.02h-1.85c-.32,0-.58-.26-.58-.58s.26-.58.58-.58h1.85c1.22,0,2.18.97,2.18,2.17v3.02c0,.33-.21.59-.59.59h-2.7Z"/>
    <path class="cls-1" d="M36.04,193.59c0-.62-.51-1.13-1.13-1.13h-1.48v4.12c0,.33-.26.59-.59.59s-.59-.26-.59-.59v-4.69c0-.33.26-.59.59-.59h2.07c1.27,0,2.31,1.04,2.31,2.31v2.96c0,.33-.26.59-.59.59s-.59-.26-.59-.59v-2.99Z"/>
    <path class="cls-1" d="M39.21,199.39c-.32,0-.58-.26-.58-.58s.26-.58.58-.58h.23c.98,0,1.35-.51,1.35-1.48v-4.95c0-.33.26-.59.59-.59s.59.26.59.59v4.94c0,1.62-.83,2.65-2.52,2.65h-.24ZM41.38,190.34c-.4,0-.73-.32-.73-.72s.33-.72.73-.72.73.32.73.72-.33.72-.73.72Z"/>
    <path class="cls-1" d="M45.84,197.08c-1.74,0-2.97-1.3-2.97-2.89s1.23-2.89,2.97-2.89h.69c1.1,0,1.83.77,1.83,1.73s-.73,1.73-1.83,1.73h-1.1c-.32,0-.58-.26-.58-.58s.26-.58.58-.58h1.1c.39,0,.65-.26.65-.58s-.26-.58-.65-.58h-.69c-1.05,0-1.8.78-1.8,1.73s.75,1.73,1.8,1.73h1.67c.32,0,.58.26.58.58s-.26.58-.58.58h-1.67Z"/>
    <path class="cls-1" d="M49.62,197.08c-.32,0-.58-.25-.58-.57,0-.13.05-.29.17-.44l2.97-3.62h-2.47c-.32,0-.58-.26-.58-.58s.26-.58.58-.58h3.66c.32,0,.57.25.57.57,0,.14-.05.29-.17.44l-2.97,3.62h2.46c.32,0,.58.26.58.58s-.26.58-.58.58h-3.64Z"/>
    <path class="cls-1" d="M57.17,197.08c-1.74,0-2.97-1.3-2.97-2.89s1.23-2.89,2.97-2.89h.69c1.1,0,1.83.77,1.83,1.73s-.73,1.73-1.83,1.73h-1.1c-.32,0-.58-.26-.58-.58s.26-.58.58-.58h1.1c.39,0,.65-.26.65-.58s-.26-.58-.65-.58h-.69c-1.05,0-1.8.78-1.8,1.73s.75,1.73,1.8,1.73h1.67c.32,0,.58.26.58.58s-.26.58-.58.58h-1.67Z"/>
    <path class="cls-1" d="M60.59,189.49c0-.33.26-.59.59-.59s.59.26.59.59v7.08c0,.33-.26.59-.59.59s-.59-.26-.59-.59v-7.08Z"/>
    <path class="cls-1" d="M63.73,192.46h-.69c-.32,0-.58-.26-.58-.58s.26-.58.58-.58h.69v-.39c0-1.08.8-1.92,1.97-1.92h1.16c.32,0,.58.26.58.58s-.26.58-.58.58h-1.16c-.48,0-.79.32-.79.75v.4h1.95c.32,0,.58.26.58.58s-.26.58-.58.58h-1.95v4.12c0,.33-.26.59-.59.59s-.59-.26-.59-.59v-4.12Z"/>
    <path class="cls-1" d="M77.24,193.59c0-.62-.51-1.13-1.13-1.13h-1.03v4.12c0,.33-.26.59-.59.59s-.59-.26-.59-.59v-4.12h-2.15v4.12c0,.33-.26.59-.59.59s-.59-.26-.59-.59v-4.69c0-.33.26-.59.59-.59h4.95c1.28,0,2.31,1.04,2.31,2.31v2.96c0,.33-.26.59-.59.59s-.59-.26-.59-.59v-2.99Z"/>
    <path class="cls-1" d="M82.29,197.08c-1.74,0-2.97-1.3-2.97-2.89s1.23-2.89,2.97-2.89h.69c1.1,0,1.83.77,1.83,1.73s-.73,1.73-1.83,1.73h-1.1c-.32,0-.58-.26-.58-.58s.26-.58.58-.58h1.1c.39,0,.65-.26.65-.58s-.26-.58-.65-.58h-.69c-1.05,0-1.8.78-1.8,1.73s.75,1.73,1.8,1.73h1.67c.32,0,.58.26.58.58s-.26.58-.58.58h-1.67Z"/>
    <path class="cls-1" d="M88.53,197.08c-1.12,0-2.04-.92-2.04-2.04v-2.58h-.69c-.32,0-.58-.26-.58-.58s.26-.58.58-.58h.69v-1.16c0-.33.26-.59.59-.59s.59.26.59.59v1.16h1.51c.32,0,.58.26.58.58s-.26.58-.58.58h-1.51v2.59c0,.49.37.87.87.87h.64c.32,0,.58.26.58.58s-.26.58-.58.58h-.65Z"/>
    <path class="cls-1" d="M95.66,197.08c-1.74,0-2.97-1.3-2.97-2.89s1.23-2.89,2.97-2.89h.69c1.1,0,1.83.77,1.83,1.73s-.73,1.73-1.83,1.73h-1.1c-.32,0-.58-.26-.58-.58s.26-.58.58-.58h1.1c.39,0,.65-.26.65-.58s-.26-.58-.65-.58h-.69c-1.05,0-1.8.78-1.8,1.73s.75,1.73,1.8,1.73h1.67c.32,0,.58.26.58.58s-.26.58-.58.58h-1.67Z"/>
    <path class="cls-1" d="M101.87,197.08c-1.74,0-2.97-1.3-2.97-2.89s1.23-2.89,2.97-2.89h.69c1.1,0,1.83.77,1.83,1.73s-.73,1.73-1.83,1.73h-1.1c-.32,0-.58-.26-.58-.58s.26-.58.58-.58h1.1c.39,0,.65-.26.65-.58s-.26-.58-.65-.58h-.69c-1.05,0-1.8.78-1.8,1.73s.75,1.73,1.8,1.73h1.67c.32,0,.58.26.58.58s-.26.58-.58.58h-1.67Z"/>
    <path class="cls-1" d="M109.08,193.59c0-.62-.51-1.13-1.13-1.13h-1.48v4.12c0,.33-.26.59-.59.59s-.59-.26-.59-.59v-4.69c0-.33.26-.59.59-.59h2.07c1.27,0,2.31,1.04,2.31,2.31v2.96c0,.33-.26.59-.59.59s-.59-.26-.59-.59v-2.99Z"/>
    <path class="cls-1" d="M24.7,209c0,.33-.26.59-.59.59s-.59-.26-.59-.58v-.08c0-.58-.42-1.03-1.03-1.03h-1.04v4.12c0,.33-.26.59-.59.59s-.59-.26-.59-.59v-4.69c0-.33.26-.59.59-.59h1.62c1.24,0,2.21.99,2.21,2.19v.07Z"/>
    <path class="cls-1" d="M26.81,212.52c-1.06,0-1.79-.81-1.79-1.79s.73-1.79,1.79-1.79h1.1c.32,0,.58.26.58.58s-.26.58-.58.58h-1.1c-.36,0-.61.3-.61.63s.25.63.61.63h2.11v-2.44c0-.58-.4-1.02-1-1.02h-1.85c-.32,0-.58-.26-.58-.58s.26-.58.58-.58h1.85c1.22,0,2.18.97,2.18,2.17v3.02c0,.33-.21.59-.59.59h-2.7Z"/>
    <path class="cls-1" d="M35.08,209.03c0-.62-.51-1.13-1.13-1.13h-1.48v4.12c0,.33-.26.59-.59.59s-.59-.26-.59-.59v-4.69c0-.33.26-.59.59-.59h2.07c1.27,0,2.31,1.04,2.31,2.31v2.96c0,.33-.26.59-.59.59s-.59-.26-.59-.59v-2.99Z"/>
    <path class="cls-1" d="M40.12,212.52c-1.74,0-2.97-1.3-2.97-2.89s1.23-2.89,2.97-2.89h1.34v-1.81c0-.33.26-.59.59-.59s.59.26.59.59v7c0,.33-.26.59-.59.59h-1.93ZM41.46,207.9h-1.34c-1.05,0-1.8.78-1.8,1.73s.75,1.73,1.8,1.73h1.34v-3.46Z"/>
    <path class="cls-1" d="M46.6,212.66c-1.8,0-3.06-1.35-3.06-3.03s1.26-3.03,3.06-3.03,3.06,1.35,3.06,3.03-1.27,3.03-3.06,3.03ZM46.6,207.75c-1.09,0-1.89.85-1.89,1.88s.8,1.89,1.89,1.89,1.88-.85,1.88-1.89-.79-1.88-1.88-1.88Z"/>
    <path class="cls-1" d="M57.23,209.03c0-.62-.51-1.13-1.13-1.13h-1.03v4.12c0,.33-.26.59-.59.59s-.59-.26-.59-.59v-4.12h-2.15v4.12c0,.33-.26.59-.59.59s-.59-.26-.59-.59v-4.69c0-.33.26-.59.59-.59h4.95c1.28,0,2.31,1.04,2.31,2.31v2.96c0,.33-.26.59-.59.59s-.59-.26-.59-.59v-2.99Z"/>
    <path class="cls-1" d="M63.16,209.74v2.28c0,.33-.26.59-.59.59s-.59-.26-.59-.59v-7.08c0-.33.26-.59.59-.59s.59.26.59.59v4.59l2.69-2.69c.23-.23.59-.23.82,0,.22.23.22.59,0,.82l-1.98,1.98,1.98,1.98c.23.23.22.59,0,.82-.23.23-.59.23-.82,0l-2.69-2.69Z"/>
    <path class="cls-1" d="M69.11,212.52c-1.06,0-1.79-.81-1.79-1.79s.73-1.79,1.79-1.79h1.1c.32,0,.58.26.58.58s-.26.58-.58.58h-1.1c-.36,0-.61.3-.61.63s.25.63.61.63h2.11v-2.44c0-.58-.4-1.02-1-1.02h-1.85c-.32,0-.58-.26-.58-.58s.26-.58.58-.58h1.85c1.22,0,2.18.97,2.18,2.17v3.02c0,.33-.21.59-.59.59h-2.7Z"/>
    <path class="cls-1" d="M75.11,212.52c-1.06,0-1.79-.81-1.79-1.79s.73-1.79,1.79-1.79h1.1c.32,0,.58.26.58.58s-.26.58-.58.58h-1.1c-.36,0-.61.3-.61.63s.25.63.61.63h2.11v-2.44c0-.58-.4-1.02-1-1.02h-1.85c-.32,0-.58-.26-.58-.58s.26-.58.58-.58h1.85c1.22,0,2.18.97,2.18,2.17v3.02c0,.33-.21.59-.59.59h-2.7Z"/>
    <path class="cls-1" d="M84,209c0,.33-.26.59-.59.59s-.59-.26-.59-.58v-.08c0-.58-.43-1.03-1.04-1.03h-1.04v4.12c0,.33-.26.59-.59.59s-.59-.26-.59-.59v-4.69c0-.33.26-.59.59-.59h1.62c1.24,0,2.21.99,2.21,2.19v.07Z"/>
    <path class="cls-1" d="M87.58,212.52c-1.12,0-2.04-.92-2.04-2.04v-2.58h-.69c-.32,0-.58-.26-.58-.58s.26-.58.58-.58h.69v-1.16c0-.33.26-.59.59-.59s.59.26.59.59v1.16h1.51c.32,0,.58.26.58.58s-.26.58-.58.58h-1.51v2.59c0,.49.37.87.87.87h.64c.32,0,.58.26.58.58s-.26.58-.58.58h-.65Z"/>
    <path class="cls-1" d="M91.65,207.49c-.13-.29,0-.64.29-.77.29-.14.64,0,.77.29l1.7,3.92,1.7-3.92c.13-.29.48-.44.77-.29.29.13.42.48.29.77l-2.11,4.71c-.11.25-.34.42-.65.42s-.54-.17-.65-.42l-2.11-4.71Z"/>
    <path class="cls-1" d="M99.52,212.52c-1.06,0-1.79-.81-1.79-1.79s.73-1.79,1.79-1.79h1.1c.32,0,.58.26.58.58s-.26.58-.58.58h-1.1c-.36,0-.61.3-.61.63s.25.63.61.63h2.11v-2.44c0-.58-.4-1.02-1-1.02h-1.85c-.32,0-.58-.26-.58-.58s.26-.58.58-.58h1.85c1.22,0,2.18.97,2.18,2.17v3.02c0,.33-.21.59-.59.59h-2.7Z"/>
    <path class="cls-1" d="M107.78,209.03c0-.62-.51-1.13-1.13-1.13h-1.48v4.12c0,.33-.26.59-.59.59s-.59-.26-.59-.59v-4.69c0-.33.26-.59.59-.59h2.07c1.27,0,2.31,1.04,2.31,2.31v2.96c0,.33-.26.59-.59.59s-.59-.26-.59-.59v-2.99Z"/>
    <path class="cls-1" d="M22.97,227.96c-1.74,0-2.97-1.3-2.97-2.89s1.23-2.89,2.97-2.89h.69c1.1,0,1.83.77,1.83,1.73s-.73,1.73-1.83,1.73h-1.1c-.32,0-.58-.26-.58-.58s.26-.58.58-.58h1.1c.39,0,.65-.26.65-.58s-.26-.58-.65-.58h-.69c-1.05,0-1.8.78-1.8,1.73s.75,1.73,1.8,1.73h1.67c.32,0,.58.26.58.58s-.26.58-.58.58h-1.67Z"/>
    <path class="cls-1" d="M29.18,227.96c-1.74,0-2.97-1.3-2.97-2.89s1.23-2.89,2.97-2.89h.69c1.1,0,1.83.77,1.83,1.73s-.73,1.73-1.83,1.73h-1.1c-.32,0-.58-.26-.58-.58s.26-.58.58-.58h1.1c.39,0,.65-.26.65-.58s-.26-.58-.65-.58h-.69c-1.05,0-1.8.78-1.8,1.73s.75,1.73,1.8,1.73h1.67c.32,0,.58.26.58.58s-.26.58-.58.58h-1.67Z"/>
    <path class="cls-1" d="M36.39,224.48c0-.62-.51-1.13-1.13-1.13h-1.48v4.12c0,.33-.26.59-.59.59s-.59-.26-.59-.59v-4.69c0-.33.26-.59.59-.59h2.07c1.27,0,2.31,1.04,2.31,2.31v2.96c0,.33-.26.59-.59.59s-.59-.26-.59-.59v-2.99Z"/>
    <path class="cls-1" d="M42.67,227.96c-1.06,0-1.79-.81-1.79-1.79s.73-1.79,1.79-1.79h1.1c.32,0,.58.26.58.58s-.26.58-.58.58h-1.1c-.36,0-.61.3-.61.63s.25.63.61.63h2.11v-2.44c0-.58-.4-1.02-1-1.02h-1.85c-.32,0-.58-.26-.58-.58s.26-.58.58-.58h1.85c1.22,0,2.18.97,2.18,2.17v3.02c0,.33-.21.59-.59.59h-2.7Z"/>
    <path class="cls-1" d="M50.93,224.48c0-.62-.51-1.13-1.13-1.13h-1.48v4.12c0,.33-.26.59-.59.59s-.59-.26-.59-.59v-4.69c0-.33.26-.59.59-.59h2.07c1.27,0,2.31,1.04,2.31,2.31v2.96c0,.33-.26.59-.59.59s-.59-.26-.59-.59v-2.99Z"/>
    <path class="cls-1" d="M55.98,227.96c-1.74,0-2.97-1.3-2.97-2.89s1.23-2.89,2.97-2.89h1.34v-1.81c0-.33.26-.59.59-.59s.59.26.59.59v7c0,.33-.26.59-.59.59h-1.93ZM57.32,223.35h-1.34c-1.05,0-1.8.78-1.8,1.73s.75,1.73,1.8,1.73h1.34v-3.46Z"/>
    <path class="cls-1" d="M62.36,227.96c-1.74,0-2.97-1.3-2.97-2.89s1.23-2.89,2.97-2.89h.69c1.1,0,1.83.77,1.83,1.73s-.73,1.73-1.83,1.73h-1.1c-.32,0-.58-.26-.58-.58s.26-.58.58-.58h1.1c.39,0,.65-.26.65-.58s-.26-.58-.65-.58h-.69c-1.05,0-1.8.78-1.8,1.73s.75,1.73,1.8,1.73h1.67c.32,0,.58.26.58.58s-.26.58-.58.58h-1.67Z"/>
    <path class="cls-1" d="M70.2,224.45c0,.33-.26.59-.59.59s-.59-.26-.59-.58v-.08c0-.58-.43-1.03-1.04-1.03h-1.04v4.12c0,.33-.26.59-.59.59s-.59-.26-.59-.59v-4.69c0-.33.26-.59.59-.59h1.62c1.24,0,2.21.99,2.21,2.19v.07Z"/>
    <path class="cls-1" d="M73.81,227.96c-1.74,0-2.97-1.3-2.97-2.89s1.23-2.89,2.97-2.89h.69c1.1,0,1.83.77,1.83,1.73s-.73,1.73-1.83,1.73h-1.1c-.32,0-.58-.26-.58-.58s.26-.58.58-.58h1.1c.39,0,.65-.26.65-.58s-.26-.58-.65-.58h-.69c-1.05,0-1.8.78-1.8,1.73s.75,1.73,1.8,1.73h1.67c.32,0,.58.26.58.58s-.26.58-.58.58h-1.67Z"/>
    <path class="cls-1" d="M80.8,227.96v1.81c0,.33-.26.59-.59.59s-.59-.26-.59-.59v-7c0-.33.26-.59.59-.59h1.93c1.74,0,2.97,1.3,2.97,2.89s-1.23,2.89-2.97,2.89h-1.34ZM82.14,226.81c1.05,0,1.8-.78,1.8-1.73s-.75-1.73-1.8-1.73h-1.34v3.46h1.34Z"/>
    <path class="cls-1" d="M88.81,227.96c-1.74,0-2.97-1.3-2.97-2.89s1.23-2.89,2.97-2.89h.69c1.1,0,1.83.77,1.83,1.73s-.73,1.73-1.83,1.73h-1.1c-.32,0-.58-.26-.58-.58s.26-.58.58-.58h1.1c.39,0,.65-.26.65-.58s-.26-.58-.65-.58h-.69c-1.05,0-1.8.78-1.8,1.73s.75,1.73,1.8,1.73h1.67c.32,0,.58.26.58.58s-.26.58-.58.58h-1.67Z"/>
    <path class="cls-1" d="M96.65,224.45c0,.33-.26.59-.59.59s-.59-.26-.59-.58v-.08c0-.58-.42-1.03-1.04-1.03h-1.03v4.12c0,.33-.26.59-.59.59s-.59-.26-.59-.59v-4.69c0-.33.26-.59.59-.59h1.62c1.24,0,2.21.99,2.21,2.19v.07Z"/>
    <path class="cls-1" d="M98.03,227.96c-.32,0-.58-.26-.58-.58s.26-.58.58-.58h2.44c.39,0,.65-.26.65-.58s-.26-.58-.65-.58h-1.35c-1.1,0-1.83-.77-1.83-1.73s.73-1.73,1.83-1.73h2.44c.32,0,.58.26.58.58s-.26.58-.58.58h-2.44c-.39,0-.65.26-.65.58s.26.58.65.58h1.35c1.1,0,1.83.77,1.83,1.73s-.73,1.73-1.83,1.73h-2.44Z"/>
    <path class="cls-1" d="M105.97,228.11c-1.8,0-3.06-1.35-3.06-3.03s1.26-3.03,3.06-3.03,3.06,1.35,3.06,3.03-1.27,3.03-3.06,3.03ZM105.97,223.19c-1.09,0-1.89.85-1.89,1.88s.8,1.89,1.89,1.89,1.89-.85,1.89-1.89-.8-1.88-1.89-1.88Z"/>
    <path class="cls-1" d="M112.82,228.11c-1.8,0-3.06-1.35-3.06-3.03s1.26-3.03,3.06-3.03,3.06,1.35,3.06,3.03-1.27,3.03-3.06,3.03ZM112.82,223.19c-1.09,0-1.89.85-1.89,1.88s.8,1.89,1.89,1.89,1.89-.85,1.89-1.89-.8-1.88-1.89-1.88Z"/>
    <path class="cls-1" d="M120.57,224.48c0-.62-.51-1.13-1.13-1.13h-1.48v4.12c0,.33-.26.59-.59.59s-.59-.26-.59-.59v-4.69c0-.33.26-.59.59-.59h2.07c1.27,0,2.31,1.04,2.31,2.31v2.96c0,.33-.26.59-.59.59s-.59-.26-.59-.59v-2.99Z"/>
  </g>
  <g>
    <g>
      <path class="cls-4" d="M53.96,61.29h19.42c3.18,0,5.76,2.58,5.76,5.76v36.66c0,3.18-2.58,5.76-5.76,5.76h-19.42c-3.18,0-5.76-2.58-5.76-5.76v-36.66c0-3.18,2.58-5.76,5.76-5.76Z"/>
      <path class="cls-6" d="M73.39,62.49c2.52,0,4.56,2.05,4.56,4.56v36.66c0,2.52-2.05,4.56-4.56,4.56h-19.42c-2.52,0-4.56-2.05-4.56-4.56v-36.66c0-2.52,2.05-4.56,4.56-4.56h19.42M73.39,60.1h-19.42c-3.82,0-6.95,3.13-6.95,6.95v36.66c0,3.82,3.13,6.95,6.95,6.95h19.42c3.82,0,6.95-3.13,6.95-6.95v-36.66c0-3.82-3.13-6.95-6.95-6.95h0Z"/>
    </g>
    <g>
      <path class="cls-7" d="M89.83,111.63h21.8c2.52,0,4.57,2.05,4.57,4.57v39.04c0,2.52-2.05,4.57-4.57,4.57h-21.8c-2.52,0-4.57-2.05-4.57-4.57v-39.04c0-2.52,2.05-4.57,4.57-4.57Z"/>
      <path class="cls-6" d="M111.64,112.83c1.86,0,3.37,1.51,3.37,3.37v39.04c0,1.86-1.51,3.37-3.37,3.37h-21.8c-1.86,0-3.37-1.51-3.37-3.37v-39.04c0-1.86,1.51-3.37,3.37-3.37h21.8M111.64,110.44h-21.8c-3.17,0-5.76,2.59-5.76,5.76v39.04c0,3.17,2.59,5.76,5.76,5.76h21.8c3.17,0,5.76-2.59,5.76-5.76v-39.04c0-3.17-2.59-5.76-5.76-5.76h0Z"/>
    </g>
    <path class="cls-2" d="M68.31,129.39v1.95c-4.9-.52-8.8-5.24-9.14-11.13h-3.76c.35,8.37,5.92,15.09,12.9,15.63v1.86c0,1.61,1.46,2.61,2.62,1.81l6.02-4.15c1.17-.8,1.17-2.81,0-3.62l-6.02-4.15c-1.17-.8-2.62.2-2.62,1.81Z"/>
    <path class="cls-2" d="M96.19,92.14v-1.95c4.9.52,8.8,5.24,9.14,11.13h3.76c-.35-8.37-5.92-15.09-12.9-15.63v-1.86c0-1.61-1.46-2.61-2.62-1.81l-6.02,4.15c-1.17.8-1.17,2.81,0,3.62l6.02,4.15c1.17.8,2.62-.2,2.62-1.81Z"/>
  </g>
</svg>