<?xml version="1.0" encoding="UTF-8"?>
<svg id="Laag_1" data-name="Laag 1" xmlns="http://www.w3.org/2000/svg" viewBox="0 0 164.41 249.45">
  <defs>
    <style>
      .cls-1, .cls-2 {
        stroke: #1d1d1b;
        stroke-width: 5px;
      }

      .cls-1, .cls-2, .cls-3 {
        stroke-miterlimit: 10;
      }

      .cls-1, .cls-4 {
        fill: #8abb2a;
      }

      .cls-2, .cls-5 {
        fill: #8082b8;
      }

      .cls-3 {
        stroke: #fff;
        stroke-width: .48px;
      }

      .cls-3, .cls-6 {
        fill: #fff;
      }

      .cls-5, .cls-7, .cls-8, .cls-4, .cls-6 {
        stroke-width: 0px;
      }

      .cls-7 {
        fill: #2f2f2f;
      }

      .cls-8 {
        fill: #1d1d1b;
      }
    </style>
  </defs>
  <rect class="cls-7" x="0" width="164.41" height="249.45"/>
  <g>
    <path class="cls-5" d="M141.73,206.68c-4.35,0-7.89-3.7-7.89-8.26s3.54-8.25,7.89-8.25,7.89,3.7,7.89,8.25-3.54,8.26-7.89,8.26Z"/>
    <path class="cls-8" d="M141.73,191.17c3.8,0,6.89,3.25,6.89,7.26s-3.09,7.26-6.89,7.26-6.89-3.25-6.89-7.26,3.09-7.26,6.89-7.26M141.73,189.17c-4.91,0-8.89,4.14-8.89,9.26s3.98,9.26,8.89,9.26,8.89-4.14,8.89-9.26-3.98-9.26-8.89-9.26h0Z"/>
  </g>
  <g>
    <path class="cls-4" d="M141.73,234.43c-4.35,0-7.89-3.7-7.89-8.26s3.54-8.26,7.89-8.26,7.89,3.7,7.89,8.26-3.54,8.26-7.89,8.26Z"/>
    <path class="cls-8" d="M141.73,218.92c3.8,0,6.89,3.25,6.89,7.26s-3.09,7.26-6.89,7.26-6.89-3.25-6.89-7.26,3.09-7.26,6.89-7.26M141.73,216.92c-4.91,0-8.89,4.14-8.89,9.26s3.98,9.26,8.89,9.26,8.89-4.14,8.89-9.26-3.98-9.26-8.89-9.26h0Z"/>
  </g>
  <g>
    <path class="cls-6" d="M32.71,35.71c.35-.52.72-.92,1.1-1.23.38-.3.75-.53,1.11-.7s.7-.28,1.01-.33.58-.08.8-.08c.8,0,1.44.15,1.92.46s.84.72,1.06,1.25c.23.52.34,1.14.35,1.84,0,.7-.05,1.44-.19,2.23-.1.57-.19,1.1-.28,1.59s-.12.99-.12,1.49.05,1.01.15,1.52c.1.52.28,1.08.55,1.7-1.28-.02-2.25-.17-2.89-.45s-1.06-.78-1.26-1.5c-.47.2-.96.35-1.47.46s-1.01.15-1.47.14c-1.22-.02-2.3-.24-3.24-.66-.94-.42-1.73-1-2.38-1.72-.64-.73-1.11-1.57-1.41-2.54-.3-.97-.42-2.01-.38-3.12.07-1.22.28-2.38.64-3.5s.84-2.1,1.45-2.96c.61-.86,1.34-1.56,2.19-2.1.85-.54,1.8-.85,2.85-.91.62-.03,1.22.01,1.8.14s1.1.36,1.55.7c.45.34.83.8,1.12,1.38.3.58.48,1.29.55,2.14-.53-.52-1.06-.83-1.59-.95-.53-.12-1.11-.15-1.76-.1-.68.05-1.29.26-1.81.62-.52.37-.97.83-1.34,1.4-.37.57-.64,1.2-.83,1.9-.18.7-.28,1.41-.3,2.12-.02.68.07,1.32.26,1.92s.48,1.12.86,1.55c.38.43.87.77,1.46,1.02s1.29.38,2.09.38h.5c.17,0,.33-.02.5-.05.03-.77.03-1.47-.01-2.1-.04-.63-.17-1.18-.4-1.62-.22-.45-.55-.8-.99-1.04s-1.02-.34-1.77-.29Z"/>
    <path class="cls-6" d="M42.63,25.21c1.47-.02,2.53.18,3.19.59.66.41.97.89.95,1.45-.03.56-.37,1.12-1.04,1.69-.67.57-1.59,1-2.77,1.3.02-.55.02-1.02.01-1.42,0-.4-.02-.78-.05-1.15-.02-.37-.06-.74-.11-1.11s-.11-.82-.17-1.34ZM42.71,31.71c.93-.05,1.71.07,2.34.36.62.29,1.12.7,1.48,1.24.36.53.6,1.16.71,1.88.12.72.13,1.46.05,2.24-.08.77-.25,1.55-.5,2.33s-.56,1.5-.94,2.17c-.38.68-.8,1.27-1.29,1.77-.48.51-.99.87-1.53,1.09.05-.43.09-.99.11-1.66.02-.68.04-1.41.05-2.21,0-.8,0-1.63-.01-2.5s-.05-1.71-.09-2.54c-.04-.83-.1-1.6-.16-2.33s-.14-1.34-.22-1.84Z"/>
    <path class="cls-6" d="M53.2,44.54c-.1-1.5-.33-3.03-.69-4.59-.36-1.56-.76-3.02-1.21-4.39s-.9-2.58-1.36-3.64c-.46-1.06-.84-1.84-1.14-2.34.7.12,1.44.45,2.21,1,.78.55,1.5,1.26,2.18,2.14.67.88,1.26,1.88,1.75,3.01.49,1.13.8,2.33.94,3.58.42-.58.84-1.33,1.26-2.25.43-.92.83-1.86,1.21-2.84.38-.98.72-1.91,1.03-2.81.3-.9.53-1.63.7-2.2.48.63.82,1.45,1,2.44.18.99.21,2.05.09,3.19-.12,1.13-.39,2.27-.79,3.41-.4,1.14-.94,2.18-1.61,3.11-.67.93-1.48,1.69-2.41,2.27-.93.58-1.98.88-3.15.9Z"/>
    <path class="cls-6" d="M76.4,38.86c-.68.1-1.3.19-1.86.26-.56.07-1.13.13-1.71.17-.58.04-1.22.07-1.92.09-.7.02-1.53.03-2.47.03.12,1.07.7,1.86,1.74,2.38,1.04.52,2.65.67,4.81.45-.28.38-.65.71-1.1.99-.45.27-.93.5-1.45.66-.52.17-1.05.28-1.59.35-.54.07-1.05.08-1.54.05-.8-.05-1.57-.24-2.3-.58-.73-.33-1.38-.81-1.92-1.44s-.99-1.4-1.31-2.31c-.33-.92-.48-1.98-.46-3.17.02-1.23.22-2.32.6-3.25.38-.93.88-1.71,1.49-2.33.61-.62,1.28-1.08,2.03-1.39.74-.31,1.48-.46,2.21-.46,1.08,0,2.06.16,2.94.48.88.32,1.61.85,2.21,1.59.6.74,1.05,1.72,1.34,2.94.29,1.22.39,2.72.29,4.5ZM70.05,31.94c-.35,0-.65.08-.91.25s-.47.45-.64.84c-.17.39-.29.91-.36,1.56s-.1,1.46-.09,2.42c.27.02.75.02,1.45.01.7,0,1.61-.03,2.73-.06.05-.83.02-1.57-.09-2.2-.11-.63-.26-1.16-.46-1.57-.2-.42-.44-.73-.73-.94s-.58-.31-.9-.31Z"/>
    <path class="cls-6" d="M87.48,42.69c-.7.7-1.43,1.15-2.2,1.36-.77.21-1.48.3-2.15.26-.65-.03-1.26-.2-1.83-.5-.57-.3-1.05-.7-1.46-1.19-.41-.49-.72-1.06-.94-1.71-.22-.65-.31-1.34-.28-2.08.03-.65.16-1.29.38-1.91s.54-1.18.98-1.67c.43-.49.99-.88,1.66-1.18.67-.29,1.49-.44,2.44-.44.53,0,1.04.06,1.51.19.47.12.93.35,1.36.66-.05-.7-.35-1.23-.91-1.59-.56-.36-1.23-.6-2-.74-.78-.13-1.58-.17-2.41-.11-.83.06-1.54.16-2.12.31.33-.55.73-1.03,1.19-1.45s.95-.76,1.48-1.04c.52-.27,1.06-.48,1.61-.61.55-.13,1.09-.18,1.62-.15.95.05,1.76.29,2.42.71.67.43,1.21.98,1.64,1.65.42.67.74,1.45.94,2.32s.3,1.8.3,2.76c0,.8-.05,1.61-.16,2.42-.11.82-.28,1.6-.5,2.34-.23.74-.5,1.43-.83,2.06-.33.63-.7,1.18-1.11,1.62-.08-.32-.18-.69-.28-1.11s-.22-.83-.35-1.21ZM82.35,38.49c.02.25.06.5.14.74.08.24.19.46.34.66.15.2.35.37.59.51.24.14.54.25.91.31.43.08.82.07,1.15-.04.33-.11.61-.27.84-.49.23-.22.4-.47.51-.76.12-.29.17-.59.17-.89,0-.4-.05-.77-.15-1.11-.1-.34-.25-.64-.45-.9-.2-.26-.46-.46-.78-.61-.32-.15-.69-.22-1.12-.2-.77.03-1.34.3-1.71.81-.38.51-.52,1.16-.44,1.96Z"/>
    <path class="cls-6" d="M102.73,44.54c-.08-1.33-.22-2.69-.41-4.08-.19-1.38-.42-2.71-.69-3.98-.07,1.08-.24,2.14-.51,3.18s-.66,1.93-1.16,2.7c-.5.77-1.12,1.36-1.88,1.77-.75.42-1.63.55-2.65.4-.1-1.52-.27-3.06-.51-4.64s-.52-3.06-.83-4.45c-.31-1.39-.63-2.62-.97-3.69-.34-1.07-.66-1.86-.96-2.38.7.12,1.38.48,2.03,1.09s1.24,1.38,1.78,2.32c.53.94.99,2.01,1.36,3.2.38,1.19.63,2.42.76,3.69.53-1.48.92-2.93,1.17-4.35.25-1.42.43-2.7.55-3.85.03-.43.03-.81-.01-1.12-.04-.32-.15-.64-.31-.98.83.2,1.59.64,2.26,1.33.67.68,1.26,1.5,1.76,2.46.5.96.91,2,1.22,3.14s.54,2.26.67,3.38c.38-1.07.69-2.14.93-3.21.23-1.08.41-2.09.54-3.04.12-.95.22-1.81.29-2.58.07-.77.12-1.38.18-1.82.37.47.67,1.06.92,1.79.25.73.44,1.51.56,2.36s.18,1.74.16,2.66c-.02.92-.11,1.83-.27,2.71-.17.88-.41,1.71-.74,2.49-.32.77-.73,1.44-1.22,2-.49.56-1.07.98-1.74,1.25-.67.27-1.42.35-2.28.24Z"/>
    <path class="cls-6" d="M120.05,42.69c-.7.7-1.43,1.15-2.2,1.36-.77.21-1.48.3-2.15.26-.65-.03-1.26-.2-1.83-.5-.57-.3-1.05-.7-1.46-1.19s-.72-1.06-.94-1.71c-.22-.65-.31-1.34-.27-2.08.03-.65.16-1.29.38-1.91.22-.62.54-1.18.97-1.67s.99-.88,1.66-1.18c.68-.29,1.49-.44,2.44-.44.53,0,1.04.06,1.51.19.48.12.93.35,1.36.66-.05-.7-.35-1.23-.91-1.59s-1.22-.6-2-.74-1.58-.17-2.41-.11c-.83.06-1.54.16-2.12.31.33-.55.73-1.03,1.19-1.45.46-.42.95-.76,1.47-1.04s1.06-.48,1.61-.61c.55-.13,1.09-.18,1.62-.15.95.05,1.76.29,2.42.71.67.43,1.21.98,1.64,1.65.42.67.74,1.45.94,2.32s.3,1.8.3,2.76c0,.8-.05,1.61-.16,2.42-.11.82-.28,1.6-.5,2.34-.22.74-.5,1.43-.83,2.06-.33.63-.7,1.18-1.11,1.62-.08-.32-.17-.69-.28-1.11-.1-.42-.22-.83-.35-1.21ZM114.93,38.49c.02.25.06.5.14.74s.19.46.34.66c.15.2.35.37.59.51.24.14.55.25.91.31.43.08.82.07,1.15-.04.33-.11.61-.27.84-.49.22-.22.4-.47.51-.76.12-.29.18-.59.18-.89,0-.4-.05-.77-.15-1.11-.1-.34-.25-.64-.45-.9-.2-.26-.46-.46-.77-.61-.32-.15-.69-.22-1.12-.2-.77.03-1.34.3-1.71.81-.38.51-.52,1.16-.44,1.96Z"/>
    <path class="cls-6" d="M124.63,31.41c.28-.42.57-.75.85-1s.55-.44.81-.58c.26-.13.5-.22.73-.26.22-.04.43-.06.61-.06.65,0,1.18.12,1.59.35.41.23.72.56.95.98.23.42.38.92.45,1.5.08.58.12,1.22.14,1.9.02.42.01,1.06-.01,1.93-.02.87-.02,1.92.01,3.17.02.58.12.98.3,1.17.18.2.58.3,1.17.3.37,0,.71-.01,1.04-.04s.67-.06,1.04-.11c0-1.13-.01-2.27-.04-3.41-.03-1.14-.06-2.21-.1-3.21-.04-1-.09-1.89-.15-2.68-.06-.78-.12-1.38-.19-1.8.97-.07,1.77.13,2.41.6s1.15,1.12,1.53,1.96c.38.84.62,1.81.75,2.91.12,1.1.15,2.25.06,3.44-.08,1.19-.25,2.38-.51,3.56-.26,1.18-.58,2.27-.97,3.26-.39.99-.84,1.84-1.34,2.55-.5.71-1.03,1.18-1.6,1.41.05-.47.09-1.25.11-2.34.02-1.09.04-2.34.04-3.74-.6.4-1.25.7-1.95.9-.7.2-1.4.3-2.1.3s-1.27-.09-1.7-.26c-.43-.18-.77-.43-1.01-.75-.24-.33-.4-.73-.49-1.2s-.12-1.01-.12-1.61c0-1.43,0-2.66-.01-3.68,0-1.02-.04-1.87-.09-2.55-.05-.68-.12-1.23-.21-1.62s-.22-.7-.39-.89c-.17-.19-.38-.31-.65-.36s-.58-.07-.95-.05Z"/>
  </g>
  <g>
    <path class="cls-3" d="M22.88,193.88c-2.09,0-3.69-1.59-3.69-3.67s1.6-3.67,3.69-3.67h2.02c.34,0,.61.28.61.61s-.28.61-.61.61h-2.02c-1.37,0-2.42,1.05-2.42,2.44s1.05,2.44,2.42,2.44h1.35v-1.83h-1.53c-.33,0-.61-.28-.61-.61s.28-.61.61-.61h2.14c.35,0,.63.29.63.63v3.03c0,.33-.28.61-.61.61h-1.98Z"/>
    <path class="cls-3" d="M29.59,193.88c-1.84,0-3.15-1.37-3.15-3.06s1.3-3.05,3.15-3.05h.73c1.16,0,1.94.82,1.94,1.83s-.77,1.83-1.94,1.83h-1.16c-.33,0-.61-.28-.61-.61s.28-.61.61-.61h1.16c.41,0,.69-.28.69-.61s-.28-.61-.69-.61h-.73c-1.11,0-1.9.83-1.9,1.83s.79,1.83,1.9,1.83h1.76c.33,0,.61.28.61.61s-.28.61-.61.61h-1.76Z"/>
    <path class="cls-3" d="M36.16,193.88c-1.84,0-3.15-1.37-3.15-3.06s1.3-3.05,3.15-3.05h.73c1.16,0,1.94.82,1.94,1.83s-.77,1.83-1.94,1.83h-1.16c-.33,0-.61-.28-.61-.61s.28-.61.61-.61h1.16c.41,0,.69-.28.69-.61s-.28-.61-.69-.61h-.73c-1.11,0-1.9.83-1.9,1.83s.79,1.83,1.9,1.83h1.76c.33,0,.61.28.61.61s-.28.61-.61.61h-1.76Z"/>
    <path class="cls-3" d="M40.6,188.99h-.73c-.33,0-.61-.28-.61-.61s.28-.61.61-.61h.73v-.41c0-1.14.84-2.03,2.09-2.03h1.22c.34,0,.61.28.61.61s-.28.61-.61.61h-1.22c-.51,0-.84.33-.84.8v.43h2.06c.34,0,.61.28.61.61s-.28.61-.61.61h-2.06v4.36c0,.35-.28.62-.62.62s-.62-.28-.62-.62v-4.36Z"/>
    <path class="cls-3" d="M50.69,193.88c-1.84,0-3.15-1.37-3.15-3.06s1.3-3.05,3.15-3.05h.73c1.16,0,1.94.82,1.94,1.83s-.77,1.83-1.94,1.83h-1.16c-.33,0-.61-.28-.61-.61s.28-.61.61-.61h1.16c.41,0,.69-.28.69-.61s-.28-.61-.69-.61h-.73c-1.11,0-1.9.83-1.9,1.83s.79,1.83,1.9,1.83h1.76c.34,0,.61.28.61.61s-.28.61-.61.61h-1.76Z"/>
    <path class="cls-3" d="M57.26,193.88c-1.84,0-3.15-1.37-3.15-3.06s1.3-3.05,3.15-3.05h.73c1.16,0,1.94.82,1.94,1.83s-.77,1.83-1.94,1.83h-1.16c-.33,0-.61-.28-.61-.61s.28-.61.61-.61h1.16c.41,0,.69-.28.69-.61s-.28-.61-.69-.61h-.73c-1.11,0-1.9.83-1.9,1.83s.79,1.83,1.9,1.83h1.76c.34,0,.61.28.61.61s-.28.61-.61.61h-1.76Z"/>
    <path class="cls-3" d="M64.89,190.19c0-.66-.54-1.2-1.2-1.2h-1.57v4.36c0,.35-.28.62-.62.62s-.62-.28-.62-.62v-4.96c0-.35.28-.62.62-.62h2.19c1.35,0,2.44,1.1,2.44,2.44v3.13c0,.35-.28.62-.62.62s-.62-.28-.62-.62v-3.16Z"/>
    <path class="cls-3" d="M71.16,190.94v2.41c0,.35-.28.62-.62.62s-.62-.28-.62-.62v-7.49c0-.35.28-.62.62-.62s.62.28.62.62v4.85l2.85-2.85c.24-.24.62-.24.86,0,.23.24.23.62,0,.86l-2.1,2.1,2.1,2.1c.24.24.23.62,0,.86-.24.24-.62.24-.86,0l-2.85-2.85Z"/>
    <path class="cls-3" d="M77.46,193.88c-1.12,0-1.89-.85-1.89-1.89s.77-1.89,1.89-1.89h1.16c.33,0,.61.28.61.61s-.28.61-.61.61h-1.16c-.38,0-.64.32-.64.67s.26.67.64.67h2.24v-2.58c0-.61-.43-1.08-1.06-1.08h-1.96c-.33,0-.61-.28-.61-.61s.28-.61.61-.61h1.96c1.29,0,2.31,1.03,2.31,2.29v3.19c0,.35-.22.62-.62.62h-2.86Z"/>
    <path class="cls-3" d="M83.8,193.88c-1.12,0-1.89-.85-1.89-1.89s.77-1.89,1.89-1.89h1.16c.33,0,.61.28.61.61s-.28.61-.61.61h-1.16c-.38,0-.64.32-.64.67s.26.67.64.67h2.24v-2.58c0-.61-.43-1.08-1.06-1.08h-1.96c-.33,0-.61-.28-.61-.61s.28-.61.61-.61h1.96c1.29,0,2.31,1.03,2.31,2.29v3.19c0,.35-.22.62-.62.62h-2.86Z"/>
    <path class="cls-3" d="M93.21,190.16c0,.35-.28.62-.62.62s-.62-.28-.62-.61v-.08c0-.61-.45-1.09-1.1-1.09h-1.1v4.36c0,.35-.28.62-.62.62s-.62-.28-.62-.62v-4.96c0-.35.28-.62.62-.62h1.72c1.31,0,2.34,1.05,2.34,2.32v.07Z"/>
    <path class="cls-3" d="M97,193.88c-1.19,0-2.16-.97-2.16-2.16v-2.73h-.73c-.33,0-.61-.28-.61-.61s.28-.61.61-.61h.73v-1.22c0-.35.28-.62.62-.62s.62.28.62.62v1.22h1.6c.33,0,.61.28.61.61s-.28.61-.61.61h-1.6v2.74c0,.52.39.92.92.92h.68c.33,0,.61.28.61.61s-.28.61-.61.61h-.69Z"/>
    <path class="cls-3" d="M105.7,190.19c0-.66-.54-1.2-1.2-1.2h-1.57v4.36c0,.35-.28.62-.62.62s-.62-.28-.62-.62v-4.96c0-.35.28-.62.62-.62h2.19c1.35,0,2.44,1.1,2.44,2.44v3.13c0,.35-.28.62-.62.62s-.62-.28-.62-.62v-3.16Z"/>
    <path class="cls-3" d="M109.81,193.88c-1.12,0-1.89-.85-1.89-1.89s.77-1.89,1.89-1.89h1.16c.33,0,.61.28.61.61s-.28.61-.61.61h-1.16c-.38,0-.65.32-.65.67s.26.67.65.67h2.24v-2.58c0-.61-.43-1.08-1.06-1.08h-1.96c-.33,0-.61-.28-.61-.61s.28-.61.61-.61h1.96c1.29,0,2.31,1.03,2.31,2.29v3.19c0,.35-.22.62-.62.62h-2.86Z"/>
    <path class="cls-3" d="M116.15,193.88c-1.12,0-1.89-.85-1.89-1.89s.77-1.89,1.89-1.89h1.16c.33,0,.61.28.61.61s-.28.61-.61.61h-1.16c-.38,0-.65.32-.65.67s.26.67.65.67h2.24v-2.58c0-.61-.43-1.08-1.06-1.08h-1.96c-.33,0-.61-.28-.61-.61s.28-.61.61-.61h1.96c1.29,0,2.31,1.03,2.31,2.29v3.19c0,.35-.22.62-.62.62h-2.86Z"/>
    <path class="cls-3" d="M125.56,190.16c0,.35-.28.62-.62.62s-.62-.28-.62-.61v-.08c0-.61-.45-1.09-1.1-1.09h-1.09v4.36c0,.35-.28.62-.62.62s-.62-.28-.62-.62v-4.96c0-.35.28-.62.62-.62h1.72c1.31,0,2.34,1.05,2.34,2.32v.07Z"/>
    <path class="cls-3" d="M20.72,207.28v2.41c0,.35-.28.62-.62.62s-.62-.28-.62-.62v-7.49c0-.35.28-.62.62-.62s.62.28.62.62v4.85l2.85-2.85c.24-.24.62-.24.86,0,.23.24.23.62,0,.86l-2.1,2.1,2.1,2.1c.24.24.23.62,0,.86-.24.24-.62.24-.86,0l-2.85-2.85Z"/>
    <path class="cls-3" d="M27.9,210.22c-1.84,0-3.15-1.37-3.15-3.06s1.3-3.05,3.15-3.05h.73c1.16,0,1.94.82,1.94,1.83s-.77,1.83-1.94,1.83h-1.16c-.33,0-.61-.28-.61-.61s.28-.61.61-.61h1.16c.41,0,.69-.28.69-.61s-.28-.61-.69-.61h-.73c-1.11,0-1.9.83-1.9,1.83s.79,1.83,1.9,1.83h1.76c.33,0,.61.28.61.61s-.28.61-.61.61h-1.76Z"/>
    <path class="cls-3" d="M35.55,204.64c0-.35.28-.62.62-.62s.62.28.62.62v3.09c0,1.45-1.19,2.64-2.64,2.64s-2.64-1.19-2.64-2.64v-3.09c0-.35.28-.62.62-.62s.62.28.62.62v3.12c0,.76.63,1.39,1.39,1.39s1.39-.63,1.39-1.39v-3.12Z"/>
    <path class="cls-3" d="M38.43,210.22c-.33,0-.61-.26-.61-.6,0-.14.06-.31.18-.46l3.15-3.83h-2.62c-.34,0-.61-.28-.61-.61s.28-.61.61-.61h3.87c.33,0,.6.26.6.6,0,.15-.06.31-.18.46l-3.15,3.83h2.61c.33,0,.61.28.61.61s-.28.61-.61.61h-3.85Z"/>
    <path class="cls-3" d="M46.42,210.22c-1.84,0-3.15-1.37-3.15-3.06s1.3-3.05,3.15-3.05h.73c1.16,0,1.94.82,1.94,1.83s-.77,1.83-1.94,1.83h-1.16c-.33,0-.61-.28-.61-.61s.28-.61.61-.61h1.16c.41,0,.69-.28.69-.61s-.28-.61-.69-.61h-.73c-1.11,0-1.9.83-1.9,1.83s.79,1.83,1.9,1.83h1.76c.33,0,.61.28.61.61s-.28.61-.61.61h-1.76Z"/>
    <path class="cls-3" d="M59.63,204.64c0-.35.28-.62.62-.62s.62.28.62.62v3.39c0,1.29-1.05,2.34-2.34,2.34-.73,0-1.38-.34-1.81-.85-.43.52-1.08.85-1.81.85-1.29,0-2.34-1.05-2.34-2.34v-3.39c0-.35.28-.62.62-.62s.62.28.62.62v3.41c0,.62.52,1.14,1.14,1.14s1.14-.52,1.14-1.14v-3.41c0-.35.28-.62.62-.62s.62.28.62.62v3.41c0,.62.52,1.14,1.14,1.14s1.14-.52,1.14-1.14v-3.41Z"/>
    <path class="cls-3" d="M64.97,210.22c-1.84,0-3.15-1.37-3.15-3.06s1.3-3.05,3.15-3.05h.73c1.16,0,1.94.82,1.94,1.83s-.77,1.83-1.94,1.83h-1.16c-.33,0-.61-.28-.61-.61s.28-.61.61-.61h1.16c.41,0,.69-.28.69-.61s-.28-.61-.69-.61h-.73c-1.11,0-1.9.83-1.9,1.83s.79,1.83,1.9,1.83h1.76c.33,0,.61.28.61.61s-.28.61-.61.61h-1.76Z"/>
    <path class="cls-3" d="M69.84,212.66c-.33,0-.61-.28-.61-.61s.28-.61.61-.61h2.19c.52,0,.93-.41.93-.93v-.29h-1.42c-1.84,0-3.15-1.37-3.15-3.06s1.3-3.05,3.15-3.05h2.04c.35,0,.62.28.62.62v5.78c0,1.19-.97,2.16-2.16,2.16h-2.21ZM72.96,205.33h-1.42c-1.11,0-1.9.83-1.9,1.83s.79,1.83,1.9,1.83h1.42v-3.67Z"/>
    <path class="cls-3" d="M79.61,210.22c-1.12,0-1.89-.85-1.89-1.89s.77-1.89,1.89-1.89h1.16c.33,0,.61.28.61.61s-.28.61-.61.61h-1.16c-.38,0-.65.32-.65.67s.27.67.65.67h2.24v-2.58c0-.61-.43-1.08-1.06-1.08h-1.96c-.33,0-.61-.28-.61-.61s.28-.61.61-.61h1.96c1.29,0,2.31,1.03,2.31,2.29v3.19c0,.35-.22.62-.62.62h-2.86Z"/>
    <path class="cls-3" d="M85.95,210.22c-1.12,0-1.89-.85-1.89-1.89s.77-1.89,1.89-1.89h1.16c.33,0,.61.28.61.61s-.28.61-.61.61h-1.16c-.38,0-.65.32-.65.67s.27.67.65.67h2.24v-2.58c0-.61-.43-1.08-1.06-1.08h-1.96c-.33,0-.61-.28-.61-.61s.28-.61.61-.61h1.96c1.29,0,2.31,1.03,2.31,2.29v3.19c0,.35-.22.62-.62.62h-2.86Z"/>
    <path class="cls-3" d="M94.69,206.53c0-.66-.54-1.2-1.2-1.2h-1.57v4.36c0,.35-.28.62-.62.62s-.62-.28-.62-.62v-4.96c0-.35.28-.62.62-.62h2.19c1.35,0,2.44,1.1,2.44,2.44v3.13c0,.35-.28.62-.62.62s-.62-.28-.62-.62v-3.16Z"/>
    <path class="cls-3" d="M102.57,210.22c-1.84,0-3.15-1.37-3.15-3.06s1.3-3.05,3.15-3.05h.73c1.16,0,1.94.82,1.94,1.83s-.77,1.83-1.94,1.83h-1.16c-.33,0-.61-.28-.61-.61s.28-.61.61-.61h1.16c.41,0,.69-.28.69-.61s-.28-.61-.69-.61h-.73c-1.11,0-1.9.83-1.9,1.83s.8,1.83,1.9,1.83h1.76c.33,0,.61.28.61.61s-.28.61-.61.61h-1.76Z"/>
    <path class="cls-3" d="M109.14,210.22c-1.84,0-3.15-1.37-3.15-3.06s1.3-3.05,3.15-3.05h.73c1.16,0,1.94.82,1.94,1.83s-.77,1.83-1.94,1.83h-1.16c-.33,0-.61-.28-.61-.61s.28-.61.61-.61h1.16c.41,0,.69-.28.69-.61s-.28-.61-.69-.61h-.73c-1.11,0-1.9.83-1.9,1.83s.8,1.83,1.9,1.83h1.76c.33,0,.61.28.61.61s-.28.61-.61.61h-1.76Z"/>
    <path class="cls-3" d="M116.76,206.53c0-.66-.54-1.2-1.2-1.2h-1.57v4.36c0,.35-.28.62-.62.62s-.62-.28-.62-.62v-4.96c0-.35.28-.62.62-.62h2.19c1.35,0,2.44,1.1,2.44,2.44v3.13c0,.35-.28.62-.62.62s-.62-.28-.62-.62v-3.16Z"/>
    <path class="cls-3" d="M20.72,226.56v1.91c0,.35-.28.62-.62.62s-.62-.28-.62-.62v-7.4c0-.35.28-.62.62-.62h2.04c1.84,0,3.15,1.37,3.15,3.05s-1.3,3.06-3.15,3.06h-1.42ZM22.14,225.34c1.11,0,1.9-.83,1.9-1.83s-.79-1.83-1.9-1.83h-1.42v3.67h1.42Z"/>
    <path class="cls-3" d="M29.19,226.56c-1.84,0-3.15-1.37-3.15-3.06s1.3-3.05,3.15-3.05h.73c1.16,0,1.94.82,1.94,1.83s-.77,1.83-1.94,1.83h-1.16c-.33,0-.61-.28-.61-.61s.28-.61.61-.61h1.16c.41,0,.69-.28.69-.61s-.28-.61-.69-.61h-.73c-1.11,0-1.9.83-1.9,1.83s.79,1.83,1.9,1.83h1.76c.33,0,.61.28.61.61s-.28.61-.61.61h-1.76Z"/>
    <path class="cls-3" d="M37.49,222.83c0,.35-.28.62-.62.62s-.62-.28-.62-.61v-.08c0-.61-.45-1.09-1.1-1.09h-1.1v4.36c0,.35-.28.62-.62.62s-.62-.28-.62-.62v-4.96c0-.35.28-.62.62-.62h1.72c1.31,0,2.34,1.05,2.34,2.32v.07Z"/>
    <path class="cls-3" d="M38.94,226.56c-.33,0-.61-.28-.61-.61s.28-.61.61-.61h2.58c.41,0,.69-.28.69-.61s-.28-.61-.69-.61h-1.43c-1.16,0-1.94-.82-1.94-1.83s.77-1.83,1.94-1.83h2.58c.33,0,.61.28.61.61s-.28.61-.61.61h-2.58c-.41,0-.69.28-.69.61s.28.61.69.61h1.43c1.16,0,1.94.82,1.94,1.83s-.77,1.83-1.94,1.83h-2.58Z"/>
    <path class="cls-3" d="M47.35,226.71c-1.9,0-3.24-1.43-3.24-3.21s1.34-3.2,3.24-3.2,3.24,1.43,3.24,3.2-1.35,3.21-3.24,3.21ZM47.35,221.51c-1.15,0-1.99.9-1.99,1.99s.84,1.99,1.99,1.99,1.99-.9,1.99-1.99-.84-1.99-1.99-1.99Z"/>
    <path class="cls-3" d="M54.59,226.71c-1.9,0-3.24-1.43-3.24-3.21s1.34-3.2,3.24-3.2,3.24,1.43,3.24,3.2-1.35,3.21-3.24,3.21ZM54.59,221.51c-1.15,0-1.99.9-1.99,1.99s.84,1.99,1.99,1.99,1.99-.9,1.99-1.99-.84-1.99-1.99-1.99Z"/>
    <path class="cls-3" d="M62.79,222.87c0-.66-.54-1.2-1.2-1.2h-1.57v4.36c0,.35-.28.62-.62.62s-.62-.28-.62-.62v-4.96c0-.35.28-.62.62-.62h2.19c1.35,0,2.44,1.1,2.44,2.44v3.13c0,.35-.28.62-.62.62s-.62-.28-.62-.62v-3.16Z"/>
    <path class="cls-3" d="M71.83,222.87c0-.66-.54-1.2-1.2-1.2h-1.57v4.36c0,.35-.28.62-.62.62s-.62-.28-.62-.62v-4.96c0-.35.28-.62.62-.62h2.19c1.35,0,2.44,1.1,2.44,2.44v3.13c0,.35-.28.62-.62.62s-.62-.28-.62-.62v-3.16Z"/>
    <path class="cls-3" d="M75.94,226.56c-1.12,0-1.89-.85-1.89-1.89s.77-1.89,1.89-1.89h1.16c.33,0,.61.28.61.61s-.28.61-.61.61h-1.16c-.38,0-.64.32-.64.67s.26.67.64.67h2.24v-2.58c0-.61-.43-1.08-1.06-1.08h-1.96c-.33,0-.61-.28-.61-.61s.28-.61.61-.61h1.96c1.29,0,2.31,1.03,2.31,2.29v3.19c0,.35-.22.62-.62.62h-2.86Z"/>
    <path class="cls-3" d="M82.28,226.56c-1.12,0-1.89-.85-1.89-1.89s.77-1.89,1.89-1.89h1.16c.33,0,.61.28.61.61s-.28.61-.61.61h-1.16c-.38,0-.64.32-.64.67s.26.67.64.67h2.24v-2.58c0-.61-.43-1.08-1.06-1.08h-1.96c-.33,0-.61-.28-.61-.61s.28-.61.61-.61h1.96c1.29,0,2.31,1.03,2.31,2.29v3.19c0,.35-.22.62-.62.62h-2.86Z"/>
    <path class="cls-3" d="M91.69,222.83c0,.35-.28.62-.62.62s-.62-.28-.62-.61v-.08c0-.61-.45-1.09-1.09-1.09h-1.1v4.36c0,.35-.28.62-.62.62s-.62-.28-.62-.62v-4.96c0-.35.28-.62.62-.62h1.72c1.31,0,2.34,1.05,2.34,2.32v.07Z"/>
    <path class="cls-3" d="M96.44,223.62v2.41c0,.35-.28.62-.62.62s-.62-.28-.62-.62v-7.49c0-.35.28-.62.62-.62s.62.28.62.62v4.85l2.85-2.85c.24-.24.62-.24.86,0,.23.24.23.62,0,.86l-2.1,2.1,2.1,2.1c.24.24.23.62,0,.86-.24.24-.62.24-.86,0l-2.85-2.85Z"/>
    <path class="cls-3" d="M103.63,226.56c-1.84,0-3.15-1.37-3.15-3.06s1.3-3.05,3.15-3.05h.73c1.16,0,1.94.82,1.94,1.83s-.77,1.83-1.94,1.83h-1.16c-.33,0-.61-.28-.61-.61s.28-.61.61-.61h1.16c.41,0,.69-.28.69-.61s-.28-.61-.69-.61h-.73c-1.11,0-1.9.83-1.9,1.83s.8,1.83,1.9,1.83h1.76c.33,0,.61.28.61.61s-.28.61-.61.61h-1.76Z"/>
    <path class="cls-3" d="M111.27,220.98c0-.35.28-.62.62-.62s.62.28.62.62v3.09c0,1.45-1.19,2.64-2.64,2.64s-2.64-1.19-2.64-2.64v-3.09c0-.35.28-.62.62-.62s.62.28.62.62v3.12c0,.76.63,1.39,1.39,1.39s1.39-.63,1.39-1.39v-3.12Z"/>
    <path class="cls-3" d="M114.16,226.56c-.33,0-.61-.26-.61-.6,0-.14.06-.31.18-.46l3.15-3.83h-2.62c-.33,0-.61-.28-.61-.61s.28-.61.61-.61h3.87c.33,0,.6.26.6.6,0,.15-.06.31-.18.46l-3.15,3.83h2.61c.33,0,.61.28.61.61s-.28.61-.61.61h-3.85Z"/>
    <path class="cls-3" d="M122.15,226.56c-1.84,0-3.15-1.37-3.15-3.06s1.3-3.05,3.15-3.05h.73c1.16,0,1.94.82,1.94,1.83s-.77,1.83-1.94,1.83h-1.16c-.33,0-.61-.28-.61-.61s.28-.61.61-.61h1.16c.41,0,.69-.28.69-.61s-.28-.61-.69-.61h-.73c-1.11,0-1.9.83-1.9,1.83s.8,1.83,1.9,1.83h1.76c.33,0,.61.28.61.61s-.28.61-.61.61h-1.76Z"/>
  </g>
  <g>
    <rect class="cls-1" x="38.8" y="76.53" width="86.81" height="86.81" rx="12" ry="12"/>
    <polygon class="cls-2" points="125.61 114.19 87.95 114.19 87.95 76.53 76.46 76.53 76.46 114.19 38.8 114.19 38.8 125.68 76.46 125.68 76.46 163.34 87.95 163.34 87.95 125.68 125.61 125.68 125.61 114.19"/>
    <path class="cls-5" d="M86.27,73.29c2.7-1.55,5.46-2.86,8.46-3.74,1.09-.32,8.21-2.33,8.68-1.44.98,1.87-8.87,2.08-9.76,1.9-2.95-.59-5.69-1.95-8.26-3.47-4.86-2.87-8.91-5.74-14.64-6.54-4.52-.63-9.55-1.07-14,.21-7.46,2.16-12.39,12.61-3.58,16.6,9.54,4.32,21.74,2.13,30.72-2.37,4.6-2.31.56-9.21-4.04-6.91-5.43,2.72-11.47,3.95-17.53,3.29-2.42-.26-7.89-.86-3.45-2.9,2.07-.95,5.17-.51,7.38-.36,11.56.76,19.31,11.23,31.35,10.75,6.78-.27,19.38-7.21,12.45-15.37-6.15-7.25-21.45-.22-27.81,3.44-4.46,2.57-.44,9.48,4.04,6.91h0Z"/>
  </g>
</svg>