<?xml version="1.0" encoding="UTF-8"?>
<svg id="Laag_1" data-name="Laag 1" xmlns="http://www.w3.org/2000/svg" viewBox="0 0 164.41 249.45">
  <defs>
    <style>
      .cls-1 {
        stroke: #1d1e1c;
        stroke-linecap: round;
        stroke-linejoin: round;
        stroke-width: 5px;
      }

      .cls-1, .cls-2 {
        fill: #1d1d1b;
      }

      .cls-3 {
        fill: #8082b8;
      }

      .cls-3, .cls-2 {
        stroke-width: 0px;
      }
    </style>
  </defs>
  <rect class="cls-3" x="0" y="0" width="164.41" height="249.45"/>
  <path class="cls-2" d="M31.81,44.18c.05-.65.08-1.4.11-2.27.02-.86.05-1.8.07-2.81-1.1.24-2.13.4-3.08.47-.95.07-1.71.06-2.29-.04-1.18-.14-2.11-.48-2.81-1.01-.7-.53-1.22-1.17-1.58-1.93-.36-.76-.58-1.6-.67-2.52-.08-.92-.09-1.85-.02-2.79.07-.96.15-2,.23-3.13.08-1.13.1-2.27.05-3.42-.05-1.15-.19-2.29-.41-3.4-.23-1.12-.62-2.13-1.17-3.04,1.49.12,2.65.56,3.49,1.31.84.76,1.46,1.68,1.85,2.77.4,1.09.63,2.29.72,3.58.08,1.3.13,2.56.13,3.78.05,1.34.17,2.41.38,3.2s.52,1.39.95,1.78,1,.64,1.69.74c.7.1,1.55.13,2.56.11,0-1.75-.02-3.55-.05-5.38s-.08-3.58-.13-5.24c-.05-1.66-.11-3.16-.2-4.5-.08-1.34-.17-2.38-.27-3.1,1.13.05,2.08.34,2.86.86.78.53,1.41,1.24,1.89,2.12.48.89.83,1.91,1.06,3.08.23,1.16.34,2.4.34,3.71s-.1,2.65-.29,4.01c-.19,1.37-.45,2.7-.76,4,.82-.12,1.62-.26,2.41-.43s1.57-.35,2.34-.54c-.6.86-1.4,1.61-2.39,2.25-1,.64-2.07,1.18-3.22,1.64-.53,1.51-1.12,2.81-1.78,3.89s-1.34,1.82-2.03,2.23Z"/>
  <path class="cls-2" d="M135.26,201.97c-.05.65-.08,1.4-.11,2.27-.02.86-.05,1.8-.07,2.81,1.1-.24,2.13-.4,3.08-.47.95-.07,1.71-.06,2.29.04,1.18.14,2.11.48,2.81,1.01.7.53,1.22,1.17,1.58,1.93.36.76.58,1.6.67,2.52.08.92.09,1.85.02,2.79-.07.96-.15,2-.23,3.13-.08,1.13-.1,2.27-.05,3.42.05,1.15.19,2.29.41,3.4s.62,2.13,1.17,3.04c-1.49-.12-2.65-.56-3.49-1.31-.84-.76-1.46-1.68-1.85-2.77-.4-1.09-.64-2.29-.72-3.58-.08-1.3-.12-2.56-.12-3.78-.05-1.34-.17-2.41-.38-3.2-.2-.79-.52-1.39-.95-1.78-.43-.4-1-.64-1.69-.74-.7-.1-1.55-.13-2.56-.11,0,1.75.02,3.55.05,5.38.04,1.84.08,3.58.13,5.24.05,1.66.11,3.16.2,4.5.08,1.34.17,2.38.27,3.1-1.13-.05-2.08-.34-2.86-.86-.78-.53-1.41-1.24-1.89-2.12-.48-.89-.83-1.91-1.06-3.08-.23-1.17-.34-2.4-.34-3.71s.1-2.65.29-4.01c.19-1.37.44-2.7.76-4-.82.12-1.62.26-2.41.43-.79.17-1.57.35-2.34.54.6-.86,1.4-1.61,2.39-2.25,1-.64,2.07-1.18,3.22-1.64.53-1.51,1.12-2.81,1.78-3.89s1.34-1.82,2.03-2.23Z"/>
  <path class="cls-1" d="M121.35,124.72c-10.81,0-20.6,4.49-27.68,11.76-7.09,7.27-11.47,17.3-11.47,28.39,0-11.09-4.38-21.12-11.46-28.39s-16.87-11.76-27.68-11.76c0-11.09,4.38-21.13,11.46-28.39,7.09-7.27,16.87-11.76,27.68-11.76s20.6,4.49,27.68,11.76c7.09,7.26,11.47,17.3,11.47,28.39Z"/>
</svg>