<?xml version="1.0" encoding="UTF-8"?>
<svg id="Laag_1" data-name="Laag 1" xmlns="http://www.w3.org/2000/svg" viewBox="0 0 164.41 249.45">
  <defs>
    <style>
      .cls-1 {
        stroke: #1d1d1b;
        stroke-linecap: round;
        stroke-linejoin: round;
        stroke-width: 2px;
      }

      .cls-1, .cls-2, .cls-3 {
        fill: #fff;
      }

      .cls-2 {
        stroke: #fff;
        stroke-miterlimit: 10;
        stroke-width: .44px;
      }

      .cls-4 {
        fill: #8082b8;
      }

      .cls-4, .cls-5, .cls-6, .cls-7, .cls-8, .cls-9, .cls-10, .cls-3, .cls-11, .cls-12 {
        stroke-width: 0px;
      }

      .cls-5 {
        fill: #8081b7;
      }

      .cls-6 {
        fill: #2f2f2f;
      }

      .cls-7 {
        fill: #1d1d1b;
      }

      .cls-8 {
        fill: #090808;
      }

      .cls-9 {
        fill: #dd2b66;
      }

      .cls-10 {
        fill: #89ba3f;
      }

      .cls-11 {
        fill: #e97c23;
      }

      .cls-12 {
        fill: #eb7c19;
      }
    </style>
  </defs>
  <rect class="cls-6" x="0" width="164.41" height="249.45"/>
  <g>
    <path class="cls-4" d="M141.73,206.68c-4.35,0-7.89-3.7-7.89-8.26s3.54-8.25,7.89-8.25,7.89,3.7,7.89,8.25-3.54,8.26-7.89,8.26Z"/>
    <path class="cls-7" d="M141.73,191.17c3.8,0,6.89,3.25,6.89,7.26s-3.09,7.26-6.89,7.26-6.89-3.25-6.89-7.26,3.09-7.26,6.89-7.26M141.73,189.17c-4.91,0-8.89,4.14-8.89,9.26s3.98,9.26,8.89,9.26,8.89-4.14,8.89-9.26-3.98-9.26-8.89-9.26h0Z"/>
  </g>
  <g>
    <ellipse class="cls-12" cx="141.73" cy="226.17" rx="7.89" ry="8.26"/>
    <path class="cls-7" d="M141.73,218.92c3.8,0,6.89,3.25,6.89,7.26s-3.09,7.26-6.89,7.26-6.89-3.25-6.89-7.26,3.09-7.26,6.89-7.26M141.73,216.92c-4.91,0-8.89,4.14-8.89,9.26s3.98,9.26,8.89,9.26,8.89-4.14,8.89-9.26-3.98-9.26-8.89-9.26h0Z"/>
  </g>
  <g>
    <path class="cls-2" d="M20.55,177.76c0-.32.27-.58.58-.58s.58.26.58.58v5.73c0,.32-.27.58-.58.58s-.58-.26-.58-.58v-5.73Z"/>
    <path class="cls-2" d="M25.48,183.99c-1.69,0-2.89-1.26-2.89-2.8s1.2-2.8,2.89-2.8h.67c1.07,0,1.78.75,1.78,1.68s-.71,1.68-1.78,1.68h-1.07c-.31,0-.56-.25-.56-.56s.25-.56.56-.56h1.07c.38,0,.63-.25.63-.56s-.25-.56-.63-.56h-.67c-1.01,0-1.74.76-1.74,1.68s.73,1.68,1.74,1.68h1.62c.31,0,.56.25.56.56s-.25.56-.56.56h-1.62Z"/>
    <path class="cls-2" d="M31.51,183.99c-1.69,0-2.89-1.26-2.89-2.8s1.2-2.8,2.89-2.8h1.3v-1.76c0-.32.25-.57.57-.57s.57.25.57.57v6.79c0,.32-.25.57-.57.57h-1.87ZM32.81,179.51h-1.3c-1.01,0-1.74.76-1.74,1.68s.73,1.68,1.74,1.68h1.3v-3.36Z"/>
    <path class="cls-2" d="M37.71,183.99c-1.69,0-2.89-1.26-2.89-2.8s1.19-2.8,2.89-2.8h.67c1.07,0,1.78.75,1.78,1.68s-.71,1.68-1.78,1.68h-1.07c-.31,0-.56-.25-.56-.56s.25-.56.56-.56h1.07c.38,0,.63-.25.63-.56s-.25-.56-.63-.56h-.67c-1.02,0-1.75.76-1.75,1.68s.73,1.68,1.75,1.68h1.62c.31,0,.56.25.56.56s-.25.56-.56.56h-1.62Z"/>
    <path class="cls-2" d="M45.32,180.58c0,.32-.25.57-.57.57s-.57-.25-.57-.56v-.07c0-.56-.41-1-1-1h-1v4c0,.32-.25.57-.57.57s-.57-.25-.57-.57v-4.55c0-.32.25-.57.57-.57h1.58c1.21,0,2.15.96,2.15,2.13v.06Z"/>
    <path class="cls-2" d="M48.82,183.99c-1.69,0-2.89-1.26-2.89-2.8s1.19-2.8,2.89-2.8h.67c1.07,0,1.78.75,1.78,1.68s-.71,1.68-1.78,1.68h-1.07c-.31,0-.56-.25-.56-.56s.25-.56.56-.56h1.07c.38,0,.63-.25.63-.56s-.25-.56-.63-.56h-.67c-1.02,0-1.75.76-1.75,1.68s.73,1.68,1.75,1.68h1.62c.31,0,.56.25.56.56s-.25.56-.56.56h-1.62Z"/>
    <path class="cls-2" d="M54.85,183.99c-1.69,0-2.89-1.26-2.89-2.8s1.19-2.8,2.89-2.8h.67c1.07,0,1.78.75,1.78,1.68s-.71,1.68-1.78,1.68h-1.07c-.31,0-.56-.25-.56-.56s.25-.56.56-.56h1.07c.38,0,.63-.25.63-.56s-.25-.56-.63-.56h-.67c-1.02,0-1.74.76-1.74,1.68s.73,1.68,1.74,1.68h1.62c.31,0,.56.25.56.56s-.25.56-.56.56h-1.62Z"/>
    <path class="cls-2" d="M61.84,180.61c0-.6-.5-1.1-1.1-1.1h-1.44v4c0,.32-.25.57-.57.57s-.57-.25-.57-.57v-4.55c0-.32.25-.57.57-.57h2.01c1.24,0,2.24,1,2.24,2.24v2.88c0,.32-.25.57-.57.57s-.57-.25-.57-.57v-2.9Z"/>
    <path class="cls-2" d="M66.46,176.63c0-.32.25-.57.57-.57s.57.25.57.57v6.87c0,.32-.25.57-.57.57s-.57-.25-.57-.57v-6.87Z"/>
    <path class="cls-2" d="M70.22,183.99c-1.02,0-1.73-.78-1.73-1.73s.71-1.73,1.73-1.73h1.07c.31,0,.56.25.56.56s-.25.56-.56.56h-1.07c-.35,0-.59.3-.59.61s.24.61.59.61h2.05v-2.37c0-.56-.39-.99-.97-.99h-1.8c-.31,0-.56-.25-.56-.56s.25-.56.56-.56h1.8c1.18,0,2.12.94,2.12,2.1v2.93c0,.32-.2.57-.57.57h-2.62Z"/>
    <path class="cls-2" d="M76.05,183.99c-1.03,0-1.73-.78-1.73-1.73s.71-1.73,1.73-1.73h1.07c.31,0,.56.25.56.56s-.25.56-.56.56h-1.07c-.35,0-.59.3-.59.61s.24.61.59.61h2.05v-2.37c0-.56-.39-.99-.97-.99h-1.8c-.31,0-.56-.25-.56-.56s.25-.56.56-.56h1.8c1.18,0,2.11.94,2.11,2.1v2.93c0,.32-.2.57-.57.57h-2.62Z"/>
    <path class="cls-2" d="M82.81,183.99c-1.09,0-1.98-.89-1.98-1.98v-2.51h-.67c-.31,0-.56-.25-.56-.56s.25-.56.56-.56h.67v-1.12c0-.32.25-.57.57-.57s.57.25.57.57v1.12h1.47c.31,0,.56.25.56.56s-.25.56-.56.56h-1.47v2.52c0,.48.36.85.85.85h.62c.31,0,.56.25.56.56s-.25.56-.56.56h-.63Z"/>
    <path class="cls-2" d="M89.73,183.99c-1.69,0-2.89-1.26-2.89-2.8s1.2-2.8,2.89-2.8h.67c1.07,0,1.78.75,1.78,1.68s-.71,1.68-1.78,1.68h-1.07c-.31,0-.56-.25-.56-.56s.25-.56.56-.56h1.07c.38,0,.63-.25.63-.56s-.25-.56-.63-.56h-.67c-1.02,0-1.75.76-1.75,1.68s.73,1.68,1.75,1.68h1.62c.31,0,.56.25.56.56s-.25.56-.56.56h-1.62Z"/>
    <path class="cls-2" d="M95.76,183.99c-1.69,0-2.89-1.26-2.89-2.8s1.2-2.8,2.89-2.8h.67c1.07,0,1.78.75,1.78,1.68s-.71,1.68-1.78,1.68h-1.07c-.31,0-.56-.25-.56-.56s.25-.56.56-.56h1.07c.38,0,.63-.25.63-.56s-.25-.56-.63-.56h-.67c-1.02,0-1.75.76-1.75,1.68s.73,1.68,1.75,1.68h1.62c.31,0,.56.25.56.56s-.25.56-.56.56h-1.62Z"/>
    <path class="cls-2" d="M102.75,180.61c0-.6-.5-1.1-1.1-1.1h-1.44v4c0,.32-.25.57-.57.57s-.57-.25-.57-.57v-4.55c0-.32.25-.57.57-.57h2.01c1.24,0,2.24,1,2.24,2.24v2.88c0,.32-.25.57-.57.57s-.57-.25-.57-.57v-2.9Z"/>
    <path class="cls-2" d="M108.51,181.3v2.21c0,.32-.25.57-.57.57s-.57-.25-.57-.57v-6.87c0-.32.25-.57.57-.57s.57.25.57.57v4.45l2.61-2.61c.22-.22.57-.22.79,0,.21.22.21.57,0,.79l-1.92,1.92,1.92,1.93c.22.22.21.57,0,.79-.22.22-.57.22-.79,0l-2.61-2.61Z"/>
    <path class="cls-2" d="M114.29,183.99c-1.03,0-1.74-.78-1.74-1.73s.71-1.73,1.74-1.73h1.07c.31,0,.56.25.56.56s-.25.56-.56.56h-1.07c-.35,0-.59.3-.59.61s.24.61.59.61h2.05v-2.37c0-.56-.39-.99-.97-.99h-1.8c-.31,0-.56-.25-.56-.56s.25-.56.56-.56h1.8c1.18,0,2.12.94,2.12,2.1v2.93c0,.32-.2.57-.57.57h-2.62Z"/>
    <path class="cls-2" d="M120.11,183.99c-1.03,0-1.74-.78-1.74-1.73s.71-1.73,1.74-1.73h1.07c.31,0,.56.25.56.56s-.25.56-.56.56h-1.07c-.35,0-.59.3-.59.61s.24.61.59.61h2.05v-2.37c0-.56-.39-.99-.97-.99h-1.8c-.31,0-.56-.25-.56-.56s.25-.56.56-.56h1.8c1.18,0,2.11.94,2.11,2.1v2.93c0,.32-.2.57-.57.57h-2.62Z"/>
    <path class="cls-2" d="M128.74,180.58c0,.32-.25.57-.57.57s-.57-.25-.57-.56v-.07c0-.56-.41-1-1-1h-1v4c0,.32-.25.57-.57.57s-.57-.25-.57-.57v-4.55c0-.32.25-.57.57-.57h1.58c1.21,0,2.15.96,2.15,2.13v.06Z"/>
    <path class="cls-2" d="M132.21,183.99c-1.09,0-1.98-.89-1.98-1.98v-2.51h-.67c-.31,0-.56-.25-.56-.56s.25-.56.56-.56h.67v-1.12c0-.32.25-.57.57-.57s.57.25.57.57v1.12h1.47c.31,0,.56.25.56.56s-.25.56-.56.56h-1.47v2.52c0,.48.36.85.85.85h.62c.31,0,.56.25.56.56s-.25.56-.56.56h-.63Z"/>
    <path class="cls-2" d="M24.24,193.86c0-.32.25-.57.57-.57s.57.25.57.57v2.83c0,1.33-1.09,2.42-2.42,2.42s-2.42-1.09-2.42-2.42v-2.83c0-.32.25-.57.57-.57s.57.25.57.57v2.87c0,.7.58,1.28,1.28,1.28s1.28-.58,1.28-1.28v-2.87Z"/>
    <path class="cls-2" d="M27.1,192.45c-.39,0-.71-.31-.71-.7s.32-.7.71-.7.71.31.71.7-.32.7-.71.7ZM26.53,193.86c0-.32.25-.57.57-.57s.57.25.57.57v4.63c0,.32-.25.57-.57.57s-.57-.25-.57-.57v-4.63Z"/>
    <path class="cls-2" d="M31.55,198.98c-1.09,0-1.98-.89-1.98-1.98v-2.51h-.67c-.31,0-.56-.25-.56-.56s.25-.56.56-.56h.67v-1.12c0-.32.25-.57.57-.57s.57.25.57.57v1.12h1.47c.31,0,.56.25.56.56s-.25.56-.56.56h-1.47v2.52c0,.48.36.85.85.85h.62c.31,0,.56.25.56.56s-.25.56-.56.56h-.63Z"/>
    <path class="cls-2" d="M36.22,198.98c-.31,0-.56-.24-.56-.55,0-.13.05-.29.17-.42l2.89-3.51h-2.4c-.31,0-.56-.25-.56-.56s.25-.56.56-.56h3.55c.31,0,.55.24.55.55,0,.14-.05.29-.17.42l-2.89,3.51h2.39c.31,0,.56.25.56.56s-.25.56-.56.56h-3.53Z"/>
    <path class="cls-2" d="M41.93,192.45c-.39,0-.71-.31-.71-.7s.32-.7.71-.7.71.31.71.7-.32.7-.71.7ZM41.36,193.86c0-.32.25-.57.57-.57s.57.25.57.57v4.63c0,.32-.25.57-.57.57s-.57-.25-.57-.57v-4.63Z"/>
    <path class="cls-2" d="M42.11,201.23c-.31,0-.56-.25-.56-.56s.25-.56.56-.56h.22c.95,0,1.31-.5,1.31-1.44v-4.8c0-.32.25-.57.57-.57s.57.25.57.57v4.79c0,1.58-.8,2.57-2.44,2.57h-.23ZM44.22,192.45c-.39,0-.71-.31-.71-.7s.32-.7.71-.7.71.31.71.7-.32.7-.71.7Z"/>
    <path class="cls-2" d="M49.61,195.6c0-.6-.5-1.1-1.1-1.1h-1.44v4c0,.32-.25.57-.57.57s-.57-.25-.57-.57v-4.55c0-.32.25-.57.57-.57h2.01c1.24,0,2.24,1,2.24,2.24v2.88c0,.32-.25.57-.57.57s-.57-.25-.57-.57v-2.9Z"/>
    <path class="cls-2" d="M56.84,198.98c-1.69,0-2.89-1.26-2.89-2.8s1.19-2.8,2.89-2.8h1.3v-1.76c0-.32.25-.57.57-.57s.57.25.57.57v6.79c0,.32-.25.57-.57.57h-1.87ZM58.14,194.5h-1.3c-1.02,0-1.75.76-1.75,1.68s.73,1.68,1.75,1.68h1.3v-3.36Z"/>
    <path class="cls-2" d="M63.04,198.98c-1.69,0-2.89-1.26-2.89-2.8s1.19-2.8,2.89-2.8h.67c1.07,0,1.78.75,1.78,1.68s-.71,1.68-1.78,1.68h-1.07c-.31,0-.56-.25-.56-.56s.25-.56.56-.56h1.07c.38,0,.63-.25.63-.56s-.25-.56-.63-.56h-.67c-1.02,0-1.74.76-1.74,1.68s.73,1.68,1.74,1.68h1.62c.31,0,.56.25.56.56s-.25.56-.56.56h-1.62Z"/>
    <path class="cls-2" d="M67.5,196.29v2.21c0,.32-.25.57-.57.57s-.57-.25-.57-.57v-6.87c0-.32.25-.57.57-.57s.57.25.57.57v4.45l2.61-2.61c.22-.22.57-.22.79,0,.21.22.21.57,0,.79l-1.92,1.92,1.92,1.93c.22.22.21.57,0,.79-.22.22-.57.22-.79,0l-2.61-2.61Z"/>
    <path class="cls-2" d="M76.86,198.98c-1.09,0-1.98-.89-1.98-1.98v-2.51h-.67c-.31,0-.56-.25-.56-.56s.25-.56.56-.56h.67v-1.12c0-.32.25-.57.57-.57s.57.25.57.57v1.12h1.47c.31,0,.56.25.56.56s-.25.56-.56.56h-1.47v2.52c0,.48.36.85.85.85h.62c.31,0,.56.25.56.56s-.25.56-.56.56h-.63Z"/>
    <path class="cls-2" d="M83.13,195.57c0,.32-.25.57-.57.57s-.57-.25-.57-.56v-.07c0-.56-.41-1-1-1h-1v4c0,.32-.25.57-.57.57s-.57-.25-.57-.57v-4.55c0-.32.25-.57.57-.57h1.58c1.21,0,2.15.96,2.15,2.13v.06Z"/>
    <path class="cls-2" d="M86.64,198.98c-1.69,0-2.89-1.26-2.89-2.8s1.19-2.8,2.89-2.8h.67c1.07,0,1.78.75,1.78,1.68s-.71,1.68-1.78,1.68h-1.07c-.31,0-.56-.25-.56-.56s.25-.56.56-.56h1.07c.38,0,.63-.25.63-.56s-.25-.56-.63-.56h-.67c-1.02,0-1.74.76-1.74,1.68s.73,1.68,1.74,1.68h1.62c.31,0,.56.25.56.56s-.25.56-.56.56h-1.62Z"/>
    <path class="cls-2" d="M91.09,196.29v2.21c0,.32-.25.57-.57.57s-.57-.25-.57-.57v-6.87c0-.32.25-.57.57-.57s.57.25.57.57v4.45l2.61-2.61c.22-.22.57-.22.79,0,.21.22.21.57,0,.79l-1.92,1.92,1.92,1.93c.22.22.21.57,0,.79-.22.22-.57.22-.79,0l-2.61-2.61Z"/>
    <path class="cls-2" d="M96.53,196.29v2.21c0,.32-.25.57-.57.57s-.57-.25-.57-.57v-6.87c0-.32.25-.57.57-.57s.57.25.57.57v4.45l2.61-2.61c.22-.22.57-.22.79,0,.21.22.21.57,0,.79l-1.92,1.92,1.92,1.93c.22.22.21.57,0,.79-.22.22-.57.22-.79,0l-2.61-2.61Z"/>
    <path class="cls-2" d="M103.12,198.98c-1.69,0-2.89-1.26-2.89-2.8s1.2-2.8,2.89-2.8h.67c1.07,0,1.78.75,1.78,1.68s-.71,1.68-1.78,1.68h-1.07c-.31,0-.56-.25-.56-.56s.25-.56.56-.56h1.07c.38,0,.63-.25.63-.56s-.25-.56-.63-.56h-.67c-1.02,0-1.75.76-1.75,1.68s.73,1.68,1.75,1.68h1.62c.31,0,.56.25.56.56s-.25.56-.56.56h-1.62Z"/>
    <path class="cls-2" d="M110.12,195.6c0-.6-.5-1.1-1.1-1.1h-1.44v4c0,.32-.25.57-.57.57s-.57-.25-.57-.57v-4.55c0-.32.25-.57.57-.57h2.01c1.24,0,2.24,1,2.24,2.24v2.88c0,.32-.25.57-.57.57s-.57-.25-.57-.57v-2.9Z"/>
    <path class="cls-2" d="M112.55,200.55c-.14.27-.47.38-.74.25-.27-.14-.39-.48-.26-.74l.99-2.08c.14-.29.48-.38.75-.25.27.14.4.49.25.75l-.99,2.07Z"/>
    <path class="cls-2" d="M117.21,198.98c-.31,0-.56-.24-.56-.55,0-.13.05-.29.17-.42l2.89-3.51h-2.4c-.31,0-.56-.25-.56-.56s.25-.56.56-.56h3.55c.31,0,.55.24.55.55,0,.14-.05.29-.17.42l-2.89,3.51h2.39c.31,0,.56.25.56.56s-.25.56-.56.56h-3.53Z"/>
    <path class="cls-2" d="M124.62,199.12c-1.74,0-2.97-1.31-2.97-2.94s1.23-2.94,2.97-2.94,2.97,1.31,2.97,2.94-1.24,2.94-2.97,2.94ZM124.62,194.35c-1.06,0-1.83.82-1.83,1.83s.77,1.83,1.83,1.83,1.83-.82,1.83-1.83-.77-1.83-1.83-1.83Z"/>
    <path class="cls-2" d="M20.98,213.97c-.31,0-.56-.25-.56-.56s.25-.56.56-.56h2.37c.38,0,.63-.25.63-.56s-.25-.56-.63-.56h-1.31c-1.07,0-1.78-.75-1.78-1.68s.71-1.68,1.78-1.68h2.37c.31,0,.56.25.56.56s-.25.56-.56.56h-2.37c-.38,0-.63.25-.63.56s.25.56.63.56h1.31c1.07,0,1.78.75,1.78,1.68s-.71,1.68-1.78,1.68h-2.37Z"/>
    <path class="cls-2" d="M28.61,213.97c-1.69,0-2.89-1.26-2.89-2.8s1.19-2.8,2.89-2.8h1.16c.31,0,.56.25.56.56s-.25.56-.56.56h-1.16c-1.02,0-1.74.76-1.74,1.68s.73,1.68,1.74,1.68h1.16c.31,0,.56.25.56.56s-.25.56-.56.56h-1.16Z"/>
    <path class="cls-2" d="M34.86,210.59c0-.6-.5-1.1-1.1-1.1h-1.44v4c0,.32-.25.57-.57.57s-.57-.25-.57-.57v-6.87c0-.32.25-.57.57-.57s.57.25.57.57v1.76h1.44c1.24,0,2.24,1,2.24,2.24v2.88c0,.32-.25.57-.57.57s-.57-.25-.57-.57v-2.9Z"/>
    <path class="cls-2" d="M40.85,208.85c0-.32.25-.57.57-.57s.57.25.57.57v2.83c0,1.33-1.09,2.42-2.42,2.42s-2.42-1.09-2.42-2.42v-2.83c0-.32.25-.57.57-.57s.57.25.57.57v2.87c0,.7.58,1.28,1.28,1.28s1.28-.58,1.28-1.28v-2.87Z"/>
    <path class="cls-2" d="M43.71,207.44c-.39,0-.71-.31-.71-.7s.32-.7.71-.7.71.31.71.7-.32.7-.71.7ZM43.14,208.85c0-.32.25-.57.57-.57s.57.25.57.57v4.63c0,.32-.25.57-.57.57s-.57-.25-.57-.57v-4.63Z"/>
    <path class="cls-2" d="M52.49,213.97c-1.09,0-1.98-.89-1.98-1.98v-2.51h-3.18v4c0,.32-.25.57-.57.57s-.57-.25-.57-.57v-4h-.67c-.31,0-.56-.25-.56-.56s.25-.56.56-.56h.67v-.38c0-1.05.77-1.86,1.91-1.86h1.11c.31,0,.56.25.56.56s-.25.56-.56.56h-1.11c-.47,0-.77.31-.77.73v.39h3.18v-1.12c0-.32.25-.57.57-.57s.57.25.57.57v1.12h1.46c.31,0,.56.25.56.56s-.25.56-.56.56h-1.46v2.52c0,.48.36.85.85.85h.61c.31,0,.56.25.56.56s-.25.56-.56.56h-.62Z"/>
    <path class="cls-2" d="M59.4,213.97c-1.69,0-2.89-1.26-2.89-2.8s1.19-2.8,2.89-2.8h.67c1.07,0,1.78.75,1.78,1.68s-.71,1.68-1.78,1.68h-1.07c-.31,0-.56-.25-.56-.56s.25-.56.56-.56h1.07c.38,0,.63-.25.63-.56s-.25-.56-.63-.56h-.67c-1.02,0-1.75.76-1.75,1.68s.73,1.68,1.75,1.68h1.62c.31,0,.56.25.56.56s-.25.56-.56.56h-1.62Z"/>
    <path class="cls-2" d="M67.01,210.56c0,.32-.25.57-.57.57s-.57-.25-.57-.56v-.07c0-.56-.41-1-1-1h-1v4c0,.32-.25.57-.57.57s-.57-.25-.57-.57v-4.55c0-.32.25-.57.57-.57h1.58c1.21,0,2.15.96,2.15,2.13v.06Z"/>
    <path class="cls-2" d="M70.8,213.97c-.32,0-.57-.25-.57-.57v-6.79c0-.32.25-.57.57-.57s.57.25.57.57v1.76h1.3c1.69,0,2.89,1.26,2.89,2.8s-1.2,2.8-2.89,2.8h-1.87ZM72.67,212.85c1.02,0,1.75-.76,1.75-1.68s-.73-1.68-1.75-1.68h-1.3v3.36h1.3Z"/>
    <path class="cls-2" d="M77,207.44c-.39,0-.71-.31-.71-.7s.32-.7.71-.7.71.31.71.7-.32.7-.71.7ZM76.43,208.85c0-.32.25-.57.57-.57s.57.25.57.57v4.63c0,.32-.25.57-.57.57s-.57-.25-.57-.57v-4.63Z"/>
    <path class="cls-2" d="M77.18,216.22c-.31,0-.56-.25-.56-.56s.25-.56.56-.56h.22c.95,0,1.31-.5,1.31-1.44v-4.8c0-.32.25-.57.57-.57s.57.25.57.57v4.79c0,1.58-.8,2.57-2.44,2.57h-.23ZM79.28,207.44c-.39,0-.71-.31-.71-.7s.32-.7.71-.7.71.31.71.7-.32.7-.71.7Z"/>
    <path class="cls-2" d="M83.9,207.44c-.39,0-.71-.31-.71-.7s.32-.7.71-.7.71.31.71.7-.32.7-.71.7ZM83.33,208.85c0-.32.25-.57.57-.57s.57.25.57.57v4.63c0,.32-.25.57-.57.57s-.57-.25-.57-.57v-4.63Z"/>
    <path class="cls-2" d="M88.22,213.97c-1.69,0-2.89-1.26-2.89-2.8s1.2-2.8,2.89-2.8h.67c1.07,0,1.78.75,1.78,1.68s-.71,1.68-1.78,1.68h-1.07c-.31,0-.56-.25-.56-.56s.25-.56.56-.56h1.07c.38,0,.63-.25.63-.56s-.25-.56-.63-.56h-.67c-1.02,0-1.74.76-1.74,1.68s.73,1.68,1.74,1.68h1.62c.31,0,.56.25.56.56s-.25.56-.56.56h-1.62Z"/>
    <path class="cls-2" d="M94.25,213.97c-1.69,0-2.89-1.26-2.89-2.8s1.2-2.8,2.89-2.8h1.3v-1.76c0-.32.25-.57.57-.57s.57.25.57.57v6.79c0,.32-.25.57-.57.57h-1.87ZM95.55,209.49h-1.3c-1.02,0-1.75.76-1.75,1.68s.73,1.68,1.75,1.68h1.3v-3.36Z"/>
    <path class="cls-2" d="M100.46,213.97c-1.69,0-2.89-1.26-2.89-2.8s1.2-2.8,2.89-2.8h.67c1.07,0,1.78.75,1.78,1.68s-.71,1.68-1.78,1.68h-1.07c-.31,0-.56-.25-.56-.56s.25-.56.56-.56h1.07c.38,0,.63-.25.63-.56s-.25-.56-.63-.56h-.67c-1.02,0-1.75.76-1.75,1.68s.73,1.68,1.75,1.68h1.62c.31,0,.56.25.56.56s-.25.56-.56.56h-1.62Z"/>
    <path class="cls-2" d="M108.06,210.56c0,.32-.25.57-.57.57s-.57-.25-.57-.56v-.07c0-.56-.41-1-1-1h-1v4c0,.32-.25.57-.57.57s-.57-.25-.57-.57v-4.55c0-.32.25-.57.57-.57h1.58c1.21,0,2.15.96,2.15,2.13v.06Z"/>
    <path class="cls-2" d="M111.57,213.97c-1.69,0-2.89-1.26-2.89-2.8s1.2-2.8,2.89-2.8h.67c1.07,0,1.78.75,1.78,1.68s-.71,1.68-1.78,1.68h-1.07c-.31,0-.56-.25-.56-.56s.25-.56.56-.56h1.07c.38,0,.63-.25.63-.56s-.25-.56-.63-.56h-.67c-1.02,0-1.75.76-1.75,1.68s.73,1.68,1.75,1.68h1.62c.31,0,.56.25.56.56s-.25.56-.56.56h-1.62Z"/>
    <path class="cls-2" d="M117.6,213.97c-1.69,0-2.89-1.26-2.89-2.8s1.2-2.8,2.89-2.8h.67c1.07,0,1.78.75,1.78,1.68s-.71,1.68-1.78,1.68h-1.07c-.31,0-.56-.25-.56-.56s.25-.56.56-.56h1.07c.38,0,.63-.25.63-.56s-.25-.56-.63-.56h-.67c-1.02,0-1.75.76-1.75,1.68s.73,1.68,1.75,1.68h1.62c.31,0,.56.25.56.56s-.25.56-.56.56h-1.62Z"/>
    <path class="cls-2" d="M124.59,210.59c0-.6-.5-1.1-1.1-1.1h-1.44v4c0,.32-.25.57-.57.57s-.57-.25-.57-.57v-4.55c0-.32.25-.57.57-.57h2.01c1.24,0,2.24,1,2.24,2.24v2.88c0,.32-.25.57-.57.57s-.57-.25-.57-.57v-2.9Z"/>
    <path class="cls-2" d="M23.15,228.96c-1.69,0-2.89-1.26-2.89-2.8s1.19-2.8,2.89-2.8h.67c1.07,0,1.78.75,1.78,1.68s-.71,1.68-1.78,1.68h-1.07c-.31,0-.56-.25-.56-.56s.25-.56.56-.56h1.07c.38,0,.63-.25.63-.56s-.25-.56-.63-.56h-.67c-1.02,0-1.75.76-1.75,1.68s.73,1.68,1.75,1.68h1.62c.31,0,.56.25.56.56s-.25.56-.56.56h-1.62Z"/>
    <path class="cls-2" d="M29.18,228.96c-1.69,0-2.89-1.26-2.89-2.8s1.19-2.8,2.89-2.8h.67c1.07,0,1.78.75,1.78,1.68s-.71,1.68-1.78,1.68h-1.07c-.31,0-.56-.25-.56-.56s.25-.56.56-.56h1.07c.38,0,.63-.25.63-.56s-.25-.56-.63-.56h-.67c-1.02,0-1.75.76-1.75,1.68s.73,1.68,1.75,1.68h1.62c.31,0,.56.25.56.56s-.25.56-.56.56h-1.62Z"/>
    <path class="cls-2" d="M36.17,225.58c0-.6-.5-1.1-1.1-1.1h-1.44v4c0,.32-.25.57-.57.57s-.57-.25-.57-.57v-4.55c0-.32.25-.57.57-.57h2.01c1.24,0,2.24,1,2.24,2.24v2.88c0,.32-.25.57-.57.57s-.57-.25-.57-.57v-2.9Z"/>
    <path class="cls-2" d="M41.93,226.27v2.21c0,.32-.25.57-.57.57s-.57-.25-.57-.57v-6.87c0-.32.25-.57.57-.57s.57.25.57.57v4.45l2.61-2.61c.22-.22.57-.22.79,0,.21.22.21.57,0,.79l-1.92,1.92,1.92,1.93c.22.22.21.57,0,.79-.22.22-.57.22-.79,0l-2.61-2.61Z"/>
    <path class="cls-2" d="M47.71,228.96c-1.02,0-1.73-.78-1.73-1.73s.71-1.73,1.73-1.73h1.07c.31,0,.56.25.56.56s-.25.56-.56.56h-1.07c-.35,0-.59.3-.59.61s.24.61.59.61h2.05v-2.37c0-.56-.39-.99-.97-.99h-1.8c-.31,0-.56-.25-.56-.56s.25-.56.56-.56h1.8c1.18,0,2.12.94,2.12,2.1v2.93c0,.32-.2.57-.57.57h-2.62Z"/>
    <path class="cls-2" d="M53.53,228.96c-1.02,0-1.73-.78-1.73-1.73s.71-1.73,1.73-1.73h1.07c.31,0,.56.25.56.56s-.25.56-.56.56h-1.07c-.35,0-.59.3-.59.61s.24.61.59.61h2.05v-2.37c0-.56-.39-.99-.97-.99h-1.8c-.31,0-.56-.25-.56-.56s.25-.56.56-.56h1.8c1.18,0,2.12.94,2.12,2.1v2.93c0,.32-.2.57-.57.57h-2.62Z"/>
    <path class="cls-2" d="M62.16,225.55c0,.32-.25.57-.57.57s-.57-.25-.57-.56v-.07c0-.56-.41-1-1-1h-1v4c0,.32-.25.57-.57.57s-.57-.25-.57-.57v-4.55c0-.32.25-.57.57-.57h1.58c1.21,0,2.15.96,2.15,2.13v.06Z"/>
    <path class="cls-2" d="M65.63,228.96c-1.09,0-1.98-.89-1.98-1.98v-2.51h-.67c-.31,0-.56-.25-.56-.56s.25-.56.56-.56h.67v-1.12c0-.32.25-.57.57-.57s.57.25.57.57v1.12h1.47c.31,0,.56.25.56.56s-.25.56-.56.56h-1.47v2.52c0,.48.36.85.85.85h.62c.31,0,.56.25.56.56s-.25.56-.56.56h-.63Z"/>
    <path class="cls-2" d="M72.55,228.96c-1.69,0-2.89-1.26-2.89-2.8s1.2-2.8,2.89-2.8h1.3v-1.76c0-.32.25-.57.57-.57s.57.25.57.57v6.79c0,.32-.25.57-.57.57h-1.87ZM73.85,224.48h-1.3c-1.02,0-1.74.76-1.74,1.68s.73,1.68,1.74,1.68h1.3v-3.36Z"/>
    <path class="cls-2" d="M78.84,229.1c-1.74,0-2.97-1.31-2.97-2.94s1.23-2.94,2.97-2.94,2.97,1.31,2.97,2.94-1.24,2.94-2.97,2.94ZM78.84,224.33c-1.06,0-1.83.82-1.83,1.83s.77,1.83,1.83,1.83,1.83-.82,1.83-1.83-.77-1.83-1.83-1.83Z"/>
    <path class="cls-2" d="M85.48,229.1c-1.75,0-2.97-1.31-2.97-2.94s1.23-2.94,2.97-2.94,2.97,1.31,2.97,2.94-1.24,2.94-2.97,2.94ZM85.48,224.33c-1.06,0-1.83.82-1.83,1.83s.77,1.83,1.83,1.83,1.83-.82,1.83-1.83-.77-1.83-1.83-1.83Z"/>
    <path class="cls-2" d="M93.62,225.55c0,.32-.25.57-.57.57s-.57-.25-.57-.56v-.07c0-.56-.41-1-1-1h-1v4c0,.32-.25.57-.57.57s-.57-.25-.57-.57v-4.55c0-.32.25-.57.57-.57h1.58c1.21,0,2.15.96,2.15,2.13v.06Z"/>
  </g>
  <g>
    <path class="cls-3" d="M41.21,26.71c-.25.7-.57,1.3-.96,1.79-.39.49-.83.9-1.33,1.23-.49.32-1.02.57-1.6.72-.57.16-1.17.25-1.79.26.43.67.73,1.45.89,2.34.16.89.21,1.82.16,2.79-.05.97-.2,1.93-.45,2.89s-.57,1.85-.96,2.66c-.39.82-.84,1.53-1.35,2.14s-1.05,1.03-1.64,1.26c.03-.37.06-.89.09-1.56.02-.68.04-1.43.05-2.28,0-.84.01-1.74.01-2.7s-.01-1.91-.04-2.86c-.02-.95-.06-1.87-.1-2.75-.04-.88-.09-1.67-.14-2.35-.63-.18-1.23-.41-1.79-.68-.56-.27-1.05-.56-1.49-.88-.43-.32-.8-.65-1.09-1.01s-.48-.71-.56-1.06c1.03.13,2.13.22,3.3.27,1.17.05,2.36.07,3.59.06s2.45-.04,3.66-.09c1.22-.05,2.39-.12,3.52-.2Z"/>
    <path class="cls-3" d="M50.18,38.01c.03-1.85-.2-3.27-.7-4.25-.5-.98-1.23-1.46-2.2-1.42-.13,0-.25,0-.35.01-.1,0-.2.02-.3.04.23.67.37,1.41.4,2.23.03.82-.02,1.65-.15,2.5s-.33,1.69-.6,2.51c-.27.82-.59,1.58-.97,2.27-.38.69-.81,1.29-1.28,1.8-.47.51-.96.87-1.47,1.09.05-.43.09-1.04.11-1.83.03-.78.04-1.66.05-2.62,0-.97,0-1.98-.01-3.04-.02-1.06-.05-2.08-.09-3.06-.04-.98-.1-1.89-.16-2.73-.07-.83-.14-1.5-.23-2,.8-.07,1.49.02,2.08.26.58.24,1.07.59,1.45,1.04.72-.73,1.72-1.1,3.03-1.1.82,0,1.51.14,2.09.41.57.27,1.02.64,1.35,1.1.32.46.53.98.6,1.57.08.59.03,1.2-.14,1.81-.17.62-.46,1.22-.88,1.81-.42.59-.96,1.12-1.62,1.59Z"/>
    <path class="cls-3" d="M63.63,42.69c-.7.7-1.43,1.15-2.2,1.36-.77.21-1.48.3-2.15.26-.65-.03-1.26-.2-1.83-.5-.57-.3-1.05-.7-1.46-1.19-.41-.49-.72-1.06-.94-1.71-.22-.65-.31-1.34-.27-2.08.03-.65.16-1.29.38-1.91.22-.62.54-1.18.97-1.67s.99-.88,1.66-1.18c.68-.29,1.49-.44,2.44-.44.53,0,1.04.06,1.51.19s.93.35,1.36.66c-.05-.7-.35-1.23-.91-1.59s-1.22-.6-2-.74-1.58-.17-2.41-.11c-.83.06-1.54.16-2.12.31.33-.55.73-1.03,1.19-1.45.46-.42.95-.76,1.47-1.04s1.06-.48,1.61-.61c.55-.13,1.09-.18,1.62-.15.95.05,1.76.29,2.42.71.67.43,1.21.98,1.64,1.65.42.67.74,1.45.94,2.32s.3,1.8.3,2.76c0,.8-.05,1.61-.16,2.42-.11.82-.28,1.6-.5,2.34-.22.74-.5,1.43-.83,2.06-.33.63-.7,1.18-1.11,1.62-.08-.32-.18-.69-.28-1.11s-.22-.83-.35-1.21ZM58.51,38.49c.02.25.06.5.14.74.08.24.19.46.34.66.15.2.35.37.59.51.24.14.54.25.91.31.43.08.82.07,1.15-.04.33-.11.61-.27.84-.49.22-.22.39-.47.51-.76.12-.29.18-.59.18-.89,0-.4-.05-.77-.15-1.11-.1-.34-.25-.64-.45-.9-.2-.26-.46-.46-.77-.61-.32-.15-.69-.22-1.12-.2-.77.03-1.34.3-1.71.81-.38.51-.52,1.16-.44,1.96Z"/>
    <path class="cls-3" d="M83.26,42.64c-.28.42-.57.75-.85,1-.28.25-.55.44-.81.58-.26.13-.5.22-.73.26-.22.04-.43.06-.61.06-.65,0-1.18-.12-1.59-.35-.41-.23-.72-.56-.95-.98-.23-.42-.38-.92-.45-1.5-.08-.58-.12-1.22-.14-1.9v-.91c0-.41,0-.88.01-1.4,0-.52.01-1.09.01-1.7s0-1.22-.03-1.84c-.02-.58-.12-.98-.3-1.17-.18-.2-.58-.3-1.17-.3-.3,0-.59.01-.86.04-.27.02-.55.05-.84.09.17.7.25,1.45.24,2.25,0,.8-.08,1.61-.22,2.43-.14.82-.35,1.62-.62,2.4-.28.78-.6,1.5-.98,2.15s-.78,1.21-1.22,1.69c-.44.48-.91.81-1.41,1.01.05-.43.09-1.05.11-1.84.02-.79.04-1.67.05-2.65,0-.98,0-2-.01-3.07-.02-1.08-.05-2.11-.09-3.11-.04-1-.1-1.92-.16-2.76s-.14-1.51-.22-2.01c.95-.08,1.74.05,2.38.39.63.34,1.14.82,1.52,1.44.63-.4,1.33-.71,2.08-.93.75-.22,1.5-.32,2.25-.32.7,0,1.27.09,1.7.26.43.18.77.43,1.01.75.24.33.4.73.49,1.2.08.48.12,1.01.12,1.61,0,1.43,0,2.66.01,3.68,0,1.02.04,1.87.09,2.55.05.68.12,1.23.21,1.62.09.4.22.7.39.89.17.19.38.31.64.36.26.05.58.07.96.05Z"/>
    <path class="cls-3" d="M93.56,34.91c0-.25-.08-.52-.25-.81s-.39-.56-.66-.81c-.27-.25-.61-.46-1-.62-.39-.17-.81-.25-1.26-.25-.18,0-.37.01-.56.04-.19.03-.38.08-.55.16-.17.08-.32.2-.45.34-.12.14-.21.33-.24.56-.05.3.03.59.25.86s.53.53.95.76c.33.18.66.37.97.55.32.18.58.32.8.42.73.37,1.35.73,1.85,1.08s.9.71,1.2,1.09c.3.38.52.77.65,1.17.13.41.2.85.2,1.31,0,.58-.12,1.12-.36,1.6-.24.48-.59.9-1.05,1.26s-1.02.64-1.69.84-1.42.3-2.28.3c-1,0-1.91-.13-2.74-.4-.83-.27-1.48-.64-1.95-1.11-.47-.48-.74-1.04-.8-1.69-.06-.65.18-1.37.71-2.15.12.45.32.84.6,1.16.28.33.62.58,1,.78.38.19.8.32,1.25.39.45.07.91.08,1.38.02.43-.05.82-.2,1.17-.44.35-.24.53-.53.53-.86,0-.27-.04-.49-.12-.66-.08-.17-.23-.35-.45-.51-.22-.17-.52-.35-.91-.54-.39-.19-.89-.44-1.49-.74-.83-.42-1.5-.83-1.99-1.25-.49-.42-.87-.82-1.12-1.22-.26-.4-.42-.8-.5-1.21-.07-.41-.11-.81-.11-1.21,0-.5.13-.97.39-1.41.26-.44.62-.82,1.09-1.15.47-.32,1.01-.59,1.64-.79.62-.2,1.3-.32,2.04-.35.93-.03,1.79.1,2.56.4.77.3,1.37.7,1.79,1.21.42.51.61,1.1.57,1.79-.03.68-.38,1.38-1.05,2.1Z"/>
    <path class="cls-3" d="M108.58,31.86c-.12.7-.37,1.3-.75,1.81-.38.51-.82.93-1.32,1.25-.5.33-1.02.57-1.56.73-.54.16-1.04.24-1.49.24h-.38v.78c-.02.78-.02,1.57-.01,2.36,0,.79.02,1.56.04,2.31.02.75.03,1.47.05,2.15.02.68.02,1.3.02,1.85-.63-.15-1.19-.56-1.67-1.23-.48-.67-.89-1.48-1.21-2.44-.33-.96-.58-2.02-.76-3.19-.18-1.17-.3-2.32-.35-3.48-.72-.4-1.24-.89-1.57-1.46-.33-.57-.57-1.15-.7-1.74.82.1,1.58.17,2.27.23.05-.7.12-1.35.23-1.96.1-.61.23-1.13.4-1.56.32-.85.86-1.52,1.64-2,.77-.48,1.66-.72,2.66-.72.77,0,1.42.12,1.95.35.53.23.96.56,1.28.98.32.42.53.9.65,1.46.12.56.15,1.16.1,1.81-.35-.5-.67-.88-.96-1.15-.29-.27-.56-.46-.81-.57s-.48-.18-.69-.18-.4,0-.56.02c-.47.07-.83.43-1.1,1.09s-.47,1.51-.6,2.56c.8-.03,1.62-.07,2.47-.11.85-.04,1.77-.1,2.75-.19Z"/>
    <path class="cls-3" d="M123.18,38.86c-.68.1-1.3.19-1.86.26-.56.07-1.13.13-1.71.17-.58.04-1.23.07-1.93.09-.7.02-1.53.03-2.47.03.12,1.07.7,1.86,1.74,2.38s2.65.67,4.81.45c-.28.38-.65.71-1.1.99-.45.27-.93.5-1.45.66-.52.17-1.05.28-1.59.35-.54.07-1.05.08-1.54.05-.8-.05-1.57-.24-2.3-.58-.73-.33-1.38-.81-1.92-1.44-.55-.62-.99-1.4-1.31-2.31-.33-.92-.48-1.98-.46-3.17.02-1.23.22-2.32.6-3.25s.88-1.71,1.49-2.33c.61-.62,1.28-1.08,2.02-1.39.74-.31,1.48-.46,2.21-.46,1.08,0,2.06.16,2.94.48.88.32,1.61.85,2.21,1.59.6.74,1.05,1.72,1.34,2.94.29,1.22.39,2.72.29,4.5ZM116.83,31.94c-.35,0-.65.08-.91.25-.26.17-.47.45-.64.84-.17.39-.29.91-.36,1.56-.08.65-.11,1.46-.09,2.42.27.02.75.02,1.45.01.7,0,1.61-.03,2.73-.06.05-.83.02-1.57-.09-2.2-.11-.63-.26-1.16-.46-1.57-.2-.42-.44-.73-.72-.94-.28-.21-.58-.31-.9-.31Z"/>
    <path class="cls-3" d="M133.8,38.01c.03-1.85-.2-3.27-.7-4.25-.5-.98-1.23-1.46-2.2-1.42-.13,0-.25,0-.35.01s-.2.02-.3.04c.23.67.37,1.41.4,2.23.03.82-.02,1.65-.15,2.5-.13.85-.33,1.69-.6,2.51-.27.82-.59,1.58-.97,2.27-.38.69-.81,1.29-1.28,1.8-.47.51-.96.87-1.47,1.09.05-.43.09-1.04.11-1.83.03-.78.04-1.66.05-2.62,0-.97,0-1.98-.01-3.04-.02-1.06-.05-2.08-.09-3.06-.04-.98-.1-1.89-.16-2.73-.07-.83-.14-1.5-.23-2,.8-.07,1.49.02,2.08.26.58.24,1.07.59,1.45,1.04.72-.73,1.72-1.1,3.02-1.1.82,0,1.51.14,2.09.41s1.03.64,1.35,1.1c.33.46.53.98.6,1.57.08.59.03,1.2-.14,1.81-.17.62-.46,1.22-.88,1.81-.42.59-.96,1.12-1.62,1.59Z"/>
  </g>
  <g>
    <path class="cls-1" d="M67.32,137.12l-4.26,3.72c-1.15,1-1.84,2.35-2.03,3.77-.18,1.31.13,2.37.23,2.68.21.65.49,1.15.71,1.49,2.72,4.15,5.44,8.3,8.16,12.46,1.16,1.77,3.14,2.81,5.25,2.76l12.01-.29c2.91-.07,5.36-2.19,5.86-5.05l1.42-8.12c.14-.8.44-1.56.88-2.25h0c2.36-3.68.2-8.57-4.11-9.31l-19.08-3.26c-1.81-.31-3.66.21-5.04,1.42Z"/>
    <g>
      <path class="cls-5" d="M56.91,148.11c-1.43,0-2.76-.76-3.46-1.99l-13.42-23.24c-.53-.92-.67-1.99-.39-3.02s.93-1.89,1.85-2.42l12.37-7.14c.6-.35,1.28-.53,1.98-.53,1.43,0,2.76.76,3.46,1.99l13.42,23.24c.53.92.67,1.99.39,3.02s-.93,1.89-1.85,2.42l-12.37,7.14c-.6.35-1.28.53-1.98.53Z"/>
      <path class="cls-7" d="M55.84,110.77c1.07,0,2.07.57,2.6,1.49l13.42,23.24c.82,1.42.33,3.25-1.09,4.08l-12.37,7.14c-.45.26-.96.4-1.48.4-1.07,0-2.07-.57-2.6-1.49l-13.42-23.24c-.4-.69-.5-1.49-.29-2.26.21-.77.7-1.42,1.38-1.81l12.37-7.14c.45-.26.96-.4,1.48-.4M55.84,108.77c-.84,0-1.7.21-2.48.66l-12.37,7.14c-2.37,1.37-3.2,4.43-1.82,6.81l13.42,23.24c.92,1.59,2.6,2.49,4.33,2.49.84,0,1.7-.21,2.48-.66l12.37-7.14c2.37-1.37,3.2-4.43,1.82-6.81l-13.42-23.24c-.92-1.59-2.6-2.49-4.33-2.49h0Z"/>
    </g>
    <g>
      <path class="cls-9" d="M65.22,141.84c-1.93,0-3.62-1.3-4.12-3.15l-6.8-25.39c-.29-1.09-.14-2.24.43-3.23.57-.99,1.49-1.69,2.58-1.99l13.28-3.56c.36-.1.73-.14,1.09-.14,1.93,0,3.62,1.3,4.12,3.15l6.8,25.39c.61,2.27-.74,4.6-3.01,5.21l-13.28,3.56c-.36.1-.73.14-1.09.14Z"/>
      <path class="cls-7" d="M71.67,105.38c1.48,0,2.77.99,3.15,2.41l6.8,25.39c.22.83.11,1.71-.33,2.47-.44.76-1.14,1.3-1.97,1.52l-13.28,3.56c-.27.07-.55.11-.83.11-1.48,0-2.77-.99-3.15-2.41l-6.8-25.39c-.22-.83-.11-1.71.33-2.47.44-.76,1.14-1.3,1.97-1.52l13.28-3.56c.27-.07.55-.11.83-.11M71.67,103.38c-.45,0-.9.06-1.35.18l-13.28,3.56c-2.79.75-4.46,3.64-3.72,6.44l6.8,25.39c.63,2.34,2.76,3.89,5.08,3.89.45,0,.9-.06,1.35-.18l13.28-3.56c2.79-.75,4.46-3.64,3.72-6.44l-6.8-25.39c-.63-2.34-2.76-3.89-5.08-3.89h0Z"/>
    </g>
    <g>
      <path class="cls-11" d="M84.11,141.96c-.32,0-.65-.04-.96-.13l-14.26-3.82c-.96-.26-1.77-.88-2.27-1.75-.5-.87-.64-1.88-.38-2.84l7.07-26.38c.44-1.63,1.93-2.77,3.62-2.77.32,0,.65.04.96.13l14.26,3.82c.96.26,1.77.88,2.27,1.75s.64,1.88.38,2.84l-7.07,26.38c-.44,1.63-1.93,2.77-3.62,2.77Z"/>
      <path class="cls-7" d="M76.93,105.27h0c.24,0,.47.03.7.09l14.26,3.82c.7.19,1.29.64,1.66,1.28.37.64.47,1.38.28,2.08l-7.07,26.38c-.32,1.2-1.41,2.03-2.66,2.03-.24,0-.47-.03-.7-.09l-14.26-3.82c-.7-.19-1.29-.64-1.66-1.28-.37-.64-.47-1.38-.28-2.08l7.07-26.38c.32-1.2,1.41-2.03,2.66-2.03M76.93,103.27c-2.09,0-4.02,1.4-4.59,3.52l-7.07,26.38c-.68,2.52.83,5.13,3.35,5.81l14.26,3.82c.41.11.82.16,1.22.16,2.09,0,4.02-1.4,4.59-3.52l7.07-26.38c.68-2.52-.83-5.13-3.35-5.81l-14.26-3.82c-.41-.11-.82-.16-1.22-.16h0Z"/>
    </g>
    <g>
      <path class="cls-10" d="M93.25,148.89c-.65,0-1.29-.17-1.86-.5l-12.8-7.39c-1.79-1.03-2.4-3.32-1.37-5.11l13.66-23.66c.66-1.15,1.91-1.87,3.25-1.87.65,0,1.29.17,1.86.5l12.8,7.39c.86.5,1.48,1.3,1.74,2.27.26.97.13,1.98-.37,2.84l-13.66,23.66c-.66,1.15-1.91,1.87-3.25,1.87Z"/>
      <path class="cls-7" d="M94.14,111.37h0c.48,0,.94.13,1.36.36l12.8,7.39c.63.36,1.08.95,1.27,1.66.19.71.1,1.45-.27,2.08l-13.66,23.66c-.49.84-1.4,1.37-2.39,1.37-.48,0-.94-.13-1.36-.36l-12.8-7.39c-1.31-.76-1.76-2.43-1-3.74l13.66-23.66c.49-.84,1.4-1.37,2.39-1.37M94.14,109.37c-1.64,0-3.24.85-4.12,2.37l-13.66,23.66c-1.3,2.26-.52,5.17,1.73,6.47l12.8,7.39c.74.43,1.55.63,2.36.63,1.64,0,3.24-.85,4.12-2.37l13.66-23.66c1.3-2.26.52-5.17-1.73-6.47l-12.8-7.39c-.74-.43-1.55-.63-2.36-.63h0Z"/>
    </g>
    <g>
      <path class="cls-5" d="M111.84,100.69c-.12,0-.24,0-.36-.02l-15.17-1.73c-.84-.1-1.6-.52-2.14-1.19s-.77-1.5-.68-2.35l3.13-27.53c.18-1.62,1.55-2.83,3.18-2.83.12,0,.24,0,.36.02l15.17,1.73c.84.1,1.6.52,2.14,1.19s.77,1.5.68,2.35l-3.13,27.53c-.18,1.62-1.55,2.84-3.18,2.84Z"/>
      <path class="cls-7" d="M99.81,66.04h0c.08,0,.17,0,.25.01l15.17,1.73c.58.07,1.1.36,1.47.82.37.46.53,1.03.47,1.61l-3.13,27.53c-.12,1.09-1.08,1.95-2.18,1.95-.08,0-.17,0-.25-.01l-15.17-1.73c-1.2-.14-2.07-1.23-1.93-2.43l3.13-27.53c.12-1.09,1.08-1.95,2.18-1.95M99.81,64.04c-2.1,0-3.93,1.59-4.17,3.72l-3.13,27.53c-.26,2.29,1.4,4.38,3.69,4.65l15.17,1.73c.16.02.32.03.47.03,2.1,0,3.93-1.59,4.17-3.72l3.13-27.53c.26-2.29-1.4-4.38-3.69-4.65l-15.17-1.73c-.16-.02-.32-.03-.47-.03h0Z"/>
    </g>
    <path class="cls-1" d="M61.25,147.29s-3.91-8.33,7.19-12.28,20.2-1.63,16.51,1.54l-7.29,4.63"/>
    <g>
      <path class="cls-7" d="M125.68,62.4c-1.02-.58-2.03-1.16-3.05-1.74,0,0-.02.02-.03.02-.02,0-.03-.02-.05-.03-.18-.02-.34.06-.4.22-.13.32-.3.21-.49.08-1.27-.84-2.44-1.81-3.6-2.79-.96-.81-1.88-1.68-2.92-2.4-.62-.43-1.3-.66-2.02-.82-.27-.06-.51-.16-.75-.3-1.72-1-3.44-1.99-5.16-2.98-.72-.42-1.34-.19-1.67.6-.18.44-.16.87.02,1.34-.88-.17-1.71-.29-2.53-.49-.56-.14-.85.2-.97.6-.16.54-.06,1.01.38,1.79-.54-.08-1.06-.11-1.55-.24-1.07-.29-1.7.71-1.33,1.69.35.93,1.11,1.43,2.01,1.7,1.4.41,2.82.75,4.22,1.12.06.02.12.04.23.07-.23.18-.29.4-.34.63-.3,1.3-.61,2.6-.93,3.9-.02.08-.02.15-.02.22.13.01.26.03.38.05.12,0,.24,0,.36.02.02,0,.04-.01.06-.01.03,0,.06,0,.09,0,.01-.01.02-.03.04-.04-.03-.1-.03-.2,0-.32.28-1.15.56-2.31.83-3.46.06-.25.17-.4.4-.51.68-.35,1.39-.62,2.1-.89.27-.1.41-.28.31-.56-.1-.29-.33-.33-.6-.23-.46.17-.92.35-1.37.53-.11.05-.21.08-.34.05-1.76-.47-3.53-.91-5.28-1.41-.55-.16-1.03-.49-1.3-1.04-.09-.19-.14-.41-.03-.59.11-.19.32-.07.49-.04,2.29.37,4.58.75,6.87,1.13,1.13.19,2.26.38,3.39.58.24.04.45,0,.56-.22.09-.18.04-.37-.12-.52-.12-.11-.28-.11-.42-.13-2.05-.35-4.09-.69-6.14-1.03-.6-.1-1.13-.38-1.61-.74-.28-.21-.48-.52-.52-.89-.03-.26.04-.36.33-.3,2.65.56,5.33,1,8,1.41,1.92.29,3.62.92,5.07,2.3,1.57,1.49,3.23,2.9,5.09,4.03.27.16.13.3.04.46-.84,1.46-1.69,2.92-2.53,4.39-.13.23-.26.33-.53.32-.31-.01-.61.08-.91.2-.81.31-1.48.84-2.2,1.3-.55.35-1.11.68-1.78.75-.82.09-1.64.17-2.47.18-.15,0-.29,0-.43-.07-.87-.43-1.76-.84-2.72-1.05-.52-.11-.63-.51-.27-.9.72-.8,1.65-.92,2.65-.78.1.01.23.07.28.15.23.35.53.29.86.19.23-.08.47-.14.71-.19.31-.06.46-.24.47-.56.05-.86.1-1.72.15-2.58.02-.33-.09-.52-.45-.6-.58-.13-1.13-.33-1.19-1.07-.02-.23-.19-.36-.43-.33-.24.03-.4.15-.39.42,0,.1.06.22-.13.23-.57.02-1.12.23-1.7.1-.2-.04-.37,0-.49.2-.11.2-.07.38.08.52.11.1.17.17.11.34-.2.53-.31,1.06-.23,1.6.02,0,.04,0,.06.01.01,0,.09.02.03,0,.02,0,.04,0,.06,0,.09,0,.18.02.27.02.16.01.33.03.49.07-.1-.6-.05-1.17.2-1.65.04-.25.13-.25.24-.27.39-.04.78-.09,1.17-.14.13-.02.24.02.33.11.23.25.52.39.83.48.2.06.3.16.27.41-.06.52-.07,1.04-.1,1.57-.02.32-.44.6-.7.42-.59-.41-1.23-.42-1.9-.35-.02,0-.04,0-.06.01-.05.05-.11.09-.18.09-.09,0-.18,0-.26,0-.02,0-.04,0-.06,0,0,0-.02,0-.02,0-.03,0-.07.03-.11.03,0,0,0,0-.01,0-.02,0-.03.02-.05.02-.05.02-.1.05-.15.07-.07.03-.14.04-.21.05-.03.03-.07.05-.12.08l-.07-.04c-.11.1-.24.17-.38.25-.17.09-.29.2-.4.38-.13.2-.25.41-.39.61-.06.08-.11.16-.17.24.03.06.06.12.06.2.03.81.29,1.2,1.05,1.38.91.21,1.76.55,2.57,1,.24.13.48.17.74.17.94-.02,1.87-.09,2.8-.21.69-.09,1.29-.39,1.87-.76.63-.4,1.22-.85,1.88-1.19.22-.11.44-.2.76-.25-.15.25-.27.47-.4.68-.18.31-.15.55.18.75.94.53,1.87,1.07,2.8,1.61.29.17.5.13.67-.18,1.46-2.54,2.92-5.07,4.39-7.61.15-.26.14-.47-.13-.62ZM110.14,54.36c-1.01-.17-2.03-.33-3.04-.51-.38-.07-.81-.57-.84-.91-.02-.24.11-.41.24-.59.08-.11.19-.05.29,0,1.12.65,2.25,1.3,3.37,1.95,0,.02-.01.04-.02.06ZM124.78,63.15c-1.26,2.17-2.52,4.35-3.77,6.54-.11.18-.19.22-.37.1-.56-.34-1.12-.67-1.7-.98-.24-.13-.26-.23-.12-.46.64-1.08,1.26-2.16,1.88-3.25.62-1.07,1.24-2.14,1.85-3.22.11-.2.2-.23.4-.11.57.35,1.15.68,1.73,1,.19.1.21.19.1.37Z"/>
      <path class="cls-8" d="M122.56,60.64s.03.03.05.03c0,0,.02-.01.03-.02-.02,0-.05-.01-.07-.02Z"/>
      <path class="cls-3" d="M121.35,61.72c-1.86-1.13-3.52-2.54-5.09-4.03-1.46-1.38-3.15-2-5.07-2.3-2.68-.41-5.35-.85-8-1.41-.29-.06-.36.04-.33.3.04.38.23.68.52.89.48.36,1.01.64,1.61.74,2.05.34,4.1.68,6.14,1.03.14.02.3.02.42.13.16.15.2.34.12.52-.11.23-.32.26-.56.22-1.13-.2-2.26-.39-3.39-.58-2.29-.38-4.58-.76-6.87-1.13-.16-.03-.37-.15-.49.04-.11.18-.06.4.03.59.27.55.76.88,1.3,1.04,1.75.5,3.52.94,5.28,1.41.14.04.23,0,.34-.05.45-.18.91-.35,1.37-.53.27-.1.5-.06.6.23.09.28-.04.46-.31.56-.71.27-1.42.54-2.1.89-.22.12-.34.26-.4.51-.26,1.16-.54,2.31-.83,3.46-.03.14-.03.26.01.37,0,0,.02,0,.03,0,.1,0,.21,0,.31.02l1.9.28c.06-.17.28-1.75.17-1.85-.15-.14-.3-.42-.18-.62.11-.2.29-.24.49-.2.58.13,1.13-.09,1.7-.1.18,0,.13-.13.13-.23-.01-.27.15-.4.39-.42.24-.03.41.1.43.33.07.74.62.94,1.19,1.07.36.08.47.27.45.6-.05.86-.11,1.72-.15,2.58-.02.32-.16.5-.47.56-.24.05-.48.11-.71.19-.33.11-.63.16-.86-.19-.05-.08-.18-.14-.28-.15-1-.15-1.93-.02-2.65.78-.36.4-.25.79.27.9.97.2,1.85.61,2.72,1.05.14.07.28.07.43.07.83,0,1.65-.1,2.47-.18.67-.07,1.23-.39,1.78-.75.72-.46,1.39-.99,2.2-1.3.3-.12.6-.21.91-.2.28.01.4-.09.53-.32.83-1.47,1.68-2.93,2.53-4.39.09-.16.23-.29-.04-.46Z"/>
      <path class="cls-3" d="M120.7,65.1c-.63,1.08-1.24,2.17-1.88,3.25-.14.23-.12.33.12.46.57.31,1.14.64,1.7.98.19.11.27.08.37-.1,1.25-2.18,2.51-4.36,3.77-6.54.11-.19.09-.27-.1-.37-.58-.32-1.16-.65-1.73-1-.2-.12-.28-.09-.4.11-.61,1.08-1.23,2.15-1.85,3.22Z"/>
      <path class="cls-3" d="M110.16,54.3c-1.12-.65-2.25-1.3-3.37-1.95-.1-.06-.21-.11-.29,0-.13.17-.26.35-.24.59.03.33.46.84.84.91,1.01.19,2.02.34,3.04.51,0-.02.01-.04.02-.06Z"/>
    </g>
  </g>
</svg>