<?xml version="1.0" encoding="UTF-8"?>
<svg id="Laag_1" data-name="Laag 1" xmlns="http://www.w3.org/2000/svg" viewBox="0 0 164.41 249.45">
  <defs>
    <style>
      .cls-1, .cls-2, .cls-3, .cls-4 {
        fill: #fff;
      }

      .cls-1, .cls-5, .cls-6 {
        stroke-width: 3.25px;
      }

      .cls-1, .cls-5, .cls-6, .cls-3 {
        stroke-linecap: round;
        stroke-linejoin: round;
      }

      .cls-1, .cls-5, .cls-3 {
        stroke: #1d1d1b;
      }

      .cls-2 {
        stroke: #fff;
        stroke-miterlimit: 10;
        stroke-width: .45px;
      }

      .cls-5, .cls-6 {
        fill: #f7f7f7;
      }

      .cls-6 {
        stroke: #000;
      }

      .cls-3 {
        stroke-width: 3.39px;
      }

      .cls-7 {
        fill: #2f2f2f;
      }

      .cls-7, .cls-8, .cls-9, .cls-4, .cls-10 {
        stroke-width: 0px;
      }

      .cls-8 {
        fill: #1d1d1b;
      }

      .cls-9 {
        fill: #de2b65;
      }

      .cls-10 {
        fill: #eb7c19;
      }
    </style>
  </defs>
  <rect class="cls-7" x="0" y="0" width="164.41" height="249.45"/>
  <g>
    <path class="cls-9" d="M141.74,206.68c-4.35,0-7.89-3.7-7.89-8.26s3.54-8.25,7.89-8.25,7.89,3.7,7.89,8.25-3.54,8.26-7.89,8.26Z"/>
    <path class="cls-8" d="M141.74,191.17c3.8,0,6.89,3.25,6.89,7.26s-3.09,7.26-6.89,7.26-6.89-3.25-6.89-7.26,3.09-7.26,6.89-7.26M141.74,189.17c-4.91,0-8.89,4.14-8.89,9.26s3.98,9.26,8.89,9.26,8.89-4.14,8.89-9.26-3.98-9.26-8.89-9.26h0Z"/>
  </g>
  <g>
    <ellipse class="cls-10" cx="141.74" cy="226.17" rx="7.89" ry="8.26"/>
    <path class="cls-8" d="M141.74,218.92c3.8,0,6.89,3.25,6.89,7.26s-3.09,7.26-6.89,7.26-6.89-3.25-6.89-7.26,3.09-7.26,6.89-7.26M141.74,216.92c-4.91,0-8.89,4.14-8.89,9.26s3.98,9.26,8.89,9.26,8.89-4.14,8.89-9.26-3.98-9.26-8.89-9.26h0Z"/>
  </g>
  <g>
    <path class="cls-4" d="M28.38,41.41c.01.64-.11,1.22-.38,1.74-.27.51-.64.95-1.1,1.32-.46.37-.99.65-1.57.84-.59.19-1.17.28-1.76.26-1.07-.01-2.01-.21-2.81-.59-.81-.38-1.48-.89-2.02-1.54-.54-.64-.95-1.41-1.23-2.28s-.42-1.84-.44-2.88c-.01-1.07.13-2.08.44-3.03.31-.95.74-1.8,1.3-2.54.56-.74,1.22-1.33,1.99-1.78.77-.45,1.61-.7,2.54-.76.54-.03,1.07.02,1.59.15s.98.36,1.38.67.73.72.99,1.22.41,1.09.45,1.78c-.47-.45-.94-.74-1.42-.86-.48-.12-.99-.14-1.53-.07-.56.07-1.05.26-1.48.57-.43.31-.8.7-1.1,1.16-.3.47-.53.99-.69,1.57-.16.58-.25,1.17-.26,1.79-.03,1.23.18,2.2.64,2.92s1.17,1.2,2.15,1.45c.35.09.73.13,1.13.13s.8-.05,1.19-.14.76-.23,1.11-.42c.35-.18.65-.41.9-.69Z"/>
    <path class="cls-4" d="M42.27,44.27c-.25.37-.5.66-.75.88-.25.22-.49.39-.71.51-.23.12-.44.19-.64.23-.2.04-.38.05-.54.05-.57,0-1.04-.1-1.4-.31s-.64-.49-.84-.86-.33-.81-.4-1.32c-.07-.51-.11-1.07-.12-1.67-.02-.37-.01-.89.01-1.58s.02-1.58-.01-2.68c-.02-.51-.1-.86-.26-1.03-.16-.18-.5-.26-1.03-.26-.23,0-.45,0-.66.02s-.41.04-.62.07c-.01,1.01-.12,2.04-.33,3.08-.21,1.04-.49,2.01-.85,2.91-.36.9-.77,1.68-1.24,2.33-.47.65-.97,1.09-1.52,1.31.04-.38.08-.97.1-1.77s.04-1.71.04-2.72c0-1.02,0-2.09-.01-3.22-.02-1.13-.04-2.21-.08-3.25-.04-1.04-.08-1.98-.14-2.82-.06-.84-.13-1.48-.2-1.92.59-.04,1.1.02,1.55.19.45.17.83.42,1.16.75s.6.73.81,1.2c.21.47.38.99.49,1.56.5-.28,1.02-.49,1.56-.63.54-.14,1.09-.21,1.65-.21.61,0,1.11.08,1.49.23.38.15.68.37.89.66.21.29.35.64.43,1.05.07.42.11.89.11,1.42,0,1.26,0,2.33.01,3.22s.03,1.62.08,2.2c.04.58.11,1.03.19,1.36s.19.58.34.74.33.26.56.28c.23.03.51.04.85.02Z"/>
    <path class="cls-4" d="M49.98,32.29c-.76.63-1.37,1.33-1.82,2.09-.45.76-.78,1.52-.99,2.28-.21.76-.3,1.5-.3,2.21,0,.71.1,1.34.27,1.9.18.56.42,1,.73,1.33.31.33.66.49,1.05.49.42,0,.79-.14,1.09-.42s.53-.64.69-1.1c.16-.45.24-.97.25-1.56,0-.59-.07-1.19-.22-1.81-.15-.62-.39-1.23-.7-1.83s-.72-1.14-1.22-1.63c1.16.02,2.13.24,2.92.66.79.43,1.41.98,1.86,1.66.45.68.73,1.45.85,2.3.12.85.07,1.71-.13,2.59-.13.6-.36,1.18-.68,1.73-.32.55-.71,1.03-1.17,1.45-.46.42-.99.75-1.58.99-.59.24-1.23.36-1.9.36-.86,0-1.64-.15-2.33-.44-.69-.29-1.27-.71-1.76-1.24-.48-.53-.86-1.17-1.13-1.91-.27-.74-.41-1.55-.43-2.43-.03-.94.1-1.83.4-2.68.29-.85.73-1.62,1.3-2.31.57-.69,1.27-1.27,2.11-1.74s1.79-.78,2.86-.94Z"/>
    <path class="cls-4" d="M63.23,32.29c-.76.63-1.37,1.33-1.82,2.09-.45.76-.78,1.52-.99,2.28-.2.76-.3,1.5-.3,2.21,0,.71.1,1.34.27,1.9.18.56.42,1,.73,1.33s.66.49,1.05.49c.43,0,.79-.14,1.09-.42s.53-.64.69-1.1.25-.97.25-1.56c0-.59-.07-1.19-.22-1.81-.15-.62-.39-1.23-.7-1.83-.32-.6-.72-1.14-1.22-1.63,1.16.02,2.13.24,2.92.66.79.43,1.41.98,1.86,1.66.45.68.73,1.45.85,2.3.12.85.07,1.71-.13,2.59-.13.6-.36,1.18-.68,1.73s-.71,1.03-1.17,1.45c-.46.42-.99.75-1.58.99-.59.24-1.23.36-1.9.36-.87,0-1.64-.15-2.33-.44s-1.27-.71-1.76-1.24c-.48-.53-.86-1.17-1.13-1.91-.27-.74-.41-1.55-.43-2.43-.03-.94.1-1.83.4-2.68.29-.85.72-1.62,1.3-2.31.57-.69,1.27-1.27,2.11-1.74.83-.47,1.79-.78,2.86-.94Z"/>
    <path class="cls-4" d="M77.82,37.48c0-.22-.07-.46-.22-.71-.15-.26-.34-.49-.58-.71-.24-.22-.54-.4-.88-.55-.35-.15-.71-.22-1.11-.22-.16,0-.33.01-.49.03s-.33.07-.48.14c-.15.07-.29.17-.4.3s-.18.29-.21.49c-.04.26.03.52.22.76.19.24.47.47.83.67.29.16.58.32.86.48.28.16.51.29.7.37.64.32,1.19.64,1.63.94.44.31.79.63,1.05.96s.45.67.57,1.03c.12.36.18.74.18,1.15,0,.51-.11.98-.32,1.41-.21.43-.52.79-.92,1.11s-.9.56-1.48.74-1.25.26-2,.26c-.88,0-1.68-.12-2.41-.35-.72-.23-1.3-.56-1.71-.98-.42-.42-.65-.91-.7-1.48-.05-.57.16-1.2.63-1.89.1.39.28.74.53,1.02s.54.51.88.68.7.28,1.1.34c.4.06.8.07,1.21.02.38-.04.73-.17,1.03-.38.31-.21.46-.47.46-.76,0-.23-.04-.43-.11-.58-.07-.15-.21-.3-.4-.45-.19-.15-.46-.3-.8-.47-.35-.17-.78-.38-1.31-.65-.73-.37-1.31-.73-1.75-1.1-.43-.37-.76-.73-.99-1.08-.23-.35-.37-.71-.44-1.07-.07-.36-.1-.71-.1-1.07,0-.44.11-.85.34-1.24s.54-.73.96-1.01c.41-.28.89-.52,1.44-.69s1.14-.28,1.79-.31c.82-.03,1.57.09,2.25.35s1.21.62,1.57,1.07.53.97.51,1.57c-.03.6-.34,1.22-.92,1.85Z"/>
    <path class="cls-4" d="M92.91,40.95c-.6.09-1.15.16-1.64.23-.49.07-.99.12-1.51.15-.51.04-1.08.06-1.69.08s-1.34.02-2.18.02c.1.94.61,1.63,1.53,2.09.91.45,2.33.59,4.23.39-.25.34-.57.63-.97.87-.4.24-.82.44-1.27.58-.45.15-.92.25-1.39.31-.48.06-.93.07-1.35.04-.7-.04-1.38-.21-2.02-.51s-1.21-.71-1.69-1.26-.87-1.23-1.15-2.03-.42-1.74-.41-2.79c.01-1.08.19-2.04.53-2.86.34-.82.77-1.5,1.31-2.04s1.13-.95,1.78-1.22c.65-.27,1.3-.41,1.94-.41.95,0,1.81.14,2.58.42s1.42.74,1.94,1.39c.53.65.92,1.51,1.17,2.58.26,1.07.34,2.39.25,3.95ZM87.33,34.86c-.31,0-.58.07-.8.22-.23.15-.41.39-.56.74s-.25.8-.32,1.37c-.07.57-.09,1.28-.08,2.13.23.01.66.02,1.27.01s1.41-.03,2.4-.05c.04-.73.02-1.38-.08-1.93-.1-.56-.23-1.02-.41-1.38-.18-.37-.39-.64-.64-.82-.25-.18-.51-.27-.79-.27Z"/>
    <path class="cls-4" d="M109.87,33.76c-.1.62-.29,1.15-.56,1.59-.27.45-.58.81-.93,1.1s-.73.5-1.14.64-.81.21-1.21.21h-.42c.03.85.08,1.65.14,2.39.07.75.16,1.4.3,1.97.13.56.3,1.01.5,1.35s.46.53.77.57c.15.03.31.04.49.03s.38-.06.6-.16.46-.27.71-.51.54-.57.85-1.01c.04.57.01,1.1-.09,1.59-.1.49-.29.92-.57,1.29-.28.37-.65.65-1.12.86-.47.21-1.04.31-1.71.31-.88,0-1.66-.21-2.34-.64-.68-.42-1.16-1.01-1.44-1.76-.15-.39-.26-.86-.35-1.38-.09-.53-.15-1.1-.2-1.71-.04-.62-.05-1.26-.03-1.93s.07-1.35.14-2.02c-.63-.35-1.09-.78-1.38-1.29-.29-.51-.5-1.01-.62-1.53.43.06.84.11,1.25.14.41.04.81.07,1.19.1.13-.57.3-1.11.49-1.63.2-.51.42-.97.66-1.36s.52-.73.82-.99.64-.44.99-.53c-.01.69-.03,1.41-.05,2.16s-.04,1.56-.05,2.43c.7-.01,1.4-.05,2.09-.1s1.43-.11,2.22-.19Z"/>
    <path class="cls-4" d="M110.78,34.4c.25-.37.5-.66.75-.88s.49-.39.71-.51c.23-.12.44-.19.64-.23.2-.04.38-.05.54-.05.57,0,1.04.1,1.39.31.36.21.64.49.84.86s.33.81.39,1.32c.07.51.11,1.07.12,1.67.01.37.01.93-.01,1.69-.02.76-.02,1.69.01,2.79.01.51.1.86.26,1.03s.51.26,1.03.26c.32,0,.63-.01.91-.03.29-.02.59-.05.91-.1.02-.85.02-1.75,0-2.71-.01-.96-.04-1.88-.07-2.77-.03-.89-.07-1.71-.13-2.46s-.13-1.36-.22-1.81c1.02,0,1.83.29,2.42.87.59.58.99,1.31,1.22,2.2.23.89.3,1.87.22,2.94-.08,1.08-.28,2.11-.6,3.1-.32.99-.74,1.88-1.25,2.66-.51.78-1.08,1.33-1.71,1.64.01-.18.03-.38.04-.62.01-.23.03-.5.04-.79-.53.35-1.09.61-1.69.78s-1.21.25-1.82.25-1.11-.08-1.5-.23-.68-.37-.89-.66c-.21-.29-.36-.64-.43-1.05-.07-.42-.11-.89-.11-1.42,0-1.26,0-2.34-.01-3.23,0-.89-.03-1.64-.08-2.24-.04-.6-.11-1.08-.19-1.43-.08-.35-.19-.61-.34-.78-.15-.17-.34-.27-.57-.32s-.51-.06-.83-.04Z"/>
    <path class="cls-4" d="M132.09,40.2c.03-1.63-.18-2.87-.62-3.74-.44-.86-1.08-1.28-1.93-1.25-.12,0-.22,0-.31.01-.09,0-.18.02-.26.03.2.59.32,1.24.35,1.96.03.72-.02,1.45-.13,2.2-.12.75-.29,1.48-.53,2.21-.24.73-.52,1.39-.86,2s-.71,1.14-1.12,1.58c-.41.45-.84.77-1.3.96.04-.38.08-.92.1-1.6s.04-1.46.04-2.31c0-.85,0-1.74-.01-2.67-.01-.93-.04-1.83-.08-2.69-.04-.86-.08-1.66-.14-2.39-.06-.73-.12-1.32-.2-1.76.7-.06,1.31.02,1.82.23s.94.52,1.27.91c.63-.64,1.52-.97,2.66-.97.72,0,1.33.12,1.83.36.51.24.9.56,1.19.97.29.4.46.86.53,1.38.07.52.02,1.05-.12,1.59-.15.54-.4,1.07-.77,1.59-.37.52-.84.99-1.43,1.4Z"/>
    <path class="cls-4" d="M148.57,44.27c-.25.37-.5.66-.75.88-.25.22-.49.39-.71.51-.23.12-.44.19-.64.23-.2.04-.38.05-.54.05-.57,0-1.04-.1-1.4-.31s-.64-.49-.83-.86c-.2-.37-.33-.81-.4-1.32s-.11-1.07-.12-1.67v-.8c0-.36,0-.77.01-1.23,0-.46.01-.96.01-1.49s0-1.07-.02-1.61c-.01-.51-.1-.86-.26-1.03-.16-.18-.51-.26-1.03-.26-.26,0-.52.01-.76.03-.24.02-.49.05-.74.08.15.62.22,1.27.21,1.98,0,.7-.07,1.41-.2,2.13-.13.72-.31,1.42-.55,2.11-.24.69-.53,1.32-.86,1.89-.33.57-.69,1.07-1.08,1.48-.39.42-.8.71-1.24.89.04-.38.08-.92.1-1.62.02-.7.04-1.47.04-2.33,0-.86,0-1.76-.01-2.7-.01-.94-.04-1.86-.08-2.74-.04-.88-.08-1.69-.14-2.43s-.12-1.33-.2-1.77c.83-.07,1.53.04,2.09.34.56.3,1,.72,1.34,1.26.56-.35,1.16-.62,1.82-.81.66-.19,1.32-.28,1.98-.28.62,0,1.11.08,1.49.23.38.15.68.37.89.66.21.29.35.64.43,1.05.07.42.11.89.11,1.42,0,1.26,0,2.34.01,3.23,0,.89.03,1.64.08,2.24s.11,1.08.19,1.43c.08.35.19.61.34.78.15.17.33.27.56.32.23.04.51.06.85.04Z"/>
  </g>
  <g>
    <path class="cls-2" d="M21.7,163.7v2.81c0,.32-.27.59-.59.59s-.59-.27-.59-.59v-5.83c0-.32.27-.59.59-.59s.59.27.59.59v2.81l3.23-3.23c.22-.23.6-.24.84,0s.23.61,0,.84l-2.51,2.49,2.51,2.49c.23.23.24.6,0,.84-.24.24-.61.23-.84,0l-3.23-3.23Z"/>
    <path class="cls-2" d="M27.28,160.37c-.4,0-.72-.31-.72-.71s.32-.71.72-.71.72.31.72.71-.32.71-.72.71ZM26.7,161.81c0-.32.26-.58.58-.58s.58.26.58.58v4.71c0,.32-.26.58-.58.58s-.58-.26-.58-.58v-4.71Z"/>
    <path class="cls-2" d="M31.68,167.01c-1.72,0-2.93-1.28-2.93-2.85s1.21-2.85,2.93-2.85h.68c1.09,0,1.81.76,1.81,1.71s-.72,1.71-1.81,1.71h-1.09c-.31,0-.57-.26-.57-.57s.26-.57.57-.57h1.09c.39,0,.65-.26.65-.57s-.26-.57-.65-.57h-.68c-1.03,0-1.77.77-1.77,1.71s.74,1.71,1.77,1.71h1.65c.31,0,.57.26.57.57s-.26.57-.57.57h-1.65Z"/>
    <path class="cls-2" d="M35.5,167.01c-.31,0-.57-.26-.57-.57s.26-.57.57-.57h2.41c.39,0,.65-.26.65-.57s-.26-.57-.65-.57h-1.33c-1.09,0-1.81-.76-1.81-1.71s.72-1.71,1.81-1.71h2.41c.31,0,.57.26.57.57s-.26.57-.57.57h-2.41c-.39,0-.65.26-.65.57s.26.57.65.57h1.33c1.09,0,1.81.76,1.81,1.71s-.72,1.71-1.81,1.71h-2.41Z"/>
    <path class="cls-2" d="M45.62,167.01c-1.72,0-2.93-1.28-2.93-2.85s1.21-2.85,2.93-2.85h.68c1.09,0,1.8.76,1.8,1.71s-.72,1.71-1.8,1.71h-1.09c-.31,0-.57-.26-.57-.57s.26-.57.57-.57h1.09c.39,0,.64-.26.64-.57s-.26-.57-.64-.57h-.68c-1.03,0-1.77.77-1.77,1.71s.74,1.71,1.77,1.71h1.64c.31,0,.57.26.57.57s-.26.57-.57.57h-1.64Z"/>
    <path class="cls-2" d="M51.75,167.01c-1.72,0-2.93-1.28-2.93-2.85s1.21-2.85,2.93-2.85h.68c1.09,0,1.8.76,1.8,1.71s-.72,1.71-1.8,1.71h-1.09c-.31,0-.57-.26-.57-.57s.26-.57.57-.57h1.09c.39,0,.64-.26.64-.57s-.26-.57-.64-.57h-.68c-1.03,0-1.77.77-1.77,1.71s.74,1.71,1.77,1.71h1.64c.31,0,.57.26.57.57s-.26.57-.57.57h-1.64Z"/>
    <path class="cls-2" d="M58.86,163.57c0-.61-.51-1.12-1.12-1.12h-1.46v4.06c0,.32-.26.58-.58.58s-.58-.26-.58-.58v-4.62c0-.32.26-.58.58-.58h2.04c1.26,0,2.28,1.02,2.28,2.28v2.92c0,.32-.26.58-.58.58s-.58-.26-.58-.58v-2.95Z"/>
    <path class="cls-2" d="M67.92,163.54c0,.32-.26.58-.58.58s-.58-.26-.58-.57v-.08c0-.57-.42-1.02-1.02-1.02h-1.02v4.06c0,.32-.26.58-.58.58s-.58-.26-.58-.58v-4.62c0-.32.26-.58.58-.58h1.6c1.23,0,2.18.98,2.18,2.16v.06Z"/>
    <path class="cls-2" d="M70.01,167.01c-1.04,0-1.76-.8-1.76-1.76s.72-1.76,1.76-1.76h1.09c.31,0,.57.26.57.57s-.26.57-.57.57h-1.09c-.35,0-.6.3-.6.62s.25.62.6.62h2.09v-2.41c0-.57-.4-1.01-.99-1.01h-1.83c-.31,0-.57-.26-.57-.57s.26-.57.57-.57h1.83c1.2,0,2.15.96,2.15,2.14v2.98c0,.32-.2.58-.58.58h-2.67Z"/>
    <path class="cls-2" d="M78.16,163.57c0-.61-.51-1.12-1.12-1.12h-1.46v4.06c0,.32-.26.58-.58.58s-.58-.26-.58-.58v-4.62c0-.32.26-.58.58-.58h2.04c1.26,0,2.28,1.02,2.28,2.28v2.92c0,.32-.26.58-.58.58s-.58-.26-.58-.58v-2.95Z"/>
    <path class="cls-2" d="M83.14,167.01c-1.72,0-2.93-1.28-2.93-2.85s1.21-2.85,2.93-2.85h1.32v-1.78c0-.32.26-.58.58-.58s.58.26.58.58v6.9c0,.32-.26.58-.58.58h-1.9ZM84.46,162.46h-1.32c-1.03,0-1.77.77-1.77,1.71s.74,1.71,1.77,1.71h1.32v-3.42Z"/>
    <path class="cls-2" d="M89.53,167.15c-1.77,0-3.02-1.33-3.02-2.99s1.25-2.99,3.02-2.99,3.02,1.33,3.02,2.99-1.26,2.99-3.02,2.99ZM89.53,162.3c-1.07,0-1.86.84-1.86,1.86s.78,1.86,1.86,1.86,1.86-.84,1.86-1.86-.78-1.86-1.86-1.86Z"/>
    <path class="cls-2" d="M100.01,163.57c0-.61-.51-1.12-1.12-1.12h-1.02v4.06c0,.32-.26.58-.58.58s-.58-.26-.58-.58v-4.06h-2.12v4.06c0,.32-.26.58-.58.58s-.58-.26-.58-.58v-4.62c0-.32.26-.58.58-.58h4.88c1.26,0,2.28,1.02,2.28,2.28v2.92c0,.32-.26.58-.58.58s-.58-.26-.58-.58v-2.95Z"/>
    <path class="cls-2" d="M21.67,182.25v1.78c0,.32-.26.58-.58.58s-.58-.26-.58-.58v-6.9c0-.32.26-.58.58-.58h1.9c1.72,0,2.93,1.28,2.93,2.85s-1.21,2.85-2.93,2.85h-1.32ZM22.99,181.11c1.03,0,1.77-.77,1.77-1.71s-.74-1.71-1.77-1.71h-1.32v3.42h1.32Z"/>
    <path class="cls-2" d="M29.57,182.25c-1.72,0-2.93-1.28-2.93-2.85s1.21-2.85,2.93-2.85h.68c1.09,0,1.81.76,1.81,1.71s-.72,1.71-1.81,1.71h-1.09c-.31,0-.57-.26-.57-.57s.26-.57.57-.57h1.09c.39,0,.65-.26.65-.57s-.26-.57-.65-.57h-.68c-1.03,0-1.77.77-1.77,1.71s.74,1.71,1.77,1.71h1.64c.31,0,.57.26.57.57s-.26.57-.57.57h-1.64Z"/>
    <path class="cls-2" d="M37.31,178.78c0,.32-.26.58-.58.58s-.58-.26-.58-.57v-.08c0-.57-.42-1.02-1.02-1.02h-1.02v4.06c0,.32-.26.58-.58.58s-.58-.26-.58-.58v-4.62c0-.32.26-.58.58-.58h1.6c1.23,0,2.18.98,2.18,2.16v.06Z"/>
    <path class="cls-2" d="M38.66,182.25c-.31,0-.57-.26-.57-.57s.26-.57.57-.57h2.41c.39,0,.65-.26.65-.57s-.26-.57-.65-.57h-1.33c-1.09,0-1.81-.76-1.81-1.71s.72-1.71,1.81-1.71h2.41c.31,0,.57.26.57.57s-.26.57-.57.57h-2.41c-.39,0-.65.26-.65.57s.26.57.65.57h1.33c1.09,0,1.81.76,1.81,1.71s-.72,1.71-1.81,1.71h-2.41Z"/>
    <path class="cls-2" d="M46.5,182.39c-1.77,0-3.02-1.33-3.02-2.99s1.25-2.99,3.02-2.99,3.02,1.33,3.02,2.99-1.26,2.99-3.02,2.99ZM46.5,177.54c-1.07,0-1.86.84-1.86,1.86s.79,1.86,1.86,1.86,1.86-.84,1.86-1.86-.78-1.86-1.86-1.86Z"/>
    <path class="cls-2" d="M53.26,182.39c-1.77,0-3.02-1.33-3.02-2.99s1.25-2.99,3.02-2.99,3.02,1.33,3.02,2.99-1.26,2.99-3.02,2.99ZM53.26,177.54c-1.07,0-1.86.84-1.86,1.86s.79,1.86,1.86,1.86,1.86-.84,1.86-1.86-.78-1.86-1.86-1.86Z"/>
    <path class="cls-2" d="M60.91,178.81c0-.61-.51-1.12-1.12-1.12h-1.46v4.06c0,.32-.26.58-.58.58s-.58-.26-.58-.58v-4.62c0-.32.26-.58.58-.58h2.04c1.26,0,2.28,1.02,2.28,2.28v2.92c0,.32-.26.58-.58.58s-.58-.26-.58-.58v-2.95Z"/>
    <path class="cls-2" d="M68.25,182.25c-1.72,0-2.93-1.28-2.93-2.85s1.21-2.85,2.93-2.85h1.32v-1.78c0-.32.26-.58.58-.58s.58.26.58.58v6.9c0,.32-.26.58-.58.58h-1.9ZM69.57,177.69h-1.32c-1.03,0-1.77.77-1.77,1.71s.74,1.71,1.77,1.71h1.32v-3.42Z"/>
    <path class="cls-2" d="M72.48,175.61c-.4,0-.72-.31-.72-.71s.32-.71.72-.71.72.31.72.71-.32.71-.72.71ZM71.9,177.05c0-.32.26-.58.58-.58s.58.26.58.58v4.71c0,.32-.26.58-.58.58s-.58-.26-.58-.58v-4.71Z"/>
    <path class="cls-2" d="M76.88,182.25c-1.72,0-2.93-1.28-2.93-2.85s1.21-2.85,2.93-2.85h.68c1.09,0,1.81.76,1.81,1.71s-.72,1.71-1.81,1.71h-1.09c-.31,0-.57-.26-.57-.57s.26-.57.57-.57h1.09c.39,0,.65-.26.65-.57s-.26-.57-.65-.57h-.68c-1.03,0-1.77.77-1.77,1.71s.74,1.71,1.77,1.71h1.64c.31,0,.57.26.57.57s-.26.57-.57.57h-1.64Z"/>
    <path class="cls-2" d="M86.35,178.81c0-.61-.51-1.12-1.12-1.12h-1.46v4.06c0,.32-.26.58-.58.58s-.58-.26-.58-.58v-4.62c0-.32.26-.58.58-.58h2.04c1.26,0,2.28,1.02,2.28,2.28v2.92c0,.32-.26.58-.58.58s-.58-.26-.58-.58v-2.95Z"/>
    <path class="cls-2" d="M90.18,182.25c-1.04,0-1.76-.8-1.76-1.76s.72-1.76,1.76-1.76h1.09c.31,0,.57.26.57.57s-.26.57-.57.57h-1.09c-.36,0-.6.3-.6.62s.25.62.6.62h2.09v-2.41c0-.57-.4-1.01-.99-1.01h-1.83c-.31,0-.57-.26-.57-.57s.26-.57.57-.57h1.83c1.2,0,2.15.96,2.15,2.14v2.98c0,.32-.2.58-.58.58h-2.67Z"/>
    <path class="cls-2" d="M95.4,184.53c-.31,0-.57-.26-.57-.57s.26-.57.57-.57h.23c.97,0,1.33-.51,1.33-1.46v-4.88c0-.32.26-.58.58-.58s.58.26.58.58v4.87c0,1.6-.82,2.61-2.48,2.61h-.24ZM97.54,175.61c-.4,0-.72-.31-.72-.71s.32-.71.72-.71.72.31.72.71-.32.71-.72.71Z"/>
    <path class="cls-2" d="M102.03,182.39c-1.77,0-3.02-1.33-3.02-2.99s1.25-2.99,3.02-2.99,3.02,1.33,3.02,2.99-1.26,2.99-3.02,2.99ZM102.03,177.54c-1.07,0-1.86.84-1.86,1.86s.79,1.86,1.86,1.86,1.86-.84,1.86-1.86-.79-1.86-1.86-1.86Z"/>
    <path class="cls-2" d="M109.69,177.05c0-.32.26-.58.58-.58s.58.26.58.58v2.88c0,1.35-1.11,2.46-2.46,2.46s-2.46-1.11-2.46-2.46v-2.88c0-.32.26-.58.58-.58s.58.26.58.58v2.91c0,.71.59,1.3,1.3,1.3s1.3-.59,1.3-1.3v-2.91Z"/>
    <path class="cls-2" d="M115.89,182.25c-1.04,0-1.76-.8-1.76-1.76s.72-1.76,1.76-1.76h1.09c.31,0,.57.26.57.57s-.26.57-.57.57h-1.09c-.36,0-.6.3-.6.62s.25.62.6.62h2.09v-2.41c0-.57-.4-1.01-.99-1.01h-1.83c-.31,0-.57-.26-.57-.57s.26-.57.57-.57h1.83c1.2,0,2.15.96,2.15,2.14v2.98c0,.32-.2.58-.58.58h-2.67Z"/>
    <path class="cls-2" d="M121.81,182.25c-1.04,0-1.76-.8-1.76-1.76s.72-1.76,1.76-1.76h1.09c.31,0,.57.26.57.57s-.26.57-.57.57h-1.09c-.36,0-.6.3-.6.62s.25.62.6.62h2.09v-2.41c0-.57-.4-1.01-.99-1.01h-1.83c-.31,0-.57-.26-.57-.57s.26-.57.57-.57h1.83c1.2,0,2.15.96,2.15,2.14v2.98c0,.32-.2.58-.58.58h-2.67Z"/>
    <path class="cls-2" d="M129.96,178.81c0-.61-.51-1.12-1.12-1.12h-1.46v4.06c0,.32-.26.58-.58.58s-.58-.26-.58-.58v-4.62c0-.32.26-.58.58-.58h2.04c1.26,0,2.28,1.02,2.28,2.28v2.92c0,.32-.26.58-.58.58s-.58-.26-.58-.58v-2.95Z"/>
    <path class="cls-2" d="M23.16,197.49c-1.72,0-2.93-1.28-2.93-2.85s1.21-2.85,2.93-2.85h1.32v-1.78c0-.32.26-.58.58-.58s.58.26.58.58v6.9c0,.32-.26.58-.58.58h-1.9ZM24.49,192.93h-1.32c-1.03,0-1.77.77-1.77,1.71s.74,1.71,1.77,1.71h1.32v-3.42Z"/>
    <path class="cls-2" d="M29.47,197.49c-1.72,0-2.93-1.28-2.93-2.85s1.21-2.85,2.93-2.85h.68c1.09,0,1.8.76,1.8,1.71s-.72,1.71-1.8,1.71h-1.09c-.31,0-.57-.26-.57-.57s.26-.57.57-.57h1.09c.39,0,.64-.26.64-.57s-.26-.57-.64-.57h-.68c-1.03,0-1.77.77-1.77,1.71s.74,1.71,1.77,1.71h1.64c.31,0,.57.26.57.57s-.26.57-.57.57h-1.64Z"/>
    <path class="cls-2" d="M35.78,197.49c-.32,0-.58-.26-.58-.58v-6.9c0-.32.26-.58.58-.58s.58.26.58.58v1.78h1.32c1.72,0,2.93,1.28,2.93,2.85s-1.21,2.85-2.93,2.85h-1.9ZM37.68,196.35c1.03,0,1.77-.77,1.77-1.71s-.74-1.71-1.77-1.71h-1.32v3.42h1.32Z"/>
    <path class="cls-2" d="M44.27,197.49c-1.72,0-2.93-1.28-2.93-2.85s1.21-2.85,2.93-2.85h.68c1.09,0,1.8.76,1.8,1.71s-.72,1.71-1.8,1.71h-1.09c-.31,0-.57-.26-.57-.57s.26-.57.57-.57h1.09c.39,0,.64-.26.64-.57s-.26-.57-.64-.57h-.68c-1.03,0-1.77.77-1.77,1.71s.74,1.71,1.77,1.71h1.64c.31,0,.57.26.57.57s-.26.57-.57.57h-1.64Z"/>
    <path class="cls-2" d="M51.4,192.29c0-.32.26-.58.58-.58s.58.26.58.58v2.88c0,1.35-1.11,2.46-2.46,2.46s-2.46-1.11-2.46-2.46v-2.88c0-.32.26-.58.58-.58s.58.26.58.58v2.91c0,.71.59,1.3,1.3,1.3s1.3-.59,1.3-1.3v-2.91Z"/>
    <path class="cls-2" d="M58.09,194.02c0,.32-.26.58-.58.58s-.58-.26-.58-.57v-.08c0-.57-.42-1.02-1.02-1.02h-1.02v4.06c0,.32-.26.58-.58.58s-.58-.26-.58-.58v-4.62c0-.32.26-.58.58-.58h1.6c1.23,0,2.18.98,2.18,2.16v.06Z"/>
    <path class="cls-2" d="M61.62,197.49c-1.11,0-2.01-.9-2.01-2.01v-2.55h-.68c-.31,0-.57-.26-.57-.57s.26-.57.57-.57h.68v-1.14c0-.32.26-.58.58-.58s.58.26.58.58v1.14h1.49c.31,0,.57.26.57.57s-.26.57-.57.57h-1.49v2.56c0,.48.37.86.86.86h.63c.31,0,.57.26.57.57s-.26.57-.57.57h-.64Z"/>
    <path class="cls-2" d="M66.58,190.84c-.4,0-.72-.31-.72-.71s.32-.71.72-.71.72.31.72.71-.32.71-.72.71ZM65.99,192.29c0-.32.26-.58.58-.58s.58.26.58.58v4.71c0,.32-.26.58-.58.58s-.58-.26-.58-.58v-4.71Z"/>
    <path class="cls-2" d="M68.77,197.49c-.31,0-.57-.26-.57-.57s.26-.57.57-.57h2.41c.39,0,.64-.26.64-.57s-.26-.57-.64-.57h-1.33c-1.09,0-1.8-.76-1.8-1.71s.72-1.71,1.8-1.71h2.41c.31,0,.57.26.57.57s-.26.57-.57.57h-2.41c-.39,0-.64.26-.64.57s.26.57.64.57h1.33c1.09,0,1.81.76,1.81,1.71s-.72,1.71-1.81,1.71h-2.41Z"/>
    <path class="cls-2" d="M74.02,199.08c-.14.28-.47.39-.75.26-.28-.14-.4-.48-.27-.75l1.01-2.12c.14-.29.48-.39.76-.26.28.14.41.49.26.76l-1.01,2.11Z"/>
    <path class="cls-2" d="M81.04,197.49c-1.72,0-2.93-1.28-2.93-2.85s1.21-2.85,2.93-2.85h.68c1.09,0,1.81.76,1.81,1.71s-.72,1.71-1.81,1.71h-1.09c-.31,0-.57-.26-.57-.57s.26-.57.57-.57h1.09c.39,0,.65-.26.65-.57s-.26-.57-.65-.57h-.68c-1.03,0-1.77.77-1.77,1.71s.74,1.71,1.77,1.71h1.64c.31,0,.57.26.57.57s-.26.57-.57.57h-1.64Z"/>
    <path class="cls-2" d="M88.77,194.02c0,.32-.26.58-.58.58s-.58-.26-.58-.57v-.08c0-.57-.42-1.02-1.02-1.02h-1.02v4.06c0,.32-.26.58-.58.58s-.58-.26-.58-.58v-4.62c0-.32.26-.58.58-.58h1.6c1.23,0,2.18.98,2.18,2.16v.06Z"/>
    <path class="cls-2" d="M98.62,192.29c0-.32.26-.58.58-.58s.58.26.58.58v3.16c0,1.2-.98,2.18-2.18,2.18-.68,0-1.29-.31-1.69-.8-.4.48-1.01.8-1.69.8-1.2,0-2.18-.98-2.18-2.18v-3.16c0-.32.26-.58.58-.58s.58.26.58.58v3.18c0,.58.48,1.06,1.06,1.06s1.06-.48,1.06-1.06v-3.18c0-.32.26-.58.58-.58s.58.26.58.58v3.18c0,.58.48,1.06,1.06,1.06s1.06-.48,1.06-1.06v-3.18Z"/>
    <path class="cls-2" d="M103.69,197.63c-1.77,0-3.02-1.33-3.02-2.99s1.25-2.99,3.02-2.99,3.02,1.33,3.02,2.99-1.26,2.99-3.02,2.99ZM103.69,192.78c-1.07,0-1.86.84-1.86,1.86s.79,1.86,1.86,1.86,1.86-.84,1.86-1.86-.79-1.86-1.86-1.86Z"/>
    <path class="cls-2" d="M111.96,194.02c0,.32-.26.58-.58.58s-.58-.26-.58-.57v-.08c0-.57-.42-1.02-1.02-1.02h-1.02v4.06c0,.32-.26.58-.58.58s-.58-.26-.58-.58v-4.62c0-.32.26-.58.58-.58h1.6c1.23,0,2.18.98,2.18,2.16v.06Z"/>
    <path class="cls-2" d="M115.52,197.49c-1.72,0-2.93-1.28-2.93-2.85s1.21-2.85,2.93-2.85h1.32v-1.78c0-.32.26-.58.58-.58s.58.26.58.58v6.9c0,.32-.26.58-.58.58h-1.9ZM116.85,192.93h-1.32c-1.03,0-1.77.77-1.77,1.71s.74,1.71,1.77,1.71h1.32v-3.42Z"/>
    <path class="cls-2" d="M121.96,197.49c-1.11,0-2.01-.9-2.01-2.01v-2.55h-.68c-.31,0-.57-.26-.57-.57s.26-.57.57-.57h.68v-1.14c0-.32.26-.58.58-.58s.58.26.58.58v1.14h1.49c.31,0,.57.26.57.57s-.26.57-.57.57h-1.49v2.56c0,.48.37.86.86.86h.63c.31,0,.57.26.57.57s-.26.57-.57.57h-.65Z"/>
    <path class="cls-2" d="M20.14,207.76c-.13-.29,0-.63.29-.76.29-.14.63,0,.76.29l1.68,3.87,1.68-3.87c.13-.29.47-.43.76-.29.29.13.42.47.29.76l-2.09,4.64c-.11.25-.33.42-.65.42s-.54-.17-.65-.42l-2.09-4.64Z"/>
    <path class="cls-2" d="M28.95,212.73c-1.72,0-2.93-1.28-2.93-2.85s1.21-2.85,2.93-2.85h.68c1.09,0,1.8.76,1.8,1.71s-.72,1.71-1.8,1.71h-1.09c-.31,0-.57-.26-.57-.57s.26-.57.57-.57h1.09c.39,0,.64-.26.64-.57s-.26-.57-.64-.57h-.68c-1.03,0-1.77.77-1.77,1.71s.74,1.71,1.77,1.71h1.64c.31,0,.57.26.57.57s-.26.57-.57.57h-1.64Z"/>
    <path class="cls-2" d="M36.68,209.25c0,.32-.26.58-.58.58s-.58-.26-.58-.57v-.08c0-.57-.42-1.02-1.02-1.02h-1.02v4.06c0,.32-.26.58-.58.58s-.58-.26-.58-.58v-4.62c0-.32.26-.58.58-.58h1.6c1.23,0,2.18.98,2.18,2.16v.06Z"/>
    <path class="cls-2" d="M40.24,212.73c-1.72,0-2.93-1.28-2.93-2.85s1.21-2.85,2.93-2.85h1.32v-1.78c0-.32.26-.58.58-.58s.58.26.58.58v6.9c0,.32-.26.58-.58.58h-1.9ZM41.57,208.17h-1.32c-1.03,0-1.77.77-1.77,1.71s.74,1.71,1.77,1.71h1.32v-3.42Z"/>
    <path class="cls-2" d="M46.55,212.73c-1.72,0-2.93-1.28-2.93-2.85s1.21-2.85,2.93-2.85h.68c1.09,0,1.81.76,1.81,1.71s-.72,1.71-1.81,1.71h-1.09c-.31,0-.57-.26-.57-.57s.26-.57.57-.57h1.09c.39,0,.65-.26.65-.57s-.26-.57-.65-.57h-.68c-1.03,0-1.77.77-1.77,1.71s.74,1.71,1.77,1.71h1.65c.31,0,.57.26.57.57s-.26.57-.57.57h-1.65Z"/>
    <path class="cls-2" d="M54.28,209.25c0,.32-.26.58-.58.58s-.58-.26-.58-.57v-.08c0-.57-.42-1.02-1.02-1.02h-1.02v4.06c0,.32-.26.58-.58.58s-.58-.26-.58-.58v-4.62c0-.32.26-.58.58-.58h1.6c1.23,0,2.18.98,2.18,2.16v.06Z"/>
    <path class="cls-2" d="M58.62,215c-.31,0-.57-.26-.57-.57s.26-.57.57-.57h2.04c.48,0,.87-.39.87-.87v-.27h-1.32c-1.72,0-2.93-1.28-2.93-2.85s1.21-2.85,2.93-2.85h1.9c.32,0,.58.26.58.58v5.39c0,1.11-.9,2.01-2.01,2.01h-2.06ZM61.53,208.17h-1.32c-1.03,0-1.77.77-1.77,1.71s.74,1.71,1.77,1.71h1.32v-3.42Z"/>
    <path class="cls-2" d="M66.51,212.73c-1.72,0-2.93-1.28-2.93-2.85s1.21-2.85,2.93-2.85h.68c1.09,0,1.81.76,1.81,1.71s-.72,1.71-1.81,1.71h-1.09c-.31,0-.57-.26-.57-.57s.26-.57.57-.57h1.09c.39,0,.65-.26.65-.57s-.26-.57-.65-.57h-.68c-1.03,0-1.77.77-1.77,1.71s.74,1.71,1.77,1.71h1.65c.31,0,.57.26.57.57s-.26.57-.57.57h-1.65Z"/>
    <path class="cls-2" d="M70.33,212.73c-.31,0-.57-.26-.57-.57s.26-.57.57-.57h2.41c.39,0,.64-.26.64-.57s-.26-.57-.64-.57h-1.33c-1.09,0-1.8-.76-1.8-1.71s.72-1.71,1.8-1.71h2.41c.31,0,.57.26.57.57s-.26.57-.57.57h-2.41c-.39,0-.64.26-.64.57s.26.57.64.57h1.33c1.09,0,1.81.76,1.81,1.71s-.72,1.71-1.81,1.71h-2.41Z"/>
    <path class="cls-2" d="M76.59,212.73v1.78c0,.32-.26.58-.58.58s-.58-.26-.58-.58v-6.9c0-.32.26-.58.58-.58h1.9c1.72,0,2.93,1.28,2.93,2.85s-1.21,2.85-2.93,2.85h-1.32ZM77.91,211.59c1.03,0,1.77-.77,1.77-1.71s-.74-1.71-1.77-1.71h-1.32v3.42h1.32Z"/>
    <path class="cls-2" d="M84.49,212.73c-1.72,0-2.93-1.28-2.93-2.85s1.21-2.85,2.93-2.85h.68c1.09,0,1.81.76,1.81,1.71s-.72,1.71-1.81,1.71h-1.09c-.31,0-.57-.26-.57-.57s.26-.57.57-.57h1.09c.39,0,.65-.26.65-.57s-.26-.57-.65-.57h-.68c-1.03,0-1.77.77-1.77,1.71s.74,1.71,1.77,1.71h1.64c.31,0,.57.26.57.57s-.26.57-.57.57h-1.64Z"/>
    <path class="cls-2" d="M90.62,212.73c-1.72,0-2.93-1.28-2.93-2.85s1.21-2.85,2.93-2.85h.68c1.09,0,1.81.76,1.81,1.71s-.72,1.71-1.81,1.71h-1.09c-.31,0-.57-.26-.57-.57s.26-.57.57-.57h1.09c.39,0,.65-.26.65-.57s-.26-.57-.65-.57h-.68c-1.03,0-1.77.77-1.77,1.71s.74,1.71,1.77,1.71h1.64c.31,0,.57.26.57.57s-.26.57-.57.57h-1.64Z"/>
    <path class="cls-2" d="M93.99,205.24c0-.32.26-.58.58-.58s.58.26.58.58v6.99c0,.32-.26.58-.58.58s-.58-.26-.58-.58v-6.99Z"/>
    <path class="cls-2" d="M98.97,212.73c-1.72,0-2.93-1.28-2.93-2.85s1.21-2.85,2.93-2.85h1.32v-1.78c0-.32.26-.58.58-.58s.58.26.58.58v6.9c0,.32-.26.58-.58.58h-1.9ZM100.29,208.17h-1.32c-1.03,0-1.77.77-1.77,1.71s.74,1.71,1.77,1.71h1.32v-3.42Z"/>
    <path class="cls-2" d="M105.57,206.08c-.4,0-.72-.31-.72-.71s.32-.71.72-.71.72.31.72.71-.32.71-.72.71ZM104.98,207.52c0-.32.26-.58.58-.58s.58.26.58.58v4.71c0,.32-.26.58-.58.58s-.58-.26-.58-.58v-4.71Z"/>
    <path class="cls-2" d="M111.05,209.29c0-.61-.51-1.12-1.12-1.12h-1.46v4.06c0,.32-.26.58-.58.58s-.58-.26-.58-.58v-4.62c0-.32.26-.58.58-.58h2.04c1.26,0,2.28,1.02,2.28,2.28v2.92c0,.32-.26.58-.58.58s-.58-.26-.58-.58v-2.95Z"/>
    <path class="cls-2" d="M23.16,227.96c-1.72,0-2.93-1.28-2.93-2.85s1.21-2.85,2.93-2.85h1.32v-1.78c0-.32.26-.58.58-.58s.58.26.58.58v6.9c0,.32-.26.58-.58.58h-1.9ZM24.49,223.41h-1.32c-1.03,0-1.77.77-1.77,1.71s.74,1.71,1.77,1.71h1.32v-3.42Z"/>
    <path class="cls-2" d="M29.47,227.96c-1.72,0-2.93-1.28-2.93-2.85s1.21-2.85,2.93-2.85h.68c1.09,0,1.8.76,1.8,1.71s-.72,1.71-1.8,1.71h-1.09c-.31,0-.57-.26-.57-.57s.26-.57.57-.57h1.09c.39,0,.64-.26.64-.57s-.26-.57-.64-.57h-.68c-1.03,0-1.77.77-1.77,1.71s.74,1.71,1.77,1.71h1.64c.31,0,.57.26.57.57s-.26.57-.57.57h-1.64Z"/>
    <path class="cls-2" d="M35.65,227.96c-.31,0-.57-.26-.57-.57s.26-.57.57-.57h2.41c.39,0,.65-.26.65-.57s-.26-.57-.65-.57h-1.33c-1.09,0-1.81-.76-1.81-1.71s.72-1.71,1.81-1.71h2.41c.31,0,.57.26.57.57s-.26.57-.57.57h-2.41c-.39,0-.65.26-.65.57s.26.57.65.57h1.33c1.09,0,1.81.76,1.81,1.71s-.72,1.71-1.81,1.71h-2.41Z"/>
    <path class="cls-2" d="M41.91,227.96v1.78c0,.32-.26.58-.58.58s-.58-.26-.58-.58v-6.9c0-.32.26-.58.58-.58h1.9c1.72,0,2.93,1.28,2.93,2.85s-1.21,2.85-2.93,2.85h-1.32ZM43.23,226.82c1.03,0,1.77-.77,1.77-1.71s-.74-1.71-1.77-1.71h-1.32v3.42h1.32Z"/>
    <path class="cls-2" d="M49.82,227.96c-1.72,0-2.93-1.28-2.93-2.85s1.21-2.85,2.93-2.85h.68c1.09,0,1.8.76,1.8,1.71s-.72,1.71-1.8,1.71h-1.09c-.31,0-.57-.26-.57-.57s.26-.57.57-.57h1.09c.39,0,.64-.26.64-.57s-.26-.57-.64-.57h-.68c-1.03,0-1.77.77-1.77,1.71s.74,1.71,1.77,1.71h1.64c.31,0,.57.26.57.57s-.26.57-.57.57h-1.64Z"/>
    <path class="cls-2" d="M55.95,227.96c-1.72,0-2.93-1.28-2.93-2.85s1.21-2.85,2.93-2.85h.68c1.09,0,1.81.76,1.81,1.71s-.72,1.71-1.81,1.71h-1.09c-.31,0-.57-.26-.57-.57s.26-.57.57-.57h1.09c.39,0,.65-.26.65-.57s-.26-.57-.65-.57h-.68c-1.03,0-1.77.77-1.77,1.71s.74,1.71,1.77,1.71h1.64c.31,0,.57.26.57.57s-.26.57-.57.57h-1.64Z"/>
    <path class="cls-2" d="M59.32,220.48c0-.32.26-.58.58-.58s.58.26.58.58v6.99c0,.32-.26.58-.58.58s-.58-.26-.58-.58v-6.99Z"/>
    <path class="cls-2" d="M66,224.49c0,.32-.26.58-.58.58s-.58-.26-.58-.57v-.08c0-.57-.42-1.02-1.02-1.02h-1.02v4.06c0,.32-.26.58-.58.58s-.58-.26-.58-.58v-4.62c0-.32.26-.58.58-.58h1.6c1.23,0,2.18.98,2.18,2.16v.06Z"/>
    <path class="cls-2" d="M67.49,221.32c-.4,0-.72-.31-.72-.71s.32-.71.72-.71.72.31.72.71-.32.71-.72.71ZM66.91,222.76c0-.32.26-.58.58-.58s.58.26.58.58v4.71c0,.32-.26.58-.58.58s-.58-.26-.58-.58v-4.71Z"/>
    <path class="cls-2" d="M71.89,227.96c-1.72,0-2.93-1.28-2.93-2.85s1.21-2.85,2.93-2.85h1.18c.31,0,.57.26.57.57s-.26.57-.57.57h-1.18c-1.03,0-1.77.77-1.77,1.71s.74,1.71,1.77,1.71h1.18c.31,0,.57.26.57.57s-.26.57-.57.57h-1.18Z"/>
    <path class="cls-2" d="M78.24,224.52c0-.61-.51-1.12-1.12-1.12h-1.46v4.06c0,.32-.26.58-.58.58s-.58-.26-.58-.58v-6.99c0-.32.26-.58.58-.58s.58.26.58.58v1.78h1.46c1.26,0,2.28,1.02,2.28,2.28v2.92c0,.32-.26.58-.58.58s-.58-.26-.58-.58v-2.95Z"/>
    <path class="cls-2" d="M83.03,227.96c-1.11,0-2.01-.9-2.01-2.01v-2.55h-.68c-.31,0-.57-.26-.57-.57s.26-.57.57-.57h.68v-1.14c0-.32.26-.58.58-.58s.58.26.58.58v1.14h1.5c.31,0,.57.26.57.57s-.26.57-.57.57h-1.5v2.56c0,.48.37.86.86.86h.63c.31,0,.57.26.57.57s-.26.57-.57.57h-.65Z"/>
    <path class="cls-2" d="M85.62,221.32c-.4,0-.72-.31-.72-.71s.32-.71.72-.71.72.31.72.71-.32.71-.72.71ZM85.04,222.76c0-.32.26-.58.58-.58s.58.26.58.58v4.71c0,.32-.26.58-.58.58s-.58-.26-.58-.58v-4.71Z"/>
    <path class="cls-2" d="M91.11,224.52c0-.61-.51-1.12-1.12-1.12h-1.46v4.06c0,.32-.26.58-.58.58s-.58-.26-.58-.58v-4.62c0-.32.26-.58.58-.58h2.04c1.26,0,2.28,1.02,2.28,2.28v2.92c0,.32-.26.58-.58.58s-.58-.26-.58-.58v-2.95Z"/>
    <path class="cls-2" d="M94.5,230.24c-.31,0-.57-.26-.57-.57s.26-.57.57-.57h2.04c.48,0,.87-.39.87-.87v-.27h-1.32c-1.72,0-2.93-1.28-2.93-2.85s1.21-2.85,2.93-2.85h1.9c.32,0,.58.26.58.58v5.39c0,1.11-.9,2.01-2.01,2.01h-2.06ZM97.41,223.41h-1.32c-1.03,0-1.77.77-1.77,1.71s.74,1.71,1.77,1.71h1.32v-3.42Z"/>
  </g>
  <g>
    <g>
      <path class="cls-1" d="M106.78,123.89c1.32-1.12,2.69-2.17,4.04-3.25.94-.75,1.98-1.45,2.72-2.4,2.29-2.96-1.18-4.78-3.82-4.94-1.15-.07-1.35-1.74-.34-2.18,2.25-1,5.83-2.22,5.83-5.21,0-1.6-1.32-2.65-2.67-3.24-1.07-.47-2.92-1.03-4.08-.51-1.37.52-2.28-1.49-.93-2.09,3.31-1.27,4.04-4.6,2.72-7.68-1.06-2.48-3.61-5.01-6.4-3.41-1.28.73-2.19-1.36-.93-2.09,1.86-1.07,3.75-.88,5.38,0,.02-.01.03-.03.06-.04.14-.06.28-.12.42-.19.11-.4.41-.72.89-.77.39-.04.78-.1,1.16-.17.25-.12.5-.24.74-.36.11-.28.31-.51.6-.64,1.21-.54,2.4-1.13,3.61-1.68,1.48-.96,2.84-2.07,3.99-3.4.03-1.06-.18-2.08-.75-3.13-1.7-3.17-5.62-4.41-8.91-2.95l-16.86,7.51c.21-1.37,0-2.81-.69-4.14-1.67-3.23-5.65-4.52-8.97-3.04l-13.25,5.9c-.29.13-.58.27-.87.41-9.39,4.73-13.53,16.15-9.21,25.85l6.28,14.1c2.23,5,6.29,8.63,11.05,10.46s10.21,1.85,15.21-.38l13.67-6.09c.1-.09.2-.18.3-.26Z"/>
      <path class="cls-6" d="M107.34,85.95c3.3-1.47,6.59-2.94,9.89-4.4"/>
      <path class="cls-6" d="M95.3,91.32c2.17-.97,4.35-1.93,6.52-2.9"/>
      <path class="cls-6" d="M105.12,113.38l3.26-1.45"/>
      <line class="cls-5" x1="97.32" y1="128.22" x2="92.8" y2="130.24"/>
      <line class="cls-5" x1="78.31" y1="87.72" x2="93.23" y2="81.08"/>
      <path class="cls-4" d="M103.81,81.45c-1.38.96-2.86,1.77-4.41,2.43-.31.13-.62.58-.69.9-.08.34-.06.66.08.98.28.66,1.05,1.1,1.77.87,1.65-.53,3.3-1.05,4.94-1.58.75-.24,1.3-1.05,1.05-1.85-.24-.75-1.04-1.3-1.85-1.05-1.65.53-3.3,1.05-4.94,1.58l1.16,2.74c1.55-.66,3.03-1.47,4.41-2.43.33-.23.58-.5.69-.9.1-.36.05-.84-.15-1.16-.41-.64-1.36-1.02-2.05-.54h0Z"/>
      <path class="cls-4" d="M105.2,81.03c-1.4,1.39-3.07,2.24-4.82,3.13-1.93.97-3.87,1.94-5.8,2.91-.72.36-.93,1.39-.54,2.05.43.74,1.33.9,2.05.54,2-1,3.99-2,5.99-3s3.71-1.98,5.24-3.5c.58-.57.57-1.55,0-2.12s-1.54-.57-2.12,0h0Z"/>
      <path class="cls-4" d="M101.42,93.5c.35-.23.71-.46,1.08-.66.05-.03.61-.28.61-.3,0,.04-.35.13,0,0,.09-.03.18-.06.27-.09s.19-.05.28-.07c.06-.01.13-.03.19-.04-.24.03-.3.04-.19.02.17-.01.33-.02.5-.01.05,0,.1,0,.15.01l-.25-.03c.08,0,.19.03.26.05.09.02.17.05.26.08.25.07-.33-.16-.08-.04.13.07.25.16.38.23-.35-.18-.17-.13-.05-.02.03.03.05.05.08.08.1.12.07.07-.1-.13.02.06.09.14.12.19.13.22-.08-.3-.02-.04.01.05.09.43.05.15s0,.1,0,.16c0,.13-.09.36.02-.04-.02.09-.03.18-.06.27s-.05.18-.08.27c-.02.06-.04.12-.06.18-.06.15-.04.12.04-.09-.06.01-.21.44-.25.52-.11.2-.22.39-.34.58-.41.67-.17,1.68.54,2.05s1.61.18,2.05-.54c.6-.98,1.15-2.11,1.13-3.29-.01-1.27-.7-2.44-1.81-3.06-1.01-.56-2.18-.67-3.3-.42s-2.04.83-2.95,1.42c-.66.43-.99,1.35-.54,2.05.42.66,1.35.99,2.05.54h0Z"/>
      <path class="cls-4" d="M105.39,107.4l1.64-.97c.25-.15.5-.3.76-.45.13-.08.27-.16.4-.23.04-.02.39-.19.22-.12-.1.04-.08.04.06-.02.08-.03.16-.05.25-.06-.26.04-.02.03.11.03-.34-.02.03.03.1.05.32.08-.15-.1.12.04.26.14.5.28.75.44.12.08.24.17.37.25.25.17-.18-.19.06.04.06.06.28.32.06.03.15.21-.02-.12-.03-.22,0,.17,0,.16.01-.05l-.03.11c.08-.17.07-.18,0-.03-.03.05-.07.11-.1.16-.06.09-.05.07.04-.05-.05.06-.11.13-.17.19-.08.09-.17.18-.26.27-.18.17-.36.34-.55.5-.09.08-.19.16-.29.24.27-.22-.09.06-.14.1-.22.15-.44.3-.67.44-.21.13-.43.24-.65.35-.11.05-.22.11-.34.16-.16.07-.15.07.02,0-.08.03-.15.06-.23.09l1.16,2.74c1.28-.67,2.53-1.38,3.74-2.16.64-.41,1.26-.88,1.63-1.57.44-.82.42-1.75.07-2.6-1.35-3.19-5.89-2.5-8.37-1.29-.71.35-.95,1.41-.54,2.05.47.72,1.3.91,2.05.54.12-.06.25-.12.37-.17-.28.12.09-.03.15-.05.26-.09.52-.17.79-.23.13-.03.27-.05.4-.08.35-.08-.19,0,.14-.02.27-.02.54-.04.82-.04.13,0,.25,0,.38.01.08,0,.16.01.24.02l-.16-.02c.21-.01.51.11.7.19-.33-.12,0,.02.07.06.28.13-.11-.16.06.04.05.05.1.11.15.16l-.1-.13c.04.06.08.13.11.19-.07-.18-.08-.21-.05-.11.02.05.03.1.05.16-.02-.2-.02-.25-.02-.13,0,.05,0,.11,0,.16.04-.2.04-.25.01-.13-.03.1-.01.07.06-.1-.02.05-.05.1-.09.15-.06.09-.04.07.06-.08-.04.04-.08.08-.12.12-.04.04-.09.08-.13.12.13-.1.16-.12.07-.05-.1.06-.19.13-.29.2-.24.15-.48.3-.72.45-1,.62-2.02,1.2-3.07,1.74-.66.35-.89,1.22-.61,1.87s1.07,1.14,1.77.87c1.41-.54,2.68-1.29,3.81-2.3.55-.49,1.1-1.06,1.42-1.73.49-1.03.39-2.14-.36-3.02-.46-.54-1.15-.98-1.77-1.32-.86-.48-1.77-.73-2.75-.57-.79.13-1.47.58-2.15.97l-2.02,1.19c-.68.4-.98,1.37-.54,2.05s1.33.97,2.05.54h0Z"/>
      <path class="cls-4" d="M108.01,108.14c-.85.54-1.73,1.03-2.64,1.48-.21.1-.42.2-.64.3-.12.06-.24.11-.37.17-.09.04-.5.25-.1.05-.44.23-.94.38-1.41.55-.74.26-1.31,1.03-1.05,1.85.23.73,1.05,1.33,1.85,1.05,2.05-.73,4.03-1.67,5.87-2.84.66-.42.99-1.36.54-2.05s-1.34-.99-2.05-.54h0Z"/>
      <path class="cls-4" d="M107.7,117.26c1.31-.72,2.8-1.2,4.26-1.31.35-.03.73-.07,1.08-.02-.12-.02-.13-.02-.02,0,.1.03.1.02-.02-.01-.29-.18-.41-.39-.37-.64.01-.07,0-.01-.05.17-.13.23,0,.04-.12.26-.08.15-.17.29-.27.43-.07.1-.42.46-.62.64-.99.87-2.65,1.4-3.99,1.9-1.73.64-3.46,1.29-5.18,1.93-.7.26-1.19.87-1.07,1.65.1.69.72,1.35,1.47,1.3,3.99-.27,7.78-1.97,10.57-4.85,1.34-1.39-.78-3.51-2.12-2.12-2.24,2.32-5.31,3.76-8.45,3.97.13.98.27,1.96.4,2.95,2.13-.79,4.26-1.58,6.39-2.38s4-1.68,5.25-3.53c.66-.97,1.12-2.31.52-3.42s-1.79-1.29-2.89-1.25c-2.2.08-4.34.69-6.26,1.75-1.69.93-.18,3.52,1.51,2.59h0Z"/>
      <path class="cls-4" d="M99.42,88.36c3.84-2.59,8.59-2.87,12.82-4.54,1.85-.73,4.24-1.72,5.14-3.63.99-2.13-.74-4.51-3.06-4.03l1.16,2.74c-.3.14-.13,0-.2.18-.08.21-.13.4-.28.59-.3.4-.74.69-1.15.96-.96.63-1.97,1.18-3,1.67-2.15,1.01-4.44,1.72-6.72,2.39-4.49,1.32-9.07,2.5-13.15,4.88-1.48.87-.49,3.15,1.16,2.74,5.54-1.36,10.93-3.23,16.15-5.53,1.54-.68.44-3.31-1.16-2.74-5.15,1.81-10.13,4.07-15.09,6.33-1.53.7-.44,3.32,1.16,2.74,6.12-2.23,12.08-4.87,17.83-7.91,1.71-.9.19-3.49-1.51-2.59-5.53,2.93-11.24,5.47-17.12,7.61l1.16,2.74c4.73-2.16,9.47-4.3,14.38-6.03-.39-.91-.77-1.83-1.16-2.74-4.98,2.2-10.15,3.93-15.43,5.23l1.16,2.74c5.52-3.22,11.97-4.04,17.84-6.4,2.52-1.01,6.06-2.36,7.46-4.87,1.44-2.58-.94-5.96-3.83-4.58-1.61.77-.42,3.07,1.16,2.74-.22-.2-.38-.22-.48-.06l-.21.26c-.31.18-.59.46-.9.65-.66.4-1.36.75-2.08,1.04-1.51.61-3.1,1.02-4.68,1.43-3.07.8-6.19,1.61-8.86,3.41-1.59,1.07-.09,3.67,1.51,2.59h0Z"/>
      <path class="cls-8" d="M103.79,127.15c1.7-.75,3.41-1.5,5.11-2.25s3.38-1.34,4.85-2.36c2.29-1.58,4.48-4.26,4.54-7.17s-2.47-4.73-5.21-5c-3.18-.31-6.56.82-9.3,2.35-1.71.96-.21,3.39,1.51,2.59s3.43-1.59,5.15-2.39c1.3-.6,2.61-1.18,3.75-2.05,2.63-2,2.81-4.73,1.57-7.64-2.85-6.65-10.9-3.11-15.55-.83-1.53.75-.46,3.24,1.16,2.74,2.96-.92,5.93-2.22,7.94-4.67,1.84-2.25,2.75-5.28,1.69-8.09-1.07-2.85-3.72-4.5-6.75-4.32-3.41.21-6.1,2.31-9.24,3.36l.8,2.89c5.94-2.34,11.88-4.67,17.81-7.03,2.55-1.02,4.49-2.38,6.14-4.61,1.46-1.97,1.38-4.7-1.12-5.7-1.79-.72-2.57,2.18-.8,2.89-.02,0-.25.66-.33.81-.2.36-.5.67-.77.98-.66.76-1.35,1.45-2.22,1.95-1.94,1.11-4.22,1.78-6.29,2.6-4.4,1.74-8.81,3.48-13.21,5.22-1.75.69-1.07,3.52.8,2.89,3.14-1.05,10.16-6.19,12.31-1.12,2.04,4.8-3.93,7.93-7.54,9.05l1.16,2.74c3.09-1.51,9.59-5.05,11.45-.23.38.98.71,2.05.03,2.96-.54.72-1.41,1.2-2.19,1.61-2.34,1.23-4.82,2.26-7.22,3.38l1.51,2.59c2.09-1.17,4.49-1.98,6.9-1.98,2.18,0,3.74,1.16,2.73,3.43s-3.01,3.54-5.13,4.49c-2.5,1.12-5.02,2.21-7.53,3.31-1.76.77-.24,3.36,1.51,2.59h0Z"/>
      <path class="cls-4" d="M114.75,78.85l.2.4c.23.46.8.74,1.3.74.53,0,1.03-.29,1.3-.74.08-.14.16-.28.24-.42l-2.05.54s.04.03.06.04l-.3-.23c.06.05.1.1.15.15l-.23-.3c.05.07.09.14.12.21l-.15-.36c.04.1.07.2.08.31l-.05-.4c.01.12.01.25,0,.37l.05-.4c-.02.14-.05.27-.11.39l.15-.36c-.06.14-.14.27-.24.39l.23-.3c-.16.21-.36.38-.57.54l.3-.23c-.16.13-.33.24-.51.36-.33.22-.58.51-.69.9-.1.36-.05.84.15,1.16s.51.6.9.69.82.07,1.16-.15c.38-.26.77-.53,1.11-.85.42-.4.71-.87.91-1.41.09-.25.12-.54.14-.8s-.02-.54-.08-.8c-.02-.07-.04-.14-.07-.2-.07-.17-.13-.35-.23-.5-.22-.35-.46-.57-.8-.8-.17-.11-.36-.17-.56-.18-.2-.04-.4-.04-.6.03-.37.12-.7.34-.9.69-.08.14-.16.28-.24.42h2.59l-.2-.4c-.16-.32-.56-.6-.9-.69-.36-.1-.84-.05-1.16.15s-.6.51-.69.9l-.05.4c0,.27.07.52.2.76h0Z"/>
      <path class="cls-4" d="M117.7,79.34c.1-.34.15-.71.11-1.06-.03-.24-.05-.48-.12-.71s-.16-.45-.27-.66c-.15-.31-.38-.61-.63-.84-.17-.16-.35-.3-.54-.42-.2-.13-.44-.22-.66-.3-.2-.06-.4-.07-.6-.03-.2,0-.39.07-.56.18-.31.18-.61.54-.69.9-.09.38-.07.81.15,1.16l.23.3c.19.19.41.31.66.39.02,0,.04.01.05.02l-.36-.15c.13.06.24.12.35.21l-.3-.23c.12.1.23.21.33.33l-.23-.3c.1.13.18.28.25.43l-.15-.36c.06.15.11.31.13.48l-.05-.4c.02.15.02.29,0,.43l.05-.4c-.01.09-.03.17-.05.26-.11.37-.04.82.15,1.16.18.31.54.61.9.69.38.09.81.07,1.16-.15s.58-.51.69-.9h0Z"/>
      <path class="cls-4" d="M105.55,94.28c-.24.02-.3.03-.18.03.04,0,.09,0,.13,0-.05.02-.34-.08-.14-.01.04.01.08.02.12.04.11.04.06.02-.16-.07.01.03.16.09.19.11.14.08-.23-.23-.06-.04.05.06.16.25.06.05-.1-.22,0,.02.04.07.02.04.04.08.06.12.05.1.03.05-.06-.14,0,.03.05.16.06.2.1.31,0-.32,0,.01,0,.09.06.46-.01.52.06-.05.06-.32,0-.03-.02.09-.04.17-.06.26-.03.1-.07.2-.1.3-.09.27.1-.21.02-.05-.14.28-.29.53-.46.79-.1.15.21-.25.04-.05-.06.07-.12.14-.18.21-.1.11-.21.22-.33.32-.04.04-.25.21-.06.05s-.02.01-.07.04c-.12.08-.25.16-.39.23-.04.02-.08.04-.12.06-.1.05-.05.03.15-.06-.07,0-.15.06-.21.08-.16.05-.32.09-.48.12-.49.09-.94.57-1.05,1.05-.26,1.14.6,2.16,1.76,2.09.66-.04,1.27-.4,1.82-.74.91-.55,1.82-1.26,2.5-2.09.51-.61.85-1.23.94-2.03.07-.63-.12-1.3-.44-1.84-.68-1.15-1.89-1.7-3.11-2.07-.75-.23-1.67.27-1.85,1.05s.24,1.6,1.05,1.85c.17.05.34.1.51.16.02,0,.33.14.12.04s.07.03.11.05c.07.04.39.28.45.27-.15-.12-.18-.14-.1-.08.04.03.07.06.11.1.04.04.09.12.13.14-.12-.17-.15-.2-.09-.11.03.04.05.08.08.12.03.05.05.13.09.17-.08-.2-.1-.25-.07-.14.02.04.03.09.04.14.06.22-.04-.08-.02-.12,0,.05,0,.09,0,.14,0,.12,0,.06.02-.16-.02.02-.05.15-.05.18.09-.2.11-.24.05-.14-.02.04-.05.08-.07.13-.03.05-.2.27-.05.09s-.05.06-.07.07c-.05.06-.11.12-.17.18-.12.13-.25.25-.38.37s-.26.24-.4.35c-.05.04-.18.11-.21.17l.14-.1s-.08.06-.13.09c-.29.21-.58.4-.89.58-.15.09-.31.17-.47.25-.23.11-.09.02.06-.01.35-.09.84,0,1.07.31l.39.66v-.04c0,.27,0,.53,0,.8v-.05c-.34.35-.69.7-1.04,1.05,2.02-.39,3.59-2.08,4.22-3.98.36-1.1.36-2.47-.29-3.47-.32-.48-.74-.92-1.26-1.19-.67-.35-1.35-.42-2.08-.29s-1.28,1.13-1.05,1.85c.27.84,1.01,1.19,1.85,1.05h0Z"/>
      <path class="cls-4" d="M109.13,105.4c.09-.12.19-.22.31-.31l-.3.23c.13-.1.27-.18.42-.24l-.36.15c.16-.07.33-.11.5-.14l-.4.05c.17-.02.35-.02.52,0l-.4-.05c.16.02.31.06.46.12l-.36-.15c.14.06.26.13.38.22l-.3-.23c.12.09.22.2.31.31l-.23-.3c.1.13.18.27.24.42l-.15-.36c.07.16.11.33.14.5l-.05-.4c.02.17.02.35,0,.52l.05-.4c-.02.16-.06.31-.12.46l.15-.36c-.04.09-.08.17-.13.25-.2.32-.25.79-.15,1.16s.36.73.69.9c.74.39,1.61.17,2.05-.54.17-.27.3-.57.37-.87s.12-.63.1-.94c-.03-.62-.19-1.28-.55-1.79-.22-.32-.44-.56-.74-.8s-.59-.38-.97-.52c-.59-.21-1.28-.2-1.89-.06-.32.07-.65.21-.93.38s-.57.39-.78.66c-.15.14-.25.3-.31.48-.09.18-.14.37-.13.58,0,.37.16.81.44,1.06s.66.46,1.06.44c.37-.02.82-.13,1.06-.44h0Z"/>
      <path class="cls-4" d="M114.62,78.66c-.08.22-.17.44-.26.66l.15-.36c-.27.64-.58,1.26-.92,1.87-.26.47-.27,1.05,0,1.51.13.23.31.4.54.54.23.14.49.2.76.2.51-.05,1-.16,1.43-.45s.76-.62,1.04-1.06c.13-.21.23-.45.32-.68.05-.12.08-.25.1-.37.04-.24.09-.5.07-.75s-.05-.53-.13-.78c-.13-.37-.34-.69-.69-.9-.32-.19-.8-.27-1.16-.15s-.71.34-.9.69-.28.78-.15,1.16c.03.09.06.19.07.28l-.05-.4c.02.14.02.28,0,.42l.05-.4c-.02.15-.06.29-.12.44l.15-.36c-.06.15-.15.29-.25.42l.23-.3c-.09.12-.2.23-.32.32l.3-.23c-.11.08-.23.15-.36.21l.36-.15c-.11.04-.22.08-.34.09l.4-.05s-.04,0-.06,0l1.3,2.26c.52-.92.96-1.89,1.33-2.89.06-.2.07-.4.03-.6,0-.2-.07-.39-.18-.56-.18-.31-.54-.61-.9-.69-.38-.09-.81-.07-1.16.15l-.3.23c-.19.19-.31.41-.39.66h0Z"/>
      <path class="cls-4" d="M110.99,105.53s.07-.06.1-.09l-.3.23c.07-.05.14-.09.22-.13l-.36.15c.09-.04.19-.06.29-.08l-.4.05c.09-.01.18-.01.28,0l-.4-.05c.09.01.18.04.27.07l-.36-.15c.08.03.15.08.22.13l-.3-.23c.06.05.11.1.16.16l-.23-.3c.06.08.11.16.15.25l-.15-.36c.03.09.06.17.07.26l-.05-.4c.01.1.01.2,0,.29l.05-.4c-.01.08-.03.16-.06.24l.15-.36s-.02.04-.03.06c-.11.17-.17.36-.18.56-.04.2-.04.4.03.6l.15.36c.09.17.22.32.39.42.09.09.2.16.33.19.18.09.37.14.58.13l.4-.05c.25-.07.47-.2.66-.39.25-.31.38-.49.5-.88.05-.16.06-.36.08-.52,0-.05,0-.1,0-.15-.03-.41-.09-.63-.26-1-.09-.19-.23-.37-.39-.52-.28-.27-.67-.44-1.06-.44-.21,0-.4.04-.58.13-.19.06-.35.16-.48.31-.26.29-.46.66-.44,1.06s.15.78.44,1.06c.03.03.05.05.07.08l-.23-.3s.06.09.08.13l-.15-.36c.03.06.04.13.05.19l-.05-.4c0,.07,0,.13,0,.2l.05-.4c0,.06-.03.12-.05.17l.15-.36s-.05.09-.08.13l.23-.3v.02c.77.61,1.56,1.21,2.34,1.82.09-.2.2-.41.24-.63s.09-.46.06-.68-.04-.46-.12-.68c-.08-.2-.16-.43-.28-.61s-.25-.36-.42-.5c-.13-.11-.26-.22-.41-.31s-.32-.15-.48-.21c-.21-.08-.46-.1-.68-.12s-.46.03-.69.06-.46.15-.67.25c-.05.03-.1.06-.15.09-.15.1-.3.21-.43.34-.15.14-.25.3-.31.48-.09.18-.14.37-.13.58,0,.21.04.4.13.58.06.19.16.35.31.48.29.26.66.46,1.06.44s.77-.15,1.06-.44h0Z"/>
    </g>
    <rect class="cls-3" x="51.02" y="100.4" width="13.26" height="34.17" transform="translate(-42.81 33.61) rotate(-24)"/>
  </g>
</svg>