<?xml version="1.0" encoding="UTF-8"?>
<svg id="Laag_1" data-name="Laag 1" xmlns="http://www.w3.org/2000/svg" viewBox="0 0 164.41 249.45">
  <defs>
    <style>
      .cls-1, .cls-2, .cls-3, .cls-4 {
        stroke: #1d1d1b;
      }

      .cls-1, .cls-2, .cls-3, .cls-4, .cls-5, .cls-6 {
        stroke-miterlimit: 10;
      }

      .cls-1, .cls-2, .cls-3, .cls-4, .cls-6 {
        stroke-width: 5.17px;
      }

      .cls-1, .cls-7 {
        fill: #8abb2a;
      }

      .cls-2 {
        fill: #eb7c19;
      }

      .cls-3 {
        fill: #8082b8;
      }

      .cls-4, .cls-8 {
        fill: #de2b65;
      }

      .cls-5 {
        stroke: #fff;
        stroke-width: .48px;
      }

      .cls-5, .cls-9 {
        fill: #fff;
      }

      .cls-6 {
        fill: none;
        stroke: #000;
      }

      .cls-10 {
        fill: #2f2f2f;
      }

      .cls-10, .cls-11, .cls-8, .cls-7, .cls-9 {
        stroke-width: 0px;
      }

      .cls-11 {
        fill: #1d1d1b;
      }
    </style>
  </defs>
  <rect class="cls-10" x="0" y="0" width="164.41" height="249.45"/>
  <g>
    <path class="cls-8" d="M141.74,206.68c-4.35,0-7.89-3.7-7.89-8.26s3.54-8.25,7.89-8.25,7.89,3.7,7.89,8.25-3.54,8.26-7.89,8.26Z"/>
    <path class="cls-11" d="M141.74,191.17c3.8,0,6.89,3.25,6.89,7.26s-3.09,7.26-6.89,7.26-6.89-3.25-6.89-7.26,3.09-7.26,6.89-7.26M141.74,189.17c-4.91,0-8.89,4.14-8.89,9.26s3.98,9.26,8.89,9.26,8.89-4.14,8.89-9.26-3.98-9.26-8.89-9.26h0Z"/>
  </g>
  <g>
    <ellipse class="cls-7" cx="141.74" cy="226.17" rx="7.89" ry="8.26"/>
    <path class="cls-11" d="M141.74,218.92c3.8,0,6.89,3.25,6.89,7.26s-3.09,7.26-6.89,7.26-6.89-3.25-6.89-7.26,3.09-7.26,6.89-7.26M141.74,216.92c-4.91,0-8.89,4.14-8.89,9.26s3.98,9.26,8.89,9.26,8.89-4.14,8.89-9.26-3.98-9.26-8.89-9.26h0Z"/>
  </g>
  <g>
    <path class="cls-9" d="M19.57,26.78c.45,0,.84.05,1.15.15s.58.25.8.46c.58-.22,1.24-.31,1.99-.26.99.06,1.88.31,2.7.74.81.43,1.52,1.01,2.11,1.74.59.73,1.06,1.58,1.38,2.55s.49,2.03.49,3.17-.15,2.18-.45,3.2-.75,1.93-1.35,2.72-1.35,1.42-2.25,1.89c-.9.47-1.95.7-3.15.68-.91-.02-1.63-.09-2.18-.22-.55-.13-.97-.36-1.28-.67-.31-.31-.51-.73-.61-1.26-.1-.52-.15-1.18-.15-1.98,0-1.64,0-3.05-.01-4.23,0-1.18-.04-2.17-.09-2.97s-.14-1.44-.25-1.91c-.11-.48-.26-.84-.46-1.08-.2-.24-.44-.39-.74-.46s-.66-.09-1.08-.07c.33-.48.65-.87.97-1.15.32-.28.63-.5.93-.66s.57-.26.83-.31c.26-.05.49-.07.69-.07ZM22.29,32.2c-.02.17-.03.47-.04.9,0,.43-.02.92-.04,1.48-.01.56-.02,1.16-.02,1.81v1.9c0,.62,0,1.2.02,1.75.02.55.04,1,.07,1.36.7-.05,1.29-.27,1.76-.68s.85-.91,1.14-1.51c.29-.6.49-1.26.61-1.97.12-.71.17-1.39.15-2.03-.02-.66-.11-1.31-.27-1.95-.16-.64-.4-1.22-.7-1.75-.3-.52-.68-.96-1.13-1.31s-.95-.57-1.51-.65c.03.39.04.81.02,1.26-.02.45-.04.91-.07,1.4Z"/>
    <path class="cls-9" d="M39.6,29.41c-.81.67-1.46,1.42-1.95,2.23-.49.81-.84,1.63-1.06,2.44-.22.81-.33,1.6-.32,2.36,0,.76.11,1.44.29,2.03.19.59.45,1.07.77,1.42.33.35.7.53,1.13.53.45,0,.84-.15,1.16-.45.32-.3.57-.69.74-1.17.17-.48.26-1.04.27-1.67,0-.63-.07-1.27-.23-1.94-.16-.66-.42-1.32-.75-1.96-.34-.64-.77-1.22-1.3-1.74,1.24.02,2.27.25,3.12.7s1.5,1.04,1.98,1.77c.48.73.78,1.54.9,2.45s.08,1.83-.14,2.77c-.14.64-.38,1.25-.73,1.84-.34.59-.76,1.1-1.26,1.55-.49.45-1.06.8-1.69,1.06-.63.26-1.31.39-2.03.39-.92,0-1.75-.16-2.49-.47-.74-.31-1.36-.75-1.88-1.33s-.92-1.25-1.21-2.04-.44-1.65-.46-2.59c-.03-1,.11-1.95.42-2.86s.77-1.73,1.38-2.46c.61-.73,1.36-1.35,2.25-1.85.89-.5,1.91-.84,3.05-1.01Z"/>
    <path class="cls-9" d="M45.42,31.66c.27-.39.53-.7.8-.94s.52-.41.76-.54c.24-.12.47-.21.68-.25.21-.04.4-.06.57-.06.61,0,1.11.11,1.49.33s.68.52.89.91c.21.39.35.86.42,1.41.07.55.11,1.14.13,1.78.02.39.01.99-.01,1.81-.02.81-.02,1.81.01,2.98.02.55.11.92.28,1.1.17.19.54.28,1.1.28.34,0,.67-.01.97-.04.3-.02.63-.06.97-.11.02-.91.02-1.87,0-2.9-.02-1.02-.04-2.01-.07-2.96-.03-.95-.08-1.82-.14-2.63-.06-.81-.14-1.45-.23-1.94,1.09,0,1.95.31,2.58.93.62.62,1.06,1.4,1.3,2.35.24.95.32,1.99.23,3.14-.09,1.15-.3,2.25-.65,3.31-.34,1.06-.79,2-1.34,2.84-.55.84-1.16,1.42-1.83,1.75.02-.19.03-.41.05-.66.01-.25.03-.53.05-.84-.56.38-1.17.65-1.81.83-.64.18-1.29.27-1.95.27s-1.19-.08-1.6-.25c-.41-.16-.72-.4-.95-.7-.23-.31-.38-.68-.46-1.13-.08-.45-.12-.95-.12-1.51,0-1.35,0-2.49-.01-3.45,0-.95-.03-1.75-.08-2.39-.05-.64-.11-1.15-.2-1.52-.09-.37-.21-.65-.36-.83-.16-.18-.36-.29-.61-.34-.25-.05-.55-.06-.89-.05Z"/>
    <path class="cls-9" d="M60.72,27.06c.58-.05,1.1.01,1.56.18.46.16.86.41,1.2.73s.62.71.86,1.16.42.96.56,1.52c.25-.06.5-.1.76-.12s.52-.02.79,0c.86.05,1.65.26,2.38.65.73.38,1.36.89,1.89,1.51.53.63.94,1.34,1.23,2.15.29.81.43,1.66.41,2.57-.02.88-.15,1.69-.41,2.43-.26.74-.63,1.39-1.11,1.94-.49.55-1.08.98-1.78,1.3-.7.32-1.51.49-2.42.5-.72.03-1.4-.06-2.04-.28s-1.17-.56-1.59-1.03c-.61.99-1.27,1.63-1.97,1.95.05-.41.08-1.05.11-1.92s.04-1.87.05-2.98c0-1.11,0-2.28-.01-3.52-.01-1.24-.04-2.42-.08-3.55-.04-1.13-.09-2.16-.15-3.08s-.13-1.62-.21-2.09ZM65.2,33.04c.01.66,0,1.34-.06,2.04s-.15,1.4-.29,2.08c-.14.68-.31,1.35-.52,2.01s-.43,1.27-.68,1.83c.66.19,1.35.19,2.09,0,1.66-.41,2.46-1.63,2.42-3.68-.02-.5-.09-.99-.23-1.48-.14-.48-.34-.92-.6-1.3-.26-.38-.57-.71-.93-.97-.36-.27-.76-.44-1.2-.52Z"/>
    <path class="cls-9" d="M74.6,27.3c.91-.06,1.66.11,2.26.5s1.08.95,1.43,1.65.59,1.53.7,2.47c.12.95.14,1.93.06,2.96-.08,1.02-.24,2.05-.48,3.06-.24,1.02-.55,1.95-.91,2.8-.37.85-.79,1.59-1.26,2.2-.47.62-.97,1.04-1.5,1.26.05-.41.08-1.04.1-1.9.02-.86.04-1.84.05-2.93,0-1.09,0-2.25-.01-3.47-.02-1.22-.04-2.39-.08-3.51-.04-1.12-.09-2.13-.15-3.04-.06-.91-.13-1.6-.21-2.06Z"/>
    <path class="cls-9" d="M93.89,38.65c-.64.09-1.22.18-1.75.25-.52.07-1.06.12-1.61.16s-1.15.07-1.81.08c-.66.02-1.43.02-2.32.02.11,1,.65,1.74,1.63,2.23.98.48,2.48.63,4.52.42-.27.36-.61.67-1.03.93-.42.26-.88.47-1.36.62-.49.16-.98.27-1.49.33-.51.06-.99.08-1.44.05-.75-.05-1.47-.23-2.16-.54-.69-.31-1.29-.76-1.81-1.35s-.93-1.31-1.23-2.17c-.31-.86-.45-1.85-.43-2.98.01-1.16.2-2.17.56-3.05.36-.88.82-1.6,1.4-2.18.57-.58,1.2-1.01,1.9-1.3.7-.29,1.39-.43,2.08-.43,1.02,0,1.94.15,2.76.45.82.3,1.51.79,2.08,1.49s.98,1.61,1.26,2.76c.27,1.14.36,2.55.27,4.22ZM87.93,32.15c-.33,0-.61.08-.86.23-.24.16-.44.42-.6.79s-.27.86-.34,1.47c-.07.61-.1,1.37-.08,2.28.25.02.7.02,1.36.01.66,0,1.51-.03,2.56-.06.05-.78.02-1.47-.08-2.06-.1-.59-.25-1.09-.43-1.48-.19-.39-.42-.68-.68-.88-.27-.2-.55-.29-.84-.29Z"/>
    <path class="cls-9" d="M105.43,30.98c-.11.66-.31,1.22-.6,1.7-.29.48-.62.87-1,1.17-.38.3-.78.53-1.22.68s-.87.22-1.29.22h-.45c.03.91.08,1.76.15,2.56.07.8.18,1.5.32,2.1s.32,1.08.54,1.44c.22.36.49.56.82.61.16.03.33.04.53.03.2,0,.41-.07.65-.18.23-.11.49-.29.76-.54.27-.25.57-.61.9-1.08.05.61.02,1.18-.09,1.7s-.31.98-.61,1.37c-.3.39-.7.7-1.2.92-.5.22-1.11.33-1.83.33-.94,0-1.77-.23-2.5-.68s-1.24-1.08-1.54-1.88c-.16-.42-.28-.92-.37-1.48-.09-.56-.16-1.17-.21-1.83s-.06-1.34-.04-2.06c.02-.72.08-1.44.15-2.16-.67-.37-1.16-.83-1.48-1.37-.31-.54-.53-1.08-.66-1.63.45.06.9.11,1.34.15s.86.07,1.27.11c.14-.61.32-1.19.53-1.74.21-.55.45-1.03.7-1.46.26-.42.55-.77.88-1.06.33-.28.68-.47,1.06-.56-.02.73-.04,1.51-.06,2.31s-.04,1.67-.06,2.59c.75-.01,1.49-.05,2.23-.11.73-.05,1.52-.12,2.37-.2Z"/>
    <path class="cls-9" d="M115.54,42.24c-.66.66-1.35,1.08-2.06,1.28-.72.2-1.39.28-2.02.25-.61-.03-1.18-.19-1.71-.47-.53-.28-.99-.65-1.37-1.11-.38-.46-.68-1-.88-1.61-.2-.61-.29-1.26-.26-1.95.03-.61.15-1.21.35-1.79s.51-1.11.91-1.57c.41-.46.93-.83,1.56-1.1.63-.27,1.4-.41,2.29-.41.5,0,.97.06,1.42.18.45.12.87.33,1.28.62-.05-.66-.33-1.15-.86-1.49s-1.15-.57-1.88-.69c-.73-.12-1.48-.16-2.26-.11-.78.05-1.45.15-1.99.29.31-.52.68-.97,1.11-1.36.43-.39.89-.72,1.38-.97.49-.26,1-.45,1.51-.58.51-.12,1.02-.17,1.52-.14.89.05,1.65.27,2.27.67.63.4,1.14.92,1.54,1.55.4.63.69,1.36.88,2.18.19.82.28,1.69.28,2.59,0,.75-.05,1.51-.15,2.28s-.26,1.5-.47,2.19c-.21.7-.47,1.34-.77,1.94-.31.59-.65,1.1-1.04,1.52-.08-.3-.16-.65-.26-1.04-.09-.4-.2-.78-.33-1.14ZM110.73,38.3c.02.23.06.47.13.69.07.23.18.43.32.62.14.19.32.35.55.48s.51.23.86.29c.41.08.77.07,1.08-.03s.58-.25.79-.46.37-.44.48-.72c.11-.27.16-.55.16-.83,0-.38-.05-.72-.14-1.04s-.23-.6-.42-.84c-.19-.24-.43-.43-.73-.57s-.65-.2-1.06-.19c-.72.03-1.26.29-1.61.76-.35.48-.49,1.09-.41,1.84Z"/>
    <path class="cls-9" d="M121.1,27.06c.86-.06,1.59.09,2.18.46.59.37,1.07.88,1.42,1.55.35.67.6,1.44.74,2.33.14.89.19,1.83.14,2.82.61-.34,1.18-.68,1.72-1.02.54-.34,1.07-.7,1.58-1.08.52-.38,1.03-.8,1.55-1.25s1.06-.98,1.62-1.57c.67,1.53.72,2.93.14,4.2-.58,1.27-1.87,2.45-3.87,3.54.59,1.13,1.34,2.29,2.23,3.48s1.93,2.31,3.12,3.34c-.72-.02-1.47-.14-2.26-.39-.79-.24-1.57-.59-2.35-1.04-.77-.45-1.52-1.01-2.23-1.67-.71-.66-1.35-1.42-1.91-2.3-.19.7-.41,1.37-.66,1.99-.25.63-.53,1.19-.83,1.7-.3.51-.62.94-.96,1.29s-.69.61-1.07.76c.05-.41.08-1.05.11-1.92.02-.88.04-1.87.05-2.98,0-1.11,0-2.28-.01-3.52-.02-1.24-.04-2.42-.08-3.55-.04-1.13-.09-2.16-.15-3.08-.06-.92-.13-1.62-.21-2.09Z"/>
    <path class="cls-9" d="M147.04,38.65c-.64.09-1.22.18-1.75.25-.52.07-1.06.12-1.61.16-.55.04-1.15.07-1.81.08-.66.02-1.43.02-2.32.02.11,1,.65,1.74,1.63,2.23.98.48,2.48.63,4.52.42-.27.36-.61.67-1.03.93s-.88.47-1.36.62c-.48.16-.98.27-1.49.33-.51.06-.99.08-1.44.05-.75-.05-1.47-.23-2.16-.54-.69-.31-1.29-.76-1.81-1.35s-.93-1.31-1.23-2.17c-.31-.86-.45-1.85-.43-2.98.02-1.16.2-2.17.56-3.05.36-.88.82-1.6,1.4-2.18.57-.58,1.2-1.01,1.9-1.3.7-.29,1.39-.43,2.08-.43,1.02,0,1.94.15,2.76.45.82.3,1.51.79,2.08,1.49.56.7.98,1.61,1.25,2.76.27,1.14.36,2.55.27,4.22ZM141.08,32.15c-.33,0-.61.08-.86.23-.24.16-.44.42-.6.79s-.27.86-.34,1.47c-.07.61-.1,1.37-.08,2.28.25.02.7.02,1.36.01.66,0,1.51-.03,2.56-.06.05-.78.02-1.47-.08-2.06-.1-.59-.25-1.09-.43-1.48-.19-.39-.41-.68-.68-.88-.27-.2-.55-.29-.84-.29Z"/>
  </g>
  <g>
    <path class="cls-8" d="M32.25,131.15c4.08,3.07,8.16,6.14,12.23,9.21,3.37,2.54,6.72,5.44,10.76,6.85,4.35,1.52,8.63.88,13.12.66s8.35.25,12.52-1.56c3.72-1.62,7.61-2.48,11.35-4.14,4.26-1.89,8.73-1.45,13.07-2.92,1.98-.67,3.53-1.88,5.36-2.84,2.3-1.2,4.78-1.33,7.3-1.82,4.77-.93,9.26-2.6,13.67-4.62,2.1-.97,3.09-4.5,1.67-6.37-1.76-2.31-3.27-2.95-5.75-4.26-2.51-1.33-4.3-3.78-6.65-5.45-4.91-3.49-10.38-6.84-16.21-8.54-5.73-1.67-11.2-.94-16.89.47-2.91.72-5.67,1.68-8.34,3.05-2.7,1.39-5.03,3.37-8.21,3.29.41,3.05.83,6.1,1.24,9.15,3.54-.78,6.23-2.29,9.03-4.54,3.54-2.84-.29-9.51-4.53-7.78-3.85,1.57-7.43,1.19-11.12,3.51-3.77,2.36-7.22,2.63-11.62,3.21-7.31.96-14.84,1.72-20.16,7.4-3.41,3.64.1,8.44,4.53,7.78,7.06-1.05,14.11-2.09,21.17-3.14-1.2-2.84-2.39-5.67-3.59-8.51-3.02,1.63-6.03,3.25-9.05,4.88-4.09,2.2-2.2,8.74,2.35,8.68,4.14-.06,8.29-.11,12.43-.17-.78-2.89-1.57-5.78-2.35-8.68-1.88,1.26-3.73,2.29-5.87,3.06-4.65,1.67-4.34,9.43,1.24,9.15l8.97-.46c-.78-2.89-1.57-5.78-2.35-8.68-2.38,1.36-4.76,2.72-7.15,4.08-4.55,2.6-1.52,10,3.59,8.51,2.36-.68,4.48-.95,6.93-.89-1.1-2.65-2.19-5.3-3.29-7.95-1.06.87-2.12,1.73-3.17,2.6-3.87,3.17.4,8.67,4.53,7.78,2.49-.54,4.9-.8,7.44-.86-1.1-2.65-2.19-5.3-3.29-7.95l-1.61,1.63c-3.53,3.57.18,8.45,4.53,7.78,1.99-.31,3.9-.42,5.9-.47-.78-2.89-1.57-5.78-2.35-8.68-.58.54-1.24.95-1.98,1.24-4.67,2.34-1.42,10.24,3.59,8.51.83-.29,1.67-.58,2.5-.86,4.93-1.7,4.14-8.92-1.24-9.15-6.06-.26-13.27.47-19.15-1.01l2.78,2.14c-2.46-3.27-4.96-4.6-9.06-4.73l2.35,8.68c8.87-4.74,18.48-7.49,28.12-10.19,5.33-1.49,3.79-8.64-1.24-9.15s-10.01-.2-14.9,1.28c-5.83,1.76-3.35,9.99,2.48,8.98,7.12-1.24,14.19-2.73,21.2-4.48-1.75-2.28-3.51-4.56-5.26-6.84-2.69,4.64-9.11,6.67-13.19,9.99-4.22,3.43,1.17,9.77,5.64,7.31,2.54-1.4,5.1-2.64,7.81-3.68l-4.53-7.78c-1.88,1.73-3.39,3.63-4.72,5.81-1.93,3.17,1.38,8.48,5.26,6.84,2.94-1.24,5.89-2.18,9.07-2.54-.78-2.89-1.57-5.78-2.35-8.68-3.19,1.67-6.43,3.11-9.81,4.34.83,2.99,1.65,5.99,2.48,8.98,3.91-1.62,7.8-3.26,12.07-3.54-1.1-2.65-2.19-5.3-3.29-7.95-1.42,1.39-2.84,2.77-4.26,4.16-3.16,3.08.05,9.47,4.53,7.78,3.16-1.19,6.14-2.57,9.03-4.33,3.99-2.43,2.26-8.54-2.35-8.68-8.79-.26-17.58-.22-26.37.12-6.12.24-5.84,8.64,0,9.31,6.41.74,12.81-.34,18.6-3.21,2.79-1.38,5.08-3.53,7.83-4.93,2.47-1.26,4.66-1.7,6.72-3.73,2.53-2.5,1.28-6.81-2.05-7.78-2.82-.83-5.58-1.23-8.52-1.29,1.34,2.34,2.68,4.67,4.02,7.01l.63-.87-2.78,2.14c6.54-2.64,11.58,2.72,16.27,6.33,2.6,2,5.92-.31,6.84-2.78l.58-1.56c-1.91,1.08-3.82,2.17-5.73,3.25l-.19-.24c1.91-1.91,3.82-3.82,5.73-5.73-7.8-1.36-14.77.49-20.86,5.54,2.65,1.1,5.3,2.19,7.95,3.29l-.55.84c4.31-2.2,2.02-8.52-2.35-8.68-1.75-.06-3.49-.12-5.24-.18-5.99-.21-5.99,9.1,0,9.31,1.75.06,3.49.12,5.24.18-.78-2.89-1.57-5.78-2.35-8.68-2.75,1.4-4.34,4.09-4.06,7.2.38,4.17,4.74,5.95,7.95,3.29s7.56-3.89,11.8-3.15c3.23.56,6.97-2.06,5.73-5.73-1.11-3.26-3.03-5.21-6.32-6.26-2.55-.82-4.88.97-5.73,3.25-.19.52-.39,1.04-.58,1.56l6.84-2.78c-4.36-3.36-8.13-7.26-13.81-7.81-4.96-.48-9.89-.81-13.05,3.55-2.17,2.99.78,6.94,4.02,7.01,2.14.05,3.98.35,6.04.96-.68-2.59-1.37-5.19-2.05-7.78-1.35,1.34-3.82,1.71-5.47,2.65-1.98,1.14-3.72,2.65-5.72,3.77-4.77,2.68-10,3.33-15.38,2.71v9.31c8.79-.34,17.58-.38,26.37-.12-.78-2.89-1.57-5.78-2.35-8.68-2.2,1.34-4.39,2.48-6.81,3.39,1.51,2.59,3.02,5.19,4.53,7.78,1.42-1.39,2.84-2.77,4.26-4.16,2.76-2.69.8-8.22-3.29-7.95-5.17.34-9.79,1.9-14.55,3.87-5.38,2.24-3.27,11.06,2.48,8.98,4.13-1.5,8.14-3.24,12.04-5.28,3.9-2.04,2.31-9.21-2.35-8.68-4.07.47-7.76,1.28-11.55,2.88l5.26,6.84c.94-1.55,1.93-2.7,3.26-3.92,3.28-3.02-.13-9.48-4.53-7.78-3.46,1.33-6.79,2.83-10.03,4.62,1.88,2.44,3.76,4.87,5.64,7.31,5.1-4.15,11.16-5.88,14.64-11.88,2.07-3.57-1.35-7.81-5.26-6.84-7.02,1.75-14.08,3.24-21.2,4.48.83,2.99,1.65,5.99,2.48,8.98,4.18-1.26,8.1-1.38,12.42-.95-.41-3.05-.83-6.1-1.24-9.15-10.42,2.91-20.76,6-30.34,11.13-4.23,2.26-2.08,8.53,2.35,8.68,1.53.05,1.32.93,2.69,1.79,1.86,1.17,4.6,1.04,6.66,1.13,5.36.23,10.72.46,16.08.69-.41-3.05-.83-6.1-1.24-9.15-.83.29-1.67.58-2.5.86l3.59,8.51c.74-.29,1.4-.7,1.98-1.24,3.37-2.58,2.73-8.8-2.35-8.68-2.83.07-5.58.37-8.38.8,1.51,2.59,3.02,5.19,4.53,7.78l1.61-1.63c2.78-2.81.8-8.05-3.29-7.95-3.36.08-6.63.49-9.91,1.2l4.53,7.78c1.06-.87,2.12-1.73,3.17-2.6,3.3-2.7.42-7.85-3.29-7.95-3.23-.09-6.3.32-9.41,1.22l3.59,8.51c2.38-1.36,4.76-2.72,7.15-4.08,3.9-2.22,2.33-8.91-2.35-8.68-2.99.15-5.98.3-8.97.46.41,3.05.83,6.1,1.24,9.15,2.88-1.04,5.54-2.29,8.09-4,3.68-2.47,2.5-8.74-2.35-8.68-4.14.06-8.29.11-12.43.17.78,2.89,1.57,5.78,2.35,8.68,3.02-1.63,6.03-3.25,9.05-4.88,5.01-2.7,1.27-9.23-3.59-8.51-7.06,1.05-14.11,2.09-21.17,3.14,1.51,2.59,3.02,5.19,4.53,7.78,4.76-5.08,13.97-4.66,20.37-5.57,3.07-.44,5.65-1.05,8.3-2.68,1.58-.97,2.61-1.96,4.47-2.34,1.98-.4,3.73-.35,5.65-1.13l-4.53-7.78c-1.52,1.22-3.06,1.73-4.92,2.14-5.25,1.16-3.89,9.02,1.24,9.15s8.58-2.42,12.91-4.56,10.74-3.95,15.74-3.16c5.22.82,9.93,3.97,14.26,6.82,2.28,1.5,3.89,3.38,5.94,5.08,1.01.84,4.55,1.85,5.16,2.65.56-2.12,1.11-4.25,1.67-6.37-3.94,1.81-8.05,3.07-12.31,3.85s-6.97,1.88-10.72,3.91c-3.52,1.9-7.61,1.23-11.37,2.32-3.97,1.15-7.79,2.93-11.76,4.16-3.64,1.13-5.88,2.35-9.86,2.34s-8.65,1.27-12.6-.12c-3.65-1.29-6.83-4.35-9.88-6.65-3.82-2.88-7.65-5.76-11.47-8.64-4.79-3.61-9.43,4.48-4.7,8.04h0Z"/>
    <path class="cls-7" d="M26.74,137.74c1.35,1.75,2.96,3.14,4.99,4.03,1.83.8,3.21-1.5,1.57-2.68-1.79-1.29-3.42-2.85-4.77-4.6l-2.12,2.12c11.52,6.3,23.03,12.61,34.55,18.91.12-.95.25-1.89.37-2.84-2.48.47-5.09.19-7.39-.87-2.48-1.15-4.7-2.86-6.95-4.39-4.67-3.16-9.34-6.32-14.01-9.48-.52.89-1.04,1.79-1.57,2.68,2.11,1.43,4.22,2.85,6.33,4.28l1.2-2.84c-1.46-.55-2.92-1.1-4.37-1.65-1.78-.67-2.49,1.88-1.2,2.84,6.35,4.73,14.12,6.96,21.54,9.39,3.92,1.29,7.97,2.61,12.15,2.18s8.66-1.89,12.89-2.95c4.99-1.25,9.98-2.5,14.97-3.75,1.67-.42,1.36-3.16-.41-3.05-.97.06-1.93.12-2.9.18.14,1.02.28,2.03.41,3.05,7.9-1.51,15.7-3.54,23.33-6.07l-1.2-2.84c-5.89,3.09-12.25,5.09-18.84,5.99l1.51,2.59c2.64-2.19,6.48-2.2,9.69-2.82,3.84-.74,6.99-2.81,10.51-4.38,6.81-3.04,14.77-1.92,21.28-5.87,1.49-.91.53-3.3-1.2-2.84-2.52.68-4.92,1.7-7.16,3.03-1.06.63-1,2.61.37,2.84,2.68.44,5.19.12,7.66-1,1.6-.72.47-3.38-1.2-2.84-4.67,1.53-9.37,2.95-14.11,4.24-2.33.63-4.67,1.23-7.02,1.8-1.17.29-2.35.56-3.53.83-.63.14-1.26.29-1.89.42-.15.03-1.7.31-1.32.48l.71.93-.03-.2-.4,1.51.12-.16-1.51.4.16.03c1.95.35,2.79-2.65.83-2.99l-.16-.03c-.5-.09-1.16-.05-1.51.4-.73.94-.82,2.22.36,2.86s2.64-.02,3.8-.28c2.99-.66,5.96-1.38,8.93-2.14,5.85-1.51,11.64-3.21,17.38-5.1-.4-.95-.8-1.89-1.2-2.84-1.65.74-3.49.98-5.27.69.12.95.25,1.89.37,2.84,2.02-1.2,4.15-2.1,6.42-2.72-.4-.95-.8-1.89-1.2-2.84-3.27,1.99-7.06,2.61-10.78,3.19s-7.42,1.24-10.89,2.86c-1.74.81-3.39,1.79-5.14,2.58s-3.53,1.2-5.39,1.51c-3.56.59-7.04,1.04-9.91,3.42-1.35,1.12.18,2.77,1.51,2.59,6.85-.93,13.46-3.08,19.58-6.3,1.54-.81.48-3.39-1.2-2.84-7.64,2.53-15.43,4.56-23.33,6.07-1.71.33-1.33,3.15.41,3.05.97-.06,1.93-.12,2.9-.18-.14-1.02-.28-2.03-.41-3.05-8.33,2.09-16.65,4.46-25.06,6.25-4.09.87-7.85.03-11.75-1.23-3.7-1.19-7.41-2.37-11.05-3.72-4-1.48-7.86-3.31-11.29-5.86l-1.2,2.84c1.46.55,2.92,1.1,4.37,1.65,1.73.65,2.57-1.91,1.2-2.84-2.11-1.43-4.22-2.85-6.33-4.28-1.66-1.12-3.21,1.57-1.57,2.68,5.07,3.43,10.15,6.87,15.22,10.3,2.34,1.59,4.66,3.28,7.35,4.23s5.44,1.03,8.16.51c1.32-.25,1.49-2.22.37-2.84-11.52-6.3-23.03-12.61-34.55-18.91-1.24-.68-3.14.81-2.12,2.12,1.7,2.2,3.63,4.09,5.89,5.72.52-.89,1.04-1.79,1.57-2.68-1.51-.66-2.87-1.59-3.88-2.92-.51-.67-1.33-1.01-2.12-.56-.66.37-1.07,1.46-.56,2.12h0Z"/>
    <path class="cls-2" d="M27,140.67c8.75,5.47,17.49,10.93,26.24,16.4"/>
    <path class="cls-1" d="M51.84,156.19h0s8.22,4.53,15.49,2.78c23.66-5.68,46.57-14.2,70.38-19.33"/>
    <path class="cls-4" d="M52.87,146.88c5.19,2.68,10.36,3.71,16.57,2.68,22.76-5.17,42.42-12.42,64.55-18.16"/>
    <path class="cls-3" d="M132.55,119.9c-7.52-4.7-15.05-9.41-22.57-14.11"/>
    <path class="cls-6" d="M111.38,106.67h0s-8.22-4.53-15.49-2.78"/>
    <path class="cls-4" d="M132.55,131.77s17.37-3.83-.88-12.42"/>
    <path class="cls-1" d="M27.24,130.35c-1.91.62-4.97,1.72-5.62,3.88-1.19,3.95,5.66,6.87,8.2,8.07"/>
    <path class="cls-4" d="M111.62,106.6c-5.19-2.68-10.36-3.71-16.57-2.68-22.76,5.17-42.42,12.42-64.55,18.16"/>
    <path class="cls-3" d="M31.94,133.58c7.52,4.7,15.05,9.41,22.57,14.11"/>
    <path class="cls-4" d="M32.83,134.13c-18.26-8.59-.88-12.42-.88-12.42"/>
    <path class="cls-1" d="M135.61,140.09c2.01-.48,4.35-1.18,5.93-2.57,3.59-3.15-.48-6.36-3.43-8.08"/>
    <g>
      <path class="cls-9" d="M31.43,85.39c.92-.02,1.73.1,2.44.38.7.27,1.31.66,1.81,1.15s.91,1.08,1.2,1.76c.3.68.5,1.41.61,2.17.88-.07,1.72-.15,2.54-.26.81-.11,1.65-.22,2.5-.33-.15.5-.4.99-.74,1.46-.34.47-.75.92-1.22,1.33-.47.42-1,.79-1.58,1.12-.58.33-1.19.62-1.83.86-.35,1.27-.94,2.45-1.76,3.54s-1.87,1.92-3.15,2.49c.04-.77.07-1.61.08-2.52.01-.91,0-1.86-.05-2.85-1.34-.13-2.54-.58-3.61-1.35-1.06-.77-1.82-1.95-2.25-3.56,1.08.11,2.07.18,3,.21.92.03,1.8.06,2.63.08-.09-1.23-.19-2.34-.3-3.34-.11-1-.22-1.78-.33-2.35Z"/>
      <path class="cls-9" d="M53.13,81.47c.94.04,1.82.19,2.63.44.81.25,1.53.63,2.14,1.14s1.11,1.15,1.48,1.93c.37.78.59,1.72.66,2.82.09,1.58-.1,3.06-.56,4.43s-1.07,2.62-1.83,3.75c-.76,1.13-1.58,2.14-2.45,3.01s-1.68,1.61-2.4,2.21c1.78-.11,3.46-.31,5.04-.61,1.58-.3,3.04-.66,4.38-1.1-.2,1.05-.69,1.97-1.48,2.75-.79.78-1.73,1.42-2.82,1.93s-2.25.86-3.49,1.07c-1.24.21-2.41.25-3.51.13-1.1-.12-2.05-.41-2.85-.86-.8-.45-1.3-1.08-1.5-1.89.86-.72,1.77-1.58,2.75-2.55.98-.98,1.87-2.06,2.68-3.24s1.49-2.46,2.03-3.84.81-2.83.81-4.36c0-.5-.11-1-.33-1.5s-.7-.84-1.45-1.04c-.42-.11-.92-.09-1.51.07-.59.15-1.17.49-1.73,1s-1.06,1.24-1.5,2.16-.71,2.11-.82,3.56c-.64-1.05-1.09-2.03-1.35-2.92-.26-.89-.37-1.72-.33-2.49.04-1.03.31-1.93.81-2.7.49-.77,1.1-1.4,1.83-1.89s1.5-.86,2.34-1.09c.83-.23,1.61-.33,2.34-.31Z"/>
    </g>
  </g>
  <g>
    <path class="cls-5" d="M18.21,205.24v1.91c0,.35-.29.64-.64.64s-.64-.29-.64-.64v-6.19c0-.35.29-.64.64-.64h2.64c1.36,0,2.46,1.1,2.46,2.46s-1.1,2.46-2.46,2.46h-2ZM20.19,204.01c.71,0,1.21-.55,1.21-1.23s-.5-1.23-1.21-1.23h-1.98v2.46h1.98Z"/>
    <path class="cls-5" d="M24.79,207.69c-1.12,0-1.9-.86-1.9-1.9s.78-1.9,1.9-1.9h1.17c.34,0,.61.28.61.61s-.28.61-.61.61h-1.17c-.38,0-.65.32-.65.67s.27.67.65.67h2.25v-2.6c0-.61-.43-1.09-1.07-1.09h-1.97c-.34,0-.61-.28-.61-.61s.28-.61.61-.61h1.97c1.3,0,2.32,1.03,2.32,2.31v3.21c0,.35-.22.63-.63.63h-2.87Z"/>
    <path class="cls-5" d="M30.8,204.74v2.42c0,.35-.28.63-.63.63s-.63-.28-.63-.63v-7.53c0-.35.28-.63.63-.63s.63.28.63.63v4.88l2.86-2.86c.24-.24.63-.24.87,0,.23.24.23.63,0,.87l-2.11,2.11,2.11,2.11c.24.24.23.63,0,.87-.24.24-.63.24-.87,0l-2.86-2.86Z"/>
    <path class="cls-5" d="M41.05,207.69c-1.19,0-2.17-.97-2.17-2.17v-2.75h-.73c-.34,0-.61-.28-.61-.61s.28-.61.61-.61h.73v-1.23c0-.35.28-.63.63-.63s.63.28.63.63v1.23h1.61c.34,0,.61.28.61.61s-.28.61-.61.61h-1.61v2.76c0,.52.39.93.93.93h.68c.34,0,.61.28.61.61s-.28.61-.61.61h-.7Z"/>
    <path class="cls-5" d="M50.31,202.09c0-.35.28-.63.63-.63s.63.28.63.63v3.41c0,1.3-1.05,2.35-2.35,2.35-.73,0-1.39-.34-1.82-.86-.43.52-1.09.86-1.82.86-1.3,0-2.35-1.05-2.35-2.35v-3.41c0-.35.28-.63.63-.63s.63.28.63.63v3.43c0,.63.52,1.15,1.15,1.15s1.15-.52,1.15-1.15v-3.43c0-.35.28-.63.63-.63s.63.28.63.63v3.43c0,.63.52,1.15,1.15,1.15s1.15-.52,1.15-1.15v-3.43Z"/>
    <path class="cls-5" d="M55.68,207.69c-1.85,0-3.16-1.38-3.16-3.07s1.31-3.07,3.16-3.07h.73c1.17,0,1.95.82,1.95,1.84s-.78,1.84-1.95,1.84h-1.17c-.34,0-.61-.28-.61-.61s.28-.61.61-.61h1.17c.42,0,.7-.28.7-.61s-.28-.61-.7-.61h-.73c-1.11,0-1.91.83-1.91,1.84s.8,1.84,1.91,1.84h1.77c.34,0,.61.28.61.61s-.28.61-.61.61h-1.77Z"/>
    <path class="cls-5" d="M62.29,207.69c-1.85,0-3.16-1.38-3.16-3.07s1.31-3.07,3.16-3.07h.73c1.17,0,1.95.82,1.95,1.84s-.78,1.84-1.95,1.84h-1.17c-.34,0-.61-.28-.61-.61s.28-.61.61-.61h1.17c.42,0,.7-.28.7-.61s-.28-.61-.7-.61h-.73c-1.11,0-1.91.83-1.91,1.84s.8,1.84,1.91,1.84h1.77c.34,0,.61.28.61.61s-.28.61-.61.61h-1.77Z"/>
    <path class="cls-5" d="M69.72,204.74v2.42c0,.35-.28.63-.63.63s-.63-.28-.63-.63v-7.53c0-.35.28-.63.63-.63s.63.28.63.63v4.88l2.86-2.86c.24-.24.63-.24.87,0,.23.24.23.63,0,.87l-2.11,2.11,2.11,2.11c.24.24.23.63,0,.87-.24.24-.63.24-.87,0l-2.86-2.86Z"/>
    <path class="cls-5" d="M76.05,207.69c-1.12,0-1.9-.86-1.9-1.9s.78-1.9,1.9-1.9h1.17c.34,0,.61.28.61.61s-.28.61-.61.61h-1.17c-.38,0-.65.32-.65.67s.27.67.65.67h2.25v-2.6c0-.61-.43-1.09-1.07-1.09h-1.97c-.34,0-.61-.28-.61-.61s.28-.61.61-.61h1.97c1.3,0,2.32,1.03,2.32,2.31v3.21c0,.35-.22.63-.63.63h-2.87Z"/>
    <path class="cls-5" d="M82.42,207.69c-1.12,0-1.9-.86-1.9-1.9s.78-1.9,1.9-1.9h1.17c.34,0,.61.28.61.61s-.28.61-.61.61h-1.17c-.38,0-.65.32-.65.67s.27.67.65.67h2.25v-2.6c0-.61-.43-1.09-1.07-1.09h-1.97c-.34,0-.61-.28-.61-.61s.28-.61.61-.61h1.97c1.3,0,2.32,1.03,2.32,2.31v3.21c0,.35-.22.63-.63.63h-2.87Z"/>
    <path class="cls-5" d="M91.88,203.95c0,.35-.28.63-.63.63s-.63-.28-.63-.61v-.08c0-.61-.45-1.1-1.1-1.1h-1.1v4.38c0,.35-.28.63-.63.63s-.63-.28-.63-.63v-4.98c0-.35.28-.63.63-.63h1.73c1.32,0,2.35,1.05,2.35,2.33v.07Z"/>
    <path class="cls-5" d="M95.68,207.69c-1.19,0-2.17-.97-2.17-2.17v-2.75h-.73c-.34,0-.61-.28-.61-.61s.28-.61.61-.61h.73v-1.23c0-.35.28-.63.63-.63s.63.28.63.63v1.23h1.61c.34,0,.61.28.61.61s-.28.61-.61.61h-1.61v2.76c0,.52.39.93.93.93h.68c.34,0,.61.28.61.61s-.28.61-.61.61h-.7Z"/>
    <path class="cls-5" d="M100.54,207.69c-1.85,0-3.16-1.38-3.16-3.07s1.31-3.07,3.16-3.07h.73c1.17,0,1.95.82,1.95,1.84s-.78,1.84-1.95,1.84h-1.17c-.34,0-.61-.28-.61-.61s.28-.61.61-.61h1.17c.42,0,.7-.28.7-.61s-.28-.61-.7-.61h-.73c-1.11,0-1.91.83-1.91,1.84s.8,1.84,1.91,1.84h1.77c.34,0,.61.28.61.61s-.28.61-.61.61h-1.77Z"/>
    <path class="cls-5" d="M108.2,203.99c0-.66-.54-1.2-1.2-1.2h-1.58v4.38c0,.35-.28.63-.63.63s-.63-.28-.63-.63v-4.98c0-.35.28-.63.63-.63h2.2c1.36,0,2.46,1.1,2.46,2.46v3.15c0,.35-.28.63-.63.63s-.63-.28-.63-.63v-3.17Z"/>
    <path class="cls-5" d="M16.53,218.76c-.14-.31,0-.68.31-.82.31-.15.68,0,.82.31l1.81,4.17,1.81-4.17c.14-.31.51-.46.82-.31.31.14.45.51.31.82l-2.25,5.01c-.12.27-.36.45-.7.45s-.58-.19-.7-.45l-2.25-5.01Z"/>
    <path class="cls-5" d="M24.9,224.12c-1.12,0-1.9-.86-1.9-1.9s.78-1.9,1.9-1.9h1.17c.34,0,.61.28.61.61s-.28.61-.61.61h-1.17c-.38,0-.65.32-.65.67s.27.67.65.67h2.25v-2.6c0-.61-.43-1.09-1.07-1.09h-1.97c-.34,0-.61-.28-.61-.61s.28-.61.61-.61h1.97c1.3,0,2.32,1.03,2.32,2.31v3.21c0,.35-.22.63-.63.63h-2.87Z"/>
    <path class="cls-5" d="M33.68,220.41c0-.66-.54-1.2-1.2-1.2h-1.58v4.38c0,.35-.28.63-.63.63s-.63-.28-.63-.63v-4.98c0-.35.28-.63.63-.63h2.2c1.35,0,2.46,1.1,2.46,2.46v3.15c0,.35-.28.63-.63.63s-.63-.28-.63-.63v-3.17Z"/>
    <path class="cls-5" d="M41.6,224.12c-1.85,0-3.16-1.38-3.16-3.07s1.31-3.07,3.16-3.07h1.43v-1.92c0-.35.28-.63.63-.63s.63.28.63.63v7.44c0,.35-.28.63-.63.63h-2.05ZM43.02,219.2h-1.43c-1.11,0-1.91.83-1.91,1.84s.8,1.84,1.91,1.84h1.43v-3.68Z"/>
    <path class="cls-5" d="M48.39,224.12c-1.85,0-3.16-1.38-3.16-3.07s1.31-3.07,3.16-3.07h.73c1.17,0,1.95.82,1.95,1.84s-.78,1.84-1.95,1.84h-1.17c-.34,0-.61-.28-.61-.61s.28-.61.61-.61h1.17c.42,0,.7-.28.7-.61s-.28-.61-.7-.61h-.73c-1.11,0-1.91.83-1.91,1.84s.8,1.84,1.91,1.84h1.77c.34,0,.61.28.61.61s-.28.61-.61.61h-1.77Z"/>
    <path class="cls-5" d="M55.82,221.16v2.42c0,.35-.28.63-.63.63s-.63-.28-.63-.63v-7.53c0-.35.28-.63.63-.63s.63.28.63.63v4.88l2.86-2.86c.24-.24.63-.24.87,0,.23.24.23.63,0,.87l-2.11,2.11,2.11,2.11c.24.24.23.63,0,.87-.24.24-.63.24-.87,0l-2.86-2.86Z"/>
    <path class="cls-5" d="M63.14,224.27c-1.91,0-3.26-1.44-3.26-3.22s1.34-3.22,3.26-3.22,3.26,1.44,3.26,3.22-1.36,3.22-3.26,3.22ZM63.14,219.04c-1.16,0-2,.9-2,2s.85,2,2,2,2-.9,2-2-.85-2-2-2Z"/>
    <path class="cls-5" d="M70.42,224.27c-1.91,0-3.26-1.44-3.26-3.22s1.34-3.22,3.26-3.22,3.26,1.44,3.26,3.22-1.36,3.22-3.26,3.22ZM70.42,219.04c-1.16,0-2,.9-2,2s.85,2,2,2,2-.9,2-2-.85-2-2-2Z"/>
    <path class="cls-5" d="M75.88,224.12v1.92c0,.35-.28.63-.63.63s-.63-.28-.63-.63v-7.44c0-.35.28-.63.63-.63h2.05c1.85,0,3.16,1.38,3.16,3.07s-1.31,3.07-3.16,3.07h-1.42ZM77.3,222.89c1.11,0,1.91-.83,1.91-1.84s-.8-1.84-1.91-1.84h-1.42v3.68h1.42Z"/>
    <path class="cls-5" d="M81.9,224.12c-.34,0-.61-.28-.61-.61s.28-.61.61-.61h2.6c.42,0,.7-.28.7-.61s-.28-.61-.7-.61h-1.44c-1.17,0-1.95-.82-1.95-1.84s.78-1.84,1.95-1.84h2.6c.34,0,.61.28.61.61s-.28.61-.61.61h-2.6c-.42,0-.69.28-.69.61s.28.61.69.61h1.44c1.17,0,1.95.82,1.95,1.84s-.78,1.84-1.95,1.84h-2.6Z"/>
    <path class="cls-5" d="M90.28,224.12c-1.19,0-2.17-.97-2.17-2.17v-2.75h-.73c-.34,0-.61-.28-.61-.61s.28-.61.61-.61h.73v-1.23c0-.35.28-.63.63-.63s.63.28.63.63v1.23h1.61c.34,0,.61.28.61.61s-.28.61-.61.61h-1.61v2.76c0,.52.39.93.93.93h.68c.34,0,.61.28.61.61s-.28.61-.61.61h-.7Z"/>
    <path class="cls-5" d="M94.08,224.12c-1.12,0-1.9-.86-1.9-1.9s.78-1.9,1.9-1.9h1.17c.34,0,.61.28.61.61s-.28.61-.61.61h-1.17c-.38,0-.65.32-.65.67s.27.67.65.67h2.25v-2.6c0-.61-.43-1.09-1.07-1.09h-1.97c-.34,0-.61-.28-.61-.61s.28-.61.61-.61h1.97c1.3,0,2.32,1.03,2.32,2.31v3.21c0,.35-.22.63-.63.63h-2.87Z"/>
    <path class="cls-5" d="M100.08,224.12v1.92c0,.35-.28.63-.63.63s-.63-.28-.63-.63v-7.44c0-.35.28-.63.63-.63h2.05c1.85,0,3.16,1.38,3.16,3.07s-1.31,3.07-3.16,3.07h-1.42ZM101.5,222.89c1.11,0,1.91-.83,1.91-1.84s-.8-1.84-1.91-1.84h-1.42v3.68h1.42Z"/>
    <path class="cls-5" d="M108.6,224.12c-1.85,0-3.16-1.38-3.16-3.07s1.31-3.07,3.16-3.07h.73c1.17,0,1.95.82,1.95,1.84s-.78,1.84-1.95,1.84h-1.17c-.34,0-.61-.28-.61-.61s.28-.61.61-.61h1.17c.42,0,.7-.28.7-.61s-.28-.61-.7-.61h-.73c-1.11,0-1.91.83-1.91,1.84s.8,1.84,1.91,1.84h1.77c.34,0,.61.28.61.61s-.28.61-.61.61h-1.77Z"/>
    <path class="cls-5" d="M112.23,216.05c0-.35.28-.63.63-.63s.63.28.63.63v7.53c0,.35-.28.63-.63.63s-.63-.28-.63-.63v-7.53Z"/>
  </g>
</svg>