<?xml version="1.0" encoding="UTF-8"?>
<svg id="Laag_1" data-name="Laag 1" xmlns="http://www.w3.org/2000/svg" viewBox="0 0 164.41 249.45">
  <defs>
    <style>
      .cls-1 {
        stroke: #1d1e1c;
        stroke-linecap: round;
        stroke-linejoin: round;
        stroke-width: 5px;
      }

      .cls-1, .cls-2 {
        fill: #1d1d1b;
      }

      .cls-2, .cls-3 {
        stroke-width: 0px;
      }

      .cls-3 {
        fill: #eb7c19;
      }
    </style>
  </defs>
  <rect class="cls-3" x="0" y="0" width="164.41" height="249.45"/>
  <path class="cls-2" d="M26.38,18.13c1.01.07,1.94.24,2.81.5.86.26,1.63.66,2.29,1.19.66.53,1.19,1.21,1.58,2.03.4.83.63,1.83.7,3.01.12,1.78-.12,3.46-.72,5.04s-1.38,3.04-2.34,4.36c-.96,1.32-2,2.48-3.13,3.49-1.13,1.01-2.16,1.84-3.1,2.48,2.47-.14,4.62-.39,6.44-.74,1.82-.35,3.5-.75,5.04-1.21-.26.86-.8,1.66-1.62,2.38-.82.72-1.76,1.33-2.84,1.82-1.08.49-2.24.86-3.47,1.1-1.24.24-2.42.33-3.55.27-1.13-.06-2.13-.28-3.01-.67-.88-.38-1.51-.97-1.89-1.76,1.01-.86,2.05-1.83,3.13-2.9s2.07-2.24,2.97-3.53c.9-1.28,1.64-2.69,2.23-4.21.59-1.52.88-3.2.88-5.02,0-.34-.02-.68-.05-1.03-.04-.35-.14-.67-.31-.97-.17-.3-.41-.57-.72-.81-.31-.24-.74-.42-1.3-.54-.6-.14-1.24-.13-1.91.04-.67.17-1.31.52-1.93,1.06-.61.54-1.17,1.28-1.67,2.23-.5.95-.88,2.15-1.12,3.62-.48-.84-.82-1.69-1.03-2.56-.2-.86-.28-1.63-.23-2.3.05-1.06.34-1.99.86-2.81.53-.82,1.18-1.5,1.94-2.05.77-.55,1.6-.95,2.5-1.21.9-.25,1.75-.35,2.54-.31Z"/>
  <path class="cls-2" d="M140.19,231.25c-1.01-.07-1.94-.24-2.81-.5s-1.63-.66-2.29-1.19c-.66-.53-1.19-1.21-1.58-2.03-.4-.83-.63-1.83-.7-3.01-.12-1.78.12-3.46.72-5.04s1.38-3.04,2.34-4.36,2-2.48,3.13-3.49c1.13-1.01,2.16-1.84,3.1-2.48-2.47.14-4.62.39-6.44.74-1.82.35-3.5.75-5.04,1.21.26-.86.8-1.66,1.62-2.38.82-.72,1.76-1.33,2.84-1.82,1.08-.49,2.24-.86,3.47-1.1,1.24-.24,2.42-.33,3.55-.27,1.13.06,2.13.28,3.01.67.88.38,1.51.97,1.89,1.76-1.01.86-2.05,1.83-3.13,2.9-1.08,1.07-2.07,2.24-2.97,3.53-.9,1.28-1.64,2.69-2.23,4.21-.59,1.52-.88,3.2-.88,5.02,0,.34.02.68.05,1.03.04.35.14.67.31.97.17.3.41.57.72.81.31.24.74.42,1.3.54.6.14,1.24.13,1.91-.04.67-.17,1.31-.52,1.93-1.06.61-.54,1.17-1.28,1.67-2.23.5-.95.88-2.15,1.12-3.62.48.84.82,1.69,1.03,2.56.2.86.28,1.63.23,2.3-.05,1.06-.34,1.99-.86,2.81-.53.82-1.18,1.5-1.94,2.05-.77.55-1.6.95-2.5,1.21-.9.25-1.75.35-2.54.31Z"/>
  <path class="cls-1" d="M121.85,124.72c-10.81,0-20.6,4.49-27.68,11.76-7.09,7.27-11.47,17.3-11.47,28.39,0-11.09-4.38-21.12-11.46-28.39s-16.87-11.76-27.68-11.76c0-11.09,4.38-21.13,11.46-28.39,7.09-7.27,16.87-11.76,27.68-11.76s20.6,4.49,27.68,11.76c7.09,7.26,11.47,17.3,11.47,28.39Z"/>
</svg>