<?xml version="1.0" encoding="UTF-8"?>
<svg id="Laag_1" data-name="Laag 1" xmlns="http://www.w3.org/2000/svg" viewBox="0 0 164.41 249.45">
  <defs>
    <style>
      .cls-1 {
        stroke: #fff;
        stroke-miterlimit: 10;
        stroke-width: .46px;
      }

      .cls-1, .cls-2 {
        fill: #fff;
      }

      .cls-3 {
        fill: none;
        stroke: #8082b8;
        stroke-linecap: round;
        stroke-linejoin: round;
        stroke-width: 8px;
      }

      .cls-4 {
        fill: #2f2f2f;
      }

      .cls-4, .cls-5, .cls-6, .cls-2, .cls-7 {
        stroke-width: 0px;
      }

      .cls-5 {
        fill: #1d1d1b;
      }

      .cls-6 {
        fill: #8abb2a;
      }

      .cls-7 {
        fill: #eb7c19;
      }
    </style>
  </defs>
  <rect class="cls-4" x="0" y="0" width="164.41" height="249.45"/>
  <path class="cls-3" d="M39.7,112.05c5.23,19.41,24.12,35.47,45.85,30.74,18.89-4.72,32.11-26.45,20.78-45.34-3.78-6.61-9.44-9.44-17-11.33-8.5-1.89-16.06,2.83-20.78,9.44-2.83,5.67-1.89,13.22,3.78,17.95,3.78,2.83,8.5,1.89,10.39-.94,2.83-4.72-6.61-9.44.94-12.28,5.67-1.89,10.39,1.89,12.28,6.61,1.89,7.56-1.89,16.06-8.5,19.83-9.44,4.72-21.72,2.83-28.33-5.67-12.28-16.06-5.67-38.72,12.28-46.28,24.56-11.33,54.78,11.33,53.31,37.78"/>
  <g>
    <path class="cls-2" d="M46.35,26.71c-.25.7-.57,1.3-.96,1.79-.39.49-.83.9-1.33,1.23-.49.32-1.03.57-1.6.72-.58.16-1.17.25-1.79.26.43.67.73,1.45.89,2.34.16.89.21,1.82.16,2.79-.05.97-.2,1.93-.45,2.89-.25.96-.57,1.85-.96,2.66s-.84,1.53-1.35,2.14c-.51.61-1.05,1.03-1.64,1.26.03-.37.06-.89.09-1.56.03-.68.04-1.43.05-2.28,0-.84.01-1.74.01-2.7s-.01-1.91-.04-2.86-.06-1.87-.1-2.75c-.04-.88-.09-1.67-.14-2.35-.63-.18-1.23-.41-1.79-.68-.56-.27-1.05-.56-1.49-.88-.43-.32-.8-.65-1.09-1.01-.29-.36-.48-.71-.56-1.06,1.03.13,2.13.22,3.3.27,1.17.05,2.36.07,3.59.06,1.23,0,2.45-.04,3.66-.09,1.22-.05,2.39-.12,3.52-.2Z"/>
    <path class="cls-2" d="M53.83,29.01c-.87.72-1.56,1.51-2.08,2.38-.52.87-.89,1.73-1.12,2.6-.23.87-.35,1.71-.34,2.51,0,.81.11,1.53.31,2.16.2.63.48,1.14.83,1.51s.75.56,1.2.56c.48,0,.9-.16,1.24-.47s.6-.73.79-1.25.28-1.11.29-1.78c0-.67-.07-1.35-.25-2.06-.17-.71-.44-1.4-.8-2.09-.36-.68-.82-1.3-1.39-1.85,1.32.02,2.43.27,3.33.75.9.48,1.6,1.11,2.11,1.89.51.78.83,1.65.96,2.61.13.97.08,1.95-.15,2.95-.15.68-.41,1.34-.77,1.96s-.81,1.17-1.34,1.65c-.53.48-1.12.85-1.8,1.12-.67.28-1.4.41-2.16.41-.98,0-1.87-.17-2.65-.5s-1.45-.8-2-1.41c-.55-.61-.98-1.33-1.29-2.17-.31-.84-.47-1.76-.49-2.76-.03-1.07.12-2.08.45-3.05.33-.97.82-1.84,1.47-2.62.65-.78,1.45-1.44,2.4-1.97.95-.53,2.03-.89,3.25-1.08Z"/>
    <path class="cls-2" d="M69.33,38.01c.03-1.85-.2-3.27-.7-4.25s-1.23-1.46-2.2-1.42c-.13,0-.25,0-.35.01-.1,0-.2.02-.3.04.23.67.37,1.41.4,2.22.03.82-.02,1.65-.15,2.5-.13.85-.33,1.69-.6,2.51-.27.83-.59,1.58-.98,2.28s-.81,1.29-1.27,1.8c-.47.51-.96.87-1.48,1.09.05-.43.09-1.04.11-1.83s.04-1.66.05-2.62c0-.97,0-1.98-.01-3.04-.02-1.06-.04-2.08-.09-3.06-.04-.98-.1-1.89-.16-2.72-.07-.83-.14-1.5-.22-2,.8-.07,1.49.02,2.08.26s1.07.59,1.45,1.04c.72-.73,1.72-1.1,3.03-1.1.82,0,1.51.14,2.09.41.58.28,1.02.64,1.35,1.1.32.46.52.98.6,1.57.07.59.03,1.2-.14,1.81-.17.62-.46,1.22-.88,1.81-.42.59-.96,1.12-1.62,1.59Z"/>
    <path class="cls-2" d="M88.08,42.64c-.28.42-.57.75-.85,1s-.55.44-.81.58c-.26.13-.5.22-.72.26-.22.04-.43.06-.61.06-.65,0-1.18-.12-1.59-.35-.41-.23-.73-.56-.95-.97s-.38-.92-.45-1.5c-.08-.58-.12-1.22-.14-1.9v-.91c0-.41,0-.88.01-1.4,0-.52.01-1.09.01-1.7s0-1.22-.03-1.84c-.02-.58-.12-.98-.3-1.17-.18-.2-.58-.3-1.18-.3-.3,0-.59.01-.86.04-.27.02-.55.05-.84.09.17.7.25,1.45.24,2.25,0,.8-.08,1.61-.22,2.43s-.35,1.62-.62,2.4c-.28.78-.6,1.5-.97,2.15-.38.65-.78,1.21-1.22,1.69-.44.47-.91.81-1.41,1.01.05-.43.09-1.05.11-1.84.03-.79.04-1.67.05-2.65,0-.97,0-2-.01-3.07-.02-1.08-.04-2.11-.09-3.11s-.1-1.92-.16-2.76-.14-1.51-.22-2.01c.95-.08,1.74.05,2.38.39s1.14.82,1.53,1.44c.63-.4,1.32-.71,2.07-.93.75-.22,1.5-.32,2.25-.32.7,0,1.27.09,1.7.26.43.18.77.43,1.01.75.24.33.4.73.49,1.2.08.48.12,1.01.12,1.61,0,1.43,0,2.66.01,3.68s.04,1.87.09,2.55c.05.68.12,1.22.21,1.62.09.4.22.7.39.89s.38.31.64.36.58.07.96.05Z"/>
    <path class="cls-2" d="M97.73,42.69c-.7.7-1.43,1.15-2.2,1.36-.77.21-1.48.3-2.15.26-.65-.03-1.26-.2-1.83-.5-.57-.3-1.05-.7-1.46-1.19-.41-.49-.72-1.06-.94-1.71-.22-.65-.31-1.34-.28-2.08.03-.65.16-1.29.38-1.91s.54-1.18.97-1.67c.43-.49.99-.88,1.66-1.17.68-.29,1.49-.44,2.44-.44.53,0,1.04.06,1.51.19.47.12.93.35,1.36.66-.05-.7-.35-1.23-.91-1.59s-1.22-.6-2-.74c-.78-.13-1.58-.17-2.41-.11-.83.06-1.54.16-2.12.31.33-.55.73-1.03,1.19-1.45.46-.42.95-.76,1.47-1.04.53-.27,1.06-.48,1.61-.61.55-.13,1.09-.18,1.62-.15.95.05,1.76.29,2.42.71.67.42,1.21.97,1.64,1.65.42.67.74,1.45.94,2.32.2.88.3,1.8.3,2.76,0,.8-.05,1.61-.16,2.42-.11.82-.28,1.6-.5,2.34-.22.74-.5,1.43-.82,2.06-.33.63-.7,1.17-1.11,1.62-.08-.32-.17-.69-.28-1.11-.1-.42-.22-.83-.35-1.21ZM92.6,38.49c.02.25.06.5.14.74.08.24.19.46.34.66.15.2.35.37.59.51s.55.25.91.31c.43.08.82.07,1.15-.04.33-.11.61-.27.84-.49.22-.22.4-.47.51-.76.12-.29.18-.59.18-.89,0-.4-.05-.77-.15-1.11-.1-.34-.25-.64-.45-.9-.2-.26-.46-.46-.78-.61-.32-.15-.69-.22-1.12-.2-.77.03-1.34.3-1.71.81s-.52,1.16-.44,1.96Z"/>
    <path class="cls-2" d="M111,26.51c.97-.07,1.77.11,2.41.54.64.43,1.15,1.03,1.53,1.8.38.77.62,1.67.75,2.69s.15,2.08.06,3.19c-.08,1.11-.25,2.21-.51,3.3-.26,1.09-.58,2.1-.98,3.02-.39.93-.84,1.72-1.34,2.39-.5.67-1.03,1.12-1.6,1.35.02-.13.03-.28.04-.45,0-.17.02-.37.04-.6-.7.28-1.47.41-2.33.38-.97-.02-1.82-.2-2.57-.54s-1.38-.8-1.9-1.39c-.52-.58-.91-1.27-1.19-2.06-.28-.79-.42-1.65-.44-2.59-.02-.97.13-1.88.44-2.74.31-.86.74-1.62,1.3-2.29.56-.67,1.23-1.2,2.01-1.61s1.63-.64,2.55-.69c.37-.02.72,0,1.06.02.34.03.67.1.99.2-.03-.87-.08-1.64-.14-2.33-.06-.68-.12-1.22-.19-1.6ZM111.45,41.51c.03-1.25.04-2.65.03-4.19-.02-1.54-.04-3.05-.08-4.54-.1,0-.2,0-.3.01-.1,0-.21.02-.33.04-.5.05-.95.22-1.35.5-.4.28-.75.63-1.04,1.05-.29.42-.52.89-.67,1.42-.16.53-.25,1.08-.26,1.62-.05,2.18.81,3.49,2.58,3.92.48.13.96.18,1.42.15Z"/>
    <path class="cls-2" d="M126.18,29.01c-.87.72-1.56,1.51-2.08,2.38-.52.87-.89,1.73-1.12,2.6-.23.87-.35,1.71-.34,2.51,0,.81.11,1.53.31,2.16.2.63.48,1.14.83,1.51.35.38.75.56,1.2.56.48,0,.9-.16,1.24-.47s.6-.73.79-1.25c.18-.52.28-1.11.29-1.78,0-.67-.08-1.35-.25-2.06-.17-.71-.44-1.4-.8-2.09s-.82-1.3-1.39-1.85c1.32.02,2.42.27,3.33.75.9.48,1.6,1.11,2.11,1.89.51.78.83,1.65.96,2.61.13.97.08,1.95-.15,2.95-.15.68-.41,1.34-.78,1.96-.37.62-.81,1.17-1.34,1.65-.53.48-1.12.85-1.8,1.12-.68.28-1.4.41-2.16.41-.98,0-1.87-.17-2.65-.5-.78-.33-1.45-.8-2-1.41-.55-.61-.98-1.33-1.29-2.17-.31-.84-.47-1.76-.49-2.76-.03-1.07.12-2.08.45-3.05.33-.97.83-1.84,1.47-2.62.65-.78,1.45-1.44,2.4-1.97s2.03-.89,3.25-1.08Z"/>
  </g>
  <g>
    <path class="cls-7" d="M141.74,206.68c-4.35,0-7.89-3.7-7.89-8.26s3.54-8.25,7.89-8.25,7.89,3.7,7.89,8.25-3.54,8.26-7.89,8.26Z"/>
    <path class="cls-5" d="M141.74,191.17c3.8,0,6.89,3.25,6.89,7.26s-3.09,7.26-6.89,7.26-6.89-3.25-6.89-7.26,3.09-7.26,6.89-7.26M141.74,189.17c-4.91,0-8.89,4.14-8.89,9.26s3.98,9.26,8.89,9.26,8.89-4.14,8.89-9.26-3.98-9.26-8.89-9.26h0Z"/>
  </g>
  <g>
    <ellipse class="cls-6" cx="141.74" cy="226.17" rx="7.89" ry="8.26"/>
    <path class="cls-5" d="M141.74,218.92c3.8,0,6.89,3.25,6.89,7.26s-3.09,7.26-6.89,7.26-6.89-3.25-6.89-7.26,3.09-7.26,6.89-7.26M141.74,216.92c-4.91,0-8.89,4.14-8.89,9.26s3.98,9.26,8.89,9.26,8.89-4.14,8.89-9.26-3.98-9.26-8.89-9.26h0Z"/>
  </g>
  <g>
    <path class="cls-1" d="M22.44,183.89c-1.75,0-2.98-1.3-2.98-2.89s1.23-2.89,2.98-2.89h.69c1.1,0,1.83.78,1.83,1.74s-.73,1.74-1.83,1.74h-1.1c-.32,0-.58-.26-.58-.58s.26-.58.58-.58h1.1c.39,0,.65-.26.65-.58s-.26-.58-.65-.58h-.69c-1.05,0-1.8.79-1.8,1.74s.75,1.74,1.8,1.74h1.67c.32,0,.58.26.58.58s-.26.58-.58.58h-1.67Z"/>
    <path class="cls-1" d="M25.86,176.29c0-.33.26-.59.59-.59s.59.26.59.59v7.1c0,.33-.26.59-.59.59s-.59-.26-.59-.59v-7.1Z"/>
    <path class="cls-1" d="M29.4,181.1v2.28c0,.33-.26.59-.59.59s-.59-.26-.59-.59v-7.1c0-.33.26-.59.59-.59s.59.26.59.59v4.6l2.7-2.7c.23-.23.59-.23.82,0,.22.23.22.59,0,.82l-1.99,1.99,1.99,1.99c.23.23.22.59,0,.82-.23.23-.59.23-.82,0l-2.7-2.7Z"/>
    <path class="cls-1" d="M36.2,183.89c-1.75,0-2.98-1.3-2.98-2.89s1.23-2.89,2.98-2.89h.69c1.1,0,1.84.78,1.84,1.74s-.73,1.74-1.84,1.74h-1.1c-.32,0-.58-.26-.58-.58s.26-.58.58-.58h1.1c.39,0,.66-.26.66-.58s-.26-.58-.66-.58h-.69c-1.05,0-1.8.79-1.8,1.74s.75,1.74,1.8,1.74h1.67c.32,0,.58.26.58.58s-.26.58-.58.58h-1.67Z"/>
    <path class="cls-1" d="M42.49,183.89c-.32,0-.58-.26-.58-.58s.26-.58.58-.58h2.45c.39,0,.66-.26.66-.58s-.26-.58-.66-.58h-1.35c-1.1,0-1.84-.78-1.84-1.74s.73-1.74,1.84-1.74h2.45c.32,0,.58.26.58.58s-.26.58-.58.58h-2.45c-.39,0-.66.26-.66.58s.26.58.66.58h1.35c1.1,0,1.84.78,1.84,1.74s-.73,1.74-1.84,1.74h-2.45Z"/>
    <path class="cls-1" d="M48.85,183.89v1.81c0,.33-.26.59-.59.59s-.59-.26-.59-.59v-7.01c0-.33.26-.59.59-.59h1.93c1.75,0,2.98,1.3,2.98,2.89s-1.23,2.89-2.98,2.89h-1.34ZM50.19,182.73c1.05,0,1.8-.79,1.8-1.74s-.75-1.74-1.8-1.74h-1.34v3.47h1.34Z"/>
    <path class="cls-1" d="M56.88,183.89c-1.75,0-2.98-1.3-2.98-2.89s1.23-2.89,2.98-2.89h.69c1.1,0,1.83.78,1.83,1.74s-.73,1.74-1.83,1.74h-1.1c-.32,0-.58-.26-.58-.58s.26-.58.58-.58h1.1c.39,0,.66-.26.66-.58s-.26-.58-.66-.58h-.69c-1.05,0-1.8.79-1.8,1.74s.75,1.74,1.8,1.74h1.67c.32,0,.58.26.58.58s-.26.58-.58.58h-1.67Z"/>
    <path class="cls-1" d="M60.3,176.29c0-.33.26-.59.59-.59s.59.26.59.59v7.1c0,.33-.26.59-.59.59s-.59-.26-.59-.59v-7.1Z"/>
    <path class="cls-1" d="M65.36,183.89c-1.75,0-2.98-1.3-2.98-2.89s1.23-2.89,2.98-2.89h.69c1.1,0,1.84.78,1.84,1.74s-.73,1.74-1.84,1.74h-1.1c-.32,0-.58-.26-.58-.58s.26-.58.58-.58h1.1c.39,0,.66-.26.66-.58s-.26-.58-.66-.58h-.69c-1.05,0-1.8.79-1.8,1.74s.75,1.74,1.8,1.74h1.67c.32,0,.58.26.58.58s-.26.58-.58.58h-1.67Z"/>
    <path class="cls-1" d="M73.22,180.36c0,.33-.26.59-.59.59s-.59-.26-.59-.58v-.08c0-.58-.43-1.04-1.04-1.04h-1.04v4.13c0,.33-.26.59-.59.59s-.59-.26-.59-.59v-4.7c0-.33.26-.59.59-.59h1.63c1.25,0,2.22.99,2.22,2.19v.07Z"/>
    <path class="cls-1" d="M79.24,183.89c-1.75,0-2.98-1.3-2.98-2.89s1.23-2.89,2.98-2.89h1.34v-1.81c0-.33.26-.59.59-.59s.59.26.59.59v7.01c0,.33-.26.59-.59.59h-1.93ZM80.58,179.26h-1.34c-1.05,0-1.8.79-1.8,1.74s.75,1.74,1.8,1.74h1.34v-3.47Z"/>
    <path class="cls-1" d="M87.38,180.36c0,.33-.26.59-.59.59s-.59-.26-.59-.58v-.08c0-.58-.43-1.04-1.04-1.04h-1.04v4.13c0,.33-.26.59-.59.59s-.59-.26-.59-.59v-4.7c0-.33.26-.59.59-.59h1.63c1.25,0,2.22.99,2.22,2.19v.07Z"/>
    <path class="cls-1" d="M89.5,183.89c-1.06,0-1.79-.81-1.79-1.79s.73-1.79,1.79-1.79h1.1c.32,0,.58.26.58.58s-.26.58-.58.58h-1.1c-.36,0-.61.31-.61.63s.25.63.61.63h2.12v-2.45c0-.58-.4-1.03-1-1.03h-1.86c-.32,0-.58-.26-.58-.58s.26-.58.58-.58h1.86c1.22,0,2.18.97,2.18,2.17v3.03c0,.33-.21.59-.59.59h-2.71Z"/>
    <path class="cls-1" d="M95.51,183.89c-1.06,0-1.79-.81-1.79-1.79s.73-1.79,1.79-1.79h1.1c.32,0,.58.26.58.58s-.26.58-.58.58h-1.1c-.36,0-.61.31-.61.63s.25.63.61.63h2.12v-2.45c0-.58-.4-1.03-1-1.03h-1.86c-.32,0-.58-.26-.58-.58s.26-.58.58-.58h1.86c1.22,0,2.18.97,2.18,2.17v3.03c0,.33-.21.59-.59.59h-2.71Z"/>
    <path class="cls-1" d="M100.58,177.14c-.4,0-.73-.32-.73-.72s.33-.72.73-.72.73.32.73.72-.33.72-.73.72ZM99.99,178.6c0-.33.26-.59.59-.59s.59.26.59.59v4.78c0,.33-.26.59-.59.59s-.59-.26-.59-.59v-4.78Z"/>
    <path class="cls-1" d="M105.18,183.89c-1.13,0-2.04-.92-2.04-2.04v-2.59h-.69c-.32,0-.58-.26-.58-.58s.26-.58.58-.58h.69v-1.16c0-.33.26-.59.59-.59s.59.26.59.59v1.16h1.52c.32,0,.58.26.58.58s-.26.58-.58.58h-1.52v2.6c0,.49.37.87.87.87h.64c.32,0,.58.26.58.58s-.26.58-.58.58h-.65Z"/>
    <path class="cls-1" d="M110,183.89c-.32,0-.58-.25-.58-.57,0-.13.06-.29.17-.44l2.98-3.63h-2.48c-.32,0-.58-.26-.58-.58s.26-.58.58-.58h3.67c.32,0,.57.25.57.57,0,.14-.05.29-.17.44l-2.98,3.63h2.47c.32,0,.58.26.58.58s-.26.58-.58.58h-3.65Z"/>
    <path class="cls-1" d="M115.9,177.14c-.4,0-.73-.32-.73-.72s.33-.72.73-.72.73.32.73.72-.33.72-.73.72ZM115.31,178.6c0-.33.26-.59.59-.59s.59.26.59.59v4.78c0,.33-.26.59-.59.59s-.59-.26-.59-.59v-4.78Z"/>
    <path class="cls-1" d="M116.09,186.2c-.32,0-.58-.26-.58-.58s.26-.58.58-.58h.23c.98,0,1.36-.51,1.36-1.49v-4.96c0-.33.26-.59.59-.59s.59.26.59.59v4.95c0,1.63-.83,2.65-2.52,2.65h-.24ZM118.26,177.14c-.4,0-.73-.32-.73-.72s.33-.72.73-.72.73.32.73.72-.33.72-.73.72Z"/>
    <path class="cls-1" d="M123.84,180.39c0-.62-.51-1.14-1.14-1.14h-1.49v4.13c0,.33-.26.59-.59.59s-.59-.26-.59-.59v-4.7c0-.33.26-.59.59-.59h2.08c1.28,0,2.32,1.04,2.32,2.32v2.97c0,.33-.26.59-.59.59s-.59-.26-.59-.59v-2.99Z"/>
    <path class="cls-1" d="M23.54,195.88c0-.62-.51-1.14-1.13-1.14h-1.49v4.13c0,.33-.26.59-.59.59s-.59-.26-.59-.59v-7.1c0-.33.26-.59.59-.59s.59.26.59.59v1.81h1.49c1.28,0,2.31,1.04,2.31,2.32v2.97c0,.33-.26.59-.59.59s-.59-.26-.59-.59v-2.99Z"/>
    <path class="cls-1" d="M28.6,199.37c-1.75,0-2.98-1.3-2.98-2.89s1.23-2.89,2.98-2.89h.69c1.1,0,1.84.78,1.84,1.74s-.73,1.74-1.84,1.74h-1.1c-.32,0-.58-.26-.58-.58s.26-.58.58-.58h1.1c.39,0,.66-.26.66-.58s-.26-.58-.66-.58h-.69c-1.05,0-1.8.79-1.8,1.74s.75,1.74,1.8,1.74h1.67c.32,0,.58.26.58.58s-.26.58-.58.58h-1.67Z"/>
    <path class="cls-1" d="M32.02,191.77c0-.33.26-.59.59-.59s.59.26.59.59v7.1c0,.33-.26.59-.59.59s-.59-.26-.59-.59v-7.1Z"/>
    <path class="cls-1" d="M37.08,199.37c-1.75,0-2.98-1.3-2.98-2.89s1.23-2.89,2.98-2.89h.69c1.1,0,1.83.78,1.83,1.74s-.73,1.74-1.83,1.74h-1.1c-.32,0-.58-.26-.58-.58s.26-.58.58-.58h1.1c.39,0,.65-.26.65-.58s-.26-.58-.65-.58h-.69c-1.05,0-1.8.79-1.8,1.74s.75,1.74,1.8,1.74h1.67c.32,0,.58.26.58.58s-.26.58-.58.58h-1.67Z"/>
    <path class="cls-1" d="M45.6,199.37c-1.75,0-2.98-1.3-2.98-2.89s1.23-2.89,2.98-2.89h1.34v-1.81c0-.33.26-.59.59-.59s.59.26.59.59v7.01c0,.33-.26.59-.59.59h-1.93ZM46.95,194.74h-1.34c-1.05,0-1.8.79-1.8,1.74s.75,1.74,1.8,1.74h1.34v-3.47Z"/>
    <path class="cls-1" d="M52.01,199.37c-1.75,0-2.98-1.3-2.98-2.89s1.23-2.89,2.98-2.89h.69c1.1,0,1.83.78,1.83,1.74s-.73,1.74-1.83,1.74h-1.1c-.32,0-.58-.26-.58-.58s.26-.58.58-.58h1.1c.39,0,.66-.26.66-.58s-.26-.58-.66-.58h-.69c-1.05,0-1.8.79-1.8,1.74s.75,1.74,1.8,1.74h1.67c.32,0,.58.26.58.58s-.26.58-.58.58h-1.67Z"/>
    <path class="cls-1" d="M56.61,196.59v2.28c0,.33-.26.59-.59.59s-.59-.26-.59-.59v-7.1c0-.33.26-.59.59-.59s.59.26.59.59v4.6l2.7-2.7c.23-.23.59-.23.82,0,.22.23.22.59,0,.82l-1.99,1.99,1.99,1.99c.23.23.22.59,0,.82-.23.23-.59.23-.82,0l-2.7-2.7Z"/>
    <path class="cls-1" d="M70.13,195.88c0-.62-.51-1.14-1.14-1.14h-1.04v4.13c0,.33-.26.59-.59.59s-.59-.26-.59-.59v-4.13h-2.15v4.13c0,.33-.26.59-.59.59s-.59-.26-.59-.59v-4.7c0-.33.26-.59.59-.59h4.96c1.28,0,2.32,1.04,2.32,2.32v2.97c0,.33-.26.59-.59.59s-.59-.26-.59-.59v-2.99Z"/>
    <path class="cls-1" d="M75.2,199.37c-1.75,0-2.98-1.3-2.98-2.89s1.23-2.89,2.98-2.89h.69c1.1,0,1.83.78,1.83,1.74s-.73,1.74-1.83,1.74h-1.1c-.32,0-.58-.26-.58-.58s.26-.58.58-.58h1.1c.39,0,.65-.26.65-.58s-.26-.58-.65-.58h-.69c-1.05,0-1.8.79-1.8,1.74s.75,1.74,1.8,1.74h1.67c.32,0,.58.26.58.58s-.26.58-.58.58h-1.67Z"/>
    <path class="cls-1" d="M81.45,199.37c-1.12,0-2.04-.92-2.04-2.04v-2.59h-.69c-.32,0-.58-.26-.58-.58s.26-.58.58-.58h.69v-1.16c0-.33.26-.59.59-.59s.59.26.59.59v1.16h1.52c.32,0,.58.26.58.58s-.26.58-.58.58h-1.52v2.6c0,.49.37.87.87.87h.64c.32,0,.58.26.58.58s-.26.58-.58.58h-.66Z"/>
    <path class="cls-1" d="M88.59,199.37c-1.75,0-2.98-1.3-2.98-2.89s1.23-2.89,2.98-2.89h1.34v-1.81c0-.33.26-.59.59-.59s.59.26.59.59v7.01c0,.33-.26.59-.59.59h-1.93ZM89.94,194.74h-1.34c-1.05,0-1.8.79-1.8,1.74s.75,1.74,1.8,1.74h1.34v-3.47Z"/>
    <path class="cls-1" d="M95,199.37c-1.75,0-2.98-1.3-2.98-2.89s1.23-2.89,2.98-2.89h.69c1.1,0,1.84.78,1.84,1.74s-.73,1.74-1.84,1.74h-1.1c-.32,0-.58-.26-.58-.58s.26-.58.58-.58h1.1c.39,0,.66-.26.66-.58s-.26-.58-.66-.58h-.69c-1.05,0-1.8.79-1.8,1.74s.75,1.74,1.8,1.74h1.67c.32,0,.58.26.58.58s-.26.58-.58.58h-1.67Z"/>
    <path class="cls-1" d="M24.17,211.32c0,.33-.26.59-.59.59s-.59-.26-.59-.58v-.08c0-.58-.43-1.04-1.04-1.04h-1.04v4.13c0,.33-.26.59-.59.59s-.59-.26-.59-.59v-4.7c0-.33.26-.59.59-.59h1.63c1.25,0,2.22.99,2.22,2.19v.07Z"/>
    <path class="cls-1" d="M27.88,214.99c-1.8,0-3.07-1.35-3.07-3.04s1.27-3.04,3.07-3.04,3.07,1.35,3.07,3.04-1.28,3.04-3.07,3.04ZM27.88,210.07c-1.09,0-1.89.85-1.89,1.89s.8,1.89,1.89,1.89,1.89-.85,1.89-1.89-.8-1.89-1.89-1.89Z"/>
    <path class="cls-1" d="M34.4,214.85c-1.13,0-2.04-.92-2.04-2.04v-2.59h-.69c-.32,0-.58-.26-.58-.58s.26-.58.58-.58h.69v-1.16c0-.33.26-.59.59-.59s.59.26.59.59v1.16h1.52c.32,0,.58.26.58.58s-.26.58-.58.58h-1.52v2.6c0,.49.37.87.87.87h.64c.32,0,.58.26.58.58s-.26.58-.58.58h-.65Z"/>
    <path class="cls-1" d="M37.98,214.85c-1.06,0-1.79-.81-1.79-1.79s.73-1.79,1.79-1.79h1.1c.32,0,.58.26.58.58s-.26.58-.58.58h-1.1c-.36,0-.61.31-.61.63s.25.63.61.63h2.12v-2.45c0-.58-.4-1.03-1-1.03h-1.86c-.32,0-.58-.26-.58-.58s.26-.58.58-.58h1.86c1.22,0,2.19.97,2.19,2.17v3.03c0,.33-.21.59-.59.59h-2.71Z"/>
    <path class="cls-1" d="M44.96,214.85c-1.13,0-2.04-.92-2.04-2.04v-2.59h-.69c-.32,0-.58-.26-.58-.58s.26-.58.58-.58h.69v-1.16c0-.33.26-.59.59-.59s.59.26.59.59v1.16h1.52c.32,0,.58.26.58.58s-.26.58-.58.58h-1.52v2.6c0,.49.37.87.87.87h.64c.32,0,.58.26.58.58s-.26.58-.58.58h-.65Z"/>
    <path class="cls-1" d="M47.59,208.1c-.4,0-.73-.32-.73-.72s.33-.72.73-.72.73.32.73.72-.33.72-.73.72ZM47,209.57c0-.33.26-.59.59-.59s.59.26.59.59v4.78c0,.33-.26.59-.59.59s-.59-.26-.59-.59v-4.78Z"/>
    <path class="cls-1" d="M52.06,214.85c-1.75,0-2.98-1.3-2.98-2.89s1.23-2.89,2.98-2.89h.69c1.1,0,1.84.78,1.84,1.74s-.73,1.74-1.84,1.74h-1.1c-.32,0-.58-.26-.58-.58s.26-.58.58-.58h1.1c.39,0,.66-.26.66-.58s-.26-.58-.66-.58h-.69c-1.05,0-1.8.79-1.8,1.74s.75,1.74,1.8,1.74h1.67c.32,0,.58.26.58.58s-.26.58-.58.58h-1.67Z"/>
    <path class="cls-1" d="M57.52,209.81c-.13-.3,0-.64.3-.78.3-.14.64,0,.78.3l1.7,3.93,1.7-3.93c.13-.3.48-.44.78-.3.29.13.43.48.29.78l-2.12,4.72c-.11.25-.34.43-.65.43s-.55-.18-.66-.43l-2.12-4.72Z"/>
    <path class="cls-1" d="M65.4,214.85c-1.06,0-1.79-.81-1.79-1.79s.73-1.79,1.79-1.79h1.1c.32,0,.58.26.58.58s-.26.58-.58.58h-1.1c-.36,0-.61.31-.61.63s.25.63.61.63h2.12v-2.45c0-.58-.4-1.03-1-1.03h-1.86c-.32,0-.58-.26-.58-.58s.26-.58.58-.58h1.86c1.22,0,2.18.97,2.18,2.17v3.03c0,.33-.21.59-.59.59h-2.71Z"/>
    <path class="cls-1" d="M73.69,211.36c0-.62-.51-1.14-1.14-1.14h-1.49v4.13c0,.33-.26.59-.59.59s-.59-.26-.59-.59v-4.7c0-.33.26-.59.59-.59h2.07c1.28,0,2.32,1.04,2.32,2.32v2.97c0,.33-.26.59-.59.59s-.59-.26-.59-.59v-2.99Z"/>
    <path class="cls-1" d="M82.25,211.36c0-.62-.51-1.14-1.14-1.14h-1.49v4.13c0,.33-.26.59-.59.59s-.59-.26-.59-.59v-7.1c0-.33.26-.59.59-.59s.59.26.59.59v1.81h1.49c1.28,0,2.32,1.04,2.32,2.32v2.97c0,.33-.26.59-.59.59s-.59-.26-.59-.59v-2.99Z"/>
    <path class="cls-1" d="M87.31,214.85c-1.75,0-2.98-1.3-2.98-2.89s1.23-2.89,2.98-2.89h.69c1.1,0,1.84.78,1.84,1.74s-.73,1.74-1.84,1.74h-1.1c-.32,0-.58-.26-.58-.58s.26-.58.58-.58h1.1c.39,0,.66-.26.66-.58s-.26-.58-.66-.58h-.69c-1.05,0-1.8.79-1.8,1.74s.75,1.74,1.8,1.74h1.67c.32,0,.58.26.58.58s-.26.58-.58.58h-1.67Z"/>
    <path class="cls-1" d="M93.57,214.85c-1.13,0-2.04-.92-2.04-2.04v-2.59h-.69c-.32,0-.58-.26-.58-.58s.26-.58.58-.58h.69v-1.16c0-.33.26-.59.59-.59s.59.26.59.59v1.16h1.52c.32,0,.58.26.58.58s-.26.58-.58.58h-1.52v2.6c0,.49.37.87.87.87h.64c.32,0,.58.26.58.58s-.26.58-.58.58h-.65Z"/>
    <path class="cls-1" d="M98.47,214.85c-.32,0-.58-.26-.58-.58s.26-.58.58-.58h2.45c.39,0,.65-.26.65-.58s-.26-.58-.65-.58h-1.36c-1.1,0-1.83-.78-1.83-1.74s.73-1.74,1.83-1.74h2.45c.32,0,.58.26.58.58s-.26.58-.58.58h-2.45c-.39,0-.65.26-.65.58s.26.58.65.58h1.36c1.1,0,1.83.78,1.83,1.74s-.73,1.74-1.83,1.74h-2.45Z"/>
    <path class="cls-1" d="M104.83,214.85v1.81c0,.33-.26.59-.59.59s-.59-.26-.59-.59v-7.01c0-.33.26-.59.59-.59h1.93c1.75,0,2.98,1.3,2.98,2.89s-1.23,2.89-2.98,2.89h-1.34ZM106.18,213.69c1.05,0,1.8-.79,1.8-1.74s-.75-1.74-1.8-1.74h-1.34v3.47h1.34Z"/>
    <path class="cls-1" d="M112.87,214.85c-1.75,0-2.98-1.3-2.98-2.89s1.23-2.89,2.98-2.89h.69c1.1,0,1.84.78,1.84,1.74s-.73,1.74-1.84,1.74h-1.1c-.32,0-.58-.26-.58-.58s.26-.58.58-.58h1.1c.39,0,.65-.26.65-.58s-.26-.58-.65-.58h-.69c-1.05,0-1.8.79-1.8,1.74s.75,1.74,1.8,1.74h1.67c.32,0,.58.26.58.58s-.26.58-.58.58h-1.67Z"/>
    <path class="cls-1" d="M116.29,207.25c0-.33.26-.59.59-.59s.59.26.59.59v7.1c0,.33-.26.59-.59.59s-.59-.26-.59-.59v-7.1Z"/>
    <path class="cls-1" d="M26.42,226.84c0-.62-.51-1.14-1.14-1.14h-1.04v4.13c0,.33-.26.59-.59.59s-.59-.26-.59-.59v-4.13h-2.15v4.13c0,.33-.26.59-.59.59s-.59-.26-.59-.59v-4.7c0-.33.26-.59.59-.59h4.96c1.28,0,2.31,1.04,2.31,2.32v2.97c0,.33-.26.59-.59.59s-.59-.26-.59-.59v-2.99Z"/>
    <path class="cls-1" d="M31.48,230.33c-1.75,0-2.98-1.3-2.98-2.89s1.23-2.89,2.98-2.89h.69c1.1,0,1.84.78,1.84,1.74s-.73,1.74-1.84,1.74h-1.1c-.32,0-.58-.26-.58-.58s.26-.58.58-.58h1.1c.39,0,.66-.26.66-.58s-.26-.58-.66-.58h-.69c-1.05,0-1.8.79-1.8,1.74s.75,1.74,1.8,1.74h1.67c.32,0,.58.26.58.58s-.26.58-.58.58h-1.67Z"/>
    <path class="cls-1" d="M37.71,230.33c-1.75,0-2.98-1.3-2.98-2.89s1.23-2.89,2.98-2.89h.69c1.1,0,1.84.78,1.84,1.74s-.73,1.74-1.84,1.74h-1.1c-.32,0-.58-.26-.58-.58s.26-.58.58-.58h1.1c.39,0,.66-.26.66-.58s-.26-.58-.66-.58h-.69c-1.05,0-1.8.79-1.8,1.74s.75,1.74,1.8,1.74h1.67c.32,0,.58.26.58.58s-.26.58-.58.58h-1.67Z"/>
  </g>
</svg>