<?xml version="1.0" encoding="UTF-8"?>
<svg id="Laag_1" data-name="Laag 1" xmlns="http://www.w3.org/2000/svg" viewBox="0 0 164.41 249.45">
  <defs>
    <style>
      .cls-1 {
        fill: none;
        stroke: #8abb2a;
        stroke-width: 3px;
      }

      .cls-1, .cls-2 {
        stroke-miterlimit: 10;
      }

      .cls-2 {
        stroke: #fff;
        stroke-width: .47px;
      }

      .cls-2, .cls-3 {
        fill: #fff;
      }

      .cls-4 {
        fill: #8082b8;
      }

      .cls-4, .cls-5, .cls-6, .cls-7, .cls-8, .cls-3 {
        stroke-width: 0px;
      }

      .cls-5 {
        fill: #2f2f2f;
      }

      .cls-6 {
        fill: #1d1d1b;
      }

      .cls-7 {
        fill: #de2b65;
      }

      .cls-8 {
        fill: #8abb2a;
      }
    </style>
  </defs>
  <rect class="cls-5" x="0" width="164.41" height="249.45"/>
  <g>
    <path class="cls-4" d="M141.73,206.68c-4.35,0-7.89-3.7-7.89-8.26s3.54-8.25,7.89-8.25,7.89,3.7,7.89,8.25-3.54,8.26-7.89,8.26Z"/>
    <path class="cls-6" d="M141.73,191.17c3.8,0,6.89,3.25,6.89,7.26s-3.09,7.26-6.89,7.26-6.89-3.25-6.89-7.26,3.09-7.26,6.89-7.26M141.73,189.17c-4.91,0-8.89,4.14-8.89,9.26s3.98,9.26,8.89,9.26,8.89-4.14,8.89-9.26-3.98-9.26-8.89-9.26h0Z"/>
  </g>
  <g>
    <ellipse class="cls-7" cx="142.02" cy="221.7" rx="7.89" ry="8.26"/>
    <path class="cls-6" d="M142.02,214.44c3.8,0,6.89,3.25,6.89,7.26s-3.09,7.26-6.89,7.26-6.89-3.25-6.89-7.26,3.09-7.26,6.89-7.26M142.02,212.44c-4.91,0-8.89,4.14-8.89,9.26s3.98,9.26,8.89,9.26,8.89-4.14,8.89-9.26-3.98-9.26-8.89-9.26h0Z"/>
  </g>
  <g>
    <g>
      <path class="cls-8" d="M71.52,147.52c-2.76,0-4.12-3.31-4.77-6.08l-.07-.28v-12.83c-.33.13-.71.21-1.12.21-2.09,0-3.49-1.91-4.28-5.82l-.05-.24v-10.5c-3.59-.53-7.54-1.75-8.83-5.01-1.58-3.98,1.98-8.07,4.18-10.55-2.06-2.66-3.96-5.98-4.06-6.16l-.05-.08-.04-.09c-1.51-3.19-.94-5.4-.2-6.69,1.69-2.93,5.42-3.33,5.83-3.37l1-.09.52.42c.11.02.3.04.59.04.57,0,1.58-.09,3.15-.54l.09-.03.09-.02c1.72-.36,1.96-1.04,2.03-1.33l-.44-.23.69-2.03s.15-.6-.09-2.45l-.04-.32.04-.32c.95-7.55,5.06-8.68,7.42-8.68,2.65,0,4.98,1.43,5.6,1.84.41.23,1.77,1.01,3.66,2.33.83.3,1.35.45,1.67.52.1-.16.21-.32.33-.49l.2-.28.27-.22c2.98-2.44,5.58-3.62,7.95-3.62,4.17,0,6.1,3.57,6.7,6.03.65,1.04.7,2.51.19,5.17.03,1.23.3,1.93.55,2.17.04.04.18.17.58.17.17,0,.29-.03.29-.03l.15-.04h.13s.39-.07.99-.07c2.54,0,4.57,1.03,5.57,2.84,1.43,2.57.65,6.22-2.4,11.16-.02.03-.04.06-.05.08,3.14,3.43,4.24,6.64,3.28,9.56-1.5,4.55-7.51,6.16-9.71,6.6l.04.66.51,3.36c.21.7.44,2.12.49,5.45v.46s-.15.43-.15.43c-1.03,2.82-2.35,5.83-4.99,5.83-1.6,0-2.78-1.07-3.49-3.13.03.57.06,1.23.08,1.97v.44s-.12.41-.12.41c-.91,2.76-1.92,5.24-4.25,5.24-.06,0-.12,0-.18,0l.23.82v5l-.18.45c-.55,1.38-2.02,5.05-5.14,5.05s-4.66-3.95-5.03-5.16l-.11-.35-.04-5.74-.45.22-.73,1.02v2.35c.03.4.72,8.1.72,8.1l-.11.42c-.5,1.96-1.55,6.03-4.68,6.03ZM91.13,115.66l.45-2.23v-2.82c-.23-.26-.41-.42-.53-.52-.17.2-.37.53-.51.84l-.15,1.73.75,2.99Z"/>
      <path class="cls-6" d="M73.13,66.97c2.21,0,4.29,1.48,4.29,1.48,0,0,1.51.81,3.8,2.43,1.6.6,2.58.84,3.25.84,1.1,0,1.31-.69,1.96-1.62,2.76-2.26,4.83-3.06,6.37-3.06,3.74,0,4.39,4.72,4.39,4.72,0,0,0,0,.01,0,.09,0,.72.12-.01,3.75,0,4.44,2.3,5.08,3.63,5.08.53,0,.91-.1.91-.1,0,0,.26-.04.65-.04,1.88,0,6.84.81,1.04,10.19-1.24,2.01-.44,2.38-.44,2.38,10.45,10.5-5.01,12.84-5.01,12.84-.26-1.04-.52-1.38-.75-1.38-.46,0-.81,1.38-.81,1.38l.21,3.27.57,3.73s.36.6.42,4.84c-1.14,3.13-2,4.18-2.64,4.18-1.3,0-1.68-4.36-1.68-4.36l.78-3.85v-3.93c-1.21-1.69-2.25-2.28-3.1-2.28-1.9,0-2.9,2.87-2.9,2.87l-.22,2.52.78,3.11v2.33s.34,1.24.44,4.99c-.87,2.63-1.47,3.52-1.88,3.52-.85,0-.9-3.84-.9-3.84l-.78-2.41v-3.81c-.26-2.08-.6-2.77-.95-2.77-.69,0-1.38,2.77-1.38,2.77l-.17,3.24.17,3.76.78,3.89.78,2.82v4.18c-1.05,2.61-2,3.48-2.82,3.48-1.6,0-2.64-3.39-2.64-3.39l-.05-7.95s.12-.63,0-6.23c-.54-3.14-.97-4.18-1.31-4.18-.67,0-.97,4.18-.97,4.18v3.19l-.78,3.11-1.56.78-1.55,2.18v3.26s.07.78.7,7.78c-.8,3.11-1.58,4.15-2.26,4.15-1.36,0-2.33-4.15-2.33-4.15v-13.23l.78-2.24v-7.09c-.52-2.08-.95-2.77-1.3-2.77-.69,0-1.04,2.77-1.04,2.77,0,0-.47.75-.31,3.92-.62,2.86-1.23,3.81-1.76,3.81-1.06,0-1.83-3.81-1.83-3.81v-12.47c-17.12-1.56-5.45-10.89-3.89-13.35-2.33-2.46-5.15-7.38-5.15-7.38-2.81-5.95,3.59-6.5,3.59-6.5,0,0,.48.39,1.9.39.88,0,2.12-.15,3.83-.64,2.85-.59,3.74-2.13,3.98-3.33.11.04.22.05.33.05.3,0,.6-.14.75-.42.22-.41.12-.98-.32-1.22-.2-.11-.4-.2-.6-.31.15-.43.31-1.41.02-3.59.65-5.16,2.85-6.49,4.94-6.49M73.13,61.97s0,0,0,0c-2,0-8.64.78-9.91,10.86l-.08.64.08.64c.12.89.12,1.38.11,1.58l-.6,1.74-.09.03c-1.02.29-1.71.4-2.13.43l-.65-.53-2.01.17c-.9.08-5.52.66-7.79,4.61-1.04,1.81-1.86,4.83.11,9l.08.18.1.17c.2.36,1.46,2.53,3.04,4.79-2.36,2.86-5.1,7.09-3.31,11.6,1.45,3.66,5.03,5.34,8.65,6.16v8.67l.1.49c.9,4.46,2.69,7.04,5.35,7.67v10.57l.13.56c1.55,6.62,4.77,8.01,7.2,8.01,5.03,0,6.52-5.66,7.09-7.85,1.01.63,2.13.96,3.32.96,3.19,0,5.7-2.23,7.46-6.62l.36-.89v-4.42c1.76-.96,2.79-2.88,3.46-4.57.64.21,1.25.27,1.78.27,4.61,0,6.45-5.04,7.33-7.47l.32-.87v-.92c-.06-3.2-.27-4.89-.56-5.93l-.25-1.61c3.23-.99,7.82-3.15,9.32-7.7,1.12-3.4.25-6.96-2.6-10.6,2.01-3.57,3.81-8.21,1.58-12.21-1.46-2.62-4.29-4.12-7.75-4.12-.03,0-.06,0-.09,0,.38-2.28.39-4.19-.43-5.79-1.03-3.89-4.1-7.62-9.06-7.62h0c-2.97,0-6.08,1.37-9.52,4.18-1.59-1.09-2.75-1.76-3.25-2.04-.97-.63-3.69-2.21-6.9-2.21h0Z"/>
    </g>
    <g>
      <path class="cls-8" d="M97.16,143.76c-1.94,0-3.31-1.69-4.05-5.03l-.06-.27v-2.96l1.13-5.09c.37-1.98,1.34-3.03,2.87-3.03,2.43,0,2.91,2.7,3.1,4.03l.54,1.93.62,4.45-.09.43c-.41,1.94-1.16,5.54-4.06,5.54h0Z"/>
      <path class="cls-6" d="M97.05,129.89c.36,0,.65,2.04.65,2.04l.54,1.93.54,3.85c-.56,2.68-1.12,3.55-1.62,3.55-.92,0-1.61-3.07-1.61-3.07v-2.41l1.08-4.82c.15-.79.29-1.07.43-1.07M97.05,124.89c-3.95,0-5.06,3.73-5.32,5.05l-1.06,4.75-.12.54v3.51l.12.54c1.29,5.77,4.24,6.98,6.49,6.98,4.93,0,6.08-5.47,6.51-7.53l.18-.85-.12-.86-.54-3.85-.05-.33-.09-.32-.46-1.64c-.46-2.81-1.81-5.98-5.54-5.98h0Z"/>
    </g>
    <g>
      <path class="cls-8" d="M97.98,159.14c-.42,0-.85-.07-1.28-.2-.93-.13-1.74-.61-2.31-1.37-1.43-1.91-.79-5.08-.28-6.8l.28-.96.86-.5c.89-.52,1.77-.78,2.64-.78,1.75,0,3.04,1.06,3.68,2.23.5.65,1.12,1.87,1.12,3.85v.69l-.35.59c-.72,1.21-1.93,3.25-4.35,3.25h0Z"/>
      <path class="cls-6" d="M97.89,151.04c1.15,0,1.56,1.1,1.56,1.1,0,0,.74.62.74,2.48-.6,1.01-1.2,2.02-2.2,2.02-.23,0-.47-.05-.74-.16-2.21,0-.74-5-.74-5,.55-.32,1-.44,1.38-.44M97.89,146.04c-1.31,0-2.62.38-3.9,1.12l-1.72,1-.56,1.91c-1.41,4.8-.41,7.55.68,9,.92,1.23,2.25,2.04,3.75,2.31.61.17,1.23.26,1.85.26,3.85,0,5.71-3.13,6.5-4.47l.7-1.18v-1.37c0-2.53-.79-4.21-1.54-5.24-1.05-1.79-3.07-3.34-5.76-3.34h0Z"/>
    </g>
    <g>
      <path class="cls-8" d="M80.88,161.63c-5.35-4.13-1.21-13.07-.72-14.07l.37-.76.76-.38c.58-.29,1.2-.57,1.94-.57.54,0,2.35.19,2.78,2.6.04.24.08.42.19.64.1.19.21.39.32.58.87,1.5,2.31,4.02.62,8.4-.73,1.88-1.64,4.23-3.93,4.23h0c-.26,0-.49-.04-.69-.08l-.65.18-.99-.76Z"/>
      <path class="cls-6" d="M83.23,148.35c.43,0,.16.72.73,1.86.78,1.56,2.33,3.11.84,6.96-.85,2.2-1.26,2.63-1.6,2.63-.21,0-.4-.17-.65-.17-.05,0-.1,0-.15.02-3.89-3,0-11,0-11,.42-.21.67-.31.82-.31M83.23,143.35c-1.22,0-2.19.4-3.06.83l-1.52.76-.74,1.53c-.13.26-1.27,2.65-1.86,5.56-1.39,6.79,1.47,10.17,3.3,11.59l1.98,1.53,1.33-.37c.17.02.35.03.54.03,4.01,0,5.48-3.79,6.26-5.82,2.13-5.49.16-8.91-.78-10.55-.07-.13-.14-.25-.21-.37,0-.02,0-.04-.01-.06-.62-3.44-3.21-4.66-5.24-4.66h0Z"/>
    </g>
    <g>
      <path class="cls-8" d="M59.81,146.36c-1.89,0-3.1-1.58-3.6-4.7l-.03-.2v-4.25l1.65-3.58c.56-1.89,2.18-1.99,2.51-1.99,2.77,0,2.9,2.39,3.27,9.49l.02.38-.09.37c-.37,1.45-1.15,4.47-3.72,4.47Z"/>
      <path class="cls-6" d="M60.34,134.14c.4,0,.77,7.12.77,7.12-.5,1.95-.93,2.59-1.29,2.59-.72,0-1.13-2.59-1.13-2.59v-3.5l1.51-3.28c.05-.23.1-.34.15-.34M60.34,129.14h-.01c-1.88,0-4.01,1.12-4.83,3.58l-1.35,2.94-.46,1v4.99l.06.39c.41,2.54,1.73,6.8,6.07,6.8s5.74-4.78,6.14-6.35l.19-.74-.04-.76c0-.08-.1-1.87-.24-3.7-.09-1.14-.18-2.03-.28-2.72-.67-4.91-3.89-5.44-5.24-5.44h0Z"/>
    </g>
    <g>
      <path class="cls-8" d="M107.27,125.87l-.64-.44c-2.9-1.99-2.99-5.58-2.99-5.98v-5.8l.25-.52c.25-.53,1.66-3.15,4.22-3.15,1.17,0,2.82.55,4.08,3.15l.14.28.06.3c.37,1.76,1.38,7.7-.93,10.54-.85,1.04-2.06,1.62-3.42,1.62h-.78Z"/>
      <path class="cls-6" d="M108.11,112.47c.56,0,1.2.44,1.83,1.74,0,0,1.9,9.15-1.9,9.15-1.9-1.31-1.9-3.92-1.9-3.92v-5.23s.85-1.74,1.97-1.74M108.11,107.47h0c-3.14,0-5.4,2.36-6.47,4.56l-.5,1.03v6.38c0,2.42,1.07,5.98,4.07,8.04l1.28.88h1.55c2.12,0,4.02-.9,5.36-2.54,1.21-1.49,3.01-5.1,1.44-12.63l-.13-.61-.27-.56c-1.92-3.97-4.79-4.56-6.33-4.56h0Z"/>
    </g>
    <line class="cls-1" x1="69.92" y1="75.87" x2="68.92" y2="80.87"/>
    <line class="cls-1" x1="94.87" y1="105.52" x2="99.81" y2="103.6"/>
    <line class="cls-1" x1="94.69" y1="107.83" x2="96.46" y2="102.96"/>
  </g>
  <g>
    <path class="cls-3" d="M46.68,37.76c-.02.35.06.73.24,1.15.18.42.42.8.74,1.15.32.35.7.65,1.14.89.44.24.91.36,1.41.36.2,0,.44-.02.71-.06.28-.04.54-.12.79-.25s.46-.3.64-.51c.17-.22.26-.5.26-.85,0-.45-.15-.85-.44-1.2-.29-.35-.64-.66-1.04-.94s-.81-.51-1.22-.7c-.42-.19-.75-.35-1-.49-.82-.43-1.5-.87-2.05-1.3-.55-.43-1-.88-1.34-1.32-.34-.45-.59-.93-.74-1.43-.15-.5-.23-1.03-.23-1.6,0-.7.14-1.35.41-1.94.27-.59.67-1.1,1.17-1.54.51-.43,1.13-.77,1.88-1.01.74-.24,1.59-.36,2.54-.36s1.87.13,2.7.4c.83.27,1.5.66,2,1.17.5.52.78,1.14.84,1.88.06.73-.21,1.58-.81,2.53-.05-.53-.22-1-.5-1.39-.28-.39-.62-.7-1.03-.94s-.83-.39-1.29-.46c-.46-.08-.89-.08-1.29-.01-.25.05-.49.12-.72.21-.23.09-.44.22-.62.39-.18.17-.33.37-.42.61-.1.24-.14.52-.12.84.02.33.07.62.16.88s.26.5.5.74c.24.24.57.5.99.76s.97.58,1.65.95c.93.52,1.67,1,2.22,1.46.55.46.97.91,1.26,1.36.29.45.48.9.56,1.35.08.45.12.92.12,1.42,0,.6-.15,1.17-.44,1.7-.29.53-.7,1-1.21,1.4s-1.12.72-1.82.96c-.7.24-1.46.38-2.28.41-1.05.03-2-.13-2.86-.49-.86-.36-1.52-.85-1.99-1.47-.47-.62-.68-1.35-.65-2.16.03-.82.42-1.67,1.17-2.55Z"/>
    <path class="cls-3" d="M69.23,30.69c-.12.7-.33,1.3-.64,1.81s-.66.92-1.06,1.25c-.4.32-.83.57-1.3.73s-.92.24-1.38.24h-.47c.03.97.09,1.88.16,2.73s.19,1.6.34,2.24c.15.64.34,1.15.57,1.54.23.38.53.6.88.65.17.03.35.05.56.04.21,0,.44-.07.69-.19.25-.12.52-.31.81-.58.29-.27.61-.65.96-1.15.05.65.02,1.25-.1,1.81-.12.56-.33,1.05-.65,1.46-.32.42-.74.74-1.28.98-.53.23-1.18.35-1.95.35-1,0-1.89-.24-2.66-.73-.77-.48-1.32-1.15-1.64-2-.17-.45-.3-.98-.4-1.57-.1-.6-.17-1.25-.23-1.95-.05-.7-.06-1.43-.04-2.2.03-.77.08-1.53.16-2.3-.72-.4-1.24-.89-1.57-1.46-.33-.58-.57-1.15-.7-1.74.48.07.96.12,1.42.16.47.04.92.08,1.35.11.15-.65.34-1.27.56-1.85.23-.58.48-1.1.75-1.55.28-.45.59-.82.94-1.12.35-.3.73-.5,1.12-.6-.02.78-.04,1.6-.06,2.46-.02.86-.05,1.78-.06,2.76.8-.02,1.59-.05,2.38-.11.78-.06,1.62-.13,2.53-.21Z"/>
    <path class="cls-3" d="M71.58,25.21c1.47-.02,2.53.18,3.19.59.66.41.98.89.95,1.45-.02.56-.37,1.12-1.04,1.69-.67.57-1.59,1-2.78,1.3.02-.55.02-1.02.01-1.42,0-.4-.03-.78-.05-1.15-.03-.37-.06-.74-.11-1.11-.05-.38-.11-.82-.18-1.34ZM71.65,31.71c.93-.05,1.71.07,2.34.36.62.29,1.12.7,1.47,1.24.36.53.6,1.16.71,1.88.12.72.13,1.46.05,2.24-.08.77-.25,1.55-.5,2.33s-.56,1.5-.94,2.17c-.38.68-.8,1.27-1.29,1.77-.48.51-.99.87-1.53,1.09.05-.43.09-.99.11-1.66.03-.68.04-1.41.05-2.21,0-.8,0-1.63-.01-2.5-.02-.87-.05-1.71-.09-2.54-.04-.83-.1-1.6-.16-2.33-.07-.73-.14-1.34-.23-1.84Z"/>
    <path class="cls-3" d="M90.13,40.16c-.05.7-.23,1.3-.54,1.8-.31.5-.69.91-1.15,1.24-.46.33-.98.56-1.58.71-.59.15-1.2.22-1.84.2-1.02-.02-1.92-.2-2.7-.56-.78-.36-1.45-.85-1.99-1.46-.54-.62-.96-1.35-1.25-2.19-.29-.84-.45-1.75-.46-2.74-.02-1.02.14-1.98.46-2.9.33-.92.78-1.72,1.38-2.42.59-.7,1.3-1.27,2.11-1.7.82-.43,1.71-.67,2.67-.72.58-.03,1.15,0,1.69.11s1.02.31,1.42.6.73.67.98,1.15c.24.48.36,1.07.36,1.79-.5-.43-.96-.71-1.38-.83-.42-.12-.92-.13-1.5-.05-.52.07-.99.25-1.41.54-.43.29-.79.66-1.1,1.11s-.55.95-.71,1.51c-.17.56-.26,1.13-.28,1.71-.03,1.17.18,2.09.65,2.77.47.68,1.15,1.14,2.05,1.38.77.18,1.51.19,2.22.01.72-.18,1.34-.53,1.88-1.06Z"/>
    <path class="cls-3" d="M92.25,26.51c.92-.07,1.69.1,2.33.49s1.14.94,1.51,1.65c.38.71.64,1.54.79,2.49.15.95.2,1.95.15,3,.65-.37,1.26-.73,1.84-1.09.57-.36,1.14-.74,1.69-1.15.55-.41,1.1-.85,1.65-1.34s1.12-1.04,1.73-1.68c.72,1.63.77,3.12.15,4.48s-1.99,2.61-4.12,3.77c.63,1.2,1.42,2.44,2.38,3.71.95,1.27,2.06,2.46,3.33,3.56-.77-.02-1.57-.15-2.41-.41-.84-.26-1.68-.63-2.5-1.11-.83-.48-1.62-1.07-2.38-1.77-.76-.7-1.44-1.52-2.04-2.45-.2.75-.43,1.46-.7,2.12s-.56,1.27-.89,1.81c-.33.54-.67,1-1.03,1.38s-.74.65-1.14.81c.05-.43.09-1.12.11-2.05.03-.93.04-1.99.05-3.17,0-1.18,0-2.43-.01-3.75-.02-1.32-.05-2.58-.09-3.79-.04-1.21-.1-2.3-.16-3.29-.07-.98-.14-1.73-.23-2.23Z"/>
    <path class="cls-3" d="M106.03,31.41c.28-.42.57-.75.85-1s.55-.44.81-.58c.26-.13.5-.22.72-.26.23-.04.43-.06.61-.06.65,0,1.18.12,1.59.35.41.23.73.56.95.98.22.42.38.92.45,1.5.08.58.12,1.22.14,1.9.02.42.01,1.06-.01,1.93-.03.87-.02,1.92.01,3.17.02.58.12.98.3,1.17.18.2.58.3,1.17.3.37,0,.71-.01,1.04-.04.33-.02.67-.06,1.04-.11,0-1.13-.01-2.27-.04-3.41-.02-1.14-.06-2.21-.1-3.21-.04-1-.09-1.89-.15-2.68-.06-.78-.12-1.38-.19-1.8.97-.07,1.77.13,2.41.6s1.15,1.12,1.52,1.96c.38.84.62,1.81.75,2.91.12,1.1.15,2.25.06,3.44-.08,1.19-.25,2.38-.51,3.56-.26,1.18-.58,2.27-.98,3.26-.39.99-.84,1.84-1.34,2.55-.5.71-1.03,1.18-1.6,1.41.05-.47.09-1.25.11-2.34.03-1.09.04-2.34.04-3.74-.6.4-1.25.7-1.95.9s-1.4.3-2.1.3-1.27-.09-1.7-.26c-.43-.18-.77-.43-1.01-.75-.24-.33-.4-.73-.49-1.2-.08-.48-.12-1.01-.12-1.61,0-1.43,0-2.66-.01-3.68,0-1.02-.04-1.87-.09-2.55-.05-.68-.12-1.23-.21-1.62-.09-.4-.22-.7-.39-.89-.17-.19-.38-.31-.65-.36s-.58-.07-.95-.05Z"/>
  </g>
  <g>
    <path class="cls-2" d="M20.29,196.93c-.34,0-.62-.28-.62-.62v-5.97c0-.34.28-.62.62-.62h1.93c2.05,0,3.63,1.57,3.63,3.61s-1.58,3.61-3.63,3.61h-1.93ZM22.22,195.72c1.35,0,2.38-1.03,2.38-2.4s-1.03-2.4-2.38-2.4h-1.3v4.81h1.3Z"/>
    <path class="cls-2" d="M29.6,196.93c-1.82,0-3.1-1.35-3.1-3.01s1.28-3.01,3.1-3.01h.71c1.15,0,1.9.81,1.9,1.8s-.76,1.8-1.9,1.8h-1.15c-.33,0-.6-.27-.6-.6s.27-.6.6-.6h1.15c.41,0,.68-.27.68-.6s-.27-.6-.68-.6h-.71c-1.09,0-1.87.82-1.87,1.8s.78,1.8,1.87,1.8h1.73c.33,0,.6.27.6.6s-.27.6-.6.6h-1.73Z"/>
    <path class="cls-2" d="M36.88,194.03v2.37c0,.34-.27.61-.61.61s-.61-.27-.61-.61v-7.37c0-.34.27-.61.61-.61s.61.27.61.61v4.78l2.8-2.8c.24-.24.61-.24.85,0,.23.24.23.61,0,.85l-2.06,2.06,2.06,2.06c.24.24.23.61,0,.85-.24.24-.61.24-.85,0l-2.8-2.8Z"/>
    <path class="cls-2" d="M43.07,196.93c-1.1,0-1.86-.84-1.86-1.86s.76-1.86,1.86-1.86h1.15c.33,0,.6.27.6.6s-.27.6-.6.6h-1.15c-.37,0-.64.32-.64.66s.26.66.64.66h2.2v-2.54c0-.6-.42-1.07-1.04-1.07h-1.93c-.33,0-.6-.27-.6-.6s.27-.6.6-.6h1.93c1.27,0,2.27,1.01,2.27,2.26v3.14c0,.34-.22.61-.61.61h-2.81Z"/>
    <path class="cls-2" d="M49.32,196.93c-1.1,0-1.86-.84-1.86-1.86s.76-1.86,1.86-1.86h1.15c.33,0,.6.27.6.6s-.27.6-.6.6h-1.15c-.37,0-.64.32-.64.66s.26.66.64.66h2.2v-2.54c0-.6-.42-1.07-1.04-1.07h-1.93c-.33,0-.6-.27-.6-.6s.27-.6.6-.6h1.93c1.27,0,2.27,1.01,2.27,2.26v3.14c0,.34-.22.61-.61.61h-2.81Z"/>
    <path class="cls-2" d="M58.57,193.26c0,.34-.27.61-.61.61s-.61-.27-.61-.6v-.08c0-.6-.44-1.08-1.08-1.08h-1.08v4.29c0,.34-.27.61-.61.61s-.61-.27-.61-.61v-4.88c0-.34.27-.61.61-.61h1.69c1.29,0,2.3,1.03,2.3,2.28v.07Z"/>
    <path class="cls-2" d="M62.3,196.93c-1.17,0-2.12-.95-2.12-2.12v-2.69h-.71c-.33,0-.6-.27-.6-.6s.27-.6.6-.6h.71v-1.2c0-.34.27-.61.61-.61s.61.27.61.61v1.2h1.58c.33,0,.6.27.6.6s-.27.6-.6.6h-1.58v2.7c0,.51.39.91.91.91h.67c.33,0,.6.27.6.6s-.27.6-.6.6h-.68Z"/>
    <path class="cls-2" d="M68.14,194.03v2.37c0,.34-.27.61-.61.61s-.61-.27-.61-.61v-7.37c0-.34.27-.61.61-.61s.61.27.61.61v4.78l2.8-2.8c.24-.24.61-.24.85,0,.23.24.23.61,0,.85l-2.06,2.06,2.06,2.06c.24.24.23.61,0,.85-.24.24-.61.24-.85,0l-2.8-2.8Z"/>
    <path class="cls-2" d="M72.75,189.03c0-.34.27-.61.61-.61s.61.27.61.61v7.37c0,.34-.27.61-.61.61s-.61-.27-.61-.61v-7.37Z"/>
    <path class="cls-2" d="M78,196.93c-1.81,0-3.1-1.35-3.1-3.01s1.28-3.01,3.1-3.01h.71c1.15,0,1.91.81,1.91,1.8s-.76,1.8-1.91,1.8h-1.15c-.33,0-.6-.27-.6-.6s.27-.6.6-.6h1.15c.41,0,.68-.27.68-.6s-.27-.6-.68-.6h-.71c-1.09,0-1.87.82-1.87,1.8s.78,1.8,1.87,1.8h1.74c.33,0,.6.27.6.6s-.27.6-.6.6h-1.74Z"/>
    <path class="cls-2" d="M84.47,196.93c-1.81,0-3.1-1.35-3.1-3.01s1.28-3.01,3.1-3.01h.71c1.15,0,1.91.81,1.91,1.8s-.76,1.8-1.91,1.8h-1.15c-.33,0-.6-.27-.6-.6s.27-.6.6-.6h1.15c.41,0,.68-.27.68-.6s-.27-.6-.68-.6h-.71c-1.09,0-1.87.82-1.87,1.8s.78,1.8,1.87,1.8h1.74c.33,0,.6.27.6.6s-.27.6-.6.6h-1.74Z"/>
    <path class="cls-2" d="M95.6,196.93c-1.17,0-2.12-.95-2.12-2.12v-2.69h-3.41v4.29c0,.34-.27.61-.61.61s-.61-.27-.61-.61v-4.29h-.71c-.33,0-.6-.27-.6-.6s.27-.6.6-.6h.71v-.41c0-1.12.83-2,2.05-2h1.19c.33,0,.6.27.6.6s-.27.6-.6.6h-1.19c-.5,0-.83.33-.83.78v.42h3.41v-1.2c0-.34.27-.61.61-.61s.61.27.61.61v1.2h1.57c.33,0,.6.27.6.6s-.27.6-.6.6h-1.57v2.7c0,.51.39.91.91.91h.66c.33,0,.6.27.6.6s-.27.6-.6.6h-.67Z"/>
    <path class="cls-2" d="M97.87,198.6c-.15.29-.5.41-.79.27-.29-.15-.42-.51-.28-.79l1.07-2.23c.15-.31.51-.41.81-.27.3.15.43.52.27.81l-1.07,2.22Z"/>
    <path class="cls-2" d="M103.33,199.33c-.33,0-.6-.27-.6-.6s.27-.6.6-.6h.24c1.02,0,1.41-.53,1.41-1.54v-5.15c0-.34.27-.61.61-.61s.61.27.61.61v5.14c0,1.69-.86,2.76-2.62,2.76h-.25ZM105.59,189.92c-.42,0-.76-.33-.76-.75s.34-.75.76-.75.76.33.76.75-.34.75-.76.75Z"/>
    <path class="cls-2" d="M110.23,196.93c-1.81,0-3.1-1.35-3.1-3.01s1.28-3.01,3.1-3.01h.71c1.15,0,1.91.81,1.91,1.8s-.76,1.8-1.91,1.8h-1.15c-.33,0-.6-.27-.6-.6s.27-.6.6-.6h1.15c.41,0,.68-.27.68-.6s-.27-.6-.68-.6h-.71c-1.09,0-1.87.82-1.87,1.8s.78,1.8,1.87,1.8h1.74c.33,0,.6.27.6.6s-.27.6-.6.6h-1.74Z"/>
    <path class="cls-2" d="M26.59,209.37c0-.65-.53-1.18-1.18-1.18h-1.08v4.29c0,.34-.27.61-.61.61s-.61-.27-.61-.61v-4.29h-2.23v4.29c0,.34-.27.61-.61.61s-.61-.27-.61-.61v-4.88c0-.34.27-.61.61-.61h5.15c1.33,0,2.4,1.08,2.4,2.4v3.08c0,.34-.27.61-.61.61s-.61-.27-.61-.61v-3.11Z"/>
    <path class="cls-2" d="M30.64,213c-1.1,0-1.86-.84-1.86-1.86s.76-1.86,1.86-1.86h1.15c.33,0,.6.27.6.6s-.27.6-.6.6h-1.15c-.37,0-.63.32-.63.66s.26.66.63.66h2.2v-2.54c0-.6-.42-1.07-1.04-1.07h-1.93c-.33,0-.6-.27-.6-.6s.27-.6.6-.6h1.93c1.27,0,2.27,1.01,2.27,2.26v3.14c0,.34-.22.61-.61.61h-2.81Z"/>
    <path class="cls-2" d="M36.41,215.41c-.33,0-.6-.27-.6-.6s.27-.6.6-.6h2.15c.51,0,.92-.41.92-.92v-.28h-1.4c-1.81,0-3.1-1.35-3.1-3.01s1.28-3.01,3.1-3.01h2.01c.34,0,.61.27.61.61v5.68c0,1.17-.95,2.12-2.12,2.12h-2.18ZM39.49,208.19h-1.4c-1.09,0-1.87.82-1.87,1.8s.78,1.8,1.87,1.8h1.4v-3.61Z"/>
    <path class="cls-2" d="M47.24,213c-1.81,0-3.1-1.35-3.1-3.01s1.28-3.01,3.1-3.01h.71c1.15,0,1.91.81,1.91,1.8s-.76,1.8-1.91,1.8h-1.15c-.33,0-.6-.27-.6-.6s.27-.6.6-.6h1.15c.41,0,.68-.27.68-.6s-.27-.6-.68-.6h-.71c-1.09,0-1.87.82-1.87,1.8s.78,1.8,1.87,1.8h1.74c.33,0,.6.27.6.6s-.27.6-.6.6h-1.74Z"/>
    <path class="cls-2" d="M55.4,209.34c0,.34-.27.61-.61.61s-.61-.27-.61-.6v-.08c0-.6-.44-1.08-1.08-1.08h-1.08v4.29c0,.34-.27.61-.61.61s-.61-.27-.61-.61v-4.88c0-.34.27-.61.61-.61h1.69c1.29,0,2.3,1.03,2.3,2.28v.07Z"/>
    <path class="cls-2" d="M62.8,209.37c0-.65-.53-1.18-1.18-1.18h-1.54v4.29c0,.34-.27.61-.61.61s-.61-.27-.61-.61v-4.88c0-.34.27-.61.61-.61h2.16c1.33,0,2.4,1.08,2.4,2.4v3.08c0,.34-.27.61-.61.61s-.61-.27-.61-.61v-3.11Z"/>
    <path class="cls-2" d="M68.14,213.15c-1.87,0-3.19-1.41-3.19-3.15s1.32-3.15,3.19-3.15,3.19,1.41,3.19,3.15-1.33,3.15-3.19,3.15ZM68.14,208.03c-1.13,0-1.96.88-1.96,1.96s.83,1.96,1.96,1.96,1.96-.88,1.96-1.96-.83-1.96-1.96-1.96Z"/>
    <path class="cls-2" d="M73.5,215.41c-.33,0-.6-.27-.6-.6s.27-.6.6-.6h2.15c.51,0,.92-.41.92-.92v-.28h-1.4c-1.81,0-3.1-1.35-3.1-3.01s1.28-3.01,3.1-3.01h2.01c.34,0,.61.27.61.61v5.68c0,1.17-.95,2.12-2.12,2.12h-2.18ZM76.57,208.19h-1.4c-1.09,0-1.87.82-1.87,1.8s.78,1.8,1.87,1.8h1.4v-3.61Z"/>
    <path class="cls-2" d="M84.32,213c-1.81,0-3.1-1.35-3.1-3.01s1.28-3.01,3.1-3.01h.71c1.15,0,1.91.81,1.91,1.8s-.76,1.8-1.91,1.8h-1.15c-.33,0-.6-.27-.6-.6s.27-.6.6-.6h1.15c.41,0,.68-.27.68-.6s-.27-.6-.68-.6h-.71c-1.09,0-1.87.82-1.87,1.8s.78,1.8,1.87,1.8h1.74c.33,0,.6.27.6.6s-.27.6-.6.6h-1.74Z"/>
    <path class="cls-2" d="M90.79,213c-1.82,0-3.1-1.35-3.1-3.01s1.28-3.01,3.1-3.01h.71c1.15,0,1.91.81,1.91,1.8s-.76,1.8-1.91,1.8h-1.15c-.33,0-.6-.27-.6-.6s.27-.6.6-.6h1.15c.41,0,.68-.27.68-.6s-.27-.6-.68-.6h-.71c-1.09,0-1.87.82-1.87,1.8s.78,1.8,1.87,1.8h1.73c.33,0,.6.27.6.6s-.27.6-.6.6h-1.73Z"/>
    <path class="cls-2" d="M98.29,209.37c0-.65-.53-1.18-1.18-1.18h-1.54v4.29c0,.34-.27.61-.61.61s-.61-.27-.61-.61v-4.88c0-.34.27-.61.61-.61h2.16c1.33,0,2.4,1.08,2.4,2.4v3.08c0,.34-.27.61-.61.61s-.61-.27-.61-.61v-3.11Z"/>
    <path class="cls-2" d="M104.47,210.11v2.37c0,.34-.27.61-.61.61s-.61-.27-.61-.61v-7.37c0-.34.27-.61.61-.61s.61.27.61.61v4.78l2.8-2.8c.24-.24.61-.24.85,0,.23.24.23.61,0,.85l-2.06,2.06,2.06,2.06c.24.24.23.61,0,.85-.24.24-.61.24-.85,0l-2.8-2.8Z"/>
    <path class="cls-2" d="M110.66,213c-1.1,0-1.86-.84-1.86-1.86s.76-1.86,1.86-1.86h1.15c.33,0,.6.27.6.6s-.27.6-.6.6h-1.15c-.37,0-.64.32-.64.66s.26.66.64.66h2.2v-2.54c0-.6-.42-1.07-1.04-1.07h-1.93c-.33,0-.6-.27-.6-.6s.27-.6.6-.6h1.93c1.27,0,2.27,1.01,2.27,2.26v3.14c0,.34-.21.61-.61.61h-2.81Z"/>
    <path class="cls-2" d="M116.9,213c-1.1,0-1.86-.84-1.86-1.86s.76-1.86,1.86-1.86h1.15c.33,0,.6.27.6.6s-.27.6-.6.6h-1.15c-.37,0-.64.32-.64.66s.26.66.64.66h2.2v-2.54c0-.6-.42-1.07-1.04-1.07h-1.93c-.33,0-.6-.27-.6-.6s.27-.6.6-.6h1.93c1.27,0,2.27,1.01,2.27,2.26v3.14c0,.34-.21.61-.61.61h-2.81Z"/>
    <path class="cls-2" d="M126.16,209.34c0,.34-.27.61-.61.61s-.61-.27-.61-.6v-.08c0-.6-.44-1.08-1.08-1.08h-1.08v4.29c0,.34-.27.61-.61.61s-.61-.27-.61-.61v-4.88c0-.34.27-.61.61-.61h1.69c1.29,0,2.3,1.03,2.3,2.28v.07Z"/>
    <path class="cls-2" d="M129.88,213c-1.17,0-2.12-.95-2.12-2.12v-2.69h-.71c-.33,0-.6-.27-.6-.6s.27-.6.6-.6h.71v-1.2c0-.34.27-.61.61-.61s.61.27.61.61v1.2h1.58c.33,0,.6.27.6.6s-.27.6-.6.6h-1.58v2.7c0,.51.39.91.91.91h.67c.33,0,.6.27.6.6s-.27.6-.6.6h-.68Z"/>
    <path class="cls-2" d="M21.24,229.08c-1.1,0-1.86-.84-1.86-1.86s.76-1.86,1.86-1.86h1.15c.33,0,.6.27.6.6s-.27.6-.6.6h-1.15c-.37,0-.64.32-.64.66s.26.66.64.66h2.2v-2.54c0-.6-.42-1.07-1.04-1.07h-1.93c-.33,0-.6-.27-.6-.6s.27-.6.6-.6h1.93c1.27,0,2.27,1.01,2.27,2.26v3.14c0,.34-.22.61-.61.61h-2.81Z"/>
    <path class="cls-2" d="M28.7,229.08c-1.81,0-3.1-1.35-3.1-3.01s1.28-3.01,3.1-3.01h1.25c.33,0,.6.27.6.6s-.27.6-.6.6h-1.25c-1.09,0-1.87.82-1.87,1.8s.78,1.8,1.87,1.8h1.25c.33,0,.6.27.6.6s-.27.6-.6.6h-1.25Z"/>
    <path class="cls-2" d="M35.4,225.45c0-.65-.53-1.18-1.18-1.18h-1.54v4.29c0,.34-.27.61-.61.61s-.61-.27-.61-.61v-7.37c0-.34.27-.61.61-.61s.61.27.61.61v1.88h1.54c1.33,0,2.4,1.08,2.4,2.4v3.08c0,.34-.27.61-.61.61s-.61-.27-.61-.61v-3.11Z"/>
    <path class="cls-2" d="M40.45,229.08c-1.17,0-2.12-.95-2.12-2.12v-2.69h-.71c-.33,0-.6-.27-.6-.6s.27-.6.6-.6h.71v-1.2c0-.34.27-.61.61-.61s.61.27.61.61v1.2h1.58c.33,0,.6.27.6.6s-.27.6-.6.6h-1.58v2.7c0,.51.39.91.91.91h.67c.33,0,.6.27.6.6s-.27.6-.6.6h-.68Z"/>
    <path class="cls-2" d="M45.21,229.08c-1.81,0-3.1-1.35-3.1-3.01s1.28-3.01,3.1-3.01h.71c1.15,0,1.91.81,1.91,1.8s-.76,1.8-1.91,1.8h-1.15c-.33,0-.6-.27-.6-.6s.27-.6.6-.6h1.15c.41,0,.68-.27.68-.6s-.27-.6-.68-.6h-.71c-1.09,0-1.87.82-1.87,1.8s.78,1.8,1.87,1.8h1.74c.33,0,.6.27.6.6s-.27.6-.6.6h-1.74Z"/>
    <path class="cls-2" d="M53.37,225.42c0,.34-.27.61-.61.61s-.61-.27-.61-.6v-.08c0-.6-.44-1.08-1.08-1.08h-1.08v4.29c0,.34-.27.61-.61.61s-.61-.27-.61-.61v-4.88c0-.34.27-.61.61-.61h1.69c1.29,0,2.3,1.03,2.3,2.28v.07Z"/>
    <path class="cls-2" d="M55.57,229.08c-1.1,0-1.86-.84-1.86-1.86s.76-1.86,1.86-1.86h1.15c.33,0,.6.27.6.6s-.27.6-.6.6h-1.15c-.37,0-.63.32-.63.66s.26.66.63.66h2.2v-2.54c0-.6-.42-1.07-1.04-1.07h-1.93c-.33,0-.6-.27-.6-.6s.27-.6.6-.6h1.93c1.27,0,2.27,1.01,2.27,2.26v3.14c0,.34-.22.61-.61.61h-2.81Z"/>
    <path class="cls-2" d="M61.81,229.08c-1.1,0-1.86-.84-1.86-1.86s.76-1.86,1.86-1.86h1.15c.33,0,.6.27.6.6s-.27.6-.6.6h-1.15c-.37,0-.63.32-.63.66s.26.66.63.66h2.2v-2.54c0-.6-.42-1.07-1.04-1.07h-1.93c-.33,0-.6-.27-.6-.6s.27-.6.6-.6h1.93c1.27,0,2.27,1.01,2.27,2.26v3.14c0,.34-.22.61-.61.61h-2.81Z"/>
    <path class="cls-2" d="M70.41,225.45c0-.65-.53-1.18-1.18-1.18h-1.54v4.29c0,.34-.27.61-.61.61s-.61-.27-.61-.61v-4.88c0-.34.27-.61.61-.61h2.15c1.33,0,2.4,1.08,2.4,2.4v3.08c0,.34-.27.61-.61.61s-.61-.27-.61-.61v-3.11Z"/>
    <path class="cls-2" d="M75.36,221.18c0-.34.27-.61.61-.61s.61.27.61.61v7.37c0,.34-.27.61-.61.61s-.61-.27-.61-.61v-7.37Z"/>
    <path class="cls-2" d="M80.61,229.08c-1.81,0-3.1-1.35-3.1-3.01s1.28-3.01,3.1-3.01h.71c1.15,0,1.91.81,1.91,1.8s-.76,1.8-1.91,1.8h-1.15c-.33,0-.6-.27-.6-.6s.27-.6.6-.6h1.15c.41,0,.68-.27.68-.6s-.27-.6-.68-.6h-.71c-1.09,0-1.87.82-1.87,1.8s.78,1.8,1.87,1.8h1.74c.33,0,.6.27.6.6s-.27.6-.6.6h-1.74Z"/>
    <path class="cls-2" d="M85.4,231.48c-.33,0-.6-.27-.6-.6s.27-.6.6-.6h2.15c.51,0,.92-.41.92-.92v-.28h-1.4c-1.81,0-3.1-1.35-3.1-3.01s1.28-3.01,3.1-3.01h2.01c.34,0,.61.27.61.61v5.68c0,1.17-.95,2.12-2.12,2.12h-2.18ZM88.48,224.27h-1.4c-1.09,0-1.87.82-1.87,1.8s.78,1.8,1.87,1.8h1.4v-3.61Z"/>
    <path class="cls-2" d="M92.05,231.48c-.33,0-.6-.27-.6-.6s.27-.6.6-.6h2.16c.51,0,.92-.41.92-.92v-.28h-1.39c-1.81,0-3.1-1.35-3.1-3.01s1.28-3.01,3.1-3.01h2.01c.34,0,.61.27.61.61v5.68c0,1.17-.95,2.12-2.12,2.12h-2.18ZM95.13,224.27h-1.39c-1.09,0-1.87.82-1.87,1.8s.78,1.8,1.87,1.8h1.39v-3.61Z"/>
    <path class="cls-2" d="M100.38,229.08c-1.81,0-3.1-1.35-3.1-3.01s1.28-3.01,3.1-3.01h.71c1.15,0,1.91.81,1.91,1.8s-.76,1.8-1.91,1.8h-1.15c-.33,0-.6-.27-.6-.6s.27-.6.6-.6h1.15c.41,0,.68-.27.68-.6s-.27-.6-.68-.6h-.71c-1.09,0-1.87.82-1.87,1.8s.78,1.8,1.87,1.8h1.74c.33,0,.6.27.6.6s-.27.6-.6.6h-1.74Z"/>
    <path class="cls-2" d="M107.88,225.45c0-.65-.53-1.18-1.18-1.18h-1.54v4.29c0,.34-.27.61-.61.61s-.61-.27-.61-.61v-4.88c0-.34.27-.61.61-.61h2.16c1.33,0,2.4,1.08,2.4,2.4v3.08c0,.34-.27.61-.61.61s-.61-.27-.61-.61v-3.11Z"/>
  </g>
</svg>