<?xml version="1.0" encoding="UTF-8"?>
<svg id="Laag_1" data-name="Laag 1" xmlns="http://www.w3.org/2000/svg" viewBox="0 0 164.41 249.45">
  <defs>
    <style>
      .cls-1 {
        stroke: #fff;
        stroke-miterlimit: 10;
        stroke-width: .45px;
      }

      .cls-1, .cls-2, .cls-3 {
        fill: #fff;
      }

      .cls-2 {
        stroke: #1d1d1b;
        stroke-linejoin: round;
        stroke-width: 1.42px;
      }

      .cls-4 {
        fill: #8082b8;
      }

      .cls-4, .cls-5, .cls-6, .cls-7, .cls-3 {
        stroke-width: 0px;
      }

      .cls-5 {
        fill: #2f2f2f;
      }

      .cls-6 {
        fill: #1d1d1b;
      }

      .cls-7 {
        fill: #8abb2a;
      }
    </style>
  </defs>
  <rect class="cls-5" x="0" width="164.41" height="249.45"/>
  <g>
    <path class="cls-4" d="M141.73,206.68c-4.35,0-7.89-3.7-7.89-8.26s3.54-8.25,7.89-8.25,7.89,3.7,7.89,8.25-3.54,8.26-7.89,8.26Z"/>
    <path class="cls-6" d="M141.73,191.17c3.8,0,6.89,3.25,6.89,7.26s-3.09,7.26-6.89,7.26-6.89-3.25-6.89-7.26,3.09-7.26,6.89-7.26M141.73,189.17c-4.91,0-8.89,4.14-8.89,9.26s3.98,9.26,8.89,9.26,8.89-4.14,8.89-9.26-3.98-9.26-8.89-9.26h0Z"/>
  </g>
  <g>
    <ellipse class="cls-7" cx="141.73" cy="226.17" rx="7.89" ry="8.26"/>
    <path class="cls-6" d="M141.73,218.92c3.8,0,6.89,3.25,6.89,7.26s-3.09,7.26-6.89,7.26-6.89-3.25-6.89-7.26,3.09-7.26,6.89-7.26M141.73,216.92c-4.91,0-8.89,4.14-8.89,9.26s3.98,9.26,8.89,9.26,8.89-4.14,8.89-9.26-3.98-9.26-8.89-9.26h0Z"/>
  </g>
  <g>
    <path class="cls-3" d="M54.59,37.76c-.02.35.06.73.24,1.15.18.42.42.8.74,1.15.32.35.7.65,1.14.89.44.24.91.36,1.41.36.2,0,.44-.02.71-.06s.54-.12.79-.25.46-.3.64-.51c.17-.22.26-.5.26-.85,0-.45-.15-.85-.44-1.2s-.64-.66-1.04-.94-.81-.51-1.22-.7c-.42-.19-.75-.35-1-.49-.82-.43-1.5-.87-2.05-1.3-.55-.43-1-.88-1.34-1.32-.34-.45-.59-.93-.74-1.43-.15-.5-.23-1.03-.23-1.6,0-.7.14-1.35.41-1.94.27-.59.67-1.1,1.17-1.54.51-.43,1.13-.77,1.88-1.01.74-.24,1.59-.36,2.54-.36s1.87.13,2.7.4c.83.27,1.5.66,2,1.17.5.52.78,1.14.84,1.88.06.73-.21,1.58-.81,2.53-.05-.53-.22-1-.5-1.39-.28-.39-.62-.7-1.03-.94s-.83-.39-1.29-.46c-.46-.08-.89-.08-1.29-.01-.25.05-.49.12-.73.21-.23.09-.44.22-.62.39-.18.17-.32.37-.42.61-.1.24-.14.52-.12.84.02.33.07.62.16.88s.26.5.5.74c.24.24.57.5.99.76s.97.58,1.65.95c.93.52,1.68,1,2.23,1.46.55.46.97.91,1.26,1.36.29.45.48.9.56,1.35.08.45.12.92.12,1.42,0,.6-.15,1.17-.44,1.7-.29.53-.7,1-1.21,1.4s-1.12.72-1.82.96c-.7.24-1.46.38-2.28.41-1.05.03-2-.13-2.86-.49-.86-.36-1.52-.85-1.99-1.47-.47-.62-.68-1.35-.65-2.16.03-.82.42-1.67,1.17-2.55Z"/>
    <path class="cls-3" d="M76.84,44.54c-.08-1.33-.22-2.69-.41-4.08-.19-1.38-.42-2.71-.69-3.98-.07,1.08-.24,2.14-.51,3.18-.28,1.03-.66,1.93-1.16,2.7-.5.77-1.12,1.36-1.88,1.77-.75.42-1.63.55-2.65.4-.1-1.52-.27-3.06-.51-4.64-.24-1.58-.52-3.06-.82-4.45-.31-1.39-.63-2.62-.97-3.69-.34-1.07-.66-1.86-.96-2.38.7.12,1.38.48,2.03,1.09.65.61,1.24,1.38,1.77,2.32.53.94.99,2.01,1.36,3.2.38,1.19.63,2.42.76,3.69.53-1.48.92-2.93,1.17-4.35.25-1.42.43-2.7.55-3.85.03-.43.03-.81-.01-1.12-.04-.32-.15-.64-.31-.98.83.2,1.59.64,2.26,1.33.67.68,1.26,1.5,1.76,2.46.5.96.91,2,1.22,3.14s.54,2.26.68,3.38c.38-1.07.69-2.14.92-3.21.23-1.08.41-2.09.54-3.04.12-.95.22-1.81.29-2.58.07-.77.12-1.38.17-1.82.37.47.67,1.06.92,1.79.25.73.44,1.51.56,2.36s.18,1.74.16,2.66c-.02.92-.11,1.83-.27,2.71s-.41,1.71-.74,2.49c-.33.77-.73,1.44-1.22,2-.49.56-1.07.98-1.74,1.25s-1.42.35-2.28.24Z"/>
    <path class="cls-3" d="M94.17,42.69c-.7.7-1.43,1.15-2.2,1.36-.77.21-1.48.3-2.15.26-.65-.03-1.26-.2-1.83-.5-.57-.3-1.05-.7-1.46-1.19s-.72-1.06-.94-1.71c-.22-.65-.31-1.34-.27-2.08.03-.65.16-1.29.38-1.91.22-.62.54-1.18.98-1.67.43-.49.99-.88,1.66-1.18.67-.29,1.49-.44,2.44-.44.53,0,1.04.06,1.51.19.48.12.93.35,1.36.66-.05-.7-.35-1.23-.91-1.59-.56-.36-1.23-.6-2-.74-.78-.13-1.58-.17-2.41-.11-.83.06-1.54.16-2.12.31.33-.55.73-1.03,1.19-1.45s.95-.76,1.48-1.04c.52-.27,1.06-.48,1.61-.61.55-.13,1.09-.18,1.62-.15.95.05,1.76.29,2.43.71.67.43,1.21.98,1.64,1.65.43.67.74,1.45.94,2.32.2.88.3,1.8.3,2.76,0,.8-.05,1.61-.16,2.42-.11.82-.28,1.6-.5,2.34-.23.74-.5,1.43-.83,2.06-.32.63-.7,1.18-1.11,1.62-.08-.32-.18-.69-.28-1.11s-.22-.83-.35-1.21ZM89.04,38.49c.02.25.06.5.14.74.08.24.19.46.34.66.15.2.35.37.59.51.24.14.54.25.91.31.43.08.82.07,1.15-.04.33-.11.61-.27.84-.49.23-.22.4-.47.51-.76.12-.29.17-.59.17-.89,0-.4-.05-.77-.15-1.11-.1-.34-.25-.64-.45-.9-.2-.26-.46-.46-.77-.61-.32-.15-.69-.22-1.12-.2-.77.03-1.34.3-1.71.81-.38.51-.52,1.16-.44,1.96Z"/>
    <path class="cls-3" d="M100.09,29.59c.65-.05,1.22.03,1.71.24.49.21.93.5,1.31.89.38-.3.85-.51,1.39-.62.54-.12,1.1-.16,1.69-.12.92.05,1.76.28,2.54.69.77.41,1.45.95,2.01,1.61.57.67,1,1.43,1.31,2.29.31.86.45,1.77.44,2.74-.02.93-.16,1.8-.44,2.59s-.67,1.48-1.19,2.06c-.52.58-1.15,1.05-1.9,1.39-.75.34-1.61.52-2.57.54-.87.02-1.68-.12-2.43-.42-.2.7-.43,1.36-.7,1.99-.27.62-.55,1.18-.85,1.68-.3.49-.62.91-.95,1.26s-.68.6-1.05.75c.05-.43.09-1.15.11-2.14.03-.99.04-2.13.05-3.41,0-1.28,0-2.64-.01-4.06-.02-1.43-.04-2.79-.09-4.09-.04-1.3-.1-2.47-.16-3.51-.07-1.04-.14-1.81-.22-2.31ZM104.19,32.54c.22.58.38,1.22.5,1.91.12.69.18,1.41.2,2.16.02.75-.01,1.52-.09,2.31-.08.79-.19,1.57-.34,2.34.17-.02.33-.03.49-.05.16-.02.32-.05.49-.1,1.77-.43,2.62-1.74,2.58-3.92-.02-.55-.11-1.09-.26-1.62-.16-.53-.38-1.01-.67-1.43-.29-.42-.64-.77-1.04-1.05-.4-.28-.85-.45-1.35-.5-.08-.02-.17-.02-.25-.02s-.17,0-.25-.02Z"/>
  </g>
  <g>
    <path class="cls-1" d="M22.99,192.09c-.1-.11-.16-.25-.16-.4,0-.33.27-.6.6-.6h1.23c.53,0,.87-.38.87-.86s-.34-.87-.87-.87h-2.45v5.26c0,.33-.27.6-.6.6s-.6-.27-.6-.6v-5.82c0-.33.27-.6.6-.6h3.06c1.19,0,2.06.9,2.06,2.03s-.84,1.99-2.02,2l1.81,1.99c.22.24.21.62-.04.84-.24.22-.62.2-.84-.04l-2.65-2.93Z"/>
    <path class="cls-1" d="M31.56,189.86c0-.33.26-.59.59-.59s.59.26.59.59v2.92c0,1.37-1.12,2.5-2.5,2.5s-2.49-1.12-2.49-2.5v-2.92c0-.33.26-.59.59-.59s.59.26.59.59v2.95c0,.72.6,1.32,1.32,1.32s1.32-.6,1.32-1.32v-2.95Z"/>
    <path class="cls-1" d="M34.51,188.4c-.4,0-.73-.32-.73-.72s.33-.72.73-.72.73.32.73.72-.33.72-.73.72ZM33.92,189.86c0-.33.26-.59.59-.59s.59.26.59.59v4.77c0,.33-.26.59-.59.59s-.59-.26-.59-.59v-4.77Z"/>
    <path class="cls-1" d="M36.27,187.55c0-.33.26-.59.59-.59s.59.26.59.59v7.08c0,.33-.26.59-.59.59s-.59-.26-.59-.59v-7.08Z"/>
    <path class="cls-1" d="M39.45,197.44c-.32,0-.58-.26-.58-.58s.26-.58.58-.58h.23c.98,0,1.35-.51,1.35-1.48v-4.95c0-.33.26-.59.59-.59s.59.26.59.59v4.93c0,1.62-.83,2.65-2.52,2.65h-.24ZM41.62,188.4c-.4,0-.73-.32-.73-.72s.33-.72.73-.72.73.32.73.72-.33.72-.73.72Z"/>
    <path class="cls-1" d="M46.16,195.27c-1.8,0-3.06-1.35-3.06-3.03s1.26-3.03,3.06-3.03,3.06,1.35,3.06,3.03-1.28,3.03-3.06,3.03ZM46.16,190.36c-1.09,0-1.88.85-1.88,1.88s.79,1.88,1.88,1.88,1.88-.85,1.88-1.88-.8-1.88-1.88-1.88Z"/>
    <path class="cls-1" d="M53.93,189.86c0-.33.26-.59.59-.59s.59.26.59.59v2.92c0,1.37-1.12,2.5-2.5,2.5s-2.5-1.12-2.5-2.5v-2.92c0-.33.26-.59.59-.59s.59.26.59.59v2.95c0,.72.6,1.32,1.32,1.32s1.32-.6,1.32-1.32v-2.95Z"/>
    <path class="cls-1" d="M62.95,189.86c0-.33.26-.59.59-.59s.59.26.59.59v3.2c0,1.22-.99,2.21-2.21,2.21-.69,0-1.31-.32-1.71-.81-.4.49-1.02.81-1.71.81-1.22,0-2.21-.99-2.21-2.21v-3.2c0-.33.26-.59.59-.59s.59.26.59.59v3.22c0,.59.49,1.08,1.08,1.08s1.08-.49,1.08-1.08v-3.22c0-.33.26-.59.59-.59s.59.26.59.59v3.22c0,.59.49,1.08,1.08,1.08s1.08-.49,1.08-1.08v-3.22Z"/>
    <path class="cls-1" d="M70.4,195.13c-1.74,0-2.97-1.3-2.97-2.89s1.23-2.89,2.97-2.89h1.34v-1.81c0-.33.26-.59.59-.59s.59.26.59.59v6.99c0,.33-.26.59-.59.59h-1.93ZM71.74,190.51h-1.34c-1.05,0-1.8.78-1.8,1.73s.75,1.73,1.8,1.73h1.34v-3.46Z"/>
    <path class="cls-1" d="M76.79,195.13c-1.74,0-2.97-1.3-2.97-2.89s1.23-2.89,2.97-2.89h.69c1.1,0,1.83.77,1.83,1.73s-.73,1.73-1.83,1.73h-1.1c-.32,0-.58-.26-.58-.58s.26-.58.58-.58h1.1c.39,0,.65-.26.65-.58s-.26-.58-.65-.58h-.69c-1.05,0-1.8.78-1.8,1.73s.75,1.73,1.8,1.73h1.67c.32,0,.58.26.58.58s-.26.58-.58.58h-1.67Z"/>
    <path class="cls-1" d="M81.38,192.35v2.28c0,.33-.26.59-.59.59s-.59-.26-.59-.59v-7.08c0-.33.26-.59.59-.59s.59.26.59.59v4.59l2.69-2.69c.23-.23.59-.23.82,0,.22.23.22.59,0,.82l-1.98,1.98,1.98,1.98c.23.23.22.59,0,.82-.23.23-.59.23-.82,0l-2.69-2.69Z"/>
    <path class="cls-1" d="M94.87,191.64c0-.62-.51-1.13-1.13-1.13h-1.04v4.12c0,.33-.26.59-.59.59s-.59-.26-.59-.59v-4.12h-2.15v4.12c0,.33-.26.59-.59.59s-.59-.26-.59-.59v-4.68c0-.33.26-.59.59-.59h4.95c1.27,0,2.31,1.04,2.31,2.31v2.96c0,.33-.26.59-.59.59s-.59-.26-.59-.59v-2.98Z"/>
    <path class="cls-1" d="M99.92,195.13c-1.74,0-2.97-1.3-2.97-2.89s1.23-2.89,2.97-2.89h.69c1.1,0,1.83.77,1.83,1.73s-.73,1.73-1.83,1.73h-1.1c-.32,0-.58-.26-.58-.58s.26-.58.58-.58h1.1c.39,0,.65-.26.65-.58s-.26-.58-.65-.58h-.69c-1.04,0-1.8.78-1.8,1.73s.75,1.73,1.8,1.73h1.67c.32,0,.58.26.58.58s-.26.58-.58.58h-1.67Z"/>
    <path class="cls-1" d="M106.15,195.13c-1.12,0-2.04-.92-2.04-2.04v-2.58h-.69c-.32,0-.58-.26-.58-.58s.26-.58.58-.58h.69v-1.15c0-.33.26-.59.59-.59s.59.26.59.59v1.15h1.52c.32,0,.58.26.58.58s-.26.58-.58.58h-1.52v2.59c0,.49.37.87.87.87h.64c.32,0,.58.26.58.58s-.26.58-.58.58h-.65Z"/>
    <path class="cls-1" d="M114.38,191.64c0-.62-.51-1.13-1.13-1.13h-1.48v4.12c0,.33-.26.59-.59.59s-.59-.26-.59-.59v-7.08c0-.33.26-.59.59-.59s.59.26.59.59v1.81h1.48c1.27,0,2.31,1.04,2.31,2.31v2.96c0,.33-.26.59-.59.59s-.59-.26-.59-.59v-2.98Z"/>
    <path class="cls-1" d="M119.43,195.13c-1.74,0-2.98-1.3-2.98-2.89s1.23-2.89,2.98-2.89h.68c1.1,0,1.83.77,1.83,1.73s-.73,1.73-1.83,1.73h-1.1c-.32,0-.58-.26-.58-.58s.26-.58.58-.58h1.1c.39,0,.65-.26.65-.58s-.26-.58-.65-.58h-.68c-1.05,0-1.8.78-1.8,1.73s.75,1.73,1.8,1.73h1.67c.32,0,.58.26.58.58s-.26.58-.58.58h-1.67Z"/>
    <path class="cls-1" d="M125.66,195.13c-1.12,0-2.04-.92-2.04-2.04v-2.58h-.68c-.32,0-.58-.26-.58-.58s.26-.58.58-.58h.68v-1.15c0-.33.26-.59.59-.59s.59.26.59.59v1.15h1.51c.32,0,.58.26.58.58s-.26.58-.58.58h-1.51v2.59c0,.49.37.87.87.87h.64c.32,0,.58.26.58.58s-.26.58-.58.58h-.65Z"/>
    <path class="cls-1" d="M23.68,210.57c-1.74,0-2.97-1.3-2.97-2.89s1.23-2.89,2.97-2.89h1.34v-1.81c0-.33.26-.59.59-.59s.59.26.59.59v6.99c0,.33-.26.59-.59.59h-1.93ZM25.02,205.95h-1.34c-1.05,0-1.8.78-1.8,1.73s.75,1.73,1.8,1.73h1.34v-3.46Z"/>
    <path class="cls-1" d="M30.07,210.57c-1.74,0-2.97-1.3-2.97-2.89s1.23-2.89,2.97-2.89h.69c1.1,0,1.83.77,1.83,1.73s-.73,1.73-1.83,1.73h-1.1c-.32,0-.58-.26-.58-.58s.26-.58.58-.58h1.1c.39,0,.65-.26.65-.58s-.26-.58-.65-.58h-.69c-1.05,0-1.8.78-1.8,1.73s.75,1.73,1.8,1.73h1.67c.32,0,.58.26.58.58s-.26.58-.58.58h-1.67Z"/>
    <path class="cls-1" d="M34.66,207.79v2.28c0,.33-.26.59-.59.59s-.59-.26-.59-.59v-7.08c0-.33.26-.59.59-.59s.59.26.59.59v4.59l2.69-2.69c.23-.23.59-.23.82,0,.22.23.22.59,0,.82l-1.98,1.98,1.98,1.98c.23.23.22.59,0,.82-.23.23-.59.23-.82,0l-2.69-2.69Z"/>
    <path class="cls-1" d="M41.11,205.54c-.13-.29,0-.64.29-.77.29-.14.64,0,.77.29l1.7,3.92,1.7-3.92c.13-.29.48-.44.77-.29.29.13.43.48.29.77l-2.11,4.71c-.11.25-.34.42-.65.42s-.54-.17-.65-.42l-2.11-4.71Z"/>
    <path class="cls-1" d="M48.98,210.57c-1.06,0-1.79-.81-1.79-1.79s.73-1.79,1.79-1.79h1.1c.32,0,.58.26.58.58s-.26.58-.58.58h-1.1c-.36,0-.61.3-.61.63s.25.63.61.63h2.11v-2.44c0-.58-.4-1.02-1-1.02h-1.85c-.32,0-.58-.26-.58-.58s.26-.58.58-.58h1.85c1.22,0,2.18.97,2.18,2.17v3.02c0,.33-.21.59-.59.59h-2.7Z"/>
    <path class="cls-1" d="M57.24,207.08c0-.62-.51-1.13-1.13-1.13h-1.48v4.12c0,.33-.26.59-.59.59s-.59-.26-.59-.59v-4.68c0-.33.26-.59.59-.59h2.07c1.27,0,2.31,1.04,2.31,2.31v2.96c0,.33-.26.59-.59.59s-.59-.26-.59-.59v-2.98Z"/>
    <path class="cls-1" d="M64.69,210.57c-1.74,0-2.97-1.3-2.97-2.89s1.23-2.89,2.97-2.89h.69c1.1,0,1.83.77,1.83,1.73s-.73,1.73-1.83,1.73h-1.1c-.32,0-.58-.26-.58-.58s.26-.58.58-.58h1.1c.39,0,.65-.26.65-.58s-.26-.58-.65-.58h-.69c-1.05,0-1.8.78-1.8,1.73s.75,1.73,1.8,1.73h1.67c.32,0,.58.26.58.58s-.26.58-.58.58h-1.67Z"/>
    <path class="cls-1" d="M70.9,210.57c-1.74,0-2.97-1.3-2.97-2.89s1.23-2.89,2.97-2.89h.69c1.1,0,1.83.77,1.83,1.73s-.73,1.73-1.83,1.73h-1.1c-.32,0-.58-.26-.58-.58s.26-.58.58-.58h1.1c.39,0,.65-.26.65-.58s-.26-.58-.65-.58h-.69c-1.05,0-1.8.78-1.8,1.73s.75,1.73,1.8,1.73h1.67c.32,0,.58.26.58.58s-.26.58-.58.58h-1.67Z"/>
    <path class="cls-1" d="M78.11,207.08c0-.62-.51-1.13-1.13-1.13h-1.48v4.12c0,.33-.26.59-.59.59s-.59-.26-.59-.59v-4.68c0-.33.26-.59.59-.59h2.07c1.27,0,2.31,1.04,2.31,2.31v2.96c0,.33-.26.59-.59.59s-.59-.26-.59-.59v-2.98Z"/>
    <path class="cls-1" d="M84.04,210.57v1.81c0,.33-.26.59-.59.59s-.59-.26-.59-.59v-6.99c0-.33.26-.59.59-.59h1.93c1.74,0,2.97,1.3,2.97,2.89s-1.23,2.89-2.97,2.89h-1.34ZM85.38,209.41c1.05,0,1.8-.78,1.8-1.73s-.75-1.73-1.8-1.73h-1.34v3.46h1.34Z"/>
    <path class="cls-1" d="M92.05,210.57c-1.74,0-2.97-1.3-2.97-2.89s1.23-2.89,2.97-2.89h.69c1.1,0,1.83.77,1.83,1.73s-.73,1.73-1.83,1.73h-1.1c-.32,0-.58-.26-.58-.58s.26-.58.58-.58h1.1c.39,0,.65-.26.65-.58s-.26-.58-.65-.58h-.69c-1.04,0-1.8.78-1.8,1.73s.75,1.73,1.8,1.73h1.67c.32,0,.58.26.58.58s-.26.58-.58.58h-1.67Z"/>
    <path class="cls-1" d="M99.88,207.05c0,.33-.26.59-.59.59s-.59-.26-.59-.58v-.08c0-.58-.43-1.03-1.04-1.03h-1.03v4.12c0,.33-.26.59-.59.59s-.59-.26-.59-.59v-4.68c0-.33.26-.59.59-.59h1.62c1.24,0,2.21.99,2.21,2.19v.07Z"/>
    <path class="cls-1" d="M101.26,210.57c-.32,0-.58-.26-.58-.58s.26-.58.58-.58h2.44c.39,0,.65-.26.65-.58s-.26-.58-.65-.58h-1.35c-1.1,0-1.83-.77-1.83-1.73s.73-1.73,1.83-1.73h2.44c.32,0,.58.26.58.58s-.26.58-.58.58h-2.44c-.39,0-.65.26-.65.58s.26.58.65.58h1.35c1.1,0,1.83.77,1.83,1.73s-.73,1.73-1.83,1.73h-2.44Z"/>
    <path class="cls-1" d="M109.2,210.71c-1.8,0-3.06-1.35-3.06-3.03s1.26-3.03,3.06-3.03,3.06,1.35,3.06,3.03-1.27,3.03-3.06,3.03ZM109.2,205.8c-1.09,0-1.89.85-1.89,1.88s.8,1.88,1.89,1.88,1.88-.85,1.88-1.88-.79-1.88-1.88-1.88Z"/>
    <path class="cls-1" d="M116.05,210.71c-1.8,0-3.06-1.35-3.06-3.03s1.26-3.03,3.06-3.03,3.06,1.35,3.06,3.03-1.28,3.03-3.06,3.03ZM116.05,205.8c-1.09,0-1.88.85-1.88,1.88s.79,1.88,1.88,1.88,1.89-.85,1.89-1.88-.8-1.88-1.89-1.88Z"/>
    <path class="cls-1" d="M123.8,207.08c0-.62-.51-1.13-1.13-1.13h-1.48v4.12c0,.33-.26.59-.59.59s-.59-.26-.59-.59v-4.68c0-.33.26-.59.59-.59h2.07c1.27,0,2.31,1.04,2.31,2.31v2.96c0,.33-.26.59-.59.59s-.59-.26-.59-.59v-2.98Z"/>
    <path class="cls-1" d="M24.79,222.52c0-.62-.51-1.13-1.13-1.13h-1.48v4.12c0,.33-.26.59-.59.59s-.59-.26-.59-.59v-4.68c0-.33.26-.59.59-.59h2.07c1.27,0,2.31,1.04,2.31,2.31v2.96c0,.33-.26.59-.59.59s-.59-.26-.59-.59v-2.98Z"/>
    <path class="cls-1" d="M28.67,226.01c-1.06,0-1.79-.81-1.79-1.79s.73-1.79,1.79-1.79h1.1c.32,0,.58.26.58.58s-.26.58-.58.58h-1.1c-.36,0-.61.3-.61.63s.25.63.61.63h2.11v-2.44c0-.58-.4-1.02-1-1.02h-1.85c-.32,0-.58-.26-.58-.58s.26-.58.58-.58h1.85c1.22,0,2.18.97,2.18,2.17v3.02c0,.33-.21.59-.59.59h-2.7Z"/>
    <path class="cls-1" d="M34.66,226.01c-1.06,0-1.79-.81-1.79-1.79s.73-1.79,1.79-1.79h1.1c.32,0,.58.26.58.58s-.26.58-.58.58h-1.1c-.36,0-.61.3-.61.63s.25.63.61.63h2.11v-2.44c0-.58-.4-1.02-1-1.02h-1.85c-.32,0-.58-.26-.58-.58s.26-.58.58-.58h1.85c1.22,0,2.18.97,2.18,2.17v3.02c0,.33-.21.59-.59.59h-2.7Z"/>
    <path class="cls-1" d="M43.55,222.49c0,.33-.26.59-.59.59s-.59-.26-.59-.58v-.08c0-.58-.42-1.03-1.03-1.03h-1.04v4.12c0,.33-.26.59-.59.59s-.59-.26-.59-.59v-4.68c0-.33.26-.59.59-.59h1.62c1.24,0,2.21.99,2.21,2.19v.07Z"/>
    <path class="cls-1" d="M48.05,223.23v2.28c0,.33-.26.59-.59.59s-.59-.26-.59-.59v-7.08c0-.33.26-.59.59-.59s.59.26.59.59v4.59l2.69-2.69c.23-.23.59-.23.82,0,.22.23.22.59,0,.82l-1.98,1.98,1.98,1.98c.23.23.22.59,0,.82-.23.23-.59.23-.82,0l-2.69-2.69Z"/>
    <path class="cls-1" d="M54.84,226.01c-1.74,0-2.97-1.3-2.97-2.89s1.23-2.89,2.97-2.89h.69c1.1,0,1.83.77,1.83,1.73s-.73,1.73-1.83,1.73h-1.1c-.32,0-.58-.26-.58-.58s.26-.58.58-.58h1.1c.39,0,.65-.26.65-.58s-.26-.58-.65-.58h-.69c-1.05,0-1.8.78-1.8,1.73s.75,1.73,1.8,1.73h1.67c.32,0,.58.26.58.58s-.26.58-.58.58h-1.67Z"/>
    <path class="cls-1" d="M62.06,220.74c0-.33.26-.59.59-.59s.59.26.59.59v2.92c0,1.37-1.12,2.5-2.49,2.5s-2.5-1.12-2.5-2.5v-2.92c0-.33.26-.59.59-.59s.59.26.59.59v2.95c0,.72.6,1.32,1.32,1.32s1.32-.6,1.32-1.32v-2.95Z"/>
    <path class="cls-1" d="M64.79,226.01c-.32,0-.58-.25-.58-.57,0-.13.05-.29.17-.44l2.97-3.62h-2.47c-.32,0-.58-.26-.58-.58s.26-.58.58-.58h3.66c.32,0,.57.25.57.57,0,.14-.05.29-.17.44l-2.97,3.62h2.46c.32,0,.58.26.58.58s-.26.58-.58.58h-3.64Z"/>
    <path class="cls-1" d="M72.34,226.01c-1.74,0-2.97-1.3-2.97-2.89s1.23-2.89,2.97-2.89h.69c1.1,0,1.83.77,1.83,1.73s-.73,1.73-1.83,1.73h-1.1c-.32,0-.58-.26-.58-.58s.26-.58.58-.58h1.1c.39,0,.65-.26.65-.58s-.26-.58-.65-.58h-.69c-1.05,0-1.8.78-1.8,1.73s.75,1.73,1.8,1.73h1.67c.32,0,.58.26.58.58s-.26.58-.58.58h-1.67Z"/>
  </g>
  <g>
    <path class="cls-2" d="M101.61,86.28v-1.61c4.46.43,8,4.34,8.31,9.21h3.42c-.32-6.92-5.39-12.49-11.74-12.93v-1.54c0-1.33-1.33-2.16-2.39-1.5l-5.48,3.44c-1.06.67-1.06,2.33,0,2.99l5.48,3.44c1.06.67,2.39-.17,2.39-1.5Z"/>
    <g>
      <path class="cls-3" d="M94.32,114.03h14.01c5.61,0,10.16,4.55,10.16,10.16v28.03c0,5.61-4.55,10.16-10.16,10.16h-14.01c-5.61,0-10.16-4.55-10.16-10.16v-28.03c0-5.61,4.55-10.16,10.16-10.16Z"/>
      <path class="cls-6" d="M108.33,115.29c4.91,0,8.9,3.99,8.9,8.9v28.03c0,4.91-3.99,8.9-8.9,8.9h-14.01c-4.91,0-8.9-3.99-8.9-8.9v-28.03c0-4.91,3.99-8.9,8.9-8.9h14.01M108.33,112.77h-14.01c-6.28,0-11.42,5.14-11.42,11.42v28.03c0,6.28,5.14,11.42,11.42,11.42h14.01c6.28,0,11.42-5.14,11.42-11.42v-28.03c0-6.28-5.14-11.42-11.42-11.42h0Z"/>
    </g>
    <g>
      <path class="cls-3" d="M112.48,163.14c-.41,0-.83-.03-1.25-.08l-13.9-1.72c-5.56-.69-9.52-5.77-8.83-11.33l3.45-27.82c.63-5.08,4.96-8.91,10.08-8.91.42,0,.83.03,1.25.08l13.9,1.72c5.56.69,9.52,5.77,8.83,11.33l-3.45,27.82c-.63,5.08-4.96,8.91-10.08,8.91Z"/>
      <path class="cls-6" d="M102.03,114.54h0c.36,0,.73.02,1.09.07l13.9,1.72c2.35.29,4.45,1.49,5.91,3.37,1.47,1.88,2.11,4.21,1.82,6.56l-3.45,27.82c-.55,4.45-4.35,7.81-8.83,7.81-.36,0-.73-.02-1.09-.07l-13.9-1.72c-2.35-.29-4.45-1.49-5.91-3.37-1.47-1.88-2.11-4.21-1.82-6.56l3.45-27.82c.55-4.45,4.35-7.81,8.83-7.81M102.03,112.02c-5.67,0-10.62,4.25-11.34,10.02l-3.45,27.82c-.77,6.23,3.7,11.97,9.93,12.74l13.9,1.72c.47.06.94.09,1.4.09,5.67,0,10.62-4.25,11.34-10.02l3.45-27.82c.77-6.23-3.7-11.97-9.93-12.74l-13.9-1.72c-.47-.06-.94-.09-1.4-.09h0Z"/>
    </g>
    <g>
      <path class="cls-3" d="M118.87,167.11c-.81,0-1.62-.1-2.41-.29l-13.6-3.34c-2.62-.64-4.84-2.28-6.26-4.61-1.41-2.33-1.83-5.06-1.19-7.68l6.69-27.22c1.12-4.56,5.18-7.74,9.88-7.74.81,0,1.62.1,2.41.29l13.6,3.34c5.44,1.34,8.78,6.85,7.44,12.29l-6.69,27.22c-1.12,4.56-5.18,7.74-9.88,7.74Z"/>
      <path class="cls-6" d="M111.98,117.49h0c.71,0,1.42.09,2.11.26l13.6,3.34c2.3.56,4.24,2,5.48,4.04,1.24,2.04,1.61,4.43,1.04,6.73l-6.69,27.22c-.98,3.99-4.54,6.78-8.66,6.78-.71,0-1.42-.09-2.11-.26l-13.6-3.34c-4.77-1.17-7.69-6-6.52-10.77l6.69-27.22c.98-3.99,4.54-6.78,8.66-6.78M111.98,114.97c-5.13,0-9.83,3.5-11.11,8.7l-6.69,27.22c-1.5,6.1,2.27,12.32,8.37,13.82l13.6,3.34c.91.22,1.81.33,2.71.33,5.13,0,9.83-3.5,11.11-8.7l6.69-27.22c1.5-6.1-2.27-12.32-8.37-13.82l-13.6-3.34c-.91-.22-1.81-.33-2.71-.33h0Z"/>
    </g>
    <path class="cls-2" d="M68.93,137.71v1.61c-4.46-.43-8-4.34-8.31-9.21h-3.42c.32,6.92,5.39,12.49,11.74,12.93v1.54c0,1.33,1.33,2.16,2.39,1.5l5.48-3.44c1.06-.67,1.06-2.33,0-2.99l-5.48-3.44c-1.06-.67-2.39.17-2.39,1.5Z"/>
    <g>
      <path class="cls-3" d="M45.27,116.94c-4.67,0-8.84-3.29-9.91-7.83l-6.42-27.29c-.62-2.63-.17-5.35,1.26-7.67,1.43-2.31,3.67-3.93,6.3-4.55l13.64-3.21c.76-.18,1.54-.27,2.31-.27,4.67,0,8.84,3.29,9.91,7.83l6.42,27.29c1.28,5.45-2.11,10.93-7.57,12.22l-13.64,3.21c-.76.18-1.54.27-2.31.27Z"/>
      <path class="cls-6" d="M52.46,67.39c4.09,0,7.74,2.89,8.68,6.86l6.42,27.28c1.12,4.78-1.85,9.58-6.63,10.7l-13.64,3.21c-.67.16-1.35.24-2.02.24-4.09,0-7.74-2.89-8.68-6.86l-6.42-27.28c-1.12-4.78,1.85-9.58,6.63-10.7l13.64-3.21c.67-.16,1.35-.24,2.02-.24M52.46,64.87c-.86,0-1.73.1-2.6.3l-13.64,3.21c-6.11,1.44-9.94,7.62-8.5,13.73l6.42,27.29c1.23,5.25,5.95,8.81,11.13,8.81.86,0,1.73-.1,2.6-.3l13.64-3.21c6.11-1.44,9.94-7.62,8.5-13.73l-6.42-27.29c-1.23-5.25-5.95-8.81-11.13-8.81h0Z"/>
    </g>
    <g>
      <path class="cls-3" d="M49.18,115.02c-5.2,0-9.54-3.9-10.1-9.07l-3.01-27.87c-.29-2.69.49-5.33,2.2-7.45,1.71-2.12,4.13-3.45,6.81-3.74l13.93-1.5c.37-.04.73-.06,1.09-.06,5.2,0,9.54,3.9,10.1,9.07l3.01,27.87c.6,5.57-3.44,10.59-9.01,11.19l-13.93,1.5c-.37.04-.73.06-1.09.06Z"/>
      <path class="cls-6" d="M60.09,66.59c4.48,0,8.37,3.49,8.85,7.94l3.01,27.87c.25,2.35-.43,4.67-1.93,6.53-1.5,1.86-3.62,3.02-5.97,3.28l-13.93,1.5c-.32.03-.64.05-.96.05-4.56,0-8.36-3.42-8.85-7.94l-3.01-27.87c-.25-2.35.43-4.67,1.93-6.53,1.5-1.86,3.62-3.02,5.97-3.28l13.93-1.5c.32-.03.64-.05.96-.05M60.09,64.07c-.41,0-.81.02-1.23.07l-13.93,1.5c-6.25.67-10.8,6.34-10.13,12.58l3.01,27.87c.63,5.83,5.61,10.19,11.35,10.19.41,0,.81-.02,1.23-.07l13.93-1.5c6.25-.67,10.8-6.34,10.13-12.58l-3.01-27.87c-.63-5.83-5.61-10.19-11.35-10.19h0Z"/>
    </g>
    <g>
      <path class="cls-3" d="M56.14,115.78c-5.6-.06-10.12-4.66-10.06-10.26l.28-28.03c.06-5.55,4.61-10.06,10.16-10.06l14.11.14c5.6.06,10.12,4.66,10.06,10.26l-.28,28.03c-.06,5.55-4.61,10.06-10.16,10.06l-14.11-.14Z"/>
      <path class="cls-6" d="M56.52,68.69h.09s14.01.14,14.01.14c4.91.05,8.86,4.08,8.81,8.99l-.28,28.03c-.05,4.86-4.04,8.81-8.9,8.81h-.09s-14.01-.14-14.01-.14c-4.91-.05-8.86-4.08-8.81-8.99l.28-28.03c.05-4.86,4.04-8.81,8.9-8.81M56.52,66.17c-6.23,0-11.36,5.06-11.42,11.31l-.28,28.03c-.06,6.28,5.03,11.47,11.31,11.53l14.01.14s.08,0,.11,0c6.23,0,11.36-5.06,11.42-11.31l.28-28.03c.06-6.28-5.03-11.47-11.31-11.53l-14.01-.14s-.08,0-.11,0h0Z"/>
    </g>
  </g>
</svg>