<?xml version="1.0" encoding="UTF-8"?>
<svg id="Laag_1" data-name="Laag 1" xmlns="http://www.w3.org/2000/svg" viewBox="0 0 164.41 249.45">
  <defs>
    <style>
      .cls-1 {
        stroke: #fff;
        stroke-miterlimit: 10;
        stroke-width: .48px;
      }

      .cls-1, .cls-2 {
        fill: #fff;
      }

      .cls-3 {
        fill: #2f2f2f;
      }

      .cls-3, .cls-4, .cls-5, .cls-6, .cls-2, .cls-7 {
        stroke-width: 0px;
      }

      .cls-4 {
        fill: #1d1d1b;
      }

      .cls-5 {
        fill: #1d1d1d;
      }

      .cls-6 {
        fill: #de2b65;
      }

      .cls-7 {
        fill: #eb7c19;
      }
    </style>
  </defs>
  <rect class="cls-3" x="0" y="0" width="164.41" height="249.45"/>
  <g>
    <path class="cls-6" d="M141.74,206.68c-4.35,0-7.89-3.7-7.89-8.26s3.54-8.25,7.89-8.25,7.89,3.7,7.89,8.25-3.54,8.26-7.89,8.26Z"/>
    <path class="cls-4" d="M141.74,191.17c3.8,0,6.89,3.25,6.89,7.26s-3.09,7.26-6.89,7.26-6.89-3.25-6.89-7.26,3.09-7.26,6.89-7.26M141.74,189.17c-4.91,0-8.89,4.14-8.89,9.26s3.98,9.26,8.89,9.26,8.89-4.14,8.89-9.26-3.98-9.26-8.89-9.26h0Z"/>
  </g>
  <g>
    <ellipse class="cls-7" cx="141.74" cy="226.17" rx="7.89" ry="8.26"/>
    <path class="cls-4" d="M141.74,218.92c3.8,0,6.89,3.25,6.89,7.26s-3.09,7.26-6.89,7.26-6.89-3.25-6.89-7.26,3.09-7.26,6.89-7.26M141.74,216.92c-4.91,0-8.89,4.14-8.89,9.26s3.98,9.26,8.89,9.26,8.89-4.14,8.89-9.26-3.98-9.26-8.89-9.26h0Z"/>
  </g>
  <g>
    <path class="cls-2" d="M29.3,34.46c0-1.05-.03-1.88-.08-2.49s-.15-1.08-.29-1.4c-.14-.31-.35-.51-.61-.59-.27-.08-.62-.11-1.06-.1.3-.44.6-.8.89-1.05s.58-.46.85-.6c.27-.14.53-.24.76-.28.24-.04.45-.06.63-.06.69,0,1.2.13,1.55.38.34.25.59.6.73,1.05.14.45.21.98.21,1.58v1.96c0,.67-.01,1.4-.04,2.17-.03.77-.1,1.54-.21,2.3-.12.76-.29,1.49-.53,2.18-.24.7-.56,1.31-.97,1.85-.41.54-.93.96-1.56,1.28-.63.32-1.39.47-2.28.47-1.18,0-2.12-.2-2.85-.59-.72-.39-1.28-.95-1.68-1.66-.39-.71-.66-1.55-.8-2.51-.14-.97-.2-2.02-.2-3.17,0-.67-.01-1.36-.03-2.06-.02-.7-.1-1.32-.25-1.86-.14-.54-.37-.95-.67-1.22-.3-.28-.72-.33-1.25-.14.3-.44.6-.8.89-1.05.29-.26.58-.46.85-.6.27-.14.53-.24.76-.28.24-.04.45-.06.63-.06.69,0,1.22.13,1.59.38s.64.6.82,1.05c.17.45.27.98.29,1.58.02.6.02,1.25.01,1.96-.03.85-.04,1.71-.04,2.59s.05,1.68.16,2.4c.11.72.29,1.3.55,1.76s.64.69,1.14.69c.4,0,.73-.15,1-.44.27-.29.48-.7.63-1.22.16-.52.27-1.14.33-1.85.06-.71.1-1.48.1-2.31Z"/>
    <path class="cls-2" d="M47.38,41.66c-.24.36-.49.64-.73.86s-.48.38-.7.49c-.22.12-.43.19-.62.23-.19.04-.37.05-.53.05-.56,0-1.01-.1-1.37-.3-.35-.2-.62-.48-.82-.84-.19-.36-.32-.79-.39-1.29-.06-.5-.1-1.05-.12-1.63v-.78c0-.35,0-.75.01-1.2,0-.45.01-.94.01-1.46s0-1.05-.02-1.58c-.01-.5-.1-.84-.26-1.01-.16-.17-.49-.26-1.01-.26-.26,0-.5.01-.74.03-.24.02-.48.05-.72.08.14.6.21,1.25.2,1.93,0,.69-.07,1.38-.19,2.08s-.3,1.39-.54,2.06c-.24.67-.52,1.29-.84,1.85-.32.56-.67,1.04-1.05,1.45-.38.41-.78.7-1.21.87.04-.37.08-.9.1-1.58.02-.68.04-1.44.04-2.28,0-.84,0-1.72-.01-2.64s-.04-1.82-.08-2.68-.08-1.65-.14-2.38c-.06-.72-.12-1.3-.19-1.73.82-.07,1.5.04,2.04.33.54.29.98.71,1.31,1.24.54-.34,1.14-.61,1.78-.8s1.29-.28,1.93-.28c.6,0,1.09.08,1.46.23.37.15.66.37.87.64.21.28.35.62.42,1.03.07.41.11.87.11,1.39,0,1.23,0,2.29.01,3.16,0,.87.03,1.61.08,2.19.04.59.1,1.05.18,1.4.08.34.19.6.33.76.14.16.33.27.55.31s.5.06.83.04Z"/>
    <path class="cls-2" d="M54.77,27.79c.83-.06,1.52.1,2.07.46s.99.88,1.31,1.55.54,1.44.64,2.31.13,1.79.05,2.74c-.07.95-.22,1.9-.44,2.84-.22.94-.5,1.81-.84,2.6s-.72,1.48-1.15,2.05c-.43.57-.89.96-1.38,1.16.01-.12.03-.24.03-.39,0-.14.02-.31.03-.52-.6.24-1.27.35-2,.32-.83-.01-1.57-.17-2.21-.46-.64-.29-1.19-.69-1.63-1.19-.44-.5-.78-1.09-1.02-1.77-.24-.68-.36-1.42-.38-2.22-.01-.83.11-1.62.38-2.35.26-.74.64-1.39,1.12-1.97.48-.57,1.06-1.03,1.73-1.39.67-.35,1.4-.55,2.19-.59.31-.01.62,0,.91.02s.58.09.85.17c-.03-.75-.07-1.41-.12-2s-.1-1.05-.16-1.38ZM55.16,40.69c.03-1.07.04-2.27.02-3.6-.01-1.32-.04-2.63-.06-3.9-.09,0-.17,0-.26.01-.09,0-.18.02-.28.03-.43.04-.82.19-1.16.43-.34.24-.64.54-.89.9-.25.36-.44.77-.58,1.23s-.21.92-.23,1.4c-.04,1.88.7,3,2.21,3.37.42.12.82.16,1.22.13Z"/>
    <path class="cls-2" d="M72.12,38.41c-.59.09-1.12.16-1.6.23-.48.06-.97.11-1.47.15s-1.05.06-1.65.07c-.6.02-1.31.02-2.13.02.1.92.6,1.6,1.49,2.04.89.44,2.27.57,4.14.39-.24.33-.56.61-.95.85-.39.24-.8.43-1.25.57-.44.14-.9.24-1.37.3-.47.06-.91.07-1.32.04-.69-.04-1.35-.21-1.98-.49-.63-.29-1.18-.7-1.65-1.24s-.85-1.2-1.13-1.99c-.28-.79-.41-1.7-.4-2.73.01-1.06.19-1.99.52-2.79.33-.8.76-1.47,1.28-2,.52-.53,1.1-.93,1.74-1.19.64-.26,1.27-.4,1.9-.4.93,0,1.77.14,2.53.41.75.27,1.39.73,1.9,1.37s.9,1.48,1.15,2.53c.25,1.05.33,2.34.25,3.87ZM66.66,32.46c-.3,0-.56.07-.78.21-.22.14-.4.38-.55.72-.14.34-.25.78-.31,1.34-.06.56-.09,1.25-.07,2.08.23.02.64.02,1.25.01.6,0,1.38-.02,2.34-.05.04-.72.02-1.35-.08-1.89-.09-.54-.23-1-.4-1.35-.17-.36-.38-.63-.62-.81-.24-.18-.5-.27-.77-.27Z"/>
    <path class="cls-2" d="M81.25,37.68c.03-1.59-.17-2.81-.6-3.65-.43-.84-1.06-1.25-1.89-1.22-.12,0-.21,0-.3.01-.09,0-.17.02-.26.03.2.57.31,1.21.34,1.91s-.01,1.42-.13,2.15c-.12.73-.29,1.45-.52,2.16-.23.71-.51,1.36-.84,1.96-.33.6-.7,1.11-1.1,1.55-.4.44-.82.75-1.27.94.04-.37.07-.89.1-1.57.02-.67.04-1.43.04-2.26,0-.83,0-1.7-.01-2.61s-.04-1.79-.07-2.63c-.04-.85-.08-1.63-.14-2.34-.06-.72-.12-1.29-.19-1.72.69-.06,1.28.02,1.78.23.5.21.92.51,1.25.89.62-.63,1.48-.95,2.6-.95.7,0,1.3.12,1.79.36.49.24.88.55,1.16.95.28.39.45.85.52,1.35.06.51.02,1.03-.12,1.56-.14.53-.39,1.05-.75,1.56-.36.51-.82.96-1.4,1.36Z"/>
    <path class="cls-2" d="M95.11,39.53c-.04.6-.2,1.12-.46,1.55-.27.43-.6.78-.99,1.06-.39.28-.85.48-1.35.61s-1.04.19-1.58.17c-.87-.01-1.65-.18-2.32-.48s-1.24-.73-1.71-1.26c-.47-.53-.82-1.16-1.07-1.88-.25-.72-.38-1.51-.4-2.35-.01-.87.12-1.71.4-2.49.28-.79.67-1.48,1.18-2.08.51-.6,1.11-1.09,1.82-1.46.7-.37,1.47-.58,2.3-.62.5-.03.98,0,1.45.1s.87.27,1.22.52c.35.25.63.58.84.99.21.41.31.92.31,1.54-.43-.37-.82-.61-1.18-.71-.36-.1-.79-.12-1.29-.04-.44.06-.85.21-1.21.46-.37.25-.68.57-.95.96s-.47.82-.61,1.3c-.14.48-.22.97-.24,1.47-.03,1,.16,1.8.56,2.39.4.59.99.98,1.76,1.18.66.16,1.3.16,1.91.01s1.15-.46,1.61-.91Z"/>
    <path class="cls-2" d="M103.41,29.94c-.75.62-1.34,1.3-1.78,2.04-.44.75-.77,1.49-.97,2.24s-.3,1.47-.29,2.16c0,.7.1,1.31.27,1.86.17.54.41.98.71,1.3.3.32.64.48,1.03.48.42,0,.77-.14,1.06-.41.29-.27.52-.63.68-1.07.16-.44.24-.95.25-1.53s-.06-1.16-.21-1.77-.38-1.21-.69-1.79c-.31-.59-.71-1.12-1.19-1.59,1.13.01,2.08.23,2.86.64s1.38.96,1.82,1.62c.44.67.71,1.41.83,2.25.11.83.07,1.68-.13,2.54-.13.59-.35,1.15-.67,1.69-.32.54-.7,1.01-1.15,1.42-.45.41-.97.73-1.55.97-.58.24-1.2.35-1.86.35-.85,0-1.6-.14-2.28-.43-.67-.29-1.25-.69-1.72-1.21s-.84-1.15-1.11-1.87-.4-1.52-.42-2.38c-.03-.92.1-1.79.39-2.62.29-.83.71-1.58,1.27-2.26.56-.67,1.25-1.24,2.06-1.7.82-.46,1.75-.77,2.79-.92Z"/>
    <path class="cls-2" d="M112.56,43.29c-.09-1.29-.28-2.6-.59-3.94-.31-1.34-.65-2.6-1.04-3.77-.39-1.18-.78-2.22-1.17-3.13-.39-.91-.72-1.58-.98-2.01.6.1,1.24.39,1.9.86.67.47,1.29,1.09,1.87,1.84.58.75,1.08,1.62,1.5,2.59.42.97.69,2,.81,3.07.36-.5.72-1.15,1.08-1.93.37-.79.71-1.6,1.04-2.44.33-.84.62-1.64.88-2.42.26-.77.46-1.4.6-1.89.42.54.7,1.24.86,2.1.16.85.18,1.77.08,2.74-.11.97-.33,1.95-.68,2.93-.34.98-.81,1.87-1.39,2.68-.58.8-1.27,1.45-2.07,1.96-.8.5-1.71.76-2.71.77Z"/>
    <path class="cls-2" d="M132.51,38.41c-.59.09-1.12.16-1.6.23-.48.06-.97.11-1.47.15s-1.05.06-1.65.07c-.6.02-1.31.02-2.13.02.1.92.6,1.6,1.49,2.04.89.44,2.27.57,4.14.39-.24.33-.56.61-.95.85-.39.24-.8.43-1.25.57-.44.14-.9.24-1.37.3-.47.06-.91.07-1.32.04-.69-.04-1.35-.21-1.98-.49-.63-.29-1.18-.7-1.65-1.24s-.85-1.2-1.13-1.99c-.28-.79-.41-1.7-.4-2.73.01-1.06.19-1.99.52-2.79.33-.8.76-1.47,1.28-2,.52-.53,1.1-.93,1.74-1.19.64-.26,1.27-.4,1.9-.4.93,0,1.77.14,2.53.41.75.27,1.39.73,1.9,1.37s.9,1.48,1.15,2.53c.25,1.05.33,2.34.25,3.87ZM127.05,32.46c-.3,0-.56.07-.78.21-.22.14-.4.38-.55.72-.14.34-.25.78-.31,1.34-.06.56-.09,1.25-.07,2.08.23.02.64.02,1.25.01.6,0,1.38-.02,2.34-.05.04-.72.02-1.35-.08-1.89-.09-.54-.23-1-.4-1.35-.17-.36-.38-.63-.62-.81-.24-.18-.5-.27-.77-.27Z"/>
    <path class="cls-2" d="M141.64,37.68c.03-1.59-.17-2.81-.6-3.65-.43-.84-1.06-1.25-1.89-1.22-.11,0-.21,0-.3.01-.09,0-.17.02-.26.03.2.57.31,1.21.34,1.91s-.01,1.42-.13,2.15c-.12.73-.29,1.45-.52,2.16-.23.71-.51,1.36-.84,1.96-.33.6-.7,1.11-1.1,1.55-.4.44-.82.75-1.27.94.04-.37.08-.89.1-1.57.02-.67.04-1.43.04-2.26,0-.83,0-1.7-.01-2.61-.02-.91-.04-1.79-.08-2.63-.04-.85-.08-1.63-.14-2.34-.06-.72-.12-1.29-.19-1.72.69-.06,1.28.02,1.78.23.5.21.92.51,1.25.89.62-.63,1.48-.95,2.6-.95.7,0,1.3.12,1.79.36.49.24.88.55,1.16.95.28.39.45.85.52,1.35s.02,1.03-.12,1.56c-.14.53-.39,1.05-.75,1.56-.36.51-.82.96-1.4,1.36Z"/>
  </g>
  <g>
    <path class="cls-1" d="M18.17,193.87c-.35,0-.63-.29-.63-.63v-6.16c0-.35.29-.63.63-.63s.63.29.63.63v5.57h2.85c.33,0,.61.28.61.61s-.28.61-.61.61h-3.48Z"/>
    <path class="cls-1" d="M25.39,193.87c-1.85,0-3.15-1.37-3.15-3.06s1.3-3.06,3.15-3.06h.73c1.17,0,1.94.82,1.94,1.83s-.77,1.83-1.94,1.83h-1.16c-.33,0-.61-.28-.61-.61s.28-.61.61-.61h1.16c.42,0,.69-.28.69-.61s-.28-.61-.69-.61h-.73c-1.11,0-1.9.83-1.9,1.83s.8,1.83,1.9,1.83h1.77c.34,0,.61.28.61.61s-.28.61-.61.61h-1.77Z"/>
    <path class="cls-1" d="M30.27,196.32c-.33,0-.61-.28-.61-.61s.28-.61.61-.61h2.19c.52,0,.93-.42.93-.93v-.29h-1.42c-1.85,0-3.15-1.37-3.15-3.06s1.3-3.06,3.15-3.06h2.04c.35,0,.62.28.62.62v5.78c0,1.19-.97,2.16-2.16,2.16h-2.21ZM33.39,188.98h-1.42c-1.11,0-1.9.83-1.9,1.83s.8,1.83,1.9,1.83h1.42v-3.67Z"/>
    <path class="cls-1" d="M41.28,193.87c-1.85,0-3.15-1.37-3.15-3.06s1.3-3.06,3.15-3.06h.73c1.17,0,1.94.82,1.94,1.83s-.77,1.83-1.94,1.83h-1.16c-.33,0-.61-.28-.61-.61s.28-.61.61-.61h1.16c.42,0,.69-.28.69-.61s-.28-.61-.69-.61h-.73c-1.11,0-1.9.83-1.9,1.83s.8,1.83,1.9,1.83h1.77c.34,0,.61.28.61.61s-.28.61-.61.61h-1.77Z"/>
    <path class="cls-1" d="M47.86,193.87c-1.85,0-3.15-1.37-3.15-3.06s1.3-3.06,3.15-3.06h.73c1.16,0,1.94.82,1.94,1.83s-.77,1.83-1.94,1.83h-1.17c-.33,0-.61-.28-.61-.61s.28-.61.61-.61h1.17c.42,0,.69-.28.69-.61s-.28-.61-.69-.61h-.73c-1.11,0-1.9.83-1.9,1.83s.8,1.83,1.9,1.83h1.77c.33,0,.61.28.61.61s-.28.61-.61.61h-1.77Z"/>
    <path class="cls-1" d="M55.48,190.18c0-.66-.54-1.2-1.2-1.2h-1.57v4.36c0,.35-.28.62-.62.62s-.62-.28-.62-.62v-4.96c0-.35.28-.62.62-.62h2.19c1.35,0,2.45,1.1,2.45,2.45v3.14c0,.35-.28.62-.62.62s-.62-.28-.62-.62v-3.16Z"/>
    <path class="cls-1" d="M61.76,190.93v2.41c0,.35-.28.62-.62.62s-.62-.28-.62-.62v-7.5c0-.35.28-.62.62-.62s.62.28.62.62v4.86l2.85-2.85c.24-.24.62-.24.87,0,.23.24.23.62,0,.87l-2.1,2.1,2.1,2.1c.24.24.23.62,0,.87-.24.24-.62.24-.87,0l-2.85-2.85Z"/>
    <path class="cls-1" d="M68.07,193.87c-1.12,0-1.89-.85-1.89-1.89s.77-1.89,1.89-1.89h1.17c.33,0,.61.28.61.61s-.28.61-.61.61h-1.17c-.38,0-.65.32-.65.67s.26.67.65.67h2.24v-2.58c0-.61-.43-1.08-1.06-1.08h-1.96c-.33,0-.61-.28-.61-.61s.28-.61.61-.61h1.96c1.29,0,2.31,1.03,2.31,2.3v3.2c0,.35-.22.62-.62.62h-2.86Z"/>
    <path class="cls-1" d="M74.42,193.87c-1.12,0-1.89-.85-1.89-1.89s.77-1.89,1.89-1.89h1.16c.33,0,.61.28.61.61s-.28.61-.61.61h-1.16c-.38,0-.65.32-.65.67s.27.67.65.67h2.24v-2.58c0-.61-.43-1.08-1.06-1.08h-1.96c-.33,0-.61-.28-.61-.61s.28-.61.61-.61h1.96c1.29,0,2.31,1.03,2.31,2.3v3.2c0,.35-.22.62-.62.62h-2.86Z"/>
    <path class="cls-1" d="M83.83,190.14c0,.35-.28.62-.62.62s-.62-.28-.62-.61v-.08c0-.61-.45-1.1-1.1-1.1h-1.1v4.36c0,.35-.28.62-.62.62s-.62-.28-.62-.62v-4.96c0-.35.28-.62.62-.62h1.72c1.32,0,2.34,1.05,2.34,2.32v.07Z"/>
    <path class="cls-1" d="M87.62,193.87c-1.19,0-2.16-.97-2.16-2.16v-2.73h-.73c-.33,0-.61-.28-.61-.61s.28-.61.61-.61h.73v-1.22c0-.35.28-.62.62-.62s.62.28.62.62v1.22h1.6c.33,0,.61.28.61.61s-.28.61-.61.61h-1.6v2.75c0,.52.39.92.92.92h.68c.33,0,.61.28.61.61s-.28.61-.61.61h-.69Z"/>
    <path class="cls-1" d="M96.33,190.18c0-.66-.54-1.2-1.2-1.2h-1.57v4.36c0,.35-.28.62-.62.62s-.62-.28-.62-.62v-4.96c0-.35.28-.62.62-.62h2.19c1.35,0,2.45,1.1,2.45,2.45v3.14c0,.35-.28.62-.62.62s-.62-.28-.62-.62v-3.16Z"/>
    <path class="cls-1" d="M100.44,193.87c-1.12,0-1.89-.85-1.89-1.89s.77-1.89,1.89-1.89h1.16c.33,0,.61.28.61.61s-.28.61-.61.61h-1.16c-.38,0-.65.32-.65.67s.26.67.65.67h2.24v-2.58c0-.61-.43-1.08-1.06-1.08h-1.96c-.33,0-.61-.28-.61-.61s.28-.61.61-.61h1.96c1.29,0,2.31,1.03,2.31,2.3v3.2c0,.35-.22.62-.62.62h-2.86Z"/>
    <path class="cls-1" d="M106.79,193.87c-1.12,0-1.89-.85-1.89-1.89s.77-1.89,1.89-1.89h1.16c.33,0,.61.28.61.61s-.28.61-.61.61h-1.16c-.38,0-.65.32-.65.67s.26.67.65.67h2.24v-2.58c0-.61-.43-1.08-1.06-1.08h-1.96c-.33,0-.61-.28-.61-.61s.28-.61.61-.61h1.96c1.29,0,2.31,1.03,2.31,2.3v3.2c0,.35-.22.62-.62.62h-2.86Z"/>
    <path class="cls-1" d="M116.21,190.14c0,.35-.28.62-.62.62s-.62-.28-.62-.61v-.08c0-.61-.45-1.1-1.1-1.1h-1.1v4.36c0,.35-.28.62-.62.62s-.62-.28-.62-.62v-4.96c0-.35.28-.62.62-.62h1.72c1.32,0,2.34,1.05,2.34,2.32v.07Z"/>
    <path class="cls-1" d="M18.77,207.28v2.41c0,.35-.28.62-.62.62s-.62-.28-.62-.62v-7.5c0-.35.28-.62.62-.62s.62.28.62.62v4.86l2.85-2.85c.24-.24.62-.24.87,0,.23.24.23.62,0,.87l-2.1,2.1,2.1,2.1c.24.24.23.62,0,.87-.24.24-.62.24-.87,0l-2.85-2.85Z"/>
    <path class="cls-1" d="M25.96,210.22c-1.85,0-3.15-1.37-3.15-3.06s1.3-3.06,3.15-3.06h.73c1.16,0,1.94.82,1.94,1.83s-.77,1.83-1.94,1.83h-1.17c-.33,0-.61-.28-.61-.61s.28-.61.61-.61h1.17c.42,0,.69-.28.69-.61s-.28-.61-.69-.61h-.73c-1.11,0-1.9.83-1.9,1.83s.8,1.83,1.9,1.83h1.77c.33,0,.61.28.61.61s-.28.61-.61.61h-1.77Z"/>
    <path class="cls-1" d="M33.61,204.64c0-.35.28-.62.62-.62s.62.28.62.62v3.09c0,1.45-1.19,2.64-2.64,2.64s-2.64-1.19-2.64-2.64v-3.09c0-.35.28-.62.62-.62s.62.28.62.62v3.13c0,.76.63,1.4,1.4,1.4s1.4-.63,1.4-1.4v-3.13Z"/>
    <path class="cls-1" d="M36.5,210.22c-.33,0-.61-.26-.61-.6,0-.14.06-.31.19-.46l3.15-3.83h-2.62c-.34,0-.61-.28-.61-.61s.28-.61.61-.61h3.88c.33,0,.6.26.6.6,0,.15-.06.31-.19.46l-3.15,3.83h2.61c.33,0,.61.28.61.61s-.28.61-.61.61h-3.85Z"/>
    <path class="cls-1" d="M44.5,210.22c-1.85,0-3.15-1.37-3.15-3.06s1.3-3.06,3.15-3.06h.73c1.16,0,1.94.82,1.94,1.83s-.77,1.83-1.94,1.83h-1.17c-.33,0-.61-.28-.61-.61s.28-.61.61-.61h1.17c.42,0,.69-.28.69-.61s-.28-.61-.69-.61h-.73c-1.11,0-1.9.83-1.9,1.83s.8,1.83,1.9,1.83h1.77c.33,0,.61.28.61.61s-.28.61-.61.61h-1.77Z"/>
    <path class="cls-1" d="M53.59,210.37c-1.9,0-3.24-1.43-3.24-3.21s1.34-3.21,3.24-3.21,3.24,1.43,3.24,3.21-1.35,3.21-3.24,3.21ZM53.59,205.17c-1.15,0-2,.9-2,2s.84,2,2,2,2-.9,2-2-.84-2-2-2Z"/>
    <path class="cls-1" d="M61.8,206.53c0-.66-.54-1.2-1.2-1.2h-1.57v4.36c0,.35-.28.62-.62.62s-.62-.28-.62-.62v-4.96c0-.35.28-.62.62-.62h2.19c1.35,0,2.45,1.1,2.45,2.45v3.14c0,.35-.28.62-.62.62s-.62-.28-.62-.62v-3.16Z"/>
    <path class="cls-1" d="M67.14,210.22c-1.85,0-3.15-1.37-3.15-3.06s1.3-3.06,3.15-3.06h1.42v-1.92c0-.35.28-.62.62-.62s.62.28.62.62v7.41c0,.35-.28.62-.62.62h-2.04ZM68.56,205.33h-1.42c-1.11,0-1.9.83-1.9,1.83s.8,1.83,1.9,1.83h1.42v-3.67Z"/>
    <path class="cls-1" d="M73.91,210.22c-1.85,0-3.15-1.37-3.15-3.06s1.3-3.06,3.15-3.06h.73c1.17,0,1.94.82,1.94,1.83s-.77,1.83-1.94,1.83h-1.16c-.33,0-.61-.28-.61-.61s.28-.61.61-.61h1.16c.42,0,.69-.28.69-.61s-.28-.61-.69-.61h-.73c-1.11,0-1.9.83-1.9,1.83s.8,1.83,1.9,1.83h1.77c.34,0,.61.28.61.61s-.28.61-.61.61h-1.77Z"/>
    <path class="cls-1" d="M82.21,206.5c0,.35-.28.62-.62.62s-.62-.28-.62-.61v-.08c0-.61-.45-1.1-1.1-1.1h-1.1v4.36c0,.35-.28.62-.62.62s-.62-.28-.62-.62v-4.96c0-.35.28-.62.62-.62h1.72c1.32,0,2.34,1.05,2.34,2.32v.07Z"/>
    <path class="cls-1" d="M86.12,210.37c-1.9,0-3.24-1.43-3.24-3.21s1.34-3.21,3.24-3.21,3.24,1.43,3.24,3.21-1.35,3.21-3.24,3.21ZM86.12,205.17c-1.15,0-2,.9-2,2s.84,2,2,2,2-.9,2-2-.84-2-2-2Z"/>
    <path class="cls-1" d="M91.56,210.22v1.92c0,.35-.28.62-.62.62s-.62-.28-.62-.62v-7.41c0-.35.28-.62.62-.62h2.04c1.85,0,3.15,1.37,3.15,3.06s-1.3,3.06-3.15,3.06h-1.42ZM92.98,209c1.11,0,1.9-.83,1.9-1.83s-.8-1.83-1.9-1.83h-1.42v3.67h1.42Z"/>
    <path class="cls-1" d="M102.46,210.22c-1.85,0-3.15-1.37-3.15-3.06s1.3-3.06,3.15-3.06h1.42v-1.92c0-.35.28-.62.62-.62s.62.28.62.62v7.41c0,.35-.28.62-.62.62h-2.04ZM103.88,205.33h-1.42c-1.11,0-1.9.83-1.9,1.83s.8,1.83,1.9,1.83h1.42v-3.67Z"/>
    <path class="cls-1" d="M109.23,210.22c-1.85,0-3.15-1.37-3.15-3.06s1.3-3.06,3.15-3.06h.73c1.17,0,1.94.82,1.94,1.83s-.77,1.83-1.94,1.83h-1.16c-.33,0-.61-.28-.61-.61s.28-.61.61-.61h1.16c.42,0,.69-.28.69-.61s-.28-.61-.69-.61h-.73c-1.11,0-1.9.83-1.9,1.83s.8,1.83,1.9,1.83h1.77c.33,0,.61.28.61.61s-.28.61-.61.61h-1.77Z"/>
    <path class="cls-1" d="M18.77,223.63v2.41c0,.35-.28.62-.62.62s-.62-.28-.62-.62v-7.5c0-.35.28-.62.62-.62s.62.28.62.62v4.86l2.85-2.85c.24-.24.62-.24.87,0,.23.24.23.62,0,.87l-2.1,2.1,2.1,2.1c.24.24.23.62,0,.87-.24.24-.62.24-.87,0l-2.85-2.85Z"/>
    <path class="cls-1" d="M26.05,226.72c-1.9,0-3.24-1.43-3.24-3.21s1.34-3.21,3.24-3.21,3.24,1.43,3.24,3.21-1.35,3.21-3.24,3.21ZM26.05,221.52c-1.15,0-2,.9-2,2s.84,2,2,2,2-.9,2-2-.84-2-2-2Z"/>
    <path class="cls-1" d="M33.3,226.72c-1.9,0-3.24-1.43-3.24-3.21s1.34-3.21,3.24-3.21,3.24,1.43,3.24,3.21-1.35,3.21-3.24,3.21ZM33.3,221.52c-1.15,0-2,.9-2,2s.84,2,2,2,2-.9,2-2-.84-2-2-2Z"/>
    <path class="cls-1" d="M38.74,226.57v1.92c0,.35-.28.62-.62.62s-.62-.28-.62-.62v-7.41c0-.35.28-.62.62-.62h2.04c1.85,0,3.15,1.37,3.15,3.06s-1.3,3.06-3.15,3.06h-1.42ZM40.16,225.35c1.11,0,1.9-.83,1.9-1.83s-.8-1.83-1.9-1.83h-1.42v3.67h1.42Z"/>
    <path class="cls-1" d="M44.74,226.57c-.33,0-.61-.28-.61-.61s.28-.61.61-.61h2.58c.42,0,.69-.28.69-.61s-.28-.61-.69-.61h-1.43c-1.17,0-1.94-.82-1.94-1.83s.77-1.83,1.94-1.83h2.58c.33,0,.61.28.61.61s-.28.61-.61.61h-2.58c-.42,0-.69.28-.69.61s.28.61.69.61h1.43c1.16,0,1.94.82,1.94,1.83s-.77,1.83-1.94,1.83h-2.58Z"/>
    <path class="cls-1" d="M53.08,226.57c-1.19,0-2.16-.97-2.16-2.16v-2.73h-.73c-.33,0-.61-.28-.61-.61s.28-.61.61-.61h.73v-1.22c0-.35.28-.62.62-.62s.62.28.62.62v1.22h1.6c.33,0,.61.28.61.61s-.28.61-.61.61h-1.6v2.75c0,.52.39.92.92.92h.68c.33,0,.61.28.61.61s-.28.61-.61.61h-.69Z"/>
    <path class="cls-1" d="M56.86,226.57c-1.12,0-1.89-.85-1.89-1.89s.77-1.89,1.89-1.89h1.17c.33,0,.61.28.61.61s-.28.61-.61.61h-1.17c-.38,0-.65.32-.65.67s.26.67.65.67h2.24v-2.58c0-.61-.43-1.08-1.06-1.08h-1.96c-.33,0-.61-.28-.61-.61s.28-.61.61-.61h1.96c1.29,0,2.31,1.03,2.31,2.3v3.2c0,.35-.22.62-.62.62h-2.86Z"/>
    <path class="cls-1" d="M62.84,226.57v1.92c0,.35-.28.62-.62.62s-.62-.28-.62-.62v-7.41c0-.35.28-.62.62-.62h2.04c1.85,0,3.15,1.37,3.15,3.06s-1.3,3.06-3.15,3.06h-1.42ZM64.26,225.35c1.11,0,1.9-.83,1.9-1.83s-.8-1.83-1.9-1.83h-1.42v3.67h1.42Z"/>
    <path class="cls-1" d="M71.32,226.57c-1.85,0-3.15-1.37-3.15-3.06s1.3-3.06,3.15-3.06h.73c1.16,0,1.94.82,1.94,1.83s-.77,1.83-1.94,1.83h-1.17c-.33,0-.61-.28-.61-.61s.28-.61.61-.61h1.17c.42,0,.69-.28.69-.61s-.28-.61-.69-.61h-.73c-1.11,0-1.9.83-1.9,1.83s.8,1.83,1.9,1.83h1.77c.33,0,.61.28.61.61s-.28.61-.61.61h-1.77Z"/>
    <path class="cls-1" d="M74.94,218.54c0-.35.28-.62.62-.62s.62.28.62.62v7.5c0,.35-.28.62-.62.62s-.62-.28-.62-.62v-7.5Z"/>
  </g>
  <g>
    <g>
      <path class="cls-5" d="M148.14,129.81c-.59.67-1.1,1.34-1.7,1.92-7.28,6.99-14.6,13.94-21.84,20.98-1.87,1.82-4.2,1.87-6.46,2.12-8.52.96-16.66-.61-24.52-3.94-5.95-2.52-11.39-5.87-16.38-9.96-2.68-2.19-2.58-5.04.31-6.97,4.36-2.91,8.76-5.74,13.15-8.61,2.38-1.56,4.75-3.12,7.13-4.68,2.49-1.63,5.07-1.58,7.43.27,3.36,2.63,6.87,4.99,10.87,6.57,6.35,2.51,12.93,3.4,19.7,2.75,2.9-.28,5.75-.94,8.63-1.39,1.26-.2,2.57-.45,3.68.93ZM141.51,132.51c-3.02.23-5.96.57-8.91.65-7.59.2-14.87-1.23-21.54-4.95-2.71-1.51-5.16-3.49-7.7-5.3-1.48-1.05-2.21-1.12-3.69-.15-6.9,4.53-13.79,9.05-20.69,13.57-1.4.92-1.42,1.22-.14,2.27,4.73,3.89,9.86,7.16,15.49,9.6,7.56,3.27,15.42,4.88,23.68,3.88,1.73-.21,3.54-.14,5.01-1.58,5.14-5.05,10.38-9.99,15.57-14.99,1-.96,1.94-1.98,2.92-3Z"/>
      <g>
        <path class="cls-5" d="M66.51,71.67c1.79.67,3.67,1.3,5.49,2.05,10.84,4.48,21.67,8.97,32.47,13.53.92.39,1.7,1.25,2.37,2.04.74.87.38,1.85-.08,2.81-.2.41-.23,1.09-.02,1.46.66,1.14.57,2.16-.02,3.29-.19.36-.19.99,0,1.34.62,1.13.68,2.15.01,3.28-.21.35-.22,1.01-.02,1.36.67,1.17.67,2.24-.04,3.39-.18.3-.21.85-.06,1.17,1.03,2.23.55,3.77-1.66,4.93-7.8,4.09-15.62,8.16-23.42,12.24-6.32,3.3-12.66,6.55-18.93,9.93-3.06,1.65-5.96,1.79-9.15.31-11.51-5.34-23.07-10.56-34.61-15.83-1.94-.89-2.65-1.95-2.48-3.77.04-.41.35-.79.43-1.21.08-.42.17-.96-.02-1.3-.63-1.16-.63-2.24.03-3.38.18-.3.21-.88.04-1.16-.73-1.23-.71-2.38.02-3.59.16-.27.16-.8,0-1.06-.75-1.22-.73-2.37,0-3.58.15-.25.16-.71.05-.99-1.12-2.7-.63-3.95,2.06-5.23,6.51-3.09,13.01-6.18,19.52-9.28,8.14-3.86,16.26-7.74,24.42-11.57,1.05-.5,2.23-.73,3.61-1.17ZM66.48,73.83c-1.17.37-2.21.57-3.13,1.01-12.19,5.77-24.37,11.57-36.55,17.36-2.5,1.19-5,2.36-7.48,3.57-1.15.56-1.33,1.58-.44,2.26.31.24.69.4,1.06.57,11.72,5.36,23.44,10.71,35.18,16.05,1.81.82,3.66.84,5.45-.09,6.54-3.39,13.07-6.8,19.61-10.21,7.88-4.12,15.77-8.22,23.63-12.39.55-.29,1.17-.99,1.22-1.54.03-.41-.75-1.07-1.3-1.3-10.85-4.55-21.72-9.07-32.59-13.57-1.54-.64-3.12-1.17-4.65-1.73ZM57.6,120.17c1.16-.38,2.21-.57,3.11-1.04,10.59-5.49,21.16-11.01,31.73-16.53,3.87-2.02,7.74-4.03,11.59-6.07.75-.39,1.44-.94.91-1.89-.55-.98-1.23-.3-1.84.02-13.77,7.18-27.53,14.37-41.3,21.55-2.37,1.24-4.84,1.47-7.29.35-11.3-5.12-22.57-10.29-33.87-15.42-.69-.31-1.57-1.15-2.15.03-.57,1.18.47,1.59,1.29,2.03.07.04.15.07.22.1,10.99,5.02,21.97,10.06,32.97,15.06,1.51.69,3.1,1.22,4.62,1.81ZM57.82,129.42c1.06-.35,2.21-.58,3.22-1.1,9.6-4.97,19.17-9.98,28.75-14.99,4.72-2.47,9.43-4.95,14.15-7.43.8-.42,1.53-.93,1-1.95-.6-1.15-1.28-.09-1.92.04-.04,0-.07.04-.11.06-13.62,7.13-27.24,14.26-40.86,21.39-2.49,1.3-5.03,1.61-7.63.44-6.31-2.85-12.6-5.74-18.9-8.62-5.2-2.38-10.4-4.78-15.62-7.13-.34-.15-1.15-.03-1.22.16-.17.44-.13,1.04.03,1.51.09.27.54.45.86.6,11.71,5.37,23.43,10.74,35.16,16.07.93.42,1.97.6,3.11.94ZM57.65,124.89c1.41-.53,2.7-.86,3.84-1.46,12.25-6.37,24.49-12.78,36.72-19.18,2.02-1.06,4.05-2.1,6.05-3.2.68-.37,1.14-.97.66-1.79-.48-.84-1.06-.36-1.64-.06-13.8,7.22-27.59,14.44-41.39,21.65-2.49,1.3-5.02,1.5-7.63.3-6.18-2.84-12.37-5.65-18.56-8.47-5.24-2.39-10.47-4.81-15.73-7.16-.38-.17-.98.13-1.47.22.14.56.22,1.15.46,1.67.11.23.53.33.82.46,10.92,5,21.83,10,32.76,14.97,1.66.75,3.38,1.37,5.09,2.06ZM57.61,134.19c1.34-.48,2.56-.76,3.63-1.32,12.83-6.66,25.63-13.36,38.44-20.05,1.49-.78,3.01-1.51,4.44-2.39.45-.28.91-.97.92-1.47.02-.91-.68-1-1.92-.35-13.84,7.23-27.68,14.46-41.53,21.69-2.4,1.25-4.86,1.24-7.31.21-1.59-.67-3.13-1.44-4.69-2.15-9.87-4.51-19.73-9.01-29.59-13.53-.58-.27-1.2-.45-1.4.22-.14.49.13,1.15.35,1.68.09.22.53.31.82.44,10.92,4.99,21.84,9.99,32.76,14.96,1.66.75,3.38,1.38,5.08,2.07Z"/>
        <path class="cls-2" d="M66.48,73.83c1.52.56,3.11,1.09,4.65,1.73,10.87,4.5,21.74,9.01,32.59,13.57.55.23,1.33.9,1.3,1.3-.04.55-.66,1.25-1.22,1.54-7.86,4.16-15.74,8.27-23.63,12.39-6.53,3.41-13.07,6.82-19.61,10.21-1.79.93-3.64.91-5.45.09-11.73-5.34-23.45-10.7-35.18-16.05-.36-.17-.74-.33-1.06-.57-.89-.68-.71-1.7.44-2.26,2.48-1.22,4.98-2.39,7.48-3.57,12.18-5.79,24.36-11.59,36.55-17.36.92-.44,1.95-.64,3.13-1.01Z"/>
        <path class="cls-2" d="M57.6,120.17c-1.53-.59-3.11-1.12-4.62-1.81-11-5-21.98-10.04-32.97-15.06-.07-.03-.15-.06-.22-.1-.82-.43-1.86-.85-1.29-2.03.57-1.19,1.45-.35,2.15-.03,11.29,5.13,22.57,10.3,33.87,15.42,2.46,1.11,4.92.88,7.29-.35,13.77-7.18,27.53-14.37,41.3-21.55.61-.32,1.29-.99,1.84-.02.54.96-.16,1.5-.91,1.89-3.86,2.03-7.73,4.05-11.59,6.07-10.57,5.52-21.14,11.04-31.73,16.53-.9.47-1.94.66-3.11,1.04Z"/>
        <path class="cls-2" d="M57.82,129.42c-1.14-.34-2.18-.52-3.11-.94-11.73-5.33-23.44-10.7-35.16-16.07-.32-.15-.77-.33-.86-.6-.15-.47-.2-1.07-.03-1.51.08-.2.88-.31,1.22-.16,5.22,2.35,10.41,4.75,15.62,7.13,6.3,2.88,12.59,5.77,18.9,8.62,2.6,1.17,5.14.86,7.63-.44,13.62-7.14,27.24-14.26,40.86-21.39.04-.02.07-.05.11-.06.64-.13,1.32-1.19,1.92-.04.53,1.02-.2,1.53-1,1.95-4.72,2.47-9.43,4.96-14.15,7.43-9.58,5.01-19.15,10.02-28.75,14.99-1,.52-2.16.75-3.22,1.1Z"/>
        <path class="cls-2" d="M57.65,124.89c-1.71-.69-3.43-1.3-5.09-2.06-10.93-4.97-21.84-9.98-32.76-14.97-.29-.13-.71-.23-.82-.46-.24-.52-.32-1.11-.46-1.67.5-.08,1.09-.39,1.47-.22,5.26,2.35,10.49,4.77,15.73,7.16,6.19,2.83,12.38,5.63,18.56,8.47,2.61,1.2,5.14,1,7.63-.3,13.8-7.21,27.6-14.43,41.39-21.65.57-.3,1.15-.78,1.64.06.47.82.01,1.42-.66,1.79-2,1.1-4.03,2.14-6.05,3.2-12.24,6.4-24.47,12.81-36.72,19.18-1.15.6-2.43.93-3.84,1.46Z"/>
        <path class="cls-2" d="M57.61,134.19c-1.7-.69-3.42-1.31-5.08-2.07-10.93-4.97-21.85-9.97-32.76-14.96-.29-.13-.73-.22-.82-.44-.22-.53-.49-1.19-.35-1.68.2-.67.82-.49,1.4-.22,9.86,4.52,19.73,9.02,29.59,13.53,1.57.72,3.11,1.48,4.69,2.15,2.45,1.03,4.92,1.04,7.31-.21,13.84-7.23,27.69-14.46,41.53-21.69,1.25-.65,1.94-.56,1.92.35,0,.51-.46,1.19-.92,1.47-1.43.88-2.95,1.61-4.44,2.39-12.81,6.69-25.61,13.39-38.44,20.05-1.08.56-2.3.84-3.63,1.32Z"/>
      </g>
      <path class="cls-2" d="M141.51,132.51c-.98,1.01-1.92,2.04-2.92,3-5.19,5-10.43,9.94-15.57,14.99-1.47,1.44-3.28,1.37-5.01,1.58-8.26,1.01-16.12-.6-23.68-3.88-5.63-2.44-10.76-5.71-15.49-9.6-1.28-1.05-1.25-1.35.14-2.27,6.9-4.52,13.8-9.05,20.69-13.57,1.48-.97,2.21-.91,3.69.15,2.54,1.81,4.99,3.79,7.7,5.3,6.67,3.72,13.95,5.14,21.54,4.95,2.95-.08,5.89-.42,8.91-.65ZM124.24,140.76c-7.44,2.68-15.06-2.22-18.16-6.07,1.49-1.51,3-3.03,4.59-4.63h-14.35v14.14c.11.08.22.16.32.24,1.43-1.6,2.86-3.2,4.29-4.78,7.85,7.36,17.93,5.88,23.31,1.11Z"/>
    </g>
    <path class="cls-5" d="M124.24,140.76c-5.37,4.77-15.46,6.25-23.31-1.11-1.42,1.59-2.85,3.19-4.29,4.78-.11-.08-.22-.16-.32-.24,0-4.69,0-9.38,0-14.14,4.82,0,9.55,0,14.35,0-1.59,1.61-3.1,3.13-4.59,4.63,3.09,3.85,10.72,8.75,18.16,6.07Z"/>
  </g>
</svg>