<?xml version="1.0" encoding="UTF-8"?>
<svg id="Laag_1" data-name="Laag 1" xmlns="http://www.w3.org/2000/svg" viewBox="0 0 164.41 249.45">
  <defs>
    <style>
      .cls-1 {
        stroke: #fff;
        stroke-width: .47px;
      }

      .cls-1, .cls-2, .cls-3, .cls-4, .cls-5, .cls-6 {
        stroke-miterlimit: 10;
      }

      .cls-1, .cls-7 {
        fill: #fff;
      }

      .cls-2 {
        fill: #8abb2a;
      }

      .cls-2, .cls-3, .cls-4, .cls-5, .cls-6 {
        stroke: #1d1d1b;
        stroke-width: 2.19px;
      }

      .cls-3 {
        fill: #ff6d00;
      }

      .cls-4, .cls-8 {
        fill: #2f2f2f;
      }

      .cls-5 {
        fill: #8082b8;
      }

      .cls-6, .cls-9 {
        fill: #de2b65;
      }

      .cls-8, .cls-10, .cls-9, .cls-7, .cls-11 {
        stroke-width: 0px;
      }

      .cls-10 {
        fill: #1d1d1b;
      }

      .cls-11 {
        fill: #eb7c19;
      }
    </style>
  </defs>
  <rect class="cls-8" x="0" y="0" width="164.41" height="249.45"/>
  <g>
    <path class="cls-9" d="M141.74,206.68c-4.35,0-7.89-3.7-7.89-8.26s3.54-8.25,7.89-8.25,7.89,3.7,7.89,8.25-3.54,8.26-7.89,8.26Z"/>
    <path class="cls-10" d="M141.74,191.17c3.8,0,6.89,3.25,6.89,7.26s-3.09,7.26-6.89,7.26-6.89-3.25-6.89-7.26,3.09-7.26,6.89-7.26M141.74,189.17c-4.91,0-8.89,4.14-8.89,9.26s3.98,9.26,8.89,9.26,8.89-4.14,8.89-9.26-3.98-9.26-8.89-9.26h0Z"/>
  </g>
  <g>
    <ellipse class="cls-11" cx="141.74" cy="226.17" rx="7.89" ry="8.26"/>
    <path class="cls-10" d="M141.74,218.92c3.8,0,6.89,3.25,6.89,7.26s-3.09,7.26-6.89,7.26-6.89-3.25-6.89-7.26,3.09-7.26,6.89-7.26M141.74,216.92c-4.91,0-8.89,4.14-8.89,9.26s3.98,9.26,8.89,9.26,8.89-4.14,8.89-9.26-3.98-9.26-8.89-9.26h0Z"/>
  </g>
  <g>
    <path class="cls-5" d="M89.06,69.41h9.97v2c0,1.4,1.52,2.28,2.73,1.58l11.66-6.73c1.22-.7,1.22-2.46,0-3.16l-11.66-6.73c-1.21-.7-2.73.18-2.73,1.58v1.9h-10c-2.79.02-5.29.88-7.48,2.61-2.16,1.71-3.57,3.91-4.25,6.58-.15.57-.25,1.14-.29,1.72-.03.38-.04.77-.06,1.15v19.62h9.58v-19.62"/>
    <path class="cls-4" d="M86.51,71.9c0-.89.45-1.68,1.16-2.15.41-.27.83-.35,1.39-.35"/>
    <path class="cls-2" d="M74.38,84.59h-9.97v2c0,1.4-1.52,2.28-2.73,1.58l-11.66-6.73c-1.22-.7-1.22-2.46,0-3.16l11.66-6.73c1.21-.7,2.73.18,2.73,1.58v1.9h10c2.79.02,5.29.88,7.48,2.61,2.16,1.71,3.57,3.91,4.25,6.58.15.57.25,1.14.29,1.72.03.38.04.77.06,1.15v19.62h-9.58v-19.62"/>
    <path class="cls-4" d="M76.93,87.08c0-.89-.45-1.68-1.16-2.15-.41-.27-.83-.35-1.39-.35"/>
    <path class="cls-6" d="M89.06,101.36h9.97v2c0,1.4,1.52,2.28,2.73,1.58l11.66-6.73c1.22-.7,1.22-2.46,0-3.16l-11.66-6.73c-1.21-.7-2.73.18-2.73,1.58v1.9h-10c-2.79.02-5.29.88-7.48,2.61-2.16,1.71-3.57,3.91-4.25,6.58-.15.57-.25,1.14-.29,1.72-.03.38-.04.77-.06,1.15v19.62h9.58v-19.62"/>
    <path class="cls-4" d="M86.51,103.86c0-.89.45-1.68,1.16-2.15.41-.27.83-.35,1.39-.35"/>
    <path class="cls-3" d="M74.38,116.54h-9.97v2c0,1.4-1.52,2.28-2.73,1.58l-11.66-6.73c-1.22-.7-1.22-2.46,0-3.16l11.66-6.73c1.21-.7,2.73.18,2.73,1.58v1.9h10c2.79.02,5.29.88,7.48,2.61,2.16,1.71,3.57,3.91,4.25,6.58.15.57.25,1.14.29,1.72.03.38.04.77.06,1.15v18.38c0,.69-.56,1.24-1.24,1.24h-7.1c-.68,0-1.24-.55-1.24-1.24v-18.39"/>
    <path class="cls-4" d="M76.93,119.04c0-.89-.45-1.68-1.16-2.15-.41-.27-.83-.35-1.39-.35"/>
  </g>
  <g>
    <path class="cls-7" d="M45.42,27.3c.64.43,1.15,1.01,1.53,1.76s.62,1.63.75,2.64c.12,1.01.15,2.06.06,3.15s-.25,2.18-.51,3.26c-.26,1.08-.58,2.08-.98,2.99s-.84,1.69-1.34,2.35-1.03,1.1-1.6,1.34c.03-.37.06-.93.09-1.69.03-.76.04-1.62.05-2.59,0-.97,0-2,0-3.11,0-1.11-.02-2.21-.04-3.31-.2.75-.45,1.5-.75,2.24-.3.74-.66,1.45-1.09,2.12-.43.67-.91,1.29-1.45,1.85-.54.56-1.14,1.03-1.79,1.41-.53-1.82-1.09-3.47-1.66-4.95-.57-1.48-1.14-2.81-1.69-3.97-.02.45-.03,1.01-.04,1.69,0,.67-.01,1.4-.01,2.16s.01,1.55.04,2.34c.02.79.06,1.54.11,2.25.05.71.12,1.34.2,1.89.08.55.18.97.3,1.25-.92-.02-1.65-.1-2.21-.24-.56-.14-.99-.38-1.3-.71-.31-.33-.52-.78-.62-1.34-.11-.56-.16-1.26-.16-2.11,0-1.75,0-3.25-.01-4.51,0-1.26-.04-2.31-.1-3.16-.06-.85-.15-1.53-.26-2.04-.12-.51-.28-.89-.49-1.15-.21-.26-.47-.42-.79-.49-.32-.07-.7-.09-1.15-.07.35-.52.7-.93,1.04-1.23s.67-.53.99-.7c.32-.17.61-.27.89-.32.28-.05.52-.08.74-.08.55,0,1,.07,1.36.21.36.14.65.34.88.59s.39.55.5.91c.11.36.18.76.21,1.21.92.68,1.76,1.62,2.54,2.8.77,1.18,1.35,2.56,1.71,4.12.32-.47.68-1.06,1.09-1.79.41-.73.8-1.51,1.16-2.35.37-.84.68-1.7.95-2.59.27-.88.42-1.73.45-2.53v-.05c.97-.07,1.77.11,2.41.54Z"/>
    <path class="cls-7" d="M58.88,42.69c-.7.7-1.43,1.15-2.2,1.36-.77.21-1.48.3-2.15.26-.65-.03-1.26-.2-1.83-.5-.57-.3-1.05-.7-1.46-1.19-.41-.49-.72-1.06-.94-1.71-.22-.65-.31-1.34-.28-2.08.03-.65.16-1.29.38-1.91s.54-1.18.97-1.67c.43-.49.99-.88,1.66-1.17.68-.29,1.49-.44,2.44-.44.53,0,1.04.06,1.51.19.47.12.93.35,1.36.66-.05-.7-.35-1.23-.91-1.59s-1.22-.6-2-.74c-.78-.13-1.58-.17-2.41-.11-.83.06-1.54.16-2.12.31.33-.55.73-1.03,1.19-1.45.46-.42.95-.76,1.47-1.04.53-.27,1.06-.48,1.61-.61.55-.13,1.09-.18,1.62-.15.95.05,1.76.29,2.42.71.67.42,1.21.97,1.64,1.65.42.67.74,1.45.94,2.32.2.88.3,1.8.3,2.76,0,.8-.05,1.61-.16,2.42-.11.82-.28,1.6-.5,2.34-.22.74-.5,1.43-.82,2.06-.33.63-.7,1.17-1.11,1.62-.08-.32-.17-.69-.28-1.11-.1-.42-.22-.83-.35-1.21ZM53.75,38.49c.02.25.06.5.14.74.08.24.19.46.34.66.15.2.35.37.59.51s.55.25.91.31c.43.08.82.07,1.15-.04.33-.11.61-.27.84-.49.22-.22.4-.47.51-.76.12-.29.18-.59.18-.89,0-.4-.05-.77-.15-1.11-.1-.34-.25-.64-.45-.9-.2-.26-.46-.46-.78-.61-.32-.15-.69-.22-1.12-.2-.77.03-1.34.3-1.71.81s-.52,1.16-.44,1.96Z"/>
    <path class="cls-7" d="M72.15,26.51c.97-.07,1.77.11,2.41.54.64.43,1.15,1.03,1.53,1.8.38.77.62,1.67.75,2.69s.15,2.08.06,3.19c-.08,1.11-.25,2.21-.51,3.3-.26,1.09-.58,2.1-.98,3.02-.39.93-.84,1.72-1.34,2.39-.5.67-1.03,1.12-1.6,1.35.02-.13.03-.28.04-.45,0-.17.02-.37.04-.6-.7.28-1.47.41-2.33.38-.97-.02-1.82-.2-2.57-.54s-1.38-.8-1.9-1.39c-.52-.58-.91-1.27-1.19-2.06-.28-.79-.42-1.65-.44-2.59-.02-.97.13-1.88.44-2.74.31-.86.74-1.62,1.3-2.29.56-.67,1.23-1.2,2.01-1.61s1.63-.64,2.55-.69c.37-.02.72,0,1.06.02.34.03.67.1.99.2-.03-.87-.08-1.64-.14-2.33-.06-.68-.12-1.22-.19-1.6ZM72.6,41.51c.03-1.25.04-2.65.03-4.19-.02-1.54-.04-3.05-.08-4.54-.1,0-.2,0-.3.01-.1,0-.21.02-.33.04-.5.05-.95.22-1.35.5-.4.28-.75.63-1.04,1.05-.29.42-.52.89-.67,1.42-.16.53-.25,1.08-.26,1.62-.05,2.18.81,3.49,2.58,3.92.48.13.96.18,1.42.15Z"/>
    <path class="cls-7" d="M93.5,42.64c-.28.42-.57.75-.85,1-.28.25-.55.44-.81.58-.26.13-.5.22-.73.26-.22.04-.43.06-.61.06-.65,0-1.18-.12-1.59-.35s-.72-.56-.95-.97c-.23-.42-.38-.92-.45-1.5s-.12-1.22-.14-1.9v-.91c0-.41,0-.88.01-1.4,0-.52.01-1.09.01-1.7s0-1.22-.03-1.84c-.02-.58-.12-.98-.3-1.17-.18-.2-.58-.3-1.17-.3-.3,0-.59.01-.86.04-.27.02-.55.05-.84.09.17.7.25,1.45.24,2.25,0,.8-.08,1.61-.22,2.43-.14.82-.35,1.62-.62,2.4-.28.78-.6,1.5-.98,2.15-.38.65-.78,1.21-1.22,1.69-.44.47-.91.81-1.41,1.01.05-.43.09-1.05.11-1.84.02-.79.04-1.67.05-2.65,0-.97,0-2-.01-3.07-.02-1.08-.05-2.11-.09-3.11-.04-1-.1-1.92-.16-2.76s-.14-1.51-.22-2.01c.95-.08,1.74.05,2.38.39.63.34,1.14.82,1.52,1.44.63-.4,1.33-.71,2.08-.93.75-.22,1.5-.32,2.25-.32.7,0,1.27.09,1.7.26.43.18.77.43,1.01.75.24.33.4.73.49,1.2.08.48.12,1.01.12,1.61,0,1.43,0,2.66.01,3.68,0,1.02.04,1.87.09,2.55s.12,1.22.21,1.62c.09.4.22.7.39.89.17.19.38.31.64.36.26.05.58.07.96.05Z"/>
    <path class="cls-7" d="M107.28,38.86c-.68.1-1.3.19-1.86.26s-1.13.13-1.71.17c-.58.04-1.22.07-1.92.09-.7.02-1.53.03-2.48.03.12,1.07.7,1.86,1.74,2.38s2.65.67,4.81.45c-.28.38-.65.71-1.1.99-.45.27-.93.5-1.45.66-.52.17-1.05.28-1.59.35-.54.07-1.05.08-1.54.05-.8-.05-1.57-.24-2.3-.58-.73-.33-1.38-.81-1.93-1.44-.55-.62-.99-1.4-1.31-2.31-.32-.92-.48-1.98-.46-3.17.02-1.23.22-2.32.6-3.25.38-.93.88-1.71,1.49-2.33.61-.62,1.28-1.08,2.03-1.39s1.48-.46,2.21-.46c1.08,0,2.06.16,2.94.48s1.61.85,2.21,1.59c.6.74,1.04,1.72,1.34,2.94.29,1.22.39,2.72.29,4.5ZM100.93,31.94c-.35,0-.65.08-.91.25-.26.17-.47.45-.64.84-.17.39-.29.91-.36,1.56-.07.65-.1,1.46-.09,2.42.27.02.75.02,1.45.01.7,0,1.61-.03,2.72-.06.05-.83.02-1.57-.09-2.2-.11-.63-.26-1.16-.46-1.58-.2-.42-.44-.73-.73-.94-.28-.21-.58-.31-.9-.31Z"/>
    <path class="cls-7" d="M119,34.91c0-.25-.08-.52-.25-.81-.17-.29-.39-.56-.66-.81s-.61-.46-1-.62c-.39-.17-.81-.25-1.26-.25-.18,0-.37.01-.56.04s-.38.08-.55.16c-.17.08-.33.2-.45.34s-.2.33-.24.56c-.05.3.03.59.25.86.22.28.53.53.95.76.33.18.66.37.97.55.32.18.58.33.8.42.73.37,1.35.73,1.85,1.08.5.35.9.71,1.2,1.09.3.38.52.77.65,1.17s.2.85.2,1.31c0,.58-.12,1.12-.36,1.6s-.59.9-1.05,1.26c-.46.36-1.02.64-1.69.84-.67.2-1.42.3-2.27.3-1,0-1.91-.13-2.74-.4-.83-.27-1.47-.64-1.95-1.11-.48-.47-.74-1.04-.8-1.69-.06-.65.18-1.37.71-2.15.12.45.32.84.6,1.16s.62.58,1,.78c.38.19.8.32,1.25.39.45.07.91.08,1.38.03.43-.05.82-.2,1.17-.44.35-.24.52-.53.52-.86,0-.27-.04-.49-.12-.66-.08-.17-.23-.35-.45-.51-.22-.17-.52-.35-.91-.54-.39-.19-.89-.44-1.49-.74-.83-.42-1.5-.83-1.99-1.25-.49-.42-.87-.83-1.12-1.22-.26-.4-.42-.8-.5-1.21s-.11-.81-.11-1.21c0-.5.13-.97.39-1.41.26-.44.62-.83,1.09-1.15.47-.32,1.01-.59,1.64-.79s1.3-.32,2.04-.35c.93-.03,1.79.1,2.56.4.77.3,1.37.7,1.79,1.21.42.51.61,1.1.57,1.79-.03.68-.38,1.38-1.05,2.1Z"/>
    <path class="cls-7" d="M132.7,34.91c0-.25-.08-.52-.25-.81-.17-.29-.39-.56-.66-.81-.28-.25-.61-.46-1-.62-.39-.17-.81-.25-1.26-.25-.18,0-.37.01-.56.04s-.38.08-.55.16c-.18.08-.33.2-.45.34s-.2.33-.24.56c-.05.3.03.59.25.86.22.28.53.53.95.76.33.18.66.37.97.55.32.18.58.33.8.42.73.37,1.35.73,1.85,1.08.5.35.9.71,1.2,1.09s.52.77.65,1.17c.13.41.2.85.2,1.31,0,.58-.12,1.12-.36,1.6-.24.48-.59.9-1.05,1.26s-1.02.64-1.69.84-1.42.3-2.27.3c-1,0-1.91-.13-2.74-.4-.82-.27-1.47-.64-1.95-1.11-.48-.47-.74-1.04-.8-1.69-.06-.65.18-1.37.71-2.15.12.45.32.84.6,1.16s.62.58,1,.78.8.32,1.25.39c.45.07.91.08,1.38.03.43-.05.83-.2,1.18-.44.35-.24.52-.53.52-.86,0-.27-.04-.49-.12-.66-.08-.17-.23-.35-.45-.51-.22-.17-.52-.35-.91-.54-.39-.19-.89-.44-1.49-.74-.83-.42-1.5-.83-1.99-1.25-.49-.42-.87-.83-1.12-1.22-.26-.4-.43-.8-.5-1.21-.08-.41-.11-.81-.11-1.21,0-.5.13-.97.39-1.41s.62-.83,1.09-1.15c.47-.32,1.01-.59,1.64-.79s1.3-.32,2.04-.35c.93-.03,1.79.1,2.56.4s1.37.7,1.79,1.21.61,1.1.58,1.79c-.03.68-.38,1.38-1.05,2.1Z"/>
  </g>
  <g>
    <path class="cls-1" d="M18.68,157.75c0-.33.28-.61.61-.61s.61.28.61.61v6.05c0,.33-.28.61-.61.61s-.61-.28-.61-.61v-6.05Z"/>
    <path class="cls-1" d="M23.88,164.32c-1.79,0-3.05-1.33-3.05-2.96s1.26-2.96,3.05-2.96h.7c1.13,0,1.87.79,1.87,1.77s-.75,1.77-1.87,1.77h-1.13c-.32,0-.59-.27-.59-.59s.27-.59.59-.59h1.13c.4,0,.67-.27.67-.59s-.27-.59-.67-.59h-.7c-1.07,0-1.84.8-1.84,1.77s.77,1.77,1.84,1.77h1.71c.32,0,.59.27.59.59s-.27.59-.59.59h-1.71Z"/>
    <path class="cls-1" d="M30.24,164.32c-1.79,0-3.05-1.33-3.05-2.96s1.26-2.96,3.05-2.96h1.37v-1.85c0-.33.27-.6.6-.6s.6.27.6.6v7.16c0,.33-.27.6-.6.6h-1.97ZM31.61,159.59h-1.37c-1.07,0-1.84.8-1.84,1.77s.77,1.77,1.84,1.77h1.37v-3.55Z"/>
    <path class="cls-1" d="M36.78,164.32c-1.78,0-3.04-1.33-3.04-2.96s1.26-2.96,3.04-2.96h.7c1.13,0,1.87.79,1.87,1.77s-.75,1.77-1.87,1.77h-1.13c-.32,0-.59-.27-.59-.59s.27-.59.59-.59h1.13c.4,0,.67-.27.67-.59s-.27-.59-.67-.59h-.7c-1.07,0-1.84.8-1.84,1.77s.77,1.77,1.84,1.77h1.71c.32,0,.59.27.59.59s-.27.59-.59.59h-1.71Z"/>
    <path class="cls-1" d="M44.81,160.71c0,.34-.27.6-.6.6s-.6-.27-.6-.59v-.08c0-.59-.44-1.06-1.06-1.06h-1.06v4.22c0,.33-.27.6-.6.6s-.6-.27-.6-.6v-4.8c0-.33.27-.6.6-.6h1.66c1.27,0,2.26,1.02,2.26,2.24v.07Z"/>
    <path class="cls-1" d="M48.5,164.32c-1.78,0-3.04-1.33-3.04-2.96s1.26-2.96,3.04-2.96h.7c1.13,0,1.87.79,1.87,1.77s-.75,1.77-1.87,1.77h-1.13c-.32,0-.59-.27-.59-.59s.27-.59.59-.59h1.13c.4,0,.67-.27.67-.59s-.27-.59-.67-.59h-.7c-1.07,0-1.84.8-1.84,1.77s.77,1.77,1.84,1.77h1.71c.32,0,.59.27.59.59s-.27.59-.59.59h-1.71Z"/>
    <path class="cls-1" d="M54.86,164.32c-1.79,0-3.05-1.33-3.05-2.96s1.26-2.96,3.05-2.96h.7c1.13,0,1.87.79,1.87,1.77s-.75,1.77-1.87,1.77h-1.13c-.32,0-.59-.27-.59-.59s.27-.59.59-.59h1.13c.4,0,.67-.27.67-.59s-.27-.59-.67-.59h-.7c-1.07,0-1.84.8-1.84,1.77s.77,1.77,1.84,1.77h1.71c.32,0,.59.27.59.59s-.27.59-.59.59h-1.71Z"/>
    <path class="cls-1" d="M62.24,160.75c0-.64-.52-1.16-1.16-1.16h-1.52v4.22c0,.33-.27.6-.6.6s-.6-.27-.6-.6v-4.8c0-.33.27-.6.6-.6h2.12c1.3,0,2.36,1.06,2.36,2.37v3.03c0,.33-.27.6-.6.6s-.6-.27-.6-.6v-3.06Z"/>
    <path class="cls-1" d="M67.11,156.55c0-.33.27-.6.6-.6s.6.27.6.6v7.25c0,.33-.27.6-.6.6s-.6-.27-.6-.6v-7.25Z"/>
    <path class="cls-1" d="M72.28,164.32c-1.79,0-3.05-1.33-3.05-2.96s1.26-2.96,3.05-2.96h.7c1.13,0,1.87.79,1.87,1.77s-.75,1.77-1.87,1.77h-1.13c-.32,0-.59-.27-.59-.59s.27-.59.59-.59h1.13c.4,0,.67-.27.67-.59s-.27-.59-.67-.59h-.7c-1.07,0-1.84.8-1.84,1.77s.77,1.77,1.84,1.77h1.71c.32,0,.59.27.59.59s-.27.59-.59.59h-1.71Z"/>
    <path class="cls-1" d="M75.39,159.16c-.13-.3,0-.66.3-.79.3-.15.66,0,.79.3l1.74,4.02,1.74-4.02c.13-.3.49-.45.79-.3.3.13.43.49.3.79l-2.16,4.82c-.11.26-.35.44-.67.44s-.56-.18-.67-.44l-2.16-4.82Z"/>
    <path class="cls-1" d="M84.53,164.32c-1.79,0-3.04-1.33-3.04-2.96s1.26-2.96,3.04-2.96h.7c1.13,0,1.87.79,1.87,1.77s-.75,1.77-1.87,1.77h-1.13c-.32,0-.59-.27-.59-.59s.27-.59.59-.59h1.13c.4,0,.67-.27.67-.59s-.27-.59-.67-.59h-.7c-1.07,0-1.84.8-1.84,1.77s.77,1.77,1.84,1.77h1.71c.32,0,.59.27.59.59s-.27.59-.59.59h-1.71Z"/>
    <path class="cls-1" d="M92.56,160.71c0,.34-.27.6-.6.6s-.6-.27-.6-.59v-.08c0-.59-.44-1.06-1.06-1.06h-1.06v4.22c0,.33-.27.6-.6.6s-.6-.27-.6-.6v-4.8c0-.33.27-.6.6-.6h1.66c1.27,0,2.26,1.02,2.26,2.24v.07Z"/>
    <path class="cls-1" d="M96.22,164.32c-1.15,0-2.09-.94-2.09-2.09v-2.64h-.7c-.32,0-.59-.27-.59-.59s.27-.59.59-.59h.7v-1.18c0-.33.27-.6.6-.6s.6.27.6.6v1.18h1.55c.32,0,.59.27.59.59s-.27.59-.59.59h-1.55v2.66c0,.5.38.89.89.89h.66c.32,0,.59.27.59.59s-.27.59-.59.59h-.67Z"/>
    <path class="cls-1" d="M101.15,164.32c-.32,0-.59-.26-.59-.58,0-.13.06-.3.18-.45l3.05-3.7h-2.53c-.32,0-.59-.27-.59-.59s.27-.59.59-.59h3.75c.32,0,.58.26.58.58,0,.14-.06.3-.18.45l-3.05,3.7h2.52c.32,0,.59.27.59.59s-.27.59-.59.59h-3.73Z"/>
    <path class="cls-1" d="M107.17,157.42c-.41,0-.75-.32-.75-.74s.33-.74.75-.74.75.32.75.74-.33.74-.75.74ZM106.57,158.92c0-.34.27-.6.6-.6s.6.27.6.6v4.89c0,.33-.27.6-.6.6s-.6-.27-.6-.6v-4.89Z"/>
    <path class="cls-1" d="M107.36,166.68c-.32,0-.59-.27-.59-.59s.27-.59.59-.59h.23c1,0,1.38-.52,1.38-1.52v-5.07c0-.34.27-.6.6-.6s.6.27.6.6v5.05c0,1.66-.85,2.71-2.58,2.71h-.25ZM109.58,157.42c-.41,0-.75-.32-.75-.74s.33-.74.75-.74.75.32.75.74-.33.74-.75.74Z"/>
    <path class="cls-1" d="M115.27,160.75c0-.64-.52-1.16-1.16-1.16h-1.52v4.22c0,.33-.27.6-.6.6s-.6-.27-.6-.6v-4.8c0-.33.27-.6.6-.6h2.12c1.31,0,2.36,1.06,2.36,2.37v3.03c0,.33-.27.6-.6.6s-.6-.27-.6-.6v-3.06Z"/>
    <path class="cls-1" d="M122.9,164.32c-1.79,0-3.05-1.33-3.05-2.96s1.26-2.96,3.05-2.96h1.37v-1.85c0-.33.27-.6.6-.6s.6.27.6.6v7.16c0,.33-.27.6-.6.6h-1.97ZM124.27,159.59h-1.37c-1.07,0-1.84.8-1.84,1.77s.77,1.77,1.84,1.77h1.37v-3.55Z"/>
    <path class="cls-1" d="M129.44,164.32c-1.79,0-3.05-1.33-3.05-2.96s1.26-2.96,3.05-2.96h.7c1.13,0,1.87.79,1.87,1.77s-.75,1.77-1.87,1.77h-1.13c-.32,0-.59-.27-.59-.59s.27-.59.59-.59h1.13c.4,0,.67-.27.67-.59s-.27-.59-.67-.59h-.7c-1.07,0-1.84.8-1.84,1.77s.77,1.77,1.84,1.77h1.71c.32,0,.59.27.59.59s-.27.59-.59.59h-1.71Z"/>
    <path class="cls-1" d="M134.14,161.47v2.33c0,.33-.27.6-.6.6s-.6-.27-.6-.6v-7.25c0-.33.27-.6.6-.6s.6.27.6.6v4.7l2.76-2.76c.23-.23.6-.23.84,0,.22.23.22.6,0,.84l-2.03,2.03,2.03,2.03c.23.23.22.6,0,.84-.23.23-.6.23-.84,0l-2.76-2.76Z"/>
    <path class="cls-1" d="M19.27,180.13c-.33,0-.6-.27-.6-.6v-7.16c0-.33.27-.6.6-.6s.6.27.6.6v1.85h1.37c1.79,0,3.05,1.33,3.05,2.96s-1.26,2.96-3.05,2.96h-1.97ZM21.24,178.95c1.07,0,1.84-.8,1.84-1.77s-.77-1.77-1.84-1.77h-1.37v3.55h1.37Z"/>
    <path class="cls-1" d="M25.81,173.24c-.41,0-.75-.32-.75-.74s.34-.74.75-.74.75.32.75.74-.33.74-.75.74ZM25.21,174.73c0-.34.27-.6.6-.6s.6.27.6.6v4.89c0,.33-.27.6-.6.6s-.6-.27-.6-.6v-4.89Z"/>
    <path class="cls-1" d="M26,182.5c-.32,0-.59-.27-.59-.59s.27-.59.59-.59h.23c1,0,1.38-.52,1.38-1.52v-5.07c0-.34.27-.6.6-.6s.6.27.6.6v5.05c0,1.66-.85,2.71-2.58,2.71h-.25ZM28.22,173.24c-.41,0-.75-.32-.75-.74s.34-.74.75-.74.75.32.75.74-.33.74-.75.74Z"/>
    <path class="cls-1" d="M30.87,182.5c-.32,0-.59-.27-.59-.59s.27-.59.59-.59h.23c1,0,1.38-.52,1.38-1.52v-5.07c0-.34.27-.6.6-.6s.6.27.6.6v5.05c0,1.66-.85,2.71-2.58,2.71h-.25ZM33.09,173.24c-.41,0-.75-.32-.75-.74s.33-.74.75-.74.75.32.75.74-.33.74-.75.74Z"/>
    <path class="cls-1" d="M37.74,180.28c-1.84,0-3.13-1.38-3.13-3.1s1.29-3.1,3.13-3.1,3.13,1.38,3.13,3.1-1.31,3.1-3.13,3.1ZM37.74,175.24c-1.12,0-1.93.87-1.93,1.93s.81,1.93,1.93,1.93,1.93-.87,1.93-1.93-.81-1.93-1.93-1.93Z"/>
    <path class="cls-1" d="M45.7,174.73c0-.34.27-.6.6-.6s.6.27.6.6v2.99c0,1.41-1.15,2.56-2.55,2.56s-2.56-1.15-2.56-2.56v-2.99c0-.34.27-.6.6-.6s.6.27.6.6v3.02c0,.74.61,1.35,1.35,1.35s1.35-.61,1.35-1.35v-3.02Z"/>
    <path class="cls-1" d="M51.17,173.24c-.41,0-.75-.32-.75-.74s.33-.74.75-.74.75.32.75.74-.33.74-.75.74ZM50.57,174.73c0-.34.27-.6.6-.6s.6.27.6.6v4.89c0,.33-.27.6-.6.6s-.6-.27-.6-.6v-4.89Z"/>
    <path class="cls-1" d="M56.86,176.56c0-.64-.52-1.16-1.16-1.16h-1.52v4.22c0,.33-.27.6-.6.6s-.6-.27-.6-.6v-4.8c0-.33.27-.6.6-.6h2.12c1.3,0,2.37,1.06,2.37,2.37v3.03c0,.33-.27.6-.6.6s-.6-.27-.6-.6v-3.06Z"/>
    <path class="cls-1" d="M59.43,181.78c-.15.29-.49.4-.78.27-.29-.14-.41-.5-.28-.78l1.05-2.2c.14-.3.5-.4.79-.27.29.14.42.51.27.79l-1.05,2.19Z"/>
    <path class="cls-1" d="M65.52,180.13c-1.08,0-1.83-.83-1.83-1.83s.75-1.83,1.83-1.83h1.13c.32,0,.59.27.59.59s-.27.59-.59.59h-1.13c-.37,0-.62.31-.62.65s.26.65.62.65h2.16v-2.5c0-.59-.41-1.05-1.03-1.05h-1.9c-.32,0-.59-.27-.59-.59s.27-.59.59-.59h1.9c1.25,0,2.23.99,2.23,2.22v3.09c0,.33-.21.6-.6.6h-2.77Z"/>
    <path class="cls-1" d="M70.1,172.37c0-.33.27-.6.6-.6s.6.27.6.6v7.25c0,.33-.27.6-.6.6s-.6-.27-.6-.6v-7.25Z"/>
    <path class="cls-1" d="M72.51,172.37c0-.33.27-.6.6-.6s.6.27.6.6v7.25c0,.33-.27.6-.6.6s-.6-.27-.6-.6v-7.25Z"/>
    <path class="cls-1" d="M77.68,180.13c-1.78,0-3.04-1.33-3.04-2.96s1.26-2.96,3.04-2.96h.7c1.13,0,1.87.79,1.87,1.77s-.75,1.77-1.87,1.77h-1.13c-.32,0-.59-.27-.59-.59s.27-.59.59-.59h1.13c.4,0,.67-.27.67-.59s-.27-.59-.67-.59h-.7c-1.07,0-1.84.8-1.84,1.77s.77,1.77,1.84,1.77h1.71c.32,0,.59.27.59.59s-.27.59-.59.59h-1.71Z"/>
    <path class="cls-1" d="M81.64,180.13c-.32,0-.59-.27-.59-.59s.27-.59.59-.59h2.5c.4,0,.67-.27.67-.59s-.27-.59-.67-.59h-1.38c-1.13,0-1.87-.79-1.87-1.77s.75-1.77,1.87-1.77h2.5c.32,0,.59.27.59.59s-.27.59-.59.59h-2.5c-.4,0-.67.27-.67.59s.27.59.67.59h1.38c1.13,0,1.87.79,1.87,1.77s-.75,1.77-1.87,1.77h-2.5Z"/>
    <path class="cls-1" d="M96.22,174.73c0-.34.27-.6.6-.6s.6.27.6.6v3.28c0,1.25-1.02,2.26-2.26,2.26-.7,0-1.34-.32-1.75-.83-.41.5-1.05.83-1.75.83-1.25,0-2.26-1.02-2.26-2.26v-3.28c0-.34.27-.6.6-.6s.6.27.6.6v3.3c0,.6.5,1.1,1.1,1.1s1.1-.5,1.1-1.1v-3.3c0-.34.27-.6.6-.6s.6.27.6.6v3.3c0,.6.5,1.1,1.1,1.1s1.1-.5,1.1-1.1v-3.3Z"/>
    <path class="cls-1" d="M101.48,180.28c-1.84,0-3.13-1.38-3.13-3.1s1.29-3.1,3.13-3.1,3.13,1.38,3.13,3.1-1.31,3.1-3.13,3.1ZM101.48,175.24c-1.12,0-1.93.87-1.93,1.93s.81,1.93,1.93,1.93,1.93-.87,1.93-1.93-.81-1.93-1.93-1.93Z"/>
    <path class="cls-1" d="M110.06,176.53c0,.34-.27.6-.6.6s-.6-.27-.6-.59v-.08c0-.59-.44-1.06-1.06-1.06h-1.06v4.22c0,.33-.27.6-.6.6s-.6-.27-.6-.6v-4.8c0-.33.27-.6.6-.6h1.66c1.27,0,2.26,1.02,2.26,2.24v.07Z"/>
    <path class="cls-1" d="M113.76,180.13c-1.79,0-3.05-1.33-3.05-2.96s1.26-2.96,3.05-2.96h1.37v-1.85c0-.33.27-.6.6-.6s.6.27.6.6v7.16c0,.33-.27.6-.6.6h-1.97ZM115.13,175.4h-1.37c-1.07,0-1.84.8-1.84,1.77s.77,1.77,1.84,1.77h1.37v-3.55Z"/>
    <path class="cls-1" d="M120.43,180.13c-1.15,0-2.09-.94-2.09-2.09v-2.64h-.7c-.32,0-.59-.27-.59-.59s.27-.59.59-.59h.7v-1.18c0-.33.27-.6.6-.6s.6.27.6.6v1.18h1.55c.32,0,.59.27.59.59s-.27.59-.59.59h-1.55v2.66c0,.5.38.89.89.89h.66c.32,0,.59.27.59.59s-.27.59-.59.59h-.67Z"/>
    <path class="cls-1" d="M19.77,198.31c-.32,0-.59-.27-.59-.59s.27-.59.59-.59h2.12c.5,0,.9-.4.9-.9v-.28h-1.37c-1.78,0-3.04-1.33-3.04-2.96s1.26-2.96,3.04-2.96h1.97c.34,0,.6.27.6.6v5.59c0,1.15-.94,2.09-2.09,2.09h-2.14ZM22.79,191.21h-1.37c-1.07,0-1.84.8-1.84,1.77s.77,1.77,1.84,1.77h1.37v-3.55Z"/>
    <path class="cls-1" d="M27.96,195.94c-1.79,0-3.05-1.33-3.05-2.96s1.26-2.96,3.05-2.96h.7c1.13,0,1.87.79,1.87,1.77s-.75,1.77-1.87,1.77h-1.13c-.32,0-.59-.27-.59-.59s.27-.59.59-.59h1.13c.4,0,.67-.27.67-.59s-.27-.59-.67-.59h-.7c-1.07,0-1.84.8-1.84,1.77s.77,1.77,1.84,1.77h1.71c.32,0,.59.27.59.59s-.27.59-.59.59h-1.71Z"/>
    <path class="cls-1" d="M31.93,195.94c-.32,0-.59-.27-.59-.59s.27-.59.59-.59h2.5c.4,0,.67-.27.67-.59s-.27-.59-.67-.59h-1.38c-1.13,0-1.87-.79-1.87-1.77s.75-1.77,1.87-1.77h2.5c.32,0,.59.27.59.59s-.27.59-.59.59h-2.5c-.4,0-.67.27-.67.59s.27.59.67.59h1.38c1.13,0,1.87.79,1.87,1.77s-.75,1.77-1.87,1.77h-2.5Z"/>
    <path class="cls-1" d="M39.97,195.94c-1.79,0-3.05-1.33-3.05-2.96s1.26-2.96,3.05-2.96h1.23c.32,0,.59.27.59.59s-.27.59-.59.59h-1.23c-1.07,0-1.84.8-1.84,1.77s.77,1.77,1.84,1.77h1.23c.32,0,.59.27.59.59s-.27.59-.59.59h-1.23Z"/>
    <path class="cls-1" d="M46.57,192.37c0-.64-.52-1.16-1.16-1.16h-1.52v4.22c0,.33-.27.6-.6.6s-.6-.27-.6-.6v-7.25c0-.33.27-.6.6-.6s.6.27.6.6v1.85h1.52c1.3,0,2.36,1.06,2.36,2.37v3.03c0,.33-.27.6-.6.6s-.6-.27-.6-.6v-3.06Z"/>
    <path class="cls-1" d="M52.89,190.54c0-.34.27-.6.6-.6s.6.27.6.6v2.99c0,1.41-1.15,2.56-2.55,2.56s-2.56-1.15-2.56-2.56v-2.99c0-.34.27-.6.6-.6s.6.27.6.6v3.02c0,.74.61,1.35,1.35,1.35s1.35-.61,1.35-1.35v-3.02Z"/>
    <path class="cls-1" d="M58.06,195.94c-1.79,0-3.05-1.33-3.05-2.96s1.26-2.96,3.05-2.96h1.37v-1.85c0-.33.27-.6.6-.6s.6.27.6.6v7.16c0,.33-.27.6-.6.6h-1.97ZM59.43,191.21h-1.37c-1.07,0-1.84.8-1.84,1.77s.77,1.77,1.84,1.77h1.37v-3.55Z"/>
    <path class="cls-1" d="M62,197.6c-.14.29-.49.4-.78.27-.29-.14-.41-.5-.28-.78l1.05-2.2c.15-.3.5-.4.79-.27.29.14.42.51.27.79l-1.05,2.19Z"/>
    <path class="cls-1" d="M69.29,195.94c-1.79,0-3.05-1.33-3.05-2.96s1.26-2.96,3.05-2.96h1.37v-1.85c0-.33.27-.6.6-.6s.6.27.6.6v7.16c0,.33-.27.6-.6.6h-1.97ZM70.66,191.21h-1.37c-1.07,0-1.84.8-1.84,1.77s.77,1.77,1.84,1.77h1.37v-3.55Z"/>
    <path class="cls-1" d="M74.63,195.94c-1.08,0-1.83-.83-1.83-1.83s.75-1.83,1.83-1.83h1.13c.32,0,.59.27.59.59s-.27.59-.59.59h-1.13c-.37,0-.62.31-.62.65s.26.65.62.65h2.16v-2.5c0-.59-.41-1.05-1.03-1.05h-1.9c-.32,0-.59-.27-.59-.59s.27-.59.59-.59h1.9c1.25,0,2.23.99,2.23,2.22v3.09c0,.33-.21.6-.6.6h-2.77Z"/>
    <path class="cls-1" d="M80.77,195.94c-1.08,0-1.83-.83-1.83-1.83s.75-1.83,1.83-1.83h1.13c.32,0,.59.27.59.59s-.27.59-.59.59h-1.13c-.37,0-.62.31-.62.65s.26.65.62.65h2.16v-2.5c0-.59-.41-1.05-1.03-1.05h-1.9c-.32,0-.59-.27-.59-.59s.27-.59.59-.59h1.9c1.25,0,2.23.99,2.23,2.22v3.09c0,.33-.21.6-.6.6h-2.77Z"/>
    <path class="cls-1" d="M89.88,192.34c0,.34-.27.6-.6.6s-.6-.27-.6-.59v-.08c0-.59-.44-1.06-1.06-1.06h-1.06v4.22c0,.33-.27.6-.6.6s-.6-.27-.6-.6v-4.8c0-.33.27-.6.6-.6h1.66c1.27,0,2.26,1.02,2.26,2.24v.07Z"/>
    <path class="cls-1" d="M94.7,192.37c0-.64-.52-1.16-1.16-1.16h-1.52v4.22c0,.33-.27.6-.6.6s-.6-.27-.6-.6v-4.8c0-.33.27-.6.6-.6h2.12c1.31,0,2.36,1.06,2.36,2.37v3.03c0,.33-.27.6-.6.6s-.6-.27-.6-.6v-3.06Z"/>
    <path class="cls-1" d="M98.68,195.94c-1.08,0-1.83-.83-1.83-1.83s.75-1.83,1.83-1.83h1.13c.32,0,.59.27.59.59s-.27.59-.59.59h-1.13c-.37,0-.62.31-.62.65s.26.65.62.65h2.16v-2.5c0-.59-.41-1.05-1.03-1.05h-1.9c-.32,0-.59-.27-.59-.59s.27-.59.59-.59h1.9c1.25,0,2.23.99,2.23,2.22v3.09c0,.33-.21.6-.6.6h-2.77Z"/>
    <path class="cls-1" d="M25.49,206.36c0-.34.27-.6.6-.6s.6.27.6.6v3.28c0,1.25-1.02,2.26-2.27,2.26-.7,0-1.34-.32-1.75-.83-.41.5-1.05.83-1.75.83-1.25,0-2.26-1.02-2.26-2.26v-3.28c0-.34.27-.6.6-.6s.6.27.6.6v3.3c0,.6.5,1.1,1.1,1.1s1.1-.5,1.1-1.1v-3.3c0-.34.27-.6.6-.6s.6.27.6.6v3.3c0,.6.5,1.1,1.1,1.1s1.1-.5,1.1-1.1v-3.3Z"/>
    <path class="cls-1" d="M30.75,211.9c-1.84,0-3.14-1.38-3.14-3.1s1.29-3.1,3.14-3.1,3.13,1.38,3.13,3.1-1.3,3.1-3.13,3.1ZM30.75,206.87c-1.12,0-1.93.87-1.93,1.93s.81,1.93,1.93,1.93,1.93-.87,1.93-1.93-.81-1.93-1.93-1.93Z"/>
    <path class="cls-1" d="M39.34,208.15c0,.34-.27.6-.6.6s-.6-.27-.6-.59v-.08c0-.59-.44-1.06-1.06-1.06h-1.06v4.22c0,.33-.27.6-.6.6s-.6-.27-.6-.6v-4.8c0-.33.27-.6.6-.6h1.66c1.27,0,2.27,1.02,2.27,2.24v.07Z"/>
    <path class="cls-1" d="M43.03,211.76c-1.79,0-3.05-1.33-3.05-2.96s1.26-2.96,3.05-2.96h1.37v-1.85c0-.33.27-.6.6-.6s.6.27.6.6v7.16c0,.33-.27.6-.6.6h-1.97ZM44.4,207.03h-1.37c-1.07,0-1.84.8-1.84,1.77s.77,1.77,1.84,1.77h1.37v-3.55Z"/>
    <path class="cls-1" d="M49.57,211.76c-1.78,0-3.04-1.33-3.04-2.96s1.26-2.96,3.04-2.96h.7c1.13,0,1.87.79,1.87,1.77s-.75,1.77-1.87,1.77h-1.13c-.32,0-.59-.27-.59-.59s.27-.59.59-.59h1.13c.4,0,.67-.27.67-.59s-.27-.59-.67-.59h-.7c-1.07,0-1.84.8-1.84,1.77s.77,1.77,1.84,1.77h1.71c.32,0,.59.27.59.59s-.27.59-.59.59h-1.71Z"/>
    <path class="cls-1" d="M56.95,208.19c0-.64-.52-1.16-1.16-1.16h-1.52v4.22c0,.33-.27.6-.6.6s-.6-.27-.6-.6v-4.8c0-.33.27-.6.6-.6h2.12c1.31,0,2.36,1.06,2.36,2.37v3.03c0,.33-.27.6-.6.6s-.6-.27-.6-.6v-3.06Z"/>
    <path class="cls-1" d="M63.38,211.76c-1.08,0-1.83-.83-1.83-1.83s.75-1.83,1.83-1.83h1.13c.32,0,.59.27.59.59s-.27.59-.59.59h-1.13c-.37,0-.62.31-.62.65s.26.65.62.65h2.16v-2.5c0-.59-.41-1.05-1.03-1.05h-1.9c-.32,0-.59-.27-.59-.59s.27-.59.59-.59h1.9c1.25,0,2.23.99,2.23,2.22v3.09c0,.33-.21.6-.6.6h-2.77Z"/>
    <path class="cls-1" d="M67.96,203.99c0-.33.27-.6.6-.6s.6.27.6.6v7.25c0,.33-.27.6-.6.6s-.6-.27-.6-.6v-7.25Z"/>
    <path class="cls-1" d="M70.37,203.99c0-.33.27-.6.6-.6s.6.27.6.6v7.25c0,.33-.27.6-.6.6s-.6-.27-.6-.6v-7.25Z"/>
    <path class="cls-1" d="M75.54,211.76c-1.79,0-3.05-1.33-3.05-2.96s1.26-2.96,3.05-2.96h.7c1.13,0,1.87.79,1.87,1.77s-.75,1.77-1.87,1.77h-1.13c-.32,0-.59-.27-.59-.59s.27-.59.59-.59h1.13c.4,0,.67-.27.67-.59s-.27-.59-.67-.59h-.7c-1.07,0-1.84.8-1.84,1.77s.77,1.77,1.84,1.77h1.71c.32,0,.59.27.59.59s-.27.59-.59.59h-1.71Z"/>
    <path class="cls-1" d="M82.69,208.91v2.33c0,.33-.27.6-.6.6s-.6-.27-.6-.6v-7.25c0-.33.27-.6.6-.6s.6.27.6.6v4.7l2.76-2.76c.23-.23.6-.23.84,0,.22.23.22.6,0,.84l-2.03,2.03,2.03,2.03c.23.23.22.6,0,.84-.23.23-.6.23-.84,0l-2.76-2.76Z"/>
    <path class="cls-1" d="M88.79,211.76c-1.08,0-1.83-.83-1.83-1.83s.75-1.83,1.83-1.83h1.13c.32,0,.59.27.59.59s-.27.59-.59.59h-1.13c-.37,0-.62.31-.62.65s.26.65.62.65h2.16v-2.5c0-.59-.41-1.05-1.03-1.05h-1.9c-.32,0-.59-.27-.59-.59s.27-.59.59-.59h1.9c1.25,0,2.23.99,2.23,2.22v3.09c0,.33-.21.6-.6.6h-2.77Z"/>
    <path class="cls-1" d="M94.93,211.76c-1.08,0-1.83-.83-1.83-1.83s.75-1.83,1.83-1.83h1.13c.32,0,.59.27.59.59s-.27.59-.59.59h-1.13c-.37,0-.62.31-.62.65s.26.65.62.65h2.16v-2.5c0-.59-.41-1.05-1.03-1.05h-1.9c-.32,0-.59-.27-.59-.59s.27-.59.59-.59h1.9c1.25,0,2.23.99,2.23,2.22v3.09c0,.33-.21.6-.6.6h-2.77Z"/>
    <path class="cls-1" d="M104.03,208.15c0,.34-.27.6-.6.6s-.6-.27-.6-.59v-.08c0-.59-.44-1.06-1.06-1.06h-1.06v4.22c0,.33-.27.6-.6.6s-.6-.27-.6-.6v-4.8c0-.33.27-.6.6-.6h1.66c1.27,0,2.26,1.02,2.26,2.24v.07Z"/>
    <path class="cls-1" d="M107.7,211.76c-1.15,0-2.09-.94-2.09-2.09v-2.64h-.7c-.32,0-.59-.27-.59-.59s.27-.59.59-.59h.7v-1.18c0-.33.27-.6.6-.6s.6.27.6.6v1.18h1.55c.32,0,.59.27.59.59s-.27.59-.59.59h-1.55v2.66c0,.5.38.89.89.89h.66c.32,0,.59.27.59.59s-.27.59-.59.59h-.67Z"/>
    <path class="cls-1" d="M112.37,211.76c-1.79,0-3.05-1.33-3.05-2.96s1.26-2.96,3.05-2.96h.7c1.13,0,1.87.79,1.87,1.77s-.75,1.77-1.87,1.77h-1.13c-.32,0-.59-.27-.59-.59s.27-.59.59-.59h1.13c.4,0,.67-.27.67-.59s-.27-.59-.67-.59h-.7c-1.07,0-1.84.8-1.84,1.77s.77,1.77,1.84,1.77h1.71c.32,0,.59.27.59.59s-.27.59-.59.59h-1.71Z"/>
    <path class="cls-1" d="M119.75,208.19c0-.64-.52-1.16-1.16-1.16h-1.52v4.22c0,.33-.27.6-.6.6s-.6-.27-.6-.6v-4.8c0-.33.27-.6.6-.6h2.12c1.31,0,2.36,1.06,2.36,2.37v3.03c0,.33-.27.6-.6.6s-.6-.27-.6-.6v-3.06Z"/>
    <path class="cls-1" d="M21.42,227.57c-1.78,0-3.04-1.33-3.04-2.96s1.26-2.96,3.04-2.96h.7c1.13,0,1.87.79,1.87,1.77s-.75,1.77-1.87,1.77h-1.13c-.32,0-.59-.27-.59-.59s.27-.59.59-.59h1.13c.4,0,.67-.27.67-.59s-.27-.59-.67-.59h-.7c-1.07,0-1.84.8-1.84,1.77s.77,1.77,1.84,1.77h1.71c.32,0,.59.27.59.59s-.27.59-.59.59h-1.71Z"/>
    <path class="cls-1" d="M27.78,227.57c-1.78,0-3.04-1.33-3.04-2.96s1.26-2.96,3.04-2.96h.7c1.13,0,1.87.79,1.87,1.77s-.75,1.77-1.87,1.77h-1.13c-.32,0-.59-.27-.59-.59s.27-.59.59-.59h1.13c.4,0,.67-.27.67-.59s-.27-.59-.67-.59h-.7c-1.07,0-1.84.8-1.84,1.77s.77,1.77,1.84,1.77h1.71c.32,0,.59.27.59.59s-.27.59-.59.59h-1.71Z"/>
    <path class="cls-1" d="M35.81,223.97c0,.34-.27.6-.6.6s-.6-.27-.6-.59v-.08c0-.59-.43-1.06-1.06-1.06h-1.06v4.22c0,.33-.27.6-.6.6s-.6-.27-.6-.6v-4.8c0-.33.27-.6.6-.6h1.66c1.27,0,2.26,1.02,2.26,2.24v.07Z"/>
    <path class="cls-1" d="M36.75,219.81c0-.33.27-.6.6-.6s.6.27.6.6v7.25c0,.33-.27.6-.6.6s-.6-.27-.6-.6v-7.25Z"/>
    <path class="cls-1" d="M39.76,220.68c-.41,0-.75-.32-.75-.74s.33-.74.75-.74.75.32.75.74-.33.74-.75.74ZM39.16,222.17c0-.34.27-.6.6-.6s.6.27.6.6v4.89c0,.33-.27.6-.6.6s-.6-.27-.6-.6v-4.89Z"/>
    <path class="cls-1" d="M39.95,229.94c-.32,0-.59-.27-.59-.59s.27-.59.59-.59h.23c1,0,1.38-.52,1.38-1.52v-5.07c0-.34.27-.6.6-.6s.6.27.6.6v5.05c0,1.66-.85,2.71-2.58,2.71h-.25ZM42.17,220.68c-.41,0-.75-.32-.75-.74s.33-.74.75-.74.75.32.75.74-.33.74-.75.74Z"/>
    <path class="cls-1" d="M45.19,224.73v2.33c0,.33-.27.6-.6.6s-.6-.27-.6-.6v-7.25c0-.33.27-.6.6-.6s.6.27.6.6v4.7l2.76-2.76c.23-.23.6-.23.84,0,.22.23.22.6,0,.84l-2.03,2.03,2.03,2.03c.23.23.22.6,0,.84-.23.23-.6.23-.84,0l-2.76-2.76Z"/>
    <path class="cls-1" d="M51.8,222.42c-.13-.3,0-.66.3-.79.3-.15.66,0,.79.3l1.74,4.02,1.74-4.02c.13-.3.49-.45.79-.3.3.13.44.49.3.79l-2.16,4.82c-.11.26-.35.44-.67.44s-.56-.18-.67-.44l-2.16-4.82Z"/>
    <path class="cls-1" d="M60.94,227.57c-1.79,0-3.05-1.33-3.05-2.96s1.26-2.96,3.05-2.96h.7c1.13,0,1.87.79,1.87,1.77s-.75,1.77-1.87,1.77h-1.13c-.32,0-.59-.27-.59-.59s.27-.59.59-.59h1.13c.4,0,.67-.27.67-.59s-.27-.59-.67-.59h-.7c-1.07,0-1.84.8-1.84,1.77s.77,1.77,1.84,1.77h1.71c.32,0,.59.27.59.59s-.27.59-.59.59h-1.71Z"/>
    <path class="cls-1" d="M68.96,223.97c0,.34-.27.6-.6.6s-.6-.27-.6-.59v-.08c0-.59-.44-1.06-1.06-1.06h-1.06v4.22c0,.33-.27.6-.6.6s-.6-.27-.6-.6v-4.8c0-.33.27-.6.6-.6h1.66c1.27,0,2.27,1.02,2.27,2.24v.07Z"/>
    <path class="cls-1" d="M72.66,227.57c-1.79,0-3.05-1.33-3.05-2.96s1.26-2.96,3.05-2.96h1.37v-1.85c0-.33.27-.6.6-.6s.6.27.6.6v7.16c0,.33-.27.6-.6.6h-1.97ZM74.03,222.84h-1.37c-1.07,0-1.84.8-1.84,1.77s.77,1.77,1.84,1.77h1.37v-3.55Z"/>
    <path class="cls-1" d="M79.2,227.57c-1.79,0-3.04-1.33-3.04-2.96s1.26-2.96,3.04-2.96h.7c1.13,0,1.87.79,1.87,1.77s-.75,1.77-1.87,1.77h-1.13c-.32,0-.59-.27-.59-.59s.27-.59.59-.59h1.13c.4,0,.67-.27.67-.59s-.27-.59-.67-.59h-.7c-1.07,0-1.84.8-1.84,1.77s.77,1.77,1.84,1.77h1.71c.32,0,.59.27.59.59s-.27.59-.59.59h-1.71Z"/>
    <path class="cls-1" d="M85.56,227.57c-1.79,0-3.04-1.33-3.04-2.96s1.26-2.96,3.04-2.96h.7c1.13,0,1.87.79,1.87,1.77s-.75,1.77-1.87,1.77h-1.13c-.32,0-.59-.27-.59-.59s.27-.59.59-.59h1.13c.4,0,.67-.27.67-.59s-.27-.59-.67-.59h-.7c-1.07,0-1.84.8-1.84,1.77s.77,1.77,1.84,1.77h1.71c.32,0,.59.27.59.59s-.27.59-.59.59h-1.71Z"/>
    <path class="cls-1" d="M89.06,219.81c0-.33.27-.6.6-.6s.6.27.6.6v7.25c0,.33-.27.6-.6.6s-.6-.27-.6-.6v-7.25Z"/>
    <path class="cls-1" d="M94.22,227.57c-1.79,0-3.05-1.33-3.05-2.96s1.26-2.96,3.05-2.96h1.37v-1.85c0-.33.27-.6.6-.6s.6.27.6.6v7.16c0,.33-.27.6-.6.6h-1.97ZM95.59,222.84h-1.37c-1.07,0-1.84.8-1.84,1.77s.77,1.77,1.84,1.77h1.37v-3.55Z"/>
  </g>
</svg>