<?xml version="1.0" encoding="UTF-8"?>
<svg id="Laag_1" data-name="Laag 1" xmlns="http://www.w3.org/2000/svg" viewBox="0 0 164.41 249.45">
  <defs>
    <style>
      .cls-1 {
        stroke-linejoin: round;
        stroke-width: 5px;
      }

      .cls-1, .cls-2 {
        stroke: #1d1e1c;
        stroke-linecap: round;
      }

      .cls-1, .cls-3 {
        fill: #1d1d1b;
      }

      .cls-2 {
        fill: none;
        stroke-miterlimit: 10;
        stroke-width: 3.25px;
      }

      .cls-3, .cls-4 {
        stroke-width: 0px;
      }

      .cls-4 {
        fill: #de2b65;
      }
    </style>
  </defs>
  <rect class="cls-4" x="0" y="0" width="164.41" height="249.45"/>
  <path class="cls-3" d="M17,29.69c-.02-1.58.17-3.13.58-4.64.41-1.51,1.01-2.93,1.8-4.25.79-1.32,1.77-2.5,2.93-3.55s2.5-1.88,4.01-2.5c-1.44,1.92-2.53,3.95-3.26,6.08-.73,2.14-1.16,4.26-1.28,6.37,1.08-1.06,2.13-1.75,3.15-2.09,1.02-.34,1.97-.48,2.86-.43.96.05,1.84.28,2.65.7.8.42,1.49.98,2.07,1.69.58.71,1.02,1.54,1.33,2.48.31.95.47,1.99.47,3.11s-.23,2.26-.7,3.31c-.47,1.06-1.09,2-1.87,2.83-.78.83-1.68,1.49-2.7,1.98-1.02.49-2.07.74-3.15.74-1.34,0-2.56-.29-3.64-.86-1.08-.58-2-1.38-2.75-2.41-.76-1.03-1.35-2.27-1.78-3.73-.43-1.45-.67-3.07-.72-4.84ZM28.95,32.11c-.12-.6-.32-1.22-.61-1.87s-.71-1.22-1.28-1.71c-.56-.49-1.27-.85-2.12-1.06-.85-.22-1.9-.19-3.15.07v.83c0,1.3.09,2.51.27,3.64.18,1.13.44,2.1.77,2.92.33.82.76,1.46,1.26,1.93.5.47,1.08.7,1.73.7.72,0,1.31-.16,1.78-.47.47-.31.82-.72,1.06-1.22.24-.5.38-1.08.41-1.73.04-.65,0-1.32-.12-2.02Z"/>
  <path class="cls-3" d="M147.54,217.41c.02,1.58-.17,3.13-.58,4.64s-1.01,2.93-1.8,4.25c-.79,1.32-1.77,2.5-2.93,3.55s-2.5,1.88-4.01,2.5c1.44-1.92,2.53-3.95,3.26-6.08.73-2.14,1.16-4.26,1.28-6.37-1.08,1.06-2.13,1.75-3.15,2.09-1.02.34-1.97.48-2.86.43-.96-.05-1.84-.28-2.65-.7-.8-.42-1.49-.98-2.07-1.69s-1.02-1.54-1.33-2.48c-.31-.95-.47-1.99-.47-3.11s.23-2.26.7-3.31c.47-1.06,1.09-2,1.87-2.83s1.68-1.49,2.7-1.98c1.02-.49,2.07-.74,3.15-.74,1.34,0,2.56.29,3.64.86s2,1.38,2.75,2.41c.76,1.03,1.35,2.27,1.78,3.73s.67,3.07.72,4.84ZM135.59,215c.12.6.32,1.22.61,1.87.29.65.71,1.22,1.28,1.71.56.49,1.27.85,2.12,1.06.85.22,1.9.19,3.15-.07v-.83c0-1.3-.09-2.51-.27-3.64s-.44-2.1-.77-2.92c-.33-.82-.76-1.46-1.26-1.93s-1.08-.7-1.73-.7c-.72,0-1.31.16-1.78.47s-.82.72-1.06,1.22c-.24.5-.38,1.08-.41,1.73-.04.65,0,1.32.13,2.02Z"/>
  <line class="cls-2" x1="14.79" y1="45.48" x2="36.09" y2="45.48"/>
  <line class="cls-2" x1="149.48" y1="201.64" x2="128.18" y2="201.64"/>
  <path class="cls-1" d="M121.35,124.72c-10.81,0-20.6,4.49-27.68,11.76-7.09,7.27-11.47,17.3-11.47,28.39,0-11.09-4.38-21.12-11.46-28.39s-16.87-11.76-27.68-11.76c0-11.09,4.38-21.13,11.46-28.39,7.09-7.27,16.87-11.76,27.68-11.76s20.6,4.49,27.68,11.76c7.09,7.26,11.47,17.3,11.47,28.39Z"/>
</svg>