<?xml version="1.0" encoding="UTF-8"?>
<svg id="Laag_1" data-name="Laag 1" xmlns="http://www.w3.org/2000/svg" viewBox="0 0 164.41 249.45">
  <defs>
    <style>
      .cls-1 {
        stroke: #1d1d1b;
        stroke-width: 4.1px;
      }

      .cls-1, .cls-2 {
        stroke-miterlimit: 10;
      }

      .cls-1, .cls-2, .cls-3 {
        fill: #fff;
      }

      .cls-2 {
        stroke: #fff;
        stroke-width: .47px;
      }

      .cls-4 {
        fill: #2f2f2f;
      }

      .cls-4, .cls-5, .cls-6, .cls-3, .cls-7 {
        stroke-width: 0px;
      }

      .cls-5 {
        fill: #1d1d1b;
      }

      .cls-6 {
        fill: #8abb2a;
      }

      .cls-7 {
        fill: #eb7c19;
      }
    </style>
  </defs>
  <rect class="cls-4" x="0" y="0" width="164.41" height="249.45"/>
  <g>
    <path class="cls-7" d="M141.74,206.68c-4.35,0-7.89-3.7-7.89-8.26s3.54-8.25,7.89-8.25,7.89,3.7,7.89,8.25-3.54,8.26-7.89,8.26Z"/>
    <path class="cls-5" d="M141.74,191.17c3.8,0,6.89,3.25,6.89,7.26s-3.09,7.26-6.89,7.26-6.89-3.25-6.89-7.26,3.09-7.26,6.89-7.26M141.74,189.17c-4.91,0-8.89,4.14-8.89,9.26s3.98,9.26,8.89,9.26,8.89-4.14,8.89-9.26-3.98-9.26-8.89-9.26h0Z"/>
  </g>
  <g>
    <ellipse class="cls-6" cx="141.74" cy="226.17" rx="7.89" ry="8.26"/>
    <path class="cls-5" d="M141.74,218.92c3.8,0,6.89,3.25,6.89,7.26s-3.09,7.26-6.89,7.26-6.89-3.25-6.89-7.26,3.09-7.26,6.89-7.26M141.74,216.92c-4.91,0-8.89,4.14-8.89,9.26s3.98,9.26,8.89,9.26,8.89-4.14,8.89-9.26-3.98-9.26-8.89-9.26h0Z"/>
  </g>
  <g>
    <path class="cls-2" d="M18.01,207.79c-.34,0-.62-.28-.62-.62v-5.97c0-.34.28-.63.62-.63h1.93c2.06,0,3.63,1.57,3.63,3.61s-1.58,3.61-3.63,3.61h-1.93ZM19.95,206.59c1.35,0,2.39-1.03,2.39-2.41s-1.03-2.41-2.39-2.41h-1.31v4.82h1.31Z"/>
    <path class="cls-2" d="M29.15,204.12c0,.34-.27.61-.61.61s-.61-.27-.61-.6v-.08c0-.6-.44-1.08-1.08-1.08h-1.08v4.29c0,.34-.27.61-.61.61s-.61-.27-.61-.61v-4.88c0-.34.27-.61.61-.61h1.69c1.29,0,2.31,1.03,2.31,2.28v.07Z"/>
    <path class="cls-2" d="M31.36,207.79c-1.1,0-1.86-.84-1.86-1.86s.76-1.86,1.86-1.86h1.15c.33,0,.6.27.6.6s-.27.6-.6.6h-1.15c-.37,0-.64.32-.64.66s.26.66.64.66h2.2v-2.54c0-.6-.42-1.07-1.04-1.07h-1.93c-.33,0-.6-.27-.6-.6s.27-.6.6-.6h1.93c1.27,0,2.27,1.01,2.27,2.26v3.15c0,.34-.22.61-.61.61h-2.82Z"/>
    <path class="cls-2" d="M37.61,207.79c-1.1,0-1.86-.84-1.86-1.86s.76-1.86,1.86-1.86h1.15c.33,0,.6.27.6.6s-.27.6-.6.6h-1.15c-.37,0-.64.32-.64.66s.26.66.64.66h2.2v-2.54c0-.6-.42-1.07-1.05-1.07h-1.93c-.33,0-.6-.27-.6-.6s.27-.6.6-.6h1.93c1.27,0,2.27,1.01,2.27,2.26v3.15c0,.34-.22.61-.61.61h-2.82Z"/>
    <path class="cls-2" d="M42.88,200.77c-.42,0-.76-.33-.76-.75s.34-.75.76-.75.76.33.76.75-.34.75-.76.75ZM42.27,202.3c0-.34.27-.61.61-.61s.61.27.61.61v4.98c0,.34-.27.61-.61.61s-.61-.27-.61-.61v-4.98Z"/>
    <path class="cls-2" d="M50.03,207.79c-1.82,0-3.1-1.35-3.1-3.01s1.28-3.01,3.1-3.01h1.4v-1.89c0-.34.27-.61.61-.61s.61.27.61.61v7.29c0,.34-.27.61-.61.61h-2.01ZM51.43,202.98h-1.4c-1.09,0-1.87.82-1.87,1.81s.78,1.81,1.87,1.81h1.4v-3.61Z"/>
    <path class="cls-2" d="M56.69,207.79c-1.82,0-3.1-1.35-3.1-3.01s1.28-3.01,3.1-3.01h.72c1.15,0,1.91.81,1.91,1.81s-.76,1.81-1.91,1.81h-1.15c-.33,0-.6-.27-.6-.6s.27-.6.6-.6h1.15c.41,0,.68-.27.68-.6s-.27-.6-.68-.6h-.72c-1.09,0-1.87.82-1.87,1.81s.78,1.81,1.87,1.81h1.74c.33,0,.6.27.6.6s-.27.6-.6.6h-1.74Z"/>
    <path class="cls-2" d="M64.34,207.79c-1.1,0-1.86-.84-1.86-1.86s.76-1.86,1.86-1.86h1.15c.33,0,.6.27.6.6s-.27.6-.6.6h-1.15c-.37,0-.64.32-.64.66s.26.66.64.66h2.2v-2.54c0-.6-.42-1.07-1.05-1.07h-1.93c-.33,0-.6-.27-.6-.6s.27-.6.6-.6h1.93c1.27,0,2.27,1.01,2.27,2.26v3.15c0,.34-.22.61-.61.61h-2.82Z"/>
    <path class="cls-2" d="M72.95,204.16c0-.65-.53-1.18-1.18-1.18h-1.55v4.29c0,.34-.27.61-.61.61s-.61-.27-.61-.61v-4.88c0-.34.27-.61.61-.61h2.16c1.33,0,2.41,1.08,2.41,2.41v3.09c0,.34-.27.61-.61.61s-.61-.27-.61-.61v-3.11Z"/>
    <path class="cls-2" d="M78.21,207.79c-1.82,0-3.1-1.35-3.1-3.01s1.28-3.01,3.1-3.01h1.4v-1.89c0-.34.27-.61.61-.61s.61.27.61.61v7.29c0,.34-.27.61-.61.61h-2.01ZM79.61,202.98h-1.4c-1.09,0-1.87.82-1.87,1.81s.78,1.81,1.87,1.81h1.4v-3.61Z"/>
    <path class="cls-2" d="M84.87,207.79c-1.82,0-3.1-1.35-3.1-3.01s1.28-3.01,3.1-3.01h.72c1.15,0,1.91.81,1.91,1.81s-.76,1.81-1.91,1.81h-1.15c-.33,0-.6-.27-.6-.6s.27-.6.6-.6h1.15c.41,0,.68-.27.68-.6s-.27-.6-.68-.6h-.72c-1.09,0-1.87.82-1.87,1.81s.78,1.81,1.87,1.81h1.74c.33,0,.6.27.6.6s-.27.6-.6.6h-1.74Z"/>
    <path class="cls-2" d="M93.04,204.12c0,.34-.27.61-.61.61s-.61-.27-.61-.6v-.08c0-.6-.44-1.08-1.08-1.08h-1.08v4.29c0,.34-.27.61-.61.61s-.61-.27-.61-.61v-4.88c0-.34.27-.61.61-.61h1.69c1.29,0,2.31,1.03,2.31,2.28v.07Z"/>
    <path class="cls-2" d="M96.81,207.79c-1.82,0-3.1-1.35-3.1-3.01s1.28-3.01,3.1-3.01h.71c1.15,0,1.91.81,1.91,1.81s-.76,1.81-1.91,1.81h-1.15c-.33,0-.6-.27-.6-.6s.27-.6.6-.6h1.15c.41,0,.68-.27.68-.6s-.27-.6-.68-.6h-.71c-1.09,0-1.87.82-1.87,1.81s.78,1.81,1.87,1.81h1.74c.33,0,.6.27.6.6s-.27.6-.6.6h-1.74Z"/>
    <path class="cls-2" d="M17.85,223.89c-.33,0-.6-.27-.6-.6s.27-.6.6-.6h2.54c.41,0,.68-.27.68-.6s-.27-.6-.68-.6h-1.41c-1.15,0-1.91-.81-1.91-1.81s.76-1.81,1.91-1.81h2.54c.33,0,.6.27.6.6s-.27.6-.6.6h-2.54c-.41,0-.68.27-.68.6s.27.6.68.6h1.41c1.15,0,1.91.81,1.91,1.81s-.76,1.81-1.91,1.81h-2.54Z"/>
    <path class="cls-2" d="M24.47,223.89v1.89c0,.34-.27.61-.61.61s-.61-.27-.61-.61v-7.29c0-.34.27-.61.61-.61h2.01c1.82,0,3.1,1.35,3.1,3.01s-1.28,3.01-3.1,3.01h-1.4ZM25.87,222.69c1.09,0,1.87-.82,1.87-1.81s-.78-1.81-1.87-1.81h-1.4v3.61h1.4Z"/>
    <path class="cls-2" d="M32.82,223.89c-1.82,0-3.1-1.35-3.1-3.01s1.28-3.01,3.1-3.01h.72c1.15,0,1.91.81,1.91,1.81s-.76,1.81-1.91,1.81h-1.15c-.33,0-.6-.27-.6-.6s.27-.6.6-.6h1.15c.41,0,.68-.27.68-.6s-.27-.6-.68-.6h-.72c-1.09,0-1.87.82-1.87,1.81s.78,1.81,1.87,1.81h1.74c.33,0,.6.27.6.6s-.27.6-.6.6h-1.74Z"/>
    <path class="cls-2" d="M39.3,223.89c-1.82,0-3.1-1.35-3.1-3.01s1.28-3.01,3.1-3.01h.72c1.15,0,1.91.81,1.91,1.81s-.76,1.81-1.91,1.81h-1.15c-.33,0-.6-.27-.6-.6s.27-.6.6-.6h1.15c.41,0,.68-.27.68-.6s-.27-.6-.68-.6h-.72c-1.09,0-1.87.82-1.87,1.81s.78,1.81,1.87,1.81h1.74c.33,0,.6.27.6.6s-.27.6-.6.6h-1.74Z"/>
    <path class="cls-2" d="M42.86,215.99c0-.34.27-.61.61-.61s.61.27.61.61v7.38c0,.34-.27.61-.61.61s-.61-.27-.61-.61v-7.38Z"/>
    <path class="cls-2" d="M49.92,220.22c0,.34-.27.61-.61.61s-.61-.27-.61-.6v-.08c0-.6-.44-1.08-1.08-1.08h-1.08v4.29c0,.34-.27.61-.61.61s-.61-.27-.61-.61v-4.88c0-.34.27-.61.61-.61h1.69c1.29,0,2.31,1.03,2.31,2.28v.07Z"/>
    <path class="cls-2" d="M51.5,216.87c-.42,0-.76-.33-.76-.75s.34-.75.76-.75.76.33.76.75-.34.75-.76.75ZM50.88,218.4c0-.34.27-.61.61-.61s.61.27.61.61v4.98c0,.34-.27.61-.61.61s-.61-.27-.61-.61v-4.98Z"/>
    <path class="cls-2" d="M56.14,223.89c-1.82,0-3.1-1.35-3.1-3.01s1.28-3.01,3.1-3.01h1.25c.33,0,.6.27.6.6s-.27.6-.6.6h-1.25c-1.09,0-1.87.82-1.87,1.81s.78,1.81,1.87,1.81h1.25c.33,0,.6.27.6.6s-.27.6-.6.6h-1.25Z"/>
    <path class="cls-2" d="M62.86,220.26c0-.65-.53-1.18-1.18-1.18h-1.55v4.29c0,.34-.27.61-.61.61s-.61-.27-.61-.61v-7.38c0-.34.27-.61.61-.61s.61.27.61.61v1.89h1.55c1.33,0,2.41,1.08,2.41,2.41v3.09c0,.34-.27.61-.61.61s-.61-.27-.61-.61v-3.11Z"/>
    <path class="cls-2" d="M67.92,223.89c-1.17,0-2.12-.95-2.12-2.12v-2.69h-.72c-.33,0-.6-.27-.6-.6s.27-.6.6-.6h.72v-1.2c0-.34.27-.61.61-.61s.61.27.61.61v1.2h1.58c.33,0,.6.27.6.6s-.27.6-.6.6h-1.58v2.7c0,.51.39.91.91.91h.67c.33,0,.6.27.6.6s-.27.6-.6.6h-.68Z"/>
    <path class="cls-2" d="M70.66,216.87c-.42,0-.76-.33-.76-.75s.34-.75.76-.75.76.33.76.75-.34.75-.76.75ZM70.04,218.4c0-.34.27-.61.61-.61s.61.27.61.61v4.98c0,.34-.27.61-.61.61s-.61-.27-.61-.61v-4.98Z"/>
    <path class="cls-2" d="M76.45,220.26c0-.65-.53-1.18-1.18-1.18h-1.54v4.29c0,.34-.27.61-.61.61s-.61-.27-.61-.61v-4.88c0-.34.27-.61.61-.61h2.16c1.33,0,2.41,1.08,2.41,2.41v3.09c0,.34-.27.61-.61.61s-.61-.27-.61-.61v-3.11Z"/>
    <path class="cls-2" d="M80.03,226.3c-.33,0-.6-.27-.6-.6s.27-.6.6-.6h2.16c.51,0,.92-.41.92-.92v-.28h-1.4c-1.82,0-3.1-1.35-3.1-3.01s1.28-3.01,3.1-3.01h2.01c.34,0,.61.27.61.61v5.69c0,1.17-.95,2.12-2.12,2.12h-2.18ZM83.11,219.08h-1.4c-1.09,0-1.87.82-1.87,1.81s.78,1.81,1.87,1.81h1.4v-3.61Z"/>
    <path class="cls-2" d="M90.96,224.04c-1.87,0-3.19-1.41-3.19-3.16s1.32-3.16,3.19-3.16,3.19,1.41,3.19,3.16-1.33,3.16-3.19,3.16ZM90.96,218.92c-1.14,0-1.97.89-1.97,1.96s.83,1.97,1.97,1.97,1.97-.89,1.97-1.97-.83-1.96-1.97-1.96Z"/>
    <path class="cls-2" d="M96.32,223.89v1.89c0,.34-.27.61-.61.61s-.61-.27-.61-.61v-7.29c0-.34.27-.61.61-.61h2.01c1.82,0,3.1,1.35,3.1,3.01s-1.28,3.01-3.1,3.01h-1.4ZM97.72,222.69c1.09,0,1.87-.82,1.87-1.81s-.78-1.81-1.87-1.81h-1.4v3.61h1.4Z"/>
  </g>
  <g>
    <path class="cls-3" d="M59.83,28.54c.35-.52.7-.92,1.04-1.22.34-.3.67-.53.99-.7.32-.17.61-.28.89-.33s.52-.08.74-.08c.83,0,1.48.17,1.92.53.77.03,1.48.05,2.14.05s1.3-.01,1.92-.04c.62-.03,1.25-.05,1.86-.09.62-.03,1.27-.06,1.95-.08-.02.72-.24,1.34-.67,1.86-.43.53-.98.94-1.65,1.25-.67.31-1.4.5-2.19.58-.79.08-1.56.01-2.31-.19,0,.6-.03,1.23-.08,1.9-.03.23-.05.6-.06,1.09,0,.49-.02,1.05-.04,1.69,1.23.02,2.4,0,3.49-.02,1.09-.03,2.1-.07,3.01-.1-.17.52-.46,1-.88,1.44-.42.44-.92.83-1.5,1.16s-1.23.6-1.94.8-1.43.32-2.16.35c.02.63.04,1.26.07,1.88.03.62.08,1.19.12,1.73.05.53.11,1.01.18,1.42.07.42.15.73.25.95-.92-.02-1.65-.1-2.21-.24s-.99-.38-1.3-.71c-.31-.33-.52-.78-.62-1.34-.11-.56-.16-1.26-.16-2.11,0-1.75,0-3.25-.01-4.51,0-1.26-.04-2.31-.1-3.16-.06-.85-.15-1.53-.26-2.04-.12-.51-.28-.89-.49-1.15-.21-.26-.47-.42-.79-.49-.32-.07-.7-.09-1.15-.08Z"/>
    <path class="cls-3" d="M75.8,26.76c.97-.07,1.77.11,2.41.54s1.15,1.01,1.53,1.76.62,1.63.75,2.64c.12,1.01.15,2.06.06,3.15-.08,1.09-.25,2.18-.51,3.26s-.58,2.08-.98,2.99c-.39.91-.84,1.69-1.34,2.35-.5.66-1.03,1.1-1.6,1.34.05-.43.09-1.11.11-2.03.03-.92.04-1.96.05-3.12,0-1.17,0-2.4-.01-3.7-.02-1.3-.05-2.55-.09-3.74-.04-1.19-.1-2.27-.16-3.24-.07-.97-.14-1.7-.22-2.2Z"/>
    <path class="cls-3" d="M83.8,25.21c1.47-.02,2.53.18,3.19.59.66.41.98.89.95,1.45s-.37,1.12-1.04,1.69c-.67.57-1.59,1-2.78,1.3.02-.55.02-1.03.01-1.42,0-.4-.02-.78-.05-1.15-.03-.37-.06-.74-.11-1.11-.05-.38-.11-.82-.17-1.34ZM83.88,31.71c.93-.05,1.71.07,2.34.36.62.29,1.12.71,1.47,1.24.36.53.6,1.16.71,1.88.12.72.13,1.46.05,2.24-.08.77-.25,1.55-.5,2.33-.25.77-.56,1.5-.94,2.17s-.8,1.27-1.29,1.77c-.48.51-.99.87-1.53,1.09.05-.43.09-.99.11-1.66.03-.68.04-1.41.05-2.21s0-1.63-.01-2.5c-.02-.87-.05-1.71-.09-2.54-.04-.83-.1-1.6-.16-2.33-.07-.73-.14-1.34-.22-1.84Z"/>
    <path class="cls-3" d="M91.28,29.59c.65-.05,1.22.03,1.71.24.49.21.93.5,1.31.89.38-.3.85-.51,1.39-.62.54-.12,1.1-.16,1.69-.12.92.05,1.76.28,2.54.69.78.41,1.45.95,2.01,1.61.57.67,1,1.43,1.31,2.29.31.86.45,1.77.44,2.74-.02.93-.16,1.8-.44,2.59-.28.79-.67,1.48-1.19,2.06-.52.58-1.15,1.05-1.9,1.39-.75.34-1.61.52-2.58.54-.87.02-1.67-.12-2.42-.42-.2.7-.43,1.36-.7,1.99s-.55,1.18-.85,1.67c-.3.49-.62.91-.95,1.26-.33.35-.68.6-1.05.75.05-.43.09-1.15.11-2.14.03-.99.04-2.13.05-3.41,0-1.28,0-2.64-.01-4.06-.02-1.43-.05-2.79-.09-4.09-.04-1.3-.1-2.47-.16-3.51-.07-1.04-.14-1.81-.23-2.31ZM95.38,32.54c.22.58.38,1.22.5,1.91.12.69.18,1.41.2,2.16s-.01,1.52-.09,2.31-.19,1.57-.34,2.34c.17-.02.33-.03.49-.05s.32-.05.49-.1c1.77-.43,2.62-1.74,2.57-3.92-.02-.55-.1-1.09-.26-1.62-.16-.53-.38-1.01-.68-1.43-.29-.42-.64-.77-1.04-1.05-.4-.28-.85-.45-1.35-.5-.08-.02-.17-.02-.25-.02s-.17,0-.25-.03Z"/>
  </g>
  <path class="cls-1" d="M86.69,81.32c-20.02,0-36.39,15.59-37.66,35.29h-4.25c-3.68,0-5.97,3.98-4.14,7.16l9.5,16.45c1.84,3.18,6.43,3.18,8.27,0l9.5-16.45c1.84-3.18-.46-7.16-4.14-7.16h-4.46c1.25-14.03,13.02-25.03,27.37-25.03,15.18,0,27.49,12.31,27.49,27.49s-11.87,27.03-26.67,27.47v10.26c20.47-.44,36.93-17.15,36.93-37.73s-16.9-37.75-37.75-37.75Z"/>
</svg>