<?xml version="1.0" encoding="UTF-8"?>
<svg id="Laag_1" data-name="Laag 1" xmlns="http://www.w3.org/2000/svg" viewBox="0 0 164.41 249.45">
  <defs>
    <style>
      .cls-1 {
        stroke: #fff;
        stroke-miterlimit: 10;
        stroke-width: .48px;
      }

      .cls-1, .cls-2, .cls-3 {
        fill: #fff;
      }

      .cls-4, .cls-2 {
        stroke: #1d1d1b;
        stroke-linecap: round;
        stroke-linejoin: round;
        stroke-width: 3.72px;
      }

      .cls-4, .cls-5 {
        fill: #de2b65;
      }

      .cls-6 {
        fill: #2f2f2f;
      }

      .cls-6, .cls-7, .cls-5, .cls-8, .cls-3 {
        stroke-width: 0px;
      }

      .cls-7 {
        fill: #1d1d1b;
      }

      .cls-8 {
        fill: #8abb2a;
      }
    </style>
  </defs>
  <rect class="cls-6" x="0" y="0" width="164.41" height="249.45"/>
  <g>
    <path class="cls-5" d="M141.74,206.68c-4.35,0-7.89-3.7-7.89-8.26s3.54-8.25,7.89-8.25,7.89,3.7,7.89,8.25-3.54,8.26-7.89,8.26Z"/>
    <path class="cls-7" d="M141.74,191.17c3.8,0,6.89,3.25,6.89,7.26s-3.09,7.26-6.89,7.26-6.89-3.25-6.89-7.26,3.09-7.26,6.89-7.26M141.74,189.17c-4.91,0-8.89,4.14-8.89,9.26s3.98,9.26,8.89,9.26,8.89-4.14,8.89-9.26-3.98-9.26-8.89-9.26h0Z"/>
  </g>
  <g>
    <ellipse class="cls-8" cx="141.74" cy="226.17" rx="7.89" ry="8.26"/>
    <path class="cls-7" d="M141.74,218.92c3.8,0,6.89,3.25,6.89,7.26s-3.09,7.26-6.89,7.26-6.89-3.25-6.89-7.26,3.09-7.26,6.89-7.26M141.74,216.92c-4.91,0-8.89,4.14-8.89,9.26s3.98,9.26,8.89,9.26,8.89-4.14,8.89-9.26-3.98-9.26-8.89-9.26h0Z"/>
  </g>
  <g>
    <path class="cls-3" d="M56.43,44.51c-.75.02-1.48-.09-2.19-.32-.71-.23-1.31-.59-1.81-1.08-.57.83-1.17,1.39-1.83,1.67.03-.38.07-.93.1-1.64.03-.71.06-1.52.09-2.42s.04-1.88.05-2.9c0-1.02,0-2.05,0-3.07,0-1.03-.03-2-.06-2.93-.03-.92-.08-1.75-.12-2.46-.4-.23-.71-.5-.93-.81s-.36-.63-.42-.96c-.07-.33-.07-.68,0-1.04.07-.36.18-.7.35-1.04.38.47.82.8,1.3.99.48.19,1.15.3,2,.31,1.27.02,2.42.08,3.45.19,1.03.11,1.93.31,2.7.6.77.29,1.39.7,1.86,1.21.47.52.78,1.18.91,2,.13.75.08,1.45-.15,2.11s-.75,1.3-1.55,1.94c.6.3,1.09.66,1.46,1.09.38.43.66.87.85,1.33.19.46.31.91.35,1.36.04.45.03.86-.04,1.23-.1.57-.29,1.12-.58,1.67s-.68,1.04-1.19,1.47c-.51.43-1.14.79-1.9,1.06-.76.28-1.66.42-2.71.44ZM54.85,41.49c.48.1.96.12,1.43.05.47-.07.88-.21,1.25-.44.37-.22.67-.52.9-.89.23-.37.35-.8.35-1.3s-.11-.93-.31-1.3c-.21-.37-.5-.67-.86-.91-.37-.24-.8-.43-1.29-.56-.49-.13-1-.23-1.54-.3-.08.88-.23,1.75-.43,2.61-.2.86-.45,1.66-.75,2.41.18.15.38.28.58.39s.42.19.67.24ZM54.08,30.09c.28.58.49,1.24.61,1.98s.18,1.5.16,2.3c.85-.15,1.53-.43,2.03-.84.5-.41.75-.94.75-1.59,0-.37-.09-.67-.26-.91-.17-.24-.42-.43-.74-.56-.32-.13-.69-.23-1.11-.29-.42-.06-.89-.09-1.39-.09h-.05Z"/>
    <path class="cls-3" d="M65.65,26.76c.97-.07,1.77.11,2.41.54.64.42,1.15,1.01,1.52,1.76s.62,1.63.75,2.64c.12,1.01.15,2.06.06,3.15s-.25,2.18-.51,3.26c-.26,1.08-.58,2.08-.97,2.99s-.84,1.69-1.34,2.35c-.5.66-1.03,1.1-1.6,1.34.05-.43.09-1.11.11-2.03.03-.92.04-1.96.05-3.12,0-1.17,0-2.4-.01-3.7-.02-1.3-.05-2.55-.09-3.74-.04-1.19-.1-2.27-.16-3.24-.07-.97-.14-1.7-.23-2.2Z"/>
    <path class="cls-3" d="M81.2,29.01c-.87.72-1.56,1.51-2.07,2.38-.52.87-.89,1.73-1.12,2.6-.23.87-.35,1.7-.34,2.51,0,.81.11,1.53.31,2.16.2.63.47,1.14.82,1.51.35.38.75.56,1.2.56.48,0,.89-.16,1.24-.48.34-.32.6-.73.79-1.25.18-.52.28-1.11.29-1.77,0-.67-.08-1.35-.25-2.06-.18-.71-.44-1.4-.8-2.09-.36-.68-.82-1.3-1.39-1.85,1.32.02,2.42.27,3.32.75s1.6,1.11,2.11,1.89c.51.77.83,1.65.96,2.61s.08,1.95-.15,2.95c-.15.68-.41,1.34-.78,1.96-.37.62-.81,1.17-1.34,1.65-.53.47-1.12.85-1.8,1.12-.67.27-1.4.41-2.16.41-.98,0-1.87-.17-2.65-.5-.78-.33-1.45-.8-2-1.41s-.98-1.33-1.29-2.17-.47-1.76-.49-2.76c-.03-1.07.12-2.08.45-3.05s.83-1.84,1.47-2.62c.65-.78,1.45-1.44,2.4-1.98.95-.53,2.03-.89,3.25-1.08Z"/>
    <path class="cls-3" d="M99.83,40.16c-.05.7-.23,1.3-.54,1.8-.31.5-.69.91-1.15,1.24-.46.33-.98.56-1.58.71s-1.2.22-1.84.2c-1.02-.02-1.92-.2-2.7-.56-.78-.36-1.45-.85-1.99-1.46-.54-.62-.96-1.35-1.25-2.19-.29-.84-.45-1.75-.46-2.74-.02-1.02.14-1.98.46-2.9.32-.92.78-1.72,1.38-2.42.59-.7,1.29-1.27,2.11-1.7.82-.43,1.71-.67,2.67-.72.58-.03,1.15,0,1.69.11.54.11,1.02.31,1.42.6.41.29.73.67.98,1.15.24.48.36,1.07.36,1.79-.5-.43-.96-.71-1.38-.83-.42-.12-.92-.13-1.5-.05-.52.07-.99.25-1.41.54-.42.29-.79.66-1.1,1.11s-.55.95-.71,1.51c-.17.56-.26,1.13-.27,1.71-.03,1.17.18,2.09.65,2.77.47.68,1.15,1.14,2.05,1.38.77.18,1.51.19,2.22.01s1.34-.53,1.88-1.06Z"/>
    <path class="cls-3" d="M101.95,26.51c.92-.07,1.69.1,2.33.49s1.14.94,1.51,1.65c.38.71.64,1.54.79,2.49.15.95.2,1.95.15,3,.65-.37,1.26-.73,1.84-1.09.57-.36,1.14-.74,1.69-1.15.55-.41,1.1-.85,1.65-1.34s1.12-1.04,1.73-1.68c.72,1.63.77,3.12.15,4.48-.62,1.35-1.99,2.61-4.12,3.77.63,1.2,1.42,2.44,2.38,3.71s2.06,2.46,3.33,3.56c-.77-.02-1.57-.15-2.41-.41-.84-.26-1.68-.63-2.5-1.11-.83-.48-1.62-1.07-2.38-1.77-.76-.7-1.44-1.52-2.04-2.45-.2.75-.43,1.46-.7,2.12-.27.67-.56,1.27-.89,1.81-.33.54-.67,1-1.03,1.38-.36.38-.74.65-1.14.81.05-.43.09-1.12.11-2.05s.04-1.99.05-3.17c0-1.18,0-2.43-.01-3.75-.02-1.32-.04-2.58-.09-3.79-.04-1.21-.1-2.3-.16-3.29s-.14-1.73-.22-2.23Z"/>
  </g>
  <g>
    <path class="cls-1" d="M18.43,193.87c-.35,0-.63-.29-.63-.63v-6.07c0-.35.29-.63.63-.63h2.99c1.15,0,2.09.88,2.09,2.09,0,.66-.3,1.23-.76,1.58.46.35.76.92.76,1.59,0,1.21-.93,2.08-2.09,2.08h-2.99ZM20.25,190.82c-.33,0-.61-.28-.61-.61s.28-.61.61-.61h1.06c.58,0,.92-.42.92-.91s-.35-.92-.92-.92h-2.25v4.89h2.25c.58,0,.92-.42.92-.91s-.35-.92-.92-.92h-1.06Z"/>
    <path class="cls-1" d="M24.59,185.85c0-.35.28-.62.62-.62s.62.28.62.62v7.5c0,.35-.28.62-.62.62s-.62-.28-.62-.62v-7.5Z"/>
    <path class="cls-1" d="M30.03,194.02c-1.9,0-3.24-1.43-3.24-3.21s1.34-3.21,3.24-3.21,3.24,1.43,3.24,3.21-1.35,3.21-3.24,3.21ZM30.03,188.82c-1.15,0-2,.9-2,1.99s.84,2,2,2,1.99-.9,1.99-2-.84-1.99-1.99-1.99Z"/>
    <path class="cls-1" d="M35.46,190.93v2.41c0,.35-.28.62-.62.62s-.62-.28-.62-.62v-7.5c0-.35.28-.62.62-.62s.62.28.62.62v4.86l2.85-2.85c.24-.24.62-.24.86,0,.23.24.23.62,0,.86l-2.1,2.1,2.1,2.1c.24.24.23.62,0,.86-.24.24-.62.24-.86,0l-2.85-2.85Z"/>
    <path class="cls-1" d="M41.39,190.93v2.41c0,.35-.28.62-.62.62s-.62-.28-.62-.62v-7.5c0-.35.28-.62.62-.62s.62.28.62.62v4.86l2.85-2.85c.24-.24.62-.24.86,0,.23.24.23.62,0,.86l-2.1,2.1,2.1,2.1c.24.24.23.62,0,.86-.24.24-.62.24-.86,0l-2.85-2.85Z"/>
    <path class="cls-1" d="M48.58,193.87c-1.85,0-3.15-1.37-3.15-3.06s1.3-3.06,3.15-3.06h.73c1.16,0,1.94.82,1.94,1.83s-.77,1.83-1.94,1.83h-1.16c-.33,0-.61-.28-.61-.61s.28-.61.61-.61h1.16c.42,0,.69-.28.69-.61s-.28-.61-.69-.61h-.73c-1.11,0-1.9.83-1.9,1.83s.8,1.83,1.9,1.83h1.76c.34,0,.61.28.61.61s-.28.61-.61.61h-1.76Z"/>
    <path class="cls-1" d="M55.16,193.87c-1.85,0-3.15-1.37-3.15-3.06s1.3-3.06,3.15-3.06h.73c1.16,0,1.94.82,1.94,1.83s-.77,1.83-1.94,1.83h-1.16c-.33,0-.61-.28-.61-.61s.28-.61.61-.61h1.16c.42,0,.69-.28.69-.61s-.28-.61-.69-.61h-.73c-1.11,0-1.9.83-1.9,1.83s.8,1.83,1.9,1.83h1.76c.34,0,.61.28.61.61s-.28.61-.61.61h-1.76Z"/>
    <path class="cls-1" d="M63.45,190.15c0,.35-.28.62-.62.62s-.62-.28-.62-.61v-.08c0-.61-.45-1.09-1.09-1.09h-1.1v4.36c0,.35-.28.62-.62.62s-.62-.28-.62-.62v-4.96c0-.35.28-.62.62-.62h1.72c1.31,0,2.34,1.05,2.34,2.32v.07Z"/>
    <path class="cls-1" d="M67.24,193.87c-1.19,0-2.16-.97-2.16-2.16v-2.73h-.73c-.33,0-.61-.28-.61-.61s.28-.61.61-.61h.73v-1.22c0-.35.28-.62.62-.62s.62.28.62.62v1.22h1.6c.33,0,.61.28.61.61s-.28.61-.61.61h-1.6v2.74c0,.52.39.92.92.92h.68c.33,0,.61.28.61.61s-.28.61-.61.61h-.69Z"/>
    <path class="cls-1" d="M74.78,193.87c-1.85,0-3.15-1.37-3.15-3.06s1.3-3.06,3.15-3.06h.73c1.16,0,1.94.82,1.94,1.83s-.77,1.83-1.94,1.83h-1.16c-.33,0-.61-.28-.61-.61s.28-.61.61-.61h1.16c.42,0,.69-.28.69-.61s-.28-.61-.69-.61h-.73c-1.11,0-1.9.83-1.9,1.83s.8,1.83,1.9,1.83h1.76c.34,0,.61.28.61.61s-.28.61-.61.61h-1.76Z"/>
    <path class="cls-1" d="M81.36,193.87c-1.85,0-3.15-1.37-3.15-3.06s1.3-3.06,3.15-3.06h.73c1.16,0,1.94.82,1.94,1.83s-.77,1.83-1.94,1.83h-1.16c-.33,0-.61-.28-.61-.61s.28-.61.61-.61h1.16c.42,0,.69-.28.69-.61s-.28-.61-.69-.61h-.73c-1.11,0-1.9.83-1.9,1.83s.8,1.83,1.9,1.83h1.76c.34,0,.61.28.61.61s-.28.61-.61.61h-1.76Z"/>
    <path class="cls-1" d="M88.99,190.18c0-.66-.54-1.2-1.2-1.2h-1.57v4.36c0,.35-.28.62-.62.62s-.62-.28-.62-.62v-4.96c0-.35.28-.62.62-.62h2.19c1.35,0,2.45,1.1,2.45,2.45v3.14c0,.35-.28.62-.62.62s-.62-.28-.62-.62v-3.16Z"/>
    <path class="cls-1" d="M19.4,210.22c-1.12,0-1.89-.85-1.89-1.89s.77-1.89,1.89-1.89h1.17c.33,0,.61.28.61.61s-.28.61-.61.61h-1.17c-.38,0-.65.32-.65.67s.26.67.65.67h2.24v-2.58c0-.61-.43-1.08-1.06-1.08h-1.96c-.33,0-.61-.28-.61-.61s.28-.61.61-.61h1.96c1.29,0,2.31,1.03,2.31,2.29v3.19c0,.35-.22.62-.62.62h-2.86Z"/>
    <path class="cls-1" d="M26.98,210.22c-1.85,0-3.15-1.37-3.15-3.06s1.3-3.06,3.15-3.06h1.27c.33,0,.61.28.61.61s-.28.61-.61.61h-1.27c-1.11,0-1.9.83-1.9,1.83s.8,1.83,1.9,1.83h1.27c.33,0,.61.28.61.61s-.28.61-.61.61h-1.27Z"/>
    <path class="cls-1" d="M32.77,210.22c-1.19,0-2.16-.97-2.16-2.16v-2.73h-.73c-.33,0-.61-.28-.61-.61s.28-.61.61-.61h.73v-1.22c0-.35.28-.62.62-.62s.62.28.62.62v1.22h1.6c.33,0,.61.28.61.61s-.28.61-.61.61h-1.6v2.74c0,.52.39.92.92.92h.68c.33,0,.61.28.61.61s-.28.61-.61.61h-.69Z"/>
    <path class="cls-1" d="M35.55,203.09c-.43,0-.77-.33-.77-.76s.35-.76.77-.76.77.33.77.76-.35.76-.77.76ZM34.93,204.64c0-.35.28-.62.62-.62s.62.28.62.62v5.05c0,.35-.28.62-.62.62s-.62-.28-.62-.62v-5.05Z"/>
    <path class="cls-1" d="M40.27,210.22c-1.85,0-3.15-1.37-3.15-3.06s1.3-3.06,3.15-3.06h.73c1.17,0,1.94.82,1.94,1.83s-.77,1.83-1.94,1.83h-1.17c-.33,0-.61-.28-.61-.61s.28-.61.61-.61h1.17c.42,0,.69-.28.69-.61s-.28-.61-.69-.61h-.73c-1.11,0-1.9.83-1.9,1.83s.8,1.83,1.9,1.83h1.76c.33,0,.61.28.61.61s-.28.61-.61.61h-1.76Z"/>
    <path class="cls-1" d="M45.13,207.28v2.41c0,.35-.28.62-.62.62s-.62-.28-.62-.62v-7.5c0-.35.28-.62.62-.62s.62.28.62.62v4.86l2.85-2.85c.24-.24.62-.24.87,0,.23.24.23.62,0,.86l-2.1,2.1,2.1,2.1c.24.24.23.62,0,.86-.24.24-.62.24-.87,0l-2.85-2.85Z"/>
    <path class="cls-1" d="M51.43,210.22c-1.12,0-1.89-.85-1.89-1.89s.77-1.89,1.89-1.89h1.16c.33,0,.61.28.61.61s-.28.61-.61.61h-1.16c-.38,0-.65.32-.65.67s.27.67.65.67h2.24v-2.58c0-.61-.43-1.08-1.06-1.08h-1.96c-.33,0-.61-.28-.61-.61s.28-.61.61-.61h1.96c1.29,0,2.31,1.03,2.31,2.29v3.19c0,.35-.22.62-.62.62h-2.86Z"/>
    <path class="cls-1" d="M57.78,210.22c-1.12,0-1.89-.85-1.89-1.89s.77-1.89,1.89-1.89h1.16c.33,0,.61.28.61.61s-.28.61-.61.61h-1.16c-.38,0-.65.32-.65.67s.27.67.65.67h2.24v-2.58c0-.61-.43-1.08-1.06-1.08h-1.96c-.33,0-.61-.28-.61-.61s.28-.61.61-.61h1.96c1.29,0,2.31,1.03,2.31,2.29v3.19c0,.35-.22.62-.62.62h-2.86Z"/>
    <path class="cls-1" d="M67.19,206.49c0,.35-.28.62-.62.62s-.62-.28-.62-.61v-.08c0-.61-.45-1.09-1.1-1.09h-1.09v4.36c0,.35-.28.62-.62.62s-.62-.28-.62-.62v-4.96c0-.35.28-.62.62-.62h1.72c1.31,0,2.34,1.05,2.34,2.32v.07Z"/>
    <path class="cls-1" d="M70.97,210.22c-1.19,0-2.16-.97-2.16-2.16v-2.73h-.73c-.33,0-.61-.28-.61-.61s.28-.61.61-.61h.73v-1.22c0-.35.28-.62.62-.62s.62.28.62.62v1.22h1.6c.33,0,.61.28.61.61s-.28.61-.61.61h-1.6v2.74c0,.52.39.92.92.92h.68c.33,0,.61.28.61.61s-.28.61-.61.61h-.69Z"/>
    <path class="cls-1" d="M78.52,210.22c-1.85,0-3.15-1.37-3.15-3.06s1.3-3.06,3.15-3.06h1.42v-1.91c0-.35.28-.62.62-.62s.62.28.62.62v7.4c0,.35-.28.62-.62.62h-2.04ZM79.94,205.33h-1.42c-1.11,0-1.9.83-1.9,1.83s.8,1.83,1.9,1.83h1.42v-3.67Z"/>
    <path class="cls-1" d="M83.06,203.09c-.43,0-.77-.33-.77-.76s.35-.76.77-.76.77.33.77.76-.35.76-.77.76ZM82.43,204.64c0-.35.28-.62.62-.62s.62.28.62.62v5.05c0,.35-.28.62-.62.62s-.62-.28-.62-.62v-5.05Z"/>
    <path class="cls-1" d="M87.77,210.22c-1.85,0-3.15-1.37-3.15-3.06s1.3-3.06,3.15-3.06h.73c1.16,0,1.94.82,1.94,1.83s-.77,1.83-1.94,1.83h-1.17c-.33,0-.61-.28-.61-.61s.28-.61.61-.61h1.17c.42,0,.69-.28.69-.61s-.28-.61-.69-.61h-.73c-1.11,0-1.9.83-1.9,1.83s.79,1.83,1.9,1.83h1.76c.33,0,.61.28.61.61s-.28.61-.61.61h-1.76Z"/>
    <path class="cls-1" d="M96.91,210.22c-1.19,0-2.16-.97-2.16-2.16v-2.73h-.72c-.33,0-.61-.28-.61-.61s.28-.61.61-.61h.72v-1.22c0-.35.28-.62.62-.62s.62.28.62.62v1.22h1.6c.33,0,.61.28.61.61s-.28.61-.61.61h-1.6v2.74c0,.52.39.92.92.92h.68c.33,0,.61.28.61.61s-.28.61-.61.61h-.69Z"/>
    <path class="cls-1" d="M101.75,210.22c-1.84,0-3.15-1.37-3.15-3.06s1.3-3.06,3.15-3.06h.73c1.16,0,1.94.82,1.94,1.83s-.77,1.83-1.94,1.83h-1.16c-.33,0-.61-.28-.61-.61s.28-.61.61-.61h1.16c.42,0,.69-.28.69-.61s-.28-.61-.69-.61h-.73c-1.11,0-1.9.83-1.9,1.83s.8,1.83,1.9,1.83h1.77c.33,0,.61.28.61.61s-.28.61-.61.61h-1.77Z"/>
    <path class="cls-1" d="M106.62,212.66c-.33,0-.61-.28-.61-.61s.28-.61.61-.61h2.19c.52,0,.93-.42.93-.93v-.29h-1.42c-1.84,0-3.15-1.37-3.15-3.06s1.3-3.06,3.15-3.06h2.04c.35,0,.62.28.62.62v5.78c0,1.19-.97,2.16-2.16,2.16h-2.21ZM109.74,205.33h-1.42c-1.11,0-1.9.83-1.9,1.83s.8,1.83,1.9,1.83h1.42v-3.67Z"/>
    <path class="cls-1" d="M115.09,210.22c-1.85,0-3.15-1.37-3.15-3.06s1.3-3.06,3.15-3.06h.72c1.17,0,1.94.82,1.94,1.83s-.77,1.83-1.94,1.83h-1.16c-.33,0-.61-.28-.61-.61s.28-.61.61-.61h1.16c.42,0,.69-.28.69-.61s-.28-.61-.69-.61h-.72c-1.11,0-1.9.83-1.9,1.83s.8,1.83,1.9,1.83h1.76c.33,0,.61.28.61.61s-.28.61-.61.61h-1.76Z"/>
    <path class="cls-1" d="M122.71,206.53c0-.66-.54-1.2-1.2-1.2h-1.57v4.36c0,.35-.28.62-.62.62s-.62-.28-.62-.62v-4.96c0-.35.28-.62.62-.62h2.19c1.35,0,2.44,1.1,2.44,2.45v3.14c0,.35-.28.62-.62.62s-.62-.28-.62-.62v-3.16Z"/>
    <path class="cls-1" d="M18.65,229.01c-.33,0-.61-.28-.61-.61s.28-.61.61-.61h.24c1.04,0,1.43-.54,1.43-1.57v-5.24c0-.35.28-.62.62-.62s.62.28.62.62v5.22c0,1.72-.88,2.8-2.66,2.8h-.25ZM20.95,219.44c-.43,0-.77-.33-.77-.76s.35-.76.77-.76.77.33.77.76-.35.76-.77.76Z"/>
    <path class="cls-1" d="M25.76,226.71c-1.9,0-3.24-1.43-3.24-3.21s1.34-3.21,3.24-3.21,3.24,1.43,3.24,3.21-1.35,3.21-3.24,3.21ZM25.76,221.51c-1.15,0-1.99.9-1.99,1.99s.84,2,1.99,2,2-.9,2-2-.84-1.99-2-1.99Z"/>
    <path class="cls-1" d="M33.98,220.98c0-.35.28-.62.62-.62s.62.28.62.62v3.09c0,1.45-1.19,2.64-2.64,2.64s-2.64-1.19-2.64-2.64v-3.09c0-.35.28-.62.62-.62s.62.28.62.62v3.12c0,.76.63,1.4,1.4,1.4s1.4-.63,1.4-1.4v-3.12Z"/>
    <path class="cls-1" d="M40.16,229.01c-.33,0-.61-.28-.61-.61s.28-.61.61-.61h2.19c.52,0,.94-.42.94-.93v-.29h-1.42c-1.84,0-3.15-1.37-3.15-3.06s1.3-3.06,3.15-3.06h2.04c.35,0,.62.28.62.62v5.78c0,1.19-.97,2.16-2.16,2.16h-2.21ZM43.28,221.68h-1.42c-1.11,0-1.9.83-1.9,1.83s.8,1.83,1.9,1.83h1.42v-3.67Z"/>
    <path class="cls-1" d="M48.62,226.56c-1.85,0-3.15-1.37-3.15-3.06s1.3-3.06,3.15-3.06h.73c1.17,0,1.94.82,1.94,1.83s-.77,1.83-1.94,1.83h-1.17c-.33,0-.61-.28-.61-.61s.28-.61.61-.61h1.17c.42,0,.69-.28.69-.61s-.28-.61-.69-.61h-.73c-1.11,0-1.9.83-1.9,1.83s.8,1.83,1.9,1.83h1.76c.33,0,.61.28.61.61s-.28.61-.61.61h-1.76Z"/>
    <path class="cls-1" d="M56.92,222.84c0,.35-.28.62-.62.62s-.62-.28-.62-.61v-.08c0-.61-.45-1.09-1.1-1.09h-1.09v4.36c0,.35-.28.62-.62.62s-.62-.28-.62-.62v-4.96c0-.35.28-.62.62-.62h1.72c1.31,0,2.34,1.05,2.34,2.32v.07Z"/>
    <path class="cls-1" d="M58.51,219.44c-.43,0-.77-.33-.77-.76s.35-.76.77-.76.77.33.77.76-.35.76-.77.76ZM57.89,220.98c0-.35.28-.62.62-.62s.62.28.62.62v5.05c0,.35-.28.62-.62.62s-.62-.28-.62-.62v-5.05Z"/>
    <path class="cls-1" d="M63.23,226.56c-1.85,0-3.15-1.37-3.15-3.06s1.3-3.06,3.15-3.06h1.27c.33,0,.61.28.61.61s-.28.61-.61.61h-1.27c-1.11,0-1.9.83-1.9,1.83s.79,1.83,1.9,1.83h1.27c.33,0,.61.28.61.61s-.28.61-.61.61h-1.27Z"/>
    <path class="cls-1" d="M70.05,222.87c0-.66-.54-1.2-1.2-1.2h-1.57v4.36c0,.35-.28.62-.62.62s-.62-.28-.62-.62v-7.5c0-.35.28-.62.62-.62s.62.28.62.62v1.91h1.57c1.35,0,2.45,1.1,2.45,2.45v3.14c0,.35-.28.62-.62.62s-.62-.28-.62-.62v-3.16Z"/>
    <path class="cls-1" d="M75.19,226.56c-1.19,0-2.16-.97-2.16-2.16v-2.73h-.73c-.33,0-.61-.28-.61-.61s.28-.61.61-.61h.73v-1.22c0-.35.28-.62.62-.62s.62.28.62.62v1.22h1.6c.33,0,.61.28.61.61s-.28.61-.61.61h-1.6v2.74c0,.52.39.92.92.92h.68c.33,0,.61.28.61.61s-.28.61-.61.61h-.69Z"/>
    <path class="cls-1" d="M86.94,220.98c0-.35.28-.62.62-.62s.62.28.62.62v3.39c0,1.29-1.05,2.34-2.34,2.34-.73,0-1.38-.34-1.81-.85-.43.52-1.08.85-1.81.85-1.29,0-2.34-1.05-2.34-2.34v-3.39c0-.35.28-.62.62-.62s.62.28.62.62v3.41c0,.62.52,1.14,1.14,1.14s1.14-.52,1.14-1.14v-3.41c0-.35.28-.62.62-.62s.62.28.62.62v3.41c0,.62.52,1.14,1.14,1.14s1.14-.52,1.14-1.14v-3.41Z"/>
    <path class="cls-1" d="M90.94,226.56c-1.12,0-1.89-.85-1.89-1.89s.77-1.89,1.89-1.89h1.16c.33,0,.61.28.61.61s-.28.61-.61.61h-1.16c-.38,0-.65.32-.65.67s.26.67.65.67h2.24v-2.58c0-.61-.43-1.08-1.06-1.08h-1.96c-.33,0-.61-.28-.61-.61s.28-.61.61-.61h1.96c1.29,0,2.31,1.03,2.31,2.29v3.19c0,.35-.22.62-.62.62h-2.86Z"/>
    <path class="cls-1" d="M96.15,226.56c-.33,0-.61-.28-.61-.61s.28-.61.61-.61h2.58c.42,0,.69-.28.69-.61s-.28-.61-.69-.61h-1.43c-1.16,0-1.94-.82-1.94-1.83s.77-1.83,1.94-1.83h2.58c.33,0,.61.28.61.61s-.28.61-.61.61h-2.58c-.42,0-.69.28-.69.61s.28.61.69.61h1.43c1.16,0,1.94.82,1.94,1.83s-.77,1.83-1.94,1.83h-2.58Z"/>
  </g>
  <g>
    <path class="cls-4" d="M45.8,104c0-10.26,2.53-19.94,7-28.43,7.8,3.61,16.48,5.63,25.65,5.63,11.5,0,22.27-3.18,31.46-8.71,5.55,9.2,8.74,19.99,8.74,31.52,0,24.98-14.97,46.45-36.42,55.95-21.45-9.5-36.42-30.97-36.42-55.95Z"/>
    <g>
      <path class="cls-2" d="M99.44,122.89c0,3.41-1.39,6.51-3.64,8.75-2.25,2.25-5.35,3.64-8.75,3.64h-9.62c-6.62,0-12.07-5.25-12.38-11.8,0-.2-.01-.4-.01-.6v-9.04c0-2.27,1.74-4.2,4-4.34.93-.05,1.81.2,2.53.66v-11.5c0-2.24,1.7-4.16,3.93-4.32.93-.07,1.69.16,2.42.6.32-2.03,2.2-3.58,4.32-3.58,1.17,0,2.23.48,3.01,1.25.64.64,1.06,1.39,1.19,2.33.67-.44,1.49-.62,2.34-.62,1.17,0,2.23.48,3.01,1.25.7.7,1.11,1.53,1.19,2.57.64-.38,1.43-.49,2.22-.49,1.17,0,2.23.48,3.01,1.25.77.77,1.25,1.84,1.25,3.01v18.13"/>
      <line class="cls-2" x1="77.92" y1="111.6" x2="77.92" y2="94.95"/>
      <line class="cls-2" x1="86.43" y1="111.6" x2="86.43" y2="94.95"/>
      <line class="cls-2" x1="92.96" y1="111.6" x2="92.96" y2="98.16"/>
      <line class="cls-2" x1="99.44" y1="119.81" x2="99.44" y2="122.89"/>
      <line class="cls-2" x1="71.56" y1="120.36" x2="71.56" y2="110.19"/>
    </g>
  </g>
</svg>