<?xml version="1.0" encoding="UTF-8"?>
<svg id="Laag_1" data-name="Laag 1" xmlns="http://www.w3.org/2000/svg" viewBox="0 0 164.41 249.45">
  <defs>
    <style>
      .cls-1 {
        stroke: #1d1e1c;
        stroke-linecap: round;
        stroke-linejoin: round;
        stroke-width: 5px;
      }

      .cls-1, .cls-2 {
        fill: #1d1d1b;
      }

      .cls-2, .cls-3 {
        stroke-width: 0px;
      }

      .cls-3 {
        fill: #de2b65;
      }
    </style>
  </defs>
  <rect class="cls-3" x="0" y="0" width="164.41" height="249.45"/>
  <g>
    <path class="cls-2" d="M15.98,24.12c.62-.43,1.17-.85,1.64-1.26.47-.41.89-.83,1.28-1.26s.76-.89,1.13-1.39.77-1.03,1.21-1.6c1.37.58,2.44,1.51,3.22,2.81.78,1.3,1.31,2.79,1.6,4.48.29,1.69.37,3.48.23,5.36-.13,1.88-.43,3.69-.9,5.42-.47,1.73-1.07,3.28-1.82,4.66s-1.57,2.41-2.48,3.08c.17-3.41.23-6.85.2-10.31-.04-3.47-.16-6.98-.38-10.53-.62.12-1.34.24-2.14.36-.8.12-1.73.18-2.79.18Z"/>
    <path class="cls-2" d="M31.46,32.61c-.02-1.73.2-3.38.67-4.95.47-1.57,1.12-3.01,1.96-4.3.84-1.3,1.82-2.42,2.95-3.38,1.13-.96,2.34-1.7,3.64-2.23-.94.86-1.73,1.99-2.38,3.37-.65,1.38-1.15,2.86-1.51,4.45-.36,1.58-.56,3.19-.61,4.81-.05,1.62.07,3.08.36,4.39.29,1.31.74,2.37,1.35,3.19.61.82,1.41,1.22,2.39,1.22s1.73-.37,2.32-1.1c.59-.73,1.01-1.66,1.28-2.79.26-1.13.39-2.39.38-3.78-.01-1.39-.15-2.75-.41-4.07-.26-1.32-.64-2.53-1.12-3.62-.48-1.09-1.04-1.91-1.69-2.47,1.58.31,2.93.95,4.03,1.93,1.1.97,1.97,2.12,2.61,3.46.64,1.33,1.04,2.77,1.22,4.32.18,1.55.14,3.05-.13,4.52-.22,1.22-.58,2.38-1.08,3.46s-1.12,2.03-1.84,2.84c-.72.82-1.55,1.46-2.48,1.93-.94.47-1.94.7-3.02.7-1.34,0-2.55-.28-3.62-.85-1.07-.56-1.99-1.36-2.77-2.39-.78-1.03-1.39-2.28-1.82-3.74s-.66-3.1-.68-4.9Z"/>
  </g>
  <g>
    <path class="cls-2" d="M148.92,226.63c-.62.43-1.17.85-1.64,1.26-.47.41-.89.83-1.28,1.26s-.76.89-1.13,1.39-.77,1.03-1.21,1.6c-1.37-.58-2.44-1.51-3.22-2.81-.78-1.3-1.31-2.79-1.6-4.48-.29-1.69-.37-3.48-.23-5.36.13-1.88.43-3.69.9-5.42.47-1.73,1.07-3.28,1.82-4.66s1.57-2.41,2.48-3.08c-.17,3.41-.23,6.85-.2,10.31.04,3.47.16,6.98.38,10.53.62-.12,1.34-.24,2.14-.36.8-.12,1.73-.18,2.79-.18Z"/>
    <path class="cls-2" d="M133.44,218.13c.02,1.73-.2,3.38-.67,4.95-.47,1.57-1.12,3.01-1.96,4.3-.84,1.3-1.82,2.42-2.95,3.38-1.13.96-2.34,1.7-3.64,2.23.94-.86,1.73-1.99,2.38-3.37.65-1.38,1.15-2.86,1.51-4.45.36-1.58.56-3.19.61-4.81.05-1.62-.07-3.08-.36-4.39-.29-1.31-.74-2.37-1.35-3.19-.61-.82-1.41-1.22-2.39-1.22s-1.73.37-2.32,1.1c-.59.73-1.01,1.66-1.28,2.79-.26,1.13-.39,2.39-.38,3.78.01,1.39.15,2.75.41,4.07.26,1.32.64,2.53,1.12,3.62.48,1.09,1.04,1.91,1.69,2.47-1.58-.31-2.93-.95-4.03-1.93-1.1-.97-1.97-2.12-2.61-3.46-.64-1.33-1.04-2.77-1.22-4.32-.18-1.55-.14-3.05.13-4.52.22-1.22.58-2.38,1.08-3.46s1.12-2.03,1.84-2.84c.72-.82,1.55-1.46,2.48-1.93.94-.47,1.94-.7,3.02-.7,1.34,0,2.55.28,3.62.85,1.07.56,1.99,1.36,2.77,2.39.78,1.03,1.39,2.28,1.82,3.74s.66,3.1.68,4.9Z"/>
  </g>
  <path class="cls-1" d="M121.35,124.72c-10.81,0-20.6,4.49-27.68,11.76-7.09,7.27-11.47,17.3-11.47,28.39,0-11.09-4.38-21.12-11.46-28.39s-16.87-11.76-27.68-11.76c0-11.09,4.38-21.13,11.46-28.39,7.09-7.27,16.87-11.76,27.68-11.76s20.6,4.49,27.68,11.76c7.09,7.26,11.47,17.3,11.47,28.39Z"/>
</svg>