<?xml version="1.0" encoding="UTF-8"?>
<svg id="Laag_1" data-name="Laag 1" xmlns="http://www.w3.org/2000/svg" viewBox="0 0 164.41 249.45">
  <defs>
    <style>
      .cls-1, .cls-2, .cls-3, .cls-4, .cls-5, .cls-6, .cls-7 {
        stroke-miterlimit: 10;
      }

      .cls-1, .cls-2, .cls-3, .cls-4, .cls-5, .cls-7 {
        stroke-width: 5px;
      }

      .cls-1, .cls-2, .cls-4, .cls-5, .cls-7 {
        stroke: #1d1d1b;
      }

      .cls-1, .cls-3, .cls-8 {
        fill: #eb7c19;
      }

      .cls-2, .cls-9 {
        fill: #8abb2a;
      }

      .cls-3 {
        stroke: #000;
      }

      .cls-4, .cls-10 {
        fill: #de2b65;
      }

      .cls-5, .cls-11 {
        fill: #8082b8;
      }

      .cls-6 {
        stroke: #fff;
        stroke-width: .47px;
      }

      .cls-6, .cls-12 {
        fill: #fff;
      }

      .cls-7 {
        fill: none;
      }

      .cls-11, .cls-13, .cls-14, .cls-10, .cls-9, .cls-12, .cls-8 {
        stroke-width: 0px;
      }

      .cls-13 {
        fill: #2f2f2f;
      }

      .cls-14 {
        fill: #1d1d1b;
      }
    </style>
  </defs>
  <rect class="cls-13" x="0" y="0" width="164.41" height="249.45"/>
  <g>
    <path class="cls-8" d="M141.74,206.68c-4.35,0-7.89-3.7-7.89-8.26s3.54-8.25,7.89-8.25,7.89,3.7,7.89,8.25-3.54,8.26-7.89,8.26Z"/>
    <path class="cls-14" d="M141.74,191.17c3.8,0,6.89,3.25,6.89,7.26s-3.09,7.26-6.89,7.26-6.89-3.25-6.89-7.26,3.09-7.26,6.89-7.26M141.74,189.17c-4.91,0-8.89,4.14-8.89,9.26s3.98,9.26,8.89,9.26,8.89-4.14,8.89-9.26-3.98-9.26-8.89-9.26h0Z"/>
  </g>
  <g>
    <ellipse class="cls-9" cx="141.74" cy="226.17" rx="7.89" ry="8.26"/>
    <path class="cls-14" d="M141.74,218.92c3.8,0,6.89,3.25,6.89,7.26s-3.09,7.26-6.89,7.26-6.89-3.25-6.89-7.26,3.09-7.26,6.89-7.26M141.74,216.92c-4.91,0-8.89,4.14-8.89,9.26s3.98,9.26,8.89,9.26,8.89-4.14,8.89-9.26-3.98-9.26-8.89-9.26h0Z"/>
  </g>
  <g>
    <path class="cls-12" d="M46.45,26.66c-.45,1.18-1.1,2.09-1.96,2.72-.86.63-1.8,1.04-2.84,1.23.32.87.58,1.79.8,2.76.22.97.36,1.95.42,2.92.07.97.05,1.93-.04,2.88s-.29,1.81-.59,2.61c-.32.85-.86,1.52-1.64,2s-1.66.72-2.66.72c-.77,0-1.42-.12-1.95-.35-.53-.23-.96-.56-1.28-.97-.32-.42-.53-.9-.65-1.46-.12-.56-.15-1.16-.1-1.81.35.5.67.88.96,1.12.29.25.56.43.8.54.24.11.47.17.67.18.21,0,.4.02.59.04.25.02.49-.06.71-.24.23-.17.42-.46.59-.86.17-.4.29-.92.38-1.56.08-.64.1-1.41.05-2.31-.03-.75-.08-1.68-.15-2.78-.07-1.1-.16-2.27-.28-3.5-.58-.13-1.14-.32-1.66-.56-.53-.24-1-.53-1.41-.86s-.76-.71-1.04-1.14c-.28-.42-.46-.88-.56-1.36,2.08.27,4.17.38,6.26.35,2.09-.03,4.28-.13,6.56-.3Z"/>
    <path class="cls-12" d="M56.8,42.69c-.7.7-1.43,1.15-2.2,1.36s-1.48.3-2.15.26c-.65-.03-1.26-.2-1.83-.5-.57-.3-1.05-.7-1.46-1.19-.41-.49-.72-1.06-.94-1.71s-.31-1.34-.27-2.08c.03-.65.16-1.29.38-1.91.22-.62.54-1.18.97-1.67.43-.49.99-.88,1.66-1.18.68-.29,1.49-.44,2.44-.44.53,0,1.04.06,1.51.19.48.12.93.35,1.36.66-.05-.7-.35-1.23-.91-1.59s-1.22-.6-2-.74c-.78-.13-1.58-.17-2.41-.11-.83.06-1.54.16-2.12.31.33-.55.73-1.03,1.19-1.45.46-.42.95-.76,1.47-1.04.53-.28,1.06-.48,1.61-.61.55-.13,1.09-.18,1.62-.15.95.05,1.76.29,2.42.71.67.43,1.21.98,1.64,1.65s.74,1.45.94,2.33.3,1.8.3,2.76c0,.8-.05,1.61-.16,2.42s-.28,1.6-.5,2.34c-.22.74-.5,1.43-.83,2.06-.33.63-.7,1.18-1.11,1.62-.08-.32-.17-.69-.28-1.11-.1-.42-.22-.83-.35-1.21ZM51.68,38.49c.02.25.06.5.14.74.08.24.19.46.34.66.15.2.35.37.59.51.24.14.55.25.91.31.43.08.82.07,1.15-.04.33-.11.61-.27.84-.49.22-.22.4-.47.51-.76.12-.29.18-.59.18-.89,0-.4-.05-.77-.15-1.11s-.25-.64-.45-.9c-.2-.26-.46-.46-.77-.61-.32-.15-.69-.22-1.12-.2-.77.03-1.34.3-1.71.81-.38.51-.52,1.16-.44,1.96Z"/>
    <path class="cls-12" d="M73.8,40.16c-.05.7-.23,1.3-.54,1.8s-.69.91-1.15,1.24c-.46.33-.98.56-1.58.71s-1.2.22-1.84.2c-1.02-.02-1.92-.2-2.7-.56-.78-.36-1.45-.85-1.99-1.46-.54-.62-.96-1.35-1.25-2.19-.29-.84-.45-1.75-.46-2.74-.02-1.02.14-1.98.46-2.9.33-.92.78-1.72,1.38-2.42s1.3-1.27,2.11-1.7c.82-.43,1.71-.67,2.67-.72.58-.03,1.15,0,1.69.11.54.11,1.02.31,1.42.6.41.29.73.67.97,1.15.24.48.36,1.07.36,1.79-.5-.43-.96-.71-1.38-.83-.42-.12-.92-.13-1.5-.05-.52.07-.99.25-1.41.54-.42.29-.79.66-1.1,1.11-.31.45-.55.95-.71,1.51s-.26,1.13-.27,1.71c-.03,1.17.18,2.09.65,2.77.47.68,1.15,1.14,2.05,1.38.77.18,1.51.19,2.23.01.72-.17,1.34-.53,1.88-1.06Z"/>
    <path class="cls-12" d="M75.93,26.51c.92-.07,1.69.1,2.33.49.63.39,1.14.94,1.51,1.65.38.71.64,1.54.79,2.49.15.95.2,1.95.15,3,.65-.37,1.26-.73,1.84-1.09s1.14-.74,1.69-1.15c.55-.41,1.1-.85,1.65-1.34s1.12-1.04,1.72-1.68c.72,1.63.77,3.12.15,4.48-.62,1.35-1.99,2.61-4.12,3.77.63,1.2,1.42,2.44,2.38,3.71s2.06,2.46,3.33,3.56c-.77-.02-1.57-.15-2.41-.41-.84-.26-1.67-.63-2.5-1.11-.83-.48-1.62-1.07-2.38-1.77s-1.44-1.52-2.04-2.45c-.2.75-.43,1.46-.7,2.12-.27.67-.56,1.27-.89,1.81-.33.54-.67,1-1.02,1.38-.36.38-.74.65-1.14.81.05-.43.09-1.12.11-2.05s.04-1.99.05-3.17,0-2.43-.01-3.75-.05-2.58-.09-3.79c-.04-1.21-.1-2.3-.16-3.29s-.14-1.73-.22-2.23Z"/>
    <path class="cls-12" d="M91.05,29.59c.65-.05,1.22.03,1.71.24.49.21.93.5,1.31.89.38-.3.85-.51,1.39-.62.54-.12,1.1-.16,1.69-.12.92.05,1.76.28,2.54.69.77.41,1.45.95,2.01,1.61.57.67,1,1.43,1.31,2.29.31.86.45,1.77.44,2.74-.02.93-.16,1.8-.44,2.59-.28.79-.67,1.48-1.19,2.06-.52.58-1.15,1.05-1.9,1.39-.75.34-1.61.52-2.58.54-.87.02-1.67-.12-2.42-.42-.2.7-.43,1.36-.7,1.99s-.55,1.18-.85,1.67c-.3.49-.62.91-.95,1.26-.33.35-.68.6-1.05.75.05-.43.09-1.15.11-2.14.03-.99.04-2.13.05-3.41s0-2.64-.01-4.06c-.02-1.43-.05-2.79-.09-4.09-.04-1.3-.1-2.47-.16-3.51-.07-1.04-.14-1.81-.22-2.31ZM95.15,32.54c.22.58.38,1.22.5,1.91.12.69.18,1.41.2,2.16s-.01,1.52-.09,2.31c-.08.79-.19,1.57-.34,2.34.17-.02.33-.03.49-.05s.32-.05.49-.1c1.77-.43,2.62-1.74,2.58-3.92-.02-.55-.1-1.09-.26-1.62s-.38-1.01-.67-1.43c-.29-.42-.64-.77-1.04-1.05-.4-.28-.85-.45-1.35-.5-.08-.02-.17-.02-.25-.02s-.17,0-.25-.03Z"/>
    <path class="cls-12" d="M113.33,29.01c-.87.72-1.56,1.51-2.08,2.38-.52.87-.89,1.73-1.12,2.6s-.35,1.7-.34,2.51.11,1.53.31,2.16c.2.63.48,1.14.83,1.51s.75.56,1.2.56c.48,0,.9-.16,1.24-.48.34-.32.6-.73.79-1.25.18-.52.28-1.11.29-1.77,0-.67-.08-1.35-.25-2.06s-.44-1.4-.8-2.09c-.36-.68-.82-1.3-1.39-1.85,1.32.02,2.42.27,3.33.75.9.48,1.6,1.11,2.11,1.89.51.77.83,1.65.96,2.61.13.97.08,1.95-.15,2.95-.15.68-.41,1.34-.78,1.96s-.81,1.17-1.34,1.65c-.53.47-1.12.85-1.8,1.12-.67.27-1.4.41-2.16.41-.98,0-1.87-.17-2.65-.5s-1.45-.8-2-1.41c-.55-.61-.98-1.33-1.29-2.17s-.47-1.76-.49-2.76c-.03-1.07.12-2.08.45-3.05.33-.97.82-1.84,1.47-2.62s1.45-1.44,2.4-1.98c.95-.53,2.03-.89,3.25-1.08Z"/>
    <path class="cls-12" d="M130.5,30.69c-.12.7-.33,1.3-.64,1.81-.31.51-.66.92-1.06,1.25-.4.32-.83.57-1.3.72s-.92.24-1.38.24h-.47c.03.97.09,1.88.16,2.73.08.85.19,1.6.34,2.24s.34,1.15.58,1.54c.23.38.52.6.88.65.17.03.35.05.56.04.21,0,.44-.07.69-.19.25-.12.52-.31.81-.58.29-.27.61-.65.96-1.15.05.65.02,1.25-.1,1.81-.12.56-.33,1.05-.65,1.46-.32.42-.74.74-1.27.98-.53.23-1.18.35-1.95.35-1,0-1.89-.24-2.66-.72-.78-.48-1.32-1.15-1.64-2-.17-.45-.3-.98-.4-1.58-.1-.6-.17-1.25-.22-1.95s-.06-1.43-.04-2.2c.03-.77.08-1.53.16-2.3-.72-.4-1.24-.89-1.58-1.46-.33-.58-.57-1.15-.7-1.74.48.07.96.12,1.42.16s.92.08,1.35.11c.15-.65.34-1.27.56-1.85.22-.58.47-1.1.75-1.55.27-.45.59-.82.94-1.12.35-.3.72-.5,1.12-.6-.02.78-.04,1.6-.06,2.46-.03.86-.05,1.78-.06,2.76.8-.02,1.59-.05,2.38-.11.78-.06,1.62-.13,2.52-.21Z"/>
  </g>
  <g>
    <path class="cls-6" d="M19.06,205.38v1.88c0,.34-.28.63-.63.63s-.63-.28-.63-.63v-6.07c0-.34.28-.63.63-.63h2.59c1.33,0,2.41,1.08,2.41,2.41s-1.08,2.41-2.41,2.41h-1.97ZM21,204.17c.69,0,1.18-.54,1.18-1.21s-.49-1.21-1.18-1.21h-1.94v2.41h1.94Z"/>
    <path class="cls-6" d="M25.52,207.79c-1.1,0-1.87-.84-1.87-1.87s.76-1.87,1.87-1.87h1.15c.33,0,.6.27.6.6s-.27.6-.6.6h-1.15c-.38,0-.64.32-.64.66s.26.66.64.66h2.21v-2.55c0-.6-.42-1.07-1.05-1.07h-1.93c-.33,0-.6-.27-.6-.6s.27-.6.6-.6h1.93c1.27,0,2.28,1.01,2.28,2.26v3.15c0,.34-.22.61-.61.61h-2.82Z"/>
    <path class="cls-6" d="M31.42,204.89v2.38c0,.34-.27.61-.61.61s-.61-.27-.61-.61v-7.39c0-.34.27-.61.61-.61s.61.27.61.61v4.79l2.81-2.81c.24-.24.61-.24.85,0,.23.24.23.61,0,.85l-2.07,2.07,2.07,2.07c.24.24.23.61,0,.85-.24.24-.61.24-.85,0l-2.81-2.81Z"/>
    <path class="cls-6" d="M38.16,202.53c-.14-.31,0-.67.31-.81.31-.15.67,0,.81.31l1.77,4.09,1.77-4.09c.14-.31.5-.46.81-.31.31.14.44.5.31.81l-2.21,4.91c-.11.26-.35.44-.68.44s-.57-.18-.68-.44l-2.21-4.91Z"/>
    <path class="cls-6" d="M45.39,200.76c-.42,0-.76-.33-.76-.75s.34-.75.76-.75.76.33.76.75-.34.75-.76.75ZM44.78,202.28c0-.34.27-.61.61-.61s.61.27.61.61v4.98c0,.34-.27.61-.61.61s-.61-.27-.61-.61v-4.98Z"/>
    <path class="cls-6" d="M50.05,207.79c-1.82,0-3.1-1.35-3.1-3.01s1.28-3.01,3.1-3.01h.72c1.15,0,1.91.81,1.91,1.81s-.76,1.81-1.91,1.81h-1.15c-.33,0-.6-.27-.6-.6s.27-.6.6-.6h1.15c.41,0,.68-.27.68-.6s-.27-.6-.68-.6h-.72c-1.09,0-1.88.82-1.88,1.81s.78,1.81,1.88,1.81h1.74c.33,0,.6.27.6.6s-.27.6-.6.6h-1.74Z"/>
    <path class="cls-6" d="M58.23,204.11c0,.34-.27.61-.61.61s-.61-.27-.61-.6v-.08c0-.6-.44-1.08-1.08-1.08h-1.08v4.3c0,.34-.27.61-.61.61s-.61-.27-.61-.61v-4.89c0-.34.27-.61.61-.61h1.69c1.3,0,2.31,1.04,2.31,2.29v.07Z"/>
    <path class="cls-6" d="M62.92,204.89v2.38c0,.34-.27.61-.61.61s-.61-.27-.61-.61v-7.39c0-.34.27-.61.61-.61s.61.27.61.61v4.79l2.81-2.81c.24-.24.61-.24.85,0,.23.24.23.61,0,.85l-2.07,2.07,2.07,2.07c.24.24.23.61,0,.85-.24.24-.61.24-.85,0l-2.81-2.81Z"/>
    <path class="cls-6" d="M69.13,207.79c-1.1,0-1.87-.84-1.87-1.87s.76-1.87,1.87-1.87h1.15c.33,0,.6.27.6.6s-.27.6-.6.6h-1.15c-.38,0-.64.32-.64.66s.26.66.64.66h2.21v-2.55c0-.6-.42-1.07-1.05-1.07h-1.93c-.33,0-.6-.27-.6-.6s.27-.6.6-.6h1.93c1.27,0,2.28,1.01,2.28,2.26v3.15c0,.34-.22.61-.61.61h-2.82Z"/>
    <path class="cls-6" d="M75.39,207.79c-1.1,0-1.87-.84-1.87-1.87s.76-1.87,1.87-1.87h1.15c.33,0,.6.27.6.6s-.27.6-.6.6h-1.15c-.38,0-.64.32-.64.66s.26.66.64.66h2.21v-2.55c0-.6-.42-1.07-1.05-1.07h-1.93c-.33,0-.6-.27-.6-.6s.27-.6.6-.6h1.93c1.27,0,2.28,1.01,2.28,2.26v3.15c0,.34-.22.61-.61.61h-2.82Z"/>
    <path class="cls-6" d="M84.68,204.11c0,.34-.27.61-.61.61s-.61-.27-.61-.6v-.08c0-.6-.44-1.08-1.08-1.08h-1.08v4.3c0,.34-.27.61-.61.61s-.61-.27-.61-.61v-4.89c0-.34.27-.61.61-.61h1.69c1.3,0,2.31,1.04,2.31,2.29v.07Z"/>
    <path class="cls-6" d="M88.41,207.79c-1.17,0-2.13-.96-2.13-2.13v-2.7h-.72c-.33,0-.6-.27-.6-.6s.27-.6.6-.6h.72v-1.21c0-.34.27-.61.61-.61s.61.27.61.61v1.21h1.58c.33,0,.6.27.6.6s-.27.6-.6.6h-1.58v2.71c0,.51.39.91.91.91h.67c.33,0,.6.27.6.6s-.27.6-.6.6h-.68Z"/>
    <path class="cls-6" d="M93.18,207.79c-1.82,0-3.11-1.35-3.11-3.01s1.29-3.01,3.11-3.01h.72c1.15,0,1.91.81,1.91,1.81s-.76,1.81-1.91,1.81h-1.15c-.33,0-.6-.27-.6-.6s.27-.6.6-.6h1.15c.41,0,.68-.27.68-.6s-.27-.6-.68-.6h-.72c-1.09,0-1.88.82-1.88,1.81s.79,1.81,1.88,1.81h1.74c.33,0,.6.27.6.6s-.27.6-.6.6h-1.74Z"/>
    <path class="cls-6" d="M100.7,204.15c0-.65-.53-1.18-1.18-1.18h-1.55v4.3c0,.34-.27.61-.61.61s-.61-.27-.61-.61v-4.89c0-.34.27-.61.61-.61h2.16c1.33,0,2.41,1.08,2.41,2.41v3.09c0,.34-.27.61-.61.61s-.61-.27-.61-.61v-3.12Z"/>
    <path class="cls-6" d="M17.41,218.65c-.14-.31,0-.67.31-.81.31-.15.67,0,.81.31l1.77,4.09,1.77-4.09c.14-.31.5-.46.81-.31.31.14.44.5.31.81l-2.21,4.91c-.11.26-.35.44-.68.44s-.57-.18-.68-.44l-2.21-4.91Z"/>
    <path class="cls-6" d="M25.62,223.91c-1.1,0-1.87-.84-1.87-1.87s.76-1.87,1.87-1.87h1.15c.33,0,.6.27.6.6s-.27.6-.6.6h-1.15c-.38,0-.64.32-.64.66s.26.66.64.66h2.21v-2.55c0-.6-.42-1.07-1.05-1.07h-1.93c-.33,0-.6-.27-.6-.6s.27-.6.6-.6h1.93c1.27,0,2.27,1.01,2.27,2.26v3.15c0,.34-.22.61-.61.61h-2.82Z"/>
    <path class="cls-6" d="M34.25,220.27c0-.65-.53-1.18-1.18-1.18h-1.55v4.3c0,.34-.27.61-.61.61s-.61-.27-.61-.61v-4.89c0-.34.27-.61.61-.61h2.16c1.33,0,2.41,1.08,2.41,2.41v3.09c0,.34-.27.61-.61.61s-.61-.27-.61-.61v-3.12Z"/>
    <path class="cls-6" d="M42.02,223.91c-1.82,0-3.1-1.35-3.1-3.01s1.28-3.01,3.1-3.01h1.4v-1.89c0-.34.27-.61.61-.61s.61.27.61.61v7.3c0,.34-.27.61-.61.61h-2.01ZM43.42,219.09h-1.4c-1.09,0-1.88.82-1.88,1.81s.78,1.81,1.88,1.81h1.4v-3.62Z"/>
    <path class="cls-6" d="M48.69,223.91c-1.82,0-3.11-1.35-3.11-3.01s1.29-3.01,3.11-3.01h.72c1.15,0,1.91.81,1.91,1.81s-.76,1.81-1.91,1.81h-1.15c-.33,0-.6-.27-.6-.6s.27-.6.6-.6h1.15c.41,0,.68-.27.68-.6s-.27-.6-.68-.6h-.72c-1.09,0-1.88.82-1.88,1.81s.79,1.81,1.88,1.81h1.74c.33,0,.6.27.6.6s-.27.6-.6.6h-1.74Z"/>
    <path class="cls-6" d="M55.99,221.01v2.38c0,.34-.27.61-.61.61s-.61-.27-.61-.61v-7.39c0-.34.27-.61.61-.61s.61.27.61.61v4.79l2.81-2.81c.24-.24.61-.24.85,0,.23.24.23.61,0,.85l-2.07,2.07,2.07,2.07c.24.24.23.61,0,.85-.24.24-.61.24-.85,0l-2.81-2.81Z"/>
    <path class="cls-6" d="M63.17,224.06c-1.88,0-3.2-1.41-3.2-3.16s1.32-3.16,3.2-3.16,3.2,1.41,3.2,3.16-1.33,3.16-3.2,3.16ZM63.17,218.93c-1.14,0-1.97.89-1.97,1.97s.83,1.97,1.97,1.97,1.97-.89,1.97-1.97-.83-1.97-1.97-1.97Z"/>
    <path class="cls-6" d="M70.32,224.06c-1.88,0-3.2-1.41-3.2-3.16s1.32-3.16,3.2-3.16,3.2,1.41,3.2,3.16-1.33,3.16-3.2,3.16ZM70.32,218.93c-1.14,0-1.97.89-1.97,1.97s.83,1.97,1.97,1.97,1.97-.89,1.97-1.97-.83-1.97-1.97-1.97Z"/>
    <path class="cls-6" d="M75.68,223.91v1.89c0,.34-.27.61-.61.61s-.61-.27-.61-.61v-7.3c0-.34.27-.61.61-.61h2.01c1.82,0,3.11,1.35,3.11,3.01s-1.29,3.01-3.11,3.01h-1.4ZM77.08,222.7c1.09,0,1.88-.82,1.88-1.81s-.78-1.81-1.88-1.81h-1.4v3.62h1.4Z"/>
    <path class="cls-6" d="M81.6,223.91c-.33,0-.6-.27-.6-.6s.27-.6.6-.6h2.55c.41,0,.68-.27.68-.6s-.27-.6-.68-.6h-1.41c-1.15,0-1.91-.81-1.91-1.81s.76-1.81,1.91-1.81h2.55c.33,0,.6.27.6.6s-.27.6-.6.6h-2.55c-.41,0-.68.27-.68.6s.27.6.68.6h1.41c1.15,0,1.91.81,1.91,1.81s-.76,1.81-1.91,1.81h-2.55Z"/>
    <path class="cls-6" d="M89.82,223.91c-1.17,0-2.13-.96-2.13-2.13v-2.7h-.72c-.33,0-.6-.27-.6-.6s.27-.6.6-.6h.72v-1.21c0-.34.27-.61.61-.61s.61.27.61.61v1.21h1.58c.33,0,.6.27.6.6s-.27.6-.6.6h-1.58v2.71c0,.51.39.91.91.91h.67c.33,0,.6.27.6.6s-.27.6-.6.6h-.68Z"/>
    <path class="cls-6" d="M93.55,223.91c-1.1,0-1.87-.84-1.87-1.87s.76-1.87,1.87-1.87h1.15c.33,0,.6.27.6.6s-.27.6-.6.6h-1.15c-.38,0-.64.32-.64.66s.26.66.64.66h2.21v-2.55c0-.6-.42-1.07-1.05-1.07h-1.93c-.33,0-.6-.27-.6-.6s.27-.6.6-.6h1.93c1.27,0,2.27,1.01,2.27,2.26v3.15c0,.34-.22.61-.61.61h-2.82Z"/>
    <path class="cls-6" d="M99.44,223.91v1.89c0,.34-.27.61-.61.61s-.61-.27-.61-.61v-7.3c0-.34.27-.61.61-.61h2.01c1.82,0,3.11,1.35,3.11,3.01s-1.29,3.01-3.11,3.01h-1.4ZM100.84,222.7c1.09,0,1.88-.82,1.88-1.81s-.79-1.81-1.88-1.81h-1.4v3.62h1.4Z"/>
    <path class="cls-6" d="M107.8,223.91c-1.82,0-3.11-1.35-3.11-3.01s1.29-3.01,3.11-3.01h.72c1.15,0,1.91.81,1.91,1.81s-.76,1.81-1.91,1.81h-1.15c-.33,0-.6-.27-.6-.6s.27-.6.6-.6h1.15c.41,0,.68-.27.68-.6s-.27-.6-.68-.6h-.72c-1.09,0-1.88.82-1.88,1.81s.79,1.81,1.88,1.81h1.74c.33,0,.6.27.6.6s-.27.6-.6.6h-1.74Z"/>
    <path class="cls-6" d="M111.37,215.99c0-.34.27-.61.61-.61s.61.27.61.61v7.39c0,.34-.27.61-.61.61s-.61-.27-.61-.61v-7.39Z"/>
  </g>
  <g>
    <path class="cls-11" d="M29.25,145.49c1.3,1.69,2.86,3.03,4.83,3.89,1.76.77,3.1-1.45,1.51-2.59-1.73-1.25-3.31-2.76-4.61-4.45-.68.68-1.37,1.37-2.05,2.05,11.13,6.09,22.26,12.18,33.39,18.28l.36-2.74c-2.48.47-5.06.16-7.34-.94s-4.35-2.67-6.44-4.09c-4.54-3.07-9.08-6.14-13.61-9.21-.5.86-1.01,1.73-1.51,2.59,2.04,1.38,4.08,2.76,6.12,4.14l1.16-2.74c-1.41-.53-2.82-1.06-4.23-1.59-1.72-.65-2.4,1.81-1.16,2.74,6.2,4.61,13.79,6.77,21.04,9.15,3.88,1.28,7.86,2.5,11.99,1.98s8.15-1.83,12.15-2.84c4.77-1.2,9.54-2.39,14.31-3.59,1.61-.4,1.31-3.05-.4-2.95-.93.06-1.87.11-2.8.17.13.98.27,1.96.4,2.95,7.64-1.46,15.17-3.42,22.55-5.87l-1.16-2.74c-5.69,2.99-11.84,4.92-18.21,5.79l1.46,2.51c2.64-2.19,6.48-2.14,9.68-2.79,3.64-.75,6.63-2.79,10-4.24,6.56-2.84,14.17-1.81,20.42-5.61,1.44-.88.51-3.19-1.16-2.74-2.43.66-4.75,1.64-6.92,2.93-1.02.61-.97,2.52.36,2.74,2.59.43,5.01.11,7.41-.97,1.55-.7.45-3.27-1.16-2.74-4.51,1.48-9.06,2.85-13.64,4.09-2.25.61-4.51,1.19-6.78,1.74-1.09.27-2.19.52-3.29.78-.63.14-1.26.29-1.88.42-.14.03-1.68.33-1.33.48l.69.9-.03-.19-.39,1.46.12-.15-1.46.39.15.03c1.89.33,2.7-2.56.8-2.89l-.15-.03c-.49-.09-1.12-.05-1.46.39-.66.85-.81,2.02.21,2.7s2.54.07,3.65-.17c2.91-.64,5.8-1.34,8.69-2.08,5.69-1.46,11.33-3.12,16.91-4.96l-1.16-2.74c-1.59.72-3.37.95-5.09.67l.36,2.74c1.96-1.16,4-2.03,6.2-2.63l-1.16-2.74c-3.11,1.89-6.7,2.5-10.25,3.06s-7.2,1.18-10.56,2.73c-1.69.78-3.3,1.74-5,2.52s-3.54,1.21-5.41,1.52c-3.41.56-6.74,1.01-9.48,3.29-1.3,1.08.18,2.68,1.46,2.51,6.62-.9,13.01-2.98,18.93-6.09,1.49-.78.47-3.28-1.16-2.74-7.38,2.45-14.91,4.41-22.55,5.87-1.65.32-1.29,3.05.4,2.95.93-.06,1.87-.11,2.8-.17-.13-.98-.27-1.96-.4-2.95-7.91,1.98-15.8,4.14-23.76,5.94-4.11.93-7.82.2-11.77-1.07-3.55-1.14-7.1-2.27-10.6-3.56-3.91-1.45-7.69-3.22-11.05-5.72l-1.16,2.74c1.41.53,2.82,1.06,4.23,1.59,1.67.63,2.49-1.84,1.16-2.74-2.04-1.38-4.08-2.76-6.12-4.14-1.6-1.08-3.11,1.51-1.51,2.59,4.95,3.35,9.9,6.7,14.85,10.05,2.17,1.47,4.31,3.01,6.78,3.93s5.38,1.07,8.07.56c1.28-.24,1.44-2.15.36-2.74-11.13-6.09-22.26-12.18-33.39-18.28-1.2-.65-3.03.79-2.05,2.05,1.64,2.13,3.51,3.95,5.69,5.53l1.51-2.59c-1.46-.64-2.77-1.54-3.75-2.82-.5-.65-1.28-.98-2.05-.54-.64.36-1.03,1.41-.54,2.05h0Z"/>
    <path class="cls-10" d="M30.86,137.7c1.3,1.69,2.86,3.03,4.83,3.89,1.76.77,3.1-1.45,1.51-2.59-1.73-1.25-3.31-2.76-4.61-4.45l-2.05,2.05c11.13,6.09,22.26,12.18,33.39,18.28l.36-2.74c-2.48.47-5.06.16-7.34-.94s-4.35-2.67-6.44-4.09c-4.54-3.07-9.08-6.14-13.61-9.21l-1.51,2.59c2.04,1.38,4.08,2.76,6.12,4.14l1.16-2.74c-1.41-.53-2.82-1.06-4.23-1.59-1.72-.65-2.4,1.81-1.16,2.74,6.2,4.61,13.79,6.77,21.04,9.15,3.88,1.28,7.86,2.5,11.99,1.98s8.15-1.83,12.15-2.84c4.77-1.2,9.54-2.39,14.31-3.59,1.61-.4,1.31-3.05-.4-2.95-.93.06-1.87.11-2.8.17.13.98.27,1.96.4,2.95,7.64-1.46,15.17-3.42,22.55-5.87l-1.16-2.74c-5.69,2.99-11.84,4.92-18.21,5.79l1.46,2.51c2.64-2.19,6.48-2.14,9.68-2.79,3.64-.75,6.63-2.79,10-4.24,6.56-2.84,14.17-1.81,20.42-5.61,1.44-.88.51-3.19-1.16-2.74-2.43.66-4.75,1.64-6.92,2.93-1.02.61-.97,2.52.36,2.74,2.59.43,5.01.11,7.41-.97,1.55-.7.45-3.27-1.16-2.74-4.51,1.48-9.06,2.85-13.64,4.09-2.25.61-4.51,1.19-6.78,1.74-1.09.27-2.19.52-3.29.78-.63.14-1.26.29-1.88.42-.14.03-1.68.33-1.33.48l.69.9-.03-.19-.39,1.46.12-.15-1.46.39.15.03c1.89.33,2.7-2.56.8-2.89l-.15-.03c-.49-.09-1.12-.05-1.46.39-.66.85-.81,2.02.21,2.7s2.54.07,3.65-.17c2.91-.64,5.8-1.34,8.69-2.08,5.69-1.46,11.33-3.12,16.91-4.96l-1.16-2.74c-1.59.72-3.37.95-5.09.67l.36,2.74c1.96-1.16,4-2.03,6.2-2.63l-1.16-2.74c-3.11,1.89-6.7,2.5-10.25,3.06s-7.2,1.18-10.56,2.73c-1.69.78-3.3,1.74-5,2.52s-3.54,1.21-5.41,1.52c-3.41.56-6.74,1.01-9.48,3.29-1.3,1.08.18,2.68,1.46,2.51,6.62-.9,13.01-2.98,18.93-6.09,1.49-.78.47-3.28-1.16-2.74-7.38,2.45-14.91,4.41-22.55,5.87-1.65.32-1.29,3.05.4,2.95.93-.06,1.87-.11,2.8-.17-.13-.98-.27-1.96-.4-2.95-7.91,1.98-15.8,4.14-23.76,5.94-4.11.93-7.82.2-11.77-1.07-3.55-1.14-7.1-2.27-10.6-3.56-3.91-1.45-7.69-3.22-11.05-5.72l-1.16,2.74c1.41.53,2.82,1.06,4.23,1.59,1.67.63,2.49-1.84,1.16-2.74-2.04-1.38-4.08-2.76-6.12-4.14-1.6-1.08-3.11,1.51-1.51,2.59,4.95,3.35,9.9,6.7,14.85,10.05,2.17,1.47,4.31,3.01,6.78,3.93s5.38,1.07,8.07.56c1.28-.24,1.44-2.15.36-2.74-11.13-6.09-22.26-12.18-33.39-18.28-1.2-.65-3.03.79-2.05,2.05,1.64,2.13,3.51,3.95,5.69,5.53l1.51-2.59c-1.46-.64-2.77-1.54-3.75-2.82-.5-.65-1.28-.98-2.05-.54-.64.36-1.03,1.41-.54,2.05h0Z"/>
    <path class="cls-7" d="M29.11,148.21c8.45,5.28,16.9,10.57,25.36,15.85"/>
    <path class="cls-5" d="M53.11,163.21h0s7.95,4.38,14.97,2.69c22.87-5.49,45.02-13.72,68.03-18.69"/>
    <path class="cls-7" d="M30.6,140.12c8.45,5.28,16.9,10.57,25.36,15.85"/>
    <path class="cls-9" d="M32.24,128.67c1.3,1.69,2.86,3.03,4.83,3.89,1.76.77,3.1-1.45,1.51-2.59-1.73-1.25-3.31-2.76-4.61-4.45l-2.05,2.05c11.13,6.09,22.26,12.18,33.39,18.28l.36-2.74c-2.48.47-5.06.16-7.34-.94s-4.35-2.67-6.44-4.09c-4.54-3.07-9.08-6.14-13.61-9.21l-1.51,2.59c2.04,1.38,4.08,2.76,6.12,4.14l1.16-2.74c-1.41-.53-2.82-1.06-4.23-1.59-1.72-.65-2.4,1.81-1.16,2.74,6.2,4.61,13.79,6.77,21.04,9.15,3.88,1.28,7.86,2.5,11.99,1.98s8.15-1.83,12.15-2.84c4.77-1.2,9.54-2.39,14.31-3.59,1.61-.4,1.31-3.05-.4-2.95-.93.06-1.87.11-2.8.17.13.98.27,1.96.4,2.95,7.64-1.46,15.17-3.42,22.55-5.87l-1.16-2.74c-5.69,2.99-11.84,4.92-18.21,5.79l1.46,2.51c2.64-2.19,6.48-2.14,9.68-2.79,3.64-.75,6.63-2.79,10-4.24,6.56-2.84,14.17-1.81,20.42-5.61,1.44-.88.51-3.19-1.16-2.74-2.43.66-4.75,1.64-6.92,2.93-1.02.61-.97,2.52.36,2.74,2.59.43,5.01.11,7.41-.97,1.55-.7.45-3.27-1.16-2.74-4.51,1.48-9.06,2.85-13.64,4.09-2.25.61-4.51,1.19-6.78,1.74-1.09.27-2.19.52-3.29.78-.63.14-1.26.29-1.88.42-.14.03-1.68.33-1.33.48l.69.9-.03-.19c-.13.49-.26.97-.39,1.46l.12-.15-1.46.39.15.03c1.89.33,2.7-2.56.8-2.89l-.15-.03c-.49-.09-1.12-.05-1.46.39-.66.85-.81,2.02.21,2.7s2.54.07,3.65-.17c2.91-.64,5.8-1.34,8.69-2.08,5.69-1.46,11.33-3.12,16.91-4.96l-1.16-2.74c-1.59.72-3.37.95-5.09.67l.36,2.74c1.96-1.16,4-2.03,6.2-2.63l-1.16-2.74c-3.11,1.89-6.7,2.5-10.25,3.06s-7.2,1.18-10.56,2.73c-1.69.78-3.3,1.74-5,2.52s-3.54,1.21-5.41,1.52c-3.41.56-6.74,1.01-9.48,3.29-1.3,1.08.18,2.68,1.46,2.51,6.62-.9,13.01-2.98,18.93-6.09,1.49-.78.47-3.28-1.16-2.74-7.38,2.45-14.91,4.41-22.55,5.87-1.65.32-1.29,3.05.4,2.95.93-.06,1.87-.11,2.8-.17-.13-.98-.27-1.96-.4-2.95-7.91,1.98-15.8,4.14-23.76,5.94-4.11.93-7.82.2-11.77-1.07-3.55-1.14-7.1-2.27-10.6-3.56-3.91-1.45-7.69-3.22-11.05-5.72l-1.16,2.74c1.41.53,2.82,1.06,4.23,1.59,1.67.63,2.49-1.84,1.16-2.74-2.04-1.38-4.08-2.76-6.12-4.14-1.6-1.08-3.11,1.51-1.51,2.59,4.95,3.35,9.9,6.7,14.85,10.05,2.17,1.47,4.31,3.01,6.78,3.93s5.38,1.07,8.07.56c1.28-.24,1.44-2.15.36-2.74-11.13-6.09-22.26-12.18-33.39-18.28-1.2-.65-3.03.79-2.05,2.05,1.64,2.13,3.51,3.95,5.69,5.53.5-.86,1.01-1.73,1.51-2.59-1.46-.64-2.77-1.54-3.75-2.82-.5-.65-1.28-.98-2.05-.54-.64.36-1.03,1.41-.54,2.05h0Z"/>
    <path class="cls-4" d="M54.6,155.12h0s7.95,4.38,14.97,2.69c22.87-5.49,45.02-13.72,68.03-18.69"/>
    <path class="cls-7" d="M32.6,131.12c8.45,5.28,16.9,10.57,25.36,15.85"/>
    <path class="cls-8" d="M37.97,121.22c3.94,2.97,7.88,5.94,11.82,8.91,3.26,2.46,6.49,5.25,10.4,6.62,4.22,1.48,8.33.83,12.68.64,4.03-.18,7.74.26,11.58-1.25,4.08-1.61,8.18-2.86,12.23-4.61s8.53-1.11,12.62-2.73c1.86-.73,3.33-2.1,5.12-2.89,2.24-.99,4.85-1,7.22-1.51,4.31-.91,8.38-2.47,12.37-4.31,2.03-.93,2.99-4.35,1.61-6.16-1.48-1.95-2.78-2.84-4.97-3.88-2.35-1.11-3.7-2.99-5.74-4.57-4.65-3.6-10.06-6.85-15.62-8.78-5.92-2.05-11.67-1.45-17.63.05-2.34.59-4.63,1.28-6.81,2.32-3.01,1.43-5.72,3.86-9.19,3.81.4,2.95.8,5.89,1.2,8.84,3.42-.75,6.02-2.21,8.73-4.39,3.42-2.75-.28-9.19-4.38-7.52-3.72,1.52-7.17,1.16-10.75,3.39-3.82,2.38-7.64,2.63-12.08,3.22-6.8.9-13.69,1.76-18.63,7.04-3.3,3.52.1,8.16,4.38,7.52,6.82-1.01,13.64-2.02,20.46-3.03-1.16-2.74-2.31-5.48-3.47-8.22-2.92,1.57-5.83,3.14-8.75,4.71-3.95,2.13-2.12,8.44,2.27,8.39,4-.05,8.01-.11,12.01-.16l-2.27-8.39c-1.82,1.22-3.6,2.21-5.67,2.96-4.49,1.62-4.19,9.11,1.2,8.84,2.89-.15,5.78-.29,8.67-.44-.76-2.8-1.51-5.59-2.27-8.39l-6.91,3.94c-4.4,2.51-1.47,9.66,3.47,8.22,2.28-.66,4.33-.92,6.7-.86l-3.18-7.68c-1.02.84-2.04,1.67-3.07,2.51-3.74,3.06.39,8.38,4.38,7.52,2.4-.52,4.73-.78,7.19-.84-1.06-2.56-2.12-5.12-3.18-7.68-.52.53-1.04,1.05-1.56,1.58-3.41,3.45.18,8.17,4.38,7.52,1.92-.3,3.77-.41,5.7-.45-.76-2.8-1.51-5.59-2.27-8.39-.56.52-1.2.92-1.92,1.2-4.52,2.26-1.37,9.9,3.47,8.22.81-.28,1.61-.56,2.42-.83,4.77-1.65,4-8.62-1.2-8.84-5.86-.25-12.82.45-18.51-.98l2.69,2.07c-2.37-3.16-4.79-4.45-8.76-4.58.76,2.8,1.51,5.59,2.27,8.39,8.58-4.58,17.86-7.24,27.18-9.85,5.15-1.44,3.66-8.36-1.2-8.84s-9.68-.19-14.4,1.24c-5.63,1.7-3.24,9.66,2.39,8.68,6.89-1.2,13.71-2.64,20.49-4.33-1.69-2.2-3.39-4.41-5.08-6.61-2.6,4.49-8.8,6.45-12.75,9.66s1.13,9.45,5.45,7.07c2.45-1.35,4.93-2.55,7.55-3.56-1.46-2.51-2.92-5.01-4.38-7.52-1.82,1.67-3.28,3.51-4.56,5.61-1.86,3.06,1.33,8.19,5.08,6.61,2.84-1.2,5.69-2.1,8.77-2.46-.76-2.8-1.51-5.59-2.27-8.39-3.08,1.61-6.21,3.01-9.48,4.2l2.39,8.68c3.78-1.57,7.54-3.15,11.67-3.42-1.06-2.56-2.12-5.12-3.18-7.68-1.37,1.34-2.75,2.68-4.12,4.02-3.05,2.98.05,9.16,4.38,7.52,3.05-1.15,5.94-2.49,8.73-4.19,3.86-2.35,2.19-8.25-2.27-8.39-8.5-.25-16.99-.21-25.49.12-5.92.23-5.64,8.35,0,9,6.19.71,12.38-.33,17.98-3.1,2.69-1.33,4.91-3.41,7.57-4.76,2.39-1.21,4.51-1.65,6.49-3.61,2.44-2.42,1.23-6.58-1.99-7.52-2.73-.8-5.39-1.19-8.23-1.25l3.89,6.77.61-.84c-.9.69-1.79,1.38-2.69,2.07,6.34-2.56,11.19,2.62,15.73,6.12,2.51,1.93,5.72-.3,6.61-2.69l.56-1.51-5.54,3.14-.18-.23c1.85-1.85,3.69-3.69,5.54-5.54-7.6-1.29-14.21.46-20.17,5.36,2.56,1.06,5.12,2.12,7.68,3.18l-.53.81c3.89-2.34,2.16-8.23-2.27-8.39-1.69-.06-3.38-.12-5.07-.18-5.79-.2-5.78,8.8,0,9,1.69.06,3.38.12,5.07.18-.76-2.8-1.51-5.59-2.27-8.39-2.74,1.65-3.99,3.73-3.92,6.96.09,4.15,4.74,5.6,7.68,3.18,3.23-2.65,7.29-3.74,11.41-3.04,3.11.53,6.74-1.99,5.54-5.54-1.07-3.15-2.93-5.04-6.11-6.06-2.46-.79-4.72.94-5.54,3.14l-.56,1.51,6.61-2.69c-3.98-3.06-7.59-6.83-12.75-7.47s-10.07-.98-13.21,3.35c-2.09,2.89.76,6.71,3.89,6.77,2.07.04,3.85.34,5.84.92-.66-2.51-1.32-5.01-1.99-7.52-1.31,1.29-3.69,1.65-5.28,2.57-1.92,1.1-3.6,2.56-5.53,3.65-4.61,2.59-9.67,3.22-14.86,2.62v9c8.5-.33,16.99-.37,25.49-.12l-2.27-8.39c-2.13,1.3-4.24,2.4-6.58,3.28,1.46,2.51,2.92,5.01,4.38,7.52l4.12-4.02c2.67-2.6.78-7.95-3.18-7.68-5,.33-9.47,1.83-14.06,3.74-5.2,2.16-3.16,10.69,2.39,8.68,4-1.45,7.87-3.13,11.63-5.1s2.23-8.91-2.27-8.39c-3.93.46-7.5,1.24-11.16,2.78,1.69,2.2,3.39,4.41,5.08,6.61.91-1.5,1.86-2.61,3.15-3.79,3.17-2.92-.13-9.16-4.38-7.52-3.34,1.29-6.56,2.74-9.7,4.46l5.45,7.07c4.93-4.01,10.79-5.69,14.15-11.48,2.01-3.45-1.3-7.55-5.08-6.61-6.78,1.69-13.61,3.13-20.49,4.33.8,2.89,1.6,5.79,2.39,8.68,4.04-1.22,7.83-1.33,12.01-.92-.4-2.95-.8-5.89-1.2-8.84-10.07,2.82-20.07,5.8-29.33,10.75-4.09,2.18-2.01,8.24,2.27,8.39,1.48.05,1.28.9,2.6,1.73,1.8,1.14,4.45,1.01,6.44,1.09,5.18.22,10.36.44,15.54.66-.4-2.95-.8-5.89-1.2-8.84-.81.28-1.61.56-2.42.83,1.16,2.74,2.31,5.48,3.47,8.22.71-.28,1.35-.68,1.92-1.2,3.26-2.49,2.64-8.5-2.27-8.39-2.73.07-5.4.36-8.1.77,1.46,2.51,2.92,5.01,4.38,7.52.52-.53,1.04-1.05,1.56-1.58,2.68-2.71.77-7.78-3.18-7.68-3.25.08-6.4.47-9.58,1.16,1.46,2.51,2.92,5.01,4.38,7.52,1.02-.84,2.04-1.67,3.07-2.51,3.18-2.61.41-7.59-3.18-7.68-3.12-.08-6.09.31-9.09,1.18,1.16,2.74,2.31,5.48,3.47,8.22l6.91-3.94c3.76-2.15,2.26-8.62-2.27-8.39-2.89.15-5.78.29-8.67.44.4,2.95.8,5.89,1.2,8.84,2.79-1,5.36-2.21,7.82-3.86,3.56-2.39,2.41-8.45-2.27-8.39-4,.05-8.01.11-12.01.16.76,2.8,1.51,5.59,2.27,8.39,2.92-1.57,5.83-3.14,8.75-4.71,4.84-2.61,1.23-8.92-3.47-8.22-6.82,1.01-13.64,2.02-20.46,3.03,1.46,2.51,2.92,5.01,4.38,7.52,4.51-4.82,13.01-4.48,19.09-5.3,3.1-.42,5.92-1.02,8.62-2.67,1.52-.93,2.52-1.9,4.32-2.27,1.91-.39,3.61-.34,5.46-1.09-1.46-2.51-2.92-5.01-4.38-7.52-1.47,1.18-2.96,1.68-4.76,2.07-5.04,1.11-3.79,8.78,1.2,8.84s8.2-2.23,12.32-4.33c4.75-2.42,11.28-4.06,16.52-2.87s9.82,4.23,13.95,7.2c1.83,1.32,3.15,3.09,4.92,4.44,1.04.8,3.89,1.37,4.49,2.16.54-2.05,1.08-4.1,1.61-6.16-3.8,1.75-7.78,2.97-11.9,3.72s-6.63,1.93-10.36,3.78c-3.48,1.72-7.32,1.18-10.99,2.25s-6.96,2.75-10.61,3.79c-1.5.43-2.73,1.13-4.14,1.71-2.46,1.01-4.34.72-6.91.76-4.04.07-8.42,1.32-12.26-.41-3.44-1.55-6.46-4.42-9.44-6.67-3.45-2.6-6.9-5.19-10.35-7.79-4.63-3.49-9.12,4.33-4.54,7.77h0Z"/>
    <path class="cls-2" d="M56.6,146.12h0s7.95,4.38,14.97,2.69c22.87-5.49,45.02-13.72,68.03-18.69"/>
    <path class="cls-1" d="M57.6,137.12c5.02,2.59,10.02,3.59,16.02,2.59,22-5,41-12,62.39-17.55"/>
    <path class="cls-1" d="M134.61,111.05c-7.27-4.55-14.55-9.09-21.82-13.64"/>
    <path class="cls-3" d="M114.15,98.26h0s-7.95-4.38-14.97-2.69"/>
    <path class="cls-1" d="M134.61,122.52s16.79-3.7-.85-12.01"/>
    <path class="cls-2" d="M32.83,121.14c-1.84.6-4.81,1.66-5.44,3.75-1.15,3.82,5.47,6.64,7.93,7.8"/>
    <path class="cls-1" d="M114.39,98.19c-5.02-2.59-10.02-3.59-16.02-2.59-22,5-41,12-62.39,17.55"/>
    <path class="cls-1" d="M37.37,124.26c7.27,4.55,14.55,9.09,21.82,13.64"/>
    <path class="cls-1" d="M38.23,124.79c-17.64-8.31-.85-12.01-.85-12.01"/>
    <path class="cls-5" d="M27.34,136.91c-1.84.6-4.81,1.66-5.44,3.75-1.15,3.82,5.47,6.64,7.93,7.8"/>
    <path class="cls-4" d="M30.34,129.91c-1.84.6-4.81,1.66-5.44,3.75-1.15,3.82,5.47,6.64,7.93,7.8"/>
    <path class="cls-2" d="M135.57,130.56c1.94-.46,4.21-1.15,5.73-2.48,3.47-3.05-.46-6.15-3.31-7.81"/>
    <path class="cls-4" d="M135.21,139.63c2.29-.53,6.15-1.53,6.94-4.14s-1.89-4.51-3.72-5.67"/>
    <path class="cls-5" d="M135.22,147.36c2.29-.53,6.15-1.53,6.94-4.14.75-2.49-1.89-4.51-3.72-5.67"/>
    <g>
      <path class="cls-12" d="M32.55,78.29c.9-.02,1.68.1,2.37.37.68.27,1.27.64,1.76,1.12.49.48.88,1.05,1.17,1.71.29.66.48,1.37.59,2.11.85-.06,1.67-.15,2.46-.26.79-.11,1.6-.21,2.43-.32-.15.49-.39.96-.72,1.42s-.72.89-1.18,1.29c-.46.41-.97.77-1.54,1.09-.56.32-1.16.6-1.77.83-.34,1.24-.91,2.38-1.71,3.44-.8,1.05-1.82,1.86-3.05,2.41.04-.75.07-1.56.08-2.45,0-.88,0-1.81-.05-2.77-1.3-.13-2.47-.56-3.5-1.31s-1.76-1.9-2.19-3.45c1.04.11,2.01.18,2.91.21.9.03,1.75.06,2.56.08-.08-1.19-.18-2.27-.29-3.25-.11-.97-.21-1.73-.32-2.29Z"/>
      <path class="cls-12" d="M65,88.87c-.38.94-1.03,1.74-1.93,2.4-.91.66-1.93,1.21-3.09,1.66-.51,1.41-1.11,2.62-1.81,3.65-.69,1.02-1.44,1.71-2.25,2.05.04-.43.08-1.03.1-1.82.02-.79.04-1.71.06-2.75-.94.17-1.8.28-2.59.34-.79.05-1.43.05-1.92-.02-1.02-.13-1.85-.4-2.49-.82-.64-.42-1.13-.95-1.49-1.62-.35-.66-.58-1.42-.67-2.29s-.11-1.79-.05-2.8c.08-1.02.17-2.07.26-3.13.08-1.07.1-2.11.05-3.13-.05-1.02-.2-2-.45-2.94-.25-.94-.64-1.79-1.2-2.56,1.07-.06,1.96.05,2.69.34s1.32.7,1.79,1.25.82,1.18,1.06,1.92c.23.74.41,1.51.53,2.32.12.81.19,1.63.21,2.45.02.82.04,1.59.06,2.32.02,1,.12,1.8.3,2.38.18.59.45,1.03.8,1.34.35.31.79.51,1.31.59.52.09,1.13.13,1.84.13,0-1.53-.01-3.11-.03-4.72-.02-1.61-.06-3.13-.11-4.57-.05-1.44-.12-2.73-.19-3.87-.08-1.14-.17-2.01-.27-2.61,1.02-.08,1.9.07,2.64.46s1.35.96,1.85,1.69c.5.74.88,1.61,1.13,2.62.26,1.01.42,2.09.48,3.25.06,1.15.03,2.34-.1,3.58s-.32,2.45-.58,3.64c.68-.11,1.36-.23,2.03-.37.67-.14,1.35-.26,2.03-.37Z"/>
    </g>
  </g>
</svg>