<?xml version="1.0" encoding="UTF-8"?>
<svg id="Laag_1" data-name="Laag 1" xmlns="http://www.w3.org/2000/svg" viewBox="0 0 164.41 249.45">
  <defs>
    <style>
      .cls-1 {
        stroke: #fff;
        stroke-miterlimit: 10;
        stroke-width: .47px;
      }

      .cls-1, .cls-2, .cls-3 {
        fill: #fff;
      }

      .cls-2 {
        stroke: #1d1d1b;
        stroke-linejoin: round;
        stroke-width: 1.64px;
      }

      .cls-4 {
        fill: #2f2f2f;
      }

      .cls-4, .cls-5, .cls-6, .cls-3, .cls-7 {
        stroke-width: 0px;
      }

      .cls-5 {
        fill: #1d1d1b;
      }

      .cls-6 {
        fill: #de2b65;
      }

      .cls-7 {
        fill: #eb7c19;
      }
    </style>
  </defs>
  <rect class="cls-4" x="0" y="0" width="164.41" height="249.45"/>
  <g>
    <path class="cls-6" d="M141.74,206.68c-4.35,0-7.89-3.7-7.89-8.26s3.54-8.25,7.89-8.25,7.89,3.7,7.89,8.25-3.54,8.26-7.89,8.26Z"/>
    <path class="cls-5" d="M141.74,191.17c3.8,0,6.89,3.25,6.89,7.26s-3.09,7.26-6.89,7.26-6.89-3.25-6.89-7.26,3.09-7.26,6.89-7.26M141.74,189.17c-4.91,0-8.89,4.14-8.89,9.26s3.98,9.26,8.89,9.26,8.89-4.14,8.89-9.26-3.98-9.26-8.89-9.26h0Z"/>
  </g>
  <g>
    <path class="cls-7" d="M141.74,234.43c-4.35,0-7.89-3.7-7.89-8.26s3.54-8.26,7.89-8.26,7.89,3.7,7.89,8.26-3.54,8.26-7.89,8.26Z"/>
    <path class="cls-5" d="M141.74,218.92c3.8,0,6.89,3.25,6.89,7.26s-3.09,7.26-6.89,7.26-6.89-3.25-6.89-7.26,3.09-7.26,6.89-7.26M141.74,216.92c-4.91,0-8.89,4.14-8.89,9.26s3.98,9.26,8.89,9.26,8.89-4.14,8.89-9.26-3.98-9.26-8.89-9.26h0Z"/>
  </g>
  <g>
    <path class="cls-3" d="M60.77,26.71c-.25.7-.57,1.3-.96,1.79-.39.49-.83.9-1.32,1.23-.49.32-1.03.57-1.6.72s-1.17.25-1.79.26c.43.67.73,1.45.89,2.34.16.89.21,1.82.16,2.79-.05.97-.2,1.93-.45,2.89-.25.96-.57,1.85-.96,2.66-.39.82-.84,1.53-1.35,2.14s-1.05,1.03-1.64,1.26c.03-.37.06-.89.09-1.56.03-.68.04-1.43.05-2.28s.01-1.74.01-2.7-.01-1.91-.04-2.86c-.03-.95-.06-1.87-.1-2.75-.04-.88-.09-1.67-.14-2.35-.63-.18-1.23-.41-1.79-.68-.56-.27-1.05-.56-1.49-.88-.43-.32-.79-.65-1.09-1.01s-.48-.71-.56-1.06c1.03.13,2.13.22,3.3.27s2.36.07,3.59.06c1.22,0,2.45-.04,3.66-.09,1.22-.05,2.39-.12,3.53-.2Z"/>
    <path class="cls-3" d="M69.74,38.01c.03-1.85-.2-3.27-.7-4.25s-1.23-1.46-2.2-1.42c-.13,0-.25,0-.35.01-.1,0-.2.02-.3.04.23.67.37,1.41.4,2.22.03.82-.02,1.65-.15,2.5-.13.85-.33,1.69-.6,2.51s-.59,1.58-.98,2.28c-.38.69-.81,1.29-1.27,1.8-.47.51-.96.87-1.48,1.09.05-.43.09-1.04.11-1.83s.04-1.66.05-2.62,0-1.98-.01-3.04c-.02-1.06-.05-2.08-.09-3.06-.04-.98-.1-1.89-.16-2.72-.07-.83-.14-1.5-.22-2,.8-.07,1.49.02,2.07.26.58.24,1.07.59,1.45,1.04.72-.73,1.72-1.1,3.02-1.1.82,0,1.51.14,2.09.41.58.28,1.03.64,1.35,1.1.33.46.52.98.6,1.57.07.59.03,1.2-.14,1.81-.17.62-.46,1.22-.88,1.81-.42.59-.96,1.12-1.62,1.59Z"/>
    <path class="cls-3" d="M83.19,42.69c-.7.7-1.43,1.15-2.2,1.36-.77.21-1.48.3-2.15.26-.65-.03-1.26-.2-1.82-.5-.57-.3-1.05-.7-1.46-1.19-.41-.49-.72-1.06-.94-1.71-.22-.65-.31-1.34-.28-2.08.03-.65.16-1.29.38-1.91s.54-1.18.98-1.67c.43-.49.99-.88,1.66-1.17.67-.29,1.49-.44,2.44-.44.53,0,1.04.06,1.51.19s.93.35,1.36.66c-.05-.7-.35-1.23-.91-1.59-.56-.36-1.23-.6-2-.74-.78-.13-1.58-.17-2.41-.11-.83.06-1.54.16-2.12.31.33-.55.73-1.03,1.19-1.45.46-.42.95-.76,1.48-1.04.52-.27,1.06-.48,1.61-.61.55-.13,1.09-.18,1.62-.15.95.05,1.76.29,2.42.71s1.21.97,1.64,1.65c.42.67.74,1.45.94,2.32s.3,1.8.3,2.76c0,.8-.05,1.61-.16,2.42-.11.82-.28,1.6-.5,2.34-.23.74-.5,1.43-.83,2.06-.33.63-.7,1.17-1.11,1.62-.08-.32-.17-.69-.28-1.11-.1-.42-.22-.83-.35-1.21ZM78.07,38.49c.02.25.06.5.14.74.07.24.19.46.34.66.15.2.35.37.59.51.24.14.55.25.91.31.43.08.82.07,1.15-.04.33-.11.61-.27.84-.49.23-.22.4-.47.51-.76.12-.29.17-.59.17-.89,0-.4-.05-.77-.15-1.11-.1-.34-.25-.64-.45-.9s-.46-.46-.78-.61c-.32-.15-.69-.22-1.12-.2-.77.03-1.34.3-1.71.81s-.52,1.16-.44,1.96Z"/>
    <path class="cls-3" d="M96.47,26.51c.97-.07,1.77.11,2.41.54.64.43,1.15,1.03,1.52,1.8.38.77.62,1.67.75,2.69s.15,2.08.06,3.19c-.08,1.11-.25,2.21-.51,3.3-.26,1.09-.58,2.1-.97,3.02-.39.93-.84,1.72-1.34,2.39-.5.67-1.03,1.12-1.6,1.35.02-.13.03-.28.04-.45,0-.17.02-.37.04-.6-.7.28-1.47.41-2.32.38-.97-.02-1.83-.2-2.58-.54s-1.38-.8-1.9-1.39c-.52-.58-.91-1.27-1.19-2.06-.27-.79-.42-1.65-.44-2.59-.02-.97.13-1.88.44-2.74.31-.86.74-1.62,1.3-2.29.56-.67,1.23-1.2,2.01-1.61.78-.41,1.63-.64,2.55-.69.37-.02.72,0,1.06.02.34.03.67.1.99.2-.03-.87-.08-1.64-.14-2.33-.06-.68-.12-1.22-.19-1.6ZM96.92,41.51c.03-1.25.04-2.65.02-4.19-.02-1.54-.04-3.05-.08-4.54-.1,0-.2,0-.3.01-.1,0-.21.02-.33.04-.5.05-.95.22-1.35.5s-.75.63-1.04,1.05c-.29.42-.52.89-.68,1.42-.16.53-.25,1.08-.26,1.62-.05,2.18.81,3.49,2.57,3.92.48.13.96.18,1.43.15Z"/>
    <path class="cls-3" d="M116.64,38.86c-.68.1-1.3.19-1.86.26s-1.13.13-1.71.17c-.58.04-1.23.07-1.92.09-.7.02-1.53.03-2.47.03.12,1.07.7,1.86,1.74,2.38,1.04.52,2.65.67,4.81.45-.28.38-.65.71-1.1.99-.45.27-.93.5-1.45.66-.52.17-1.05.28-1.59.35-.54.07-1.05.08-1.54.05-.8-.05-1.57-.24-2.3-.58s-1.38-.81-1.92-1.44-.99-1.4-1.31-2.31-.48-1.98-.46-3.17c.02-1.23.22-2.32.6-3.25.38-.93.88-1.71,1.49-2.33s1.28-1.08,2.02-1.39c.74-.31,1.48-.46,2.21-.46,1.08,0,2.06.16,2.94.48s1.61.85,2.21,1.59c.6.74,1.04,1.72,1.34,2.94.29,1.22.39,2.72.29,4.5ZM110.29,31.94c-.35,0-.65.08-.91.25-.26.17-.47.45-.64.84s-.29.91-.36,1.56c-.08.65-.1,1.46-.09,2.42.27.02.75.02,1.45.01.7,0,1.61-.03,2.72-.06.05-.83.02-1.57-.09-2.2-.11-.63-.26-1.16-.46-1.58-.2-.42-.44-.73-.73-.94-.28-.21-.58-.31-.9-.31Z"/>
  </g>
  <g>
    <path class="cls-1" d="M22.19,177.9c-.1-.11-.17-.26-.17-.42,0-.34.28-.63.63-.63h1.29c.56,0,.91-.4.91-.9s-.35-.91-.91-.91h-2.56v5.5c0,.34-.29.63-.63.63s-.63-.28-.63-.63v-6.08c0-.34.29-.63.63-.63h3.2c1.24,0,2.15.94,2.15,2.12s-.88,2.08-2.11,2.09l1.89,2.08c.23.25.22.65-.05.88-.25.23-.65.2-.88-.05l-2.77-3.06Z"/>
    <path class="cls-1" d="M31.15,175.56c0-.34.27-.61.61-.61s.62.27.62.61v3.05c0,1.43-1.17,2.61-2.61,2.61s-2.61-1.17-2.61-2.61v-3.05c0-.34.27-.61.62-.61s.61.27.61.61v3.08c0,.75.63,1.38,1.38,1.38s1.38-.63,1.38-1.38v-3.08Z"/>
    <path class="cls-1" d="M34.23,174.04c-.42,0-.76-.33-.76-.75s.34-.75.76-.75.76.33.76.75-.34.75-.76.75ZM33.62,175.56c0-.34.27-.61.61-.61s.61.27.61.61v4.99c0,.34-.27.61-.61.61s-.61-.27-.61-.61v-4.99Z"/>
    <path class="cls-1" d="M36.08,173.15c0-.34.27-.61.61-.61s.61.27.61.61v7.4c0,.34-.27.61-.61.61s-.61-.27-.61-.61v-7.4Z"/>
    <path class="cls-1" d="M43.85,181.07c-1.82,0-3.11-1.35-3.11-3.02s1.29-3.02,3.11-3.02h.72c1.15,0,1.91.81,1.91,1.81s-.76,1.81-1.91,1.81h-1.15c-.33,0-.6-.27-.6-.6s.27-.6.6-.6h1.15c.41,0,.68-.27.68-.6s-.27-.6-.68-.6h-.72c-1.09,0-1.88.82-1.88,1.81s.79,1.81,1.88,1.81h1.74c.33,0,.6.27.6.6s-.27.6-.6.6h-1.74Z"/>
    <path class="cls-1" d="M50.35,181.07c-1.82,0-3.11-1.35-3.11-3.02s1.29-3.02,3.11-3.02h.72c1.15,0,1.91.81,1.91,1.81s-.76,1.81-1.91,1.81h-1.15c-.33,0-.6-.27-.6-.6s.27-.6.6-.6h1.15c.41,0,.68-.27.68-.6s-.27-.6-.68-.6h-.72c-1.09,0-1.88.82-1.88,1.81s.79,1.81,1.88,1.81h1.74c.33,0,.6.27.6.6s-.27.6-.6.6h-1.74Z"/>
    <path class="cls-1" d="M57.87,177.43c0-.65-.53-1.18-1.18-1.18h-1.55v4.3c0,.34-.27.61-.61.61s-.62-.27-.62-.61v-4.9c0-.34.27-.61.62-.61h2.16c1.33,0,2.41,1.08,2.41,2.41v3.1c0,.34-.27.61-.61.61s-.61-.27-.61-.61v-3.12Z"/>
    <path class="cls-1" d="M63.97,183.49c-.33,0-.6-.27-.6-.6s.27-.6.6-.6h2.16c.51,0,.92-.41.92-.92v-.28h-1.4c-1.82,0-3.11-1.35-3.11-3.02s1.29-3.02,3.11-3.02h2.02c.34,0,.61.27.61.61v5.7c0,1.17-.96,2.13-2.13,2.13h-2.19ZM67.05,176.25h-1.4c-1.09,0-1.88.82-1.88,1.81s.79,1.81,1.88,1.81h1.4v-3.62Z"/>
    <path class="cls-1" d="M72.33,181.07c-1.82,0-3.11-1.35-3.11-3.02s1.29-3.02,3.11-3.02h.72c1.15,0,1.91.81,1.91,1.81s-.76,1.81-1.91,1.81h-1.15c-.33,0-.6-.27-.6-.6s.27-.6.6-.6h1.15c.41,0,.68-.27.68-.6s-.27-.6-.68-.6h-.72c-1.09,0-1.88.82-1.88,1.81s.79,1.81,1.88,1.81h1.74c.33,0,.6.27.6.6s-.27.6-.6.6h-1.74Z"/>
    <path class="cls-1" d="M77.12,178.17v2.38c0,.34-.27.61-.61.61s-.61-.27-.61-.61v-7.4c0-.34.27-.61.61-.61s.61.27.61.61v4.79l2.81-2.81c.24-.24.61-.24.85,0,.23.24.23.61,0,.85l-2.07,2.07,2.07,2.07c.24.24.23.61,0,.85-.24.24-.61.24-.85,0l-2.81-2.81Z"/>
    <path class="cls-1" d="M84.31,181.22c-1.88,0-3.2-1.41-3.2-3.17s1.32-3.16,3.2-3.16,3.2,1.41,3.2,3.16-1.33,3.17-3.2,3.17ZM84.31,176.09c-1.14,0-1.97.89-1.97,1.97s.83,1.97,1.97,1.97,1.97-.89,1.97-1.97-.83-1.97-1.97-1.97Z"/>
    <path class="cls-1" d="M88.38,181.07c-.33,0-.6-.26-.6-.59,0-.14.06-.31.18-.46l3.11-3.78h-2.58c-.33,0-.6-.27-.6-.6s.27-.6.6-.6h3.82c.33,0,.59.26.59.59,0,.15-.06.31-.18.46l-3.11,3.78h2.57c.33,0,.6.27.6.6s-.27.6-.6.6h-3.8Z"/>
    <path class="cls-1" d="M96.27,181.07c-1.82,0-3.11-1.35-3.11-3.02s1.29-3.02,3.11-3.02h.72c1.15,0,1.91.81,1.91,1.81s-.76,1.81-1.91,1.81h-1.15c-.33,0-.6-.27-.6-.6s.27-.6.6-.6h1.15c.41,0,.68-.27.68-.6s-.27-.6-.68-.6h-.72c-1.09,0-1.88.82-1.88,1.81s.79,1.81,1.88,1.81h1.74c.33,0,.6.27.6.6s-.27.6-.6.6h-1.74Z"/>
    <path class="cls-1" d="M103.8,177.43c0-.65-.53-1.18-1.18-1.18h-1.55v4.3c0,.34-.27.61-.62.61s-.61-.27-.61-.61v-4.9c0-.34.27-.61.61-.61h2.16c1.33,0,2.41,1.08,2.41,2.41v3.1c0,.34-.27.61-.61.61s-.61-.27-.61-.61v-3.12Z"/>
    <path class="cls-1" d="M110,178.17v2.38c0,.34-.27.61-.62.61s-.61-.27-.61-.61v-7.4c0-.34.27-.61.61-.61s.62.27.62.61v4.79l2.81-2.81c.24-.24.61-.24.85,0,.23.24.23.61,0,.85l-2.07,2.07,2.07,2.07c.24.24.23.61,0,.85-.24.24-.61.24-.85,0l-2.81-2.81Z"/>
    <path class="cls-1" d="M116.22,181.07c-1.1,0-1.87-.84-1.87-1.87s.76-1.87,1.87-1.87h1.15c.33,0,.6.27.6.6s-.27.6-.6.6h-1.15c-.38,0-.64.32-.64.66s.26.66.64.66h2.21v-2.55c0-.6-.42-1.07-1.05-1.07h-1.94c-.33,0-.6-.27-.6-.6s.27-.6.6-.6h1.94c1.28,0,2.28,1.01,2.28,2.27v3.15c0,.34-.22.61-.61.61h-2.82Z"/>
    <path class="cls-1" d="M122.48,181.07c-1.1,0-1.87-.84-1.87-1.87s.76-1.87,1.87-1.87h1.15c.33,0,.6.27.6.6s-.27.6-.6.6h-1.15c-.38,0-.64.32-.64.66s.26.66.64.66h2.21v-2.55c0-.6-.42-1.07-1.05-1.07h-1.94c-.33,0-.6-.27-.6-.6s.27-.6.6-.6h1.94c1.28,0,2.28,1.01,2.28,2.27v3.15c0,.34-.22.61-.62.61h-2.82Z"/>
    <path class="cls-1" d="M131.77,177.4c0,.34-.27.61-.61.61s-.61-.27-.61-.6v-.08c0-.6-.44-1.08-1.08-1.08h-1.08v4.3c0,.34-.27.61-.62.61s-.61-.27-.61-.61v-4.9c0-.34.27-.61.61-.61h1.7c1.3,0,2.31,1.04,2.31,2.29v.07Z"/>
    <path class="cls-1" d="M135.51,181.07c-1.17,0-2.13-.96-2.13-2.13v-2.7h-.72c-.33,0-.6-.27-.6-.6s.27-.6.6-.6h.72v-1.21c0-.34.27-.61.62-.61s.61.27.61.61v1.21h1.58c.33,0,.6.27.6.6s-.27.6-.6.6h-1.58v2.71c0,.51.39.91.91.91h.67c.33,0,.6.27.6.6s-.27.6-.6.6h-.68Z"/>
    <path class="cls-1" d="M19.72,191.95c-.14-.31,0-.67.31-.81.31-.15.67,0,.81.31l1.78,4.1,1.78-4.1c.14-.31.5-.46.81-.31.31.14.44.5.31.81l-2.21,4.92c-.11.26-.35.44-.68.44s-.57-.18-.68-.44l-2.21-4.92Z"/>
    <path class="cls-1" d="M27.94,197.21c-1.1,0-1.87-.84-1.87-1.87s.76-1.87,1.87-1.87h1.15c.33,0,.6.27.6.6s-.27.6-.6.6h-1.15c-.38,0-.64.32-.64.66s.26.66.64.66h2.21v-2.55c0-.6-.42-1.07-1.05-1.07h-1.94c-.33,0-.6-.27-.6-.6s.27-.6.6-.6h1.94c1.27,0,2.28,1.01,2.28,2.27v3.15c0,.34-.22.61-.61.61h-2.82Z"/>
    <path class="cls-1" d="M36.58,193.57c0-.65-.53-1.18-1.18-1.18h-1.55v4.3c0,.34-.27.61-.61.61s-.62-.27-.62-.61v-4.9c0-.34.27-.61.62-.61h2.16c1.33,0,2.41,1.08,2.41,2.41v3.1c0,.34-.27.61-.61.61s-.61-.27-.61-.61v-3.12Z"/>
    <path class="cls-1" d="M39.89,199.62c-.33,0-.6-.27-.6-.6s.27-.6.6-.6h.24c1.02,0,1.41-.53,1.41-1.55v-5.17c0-.34.27-.61.61-.61s.61.27.61.61v5.16c0,1.7-.87,2.77-2.63,2.77h-.25ZM42.16,190.17c-.42,0-.76-.33-.76-.75s.34-.75.76-.75.76.33.76.75-.34.75-.76.75Z"/>
    <path class="cls-1" d="M46.81,197.21c-1.82,0-3.11-1.35-3.11-3.02s1.29-3.02,3.11-3.02h.72c1.15,0,1.91.81,1.91,1.81s-.76,1.81-1.91,1.81h-1.15c-.33,0-.6-.27-.6-.6s.27-.6.6-.6h1.15c.41,0,.68-.27.68-.6s-.27-.6-.68-.6h-.72c-1.09,0-1.88.82-1.88,1.81s.79,1.81,1.88,1.81h1.74c.33,0,.6.27.6.6s-.27.6-.6.6h-1.74Z"/>
    <path class="cls-1" d="M50.77,197.21c-.33,0-.6-.26-.6-.59,0-.14.06-.31.18-.46l3.11-3.78h-2.58c-.33,0-.6-.27-.6-.6s.27-.6.6-.6h3.82c.33,0,.59.26.59.59,0,.15-.06.31-.18.46l-3.11,3.78h2.57c.33,0,.6.27.6.6s-.27.6-.6.6h-3.8Z"/>
    <path class="cls-1" d="M58.66,197.21c-1.82,0-3.11-1.35-3.11-3.02s1.29-3.02,3.11-3.02h.72c1.15,0,1.91.81,1.91,1.81s-.76,1.81-1.91,1.81h-1.15c-.33,0-.6-.27-.6-.6s.27-.6.6-.6h1.15c.41,0,.68-.27.68-.6s-.27-.6-.68-.6h-.72c-1.09,0-1.88.82-1.88,1.81s.79,1.81,1.88,1.81h1.74c.33,0,.6.27.6.6s-.27.6-.6.6h-1.74Z"/>
    <path class="cls-1" d="M62.23,189.29c0-.34.27-.61.62-.61s.61.27.61.61v7.4c0,.34-.27.61-.61.61s-.62-.27-.62-.61v-7.4Z"/>
    <path class="cls-1" d="M65.51,192.38h-.72c-.33,0-.6-.27-.6-.6s.27-.6.6-.6h.72v-.41c0-1.13.83-2,2.06-2h1.21c.33,0,.6.27.6.6s-.27.6-.6.6h-1.21c-.5,0-.83.33-.83.79v.42h2.04c.33,0,.6.27.6.6s-.27.6-.6.6h-2.04v4.3c0,.34-.27.61-.62.61s-.61-.27-.61-.61v-4.3Z"/>
    <path class="cls-1" d="M79.63,193.57c0-.65-.54-1.18-1.18-1.18h-1.08v4.3c0,.34-.27.61-.62.61s-.61-.27-.61-.61v-4.3h-2.24v4.3c0,.34-.27.61-.61.61s-.61-.27-.61-.61v-4.9c0-.34.27-.61.61-.61h5.17c1.33,0,2.41,1.08,2.41,2.41v3.1c0,.34-.27.61-.61.61s-.61-.27-.61-.61v-3.12Z"/>
    <path class="cls-1" d="M84.9,197.21c-1.82,0-3.11-1.35-3.11-3.02s1.29-3.02,3.11-3.02h.72c1.15,0,1.91.81,1.91,1.81s-.76,1.81-1.91,1.81h-1.15c-.33,0-.6-.27-.6-.6s.27-.6.6-.6h1.15c.41,0,.68-.27.68-.6s-.27-.6-.68-.6h-.72c-1.09,0-1.88.82-1.88,1.81s.79,1.81,1.88,1.81h1.74c.33,0,.6.27.6.6s-.27.6-.6.6h-1.74Z"/>
    <path class="cls-1" d="M91.42,197.21c-1.17,0-2.13-.96-2.13-2.13v-2.7h-.72c-.33,0-.6-.27-.6-.6s.27-.6.6-.6h.72v-1.21c0-.34.27-.61.61-.61s.62.27.62.61v1.21h1.58c.33,0,.6.27.6.6s-.27.6-.6.6h-1.58v2.71c0,.51.39.91.91.91h.67c.33,0,.6.27.6.6s-.27.6-.6.6h-.68Z"/>
    <path class="cls-1" d="M98.87,197.21c-1.82,0-3.11-1.35-3.11-3.02s1.29-3.02,3.11-3.02h.72c1.15,0,1.91.81,1.91,1.81s-.76,1.81-1.91,1.81h-1.15c-.33,0-.6-.27-.6-.6s.27-.6.6-.6h1.15c.41,0,.68-.27.68-.6s-.27-.6-.68-.6h-.72c-1.09,0-1.88.82-1.88,1.81s.79,1.81,1.88,1.81h1.74c.33,0,.6.27.6.6s-.27.6-.6.6h-1.74Z"/>
    <path class="cls-1" d="M105.36,197.21c-1.82,0-3.11-1.35-3.11-3.02s1.29-3.02,3.11-3.02h.72c1.15,0,1.91.81,1.91,1.81s-.76,1.81-1.91,1.81h-1.15c-.33,0-.6-.27-.6-.6s.27-.6.6-.6h1.15c.41,0,.68-.27.68-.6s-.27-.6-.68-.6h-.72c-1.09,0-1.88.82-1.88,1.81s.79,1.81,1.88,1.81h1.74c.33,0,.6.27.6.6s-.27.6-.6.6h-1.74Z"/>
    <path class="cls-1" d="M112.89,193.57c0-.65-.53-1.18-1.18-1.18h-1.55v4.3c0,.34-.27.61-.62.61s-.61-.27-.61-.61v-4.9c0-.34.27-.61.61-.61h2.16c1.33,0,2.41,1.08,2.41,2.41v3.1c0,.34-.27.61-.61.61s-.61-.27-.61-.61v-3.12Z"/>
    <path class="cls-1" d="M24.73,209.67c0,.34-.27.61-.61.61s-.61-.27-.61-.6v-.08c0-.6-.44-1.08-1.08-1.08h-1.08v4.3c0,.34-.27.61-.61.61s-.62-.27-.62-.61v-4.9c0-.34.27-.61.62-.61h1.7c1.3,0,2.31,1.04,2.31,2.29v.07Z"/>
    <path class="cls-1" d="M26.94,213.35c-1.1,0-1.87-.84-1.87-1.87s.76-1.87,1.87-1.87h1.15c.33,0,.6.27.6.6s-.27.6-.6.6h-1.15c-.38,0-.64.32-.64.66s.26.66.64.66h2.21v-2.55c0-.6-.42-1.07-1.05-1.07h-1.94c-.33,0-.6-.27-.6-.6s.27-.6.6-.6h1.94c1.27,0,2.28,1.01,2.28,2.27v3.15c0,.34-.22.61-.61.61h-2.82Z"/>
    <path class="cls-1" d="M35.57,209.7c0-.65-.53-1.18-1.18-1.18h-1.55v4.3c0,.34-.27.61-.61.61s-.62-.27-.62-.61v-4.9c0-.34.27-.61.62-.61h2.16c1.33,0,2.41,1.08,2.41,2.41v3.1c0,.34-.27.61-.61.61s-.62-.27-.62-.61v-3.12Z"/>
    <path class="cls-1" d="M40.85,213.35c-1.82,0-3.11-1.35-3.11-3.02s1.29-3.02,3.11-3.02h1.4v-1.89c0-.34.27-.61.61-.61s.62.27.62.61v7.31c0,.34-.27.61-.62.61h-2.02ZM42.25,208.52h-1.4c-1.09,0-1.88.82-1.88,1.81s.79,1.81,1.88,1.81h1.4v-3.62Z"/>
    <path class="cls-1" d="M47.61,213.49c-1.88,0-3.2-1.41-3.2-3.17s1.32-3.16,3.2-3.16,3.2,1.41,3.2,3.16-1.33,3.17-3.2,3.17ZM47.61,208.36c-1.14,0-1.97.89-1.97,1.97s.83,1.97,1.97,1.97,1.97-.89,1.97-1.97-.83-1.97-1.97-1.97Z"/>
    <path class="cls-1" d="M58.72,209.7c0-.65-.54-1.18-1.18-1.18h-1.08v4.3c0,.34-.27.61-.62.61s-.61-.27-.61-.61v-4.3h-2.24v4.3c0,.34-.27.61-.61.61s-.61-.27-.61-.61v-4.9c0-.34.27-.61.61-.61h5.17c1.33,0,2.41,1.08,2.41,2.41v3.1c0,.34-.27.61-.61.61s-.61-.27-.61-.61v-3.12Z"/>
    <path class="cls-1" d="M64.92,210.44v2.38c0,.34-.27.61-.62.61s-.61-.27-.61-.61v-7.4c0-.34.27-.61.61-.61s.62.27.62.61v4.79l2.81-2.81c.24-.24.61-.24.85,0,.23.24.23.61,0,.85l-2.07,2.07,2.07,2.07c.24.24.23.61,0,.85-.24.24-.61.24-.85,0l-2.81-2.81Z"/>
    <path class="cls-1" d="M71.13,213.35c-1.1,0-1.87-.84-1.87-1.87s.76-1.87,1.87-1.87h1.15c.33,0,.6.27.6.6s-.27.6-.6.6h-1.15c-.37,0-.64.32-.64.66s.26.66.64.66h2.21v-2.55c0-.6-.42-1.07-1.05-1.07h-1.93c-.33,0-.6-.27-.6-.6s.27-.6.6-.6h1.93c1.28,0,2.28,1.01,2.28,2.27v3.15c0,.34-.22.61-.62.61h-2.82Z"/>
    <path class="cls-1" d="M77.4,213.35c-1.1,0-1.87-.84-1.87-1.87s.76-1.87,1.87-1.87h1.15c.33,0,.6.27.6.6s-.27.6-.6.6h-1.15c-.38,0-.64.32-.64.66s.26.66.64.66h2.21v-2.55c0-.6-.42-1.07-1.05-1.07h-1.94c-.33,0-.6-.27-.6-.6s.27-.6.6-.6h1.94c1.27,0,2.28,1.01,2.28,2.27v3.15c0,.34-.22.61-.61.61h-2.82Z"/>
    <path class="cls-1" d="M86.69,209.67c0,.34-.27.61-.62.61s-.61-.27-.61-.6v-.08c0-.6-.44-1.08-1.08-1.08h-1.08v4.3c0,.34-.27.61-.61.61s-.61-.27-.61-.61v-4.9c0-.34.27-.61.61-.61h1.7c1.3,0,2.31,1.04,2.31,2.29v.07Z"/>
    <path class="cls-1" d="M90.43,213.35c-1.17,0-2.13-.96-2.13-2.13v-2.7h-.72c-.33,0-.6-.27-.6-.6s.27-.6.6-.6h.72v-1.21c0-.34.27-.61.61-.61s.62.27.62.61v1.21h1.58c.33,0,.6.27.6.6s-.27.6-.6.6h-1.58v2.71c0,.51.39.91.91.91h.67c.33,0,.6.27.6.6s-.27.6-.6.6h-.68Z"/>
    <path class="cls-1" d="M94.68,208.09c-.14-.31,0-.67.31-.81.31-.15.67,0,.81.31l1.78,4.1,1.78-4.1c.14-.31.5-.46.81-.31.31.14.44.5.31.81l-2.21,4.92c-.11.26-.35.44-.68.44s-.57-.18-.68-.44l-2.21-4.92Z"/>
    <path class="cls-1" d="M102.9,213.35c-1.1,0-1.87-.84-1.87-1.87s.76-1.87,1.87-1.87h1.15c.33,0,.6.27.6.6s-.27.6-.6.6h-1.15c-.38,0-.64.32-.64.66s.26.66.64.66h2.21v-2.55c0-.6-.42-1.07-1.05-1.07h-1.94c-.33,0-.6-.27-.6-.6s.27-.6.6-.6h1.94c1.28,0,2.28,1.01,2.28,2.27v3.15c0,.34-.22.61-.61.61h-2.82Z"/>
    <path class="cls-1" d="M111.53,209.7c0-.65-.53-1.18-1.18-1.18h-1.55v4.3c0,.34-.27.61-.62.61s-.61-.27-.61-.61v-4.9c0-.34.27-.61.61-.61h2.16c1.33,0,2.41,1.08,2.41,2.41v3.1c0,.34-.27.61-.61.61s-.61-.27-.61-.61v-3.12Z"/>
    <path class="cls-1" d="M22.92,229.48c-1.82,0-3.11-1.35-3.11-3.02s1.29-3.02,3.11-3.02h.72c1.15,0,1.91.81,1.91,1.81s-.76,1.81-1.91,1.81h-1.15c-.33,0-.6-.27-.6-.6s.27-.6.6-.6h1.15c.41,0,.68-.27.68-.6s-.27-.6-.68-.6h-.72c-1.09,0-1.88.82-1.88,1.81s.79,1.81,1.88,1.81h1.74c.33,0,.6.27.6.6s-.27.6-.6.6h-1.74Z"/>
    <path class="cls-1" d="M29.41,229.48c-1.82,0-3.11-1.35-3.11-3.02s1.29-3.02,3.11-3.02h.72c1.15,0,1.91.81,1.91,1.81s-.76,1.81-1.91,1.81h-1.15c-.33,0-.6-.27-.6-.6s.27-.6.6-.6h1.15c.41,0,.68-.27.68-.6s-.27-.6-.68-.6h-.72c-1.09,0-1.88.82-1.88,1.81s.79,1.81,1.88,1.81h1.74c.33,0,.6.27.6.6s-.27.6-.6.6h-1.74Z"/>
    <path class="cls-1" d="M36.94,225.84c0-.65-.54-1.18-1.18-1.18h-1.55v4.3c0,.34-.27.61-.61.61s-.61-.27-.61-.61v-4.9c0-.34.27-.61.61-.61h2.16c1.33,0,2.41,1.08,2.41,2.41v3.1c0,.34-.27.61-.61.61s-.61-.27-.61-.61v-3.12Z"/>
    <path class="cls-1" d="M43.5,229.48c-1.1,0-1.87-.84-1.87-1.87s.76-1.87,1.87-1.87h1.15c.33,0,.6.27.6.6s-.27.6-.6.6h-1.15c-.37,0-.64.32-.64.66s.26.66.64.66h2.21v-2.55c0-.6-.42-1.07-1.05-1.07h-1.93c-.33,0-.6-.27-.6-.6s.27-.6.6-.6h1.93c1.28,0,2.28,1.01,2.28,2.27v3.15c0,.34-.22.61-.62.61h-2.82Z"/>
    <path class="cls-1" d="M52.13,225.84c0-.65-.53-1.18-1.18-1.18h-1.55v4.3c0,.34-.27.61-.62.61s-.61-.27-.61-.61v-4.9c0-.34.27-.61.61-.61h2.16c1.33,0,2.41,1.08,2.41,2.41v3.1c0,.34-.27.61-.62.61s-.61-.27-.61-.61v-3.12Z"/>
    <path class="cls-1" d="M57.41,229.48c-1.82,0-3.11-1.35-3.11-3.02s1.29-3.02,3.11-3.02h1.4v-1.89c0-.34.27-.61.61-.61s.61.27.61.61v7.31c0,.34-.27.61-.61.61h-2.02ZM58.81,224.66h-1.4c-1.09,0-1.88.82-1.88,1.81s.79,1.81,1.88,1.81h1.4v-3.62Z"/>
    <path class="cls-1" d="M64.08,229.48c-1.82,0-3.11-1.35-3.11-3.02s1.29-3.02,3.11-3.02h.72c1.15,0,1.91.81,1.91,1.81s-.76,1.81-1.91,1.81h-1.15c-.33,0-.6-.27-.6-.6s.27-.6.6-.6h1.15c.41,0,.68-.27.68-.6s-.27-.6-.68-.6h-.72c-1.09,0-1.88.82-1.88,1.81s.79,1.81,1.88,1.81h1.74c.33,0,.6.27.6.6s-.27.6-.6.6h-1.74Z"/>
    <path class="cls-1" d="M72.27,225.81c0,.34-.27.61-.62.61s-.61-.27-.61-.6v-.08c0-.6-.44-1.08-1.08-1.08h-1.08v4.3c0,.34-.27.61-.61.61s-.61-.27-.61-.61v-4.9c0-.34.27-.61.61-.61h1.7c1.3,0,2.31,1.04,2.31,2.29v.07Z"/>
    <path class="cls-1" d="M76.04,229.48c-1.82,0-3.11-1.35-3.11-3.02s1.29-3.02,3.11-3.02h.72c1.15,0,1.91.81,1.91,1.81s-.76,1.81-1.91,1.81h-1.15c-.33,0-.6-.27-.6-.6s.27-.6.6-.6h1.15c.41,0,.68-.27.68-.6s-.27-.6-.68-.6h-.72c-1.09,0-1.88.82-1.88,1.81s.79,1.81,1.88,1.81h1.74c.33,0,.6.27.6.6s-.27.6-.6.6h-1.74Z"/>
    <path class="cls-1" d="M83.34,229.48v1.89c0,.34-.27.61-.62.61s-.61-.27-.61-.61v-7.31c0-.34.27-.61.61-.61h2.02c1.82,0,3.11,1.35,3.11,3.02s-1.29,3.02-3.11,3.02h-1.4ZM84.74,228.28c1.09,0,1.88-.82,1.88-1.81s-.79-1.81-1.88-1.81h-1.4v3.62h1.4Z"/>
    <path class="cls-1" d="M91.71,229.48c-1.82,0-3.11-1.35-3.11-3.02s1.29-3.02,3.11-3.02h.72c1.15,0,1.91.81,1.91,1.81s-.76,1.81-1.91,1.81h-1.15c-.33,0-.6-.27-.6-.6s.27-.6.6-.6h1.15c.41,0,.68-.27.68-.6s-.27-.6-.68-.6h-.72c-1.09,0-1.88.82-1.88,1.81s.79,1.81,1.88,1.81h1.74c.33,0,.6.27.6.6s-.27.6-.6.6h-1.74Z"/>
    <path class="cls-1" d="M99.9,225.81c0,.34-.27.61-.61.61s-.61-.27-.61-.6v-.08c0-.6-.44-1.08-1.08-1.08h-1.08v4.3c0,.34-.27.61-.62.61s-.61-.27-.61-.61v-4.9c0-.34.27-.61.61-.61h1.7c1.3,0,2.31,1.04,2.31,2.29v.07Z"/>
    <path class="cls-1" d="M101.34,229.48c-.33,0-.6-.27-.6-.6s.27-.6.6-.6h2.55c.41,0,.68-.27.68-.6s-.27-.6-.68-.6h-1.41c-1.15,0-1.91-.81-1.91-1.81s.76-1.81,1.91-1.81h2.55c.33,0,.6.27.6.6s-.27.6-.6.6h-2.55c-.41,0-.68.27-.68.6s.27.6.68.6h1.41c1.15,0,1.91.81,1.91,1.81s-.76,1.81-1.91,1.81h-2.55Z"/>
    <path class="cls-1" d="M109.64,229.63c-1.88,0-3.2-1.41-3.2-3.17s1.32-3.16,3.2-3.16,3.2,1.41,3.2,3.16-1.33,3.17-3.2,3.17ZM109.64,224.5c-1.14,0-1.97.89-1.97,1.97s.83,1.97,1.97,1.97,1.97-.89,1.97-1.97-.83-1.97-1.97-1.97Z"/>
    <path class="cls-1" d="M116.8,229.63c-1.88,0-3.2-1.41-3.2-3.17s1.32-3.16,3.2-3.16,3.2,1.41,3.2,3.16-1.33,3.17-3.2,3.17ZM116.8,224.5c-1.14,0-1.97.89-1.97,1.97s.83,1.97,1.97,1.97,1.97-.89,1.97-1.97-.83-1.97-1.97-1.97Z"/>
    <path class="cls-1" d="M124.89,225.84c0-.65-.53-1.18-1.18-1.18h-1.55v4.3c0,.34-.27.61-.62.61s-.61-.27-.61-.61v-4.9c0-.34.27-.61.61-.61h2.16c1.33,0,2.41,1.08,2.41,2.41v3.1c0,.34-.27.61-.61.61s-.61-.27-.61-.61v-3.12Z"/>
  </g>
  <g>
    <path class="cls-6" d="M50.08,58.98h19.42c3.18,0,5.76,2.58,5.76,5.76v36.66c0,3.18-2.58,5.76-5.76,5.76h-19.42c-3.18,0-5.76-2.58-5.76-5.76v-36.66c0-3.18,2.58-5.76,5.76-5.76Z"/>
    <path class="cls-5" d="M69.51,60.18c2.52,0,4.56,2.05,4.56,4.56v36.66c0,2.52-2.05,4.56-4.56,4.56h-19.42c-2.52,0-4.56-2.05-4.56-4.56v-36.66c0-2.52,2.05-4.56,4.56-4.56h19.42M69.51,57.79h-19.42c-3.82,0-6.95,3.13-6.95,6.95v36.66c0,3.82,3.13,6.95,6.95,6.95h19.42c3.82,0,6.95-3.13,6.95-6.95v-36.66c0-3.82-3.13-6.95-6.95-6.95h0Z"/>
  </g>
  <g>
    <rect class="cls-7" x="81.39" y="109.32" width="30.94" height="48.18" rx="4.57" ry="4.57"/>
    <path class="cls-5" d="M107.76,110.52c1.86,0,3.37,1.51,3.37,3.37v39.04c0,1.86-1.51,3.37-3.37,3.37h-21.8c-1.86,0-3.37-1.51-3.37-3.37v-39.04c0-1.86,1.51-3.37,3.37-3.37h21.8M107.76,108.13h-21.8c-3.17,0-5.76,2.59-5.76,5.76v39.04c0,3.17,2.59,5.76,5.76,5.76h21.8c3.17,0,5.76-2.59,5.76-5.76v-39.04c0-3.17-2.59-5.76-5.76-5.76h0Z"/>
  </g>
  <path class="cls-2" d="M64.43,127.08v1.95c-4.9-.52-8.8-5.24-9.14-11.13h-3.76c.35,8.37,5.92,15.09,12.9,15.63v1.86c0,1.61,1.46,2.61,2.62,1.81l6.02-4.15c1.17-.8,1.17-2.81,0-3.62l-6.02-4.15c-1.17-.8-2.62.2-2.62,1.81Z"/>
  <path class="cls-2" d="M92.31,89.82v-1.95c4.9.52,8.8,5.24,9.14,11.13h3.76c-.35-8.37-5.92-15.09-12.9-15.63v-1.86c0-1.61-1.46-2.61-2.62-1.81l-6.02,4.15c-1.17.8-1.17,2.81,0,3.62l6.02,4.15c1.17.8,2.62-.2,2.62-1.81Z"/>
</svg>