<?xml version="1.0" encoding="UTF-8"?>
<svg id="Laag_1" data-name="Laag 1" xmlns="http://www.w3.org/2000/svg" viewBox="0 0 164.41 249.45">
  <defs>
    <style>
      .cls-1, .cls-2, .cls-3, .cls-4 {
        fill: #fff;
      }

      .cls-1, .cls-5, .cls-6 {
        stroke-width: 3.25px;
      }

      .cls-1, .cls-5, .cls-6, .cls-3 {
        stroke-linecap: round;
        stroke-linejoin: round;
      }

      .cls-1, .cls-5, .cls-3 {
        stroke: #1d1d1b;
      }

      .cls-2 {
        stroke: #fff;
        stroke-miterlimit: 10;
        stroke-width: .45px;
      }

      .cls-5, .cls-6 {
        fill: #f7f7f7;
      }

      .cls-6 {
        stroke: #000;
      }

      .cls-3 {
        stroke-width: 3.39px;
      }

      .cls-7 {
        fill: #8082b8;
      }

      .cls-7, .cls-8, .cls-9, .cls-10, .cls-4 {
        stroke-width: 0px;
      }

      .cls-8 {
        fill: #2f2f2f;
      }

      .cls-9 {
        fill: #1d1d1b;
      }

      .cls-10 {
        fill: #8abb2a;
      }
    </style>
  </defs>
  <rect class="cls-8" x="0" width="164.41" height="249.45"/>
  <g>
    <path class="cls-7" d="M141.73,206.68c-4.35,0-7.89-3.7-7.89-8.26s3.54-8.25,7.89-8.25,7.89,3.7,7.89,8.25-3.54,8.26-7.89,8.26Z"/>
    <path class="cls-9" d="M141.73,191.17c3.8,0,6.89,3.25,6.89,7.26s-3.09,7.26-6.89,7.26-6.89-3.25-6.89-7.26,3.09-7.26,6.89-7.26M141.73,189.17c-4.91,0-8.89,4.14-8.89,9.26s3.98,9.26,8.89,9.26,8.89-4.14,8.89-9.26-3.98-9.26-8.89-9.26h0Z"/>
  </g>
  <g>
    <ellipse class="cls-10" cx="141.73" cy="226.17" rx="7.89" ry="8.26"/>
    <path class="cls-9" d="M141.73,218.92c3.8,0,6.89,3.25,6.89,7.26s-3.09,7.26-6.89,7.26-6.89-3.25-6.89-7.26,3.09-7.26,6.89-7.26M141.73,216.92c-4.91,0-8.89,4.14-8.89,9.26s3.98,9.26,8.89,9.26,8.89-4.14,8.89-9.26-3.98-9.26-8.89-9.26h0Z"/>
  </g>
  <g>
    <path class="cls-4" d="M28.56,41.4c.01.64-.11,1.22-.38,1.73-.27.51-.63.95-1.09,1.31-.46.37-.98.64-1.57.83-.58.19-1.17.28-1.75.26-1.07-.01-2-.21-2.8-.59-.8-.38-1.47-.89-2.01-1.53-.54-.64-.95-1.4-1.23-2.28s-.42-1.83-.44-2.87c-.01-1.07.13-2.07.44-3.02.31-.95.74-1.79,1.29-2.53.56-.74,1.22-1.33,1.98-1.77.77-.44,1.61-.7,2.53-.76.54-.03,1.07.02,1.59.15.52.13.98.35,1.38.67s.73.72.99,1.22.4,1.09.45,1.77c-.47-.45-.94-.74-1.41-.85-.47-.12-.98-.14-1.52-.07-.56.07-1.05.26-1.48.57-.43.31-.8.69-1.09,1.16-.3.47-.53.99-.69,1.57-.16.58-.25,1.17-.26,1.78-.03,1.23.18,2.2.63,2.91.45.72,1.17,1.2,2.15,1.45.35.09.73.13,1.13.13s.8-.05,1.18-.14.76-.23,1.11-.42c.35-.18.65-.41.9-.69Z"/>
    <path class="cls-4" d="M42.4,44.24c-.25.37-.5.66-.74.88-.25.22-.48.39-.71.5s-.44.19-.64.23c-.2.04-.38.05-.54.05-.57,0-1.03-.1-1.39-.31-.36-.2-.63-.49-.83-.85-.2-.36-.33-.8-.39-1.31-.07-.51-.11-1.07-.12-1.66-.02-.36-.01-.89.01-1.58.02-.69.02-1.58-.01-2.67-.02-.51-.1-.85-.26-1.03-.16-.18-.5-.26-1.03-.26-.23,0-.45,0-.66.02-.2.01-.41.04-.61.07-.01,1.01-.12,2.03-.33,3.07-.2,1.04-.49,2-.84,2.9s-.77,1.67-1.24,2.32c-.47.65-.97,1.08-1.51,1.3.04-.38.08-.97.1-1.76.02-.8.04-1.7.04-2.72,0-1.01,0-2.08-.01-3.21-.02-1.12-.04-2.2-.08-3.24-.04-1.04-.08-1.97-.14-2.81-.06-.84-.12-1.48-.2-1.92.58-.04,1.1.02,1.54.19.44.17.83.42,1.16.74s.6.73.81,1.19c.21.47.38.99.49,1.55.5-.28,1.01-.48,1.55-.62.54-.14,1.09-.21,1.64-.21.61,0,1.11.08,1.49.23.38.15.68.37.89.66.21.28.35.64.43,1.05s.11.89.11,1.41c0,1.26,0,2.32.01,3.21,0,.88.03,1.61.08,2.19.04.58.11,1.03.19,1.36s.19.57.34.73.33.26.56.28c.23.03.51.04.84.02Z"/>
    <path class="cls-4" d="M50.08,32.31c-.76.63-1.37,1.32-1.82,2.08-.45.76-.78,1.52-.99,2.28-.2.76-.3,1.49-.3,2.2,0,.71.1,1.34.27,1.89.18.55.42,1,.72,1.32.31.33.66.49,1.05.49.42,0,.78-.14,1.08-.42.3-.28.53-.64.69-1.09.16-.45.24-.97.25-1.55,0-.58-.07-1.19-.22-1.81-.15-.62-.39-1.23-.7-1.83-.31-.6-.72-1.14-1.22-1.62,1.15.01,2.12.23,2.91.66.79.42,1.4.97,1.85,1.65.44.68.73,1.44.84,2.29.12.85.07,1.71-.13,2.58-.13.6-.36,1.17-.68,1.72-.32.55-.71,1.03-1.17,1.45-.46.42-.99.74-1.58.99-.59.24-1.22.36-1.89.36-.86,0-1.63-.15-2.32-.44-.69-.29-1.27-.7-1.75-1.24-.48-.53-.86-1.17-1.13-1.9-.27-.74-.41-1.54-.43-2.42-.03-.93.1-1.82.39-2.67.29-.85.72-1.61,1.29-2.3.57-.69,1.27-1.26,2.1-1.73.83-.47,1.78-.78,2.85-.94Z"/>
    <path class="cls-4" d="M63.28,32.31c-.76.63-1.37,1.32-1.82,2.08-.45.76-.78,1.52-.99,2.28-.2.76-.3,1.49-.3,2.2,0,.71.1,1.34.27,1.89s.42,1,.72,1.32.66.49,1.05.49c.42,0,.79-.14,1.08-.42.3-.28.53-.64.69-1.09.16-.45.24-.97.25-1.55,0-.58-.07-1.19-.22-1.81-.15-.62-.39-1.23-.7-1.83-.31-.6-.72-1.14-1.22-1.62,1.15.01,2.12.23,2.91.66.79.42,1.4.97,1.85,1.65.45.68.73,1.44.84,2.29.12.85.07,1.71-.13,2.58-.13.6-.36,1.17-.68,1.72s-.71,1.03-1.17,1.45c-.46.42-.99.74-1.58.99-.59.24-1.22.36-1.89.36-.86,0-1.64-.15-2.32-.44s-1.27-.7-1.75-1.24c-.48-.53-.86-1.17-1.13-1.9-.27-.74-.41-1.54-.43-2.42-.03-.93.1-1.82.4-2.67.29-.85.72-1.61,1.29-2.3.57-.69,1.27-1.26,2.1-1.73.83-.47,1.78-.78,2.85-.94Z"/>
    <path class="cls-4" d="M77.82,37.48c0-.22-.07-.46-.22-.71-.15-.26-.34-.49-.58-.71-.24-.22-.53-.4-.88-.55-.34-.15-.71-.22-1.11-.22-.16,0-.33.01-.49.03-.17.02-.33.07-.48.14-.15.07-.29.17-.4.3-.11.12-.18.29-.21.49-.04.26.03.51.22.76.19.24.47.46.83.67.29.16.58.32.85.48.28.16.51.28.7.37.64.32,1.18.64,1.62.94s.79.62,1.05.95.45.67.57,1.03c.12.36.18.74.18,1.15,0,.51-.11.98-.32,1.4-.21.42-.52.79-.92,1.11s-.89.56-1.48.73-1.25.26-1.99.26c-.88,0-1.68-.12-2.4-.35-.72-.23-1.29-.56-1.71-.97-.42-.42-.65-.91-.7-1.48s.16-1.2.62-1.88c.1.39.28.73.53,1.02.25.28.54.51.88.68s.7.28,1.09.34c.39.06.8.07,1.2.02.38-.04.72-.17,1.03-.38.31-.21.46-.46.46-.76,0-.23-.04-.43-.11-.58-.07-.15-.2-.3-.39-.45s-.46-.3-.8-.47c-.34-.17-.78-.38-1.3-.65-.73-.36-1.31-.73-1.74-1.09-.43-.36-.76-.72-.99-1.07-.23-.35-.37-.7-.44-1.06-.07-.36-.1-.71-.1-1.06,0-.44.11-.85.34-1.24.23-.39.54-.72.95-1.01.41-.28.89-.51,1.44-.69.55-.17,1.14-.28,1.78-.31.82-.03,1.57.09,2.24.35.68.26,1.2.62,1.57,1.06.36.45.53.97.5,1.57-.03.6-.34,1.21-.92,1.84Z"/>
    <path class="cls-4" d="M92.87,40.94c-.6.09-1.14.16-1.63.23-.49.07-.99.12-1.5.15-.51.04-1.07.06-1.69.08-.61.01-1.34.02-2.17.02.1.93.61,1.63,1.52,2.08.91.45,2.32.58,4.22.39-.25.34-.57.62-.96.87-.39.24-.82.43-1.27.58-.45.15-.92.25-1.39.31-.47.06-.92.07-1.35.04-.7-.04-1.37-.21-2.01-.5-.64-.29-1.2-.71-1.69-1.26s-.86-1.22-1.15-2.03c-.28-.8-.42-1.73-.41-2.78.01-1.08.19-2.03.53-2.85.34-.82.77-1.5,1.3-2.04.53-.54,1.12-.95,1.77-1.22.65-.27,1.29-.41,1.94-.41.95,0,1.81.14,2.57.42.77.28,1.41.74,1.94,1.39.53.65.92,1.51,1.17,2.57.26,1.07.34,2.38.25,3.94ZM87.3,34.87c-.31,0-.57.07-.8.22-.23.15-.41.39-.56.73s-.25.8-.32,1.37-.09,1.28-.08,2.12c.23.01.66.02,1.27.01.61,0,1.41-.03,2.39-.05.04-.73.02-1.37-.08-1.93-.09-.55-.23-1.01-.41-1.38-.17-.36-.39-.64-.63-.82s-.51-.27-.79-.27Z"/>
    <path class="cls-4" d="M109.77,33.78c-.1.61-.29,1.14-.56,1.59-.27.45-.58.81-.93,1.09-.35.28-.73.5-1.14.64s-.81.21-1.2.21h-.42c.03.85.08,1.64.14,2.39.07.74.16,1.4.3,1.96.13.56.3,1.01.5,1.35.2.34.46.53.77.57.15.03.31.04.49.03.18,0,.38-.06.6-.16.22-.1.46-.27.71-.5.25-.23.54-.57.84-1.01.04.57.01,1.1-.09,1.59-.1.49-.29.92-.57,1.28-.28.37-.65.65-1.12.85-.47.2-1.04.31-1.71.31-.88,0-1.65-.21-2.33-.64-.68-.42-1.16-1.01-1.43-1.75-.15-.39-.26-.85-.35-1.38-.09-.53-.15-1.09-.2-1.71-.04-.61-.05-1.26-.03-1.93.02-.67.07-1.34.14-2.01-.63-.35-1.09-.78-1.38-1.28-.29-.5-.5-1.01-.61-1.52.42.06.84.11,1.25.14.41.04.8.07,1.18.1.13-.57.3-1.11.49-1.62s.42-.96.66-1.36c.24-.39.51-.72.82-.99.31-.26.63-.44.99-.53-.01.69-.03,1.4-.05,2.16s-.04,1.56-.05,2.42c.7-.01,1.39-.05,2.08-.1.69-.05,1.42-.11,2.21-.19Z"/>
    <path class="cls-4" d="M110.67,34.41c.25-.36.5-.66.74-.88s.48-.39.71-.5c.23-.12.44-.19.63-.23.2-.04.38-.05.54-.05.57,0,1.03.1,1.39.31.36.2.64.49.83.85.2.37.33.8.39,1.31.07.51.11,1.07.12,1.66.01.37.01.93-.01,1.69-.02.76-.02,1.69.01,2.78.01.51.1.85.26,1.03.16.18.5.26,1.03.26.32,0,.62-.01.91-.03.28-.02.59-.05.91-.1.02-.85.02-1.75,0-2.7-.01-.96-.04-1.88-.07-2.76-.03-.88-.07-1.7-.13-2.45s-.13-1.35-.22-1.81c1.02,0,1.83.29,2.41.86.58.58.99,1.31,1.22,2.19.23.88.3,1.86.22,2.93-.08,1.07-.28,2.1-.6,3.09s-.74,1.87-1.25,2.65c-.51.78-1.08,1.32-1.71,1.63.01-.18.03-.38.04-.61.01-.23.03-.5.04-.79-.53.35-1.09.61-1.69.78s-1.2.25-1.82.25-1.11-.08-1.49-.23c-.38-.15-.67-.37-.89-.66-.21-.28-.35-.64-.43-1.05-.07-.42-.11-.89-.11-1.41,0-1.26,0-2.33-.01-3.22,0-.89-.03-1.63-.08-2.23-.04-.6-.11-1.07-.19-1.42s-.19-.61-.34-.78c-.15-.17-.34-.27-.57-.32s-.51-.06-.83-.04Z"/>
    <path class="cls-4" d="M131.91,40.19c.03-1.62-.18-2.86-.61-3.72-.44-.86-1.08-1.28-1.93-1.25-.12,0-.22,0-.31.01s-.18.02-.26.03c.2.58.32,1.23.35,1.95.03.72-.02,1.45-.13,2.19-.12.74-.29,1.48-.53,2.2-.23.72-.52,1.39-.85,1.99-.34.61-.71,1.13-1.12,1.58-.41.45-.84.76-1.29.95.04-.38.08-.91.1-1.6.02-.69.04-1.45.04-2.3,0-.85,0-1.73-.01-2.66-.01-.93-.04-1.82-.08-2.68-.04-.86-.08-1.66-.14-2.39-.06-.73-.12-1.31-.2-1.75.7-.06,1.31.02,1.82.23.51.21.93.51,1.27.91.63-.64,1.51-.96,2.65-.96.72,0,1.32.12,1.83.36s.9.56,1.18.96c.28.4.46.86.53,1.38.07.52.02,1.05-.12,1.59-.15.54-.4,1.07-.77,1.59-.37.52-.84.98-1.42,1.39Z"/>
    <path class="cls-4" d="M148.33,44.24c-.25.37-.5.66-.74.88-.25.22-.49.39-.71.5-.23.12-.44.19-.64.23-.2.04-.38.05-.54.05-.57,0-1.03-.1-1.39-.31-.36-.2-.63-.49-.83-.85-.2-.36-.33-.8-.39-1.31-.07-.51-.11-1.07-.12-1.66v-.8c0-.36,0-.77.01-1.23,0-.46.01-.96.01-1.49s0-1.07-.02-1.61c-.01-.51-.1-.85-.26-1.03-.16-.18-.5-.26-1.03-.26-.26,0-.51.01-.76.03-.24.02-.48.05-.73.08.15.61.21,1.27.21,1.97,0,.7-.07,1.41-.2,2.12-.12.72-.31,1.42-.55,2.1-.24.69-.53,1.31-.85,1.88s-.69,1.06-1.07,1.48c-.39.42-.8.71-1.24.89.04-.38.08-.92.1-1.61.02-.69.04-1.47.04-2.32,0-.85,0-1.75-.01-2.69-.01-.94-.04-1.85-.08-2.73-.04-.88-.08-1.68-.14-2.42s-.12-1.32-.2-1.76c.83-.07,1.53.04,2.08.34.55.3,1,.72,1.34,1.26.56-.35,1.16-.62,1.82-.81.66-.19,1.31-.28,1.97-.28.61,0,1.11.08,1.49.23.38.15.67.37.89.66.21.28.35.64.43,1.05.07.42.11.89.11,1.41,0,1.26,0,2.33.01,3.22,0,.89.03,1.63.08,2.23.04.6.11,1.07.19,1.42.08.35.19.61.34.78.15.17.33.27.56.32.23.04.51.06.84.04Z"/>
  </g>
  <g>
    <g>
      <path class="cls-1" d="M106.78,123.89c1.32-1.12,2.69-2.17,4.04-3.25.94-.75,1.98-1.45,2.72-2.4,2.29-2.96-1.18-4.78-3.82-4.94-1.15-.07-1.35-1.74-.34-2.18,2.25-1,5.83-2.22,5.83-5.21,0-1.6-1.32-2.65-2.67-3.24-1.07-.47-2.92-1.03-4.08-.51-1.37.52-2.28-1.49-.93-2.09,3.31-1.27,4.04-4.6,2.72-7.68-1.06-2.48-3.61-5.01-6.4-3.41-1.28.73-2.19-1.36-.93-2.09,1.86-1.07,3.75-.88,5.38,0,.02-.01.03-.03.06-.04.14-.06.28-.12.42-.19.11-.4.41-.72.89-.77.39-.04.78-.1,1.16-.17.25-.12.5-.24.74-.36.11-.28.31-.51.6-.64,1.21-.54,2.4-1.13,3.61-1.68,1.48-.96,2.84-2.07,3.99-3.4.03-1.06-.18-2.08-.75-3.13-1.7-3.17-5.62-4.41-8.91-2.95l-16.86,7.51c.21-1.37,0-2.81-.69-4.14-1.67-3.23-5.65-4.52-8.97-3.04l-13.25,5.9c-.29.13-.58.27-.87.41-9.39,4.73-13.53,16.15-9.21,25.85l6.28,14.1c2.23,5,6.29,8.63,11.05,10.46s10.21,1.85,15.21-.38l13.67-6.09c.1-.09.2-.18.3-.26Z"/>
      <path class="cls-6" d="M107.34,85.95c3.3-1.47,6.59-2.94,9.89-4.4"/>
      <path class="cls-6" d="M95.3,91.32l6.52-2.9"/>
      <path class="cls-6" d="M105.12,113.38l3.26-1.45"/>
      <line class="cls-5" x1="97.32" y1="128.22" x2="92.8" y2="130.24"/>
      <line class="cls-5" x1="78.31" y1="87.72" x2="93.23" y2="81.08"/>
      <path class="cls-4" d="M103.81,81.45c-1.38.96-2.86,1.77-4.41,2.43-.31.13-.62.58-.69.9-.08.34-.06.66.08.98.28.66,1.05,1.1,1.77.87,1.65-.53,3.3-1.05,4.94-1.58.75-.24,1.3-1.05,1.05-1.85-.24-.75-1.04-1.3-1.85-1.05-1.65.53-3.3,1.05-4.94,1.58l1.16,2.74c1.55-.66,3.03-1.47,4.41-2.43.33-.23.58-.5.69-.9.1-.36.05-.84-.15-1.16-.41-.64-1.36-1.02-2.05-.54h0Z"/>
      <path class="cls-4" d="M105.2,81.03c-1.4,1.39-3.07,2.24-4.82,3.13-1.93.97-3.87,1.94-5.8,2.91-.72.36-.93,1.39-.54,2.05.43.74,1.33.9,2.05.54,2-1,3.99-2,5.99-3,1.91-.96,3.71-1.98,5.24-3.5.58-.57.57-1.55,0-2.12s-1.54-.57-2.12,0h0Z"/>
      <path class="cls-4" d="M101.42,93.5c.35-.23.71-.46,1.08-.66.05-.03.61-.28.61-.3,0,.04-.35.13,0,0,.09-.03.18-.06.27-.09s.19-.05.28-.07c.06-.01.13-.03.19-.04-.24.03-.3.04-.19.02.17-.01.33-.02.5-.01.05,0,.1,0,.15.01l-.25-.03c.08,0,.19.03.26.05.09.02.17.05.26.08.25.07-.33-.16-.08-.04.13.07.25.16.38.23-.35-.18-.17-.13-.05-.02.03.03.05.05.08.08.1.12.07.07-.1-.13.02.06.09.14.12.19.13.22-.08-.3-.02-.04.01.05.09.43.05.15s0,.1,0,.16c0,.13-.09.36.02-.04-.02.09-.03.18-.06.27s-.05.18-.08.27c-.02.06-.04.12-.06.18-.06.15-.04.12.04-.09-.06.01-.21.44-.25.52-.11.2-.22.39-.34.58-.41.67-.17,1.68.54,2.05s1.61.18,2.05-.54c.6-.98,1.15-2.11,1.13-3.29-.01-1.27-.7-2.44-1.81-3.06-1.01-.56-2.18-.67-3.3-.42s-2.04.83-2.95,1.42c-.66.43-.99,1.35-.54,2.05.42.66,1.35.99,2.05.54h0Z"/>
      <path class="cls-4" d="M105.39,107.4l1.64-.97c.25-.15.5-.3.76-.45.13-.08.27-.16.4-.23.04-.02.39-.19.22-.12-.1.04-.08.04.06-.02.08-.03.16-.05.25-.06-.26.04-.02.03.11.03-.34-.02.03.03.1.05.32.08-.15-.1.12.04.26.14.5.28.75.44.12.08.24.17.37.25.25.17-.18-.19.06.04.06.06.28.32.06.03.15.21-.02-.12-.03-.22,0,.17,0,.16.01-.05l-.03.11c.08-.17.07-.18,0-.03-.03.05-.07.11-.1.16-.06.09-.05.07.04-.05-.05.06-.11.13-.17.19-.08.09-.17.18-.26.27-.18.17-.36.34-.55.5-.09.08-.19.16-.29.24.27-.22-.09.06-.14.1-.22.15-.44.3-.67.44-.21.13-.43.24-.65.35-.11.05-.22.11-.34.16-.16.07-.15.07.02,0-.08.03-.15.06-.23.09l1.16,2.74c1.28-.67,2.53-1.38,3.74-2.16.64-.41,1.26-.88,1.63-1.57.44-.82.42-1.75.07-2.6-1.35-3.19-5.89-2.5-8.37-1.29-.71.35-.95,1.41-.54,2.05.47.72,1.3.91,2.05.54.12-.06.25-.12.37-.17-.28.12.09-.03.15-.05.26-.09.52-.17.79-.23.13-.03.27-.05.4-.08.35-.08-.19,0,.14-.02.27-.02.54-.04.82-.04.13,0,.25,0,.38.01.08,0,.16.01.24.02l-.16-.02c.21-.01.51.11.7.19-.33-.12,0,.02.07.06.28.13-.11-.16.06.04.05.05.1.11.15.16l-.1-.13c.04.06.08.13.11.19-.07-.18-.08-.21-.05-.11.02.05.03.1.05.16-.02-.2-.02-.25-.02-.13,0,.05,0,.11,0,.16.04-.2.04-.25.01-.13-.03.1-.01.07.06-.1-.02.05-.05.1-.09.15-.06.09-.04.07.06-.08-.04.04-.08.08-.12.12-.04.04-.09.08-.13.12.13-.1.16-.12.07-.05-.1.06-.19.13-.29.2-.24.15-.48.3-.72.45-1,.62-2.02,1.2-3.07,1.74-.66.35-.89,1.22-.61,1.87s1.07,1.14,1.77.87c1.41-.54,2.68-1.29,3.81-2.3.55-.49,1.1-1.06,1.42-1.73.49-1.03.39-2.14-.36-3.02-.46-.54-1.15-.98-1.77-1.32-.86-.48-1.77-.73-2.75-.57-.79.13-1.47.58-2.15.97l-2.02,1.19c-.68.4-.98,1.37-.54,2.05s1.33.97,2.05.54h0Z"/>
      <path class="cls-4" d="M108.01,108.14c-.85.54-1.73,1.03-2.64,1.48-.21.1-.42.2-.64.3-.12.06-.24.11-.37.17-.09.04-.5.25-.1.05-.44.23-.94.38-1.41.55-.74.26-1.31,1.03-1.05,1.85.23.73,1.05,1.33,1.85,1.05,2.05-.73,4.03-1.67,5.87-2.84.66-.42.99-1.36.54-2.05s-1.34-.99-2.05-.54h0Z"/>
      <path class="cls-4" d="M107.7,117.26c1.31-.72,2.8-1.2,4.26-1.31.35-.03.73-.07,1.08-.02-.12-.02-.13-.02-.02,0,.1.03.1.02-.02-.01-.29-.18-.41-.39-.37-.64.01-.07,0-.01-.05.17-.13.23,0,.04-.12.26-.08.15-.17.29-.27.43-.07.1-.42.46-.62.64-.99.87-2.65,1.4-3.99,1.9-1.73.64-3.46,1.29-5.18,1.93-.7.26-1.19.87-1.07,1.65.1.69.72,1.35,1.47,1.3,3.99-.27,7.78-1.97,10.57-4.85,1.34-1.39-.78-3.51-2.12-2.12-2.24,2.32-5.31,3.76-8.45,3.97.13.98.27,1.96.4,2.95,2.13-.79,4.26-1.58,6.39-2.38,2.03-.76,4-1.68,5.25-3.53.66-.97,1.12-2.31.52-3.42s-1.79-1.29-2.89-1.25c-2.2.08-4.34.69-6.26,1.75-1.69.93-.18,3.52,1.51,2.59h0Z"/>
      <path class="cls-4" d="M99.42,88.36c3.84-2.59,8.59-2.87,12.82-4.54,1.85-.73,4.24-1.72,5.14-3.63.99-2.13-.74-4.51-3.06-4.03l1.16,2.74c-.3.14-.13,0-.2.18-.08.21-.13.4-.28.59-.3.4-.74.69-1.15.96-.96.63-1.97,1.18-3,1.67-2.15,1.01-4.44,1.72-6.72,2.39-4.49,1.32-9.07,2.5-13.15,4.88-1.48.87-.49,3.15,1.16,2.74,5.54-1.36,10.93-3.23,16.15-5.53,1.54-.68.44-3.31-1.16-2.74-5.15,1.81-10.13,4.07-15.09,6.33-1.53.7-.44,3.32,1.16,2.74,6.12-2.23,12.08-4.87,17.83-7.91,1.71-.9.19-3.49-1.51-2.59-5.53,2.93-11.24,5.47-17.12,7.61l1.16,2.74c4.73-2.16,9.47-4.3,14.38-6.03-.39-.91-.77-1.83-1.16-2.74-4.98,2.2-10.15,3.93-15.43,5.23l1.16,2.74c5.52-3.22,11.97-4.04,17.84-6.4,2.52-1.01,6.06-2.36,7.46-4.87,1.44-2.58-.94-5.96-3.83-4.58-1.61.77-.42,3.07,1.16,2.74-.22-.2-.38-.22-.48-.06l-.21.26c-.31.18-.59.46-.9.65-.66.4-1.36.75-2.08,1.04-1.51.61-3.1,1.02-4.68,1.43-3.07.8-6.19,1.61-8.86,3.41-1.59,1.07-.09,3.67,1.51,2.59h0Z"/>
      <path class="cls-9" d="M103.79,127.15c1.7-.75,3.41-1.5,5.11-2.25s3.38-1.34,4.85-2.36c2.29-1.58,4.48-4.26,4.54-7.17.05-3.01-2.47-4.73-5.21-5-3.18-.31-6.56.82-9.3,2.35-1.71.96-.21,3.39,1.51,2.59s3.43-1.59,5.15-2.39c1.3-.6,2.61-1.18,3.75-2.05,2.63-2,2.81-4.73,1.57-7.64-2.85-6.65-10.9-3.11-15.55-.83-1.53.75-.46,3.24,1.16,2.74,2.96-.92,5.93-2.22,7.94-4.67,1.84-2.25,2.75-5.28,1.69-8.09-1.07-2.85-3.72-4.5-6.75-4.32-3.41.21-6.1,2.31-9.24,3.36l.8,2.89c5.94-2.34,11.88-4.67,17.81-7.03,2.55-1.02,4.49-2.38,6.14-4.61,1.46-1.97,1.38-4.7-1.12-5.7-1.79-.72-2.57,2.18-.8,2.89-.02,0-.25.66-.33.81-.2.36-.5.67-.77.98-.66.76-1.35,1.45-2.22,1.95-1.94,1.11-4.22,1.78-6.29,2.6-4.4,1.74-8.81,3.48-13.21,5.22-1.75.69-1.07,3.52.8,2.89,3.14-1.05,10.16-6.19,12.31-1.12,2.04,4.8-3.93,7.93-7.54,9.05l1.16,2.74c3.09-1.51,9.59-5.05,11.45-.23.38.98.71,2.05.03,2.96-.54.72-1.41,1.2-2.19,1.61-2.34,1.23-4.82,2.26-7.22,3.38l1.51,2.59c2.09-1.17,4.49-1.98,6.9-1.98,2.18,0,3.74,1.16,2.73,3.43-.98,2.2-3.01,3.54-5.13,4.49-2.5,1.12-5.02,2.21-7.53,3.31-1.76.77-.24,3.36,1.51,2.59h0Z"/>
      <path class="cls-4" d="M114.75,78.85l.2.4c.23.46.8.74,1.3.74.53,0,1.03-.29,1.3-.74.08-.14.16-.28.24-.42l-2.05.54s.04.03.06.04l-.3-.23c.06.05.1.1.15.15l-.23-.3c.05.07.09.14.12.21l-.15-.36c.04.1.07.2.08.31l-.05-.4c.01.12.01.25,0,.37l.05-.4c-.02.14-.05.27-.11.39l.15-.36c-.06.14-.14.27-.24.39l.23-.3c-.16.21-.36.38-.57.54l.3-.23c-.16.13-.33.24-.51.36-.33.22-.58.51-.69.9-.1.36-.05.84.15,1.16s.51.6.9.69.82.07,1.16-.15c.38-.26.77-.53,1.11-.85.42-.4.71-.87.91-1.41.09-.25.12-.54.14-.8s-.02-.54-.08-.8c-.02-.07-.04-.14-.07-.2-.07-.17-.13-.35-.23-.5-.22-.35-.46-.57-.8-.8-.17-.11-.36-.17-.56-.18-.2-.04-.4-.04-.6.03-.37.12-.7.34-.9.69-.08.14-.16.28-.24.42h2.59l-.2-.4c-.16-.32-.56-.6-.9-.69-.36-.1-.84-.05-1.16.15s-.6.51-.69.9l-.05.4c0,.27.07.52.2.76h0Z"/>
      <path class="cls-4" d="M117.7,79.34c.1-.34.15-.71.11-1.06-.03-.24-.05-.48-.12-.71s-.16-.45-.27-.66c-.15-.31-.38-.61-.63-.84-.17-.16-.35-.3-.54-.42-.2-.13-.44-.22-.66-.3-.2-.06-.4-.07-.6-.03-.2,0-.39.07-.56.18-.31.18-.61.54-.69.9-.09.38-.07.81.15,1.16l.23.3c.19.19.41.31.66.39.02,0,.04.01.05.02l-.36-.15c.13.06.24.12.35.21l-.3-.23c.12.1.23.21.33.33l-.23-.3c.1.13.18.28.25.43l-.15-.36c.06.15.11.31.13.48l-.05-.4c.02.15.02.29,0,.43l.05-.4c-.01.09-.03.17-.05.26-.11.37-.04.82.15,1.16.18.31.54.61.9.69.38.09.81.07,1.16-.15s.58-.51.69-.9h0Z"/>
      <path class="cls-4" d="M105.55,94.28c-.24.02-.3.03-.18.03.04,0,.09,0,.13,0-.05.02-.34-.08-.14-.01.04.01.08.02.12.04.11.04.06.02-.16-.07.01.03.16.09.19.11.14.08-.23-.23-.06-.04.05.06.16.25.06.05-.1-.22,0,.02.04.07.02.04.04.08.06.12.05.1.03.05-.06-.14,0,.03.05.16.06.2.1.31,0-.32,0,.01,0,.09.06.46-.01.52.06-.05.06-.32,0-.03-.02.09-.04.17-.06.26-.03.1-.07.2-.1.3-.09.27.1-.21.02-.05-.14.28-.29.53-.46.79-.1.15.21-.25.04-.05-.06.07-.12.14-.18.21-.1.11-.21.22-.33.32-.04.04-.25.21-.06.05s-.02.01-.07.04c-.12.08-.25.16-.39.23-.04.02-.08.04-.12.06-.1.05-.05.03.15-.06-.07,0-.15.06-.21.08-.16.05-.32.09-.48.12-.49.09-.94.57-1.05,1.05-.26,1.14.6,2.16,1.76,2.09.66-.04,1.27-.4,1.82-.74.91-.55,1.82-1.26,2.5-2.09.51-.61.85-1.23.94-2.03.07-.63-.12-1.3-.44-1.84-.68-1.15-1.89-1.7-3.11-2.07-.75-.23-1.67.27-1.85,1.05s.24,1.6,1.05,1.85c.17.05.34.1.51.16.02,0,.33.14.12.04s.07.03.11.05c.07.04.39.28.45.27-.15-.12-.18-.14-.1-.08.04.03.07.06.11.1.04.04.09.12.13.14-.12-.17-.15-.2-.09-.11.03.04.05.08.08.12.03.05.05.13.09.17-.08-.2-.1-.25-.07-.14.02.04.03.09.04.14.06.22-.04-.08-.02-.12,0,.05,0,.09,0,.14,0,.12,0,.06.02-.16-.02.02-.05.15-.05.18.09-.2.11-.24.05-.14-.02.04-.05.08-.07.13-.03.05-.2.27-.05.09s-.05.06-.07.07c-.05.06-.11.12-.17.18-.12.13-.25.25-.38.37s-.26.24-.4.35c-.05.04-.18.11-.21.17l.14-.1s-.08.06-.13.09c-.29.21-.58.4-.89.58-.15.09-.31.17-.47.25-.23.11-.09.02.06-.01.35-.09.84,0,1.07.31l.39.66v-.04c0,.27,0,.53,0,.8v-.05c-.34.35-.69.7-1.04,1.05,2.02-.39,3.59-2.08,4.22-3.98.36-1.1.36-2.47-.29-3.47-.32-.48-.74-.92-1.26-1.19-.67-.35-1.35-.42-2.08-.29s-1.28,1.13-1.05,1.85c.27.84,1.01,1.19,1.85,1.05h0Z"/>
      <path class="cls-4" d="M109.13,105.4c.09-.12.19-.22.31-.31l-.3.23c.13-.1.27-.18.42-.24l-.36.15c.16-.07.33-.11.5-.14l-.4.05c.17-.02.35-.02.52,0l-.4-.05c.16.02.31.06.46.12l-.36-.15c.14.06.26.13.38.22l-.3-.23c.12.09.22.2.31.31l-.23-.3c.1.13.18.27.24.42l-.15-.36c.07.16.11.33.14.5l-.05-.4c.02.17.02.35,0,.52l.05-.4c-.02.16-.06.31-.12.46l.15-.36c-.04.09-.08.17-.13.25-.2.32-.25.79-.15,1.16s.36.73.69.9c.74.39,1.61.17,2.05-.54.17-.27.3-.57.37-.87s.12-.63.1-.94c-.03-.62-.19-1.28-.55-1.79-.22-.32-.44-.56-.74-.8s-.59-.38-.97-.52c-.59-.21-1.28-.2-1.89-.06-.32.07-.65.21-.93.38s-.57.39-.78.66c-.15.14-.25.3-.31.48-.09.18-.14.37-.13.58,0,.37.16.81.44,1.06s.66.46,1.06.44c.37-.02.82-.13,1.06-.44h0Z"/>
      <path class="cls-4" d="M114.62,78.66c-.08.22-.17.44-.26.66l.15-.36c-.27.64-.58,1.26-.92,1.87-.26.47-.27,1.05,0,1.51.13.23.31.4.54.54.23.14.49.2.76.2.51-.05,1-.16,1.43-.45s.76-.62,1.04-1.06c.13-.21.23-.45.32-.68.05-.12.08-.25.1-.37.04-.24.09-.5.07-.75s-.05-.53-.13-.78c-.13-.37-.34-.69-.69-.9-.32-.19-.8-.27-1.16-.15s-.71.34-.9.69-.28.78-.15,1.16c.03.09.06.19.07.28l-.05-.4c.02.14.02.28,0,.42l.05-.4c-.02.15-.06.29-.12.44l.15-.36c-.06.15-.15.29-.25.42l.23-.3c-.09.12-.2.23-.32.32l.3-.23c-.11.08-.23.15-.36.21l.36-.15c-.11.04-.22.08-.34.09l.4-.05s-.04,0-.06,0c.43.75.86,1.5,1.3,2.26.52-.92.96-1.89,1.33-2.89.06-.2.07-.4.03-.6,0-.2-.07-.39-.18-.56-.18-.31-.54-.61-.9-.69-.38-.09-.81-.07-1.16.15l-.3.23c-.19.19-.31.41-.39.66h0Z"/>
      <path class="cls-4" d="M110.99,105.53s.07-.06.1-.09l-.3.23c.07-.05.14-.09.22-.13l-.36.15c.09-.04.19-.06.29-.08l-.4.05c.09-.01.18-.01.28,0l-.4-.05c.09.01.18.04.27.07l-.36-.15c.08.03.15.08.22.13l-.3-.23c.06.05.11.1.16.16l-.23-.3c.06.08.11.16.15.25l-.15-.36c.03.09.06.17.07.26l-.05-.4c.01.1.01.2,0,.29l.05-.4c-.01.08-.03.16-.06.24l.15-.36s-.02.04-.03.06c-.11.17-.17.36-.18.56-.04.2-.04.4.03.6l.15.36c.09.17.22.32.39.42.09.09.2.16.33.19.18.09.37.14.58.13l.4-.05c.25-.07.47-.2.66-.39.25-.31.38-.49.5-.88.05-.16.06-.36.08-.52,0-.05,0-.1,0-.15-.03-.41-.09-.63-.26-1-.09-.19-.23-.37-.39-.52-.28-.27-.67-.44-1.06-.44-.21,0-.4.04-.58.13-.19.06-.35.16-.48.31-.26.29-.46.66-.44,1.06s.15.78.44,1.06c.03.03.05.05.07.08l-.23-.3s.06.09.08.13l-.15-.36c.03.06.04.13.05.19l-.05-.4c0,.07,0,.13,0,.2l.05-.4c0,.06-.03.12-.05.17l.15-.36s-.05.09-.08.13l.23-.3v.02c.77.61,1.56,1.21,2.34,1.82.09-.2.2-.41.24-.63s.09-.46.06-.68-.04-.46-.12-.68c-.08-.2-.16-.43-.28-.61s-.25-.36-.42-.5c-.13-.11-.26-.22-.41-.31s-.32-.15-.48-.21c-.21-.08-.46-.1-.68-.12s-.46.03-.69.06-.46.15-.67.25c-.05.03-.1.06-.15.09-.15.1-.3.21-.43.34-.15.14-.25.3-.31.48-.09.18-.14.37-.13.58,0,.21.04.4.13.58.06.19.16.35.31.48.29.26.66.46,1.06.44s.77-.15,1.06-.44h0Z"/>
    </g>
    <rect class="cls-3" x="51.02" y="100.4" width="13.26" height="34.17" transform="translate(-42.81 33.61) rotate(-24)"/>
  </g>
  <g>
    <path class="cls-2" d="M20.94,163.17v2.84c0,.33-.27.6-.6.6s-.6-.27-.6-.6v-5.89c0-.33.27-.6.6-.6s.6.27.6.6v2.84l3.26-3.26c.23-.23.61-.24.85,0s.23.62,0,.85l-2.54,2.52,2.54,2.52c.23.23.24.61,0,.85-.24.24-.62.23-.85,0l-3.26-3.26Z"/>
    <path class="cls-2" d="M26.59,159.8c-.4,0-.73-.32-.73-.72s.33-.72.73-.72.73.32.73.72-.33.72-.73.72ZM26,161.25c0-.33.26-.59.59-.59s.59.26.59.59v4.76c0,.33-.26.59-.59.59s-.59-.26-.59-.59v-4.76Z"/>
    <path class="cls-2" d="M31.04,166.52c-1.74,0-2.97-1.29-2.97-2.88s1.23-2.88,2.97-2.88h.69c1.1,0,1.83.77,1.83,1.73s-.73,1.73-1.83,1.73h-1.1c-.32,0-.58-.26-.58-.58s.26-.58.58-.58h1.1c.39,0,.65-.26.65-.58s-.26-.58-.65-.58h-.69c-1.04,0-1.79.78-1.79,1.73s.75,1.73,1.79,1.73h1.66c.32,0,.58.26.58.58s-.26.58-.58.58h-1.66Z"/>
    <path class="cls-2" d="M34.9,166.52c-.32,0-.58-.26-.58-.58s.26-.58.58-.58h2.44c.39,0,.65-.26.65-.58s-.26-.58-.65-.58h-1.35c-1.1,0-1.83-.77-1.83-1.73s.73-1.73,1.83-1.73h2.44c.32,0,.58.26.58.58s-.26.58-.58.58h-2.44c-.39,0-.65.26-.65.58s.26.58.65.58h1.35c1.1,0,1.83.77,1.83,1.73s-.73,1.73-1.83,1.73h-2.44Z"/>
    <path class="cls-2" d="M45.14,166.52c-1.74,0-2.97-1.29-2.97-2.88s1.23-2.88,2.97-2.88h.69c1.1,0,1.83.77,1.83,1.73s-.73,1.73-1.83,1.73h-1.1c-.32,0-.58-.26-.58-.58s.26-.58.58-.58h1.1c.39,0,.65-.26.65-.58s-.26-.58-.65-.58h-.69c-1.04,0-1.79.78-1.79,1.73s.75,1.73,1.79,1.73h1.66c.32,0,.58.26.58.58s-.26.58-.58.58h-1.66Z"/>
    <path class="cls-2" d="M51.34,166.52c-1.74,0-2.97-1.29-2.97-2.88s1.23-2.88,2.97-2.88h.69c1.1,0,1.83.77,1.83,1.73s-.73,1.73-1.83,1.73h-1.1c-.32,0-.58-.26-.58-.58s.26-.58.58-.58h1.1c.39,0,.65-.26.65-.58s-.26-.58-.65-.58h-.69c-1.04,0-1.79.78-1.79,1.73s.75,1.73,1.79,1.73h1.66c.32,0,.58.26.58.58s-.26.58-.58.58h-1.66Z"/>
    <path class="cls-2" d="M58.53,163.04c0-.62-.51-1.13-1.13-1.13h-1.48v4.11c0,.33-.26.59-.59.59s-.59-.26-.59-.59v-4.68c0-.33.26-.59.59-.59h2.07c1.27,0,2.31,1.03,2.31,2.31v2.96c0,.33-.26.59-.59.59s-.59-.26-.59-.59v-2.98Z"/>
    <path class="cls-2" d="M67.69,163.01c0,.33-.26.59-.59.59s-.59-.26-.59-.58v-.08c0-.58-.42-1.03-1.03-1.03h-1.03v4.11c0,.33-.26.59-.59.59s-.59-.26-.59-.59v-4.68c0-.33.26-.59.59-.59h1.62c1.24,0,2.21.99,2.21,2.19v.07Z"/>
    <path class="cls-2" d="M69.81,166.52c-1.05,0-1.78-.8-1.78-1.78s.73-1.78,1.78-1.78h1.1c.32,0,.58.26.58.58s-.26.58-.58.58h-1.1c-.36,0-.61.3-.61.63s.25.63.61.63h2.11v-2.44c0-.58-.4-1.02-1-1.02h-1.85c-.32,0-.58-.26-.58-.58s.26-.58.58-.58h1.85c1.22,0,2.17.97,2.17,2.16v3.01c0,.33-.21.59-.59.59h-2.7Z"/>
    <path class="cls-2" d="M78.05,163.04c0-.62-.51-1.13-1.13-1.13h-1.48v4.11c0,.33-.26.59-.59.59s-.59-.26-.59-.59v-4.68c0-.33.26-.59.59-.59h2.07c1.27,0,2.31,1.03,2.31,2.31v2.96c0,.33-.26.59-.59.59s-.59-.26-.59-.59v-2.98Z"/>
    <path class="cls-2" d="M83.09,166.52c-1.74,0-2.97-1.29-2.97-2.88s1.23-2.88,2.97-2.88h1.34v-1.81c0-.33.26-.59.59-.59s.59.26.59.59v6.98c0,.33-.26.59-.59.59h-1.93ZM84.43,161.91h-1.34c-1.04,0-1.79.78-1.79,1.73s.75,1.73,1.79,1.73h1.34v-3.46Z"/>
    <path class="cls-2" d="M89.55,166.66c-1.79,0-3.05-1.35-3.05-3.02s1.26-3.02,3.05-3.02,3.06,1.35,3.06,3.02-1.27,3.02-3.06,3.02ZM89.55,161.75c-1.09,0-1.88.85-1.88,1.88s.79,1.88,1.88,1.88,1.88-.85,1.88-1.88-.79-1.88-1.88-1.88Z"/>
    <path class="cls-2" d="M100.16,163.04c0-.62-.51-1.13-1.13-1.13h-1.03v4.11c0,.33-.26.59-.59.59s-.59-.26-.59-.59v-4.11h-2.14v4.11c0,.33-.26.59-.59.59s-.59-.26-.59-.59v-4.68c0-.33.26-.59.59-.59h4.94c1.27,0,2.31,1.03,2.31,2.31v2.96c0,.33-.26.59-.59.59s-.59-.26-.59-.59v-2.98Z"/>
    <path class="cls-2" d="M20.91,181.93v1.81c0,.33-.26.59-.59.59s-.59-.26-.59-.59v-6.98c0-.33.26-.59.59-.59h1.92c1.74,0,2.97,1.29,2.97,2.88s-1.23,2.88-2.97,2.88h-1.34ZM22.25,180.78c1.04,0,1.79-.78,1.79-1.73s-.75-1.73-1.79-1.73h-1.34v3.46h1.34Z"/>
    <path class="cls-2" d="M28.9,181.93c-1.74,0-2.97-1.29-2.97-2.88s1.23-2.88,2.97-2.88h.69c1.1,0,1.83.77,1.83,1.73s-.73,1.73-1.83,1.73h-1.1c-.32,0-.58-.26-.58-.58s.26-.58.58-.58h1.1c.39,0,.65-.26.65-.58s-.26-.58-.65-.58h-.69c-1.04,0-1.79.78-1.79,1.73s.75,1.73,1.79,1.73h1.66c.32,0,.58.26.58.58s-.26.58-.58.58h-1.66Z"/>
    <path class="cls-2" d="M36.73,178.42c0,.33-.26.59-.59.59s-.59-.26-.59-.58v-.08c0-.58-.42-1.03-1.03-1.03h-1.03v4.11c0,.33-.26.59-.59.59s-.59-.26-.59-.59v-4.68c0-.33.26-.59.59-.59h1.62c1.24,0,2.21.99,2.21,2.19v.07Z"/>
    <path class="cls-2" d="M38.1,181.93c-.32,0-.58-.26-.58-.58s.26-.58.58-.58h2.44c.39,0,.65-.26.65-.58s-.26-.58-.65-.58h-1.35c-1.1,0-1.83-.77-1.83-1.73s.73-1.73,1.83-1.73h2.44c.32,0,.58.26.58.58s-.26.58-.58.58h-2.44c-.39,0-.65.26-.65.58s.26.58.65.58h1.35c1.1,0,1.83.77,1.83,1.73s-.73,1.73-1.83,1.73h-2.44Z"/>
    <path class="cls-2" d="M46.03,182.07c-1.79,0-3.06-1.35-3.06-3.02s1.26-3.02,3.06-3.02,3.06,1.35,3.06,3.02-1.27,3.02-3.06,3.02ZM46.03,177.17c-1.09,0-1.88.85-1.88,1.88s.79,1.88,1.88,1.88,1.88-.85,1.88-1.88-.79-1.88-1.88-1.88Z"/>
    <path class="cls-2" d="M52.86,182.07c-1.79,0-3.05-1.35-3.05-3.02s1.26-3.02,3.05-3.02,3.06,1.35,3.06,3.02-1.27,3.02-3.06,3.02ZM52.86,177.17c-1.09,0-1.88.85-1.88,1.88s.79,1.88,1.88,1.88,1.88-.85,1.88-1.88-.79-1.88-1.88-1.88Z"/>
    <path class="cls-2" d="M60.6,178.45c0-.62-.51-1.13-1.13-1.13h-1.48v4.11c0,.33-.26.59-.59.59s-.59-.26-.59-.59v-4.68c0-.33.26-.59.59-.59h2.07c1.27,0,2.3,1.03,2.3,2.31v2.96c0,.33-.26.59-.59.59s-.59-.26-.59-.59v-2.98Z"/>
    <path class="cls-2" d="M68.03,181.93c-1.74,0-2.97-1.29-2.97-2.88s1.23-2.88,2.97-2.88h1.34v-1.81c0-.33.26-.59.59-.59s.59.26.59.59v6.98c0,.33-.26.59-.59.59h-1.93ZM69.37,177.32h-1.34c-1.04,0-1.79.78-1.79,1.73s.75,1.73,1.79,1.73h1.34v-3.46Z"/>
    <path class="cls-2" d="M72.31,175.21c-.4,0-.73-.32-.73-.72s.33-.72.73-.72.73.32.73.72-.33.72-.73.72ZM71.72,176.67c0-.33.26-.59.59-.59s.59.26.59.59v4.76c0,.33-.26.59-.59.59s-.59-.26-.59-.59v-4.76Z"/>
    <path class="cls-2" d="M76.76,181.93c-1.74,0-2.97-1.29-2.97-2.88s1.23-2.88,2.97-2.88h.69c1.1,0,1.83.77,1.83,1.73s-.73,1.73-1.83,1.73h-1.1c-.32,0-.58-.26-.58-.58s.26-.58.58-.58h1.1c.39,0,.65-.26.65-.58s-.26-.58-.65-.58h-.69c-1.04,0-1.79.78-1.79,1.73s.75,1.73,1.79,1.73h1.66c.32,0,.58.26.58.58s-.26.58-.58.58h-1.66Z"/>
    <path class="cls-2" d="M86.34,178.45c0-.62-.51-1.13-1.13-1.13h-1.48v4.11c0,.33-.26.59-.59.59s-.59-.26-.59-.59v-4.68c0-.33.26-.59.59-.59h2.07c1.27,0,2.31,1.03,2.31,2.31v2.96c0,.33-.26.59-.59.59s-.59-.26-.59-.59v-2.98Z"/>
    <path class="cls-2" d="M90.22,181.93c-1.06,0-1.79-.8-1.79-1.78s.73-1.78,1.79-1.78h1.1c.32,0,.58.26.58.58s-.26.58-.58.58h-1.1c-.36,0-.61.3-.61.63s.25.63.61.63h2.11v-2.44c0-.58-.4-1.02-1-1.02h-1.85c-.32,0-.58-.26-.58-.58s.26-.58.58-.58h1.85c1.22,0,2.17.97,2.17,2.16v3.01c0,.33-.21.59-.59.59h-2.7Z"/>
    <path class="cls-2" d="M95.5,184.24c-.32,0-.58-.26-.58-.58s.26-.58.58-.58h.23c.98,0,1.35-.51,1.35-1.48v-4.94c0-.33.26-.59.59-.59s.59.26.59.59v4.93c0,1.62-.83,2.64-2.51,2.64h-.24ZM97.66,175.21c-.4,0-.73-.32-.73-.72s.33-.72.73-.72.73.32.73.72-.33.72-.73.72Z"/>
    <path class="cls-2" d="M102.2,182.07c-1.79,0-3.06-1.35-3.06-3.02s1.26-3.02,3.06-3.02,3.05,1.35,3.05,3.02-1.27,3.02-3.05,3.02ZM102.2,177.17c-1.09,0-1.88.85-1.88,1.88s.8,1.88,1.88,1.88,1.88-.85,1.88-1.88-.79-1.88-1.88-1.88Z"/>
    <path class="cls-2" d="M109.96,176.67c0-.33.26-.59.59-.59s.59.26.59.59v2.91c0,1.37-1.12,2.49-2.49,2.49s-2.49-1.12-2.49-2.49v-2.91c0-.33.26-.59.59-.59s.59.26.59.59v2.95c0,.72.6,1.32,1.32,1.32s1.32-.6,1.32-1.32v-2.95Z"/>
    <path class="cls-2" d="M116.22,181.93c-1.06,0-1.79-.8-1.79-1.78s.73-1.78,1.79-1.78h1.1c.32,0,.58.26.58.58s-.26.58-.58.58h-1.1c-.36,0-.61.3-.61.63s.25.63.61.63h2.11v-2.44c0-.58-.4-1.02-1-1.02h-1.85c-.32,0-.58-.26-.58-.58s.26-.58.58-.58h1.85c1.22,0,2.17.97,2.17,2.16v3.01c0,.33-.21.59-.59.59h-2.7Z"/>
    <path class="cls-2" d="M122.21,181.93c-1.06,0-1.79-.8-1.79-1.78s.73-1.78,1.79-1.78h1.1c.32,0,.58.26.58.58s-.26.58-.58.58h-1.1c-.36,0-.61.3-.61.63s.25.63.61.63h2.11v-2.44c0-.58-.4-1.02-1-1.02h-1.85c-.32,0-.58-.26-.58-.58s.26-.58.58-.58h1.85c1.22,0,2.17.97,2.17,2.16v3.01c0,.33-.21.59-.59.59h-2.7Z"/>
    <path class="cls-2" d="M130.45,178.45c0-.62-.51-1.13-1.13-1.13h-1.48v4.11c0,.33-.26.59-.59.59s-.59-.26-.59-.59v-4.68c0-.33.26-.59.59-.59h2.07c1.27,0,2.31,1.03,2.31,2.31v2.96c0,.33-.26.59-.59.59s-.59-.26-.59-.59v-2.98Z"/>
    <path class="cls-2" d="M22.42,197.35c-1.74,0-2.97-1.29-2.97-2.88s1.23-2.88,2.97-2.88h1.34v-1.81c0-.33.26-.59.59-.59s.59.26.59.59v6.98c0,.33-.26.59-.59.59h-1.93ZM23.76,192.74h-1.34c-1.04,0-1.79.78-1.79,1.73s.75,1.73,1.79,1.73h1.34v-3.46Z"/>
    <path class="cls-2" d="M28.8,197.35c-1.74,0-2.97-1.29-2.97-2.88s1.23-2.88,2.97-2.88h.69c1.1,0,1.83.77,1.83,1.73s-.73,1.73-1.83,1.73h-1.1c-.32,0-.58-.26-.58-.58s.26-.58.58-.58h1.1c.39,0,.65-.26.65-.58s-.26-.58-.65-.58h-.69c-1.04,0-1.79.78-1.79,1.73s.75,1.73,1.79,1.73h1.66c.32,0,.58.26.58.58s-.26.58-.58.58h-1.66Z"/>
    <path class="cls-2" d="M35.18,197.35c-.33,0-.59-.26-.59-.59v-6.98c0-.33.26-.59.59-.59s.59.26.59.59v1.81h1.34c1.74,0,2.97,1.29,2.97,2.88s-1.23,2.88-2.97,2.88h-1.93ZM37.11,196.19c1.04,0,1.79-.78,1.79-1.73s-.75-1.73-1.79-1.73h-1.34v3.46h1.34Z"/>
    <path class="cls-2" d="M43.77,197.35c-1.74,0-2.97-1.29-2.97-2.88s1.23-2.88,2.97-2.88h.69c1.1,0,1.83.77,1.83,1.73s-.73,1.73-1.83,1.73h-1.1c-.32,0-.58-.26-.58-.58s.26-.58.58-.58h1.1c.39,0,.65-.26.65-.58s-.26-.58-.65-.58h-.69c-1.04,0-1.79.78-1.79,1.73s.75,1.73,1.79,1.73h1.66c.32,0,.58.26.58.58s-.26.58-.58.58h-1.66Z"/>
    <path class="cls-2" d="M50.98,192.08c0-.33.26-.59.59-.59s.59.26.59.59v2.91c0,1.37-1.12,2.49-2.49,2.49s-2.49-1.12-2.49-2.49v-2.91c0-.33.26-.59.59-.59s.59.26.59.59v2.95c0,.72.6,1.32,1.32,1.32s1.32-.6,1.32-1.32v-2.95Z"/>
    <path class="cls-2" d="M57.75,193.83c0,.33-.26.59-.59.59s-.59-.26-.59-.58v-.08c0-.58-.42-1.03-1.03-1.03h-1.03v4.11c0,.33-.26.59-.59.59s-.59-.26-.59-.59v-4.68c0-.33.26-.59.59-.59h1.62c1.24,0,2.21.99,2.21,2.19v.07Z"/>
    <path class="cls-2" d="M61.32,197.35c-1.12,0-2.03-.91-2.03-2.03v-2.58h-.69c-.32,0-.58-.26-.58-.58s.26-.58.58-.58h.69v-1.15c0-.33.26-.59.59-.59s.59.26.59.59v1.15h1.51c.32,0,.58.26.58.58s-.26.58-.58.58h-1.51v2.59c0,.49.37.87.87.87h.64c.32,0,.58.26.58.58s-.26.58-.58.58h-.65Z"/>
    <path class="cls-2" d="M66.34,190.63c-.4,0-.73-.32-.73-.72s.33-.72.73-.72.73.32.73.72-.33.72-.73.72ZM65.75,192.08c0-.33.26-.59.59-.59s.59.26.59.59v4.76c0,.33-.26.59-.59.59s-.59-.26-.59-.59v-4.76Z"/>
    <path class="cls-2" d="M68.56,197.35c-.32,0-.58-.26-.58-.58s.26-.58.58-.58h2.44c.39,0,.65-.26.65-.58s-.26-.58-.65-.58h-1.35c-1.1,0-1.83-.77-1.83-1.73s.73-1.73,1.83-1.73h2.44c.32,0,.58.26.58.58s-.26.58-.58.58h-2.44c-.39,0-.65.26-.65.58s.26.58.65.58h1.35c1.1,0,1.83.77,1.83,1.73s-.73,1.73-1.83,1.73h-2.44Z"/>
    <path class="cls-2" d="M73.87,198.96c-.14.28-.48.39-.76.26-.28-.14-.4-.49-.27-.76l1.02-2.14c.14-.29.49-.39.77-.26.28.14.41.5.26.77l-1.02,2.13Z"/>
    <path class="cls-2" d="M80.97,197.35c-1.74,0-2.97-1.29-2.97-2.88s1.23-2.88,2.97-2.88h.69c1.1,0,1.83.77,1.83,1.73s-.73,1.73-1.83,1.73h-1.1c-.32,0-.58-.26-.58-.58s.26-.58.58-.58h1.1c.39,0,.65-.26.65-.58s-.26-.58-.65-.58h-.69c-1.04,0-1.79.78-1.79,1.73s.75,1.73,1.79,1.73h1.66c.32,0,.58.26.58.58s-.26.58-.58.58h-1.66Z"/>
    <path class="cls-2" d="M88.79,193.83c0,.33-.26.59-.59.59s-.59-.26-.59-.58v-.08c0-.58-.43-1.03-1.03-1.03h-1.03v4.11c0,.33-.26.59-.59.59s-.59-.26-.59-.59v-4.68c0-.33.26-.59.59-.59h1.62c1.24,0,2.21.99,2.21,2.19v.07Z"/>
    <path class="cls-2" d="M98.76,192.08c0-.33.26-.59.59-.59s.59.26.59.59v3.2c0,1.22-.99,2.21-2.21,2.21-.69,0-1.31-.32-1.71-.8-.4.49-1.02.8-1.71.8-1.22,0-2.21-.99-2.21-2.21v-3.2c0-.33.26-.59.59-.59s.59.26.59.59v3.22c0,.59.49,1.08,1.08,1.08s1.08-.49,1.08-1.08v-3.22c0-.33.26-.59.59-.59s.59.26.59.59v3.22c0,.59.49,1.08,1.08,1.08s1.08-.49,1.08-1.08v-3.22Z"/>
    <path class="cls-2" d="M103.88,197.49c-1.79,0-3.06-1.35-3.06-3.02s1.26-3.02,3.06-3.02,3.05,1.35,3.05,3.02-1.27,3.02-3.05,3.02ZM103.88,192.58c-1.09,0-1.88.85-1.88,1.88s.8,1.88,1.88,1.88,1.88-.85,1.88-1.88-.79-1.88-1.88-1.88Z"/>
    <path class="cls-2" d="M112.25,193.83c0,.33-.26.59-.59.59s-.59-.26-.59-.58v-.08c0-.58-.43-1.03-1.03-1.03h-1.03v4.11c0,.33-.26.59-.59.59s-.59-.26-.59-.59v-4.68c0-.33.26-.59.59-.59h1.62c1.24,0,2.21.99,2.21,2.19v.07Z"/>
    <path class="cls-2" d="M115.85,197.35c-1.74,0-2.97-1.29-2.97-2.88s1.23-2.88,2.97-2.88h1.34v-1.81c0-.33.26-.59.59-.59s.59.26.59.59v6.98c0,.33-.26.59-.59.59h-1.93ZM117.19,192.74h-1.34c-1.04,0-1.79.78-1.79,1.73s.75,1.73,1.79,1.73h1.34v-3.46Z"/>
    <path class="cls-2" d="M122.36,197.35c-1.12,0-2.03-.91-2.03-2.03v-2.58h-.69c-.32,0-.58-.26-.58-.58s.26-.58.58-.58h.69v-1.15c0-.33.26-.59.59-.59s.59.26.59.59v1.15h1.51c.32,0,.58.26.58.58s-.26.58-.58.58h-1.51v2.59c0,.49.37.87.87.87h.64c.32,0,.58.26.58.58s-.26.58-.58.58h-.65Z"/>
    <path class="cls-2" d="M19.36,207.74c-.13-.29,0-.64.29-.77.29-.14.64,0,.77.29l1.7,3.91,1.7-3.91c.13-.29.48-.44.77-.29.29.13.42.48.29.77l-2.11,4.7c-.11.25-.34.42-.65.42s-.54-.17-.65-.42l-2.11-4.7Z"/>
    <path class="cls-2" d="M28.27,212.76c-1.74,0-2.97-1.29-2.97-2.88s1.23-2.88,2.97-2.88h.69c1.1,0,1.83.77,1.83,1.73s-.73,1.73-1.83,1.73h-1.1c-.32,0-.58-.26-.58-.58s.26-.58.58-.58h1.1c.39,0,.65-.26.65-.58s-.26-.58-.65-.58h-.69c-1.04,0-1.79.78-1.79,1.73s.75,1.73,1.79,1.73h1.66c.32,0,.58.26.58.58s-.26.58-.58.58h-1.66Z"/>
    <path class="cls-2" d="M36.1,209.25c0,.33-.26.59-.59.59s-.59-.26-.59-.58v-.08c0-.58-.43-1.03-1.03-1.03h-1.03v4.11c0,.33-.26.59-.59.59s-.59-.26-.59-.59v-4.68c0-.33.26-.59.59-.59h1.62c1.24,0,2.21.99,2.21,2.19v.07Z"/>
    <path class="cls-2" d="M39.7,212.76c-1.74,0-2.97-1.29-2.97-2.88s1.23-2.88,2.97-2.88h1.34v-1.81c0-.33.26-.59.59-.59s.59.26.59.59v6.98c0,.33-.26.59-.59.59h-1.93ZM41.04,208.15h-1.34c-1.04,0-1.79.78-1.79,1.73s.75,1.73,1.79,1.73h1.34v-3.46Z"/>
    <path class="cls-2" d="M46.08,212.76c-1.74,0-2.97-1.29-2.97-2.88s1.23-2.88,2.97-2.88h.69c1.1,0,1.83.77,1.83,1.73s-.73,1.73-1.83,1.73h-1.1c-.32,0-.58-.26-.58-.58s.26-.58.58-.58h1.1c.39,0,.65-.26.65-.58s-.26-.58-.65-.58h-.69c-1.04,0-1.79.78-1.79,1.73s.75,1.73,1.79,1.73h1.66c.32,0,.58.26.58.58s-.26.58-.58.58h-1.66Z"/>
    <path class="cls-2" d="M53.9,209.25c0,.33-.26.59-.59.59s-.59-.26-.59-.58v-.08c0-.58-.42-1.03-1.03-1.03h-1.03v4.11c0,.33-.26.59-.59.59s-.59-.26-.59-.59v-4.68c0-.33.26-.59.59-.59h1.62c1.24,0,2.21.99,2.21,2.19v.07Z"/>
    <path class="cls-2" d="M58.28,215.07c-.32,0-.58-.26-.58-.58s.26-.58.58-.58h2.07c.49,0,.88-.39.88-.88v-.27h-1.34c-1.74,0-2.97-1.29-2.97-2.88s1.23-2.88,2.97-2.88h1.93c.33,0,.59.26.59.59v5.45c0,1.12-.91,2.03-2.03,2.03h-2.09ZM61.23,208.15h-1.34c-1.04,0-1.79.78-1.79,1.73s.75,1.73,1.79,1.73h1.34v-3.46Z"/>
    <path class="cls-2" d="M66.27,212.76c-1.74,0-2.97-1.29-2.97-2.88s1.23-2.88,2.97-2.88h.69c1.1,0,1.83.77,1.83,1.73s-.73,1.73-1.83,1.73h-1.1c-.32,0-.58-.26-.58-.58s.26-.58.58-.58h1.1c.39,0,.65-.26.65-.58s-.26-.58-.65-.58h-.69c-1.04,0-1.79.78-1.79,1.73s.75,1.73,1.79,1.73h1.66c.32,0,.58.26.58.58s-.26.58-.58.58h-1.66Z"/>
    <path class="cls-2" d="M70.13,212.76c-.32,0-.58-.26-.58-.58s.26-.58.58-.58h2.44c.39,0,.65-.26.65-.58s-.26-.58-.65-.58h-1.35c-1.1,0-1.83-.77-1.83-1.73s.73-1.73,1.83-1.73h2.44c.32,0,.58.26.58.58s-.26.58-.58.58h-2.44c-.39,0-.65.26-.65.58s.26.58.65.58h1.35c1.1,0,1.83.77,1.83,1.73s-.73,1.73-1.83,1.73h-2.44Z"/>
    <path class="cls-2" d="M76.47,212.76v1.81c0,.33-.26.59-.59.59s-.59-.26-.59-.59v-6.98c0-.33.26-.59.59-.59h1.92c1.74,0,2.97,1.29,2.97,2.88s-1.23,2.88-2.97,2.88h-1.34ZM77.8,211.61c1.04,0,1.79-.78,1.79-1.73s-.75-1.73-1.79-1.73h-1.34v3.46h1.34Z"/>
    <path class="cls-2" d="M84.46,212.76c-1.74,0-2.97-1.29-2.97-2.88s1.23-2.88,2.97-2.88h.69c1.1,0,1.83.77,1.83,1.73s-.73,1.73-1.83,1.73h-1.1c-.32,0-.58-.26-.58-.58s.26-.58.58-.58h1.1c.39,0,.65-.26.65-.58s-.26-.58-.65-.58h-.69c-1.04,0-1.79.78-1.79,1.73s.75,1.73,1.79,1.73h1.66c.32,0,.58.26.58.58s-.26.58-.58.58h-1.66Z"/>
    <path class="cls-2" d="M90.66,212.76c-1.74,0-2.97-1.29-2.97-2.88s1.23-2.88,2.97-2.88h.69c1.1,0,1.83.77,1.83,1.73s-.73,1.73-1.83,1.73h-1.1c-.32,0-.58-.26-.58-.58s.26-.58.58-.58h1.1c.39,0,.65-.26.65-.58s-.26-.58-.65-.58h-.69c-1.04,0-1.79.78-1.79,1.73s.75,1.73,1.79,1.73h1.66c.32,0,.58.26.58.58s-.26.58-.58.58h-1.66Z"/>
    <path class="cls-2" d="M94.07,205.19c0-.33.26-.59.59-.59s.59.26.59.59v7.07c0,.33-.26.59-.59.59s-.59-.26-.59-.59v-7.07Z"/>
    <path class="cls-2" d="M99.11,212.76c-1.74,0-2.97-1.29-2.97-2.88s1.23-2.88,2.97-2.88h1.34v-1.81c0-.33.26-.59.59-.59s.59.26.59.59v6.98c0,.33-.26.59-.59.59h-1.93ZM100.45,208.15h-1.34c-1.04,0-1.79.78-1.79,1.73s.75,1.73,1.79,1.73h1.34v-3.46Z"/>
    <path class="cls-2" d="M105.78,206.04c-.4,0-.73-.32-.73-.72s.33-.72.73-.72.73.32.73.72-.33.72-.73.72ZM105.19,207.5c0-.33.26-.59.59-.59s.59.26.59.59v4.76c0,.33-.26.59-.59.59s-.59-.26-.59-.59v-4.76Z"/>
    <path class="cls-2" d="M111.33,209.28c0-.62-.51-1.13-1.13-1.13h-1.48v4.11c0,.33-.26.59-.59.59s-.59-.26-.59-.59v-4.68c0-.33.26-.59.59-.59h2.07c1.27,0,2.3,1.03,2.3,2.31v2.96c0,.33-.26.59-.59.59s-.59-.26-.59-.59v-2.98Z"/>
    <path class="cls-2" d="M22.42,228.18c-1.74,0-2.97-1.29-2.97-2.88s1.23-2.88,2.97-2.88h1.34v-1.81c0-.33.26-.59.59-.59s.59.26.59.59v6.98c0,.33-.26.59-.59.59h-1.93ZM23.76,223.57h-1.34c-1.04,0-1.79.78-1.79,1.73s.75,1.73,1.79,1.73h1.34v-3.46Z"/>
    <path class="cls-2" d="M28.8,228.18c-1.74,0-2.97-1.29-2.97-2.88s1.23-2.88,2.97-2.88h.69c1.1,0,1.83.77,1.83,1.73s-.73,1.73-1.83,1.73h-1.1c-.32,0-.58-.26-.58-.58s.26-.58.58-.58h1.1c.39,0,.65-.26.65-.58s-.26-.58-.65-.58h-.69c-1.04,0-1.79.78-1.79,1.73s.75,1.73,1.79,1.73h1.66c.32,0,.58.26.58.58s-.26.58-.58.58h-1.66Z"/>
    <path class="cls-2" d="M35.05,228.18c-.32,0-.58-.26-.58-.58s.26-.58.58-.58h2.44c.39,0,.65-.26.65-.58s-.26-.58-.65-.58h-1.35c-1.1,0-1.83-.77-1.83-1.73s.73-1.73,1.83-1.73h2.44c.32,0,.58.26.58.58s-.26.58-.58.58h-2.44c-.39,0-.65.26-.65.58s.26.58.65.58h1.35c1.1,0,1.83.77,1.83,1.73s-.73,1.73-1.83,1.73h-2.44Z"/>
    <path class="cls-2" d="M41.39,228.18v1.81c0,.33-.26.59-.59.59s-.59-.26-.59-.59v-6.98c0-.33.26-.59.59-.59h1.93c1.74,0,2.97,1.29,2.97,2.88s-1.23,2.88-2.97,2.88h-1.34ZM42.72,227.02c1.04,0,1.79-.78,1.79-1.73s-.75-1.73-1.79-1.73h-1.34v3.46h1.34Z"/>
    <path class="cls-2" d="M49.38,228.18c-1.74,0-2.97-1.29-2.97-2.88s1.23-2.88,2.97-2.88h.69c1.1,0,1.83.77,1.83,1.73s-.73,1.73-1.83,1.73h-1.1c-.32,0-.58-.26-.58-.58s.26-.58.58-.58h1.1c.39,0,.65-.26.65-.58s-.26-.58-.65-.58h-.69c-1.04,0-1.79.78-1.79,1.73s.75,1.73,1.79,1.73h1.66c.32,0,.58.26.58.58s-.26.58-.58.58h-1.66Z"/>
    <path class="cls-2" d="M55.58,228.18c-1.74,0-2.97-1.29-2.97-2.88s1.23-2.88,2.97-2.88h.69c1.1,0,1.83.77,1.83,1.73s-.73,1.73-1.83,1.73h-1.1c-.32,0-.58-.26-.58-.58s.26-.58.58-.58h1.1c.39,0,.65-.26.65-.58s-.26-.58-.65-.58h-.69c-1.04,0-1.79.78-1.79,1.73s.75,1.73,1.79,1.73h1.66c.32,0,.58.26.58.58s-.26.58-.58.58h-1.66Z"/>
    <path class="cls-2" d="M58.99,220.61c0-.33.26-.59.59-.59s.59.26.59.59v7.07c0,.33-.26.59-.59.59s-.59-.26-.59-.59v-7.07Z"/>
    <path class="cls-2" d="M65.76,224.66c0,.33-.26.59-.59.59s-.59-.26-.59-.58v-.08c0-.58-.42-1.03-1.03-1.03h-1.03v4.11c0,.33-.26.59-.59.59s-.59-.26-.59-.59v-4.68c0-.33.26-.59.59-.59h1.62c1.24,0,2.21.99,2.21,2.19v.07Z"/>
    <path class="cls-2" d="M67.26,221.46c-.4,0-.73-.32-.73-.72s.33-.72.73-.72.73.32.73.72-.33.72-.73.72ZM66.67,222.91c0-.33.26-.59.59-.59s.59.26.59.59v4.76c0,.33-.26.59-.59.59s-.59-.26-.59-.59v-4.76Z"/>
    <path class="cls-2" d="M71.71,228.18c-1.74,0-2.97-1.29-2.97-2.88s1.23-2.88,2.97-2.88h1.2c.32,0,.58.26.58.58s-.26.58-.58.58h-1.2c-1.04,0-1.79.78-1.79,1.73s.75,1.73,1.79,1.73h1.2c.32,0,.58.26.58.58s-.26.58-.58.58h-1.2Z"/>
    <path class="cls-2" d="M78.14,224.7c0-.62-.51-1.13-1.13-1.13h-1.48v4.11c0,.33-.26.59-.59.59s-.59-.26-.59-.59v-7.07c0-.33.26-.59.59-.59s.59.26.59.59v1.81h1.48c1.27,0,2.3,1.03,2.3,2.31v2.96c0,.33-.26.59-.59.59s-.59-.26-.59-.59v-2.98Z"/>
    <path class="cls-2" d="M82.98,228.18c-1.12,0-2.03-.91-2.03-2.03v-2.58h-.69c-.32,0-.58-.26-.58-.58s.26-.58.58-.58h.69v-1.15c0-.33.26-.59.59-.59s.59.26.59.59v1.15h1.51c.32,0,.58.26.58.58s-.26.58-.58.58h-1.51v2.59c0,.49.37.87.87.87h.64c.32,0,.58.26.58.58s-.26.58-.58.58h-.65Z"/>
    <path class="cls-2" d="M85.61,221.46c-.4,0-.73-.32-.73-.72s.33-.72.73-.72.73.32.73.72-.33.72-.73.72ZM85.02,222.91c0-.33.26-.59.59-.59s.59.26.59.59v4.76c0,.33-.26.59-.59.59s-.59-.26-.59-.59v-4.76Z"/>
    <path class="cls-2" d="M91.15,224.7c0-.62-.51-1.13-1.13-1.13h-1.48v4.11c0,.33-.26.59-.59.59s-.59-.26-.59-.59v-4.68c0-.33.26-.59.59-.59h2.07c1.27,0,2.3,1.03,2.3,2.31v2.96c0,.33-.26.59-.59.59s-.59-.26-.59-.59v-2.98Z"/>
    <path class="cls-2" d="M94.58,230.48c-.32,0-.58-.26-.58-.58s.26-.58.58-.58h2.07c.49,0,.88-.39.88-.88v-.27h-1.34c-1.74,0-2.97-1.29-2.97-2.88s1.23-2.88,2.97-2.88h1.93c.33,0,.59.26.59.59v5.45c0,1.12-.91,2.03-2.03,2.03h-2.09ZM97.53,223.57h-1.34c-1.04,0-1.79.78-1.79,1.73s.75,1.73,1.79,1.73h1.34v-3.46Z"/>
  </g>
</svg>