<?xml version="1.0" encoding="UTF-8"?>
<svg id="Laag_1" data-name="Laag 1" xmlns="http://www.w3.org/2000/svg" viewBox="0 0 164.41 249.45">
  <defs>
    <style>
      .cls-1 {
        stroke: #1d1e1c;
        stroke-linecap: round;
        stroke-linejoin: round;
        stroke-width: 5px;
      }

      .cls-1, .cls-2 {
        fill: #1d1d1b;
      }

      .cls-2, .cls-3 {
        stroke-width: 0px;
      }

      .cls-3 {
        fill: #eb7c19;
      }
    </style>
  </defs>
  <rect class="cls-3" x="0" y="0" width="164.41" height="249.45"/>
  <path class="cls-2" d="M18.17,35.91c-.05-1.44.26-2.71.92-3.82s1.66-2,3.01-2.7c-1.01-.6-1.78-1.36-2.32-2.27-.54-.91-.83-1.94-.88-3.1-.05-.89.11-1.74.49-2.56s.92-1.55,1.64-2.2c.72-.65,1.62-1.17,2.7-1.57s2.32-.63,3.71-.7c-.72.31-1.36.77-1.91,1.39s-.97,1.28-1.26,2.02c-.29.73-.46,1.48-.5,2.25-.05.77.07,1.47.36,2.11.29.64.73,1.16,1.33,1.58.6.42,1.4.64,2.41.67,1.34.05,2.38-.23,3.1-.85.72-.61,1.14-1.35,1.26-2.21s-.03-1.76-.45-2.68c-.42-.92-1.1-1.69-2.03-2.29,1.01.02,1.99.2,2.95.52.96.32,1.78.79,2.47,1.39.68.6,1.17,1.31,1.46,2.14s.28,1.76-.04,2.79c-.26.79-.76,1.55-1.48,2.27-.72.72-1.62,1.32-2.7,1.8,1.06.22,1.94.6,2.66,1.15.72.55,1.28,1.19,1.67,1.93.4.73.64,1.51.72,2.34.08.83,0,1.64-.23,2.43-.22.7-.59,1.37-1.13,2.02-.54.65-1.21,1.22-2.02,1.73-.8.5-1.73.91-2.77,1.21s-2.17.45-3.37.45c-1.49,0-2.82-.19-4-.56-1.18-.37-2.19-.88-3.04-1.53s-1.51-1.41-1.98-2.29c-.47-.88-.71-1.83-.74-2.86ZM27.96,30.76c-1.15,0-2.17-.11-3.06-.32-.38.6-.67,1.23-.86,1.89-.19.66-.3,1.31-.32,1.96-.02.6.04,1.17.18,1.71.14.54.38,1.03.72,1.46.34.43.77.79,1.3,1.06.53.28,1.16.45,1.91.52.86.07,1.62-.02,2.27-.27s1.19-.6,1.64-1.04c.44-.44.78-.97,1.01-1.57.23-.6.34-1.22.34-1.87.02-.77-.11-1.51-.4-2.21s-.71-1.31-1.26-1.82c-1.08.34-2.23.5-3.46.5Z"/>
  <path class="cls-2" d="M147.69,212.25c.05,1.44-.26,2.71-.92,3.82-.66,1.1-1.66,2-3.01,2.7,1.01.6,1.78,1.36,2.32,2.27s.83,1.94.88,3.1c.05.89-.11,1.74-.49,2.56-.37.82-.92,1.55-1.64,2.2-.72.65-1.62,1.17-2.7,1.57-1.08.4-2.32.63-3.71.7.72-.31,1.36-.77,1.91-1.39.55-.61.97-1.28,1.26-2.02.29-.73.46-1.48.5-2.25.05-.77-.07-1.47-.36-2.11-.29-.64-.73-1.17-1.33-1.58-.6-.42-1.4-.64-2.41-.67-1.34-.05-2.38.23-3.1.85-.72.61-1.14,1.35-1.26,2.21-.12.86.03,1.76.45,2.68.42.92,1.1,1.69,2.03,2.29-1.01-.02-1.99-.2-2.95-.52-.96-.32-1.78-.79-2.47-1.39-.68-.6-1.17-1.31-1.46-2.14s-.28-1.76.04-2.79c.26-.79.76-1.55,1.48-2.27.72-.72,1.62-1.32,2.7-1.8-1.06-.22-1.94-.6-2.66-1.15-.72-.55-1.28-1.19-1.67-1.93-.4-.73-.64-1.51-.72-2.34s0-1.64.23-2.43c.22-.7.59-1.37,1.13-2.02s1.21-1.22,2.02-1.73c.8-.5,1.73-.91,2.77-1.21,1.04-.3,2.17-.45,3.37-.45,1.49,0,2.82.19,4,.56,1.18.37,2.19.88,3.04,1.53.85.65,1.51,1.41,1.98,2.29.47.88.71,1.83.74,2.86ZM137.9,217.39c1.15,0,2.17.11,3.06.32.38-.6.67-1.23.86-1.89s.3-1.31.32-1.96c.02-.6-.04-1.17-.18-1.71-.14-.54-.38-1.03-.72-1.46-.34-.43-.77-.79-1.3-1.06-.53-.28-1.16-.45-1.91-.52-.86-.07-1.62.02-2.27.27-.65.25-1.19.6-1.64,1.04s-.78.97-1.01,1.57c-.23.6-.34,1.22-.34,1.87-.02.77.11,1.51.4,2.21s.71,1.31,1.26,1.82c1.08-.34,2.23-.5,3.46-.5Z"/>
  <path class="cls-1" d="M121.85,124.72c-10.81,0-20.6,4.49-27.68,11.76-7.09,7.27-11.47,17.3-11.47,28.39,0-11.09-4.38-21.12-11.46-28.39s-16.87-11.76-27.68-11.76c0-11.09,4.38-21.13,11.46-28.39,7.09-7.27,16.87-11.76,27.68-11.76s20.6,4.49,27.68,11.76c7.09,7.26,11.47,17.3,11.47,28.39Z"/>
</svg>