<?xml version="1.0" encoding="UTF-8"?>
<svg id="Laag_1" data-name="Laag 1" xmlns="http://www.w3.org/2000/svg" viewBox="0 0 164.41 249.45">
  <defs>
    <style>
      .cls-1 {
        stroke: #1d1e1c;
        stroke-linecap: round;
        stroke-linejoin: round;
        stroke-width: 5px;
      }

      .cls-1, .cls-2 {
        fill: #1d1d1b;
      }

      .cls-2, .cls-3 {
        stroke-width: 0px;
      }

      .cls-3 {
        fill: #8abb2a;
      }
    </style>
  </defs>
  <rect class="cls-3" x="0" y="0" width="164.41" height="249.45"/>
  <path class="cls-2" d="M22.64,32.96c-.82,0-1.37-.19-1.66-.56-.29-.37-.38-.99-.29-1.85.07-.98.11-1.92.11-2.81s-.02-1.77-.07-2.65c-.05-.88-.12-1.76-.22-2.66-.1-.9-.2-1.87-.32-2.9-.05-.48.04-.83.25-1.06.22-.23.49-.37.83-.43.34-.06.68-.07,1.04-.04.36.04.67.07.94.09,1.2.14,2.26.26,3.19.36.92.1,1.77.17,2.54.22.77.05,1.49.09,2.18.13.68.04,1.39.05,2.11.05.38,0,.84-.03,1.37-.09.53-.06,1.01-.19,1.44-.38-.19.34-.41.7-.65,1.08-.24.38-.46.67-.65.86-1.01.91-2.3,1.57-3.89,1.98-1.58.41-3.32.6-5.22.58.12.89.19,1.91.22,3.08.02,1.16-.04,2.29-.18,3.37,1.51.14,2.82.35,3.92.61,1.1.26,2.02.64,2.75,1.13.73.49,1.27,1.13,1.62,1.93s.52,1.78.52,2.95c0,1.39-.43,2.61-1.3,3.65-.86,1.04-1.94,1.89-3.24,2.54s-2.7,1.09-4.21,1.31c-1.51.23-2.92.23-4.21.02,1.01-.26,1.98-.61,2.92-1.04.94-.43,1.76-.93,2.48-1.49.72-.56,1.29-1.19,1.71-1.89.42-.7.63-1.43.63-2.2,0-1.37-.52-2.36-1.57-2.99-1.04-.62-2.74-.92-5.09-.9Z"/>
  <path class="cls-2" d="M144.69,212.84c.82,0,1.37.19,1.66.56s.38.99.29,1.85c-.07.98-.11,1.92-.11,2.81s.02,1.77.07,2.65c.05.88.12,1.76.22,2.66.1.9.2,1.87.32,2.9.05.48-.04.83-.25,1.06-.22.23-.49.37-.83.43-.34.06-.68.07-1.04.04-.36-.04-.67-.07-.94-.09-1.2-.14-2.26-.26-3.19-.36-.92-.1-1.77-.17-2.54-.22-.77-.05-1.49-.09-2.18-.12-.68-.04-1.39-.05-2.11-.05-.38,0-.84.03-1.37.09-.53.06-1.01.19-1.44.38.19-.34.41-.7.65-1.08.24-.38.46-.67.65-.86,1.01-.91,2.3-1.57,3.89-1.98,1.58-.41,3.32-.6,5.22-.58-.12-.89-.19-1.91-.22-3.08-.02-1.16.04-2.29.18-3.37-1.51-.14-2.82-.35-3.92-.61-1.1-.26-2.02-.64-2.75-1.13-.73-.49-1.27-1.13-1.62-1.93s-.52-1.78-.52-2.95c0-1.39.43-2.61,1.3-3.65.86-1.04,1.94-1.89,3.24-2.54,1.3-.65,2.7-1.09,4.21-1.31,1.51-.23,2.92-.23,4.21-.02-1.01.26-1.98.61-2.92,1.04-.94.43-1.76.93-2.48,1.49-.72.56-1.29,1.19-1.71,1.89-.42.7-.63,1.43-.63,2.2,0,1.37.52,2.36,1.57,2.99,1.04.62,2.74.92,5.09.9Z"/>
  <path class="cls-1" d="M121.85,124.72c-10.81,0-20.6,4.49-27.68,11.76-7.09,7.27-11.47,17.3-11.47,28.39,0-11.09-4.38-21.12-11.46-28.39s-16.87-11.76-27.68-11.76c0-11.09,4.38-21.13,11.46-28.39,7.09-7.27,16.87-11.76,27.68-11.76s20.6,4.49,27.68,11.76c7.09,7.26,11.47,17.3,11.47,28.39Z"/>
</svg>