<?xml version="1.0" encoding="UTF-8"?>
<svg id="Laag_1" data-name="Laag 1" xmlns="http://www.w3.org/2000/svg" viewBox="0 0 164.41 249.45">
  <defs>
    <style>
      .cls-1 {
        stroke-linejoin: round;
        stroke-width: 5px;
      }

      .cls-1, .cls-2 {
        stroke: #1d1e1c;
        stroke-linecap: round;
      }

      .cls-1, .cls-3 {
        fill: #1d1d1b;
      }

      .cls-2 {
        fill: none;
        stroke-miterlimit: 10;
        stroke-width: 3.25px;
      }

      .cls-3, .cls-4 {
        stroke-width: 0px;
      }

      .cls-4 {
        fill: #eb7c19;
      }
    </style>
  </defs>
  <rect class="cls-4" x="0" y="0" width="164.41" height="249.45"/>
  <path class="cls-3" d="M36.52,32.39c-.17,1.73-.58,3.33-1.22,4.81-.65,1.48-1.46,2.8-2.43,3.96-.97,1.17-2.06,2.15-3.28,2.95-1.21.8-2.48,1.4-3.8,1.78,1.58-1.68,2.81-3.5,3.67-5.47.86-1.97,1.48-3.92,1.84-5.87-.84.62-1.78,1.1-2.81,1.44-1.03.34-2.09.41-3.17.22-1.1-.19-2.04-.6-2.81-1.22-.77-.62-1.38-1.37-1.84-2.23-.46-.86-.77-1.79-.95-2.79-.18-1-.22-1.97-.13-2.93.1-1.18.41-2.24.95-3.2.54-.96,1.22-1.77,2.05-2.43s1.78-1.14,2.84-1.44c1.07-.3,2.2-.4,3.4-.31,1.58.14,2.9.63,3.94,1.46s1.86,1.85,2.45,3.06c.59,1.21.98,2.54,1.17,3.98.19,1.44.23,2.86.11,4.25ZM24.78,28.72c.02.65.15,1.28.38,1.89.23.61.6,1.17,1.12,1.67.52.5,1.19.93,2.02,1.28.83.35,1.85.57,3.08.67.1-.58.17-1.15.22-1.71.05-.56.1-1.12.14-1.67.05-1.01.01-1.94-.11-2.81-.12-.86-.32-1.61-.59-2.25-.28-.64-.64-1.14-1.1-1.51-.46-.37-.98-.57-1.58-.59-.48-.02-.94.05-1.39.22s-.83.45-1.17.85c-.34.4-.59.92-.77,1.58-.18.66-.26,1.46-.23,2.39Z"/>
  <path class="cls-3" d="M129.4,220.57c.17-1.73.58-3.33,1.22-4.81.65-1.48,1.46-2.8,2.43-3.96.97-1.16,2.06-2.15,3.28-2.95s2.48-1.4,3.8-1.78c-1.58,1.68-2.81,3.5-3.67,5.47-.86,1.97-1.48,3.92-1.84,5.87.84-.62,1.78-1.1,2.81-1.44,1.03-.34,2.09-.41,3.17-.22,1.1.19,2.04.6,2.81,1.22.77.62,1.38,1.37,1.84,2.23.46.86.78,1.79.96,2.79.18,1,.22,1.97.12,2.93-.1,1.18-.41,2.24-.95,3.2-.54.96-1.22,1.77-2.05,2.43-.83.66-1.78,1.14-2.84,1.44-1.07.3-2.2.4-3.4.31-1.58-.14-2.9-.63-3.94-1.46-1.04-.83-1.86-1.85-2.45-3.06s-.98-2.54-1.17-3.98c-.19-1.44-.23-2.86-.11-4.25ZM141.14,224.24c-.02-.65-.15-1.28-.38-1.89-.23-.61-.6-1.17-1.12-1.67-.52-.5-1.19-.93-2.02-1.28-.83-.35-1.85-.57-3.08-.67-.1.58-.17,1.15-.22,1.71-.05.56-.1,1.12-.14,1.67-.05,1.01-.01,1.94.11,2.81.12.86.32,1.61.59,2.25.28.64.64,1.14,1.1,1.51.46.37.98.57,1.58.59.48.02.94-.05,1.39-.22.44-.17.83-.45,1.17-.85.34-.4.59-.92.77-1.58.18-.66.26-1.46.23-2.39Z"/>
  <line class="cls-2" x1="17.61" y1="49.8" x2="38.92" y2="49.8"/>
  <line class="cls-2" x1="148.3" y1="203.09" x2="127" y2="203.09"/>
  <path class="cls-1" d="M121.85,124.72c-10.81,0-20.6,4.49-27.68,11.76-7.09,7.27-11.47,17.3-11.47,28.39,0-11.09-4.38-21.12-11.46-28.39s-16.87-11.76-27.68-11.76c0-11.09,4.38-21.13,11.46-28.39,7.09-7.27,16.87-11.76,27.68-11.76s20.6,4.49,27.68,11.76c7.09,7.26,11.47,17.3,11.47,28.39Z"/>
</svg>