<?xml version="1.0" encoding="UTF-8"?>
<svg id="Laag_1" data-name="Laag 1" xmlns="http://www.w3.org/2000/svg" viewBox="0 0 164.41 249.45">
  <defs>
    <style>
      .cls-1 {
        stroke: #fff;
        stroke-miterlimit: 10;
        stroke-width: .46px;
      }

      .cls-1, .cls-2 {
        fill: #fff;
      }

      .cls-3 {
        fill: none;
        stroke: #8082b8;
        stroke-linecap: round;
        stroke-linejoin: round;
        stroke-width: 8px;
      }

      .cls-4 {
        fill: #8082b8;
      }

      .cls-4, .cls-5, .cls-6, .cls-7, .cls-2 {
        stroke-width: 0px;
      }

      .cls-5 {
        fill: #2f2f2f;
      }

      .cls-6 {
        fill: #1d1d1b;
      }

      .cls-7 {
        fill: #de2b65;
      }
    </style>
  </defs>
  <rect class="cls-5" x="0" width="164.41" height="249.45"/>
  <path class="cls-3" d="M39.69,112.05c5.23,19.41,24.12,35.47,45.85,30.74,18.89-4.72,32.11-26.45,20.78-45.34-3.78-6.61-9.44-9.44-17-11.33-8.5-1.89-16.06,2.83-20.78,9.44-2.83,5.67-1.89,13.22,3.78,17.95,3.78,2.83,8.5,1.89,10.39-.94,2.83-4.72-6.61-9.44.94-12.28,5.67-1.89,10.39,1.89,12.28,6.61,1.89,7.56-1.89,16.06-8.5,19.83-9.44,4.72-21.72,2.83-28.33-5.67-12.28-16.06-5.67-38.72,12.28-46.28,24.56-11.33,54.78,11.33,53.31,37.78"/>
  <g>
    <path class="cls-2" d="M46.34,26.71c-.25.7-.57,1.3-.96,1.79s-.83.9-1.33,1.23c-.49.32-1.03.57-1.6.72-.58.16-1.17.25-1.79.26.43.67.73,1.45.89,2.34.16.89.21,1.82.16,2.79-.05.97-.2,1.93-.45,2.89s-.57,1.85-.96,2.66c-.39.82-.84,1.53-1.35,2.14-.51.61-1.05,1.03-1.64,1.26.03-.37.06-.89.09-1.56.03-.68.04-1.43.05-2.28,0-.84.01-1.74.01-2.7s-.01-1.91-.04-2.86c-.03-.95-.06-1.87-.1-2.75-.04-.88-.09-1.67-.14-2.35-.63-.18-1.23-.41-1.79-.68-.56-.27-1.05-.56-1.49-.88-.43-.32-.8-.65-1.09-1.01-.29-.36-.48-.71-.56-1.06,1.03.13,2.13.22,3.3.27,1.17.05,2.36.07,3.59.06,1.23,0,2.45-.04,3.66-.09,1.22-.05,2.39-.12,3.52-.2Z"/>
    <path class="cls-2" d="M53.82,29.01c-.87.72-1.56,1.51-2.08,2.38-.52.87-.89,1.73-1.12,2.6-.23.87-.35,1.7-.34,2.51,0,.81.11,1.53.31,2.16s.48,1.14.83,1.51.75.56,1.2.56c.48,0,.9-.16,1.24-.48.34-.32.6-.73.79-1.25.18-.52.28-1.11.29-1.77,0-.67-.07-1.35-.25-2.06-.17-.71-.44-1.4-.8-2.09-.36-.68-.82-1.3-1.39-1.85,1.32.02,2.43.27,3.33.75.9.48,1.6,1.11,2.11,1.89.51.77.83,1.65.96,2.61.13.97.08,1.95-.15,2.95-.15.68-.41,1.34-.77,1.96s-.81,1.17-1.34,1.65c-.53.48-1.12.85-1.8,1.12-.67.27-1.4.41-2.16.41-.98,0-1.87-.17-2.65-.5s-1.45-.8-2-1.41c-.55-.61-.98-1.33-1.29-2.17-.31-.84-.47-1.76-.49-2.76-.03-1.07.12-2.08.45-3.05.33-.97.82-1.84,1.47-2.62.65-.78,1.45-1.44,2.4-1.98.95-.53,2.03-.89,3.25-1.08Z"/>
    <path class="cls-2" d="M69.32,38.01c.03-1.85-.2-3.27-.7-4.25-.5-.98-1.23-1.46-2.2-1.42-.13,0-.25,0-.35.01s-.2.02-.3.04c.23.67.37,1.41.4,2.23.03.82-.02,1.65-.15,2.5-.13.85-.33,1.69-.6,2.51-.27.82-.59,1.58-.98,2.27-.38.69-.81,1.29-1.27,1.8-.47.51-.96.87-1.48,1.09.05-.43.09-1.04.11-1.83.03-.78.04-1.66.05-2.62,0-.97,0-1.98-.01-3.04-.02-1.06-.04-2.08-.09-3.06-.04-.98-.1-1.89-.16-2.73-.07-.83-.14-1.5-.22-2,.8-.07,1.49.02,2.08.26.58.24,1.07.59,1.45,1.04.72-.73,1.72-1.1,3.03-1.1.82,0,1.51.14,2.09.41s1.02.64,1.35,1.1c.32.46.52.98.6,1.57.07.59.03,1.2-.14,1.81-.17.62-.46,1.22-.88,1.81-.42.59-.96,1.12-1.62,1.59Z"/>
    <path class="cls-2" d="M88.07,42.64c-.28.42-.57.75-.85,1s-.55.44-.81.58-.5.22-.72.26c-.22.04-.43.06-.61.06-.65,0-1.18-.12-1.59-.35-.41-.23-.73-.56-.95-.98-.22-.42-.38-.92-.45-1.5-.08-.58-.12-1.22-.14-1.9v-.91c0-.41,0-.88.01-1.4,0-.52.01-1.09.01-1.7s0-1.22-.03-1.84c-.02-.58-.12-.98-.3-1.17-.18-.2-.58-.3-1.18-.3-.3,0-.59.01-.86.04s-.55.05-.84.09c.17.7.25,1.45.24,2.25,0,.8-.08,1.61-.22,2.43s-.35,1.62-.62,2.4c-.28.78-.6,1.5-.97,2.15s-.78,1.21-1.22,1.69c-.44.48-.91.81-1.41,1.01.05-.43.09-1.05.11-1.84.03-.79.04-1.67.05-2.65,0-.98,0-2-.01-3.07-.02-1.08-.04-2.11-.09-3.11s-.1-1.92-.16-2.76-.14-1.51-.22-2.01c.95-.08,1.74.05,2.38.39s1.14.82,1.53,1.44c.63-.4,1.32-.71,2.07-.93.75-.22,1.5-.32,2.25-.32.7,0,1.27.09,1.7.26.43.18.77.43,1.01.75.24.33.4.73.49,1.2.08.48.12,1.01.12,1.61,0,1.43,0,2.66.01,3.68s.04,1.87.09,2.55c.05.68.12,1.23.21,1.62.09.4.22.7.39.89s.38.31.64.36.58.07.96.05Z"/>
    <path class="cls-2" d="M97.72,42.69c-.7.7-1.43,1.15-2.2,1.36-.77.21-1.48.3-2.15.26-.65-.03-1.26-.2-1.83-.5-.57-.3-1.05-.7-1.46-1.19-.41-.49-.72-1.06-.94-1.71-.22-.65-.31-1.34-.28-2.08.03-.65.16-1.29.38-1.91s.54-1.18.97-1.67.99-.88,1.66-1.18c.68-.29,1.49-.44,2.44-.44.53,0,1.04.06,1.51.19.47.12.93.35,1.36.66-.05-.7-.35-1.23-.91-1.59s-1.22-.6-2-.74-1.58-.17-2.41-.11c-.83.06-1.54.16-2.12.31.33-.55.73-1.03,1.19-1.45.46-.42.95-.76,1.47-1.04s1.06-.48,1.61-.61c.55-.13,1.09-.18,1.62-.15.95.05,1.76.29,2.42.71.67.43,1.21.98,1.64,1.65.42.67.74,1.45.94,2.32.2.88.3,1.8.3,2.76,0,.8-.05,1.61-.16,2.42-.11.82-.28,1.6-.5,2.34-.22.74-.5,1.43-.82,2.06-.33.63-.7,1.18-1.11,1.62-.08-.32-.17-.69-.28-1.11-.1-.42-.22-.83-.35-1.21ZM92.59,38.49c.02.25.06.5.14.74s.19.46.34.66c.15.2.35.37.59.51s.55.25.91.31c.43.08.82.07,1.15-.04.33-.11.61-.27.84-.49.22-.22.4-.47.51-.76.12-.29.18-.59.18-.89,0-.4-.05-.77-.15-1.11-.1-.34-.25-.64-.45-.9-.2-.26-.46-.46-.78-.61-.32-.15-.69-.22-1.12-.2-.77.03-1.34.3-1.71.81-.38.51-.52,1.16-.44,1.96Z"/>
    <path class="cls-2" d="M110.99,26.51c.97-.07,1.77.11,2.41.54.64.43,1.15,1.02,1.53,1.8.38.77.62,1.67.75,2.69s.15,2.08.06,3.19c-.08,1.11-.25,2.21-.51,3.3-.26,1.09-.58,2.1-.98,3.02-.39.93-.84,1.72-1.34,2.39s-1.03,1.12-1.6,1.35c.02-.13.03-.28.04-.45,0-.17.02-.37.04-.6-.7.28-1.47.41-2.33.38-.97-.02-1.82-.2-2.57-.54-.75-.34-1.38-.8-1.9-1.39s-.91-1.27-1.19-2.06-.42-1.65-.44-2.59c-.02-.97.13-1.88.44-2.74.31-.86.74-1.62,1.3-2.29.56-.67,1.23-1.2,2.01-1.61.78-.41,1.63-.64,2.55-.69.37-.02.72,0,1.06.02.34.03.67.1.99.2-.03-.87-.08-1.64-.14-2.33-.06-.68-.12-1.22-.19-1.6ZM111.44,41.51c.03-1.25.04-2.65.03-4.19-.02-1.54-.04-3.05-.08-4.54-.1,0-.2,0-.3.01-.1,0-.21.02-.33.04-.5.05-.95.22-1.35.5-.4.28-.75.63-1.04,1.05-.29.42-.52.89-.67,1.43-.16.53-.25,1.07-.26,1.62-.05,2.18.81,3.49,2.58,3.92.48.13.96.18,1.42.15Z"/>
    <path class="cls-2" d="M126.17,29.01c-.87.72-1.56,1.51-2.08,2.38-.52.87-.89,1.73-1.12,2.6-.23.87-.35,1.7-.34,2.51,0,.81.11,1.53.31,2.16.2.63.48,1.14.83,1.51.35.38.75.56,1.2.56.48,0,.9-.16,1.24-.48.34-.32.6-.73.79-1.25.18-.52.28-1.11.29-1.77,0-.67-.08-1.35-.25-2.06-.17-.71-.44-1.4-.8-2.09-.36-.68-.82-1.3-1.39-1.85,1.32.02,2.42.27,3.33.75.9.48,1.6,1.11,2.11,1.89.51.77.83,1.65.96,2.61.13.97.08,1.95-.15,2.95-.15.68-.41,1.34-.78,1.96-.37.62-.81,1.17-1.34,1.65-.53.48-1.12.85-1.8,1.12-.68.27-1.4.41-2.16.41-.98,0-1.87-.17-2.65-.5-.78-.33-1.45-.8-2-1.41-.55-.61-.98-1.33-1.29-2.17-.31-.84-.47-1.76-.49-2.76-.03-1.07.12-2.08.45-3.05.33-.97.83-1.84,1.47-2.62.65-.78,1.45-1.44,2.4-1.98.95-.53,2.03-.89,3.25-1.08Z"/>
  </g>
  <g>
    <path class="cls-4" d="M141.73,206.68c-4.35,0-7.89-3.7-7.89-8.26s3.54-8.25,7.89-8.25,7.89,3.7,7.89,8.25-3.54,8.26-7.89,8.26Z"/>
    <path class="cls-6" d="M141.73,191.17c3.8,0,6.89,3.25,6.89,7.26s-3.09,7.26-6.89,7.26-6.89-3.25-6.89-7.26,3.09-7.26,6.89-7.26M141.73,189.17c-4.91,0-8.89,4.14-8.89,9.26s3.98,9.26,8.89,9.26,8.89-4.14,8.89-9.26-3.98-9.26-8.89-9.26h0Z"/>
  </g>
  <g>
    <path class="cls-7" d="M141.73,234.43c-4.35,0-7.89-3.7-7.89-8.26s3.54-8.26,7.89-8.26,7.89,3.7,7.89,8.26-3.54,8.26-7.89,8.26Z"/>
    <path class="cls-6" d="M141.73,218.92c3.8,0,6.89,3.25,6.89,7.26s-3.09,7.26-6.89,7.26-6.89-3.25-6.89-7.26,3.09-7.26,6.89-7.26M141.73,216.92c-4.91,0-8.89,4.14-8.89,9.26s3.98,9.26,8.89,9.26,8.89-4.14,8.89-9.26-3.98-9.26-8.89-9.26h0Z"/>
  </g>
  <g>
    <path class="cls-1" d="M23.18,181.39c-1.76,0-3.01-1.31-3.01-2.92s1.24-2.92,3.01-2.92h.69c1.11,0,1.85.78,1.85,1.75s-.74,1.75-1.85,1.75h-1.11c-.32,0-.58-.26-.58-.58s.27-.58.58-.58h1.11c.4,0,.66-.26.66-.58s-.26-.58-.66-.58h-.69c-1.06,0-1.82.79-1.82,1.75s.76,1.75,1.82,1.75h1.69c.32,0,.58.26.58.58s-.26.58-.58.58h-1.69Z"/>
    <path class="cls-1" d="M26.64,173.72c0-.33.26-.59.59-.59s.59.26.59.59v7.16c0,.33-.26.59-.59.59s-.59-.26-.59-.59v-7.16Z"/>
    <path class="cls-1" d="M30.21,178.58v2.3c0,.33-.26.59-.59.59s-.6-.26-.6-.59v-7.16c0-.33.26-.59.6-.59s.59.26.59.59v4.64l2.72-2.72c.23-.23.59-.23.83,0,.22.23.22.59,0,.83l-2,2,2,2.01c.23.23.22.59,0,.83-.23.23-.59.23-.83,0l-2.72-2.72Z"/>
    <path class="cls-1" d="M37.07,181.39c-1.76,0-3.01-1.31-3.01-2.92s1.25-2.92,3.01-2.92h.69c1.11,0,1.85.78,1.85,1.75s-.74,1.75-1.85,1.75h-1.11c-.32,0-.58-.26-.58-.58s.26-.58.58-.58h1.11c.4,0,.66-.26.66-.58s-.27-.58-.66-.58h-.69c-1.06,0-1.82.79-1.82,1.75s.76,1.75,1.82,1.75h1.69c.32,0,.58.26.58.58s-.26.58-.58.58h-1.69Z"/>
    <path class="cls-1" d="M43.41,181.39c-.32,0-.58-.26-.58-.58s.27-.58.58-.58h2.47c.4,0,.66-.26.66-.58s-.27-.58-.66-.58h-1.37c-1.11,0-1.85-.78-1.85-1.75s.74-1.75,1.85-1.75h2.47c.32,0,.58.26.58.58s-.26.58-.58.58h-2.47c-.4,0-.66.26-.66.58s.27.58.66.58h1.37c1.11,0,1.85.78,1.85,1.75s-.74,1.75-1.85,1.75h-2.47Z"/>
    <path class="cls-1" d="M49.83,181.39v1.83c0,.33-.26.59-.59.59s-.6-.26-.6-.59v-7.07c0-.33.26-.59.6-.59h1.95c1.76,0,3.01,1.31,3.01,2.92s-1.25,2.92-3.01,2.92h-1.36ZM51.18,180.22c1.06,0,1.82-.79,1.82-1.75s-.76-1.75-1.82-1.75h-1.36v3.5h1.36Z"/>
    <path class="cls-1" d="M57.93,181.39c-1.76,0-3.01-1.31-3.01-2.92s1.25-2.92,3.01-2.92h.69c1.11,0,1.85.78,1.85,1.75s-.74,1.75-1.85,1.75h-1.11c-.32,0-.58-.26-.58-.58s.26-.58.58-.58h1.11c.4,0,.66-.26.66-.58s-.26-.58-.66-.58h-.69c-1.06,0-1.82.79-1.82,1.75s.76,1.75,1.82,1.75h1.69c.32,0,.58.26.58.58s-.26.58-.58.58h-1.69Z"/>
    <path class="cls-1" d="M61.38,173.72c0-.33.26-.59.59-.59s.6.26.6.59v7.16c0,.33-.26.59-.6.59s-.59-.26-.59-.59v-7.16Z"/>
    <path class="cls-1" d="M66.48,181.39c-1.76,0-3.01-1.31-3.01-2.92s1.25-2.92,3.01-2.92h.69c1.11,0,1.85.78,1.85,1.75s-.74,1.75-1.85,1.75h-1.11c-.32,0-.58-.26-.58-.58s.26-.58.58-.58h1.11c.4,0,.66-.26.66-.58s-.27-.58-.66-.58h-.69c-1.06,0-1.82.79-1.82,1.75s.76,1.75,1.82,1.75h1.69c.32,0,.58.26.58.58s-.26.58-.58.58h-1.69Z"/>
    <path class="cls-1" d="M74.4,177.83c0,.33-.26.59-.59.59s-.59-.26-.59-.58v-.08c0-.58-.43-1.05-1.05-1.05h-1.05v4.16c0,.33-.26.59-.59.59s-.6-.26-.6-.59v-4.74c0-.33.26-.59.6-.59h1.64c1.26,0,2.24,1,2.24,2.21v.07Z"/>
    <path class="cls-1" d="M80.48,181.39c-1.76,0-3.01-1.31-3.01-2.92s1.24-2.92,3.01-2.92h1.35v-1.83c0-.33.27-.59.6-.59s.59.26.59.59v7.07c0,.33-.26.59-.59.59h-1.95ZM81.83,176.72h-1.35c-1.06,0-1.82.79-1.82,1.75s.76,1.75,1.82,1.75h1.35v-3.5Z"/>
    <path class="cls-1" d="M88.69,177.83c0,.33-.27.59-.6.59s-.59-.26-.59-.58v-.08c0-.58-.43-1.05-1.05-1.05h-1.05v4.16c0,.33-.26.59-.6.59s-.59-.26-.59-.59v-4.74c0-.33.26-.59.59-.59h1.64c1.26,0,2.24,1,2.24,2.21v.07Z"/>
    <path class="cls-1" d="M90.83,181.39c-1.07,0-1.81-.82-1.81-1.81s.74-1.81,1.81-1.81h1.11c.32,0,.58.26.58.58s-.26.58-.58.58h-1.11c-.36,0-.62.31-.62.64s.25.64.62.64h2.14v-2.47c0-.58-.41-1.04-1.01-1.04h-1.87c-.32,0-.58-.26-.58-.58s.26-.58.58-.58h1.87c1.23,0,2.2.98,2.2,2.19v3.05c0,.33-.21.59-.6.59h-2.73Z"/>
    <path class="cls-1" d="M96.89,181.39c-1.07,0-1.81-.82-1.81-1.81s.74-1.81,1.81-1.81h1.11c.32,0,.58.26.58.58s-.26.58-.58.58h-1.11c-.36,0-.62.31-.62.64s.25.64.62.64h2.14v-2.47c0-.58-.41-1.04-1.01-1.04h-1.87c-.32,0-.58-.26-.58-.58s.26-.58.58-.58h1.87c1.23,0,2.2.98,2.2,2.19v3.05c0,.33-.21.59-.6.59h-2.73Z"/>
    <path class="cls-1" d="M102,174.58c-.41,0-.74-.32-.74-.73s.33-.73.74-.73.74.32.74.73-.33.73-.74.73ZM101.41,176.06c0-.33.26-.59.59-.59s.6.26.6.59v4.82c0,.33-.26.59-.6.59s-.59-.26-.59-.59v-4.82Z"/>
    <path class="cls-1" d="M106.65,181.39c-1.14,0-2.06-.93-2.06-2.06v-2.61h-.69c-.32,0-.58-.26-.58-.58s.27-.58.58-.58h.69v-1.17c0-.33.27-.59.6-.59s.6.26.6.59v1.17h1.53c.32,0,.58.26.58.58s-.27.58-.58.58h-1.53v2.62c0,.5.37.88.88.88h.65c.32,0,.58.26.58.58s-.27.58-.58.58h-.66Z"/>
    <path class="cls-1" d="M111.51,181.39c-.32,0-.58-.25-.58-.57,0-.13.06-.3.18-.44l3.01-3.66h-2.5c-.32,0-.58-.26-.58-.58s.27-.58.58-.58h3.7c.32,0,.57.25.57.57,0,.14-.05.3-.18.44l-3.01,3.66h2.49c.32,0,.58.26.58.58s-.26.58-.58.58h-3.68Z"/>
    <path class="cls-1" d="M117.46,174.58c-.41,0-.74-.32-.74-.73s.33-.73.74-.73.74.32.74.73-.33.73-.74.73ZM116.86,176.06c0-.33.26-.59.59-.59s.6.26.6.59v4.82c0,.33-.26.59-.6.59s-.59-.26-.59-.59v-4.82Z"/>
    <path class="cls-1" d="M117.65,183.72c-.32,0-.58-.26-.58-.58s.26-.58.58-.58h.23c.99,0,1.37-.52,1.37-1.5v-5c0-.33.26-.59.59-.59s.6.26.6.59v4.99c0,1.64-.84,2.68-2.54,2.68h-.24ZM119.84,174.58c-.41,0-.74-.32-.74-.73s.33-.73.74-.73.74.32.74.73-.33.73-.74.73Z"/>
    <path class="cls-1" d="M125.46,177.86c0-.63-.52-1.15-1.15-1.15h-1.5v4.16c0,.33-.26.59-.6.59s-.59-.26-.59-.59v-4.74c0-.33.26-.59.59-.59h2.09c1.29,0,2.34,1.05,2.34,2.34v3c0,.33-.26.59-.6.59s-.59-.26-.59-.59v-3.02Z"/>
    <path class="cls-1" d="M24.3,193.48c0-.63-.52-1.15-1.14-1.15h-1.5v4.16c0,.33-.26.59-.59.59s-.6-.26-.6-.59v-7.16c0-.33.27-.59.6-.59s.59.26.59.59v1.83h1.5c1.29,0,2.33,1.05,2.33,2.34v3c0,.33-.26.59-.59.59s-.6-.26-.6-.59v-3.02Z"/>
    <path class="cls-1" d="M29.4,197c-1.76,0-3.01-1.31-3.01-2.92s1.25-2.92,3.01-2.92h.69c1.11,0,1.85.78,1.85,1.75s-.74,1.75-1.85,1.75h-1.11c-.32,0-.58-.26-.58-.58s.26-.58.58-.58h1.11c.4,0,.66-.26.66-.58s-.27-.58-.66-.58h-.69c-1.06,0-1.82.79-1.82,1.75s.76,1.75,1.82,1.75h1.69c.32,0,.58.26.58.58s-.26.58-.58.58h-1.69Z"/>
    <path class="cls-1" d="M32.85,189.34c0-.33.26-.59.6-.59s.59.26.59.59v7.16c0,.33-.26.59-.59.59s-.6-.26-.6-.59v-7.16Z"/>
    <path class="cls-1" d="M37.95,197c-1.76,0-3.01-1.31-3.01-2.92s1.24-2.92,3.01-2.92h.69c1.11,0,1.85.78,1.85,1.75s-.74,1.75-1.85,1.75h-1.11c-.32,0-.58-.26-.58-.58s.26-.58.58-.58h1.11c.4,0,.66-.26.66-.58s-.26-.58-.66-.58h-.69c-1.06,0-1.82.79-1.82,1.75s.76,1.75,1.82,1.75h1.68c.32,0,.58.26.58.58s-.26.58-.58.58h-1.68Z"/>
    <path class="cls-1" d="M46.55,197c-1.76,0-3.01-1.31-3.01-2.92s1.24-2.92,3.01-2.92h1.35v-1.83c0-.33.27-.59.6-.59s.59.26.59.59v7.07c0,.33-.26.59-.59.59h-1.95ZM47.91,192.33h-1.35c-1.06,0-1.82.79-1.82,1.75s.76,1.75,1.82,1.75h1.35v-3.5Z"/>
    <path class="cls-1" d="M53.01,197c-1.76,0-3.01-1.31-3.01-2.92s1.25-2.92,3.01-2.92h.69c1.11,0,1.85.78,1.85,1.75s-.74,1.75-1.85,1.75h-1.11c-.32,0-.58-.26-.58-.58s.26-.58.58-.58h1.11c.4,0,.66-.26.66-.58s-.26-.58-.66-.58h-.69c-1.06,0-1.82.79-1.82,1.75s.76,1.75,1.82,1.75h1.69c.32,0,.58.26.58.58s-.26.58-.58.58h-1.69Z"/>
    <path class="cls-1" d="M57.65,194.19v2.3c0,.33-.26.59-.59.59s-.6-.26-.6-.59v-7.16c0-.33.27-.59.6-.59s.59.26.59.59v4.64l2.72-2.72c.23-.23.6-.23.83,0,.22.23.22.59,0,.83l-2.01,2,2.01,2.01c.23.23.22.59,0,.83-.23.23-.6.23-.83,0l-2.72-2.72Z"/>
    <path class="cls-1" d="M71.29,193.48c0-.63-.52-1.15-1.15-1.15h-1.05v4.16c0,.33-.26.59-.6.59s-.59-.26-.59-.59v-4.16h-2.17v4.16c0,.33-.26.59-.59.59s-.59-.26-.59-.59v-4.74c0-.33.26-.59.59-.59h5c1.29,0,2.34,1.05,2.34,2.34v3c0,.33-.26.59-.59.59s-.59-.26-.59-.59v-3.02Z"/>
    <path class="cls-1" d="M76.4,197c-1.76,0-3.01-1.31-3.01-2.92s1.24-2.92,3.01-2.92h.69c1.11,0,1.85.78,1.85,1.75s-.74,1.75-1.85,1.75h-1.11c-.32,0-.58-.26-.58-.58s.26-.58.58-.58h1.11c.4,0,.66-.26.66-.58s-.26-.58-.66-.58h-.69c-1.06,0-1.82.79-1.82,1.75s.76,1.75,1.82,1.75h1.68c.32,0,.58.26.58.58s-.26.58-.58.58h-1.68Z"/>
    <path class="cls-1" d="M82.7,197c-1.13,0-2.06-.93-2.06-2.06v-2.61h-.69c-.32,0-.58-.26-.58-.58s.26-.58.58-.58h.69v-1.17c0-.33.26-.59.59-.59s.59.26.59.59v1.17h1.53c.32,0,.58.26.58.58s-.26.58-.58.58h-1.53v2.62c0,.5.37.88.88.88h.65c.32,0,.58.26.58.58s-.26.58-.58.58h-.66Z"/>
    <path class="cls-1" d="M89.91,197c-1.76,0-3.01-1.31-3.01-2.92s1.25-2.92,3.01-2.92h1.36v-1.83c0-.33.26-.59.59-.59s.6.26.6.59v7.07c0,.33-.27.59-.6.59h-1.95ZM91.27,192.33h-1.36c-1.06,0-1.82.79-1.82,1.75s.76,1.75,1.82,1.75h1.36v-3.5Z"/>
    <path class="cls-1" d="M96.37,197c-1.76,0-3.01-1.31-3.01-2.92s1.25-2.92,3.01-2.92h.69c1.11,0,1.85.78,1.85,1.75s-.74,1.75-1.85,1.75h-1.11c-.32,0-.58-.26-.58-.58s.26-.58.58-.58h1.11c.4,0,.66-.26.66-.58s-.27-.58-.66-.58h-.69c-1.06,0-1.82.79-1.82,1.75s.76,1.75,1.82,1.75h1.68c.32,0,.58.26.58.58s-.27.58-.58.58h-1.68Z"/>
    <path class="cls-1" d="M24.94,209.06c0,.33-.26.59-.59.59s-.6-.26-.6-.58v-.08c0-.58-.43-1.05-1.05-1.05h-1.05v4.16c0,.33-.26.59-.59.59s-.6-.26-.6-.59v-4.74c0-.33.27-.59.6-.59h1.64c1.26,0,2.24,1,2.24,2.21v.07Z"/>
    <path class="cls-1" d="M28.67,212.76c-1.82,0-3.1-1.37-3.1-3.06s1.28-3.06,3.1-3.06,3.09,1.37,3.09,3.06-1.29,3.06-3.09,3.06ZM28.67,207.79c-1.1,0-1.91.86-1.91,1.91s.81,1.91,1.91,1.91,1.91-.86,1.91-1.91-.8-1.91-1.91-1.91Z"/>
    <path class="cls-1" d="M35.25,212.62c-1.14,0-2.06-.93-2.06-2.06v-2.61h-.69c-.32,0-.58-.26-.58-.58s.26-.58.58-.58h.69v-1.17c0-.33.26-.59.59-.59s.6.26.6.59v1.17h1.53c.32,0,.58.26.58.58s-.27.58-.58.58h-1.53v2.62c0,.5.37.88.88.88h.65c.32,0,.58.26.58.58s-.27.58-.58.58h-.66Z"/>
    <path class="cls-1" d="M38.86,212.62c-1.07,0-1.81-.82-1.81-1.81s.74-1.81,1.81-1.81h1.11c.32,0,.58.26.58.58s-.27.58-.58.58h-1.11c-.36,0-.62.31-.62.64s.25.64.62.64h2.14v-2.47c0-.58-.41-1.04-1.01-1.04h-1.87c-.32,0-.58-.26-.58-.58s.26-.58.58-.58h1.87c1.23,0,2.2.98,2.2,2.19v3.05c0,.33-.21.59-.59.59h-2.73Z"/>
    <path class="cls-1" d="M45.9,212.62c-1.14,0-2.06-.93-2.06-2.06v-2.61h-.69c-.32,0-.58-.26-.58-.58s.26-.58.58-.58h.69v-1.17c0-.33.26-.59.59-.59s.6.26.6.59v1.17h1.53c.32,0,.58.26.58.58s-.27.58-.58.58h-1.53v2.62c0,.5.37.88.88.88h.65c.32,0,.58.26.58.58s-.27.58-.58.58h-.66Z"/>
    <path class="cls-1" d="M48.56,205.81c-.41,0-.74-.32-.74-.73s.33-.73.74-.73.74.32.74.73-.33.73-.74.73ZM47.96,207.29c0-.33.26-.59.59-.59s.6.26.6.59v4.82c0,.33-.26.59-.6.59s-.59-.26-.59-.59v-4.82Z"/>
    <path class="cls-1" d="M53.07,212.62c-1.76,0-3.01-1.31-3.01-2.92s1.25-2.92,3.01-2.92h.69c1.11,0,1.85.78,1.85,1.75s-.74,1.75-1.85,1.75h-1.11c-.32,0-.58-.26-.58-.58s.26-.58.58-.58h1.11c.4,0,.66-.26.66-.58s-.27-.58-.66-.58h-.69c-1.06,0-1.82.79-1.82,1.75s.76,1.75,1.82,1.75h1.69c.32,0,.58.26.58.58s-.26.58-.58.58h-1.69Z"/>
    <path class="cls-1" d="M58.57,207.53c-.13-.3,0-.65.3-.78.3-.14.65,0,.78.3l1.72,3.97,1.72-3.97c.13-.3.48-.44.78-.3.3.13.43.48.3.78l-2.14,4.76c-.11.25-.34.43-.66.43s-.55-.18-.66-.43l-2.14-4.76Z"/>
    <path class="cls-1" d="M66.52,212.62c-1.07,0-1.81-.82-1.81-1.81s.74-1.81,1.81-1.81h1.11c.32,0,.58.26.58.58s-.26.58-.58.58h-1.11c-.36,0-.62.31-.62.64s.25.64.62.64h2.14v-2.47c0-.58-.41-1.04-1.01-1.04h-1.87c-.32,0-.58-.26-.58-.58s.27-.58.58-.58h1.87c1.23,0,2.2.98,2.2,2.19v3.05c0,.33-.21.59-.6.59h-2.73Z"/>
    <path class="cls-1" d="M74.88,209.09c0-.63-.52-1.15-1.15-1.15h-1.5v4.16c0,.33-.26.59-.59.59s-.59-.26-.59-.59v-4.74c0-.33.26-.59.59-.59h2.09c1.29,0,2.34,1.05,2.34,2.34v3c0,.33-.26.59-.6.59s-.59-.26-.59-.59v-3.02Z"/>
    <path class="cls-1" d="M83.52,209.09c0-.63-.52-1.15-1.15-1.15h-1.5v4.16c0,.33-.26.59-.6.59s-.59-.26-.59-.59v-7.16c0-.33.26-.59.59-.59s.6.26.6.59v1.83h1.5c1.29,0,2.34,1.05,2.34,2.34v3c0,.33-.27.59-.6.59s-.59-.26-.59-.59v-3.02Z"/>
    <path class="cls-1" d="M88.62,212.62c-1.76,0-3.01-1.31-3.01-2.92s1.25-2.92,3.01-2.92h.69c1.11,0,1.85.78,1.85,1.75s-.74,1.75-1.85,1.75h-1.11c-.32,0-.58-.26-.58-.58s.26-.58.58-.58h1.11c.4,0,.66-.26.66-.58s-.27-.58-.66-.58h-.69c-1.06,0-1.82.79-1.82,1.75s.76,1.75,1.82,1.75h1.69c.32,0,.58.26.58.58s-.26.58-.58.58h-1.69Z"/>
    <path class="cls-1" d="M94.93,212.62c-1.14,0-2.06-.93-2.06-2.06v-2.61h-.69c-.32,0-.58-.26-.58-.58s.27-.58.58-.58h.69v-1.17c0-.33.27-.59.6-.59s.6.26.6.59v1.17h1.53c.32,0,.58.26.58.58s-.27.58-.58.58h-1.53v2.62c0,.5.37.88.88.88h.65c.32,0,.58.26.58.58s-.27.58-.58.58h-.66Z"/>
    <path class="cls-1" d="M99.88,212.62c-.32,0-.58-.26-.58-.58s.26-.58.58-.58h2.47c.4,0,.66-.26.66-.58s-.26-.58-.66-.58h-1.37c-1.11,0-1.85-.78-1.85-1.75s.74-1.75,1.85-1.75h2.47c.32,0,.58.26.58.58s-.26.58-.58.58h-2.47c-.4,0-.66.26-.66.58s.26.58.66.58h1.37c1.11,0,1.85.78,1.85,1.75s-.74,1.75-1.85,1.75h-2.47Z"/>
    <path class="cls-1" d="M106.29,212.62v1.83c0,.33-.27.59-.6.59s-.6-.26-.6-.59v-7.07c0-.33.27-.59.6-.59h1.95c1.76,0,3.01,1.31,3.01,2.92s-1.25,2.92-3.01,2.92h-1.35ZM107.65,211.45c1.06,0,1.82-.79,1.82-1.75s-.76-1.75-1.82-1.75h-1.35v3.5h1.35Z"/>
    <path class="cls-1" d="M114.39,212.62c-1.76,0-3.01-1.31-3.01-2.92s1.25-2.92,3.01-2.92h.69c1.11,0,1.85.78,1.85,1.75s-.74,1.75-1.85,1.75h-1.11c-.32,0-.58-.26-.58-.58s.27-.58.58-.58h1.11c.4,0,.66-.26.66-.58s-.26-.58-.66-.58h-.69c-1.06,0-1.82.79-1.82,1.75s.76,1.75,1.82,1.75h1.69c.32,0,.58.26.58.58s-.26.58-.58.58h-1.69Z"/>
    <path class="cls-1" d="M117.85,204.95c0-.33.26-.59.59-.59s.6.26.6.59v7.16c0,.33-.26.59-.6.59s-.59-.26-.59-.59v-7.16Z"/>
    <path class="cls-1" d="M27.21,224.71c0-.63-.52-1.15-1.15-1.15h-1.05v4.16c0,.33-.26.59-.59.59s-.6-.26-.6-.59v-4.16h-2.17v4.16c0,.33-.26.59-.59.59s-.6-.26-.6-.59v-4.74c0-.33.27-.59.6-.59h5c1.29,0,2.33,1.05,2.33,2.34v3c0,.33-.26.59-.59.59s-.59-.26-.59-.59v-3.02Z"/>
    <path class="cls-1" d="M32.31,228.23c-1.76,0-3.01-1.31-3.01-2.92s1.25-2.92,3.01-2.92h.69c1.11,0,1.85.78,1.85,1.75s-.74,1.75-1.85,1.75h-1.11c-.32,0-.58-.26-.58-.58s.26-.58.58-.58h1.11c.4,0,.66-.26.66-.58s-.27-.58-.66-.58h-.69c-1.06,0-1.82.79-1.82,1.75s.76,1.75,1.82,1.75h1.69c.32,0,.58.26.58.58s-.26.58-.58.58h-1.69Z"/>
    <path class="cls-1" d="M38.59,228.23c-1.76,0-3.01-1.31-3.01-2.92s1.25-2.92,3.01-2.92h.69c1.11,0,1.85.78,1.85,1.75s-.74,1.75-1.85,1.75h-1.11c-.32,0-.58-.26-.58-.58s.26-.58.58-.58h1.11c.4,0,.66-.26.66-.58s-.27-.58-.66-.58h-.69c-1.06,0-1.82.79-1.82,1.75s.76,1.75,1.82,1.75h1.69c.32,0,.58.26.58.58s-.26.58-.58.58h-1.69Z"/>
  </g>
</svg>