<?xml version="1.0" encoding="UTF-8"?>
<svg id="Laag_1" data-name="Laag 1" xmlns="http://www.w3.org/2000/svg" viewBox="0 0 164.41 249.45">
  <defs>
    <style>
      .cls-1 {
        stroke-miterlimit: 10;
        stroke-width: .46px;
      }

      .cls-1, .cls-2 {
        stroke: #fff;
      }

      .cls-1, .cls-3 {
        fill: #fff;
      }

      .cls-2 {
        fill: none;
        stroke-linecap: round;
        stroke-linejoin: round;
        stroke-width: 1.71px;
      }

      .cls-4 {
        fill: #8082b8;
      }

      .cls-4, .cls-5, .cls-6, .cls-7, .cls-3 {
        stroke-width: 0px;
      }

      .cls-5 {
        fill: #2f2f2f;
      }

      .cls-6 {
        fill: #1d1d1b;
      }

      .cls-7 {
        fill: #de2b65;
      }
    </style>
  </defs>
  <rect class="cls-5" x="-.5" y="0" width="164.41" height="249.45"/>
  <g>
    <path class="cls-4" d="M141.73,206.68c-4.35,0-7.89-3.7-7.89-8.26s3.54-8.25,7.89-8.25,7.89,3.7,7.89,8.25-3.54,8.26-7.89,8.26Z"/>
    <path class="cls-6" d="M141.73,191.17c3.8,0,6.89,3.25,6.89,7.26s-3.09,7.26-6.89,7.26-6.89-3.25-6.89-7.26,3.09-7.26,6.89-7.26M141.73,189.17c-4.91,0-8.89,4.14-8.89,9.26s3.98,9.26,8.89,9.26,8.89-4.14,8.89-9.26-3.98-9.26-8.89-9.26h0Z"/>
  </g>
  <g>
    <ellipse class="cls-7" cx="141.73" cy="226.17" rx="7.89" ry="8.26"/>
    <path class="cls-6" d="M141.73,218.92c3.8,0,6.89,3.25,6.89,7.26s-3.09,7.26-6.89,7.26-6.89-3.25-6.89-7.26,3.09-7.26,6.89-7.26M141.73,216.92c-4.91,0-8.89,4.14-8.89,9.26s3.98,9.26,8.89,9.26,8.89-4.14,8.89-9.26-3.98-9.26-8.89-9.26h0Z"/>
  </g>
  <g>
    <path class="cls-3" d="M30.85,28.54c.35-.52.7-.93,1.04-1.23.34-.3.67-.53.99-.7.32-.17.61-.27.89-.32.28-.05.52-.08.74-.08.58,0,1.06.08,1.42.24.37.16.67.38.9.66.77-.42,1.66-.6,2.68-.55.92.05,1.75.27,2.49.65.74.38,1.38.89,1.91,1.52.53.63.95,1.36,1.26,2.18s.49,1.68.54,2.6c.05.88-.06,1.7-.32,2.46-.27.76-.68,1.41-1.22,1.96-.55.55-1.24.99-2.06,1.31-.83.32-1.76.5-2.81.51-.63.02-1.28-.07-1.93-.27.02.53.04,1.05.08,1.56.03.51.08.98.12,1.4.05.43.11.8.17,1.12.07.33.14.59.22.79-.92-.02-1.65-.1-2.21-.24-.56-.14-.99-.38-1.3-.71s-.52-.78-.62-1.34c-.11-.56-.16-1.26-.16-2.11,0-1.75,0-3.25-.01-4.51,0-1.26-.04-2.31-.1-3.16-.06-.85-.15-1.53-.26-2.04-.12-.51-.28-.89-.49-1.15s-.47-.42-.79-.49c-.32-.07-.7-.09-1.15-.07ZM37.41,31.99c-.02.18-.03.45-.04.79,0,.34-.02.73-.04,1.17-.02.44-.02.93-.02,1.45v1.61c.52,0,1.02-.07,1.51-.22.49-.15.92-.38,1.3-.68.38-.3.67-.67.89-1.12.22-.45.32-.98.3-1.57-.03-.57-.12-1.1-.25-1.6s-.33-.95-.6-1.34c-.27-.39-.6-.72-.99-.98-.39-.26-.86-.41-1.41-.46-.1-.02-.2-.03-.3-.03h-.3c.03.43.04.9.03,1.4s-.04,1.02-.07,1.57Z"/>
    <path class="cls-3" d="M56.48,42.69c-.7.7-1.43,1.15-2.2,1.36-.77.21-1.48.3-2.15.26-.65-.03-1.26-.2-1.83-.5-.57-.3-1.05-.7-1.46-1.19-.41-.49-.72-1.06-.94-1.71-.22-.65-.31-1.34-.27-2.08.03-.65.16-1.29.38-1.91.22-.62.54-1.18.97-1.67s.99-.88,1.66-1.18c.68-.29,1.49-.44,2.44-.44.53,0,1.04.06,1.51.19s.93.35,1.36.66c-.05-.7-.35-1.23-.91-1.59s-1.22-.6-2-.74-1.58-.17-2.41-.11c-.83.06-1.54.16-2.12.31.33-.55.73-1.03,1.19-1.45.46-.42.95-.76,1.47-1.04s1.06-.48,1.61-.61c.55-.13,1.09-.18,1.62-.15.95.05,1.76.29,2.42.71.67.43,1.21.98,1.64,1.65.42.67.74,1.45.94,2.32s.3,1.8.3,2.76c0,.8-.05,1.61-.16,2.42-.11.82-.28,1.6-.5,2.34-.22.74-.5,1.43-.83,2.06-.33.63-.7,1.18-1.11,1.62-.08-.32-.18-.69-.28-1.11s-.22-.83-.35-1.21ZM51.35,38.49c.02.25.06.5.14.74.08.24.19.46.34.66.15.2.35.37.59.51.24.14.54.25.91.31.43.08.82.07,1.15-.04.33-.11.61-.27.84-.49.22-.22.39-.47.51-.76.12-.29.18-.59.18-.89,0-.4-.05-.77-.15-1.11-.1-.34-.25-.64-.45-.9-.2-.26-.46-.46-.77-.61-.32-.15-.69-.22-1.12-.2-.77.03-1.34.3-1.71.81-.38.51-.52,1.16-.44,1.96Z"/>
    <path class="cls-3" d="M61.05,31.41c.28-.42.57-.75.85-1s.55-.44.81-.58c.26-.13.5-.22.73-.26.22-.04.43-.06.61-.06.65,0,1.18.12,1.59.35.41.23.73.56.95.98.23.42.38.92.45,1.5.08.58.12,1.22.14,1.9.02.42.01,1.06-.01,1.93s-.02,1.92.01,3.17c.02.58.12.98.3,1.17.18.2.58.3,1.17.3.37,0,.71-.01,1.04-.04.32-.02.67-.06,1.04-.11,0-1.13-.01-2.27-.04-3.41-.03-1.14-.06-2.21-.1-3.21s-.09-1.89-.15-2.68c-.06-.78-.12-1.38-.19-1.8.97-.07,1.77.13,2.41.6s1.15,1.12,1.53,1.96c.38.84.62,1.81.75,2.91.12,1.1.15,2.25.06,3.44-.08,1.19-.25,2.38-.51,3.56-.26,1.18-.58,2.27-.98,3.26-.39.99-.84,1.84-1.34,2.55-.5.71-1.03,1.18-1.6,1.41.05-.47.09-1.25.11-2.34.02-1.09.04-2.34.04-3.74-.6.4-1.25.7-1.95.9s-1.4.3-2.1.3-1.27-.09-1.7-.26c-.43-.18-.77-.43-1.01-.75-.24-.33-.4-.73-.49-1.2-.08-.48-.12-1.01-.12-1.61,0-1.43,0-2.66-.01-3.68,0-1.02-.04-1.87-.09-2.55-.05-.68-.12-1.23-.21-1.62s-.22-.7-.39-.89c-.17-.19-.38-.31-.65-.36-.27-.05-.58-.07-.95-.05Z"/>
    <path class="cls-3" d="M77.78,26.51c.62-.05,1.17.01,1.66.19.49.18.92.43,1.27.78.36.34.66.75.91,1.24s.45,1.02.6,1.62c.27-.07.54-.11.81-.12.27-.02.55-.02.84,0,.92.05,1.76.28,2.54.69.77.41,1.45.95,2.01,1.61.57.67,1,1.43,1.31,2.29.31.86.45,1.77.44,2.74-.02.93-.16,1.8-.44,2.59s-.67,1.48-1.19,2.06-1.15,1.05-1.9,1.39c-.75.34-1.61.52-2.57.54-.77.03-1.49-.07-2.18-.3s-1.25-.6-1.7-1.1c-.65,1.05-1.35,1.74-2.1,2.08.05-.43.09-1.12.11-2.05.03-.93.04-1.99.05-3.17,0-1.18,0-2.43-.01-3.75-.02-1.32-.05-2.58-.09-3.79-.04-1.21-.1-2.3-.16-3.29-.07-.98-.14-1.73-.23-2.23ZM82.55,32.89c.02.7,0,1.43-.06,2.18s-.16,1.49-.31,2.21-.33,1.44-.55,2.14c-.22.7-.46,1.35-.73,1.95.7.2,1.44.2,2.23,0,1.77-.43,2.62-1.74,2.58-3.92-.02-.53-.1-1.06-.25-1.58-.15-.52-.36-.98-.64-1.39s-.6-.75-.99-1.04c-.38-.28-.81-.47-1.28-.55Z"/>
    <path class="cls-3" d="M100.73,42.69c-.7.7-1.43,1.15-2.2,1.36-.77.21-1.48.3-2.15.26-.65-.03-1.26-.2-1.83-.5-.57-.3-1.05-.7-1.46-1.19s-.72-1.06-.94-1.71c-.22-.65-.31-1.34-.27-2.08.03-.65.16-1.29.38-1.91.22-.62.54-1.18.98-1.67.43-.49.99-.88,1.66-1.18.67-.29,1.49-.44,2.44-.44.53,0,1.04.06,1.51.19.48.12.93.35,1.36.66-.05-.7-.35-1.23-.91-1.59-.56-.36-1.23-.6-2-.74-.78-.13-1.58-.17-2.41-.11-.83.06-1.54.16-2.12.31.33-.55.73-1.03,1.19-1.45s.95-.76,1.48-1.04c.52-.27,1.06-.48,1.61-.61.55-.13,1.09-.18,1.62-.15.95.05,1.76.29,2.43.71.67.43,1.21.98,1.64,1.65.43.67.74,1.45.94,2.32.2.88.3,1.8.3,2.76,0,.8-.05,1.61-.16,2.42-.11.82-.28,1.6-.5,2.34-.23.74-.5,1.43-.83,2.06-.32.63-.7,1.18-1.11,1.62-.08-.32-.18-.69-.28-1.11s-.22-.83-.35-1.21ZM95.6,38.49c.02.25.06.5.14.74.08.24.19.46.34.66.15.2.35.37.59.51.24.14.54.25.91.31.43.08.82.07,1.15-.04.33-.11.61-.27.84-.49.23-.22.4-.47.51-.76.12-.29.17-.59.17-.89,0-.4-.05-.77-.15-1.11-.1-.34-.25-.64-.45-.9-.2-.26-.46-.46-.77-.61-.32-.15-.69-.22-1.12-.2-.77.03-1.34.3-1.71.81-.38.51-.52,1.16-.44,1.96Z"/>
    <path class="cls-3" d="M117.73,40.16c-.05.7-.23,1.3-.54,1.8-.31.5-.69.91-1.15,1.24-.46.33-.98.56-1.58.71-.59.15-1.2.22-1.84.2-1.02-.02-1.92-.2-2.7-.56-.78-.36-1.45-.85-1.99-1.46-.54-.62-.96-1.35-1.25-2.19-.29-.84-.45-1.75-.46-2.74-.02-1.02.14-1.98.46-2.9.33-.92.78-1.72,1.38-2.42.59-.7,1.3-1.27,2.11-1.7.82-.43,1.71-.67,2.68-.72.58-.03,1.14,0,1.69.11.54.11,1.02.31,1.42.6s.73.67.98,1.15.36,1.07.36,1.79c-.5-.43-.96-.71-1.38-.83-.42-.12-.92-.13-1.5-.05-.52.07-.99.25-1.41.54-.43.29-.79.66-1.1,1.11-.31.45-.55.95-.71,1.51-.17.56-.26,1.13-.28,1.71-.03,1.17.18,2.09.65,2.77.47.68,1.15,1.14,2.05,1.38.77.18,1.51.19,2.23.01.72-.18,1.34-.53,1.88-1.06Z"/>
    <path class="cls-3" d="M119.85,26.51c.92-.07,1.69.1,2.33.49.63.39,1.14.94,1.51,1.65.38.71.64,1.54.79,2.49.15.95.2,1.95.15,3,.65-.37,1.26-.73,1.84-1.09.58-.36,1.14-.74,1.69-1.15.55-.41,1.1-.85,1.65-1.34s1.12-1.04,1.72-1.68c.72,1.63.77,3.12.15,4.48-.62,1.35-1.99,2.61-4.12,3.77.63,1.2,1.42,2.44,2.38,3.71.95,1.27,2.06,2.46,3.33,3.56-.77-.02-1.57-.15-2.41-.41s-1.67-.63-2.5-1.11c-.82-.48-1.62-1.07-2.38-1.77-.76-.7-1.44-1.52-2.04-2.45-.2.75-.43,1.46-.7,2.12s-.56,1.27-.89,1.81c-.32.54-.67,1-1.02,1.38s-.74.65-1.14.81c.05-.43.09-1.12.11-2.05.03-.93.04-1.99.05-3.17,0-1.18,0-2.43-.01-3.75-.02-1.32-.05-2.58-.09-3.79-.04-1.21-.1-2.3-.16-3.29-.07-.98-.14-1.73-.23-2.23Z"/>
  </g>
  <g>
    <g>
      <path class="cls-6" d="M86.93,125.53c-5.5,0-14.26-4.62-14.26-10.09v-39.82c0-5.56,4.53-10.09,10.09-10.09h18.78c5.56,0,10.09,4.53,10.09,10.09v39.82c0,6.54-.94,10.09-5.92,10.09h-18.78Z"/>
      <path class="cls-6" d="M101.54,66.38c5.09,0,9.24,4.14,9.24,9.24v39.82c0,6.99-1.23,9.24-5.06,9.24h-18.78c-5.61,0-13.41-4.65-13.41-9.24v-39.82c0-5.09,4.14-9.24,9.24-9.24h18.78M101.54,64.68h-18.78c-6.02,0-10.94,4.93-10.94,10.94v39.82c0,6.02,9.1,10.94,15.12,10.94h18.78c6.02,0,6.77-4.93,6.77-10.94v-39.82c0-6.02-4.93-10.94-10.94-10.94h0Z"/>
    </g>
    <g>
      <rect class="cls-4" x="76.69" y="69.65" width="30.91" height="51.75" rx="6.55" ry="6.55"/>
      <path class="cls-6" d="M101.05,68.95v1.41c3.22,0,5.84,2.62,5.84,5.84v38.65c0,3.22-2.62,5.84-5.84,5.84h-17.81c-3.22,0-5.84-2.62-5.84-5.84v-38.65c0-3.22,2.62-5.84,5.84-5.84h17.81v-1.41M101.05,68.95h-17.81c-3.99,0-7.26,3.27-7.26,7.26v38.65c0,3.99,3.27,7.26,7.26,7.26h17.81c3.99,0,7.26-3.27,7.26-7.26v-38.65c0-3.99-3.27-7.26-7.26-7.26h0Z"/>
    </g>
    <g>
      <path class="cls-3" d="M53.75,119.64c-.35,0-.69-.17-.9-.45-.13-.17-.32-.52-.2-.99l1.62-6.03c.16-.59.67-.85,1.12-.85.21,0,.53.06.8.34.22.22.51.34.83.34s.61-.12.83-.34l14.41-14.41c.45-.46.45-1.2,0-1.65l-15.11-15.11,2.76-2.76,15.46,15.46c.05.05.11.09.17.12l3.12,3.12-3.13,3.13c-.06.03-.11.07-.16.11l-14.76,14.76c-.22.22-.34.51-.34.83s.12.61.34.83c.29.29.4.71.3,1.11s-.41.7-.81.81l-6.04,1.62c-.1.03-.2.04-.3.04Z"/>
      <path class="cls-6" d="M59.9,78.67l14.97,14.97c.07.07.14.13.22.18l2.59,2.59-2.58,2.58c-.08.05-.16.12-.23.19l-14.76,14.76c-.72.72-.72,1.9,0,2.62.16.16.15.35.12.45-.03.1-.1.27-.33.33l-6.04,1.62s-.09.02-.13.02c-.14,0-.27-.07-.36-.19-.06-.08-.13-.22-.08-.4l1.62-6.03c.07-.25.29-.34.46-.34.12,0,.23.05.32.14.35.35.81.54,1.31.54s.96-.19,1.31-.54l14.41-14.41c.35-.35.54-.82.54-1.31s-.19-.96-.54-1.31l-14.63-14.63,1.8-1.8M59.9,76.94c-.12,0-.25.05-.34.14l-3.04,3.04c-.19.19-.19.5,0,.69l15.25,15.25c.19.19.19.5,0,.69l-14.41,14.41c-.1.1-.22.14-.34.14s-.25-.05-.34-.14c-.37-.37-.83-.54-1.29-.54-.78,0-1.54.5-1.77,1.36l-1.62,6.03c-.32,1.2.6,2.3,1.76,2.3.16,0,.32-.02.48-.06l6.04-1.62c1.36-.36,1.81-2.06.82-3.06h0c-.19-.19-.19-.5,0-.69l14.76-14.76.02.02,3.73-3.73.02-.02-.02-.02-3.73-3.73-.02.02-15.6-15.6c-.1-.1-.22-.14-.34-.14h0Z"/>
    </g>
    <line class="cls-2" x1="101.86" y1="70.3" x2="94.89" y2="82.38"/>
    <line class="cls-2" x1="105.36" y1="72.49" x2="100.9" y2="80.2"/>
  </g>
  <g>
    <path class="cls-1" d="M18.78,150.06c-.33,0-.61-.28-.61-.61v-5.85c0-.33.28-.61.61-.61h1.89c2.01,0,3.56,1.53,3.56,3.54s-1.55,3.54-3.56,3.54h-1.89ZM20.67,148.88c1.32,0,2.33-1.01,2.33-2.36s-1.01-2.36-2.33-2.36h-1.28v4.71h1.28Z"/>
    <path class="cls-1" d="M27.92,150.06c-1.78,0-3.03-1.32-3.03-2.95s1.26-2.95,3.03-2.95h.7c1.12,0,1.87.79,1.87,1.77s-.75,1.77-1.87,1.77h-1.12c-.32,0-.59-.27-.59-.59s.27-.59.59-.59h1.12c.4,0,.67-.27.67-.59s-.27-.59-.67-.59h-.7c-1.07,0-1.83.8-1.83,1.77s.77,1.77,1.83,1.77h1.7c.32,0,.59.27.59.59s-.27.59-.59.59h-1.7Z"/>
    <path class="cls-1" d="M31.78,150.06c-.32,0-.59-.26-.59-.58,0-.13.06-.3.18-.44l3.04-3.69h-2.52c-.32,0-.59-.27-.59-.59s.27-.59.59-.59h3.74c.32,0,.58.26.58.58,0,.14-.06.3-.18.44l-3.03,3.69h2.51c.32,0,.59.27.59.59s-.27.59-.59.59h-3.71Z"/>
    <path class="cls-1" d="M39.49,150.06c-1.78,0-3.04-1.32-3.04-2.95s1.26-2.95,3.04-2.95h.7c1.12,0,1.87.79,1.87,1.77s-.74,1.77-1.87,1.77h-1.12c-.32,0-.59-.27-.59-.59s.27-.59.59-.59h1.12c.4,0,.67-.27.67-.59s-.27-.59-.67-.59h-.7c-1.07,0-1.84.8-1.84,1.77s.77,1.77,1.84,1.77h1.7c.32,0,.59.27.59.59s-.27.59-.59.59h-1.7Z"/>
    <path class="cls-1" d="M46.62,147.22v2.32c0,.33-.27.6-.6.6s-.6-.27-.6-.6v-7.23c0-.33.27-.6.6-.6s.6.27.6.6v4.68l2.75-2.75c.23-.23.6-.23.83,0,.22.23.22.6,0,.83l-2.02,2.02,2.02,2.02c.23.23.22.6,0,.83-.23.23-.6.23-.83,0l-2.75-2.75Z"/>
    <path class="cls-1" d="M52.69,150.06c-1.08,0-1.82-.82-1.82-1.82s.74-1.82,1.82-1.82h1.12c.32,0,.59.27.59.59s-.27.59-.59.59h-1.12c-.37,0-.62.31-.62.64s.26.64.62.64h2.16v-2.49c0-.59-.41-1.04-1.02-1.04h-1.89c-.32,0-.59-.27-.59-.59s.27-.59.59-.59h1.89c1.25,0,2.22.99,2.22,2.21v3.08c0,.33-.21.6-.6.6h-2.76Z"/>
    <path class="cls-1" d="M58.81,150.06c-1.08,0-1.82-.82-1.82-1.82s.75-1.82,1.82-1.82h1.12c.32,0,.59.27.59.59s-.27.59-.59.59h-1.12c-.37,0-.62.31-.62.64s.26.64.62.64h2.16v-2.49c0-.59-.41-1.04-1.02-1.04h-1.89c-.32,0-.59-.27-.59-.59s.27-.59.59-.59h1.89c1.24,0,2.22.99,2.22,2.21v3.08c0,.33-.21.6-.6.6h-2.76Z"/>
    <path class="cls-1" d="M67.89,146.47c0,.33-.27.6-.6.6s-.6-.27-.6-.59v-.08c0-.59-.43-1.06-1.06-1.06h-1.06v4.2c0,.33-.27.6-.6.6s-.6-.27-.6-.6v-4.78c0-.33.27-.6.6-.6h1.66c1.27,0,2.26,1.01,2.26,2.23v.07Z"/>
    <path class="cls-1" d="M71.54,150.06c-1.14,0-2.08-.93-2.08-2.08v-2.63h-.7c-.32,0-.59-.27-.59-.59s.27-.59.59-.59h.7v-1.18c0-.33.27-.6.6-.6s.6.27.6.6v1.18h1.55c.32,0,.59.27.59.59s-.27.59-.59.59h-1.55v2.65c0,.5.38.89.89.89h.66c.32,0,.59.27.59.59s-.27.59-.59.59h-.67Z"/>
    <path class="cls-1" d="M76.67,150.06c-.33,0-.6-.27-.6-.6v-7.14c0-.33.27-.6.6-.6s.6.27.6.6v1.85h1.37c1.78,0,3.04,1.32,3.04,2.95s-1.26,2.95-3.04,2.95h-1.97ZM78.64,148.88c1.07,0,1.83-.8,1.83-1.77s-.77-1.77-1.83-1.77h-1.37v3.54h1.37Z"/>
    <path class="cls-1" d="M87.1,146.47c0,.33-.27.6-.6.6s-.6-.27-.6-.59v-.08c0-.59-.43-1.06-1.06-1.06h-1.06v4.2c0,.33-.27.6-.6.6s-.6-.27-.6-.6v-4.78c0-.33.27-.6.6-.6h1.66c1.27,0,2.26,1.01,2.26,2.23v.07Z"/>
    <path class="cls-1" d="M90.78,150.06c-1.78,0-3.04-1.32-3.04-2.95s1.26-2.95,3.04-2.95h.7c1.12,0,1.87.79,1.87,1.77s-.75,1.77-1.87,1.77h-1.12c-.32,0-.59-.27-.59-.59s.27-.59.59-.59h1.12c.4,0,.67-.27.67-.59s-.27-.59-.67-.59h-.7c-1.07,0-1.84.8-1.84,1.77s.77,1.77,1.84,1.77h1.7c.32,0,.59.27.59.59s-.27.59-.59.59h-1.7Z"/>
    <path class="cls-1" d="M98.14,146.5c0-.63-.52-1.16-1.16-1.16h-1.51v4.2c0,.33-.27.6-.6.6s-.6-.27-.6-.6v-4.78c0-.33.27-.6.6-.6h2.11c1.3,0,2.36,1.06,2.36,2.36v3.02c0,.33-.27.6-.6.6s-.6-.27-.6-.6v-3.05Z"/>
    <path class="cls-1" d="M101.64,152.42c-.32,0-.59-.27-.59-.59s.27-.59.59-.59h2.11c.5,0,.9-.4.9-.9v-.28h-1.37c-1.78,0-3.04-1.32-3.04-2.95s1.26-2.95,3.04-2.95h1.97c.33,0,.6.27.6.6v5.57c0,1.15-.93,2.08-2.08,2.08h-2.13ZM104.66,145.35h-1.37c-1.07,0-1.84.8-1.84,1.77s.77,1.77,1.84,1.77h1.37v-3.54Z"/>
    <path class="cls-1" d="M109.94,150.06c-1.15,0-2.08-.93-2.08-2.08v-2.63h-.7c-.32,0-.59-.27-.59-.59s.27-.59.59-.59h.7v-1.18c0-.33.27-.6.6-.6s.6.27.6.6v1.18h1.55c.32,0,.59.27.59.59s-.27.59-.59.59h-1.55v2.65c0,.5.38.89.89.89h.66c.32,0,.59.27.59.59s-.27.59-.59.59h-.67Z"/>
    <path class="cls-1" d="M117.22,150.06c-1.78,0-3.04-1.32-3.04-2.95s1.26-2.95,3.04-2.95h1.37v-1.85c0-.33.27-.6.6-.6s.6.27.6.6v7.14c0,.33-.27.6-.6.6h-1.97ZM118.59,145.35h-1.37c-1.07,0-1.84.8-1.84,1.77s.77,1.77,1.84,1.77h1.37v-3.54Z"/>
    <path class="cls-1" d="M123.74,150.06c-1.78,0-3.04-1.32-3.04-2.95s1.26-2.95,3.04-2.95h.7c1.12,0,1.87.79,1.87,1.77s-.75,1.77-1.87,1.77h-1.12c-.32,0-.59-.27-.59-.59s.27-.59.59-.59h1.12c.4,0,.67-.27.67-.59s-.27-.59-.67-.59h-.7c-1.07,0-1.84.8-1.84,1.77s.77,1.77,1.84,1.77h1.7c.32,0,.59.27.59.59s-.27.59-.59.59h-1.7Z"/>
    <path class="cls-1" d="M19.72,165.82c-1.08,0-1.82-.82-1.82-1.82s.75-1.82,1.82-1.82h1.12c.32,0,.59.27.59.59s-.27.59-.59.59h-1.12c-.37,0-.62.31-.62.64s.26.64.62.64h2.16v-2.49c0-.59-.41-1.04-1.02-1.04h-1.89c-.32,0-.59-.27-.59-.59s.27-.59.59-.59h1.89c1.25,0,2.22.99,2.22,2.21v3.08c0,.33-.21.6-.6.6h-2.76Z"/>
    <path class="cls-1" d="M27.02,165.82c-1.78,0-3.03-1.32-3.03-2.95s1.26-2.95,3.03-2.95h1.22c.32,0,.59.27.59.59s-.27.59-.59.59h-1.22c-1.07,0-1.83.8-1.83,1.77s.77,1.77,1.83,1.77h1.22c.32,0,.59.27.59.59s-.27.59-.59.59h-1.22Z"/>
    <path class="cls-1" d="M32.61,165.82c-1.15,0-2.08-.93-2.08-2.08v-2.63h-.7c-.32,0-.59-.27-.59-.59s.27-.59.59-.59h.7v-1.18c0-.33.27-.6.6-.6s.6.27.6.6v1.18h1.55c.32,0,.59.27.59.59s-.27.59-.59.59h-1.55v2.65c0,.5.38.89.89.89h.66c.32,0,.59.27.59.59s-.27.59-.59.59h-.67Z"/>
    <path class="cls-1" d="M35.29,158.95c-.41,0-.75-.32-.75-.73s.33-.73.75-.73.74.32.74.73-.33.73-.74.73ZM34.69,160.44c0-.33.27-.6.6-.6s.6.27.6.6v4.87c0,.33-.27.6-.6.6s-.6-.27-.6-.6v-4.87Z"/>
    <path class="cls-1" d="M39.84,165.82c-1.78,0-3.03-1.32-3.03-2.95s1.26-2.95,3.03-2.95h.7c1.12,0,1.87.79,1.87,1.77s-.75,1.77-1.87,1.77h-1.12c-.32,0-.59-.27-.59-.59s.27-.59.59-.59h1.12c.4,0,.67-.27.67-.59s-.27-.59-.67-.59h-.7c-1.07,0-1.83.8-1.83,1.77s.77,1.77,1.83,1.77h1.7c.32,0,.59.27.59.59s-.27.59-.59.59h-1.7Z"/>
    <path class="cls-1" d="M44.53,162.99v2.32c0,.33-.27.6-.6.6s-.6-.27-.6-.6v-7.23c0-.33.27-.6.6-.6s.6.27.6.6v4.68l2.75-2.75c.23-.23.6-.23.83,0,.22.23.22.6,0,.83l-2.02,2.02,2.02,2.02c.23.23.22.6,0,.83-.23.23-.6.23-.83,0l-2.75-2.75Z"/>
    <path class="cls-1" d="M50.6,165.82c-1.08,0-1.82-.82-1.82-1.82s.74-1.82,1.82-1.82h1.12c.32,0,.59.27.59.59s-.27.59-.59.59h-1.12c-.37,0-.62.31-.62.64s.26.64.62.64h2.16v-2.49c0-.59-.41-1.04-1.02-1.04h-1.89c-.32,0-.59-.27-.59-.59s.27-.59.59-.59h1.89c1.25,0,2.22.99,2.22,2.21v3.08c0,.33-.21.6-.6.6h-2.76Z"/>
    <path class="cls-1" d="M56.72,165.82c-1.08,0-1.82-.82-1.82-1.82s.74-1.82,1.82-1.82h1.12c.32,0,.59.27.59.59s-.27.59-.59.59h-1.12c-.37,0-.62.31-.62.64s.26.64.62.64h2.16v-2.49c0-.59-.41-1.04-1.02-1.04h-1.89c-.32,0-.59-.27-.59-.59s.27-.59.59-.59h1.89c1.25,0,2.22.99,2.22,2.21v3.08c0,.33-.21.6-.6.6h-2.76Z"/>
    <path class="cls-1" d="M65.8,162.23c0,.33-.27.6-.6.6s-.6-.27-.6-.59v-.08c0-.59-.43-1.06-1.06-1.06h-1.06v4.2c0,.33-.27.6-.6.6s-.6-.27-.6-.6v-4.78c0-.33.27-.6.6-.6h1.66c1.27,0,2.26,1.01,2.26,2.23v.07Z"/>
    <path class="cls-1" d="M69.45,165.82c-1.15,0-2.08-.93-2.08-2.08v-2.63h-.7c-.32,0-.59-.27-.59-.59s.27-.59.59-.59h.7v-1.18c0-.33.27-.6.6-.6s.6.27.6.6v1.18h1.55c.32,0,.59.27.59.59s-.27.59-.59.59h-1.55v2.65c0,.5.38.89.89.89h.66c.32,0,.59.27.59.59s-.27.59-.59.59h-.67Z"/>
    <path class="cls-1" d="M76.86,165.82c-1.15,0-2.08-.93-2.08-2.08v-2.63h-.7c-.32,0-.59-.27-.59-.59s.27-.59.59-.59h.7v-1.18c0-.33.27-.6.6-.6s.6.27.6.6v1.18h1.55c.32,0,.59.27.59.59s-.27.59-.59.59h-1.55v2.65c0,.5.38.89.89.89h.66c.32,0,.59.27.59.59s-.27.59-.59.59h-.67Z"/>
    <path class="cls-1" d="M81.52,165.82c-1.78,0-3.03-1.32-3.03-2.95s1.26-2.95,3.03-2.95h.7c1.12,0,1.87.79,1.87,1.77s-.75,1.77-1.87,1.77h-1.12c-.32,0-.59-.27-.59-.59s.27-.59.59-.59h1.12c.4,0,.67-.27.67-.59s-.27-.59-.67-.59h-.7c-1.07,0-1.83.8-1.83,1.77s.77,1.77,1.83,1.77h1.7c.32,0,.59.27.59.59s-.27.59-.59.59h-1.7Z"/>
    <path class="cls-1" d="M89.51,162.23c0,.33-.27.6-.6.6s-.6-.27-.6-.59v-.08c0-.59-.43-1.06-1.06-1.06h-1.06v4.2c0,.33-.27.6-.6.6s-.6-.27-.6-.6v-4.78c0-.33.27-.6.6-.6h1.66c1.27,0,2.26,1.01,2.26,2.23v.07Z"/>
    <path class="cls-1" d="M94.34,160.44c0-.33.27-.6.6-.6s.6.27.6.6v2.98c0,1.4-1.15,2.55-2.55,2.55s-2.55-1.15-2.55-2.55v-2.98c0-.33.27-.6.6-.6s.6.27.6.6v3.01c0,.73.61,1.35,1.35,1.35s1.35-.61,1.35-1.35v-3.01Z"/>
    <path class="cls-1" d="M97.85,168.18c-.32,0-.59-.27-.59-.59s.27-.59.59-.59h2.11c.5,0,.9-.4.9-.9v-.28h-1.37c-1.78,0-3.04-1.32-3.04-2.95s1.26-2.95,3.04-2.95h1.97c.33,0,.6.27.6.6v5.57c0,1.15-.93,2.08-2.08,2.08h-2.13ZM100.86,161.11h-1.37c-1.07,0-1.84.8-1.84,1.77s.77,1.77,1.84,1.77h1.37v-3.54Z"/>
    <path class="cls-1" d="M109.58,162.26c0-.63-.52-1.16-1.16-1.16h-1.51v4.2c0,.33-.27.6-.6.6s-.6-.27-.6-.6v-4.78c0-.33.27-.6.6-.6h2.11c1.3,0,2.36,1.06,2.36,2.36v3.02c0,.33-.27.6-.6.6s-.6-.27-.6-.6v-3.05Z"/>
    <path class="cls-1" d="M113.55,165.82c-1.08,0-1.82-.82-1.82-1.82s.75-1.82,1.82-1.82h1.12c.32,0,.59.27.59.59s-.27.59-.59.59h-1.12c-.37,0-.62.31-.62.64s.26.64.62.64h2.16v-2.49c0-.59-.41-1.04-1.02-1.04h-1.89c-.32,0-.59-.27-.59-.59s.27-.59.59-.59h1.89c1.25,0,2.22.99,2.22,2.21v3.08c0,.33-.21.6-.6.6h-2.76Z"/>
    <path class="cls-1" d="M119.67,165.82c-1.08,0-1.82-.82-1.82-1.82s.75-1.82,1.82-1.82h1.12c.32,0,.59.27.59.59s-.27.59-.59.59h-1.12c-.37,0-.62.31-.62.64s.26.64.62.64h2.16v-2.49c0-.59-.41-1.04-1.02-1.04h-1.89c-.32,0-.59-.27-.59-.59s.27-.59.59-.59h1.89c1.25,0,2.22.99,2.22,2.21v3.08c0,.33-.21.6-.6.6h-2.76Z"/>
    <path class="cls-1" d="M128.74,162.23c0,.33-.27.6-.6.6s-.6-.27-.6-.59v-.08c0-.59-.43-1.06-1.06-1.06h-1.06v4.2c0,.33-.27.6-.6.6s-.6-.27-.6-.6v-4.78c0-.33.27-.6.6-.6h1.66c1.27,0,2.26,1.01,2.26,2.23v.07Z"/>
    <path class="cls-1" d="M134.87,165.82c-1.78,0-3.04-1.32-3.04-2.95s1.26-2.95,3.04-2.95h1.37v-1.85c0-.33.27-.6.6-.6s.6.27.6.6v7.14c0,.33-.27.6-.6.6h-1.97ZM136.24,161.11h-1.37c-1.07,0-1.84.8-1.84,1.77s.77,1.77,1.84,1.77h1.37v-3.54Z"/>
    <path class="cls-1" d="M141.39,165.82c-1.78,0-3.04-1.32-3.04-2.95s1.26-2.95,3.04-2.95h.7c1.12,0,1.87.79,1.87,1.77s-.75,1.77-1.87,1.77h-1.12c-.32,0-.59-.27-.59-.59s.27-.59.59-.59h1.12c.4,0,.67-.27.67-.59s-.27-.59-.67-.59h-.7c-1.07,0-1.84.8-1.84,1.77s.77,1.77,1.84,1.77h1.7c.32,0,.59.27.59.59s-.27.59-.59.59h-1.7Z"/>
    <path class="cls-1" d="M19.36,181.58v1.85c0,.33-.27.6-.6.6s-.6-.27-.6-.6v-7.14c0-.33.27-.6.6-.6h1.97c1.78,0,3.04,1.32,3.04,2.95s-1.26,2.95-3.04,2.95h-1.37ZM20.73,180.4c1.07,0,1.83-.8,1.83-1.77s-.77-1.77-1.83-1.77h-1.37v3.54h1.37Z"/>
    <path class="cls-1" d="M27.54,181.58c-1.78,0-3.03-1.32-3.03-2.95s1.26-2.95,3.03-2.95h.7c1.12,0,1.87.79,1.87,1.77s-.75,1.77-1.87,1.77h-1.12c-.32,0-.59-.27-.59-.59s.27-.59.59-.59h1.12c.4,0,.67-.27.67-.59s-.27-.59-.67-.59h-.7c-1.07,0-1.83.8-1.83,1.77s.77,1.77,1.83,1.77h1.7c.32,0,.59.27.59.59s-.27.59-.59.59h-1.7Z"/>
    <path class="cls-1" d="M35.54,177.99c0,.33-.27.6-.6.6s-.6-.27-.6-.59v-.08c0-.59-.43-1.06-1.06-1.06h-1.06v4.2c0,.33-.27.6-.6.6s-.6-.27-.6-.6v-4.78c0-.33.27-.6.6-.6h1.66c1.27,0,2.26,1.01,2.26,2.23v.07Z"/>
    <path class="cls-1" d="M36.94,181.58c-.32,0-.59-.27-.59-.59s.27-.59.59-.59h2.49c.4,0,.67-.27.67-.59s-.27-.59-.67-.59h-1.38c-1.12,0-1.87-.79-1.87-1.77s.74-1.77,1.87-1.77h2.49c.32,0,.59.27.59.59s-.27.59-.59.59h-2.49c-.4,0-.67.27-.67.59s.27.59.67.59h1.38c1.12,0,1.87.79,1.87,1.77s-.75,1.77-1.87,1.77h-2.49Z"/>
    <path class="cls-1" d="M45.05,181.73c-1.84,0-3.13-1.38-3.13-3.09s1.29-3.09,3.13-3.09,3.12,1.38,3.12,3.09-1.3,3.09-3.12,3.09ZM45.05,176.71c-1.11,0-1.92.87-1.92,1.92s.81,1.92,1.92,1.92,1.92-.87,1.92-1.92-.81-1.92-1.92-1.92Z"/>
    <path class="cls-1" d="M52.04,181.73c-1.83,0-3.12-1.38-3.12-3.09s1.29-3.09,3.12-3.09,3.12,1.38,3.12,3.09-1.3,3.09-3.12,3.09ZM52.04,176.71c-1.11,0-1.92.87-1.92,1.92s.81,1.92,1.92,1.92,1.92-.87,1.92-1.92-.81-1.92-1.92-1.92Z"/>
    <path class="cls-1" d="M59.94,178.02c0-.63-.52-1.16-1.16-1.16h-1.51v4.2c0,.33-.27.6-.6.6s-.6-.27-.6-.6v-4.78c0-.33.27-.6.6-.6h2.11c1.3,0,2.36,1.06,2.36,2.36v3.02c0,.33-.27.6-.6.6s-.6-.27-.6-.6v-3.05Z"/>
    <path class="cls-1" d="M67.54,181.58c-1.78,0-3.04-1.32-3.04-2.95s1.26-2.95,3.04-2.95h1.37v-1.85c0-.33.27-.6.6-.6s.6.27.6.6v7.14c0,.33-.27.6-.6.6h-1.97ZM68.91,176.87h-1.37c-1.07,0-1.83.8-1.83,1.77s.77,1.77,1.83,1.77h1.37v-3.54Z"/>
    <path class="cls-1" d="M71.92,174.71c-.41,0-.75-.32-.75-.73s.33-.73.75-.73.74.32.74.73-.33.73-.74.73ZM71.32,176.2c0-.33.27-.6.6-.6s.6.27.6.6v4.87c0,.33-.27.6-.6.6s-.6-.27-.6-.6v-4.87Z"/>
    <path class="cls-1" d="M76.47,181.58c-1.78,0-3.03-1.32-3.03-2.95s1.26-2.95,3.03-2.95h.7c1.12,0,1.87.79,1.87,1.77s-.75,1.77-1.87,1.77h-1.12c-.32,0-.59-.27-.59-.59s.27-.59.59-.59h1.12c.4,0,.67-.27.67-.59s-.27-.59-.67-.59h-.7c-1.07,0-1.83.8-1.83,1.77s.77,1.77,1.83,1.77h1.7c.32,0,.59.27.59.59s-.27.59-.59.59h-1.7Z"/>
    <path class="cls-1" d="M86.27,178.02c0-.63-.52-1.16-1.16-1.16h-1.51v4.2c0,.33-.27.6-.6.6s-.6-.27-.6-.6v-7.23c0-.33.27-.6.6-.6s.6.27.6.6v1.85h1.51c1.3,0,2.36,1.06,2.36,2.36v3.02c0,.33-.27.6-.6.6s-.6-.27-.6-.6v-3.05Z"/>
    <path class="cls-1" d="M91.42,181.58c-1.78,0-3.04-1.32-3.04-2.95s1.26-2.95,3.04-2.95h.7c1.12,0,1.87.79,1.87,1.77s-.75,1.77-1.87,1.77h-1.12c-.32,0-.59-.27-.59-.59s.27-.59.59-.59h1.12c.4,0,.67-.27.67-.59s-.27-.59-.67-.59h-.7c-1.07,0-1.84.8-1.84,1.77s.77,1.77,1.84,1.77h1.7c.32,0,.59.27.59.59s-.27.59-.59.59h-1.7Z"/>
    <path class="cls-1" d="M101.71,178.02c0-.63-.52-1.16-1.16-1.16h-1.06v4.2c0,.33-.27.6-.6.6s-.6-.27-.6-.6v-4.2h-2.19v4.2c0,.33-.27.6-.6.6s-.6-.27-.6-.6v-4.78c0-.33.27-.6.6-.6h5.05c1.3,0,2.36,1.06,2.36,2.36v3.02c0,.33-.27.6-.6.6s-.6-.27-.6-.6v-3.05Z"/>
    <path class="cls-1" d="M110.43,178.02c0-.63-.52-1.16-1.16-1.16h-1.51v4.2c0,.33-.27.6-.6.6s-.6-.27-.6-.6v-7.23c0-.33.27-.6.6-.6s.6.27.6.6v1.85h1.51c1.3,0,2.36,1.06,2.36,2.36v3.02c0,.33-.27.6-.6.6s-.6-.27-.6-.6v-3.05Z"/>
    <path class="cls-1" d="M115.58,181.58c-1.78,0-3.04-1.32-3.04-2.95s1.26-2.95,3.04-2.95h.7c1.12,0,1.87.79,1.87,1.77s-.75,1.77-1.87,1.77h-1.12c-.32,0-.59-.27-.59-.59s.27-.59.59-.59h1.12c.4,0,.67-.27.67-.59s-.27-.59-.67-.59h-.7c-1.07,0-1.84.8-1.84,1.77s.77,1.77,1.84,1.77h1.7c.32,0,.59.27.59.59s-.27.59-.59.59h-1.7Z"/>
    <path class="cls-1" d="M121.92,181.58c-1.78,0-3.04-1.32-3.04-2.95s1.26-2.95,3.04-2.95h.7c1.12,0,1.87.79,1.87,1.77s-.75,1.77-1.87,1.77h-1.12c-.32,0-.59-.27-.59-.59s.27-.59.59-.59h1.12c.4,0,.67-.27.67-.59s-.27-.59-.67-.59h-.7c-1.07,0-1.84.8-1.84,1.77s.77,1.77,1.84,1.77h1.7c.32,0,.59.27.59.59s-.27.59-.59.59h-1.7Z"/>
    <path class="cls-1" d="M132.84,181.58c-1.15,0-2.08-.93-2.08-2.08v-2.63h-3.35v4.2c0,.33-.27.6-.6.6s-.6-.27-.6-.6v-4.2h-.7c-.32,0-.59-.27-.59-.59s.27-.59.59-.59h.7v-.4c0-1.1.81-1.96,2.01-1.96h1.17c.32,0,.59.27.59.59s-.27.59-.59.59h-1.17c-.49,0-.81.32-.81.77v.41h3.35v-1.18c0-.33.27-.6.6-.6s.6.27.6.6v1.18h1.53c.32,0,.59.27.59.59s-.27.59-.59.59h-1.53v2.65c0,.5.38.89.89.89h.65c.32,0,.59.27.59.59s-.27.59-.59.59h-.66Z"/>
    <path class="cls-1" d="M21,197.49c-1.84,0-3.12-1.38-3.12-3.09s1.29-3.09,3.12-3.09,3.12,1.38,3.12,3.09-1.3,3.09-3.12,3.09ZM21,192.47c-1.11,0-1.92.87-1.92,1.92s.81,1.92,1.92,1.92,1.92-.87,1.92-1.92-.81-1.92-1.92-1.92Z"/>
    <path class="cls-1" d="M26.24,197.34v1.85c0,.33-.27.6-.6.6s-.6-.27-.6-.6v-7.14c0-.33.27-.6.6-.6h1.97c1.78,0,3.04,1.32,3.04,2.95s-1.26,2.95-3.04,2.95h-1.37ZM27.6,196.16c1.07,0,1.83-.8,1.83-1.77s-.77-1.77-1.83-1.77h-1.37v3.54h1.37Z"/>
    <path class="cls-1" d="M32.77,199.7c-.32,0-.59-.27-.59-.59s.27-.59.59-.59h2.11c.5,0,.9-.4.9-.9v-.28h-1.37c-1.78,0-3.03-1.32-3.03-2.95s1.26-2.95,3.03-2.95h1.97c.33,0,.6.27.6.6v5.57c0,1.15-.93,2.08-2.08,2.08h-2.13ZM35.78,192.63h-1.37c-1.07,0-1.83.8-1.83,1.77s.77,1.77,1.83,1.77h1.37v-3.54Z"/>
    <path class="cls-1" d="M40.93,197.34c-1.78,0-3.03-1.32-3.03-2.95s1.26-2.95,3.03-2.95h.7c1.12,0,1.87.79,1.87,1.77s-.75,1.77-1.87,1.77h-1.12c-.32,0-.59-.27-.59-.59s.27-.59.59-.59h1.12c.4,0,.67-.27.67-.59s-.27-.59-.67-.59h-.7c-1.07,0-1.83.8-1.83,1.77s.77,1.77,1.83,1.77h1.7c.32,0,.59.27.59.59s-.27.59-.59.59h-1.7Z"/>
    <path class="cls-1" d="M44.42,189.6c0-.33.27-.6.6-.6s.6.27.6.6v7.23c0,.33-.27.6-.6.6s-.6-.27-.6-.6v-7.23Z"/>
    <path class="cls-1" d="M49.57,197.34c-1.78,0-3.03-1.32-3.03-2.95s1.26-2.95,3.03-2.95h.7c1.12,0,1.87.79,1.87,1.77s-.75,1.77-1.87,1.77h-1.12c-.32,0-.59-.27-.59-.59s.27-.59.59-.59h1.12c.4,0,.67-.27.67-.59s-.27-.59-.67-.59h-.7c-1.07,0-1.83.8-1.83,1.77s.77,1.77,1.83,1.77h1.7c.32,0,.59.27.59.59s-.27.59-.59.59h-1.7Z"/>
    <path class="cls-1" d="M54.26,199.7c-.32,0-.59-.27-.59-.59s.27-.59.59-.59h2.11c.5,0,.9-.4.9-.9v-.28h-1.37c-1.78,0-3.03-1.32-3.03-2.95s1.26-2.95,3.03-2.95h1.97c.33,0,.6.27.6.6v5.57c0,1.15-.93,2.08-2.08,2.08h-2.13ZM57.27,192.63h-1.37c-1.07,0-1.83.8-1.83,1.77s.77,1.77,1.83,1.77h1.37v-3.54Z"/>
    <path class="cls-1" d="M62.43,197.34c-1.78,0-3.04-1.32-3.04-2.95s1.26-2.95,3.04-2.95h1.37v-1.85c0-.33.27-.6.6-.6s.6.27.6.6v7.14c0,.33-.27.6-.6.6h-1.97ZM63.79,192.63h-1.37c-1.07,0-1.83.8-1.83,1.77s.77,1.77,1.83,1.77h1.37v-3.54Z"/>
    <path class="cls-1" d="M71.39,197.34c-1.78,0-3.04-1.32-3.04-2.95s1.26-2.95,3.04-2.95h.7c1.12,0,1.87.79,1.87,1.77s-.74,1.77-1.87,1.77h-1.12c-.32,0-.59-.27-.59-.59s.27-.59.59-.59h1.12c.4,0,.67-.27.67-.59s-.27-.59-.67-.59h-.7c-1.07,0-1.83.8-1.83,1.77s.77,1.77,1.83,1.77h1.7c.32,0,.59.27.59.59s-.27.59-.59.59h-1.7Z"/>
    <path class="cls-1" d="M78.75,193.79c0-.63-.52-1.16-1.16-1.16h-1.51v4.2c0,.33-.27.6-.6.6s-.6-.27-.6-.6v-4.78c0-.33.27-.6.6-.6h2.11c1.3,0,2.36,1.06,2.36,2.36v3.02c0,.33-.27.6-.6.6s-.6-.27-.6-.6v-3.05Z"/>
    <path class="cls-1" d="M86.35,197.34c-1.78,0-3.04-1.32-3.04-2.95s1.26-2.95,3.04-2.95h1.37v-1.85c0-.33.27-.6.6-.6s.6.27.6.6v7.14c0,.33-.27.6-.6.6h-1.97ZM87.71,192.63h-1.37c-1.07,0-1.84.8-1.84,1.77s.77,1.77,1.84,1.77h1.37v-3.54Z"/>
    <path class="cls-1" d="M90.72,190.47c-.41,0-.74-.32-.74-.73s.33-.73.74-.73.75.32.75.73-.33.73-.75.73ZM90.12,191.96c0-.33.27-.6.6-.6s.6.27.6.6v4.87c0,.33-.27.6-.6.6s-.6-.27-.6-.6v-4.87Z"/>
    <path class="cls-1" d="M95.27,197.34c-1.78,0-3.04-1.32-3.04-2.95s1.26-2.95,3.04-2.95h.7c1.12,0,1.87.79,1.87,1.77s-.75,1.77-1.87,1.77h-1.12c-.32,0-.59-.27-.59-.59s.27-.59.59-.59h1.12c.4,0,.67-.27.67-.59s-.27-.59-.67-.59h-.7c-1.07,0-1.84.8-1.84,1.77s.77,1.77,1.84,1.77h1.7c.32,0,.59.27.59.59s-.27.59-.59.59h-1.7Z"/>
    <path class="cls-1" d="M24.97,209.55c0-.63-.52-1.16-1.16-1.16h-1.06v4.2c0,.33-.27.6-.6.6s-.6-.27-.6-.6v-4.2h-2.19v4.2c0,.33-.27.6-.6.6s-.6-.27-.6-.6v-4.78c0-.33.27-.6.6-.6h5.05c1.3,0,2.36,1.06,2.36,2.36v3.02c0,.33-.27.6-.6.6s-.6-.27-.6-.6v-3.05Z"/>
    <path class="cls-1" d="M30.21,213.25c-1.84,0-3.13-1.38-3.13-3.09s1.29-3.09,3.13-3.09,3.12,1.38,3.12,3.09-1.3,3.09-3.12,3.09ZM30.21,208.23c-1.11,0-1.92.87-1.92,1.92s.81,1.92,1.92,1.92,1.92-.87,1.92-1.92-.81-1.92-1.92-1.92Z"/>
    <path class="cls-1" d="M37.11,213.1c-1.78,0-3.04-1.32-3.04-2.95s1.26-2.95,3.04-2.95h.7c1.12,0,1.87.79,1.87,1.77s-.74,1.77-1.87,1.77h-1.12c-.32,0-.59-.27-.59-.59s.27-.59.59-.59h1.12c.4,0,.67-.27.67-.59s-.27-.59-.67-.59h-.7c-1.07,0-1.84.8-1.84,1.77s.77,1.77,1.84,1.77h1.7c.32,0,.59.27.59.59s-.27.59-.59.59h-1.7Z"/>
    <path class="cls-1" d="M43.47,213.1c-1.14,0-2.08-.93-2.08-2.08v-2.63h-.7c-.32,0-.59-.27-.59-.59s.27-.59.59-.59h.7v-1.18c0-.33.27-.6.6-.6s.6.27.6.6v1.18h1.55c.32,0,.59.27.59.59s-.27.59-.59.59h-1.55v2.65c0,.5.38.89.89.89h.66c.32,0,.59.27.59.59s-.27.59-.59.59h-.67Z"/>
    <path class="cls-1" d="M50.74,213.1c-1.78,0-3.03-1.32-3.03-2.95s1.26-2.95,3.03-2.95h1.37v-1.85c0-.33.27-.6.6-.6s.6.27.6.6v7.14c0,.33-.27.6-.6.6h-1.97ZM52.11,208.39h-1.37c-1.07,0-1.83.8-1.83,1.77s.77,1.77,1.83,1.77h1.37v-3.54Z"/>
    <path class="cls-1" d="M57.26,213.1c-1.78,0-3.04-1.32-3.04-2.95s1.26-2.95,3.04-2.95h.7c1.12,0,1.87.79,1.87,1.77s-.74,1.77-1.87,1.77h-1.12c-.32,0-.59-.27-.59-.59s.27-.59.59-.59h1.12c.4,0,.67-.27.67-.59s-.27-.59-.67-.59h-.7c-1.07,0-1.83.8-1.83,1.77s.77,1.77,1.83,1.77h1.7c.32,0,.59.27.59.59s-.27.59-.59.59h-1.7Z"/>
    <path class="cls-1" d="M64.75,213.1c-1.08,0-1.82-.82-1.82-1.82s.74-1.82,1.82-1.82h1.12c.32,0,.59.27.59.59s-.27.59-.59.59h-1.12c-.37,0-.62.31-.62.64s.26.64.62.64h2.16v-2.49c0-.59-.41-1.04-1.02-1.04h-1.89c-.32,0-.59-.27-.59-.59s.27-.59.59-.59h1.89c1.25,0,2.22.99,2.22,2.21v3.08c0,.33-.21.6-.6.6h-2.76Z"/>
    <path class="cls-1" d="M72.06,213.1c-1.78,0-3.03-1.32-3.03-2.95s1.26-2.95,3.03-2.95h1.22c.32,0,.59.27.59.59s-.27.59-.59.59h-1.22c-1.07,0-1.83.8-1.83,1.77s.77,1.77,1.83,1.77h1.22c.32,0,.59.27.59.59s-.27.59-.59.59h-1.22Z"/>
    <path class="cls-1" d="M77.64,213.1c-1.14,0-2.08-.93-2.08-2.08v-2.63h-.7c-.32,0-.59-.27-.59-.59s.27-.59.59-.59h.7v-1.18c0-.33.27-.6.6-.6s.6.27.6.6v1.18h1.55c.32,0,.59.27.59.59s-.27.59-.59.59h-1.55v2.65c0,.5.38.89.89.89h.66c.32,0,.59.27.59.59s-.27.59-.59.59h-.67Z"/>
    <path class="cls-1" d="M80.33,206.23c-.41,0-.75-.32-.75-.73s.33-.73.75-.73.74.32.74.73-.33.73-.74.73ZM79.73,207.72c0-.33.27-.6.6-.6s.6.27.6.6v4.87c0,.33-.27.6-.6.6s-.6-.27-.6-.6v-4.87Z"/>
    <path class="cls-1" d="M84.88,213.1c-1.78,0-3.04-1.32-3.04-2.95s1.26-2.95,3.04-2.95h.7c1.12,0,1.87.79,1.87,1.77s-.75,1.77-1.87,1.77h-1.12c-.32,0-.59-.27-.59-.59s.27-.59.59-.59h1.12c.4,0,.67-.27.67-.59s-.27-.59-.67-.59h-.7c-1.07,0-1.84.8-1.84,1.77s.77,1.77,1.84,1.77h1.7c.32,0,.59.27.59.59s-.27.59-.59.59h-1.7Z"/>
    <path class="cls-1" d="M89.56,210.27v2.32c0,.33-.27.6-.6.6s-.6-.27-.6-.6v-7.23c0-.33.27-.6.6-.6s.6.27.6.6v4.68l2.75-2.75c.23-.23.6-.23.83,0,.22.23.22.6,0,.83l-2.02,2.02,2.02,2.02c.23.23.22.6,0,.83-.23.23-.6.23-.83,0l-2.75-2.75Z"/>
    <path class="cls-1" d="M95.64,213.1c-1.08,0-1.82-.82-1.82-1.82s.75-1.82,1.82-1.82h1.12c.32,0,.59.27.59.59s-.27.59-.59.59h-1.12c-.37,0-.62.31-.62.64s.26.64.62.64h2.16v-2.49c0-.59-.41-1.04-1.02-1.04h-1.89c-.32,0-.59-.27-.59-.59s.27-.59.59-.59h1.89c1.25,0,2.22.99,2.22,2.21v3.08c0,.33-.21.6-.6.6h-2.76Z"/>
    <path class="cls-1" d="M101.75,213.1c-1.08,0-1.82-.82-1.82-1.82s.75-1.82,1.82-1.82h1.12c.32,0,.59.27.59.59s-.27.59-.59.59h-1.12c-.37,0-.62.31-.62.64s.26.64.62.64h2.16v-2.49c0-.59-.41-1.04-1.02-1.04h-1.89c-.32,0-.59-.27-.59-.59s.27-.59.59-.59h1.89c1.25,0,2.22.99,2.22,2.21v3.08c0,.33-.21.6-.6.6h-2.76Z"/>
    <path class="cls-1" d="M110.83,209.51c0,.33-.27.6-.6.6s-.6-.27-.6-.59v-.08c0-.59-.43-1.06-1.06-1.06h-1.06v4.2c0,.33-.27.6-.6.6s-.6-.27-.6-.6v-4.78c0-.33.27-.6.6-.6h1.66c1.27,0,2.26,1.01,2.26,2.23v.07Z"/>
    <path class="cls-1" d="M114.48,213.1c-1.15,0-2.08-.93-2.08-2.08v-2.63h-.7c-.32,0-.59-.27-.59-.59s.27-.59.59-.59h.7v-1.18c0-.33.27-.6.6-.6s.6.27.6.6v1.18h1.55c.32,0,.59.27.59.59s-.27.59-.59.59h-1.55v2.65c0,.5.38.89.89.89h.66c.32,0,.59.27.59.59s-.27.59-.59.59h-.67Z"/>
    <path class="cls-1" d="M18.54,228.87c-.32,0-.59-.26-.59-.58,0-.13.06-.3.18-.44l3.04-3.69h-2.52c-.32,0-.59-.27-.59-.59s.27-.59.59-.59h3.74c.32,0,.58.26.58.58,0,.14-.06.3-.18.44l-3.04,3.69h2.51c.32,0,.59.27.59.59s-.27.59-.59.59h-3.71Z"/>
    <path class="cls-1" d="M26.25,228.87c-1.78,0-3.03-1.32-3.03-2.95s1.26-2.95,3.03-2.95h.7c1.12,0,1.87.79,1.87,1.77s-.75,1.77-1.87,1.77h-1.12c-.32,0-.59-.27-.59-.59s.27-.59.59-.59h1.12c.4,0,.67-.27.67-.59s-.27-.59-.67-.59h-.7c-1.07,0-1.83.8-1.83,1.77s.77,1.77,1.83,1.77h1.7c.32,0,.59.27.59.59s-.27.59-.59.59h-1.7Z"/>
    <path class="cls-1" d="M29.73,221.13c0-.33.27-.6.6-.6s.6.27.6.6v7.23c0,.33-.27.6-.6.6s-.6-.27-.6-.6v-7.23Z"/>
    <path class="cls-1" d="M32.93,224.15h-.7c-.32,0-.59-.27-.59-.59s.27-.59.59-.59h.7v-.4c0-1.1.81-1.96,2.01-1.96h1.18c.32,0,.59.27.59.59s-.27.59-.59.59h-1.18c-.49,0-.81.32-.81.77v.41h1.99c.32,0,.59.27.59.59s-.27.59-.59.59h-1.99v4.2c0,.33-.27.6-.6.6s-.6-.27-.6-.6v-4.2Z"/>
    <path class="cls-1" d="M40.52,221.99c-.41,0-.75-.32-.75-.73s.33-.73.75-.73.74.32.74.73-.33.73-.74.73ZM39.92,223.48c0-.33.27-.6.6-.6s.6.27.6.6v4.87c0,.33-.27.6-.6.6s-.6-.27-.6-.6v-4.87Z"/>
    <path class="cls-1" d="M46.19,225.31c0-.63-.52-1.16-1.16-1.16h-1.51v4.2c0,.33-.27.6-.6.6s-.6-.27-.6-.6v-4.78c0-.33.27-.6.6-.6h2.11c1.3,0,2.36,1.06,2.36,2.36v3.02c0,.33-.27.6-.6.6s-.6-.27-.6-.6v-3.05Z"/>
    <path class="cls-1" d="M51.35,228.87c-1.78,0-3.03-1.32-3.03-2.95s1.26-2.95,3.03-2.95h1.22c.32,0,.59.27.59.59s-.27.59-.59.59h-1.22c-1.07,0-1.83.8-1.83,1.77s.77,1.77,1.83,1.77h1.22c.32,0,.59.27.59.59s-.27.59-.59.59h-1.22Z"/>
    <path class="cls-1" d="M55.44,228.87c-1.08,0-1.82-.82-1.82-1.82s.75-1.82,1.82-1.82h1.12c.32,0,.59.27.59.59s-.27.59-.59.59h-1.12c-.37,0-.62.31-.62.64s.26.64.62.64h2.16v-2.49c0-.59-.41-1.04-1.02-1.04h-1.89c-.32,0-.59-.27-.59-.59s.27-.59.59-.59h1.89c1.25,0,2.22.99,2.22,2.21v3.08c0,.33-.21.6-.6.6h-2.76Z"/>
    <path class="cls-1" d="M60.47,228.87c-.32,0-.59-.27-.59-.59s.27-.59.59-.59h2.49c.4,0,.67-.27.67-.59s-.27-.59-.67-.59h-1.38c-1.12,0-1.87-.79-1.87-1.77s.74-1.77,1.87-1.77h2.49c.32,0,.59.27.59.59s-.27.59-.59.59h-2.49c-.4,0-.67.27-.67.59s.27.59.67.59h1.38c1.12,0,1.87.79,1.87,1.77s-.75,1.77-1.87,1.77h-2.49Z"/>
    <path class="cls-1" d="M66.21,228.87c-.32,0-.59-.27-.59-.59s.27-.59.59-.59h2.49c.4,0,.67-.27.67-.59s-.27-.59-.67-.59h-1.38c-1.12,0-1.87-.79-1.87-1.77s.75-1.77,1.87-1.77h2.49c.32,0,.59.27.59.59s-.27.59-.59.59h-2.49c-.4,0-.67.27-.67.59s.27.59.67.59h1.38c1.12,0,1.87.79,1.87,1.77s-.74,1.77-1.87,1.77h-2.49Z"/>
    <path class="cls-1" d="M74.23,228.87c-1.78,0-3.04-1.32-3.04-2.95s1.26-2.95,3.04-2.95h.7c1.12,0,1.87.79,1.87,1.77s-.74,1.77-1.87,1.77h-1.12c-.32,0-.59-.27-.59-.59s.27-.59.59-.59h1.12c.4,0,.67-.27.67-.59s-.27-.59-.67-.59h-.7c-1.07,0-1.84.8-1.84,1.77s.77,1.77,1.84,1.77h1.7c.32,0,.59.27.59.59s-.27.59-.59.59h-1.7Z"/>
    <path class="cls-1" d="M82.23,225.27c0,.33-.27.6-.6.6s-.6-.27-.6-.59v-.08c0-.59-.43-1.06-1.06-1.06h-1.06v4.2c0,.33-.27.6-.6.6s-.6-.27-.6-.6v-4.78c0-.33.27-.6.6-.6h1.66c1.27,0,2.26,1.01,2.26,2.23v.07Z"/>
    <path class="cls-1" d="M85.91,228.87c-1.78,0-3.03-1.32-3.03-2.95s1.26-2.95,3.03-2.95h.7c1.12,0,1.87.79,1.87,1.77s-.75,1.77-1.87,1.77h-1.12c-.32,0-.59-.27-.59-.59s.27-.59.59-.59h1.12c.4,0,.67-.27.67-.59s-.27-.59-.67-.59h-.7c-1.07,0-1.83.8-1.83,1.77s.77,1.77,1.83,1.77h1.7c.32,0,.59.27.59.59s-.27.59-.59.59h-1.7Z"/>
    <path class="cls-1" d="M93.26,225.31c0-.63-.52-1.16-1.16-1.16h-1.51v4.2c0,.33-.27.6-.6.6s-.6-.27-.6-.6v-4.78c0-.33.27-.6.6-.6h2.11c1.3,0,2.36,1.06,2.36,2.36v3.02c0,.33-.27.6-.6.6s-.6-.27-.6-.6v-3.05Z"/>
  </g>
</svg>