<?xml version="1.0" encoding="UTF-8"?>
<svg id="Laag_1" data-name="Laag 1" xmlns="http://www.w3.org/2000/svg" viewBox="0 0 164.41 249.45">
  <defs>
    <style>
      .cls-1 {
        stroke: #fff;
        stroke-miterlimit: 10;
        stroke-width: .46px;
      }

      .cls-1, .cls-2 {
        fill: #fff;
      }

      .cls-3 {
        fill: #8082b8;
      }

      .cls-3, .cls-4, .cls-5, .cls-6, .cls-2, .cls-7 {
        stroke-width: 0px;
      }

      .cls-4 {
        fill: #2f2f2f;
      }

      .cls-5 {
        fill: #1d1d1b;
      }

      .cls-6 {
        fill: #de2b65;
      }

      .cls-7 {
        fill: #eb7c19;
      }
    </style>
  </defs>
  <rect class="cls-4" x="0" width="164.41" height="249.45"/>
  <g>
    <path class="cls-3" d="M141.73,206.68c-4.35,0-7.89-3.7-7.89-8.26s3.54-8.25,7.89-8.25,7.89,3.7,7.89,8.25-3.54,8.26-7.89,8.26Z"/>
    <path class="cls-5" d="M141.73,191.17c3.8,0,6.89,3.25,6.89,7.26s-3.09,7.26-6.89,7.26-6.89-3.25-6.89-7.26,3.09-7.26,6.89-7.26M141.73,189.17c-4.91,0-8.89,4.14-8.89,9.26s3.98,9.26,8.89,9.26,8.89-4.14,8.89-9.26-3.98-9.26-8.89-9.26h0Z"/>
  </g>
  <g>
    <path class="cls-7" d="M141.73,234.43c-4.35,0-7.89-3.7-7.89-8.26s3.54-8.26,7.89-8.26,7.89,3.7,7.89,8.26-3.54,8.26-7.89,8.26Z"/>
    <path class="cls-5" d="M141.73,218.92c3.8,0,6.89,3.25,6.89,7.26s-3.09,7.26-6.89,7.26-6.89-3.25-6.89-7.26,3.09-7.26,6.89-7.26M141.73,216.92c-4.91,0-8.89,4.14-8.89,9.26s3.98,9.26,8.89,9.26,8.89-4.14,8.89-9.26-3.98-9.26-8.89-9.26h0Z"/>
  </g>
  <g>
    <g>
      <ellipse class="cls-6" cx="82.2" cy="113.39" rx="41.75" ry="42.39"/>
      <path class="cls-5" d="M82.2,72.5c22.19,0,40.25,18.34,40.25,40.89s-18.06,40.89-40.25,40.89-40.25-18.34-40.25-40.89,18.06-40.89,40.25-40.89M82.2,69.5c-23.91,0-43.25,19.63-43.25,43.89s19.34,43.89,43.25,43.89,43.25-19.63,43.25-43.89-19.34-43.89-43.25-43.89h0Z"/>
    </g>
    <g>
      <path class="cls-2" d="M82.2,147c-18.25,0-33.1-15.08-33.1-33.61s14.85-33.61,33.1-33.61,33.1,15.08,33.1,33.61-14.85,33.61-33.1,33.61Z"/>
      <path class="cls-5" d="M82.2,81.27c17.42,0,31.6,14.41,31.6,32.11s-14.18,32.11-31.6,32.11-31.6-14.41-31.6-32.11,14.18-32.11,31.6-32.11M82.2,78.27c-19.12,0-34.6,15.7-34.6,35.11s15.48,35.11,34.6,35.11,34.6-15.7,34.6-35.11-15.48-35.11-34.6-35.11h0Z"/>
    </g>
    <g>
      <path class="cls-6" d="M82.2,138.22c-13.48,0-24.45-11.14-24.45-24.83s10.97-24.83,24.45-24.83,24.45,11.14,24.45,24.83-10.97,24.83-24.45,24.83Z"/>
      <path class="cls-5" d="M82.2,90.05c12.65,0,22.95,10.47,22.95,23.33s-10.3,23.33-22.95,23.33-22.95-10.47-22.95-23.33,10.3-23.33,22.95-23.33M82.2,87.05c-14.34,0-25.95,11.78-25.95,26.33s11.61,26.33,25.95,26.33,25.95-11.78,25.95-26.33-11.61-26.33-25.95-26.33h0Z"/>
    </g>
    <g>
      <path class="cls-2" d="M82.2,129.44c-8.71,0-15.8-7.2-15.8-16.06s7.09-16.06,15.8-16.06,15.8,7.2,15.8,16.06-7.09,16.06-15.8,16.06Z"/>
      <path class="cls-5" d="M82.2,98.83c7.88,0,14.3,6.53,14.3,14.56s-6.42,14.56-14.3,14.56-14.3-6.53-14.3-14.56,6.42-14.56,14.3-14.56M82.2,95.83c-9.56,0-17.3,7.85-17.3,17.56s7.74,17.56,17.3,17.56,17.3-7.85,17.3-17.56-7.74-17.56-17.3-17.56h0Z"/>
    </g>
    <g>
      <path class="cls-6" d="M82.2,120.66c-3.94,0-7.15-3.27-7.15-7.28s3.21-7.28,7.15-7.28,7.15,3.26,7.15,7.28-3.21,7.28-7.15,7.28Z"/>
      <path class="cls-5" d="M82.2,107.61c3.12,0,5.65,2.59,5.65,5.78s-2.53,5.78-5.65,5.78-5.65-2.59-5.65-5.78,2.53-5.78,5.65-5.78M82.2,104.61c-4.78,0-8.65,3.93-8.65,8.78s3.87,8.78,8.65,8.78,8.65-3.93,8.65-8.78-3.87-8.78-8.65-8.78h0Z"/>
    </g>
  </g>
  <g>
    <path class="cls-2" d="M54.46,26.71c-.25.7-.57,1.3-.96,1.79-.39.49-.83.9-1.33,1.23-.49.32-1.02.57-1.6.72-.57.16-1.17.25-1.79.26.43.67.73,1.45.89,2.34.16.89.21,1.82.16,2.79-.05.97-.2,1.93-.45,2.89s-.57,1.85-.96,2.66c-.39.82-.84,1.53-1.35,2.14s-1.05,1.03-1.64,1.26c.03-.37.06-.89.09-1.56.02-.68.04-1.43.05-2.28,0-.84.01-1.74.01-2.7s-.01-1.91-.04-2.86c-.02-.95-.06-1.87-.1-2.75-.04-.88-.09-1.67-.14-2.35-.63-.18-1.23-.41-1.79-.68-.56-.27-1.05-.56-1.49-.88-.43-.32-.8-.65-1.09-1.01s-.48-.71-.56-1.06c1.03.13,2.13.22,3.3.27,1.17.05,2.36.07,3.59.06s2.45-.04,3.66-.09c1.22-.05,2.39-.12,3.52-.2Z"/>
    <path class="cls-2" d="M63.61,42.69c-.7.7-1.43,1.15-2.2,1.36-.77.21-1.48.3-2.15.26-.65-.03-1.26-.2-1.82-.5-.57-.3-1.05-.7-1.46-1.19s-.72-1.06-.94-1.71c-.22-.65-.31-1.34-.28-2.08.03-.65.16-1.29.38-1.91s.54-1.18.98-1.67c.43-.49.99-.88,1.66-1.18.67-.29,1.49-.44,2.44-.44.53,0,1.04.06,1.51.19s.93.35,1.36.66c-.05-.7-.35-1.23-.91-1.59-.56-.36-1.23-.6-2-.74-.78-.13-1.58-.17-2.41-.11-.83.06-1.54.16-2.12.31.33-.55.73-1.03,1.19-1.45.46-.42.95-.76,1.48-1.04.52-.27,1.06-.48,1.61-.61.55-.13,1.09-.18,1.62-.15.95.05,1.76.29,2.42.71.67.43,1.21.98,1.64,1.65.42.67.74,1.45.94,2.32s.3,1.8.3,2.76c0,.8-.05,1.61-.16,2.42-.11.82-.28,1.6-.5,2.34-.23.74-.5,1.43-.83,2.06-.33.63-.7,1.18-1.11,1.62-.08-.32-.17-.69-.28-1.11-.1-.42-.22-.83-.35-1.21ZM58.48,38.49c.02.25.06.5.14.74.07.24.19.46.34.66.15.2.35.37.59.51.24.14.55.25.91.31.43.08.82.07,1.15-.04.33-.11.61-.27.84-.49.23-.22.4-.47.51-.76.12-.29.17-.59.17-.89,0-.4-.05-.77-.15-1.11-.1-.34-.25-.64-.45-.9-.2-.26-.46-.46-.78-.61-.32-.15-.69-.22-1.12-.2-.77.03-1.34.3-1.71.81-.38.51-.52,1.16-.44,1.96Z"/>
    <path class="cls-2" d="M77.48,38.01c.03-1.85-.2-3.27-.7-4.25-.5-.98-1.23-1.46-2.2-1.42-.13,0-.25,0-.35.01-.1,0-.2.02-.3.04.23.67.37,1.41.4,2.23.03.82-.02,1.65-.15,2.5-.13.85-.33,1.69-.6,2.51-.27.82-.59,1.58-.98,2.27-.38.69-.81,1.29-1.27,1.8-.47.51-.96.87-1.48,1.09.05-.43.09-1.04.11-1.83.03-.78.04-1.66.05-2.62,0-.97,0-1.98-.01-3.04-.02-1.06-.05-2.08-.09-3.06-.04-.98-.1-1.89-.16-2.73-.07-.83-.14-1.5-.22-2,.8-.07,1.49.02,2.07.26.58.24,1.07.59,1.45,1.04.72-.73,1.72-1.1,3.02-1.1.82,0,1.51.14,2.09.41.58.27,1.03.64,1.35,1.1s.52.98.6,1.57c.07.59.03,1.2-.14,1.81-.17.62-.46,1.22-.88,1.81-.42.59-.96,1.12-1.62,1.59Z"/>
    <path class="cls-2" d="M91.28,29.04c1.45.43,2.5,1.57,3.15,3.41.65,1.84.92,4.3.8,7.36-.03.72-.1,1.46-.21,2.24s-.28,1.52-.52,2.25c-.24.73-.55,1.41-.93,2.05-.38.64-.84,1.19-1.39,1.65-.55.46-1.2.8-1.95,1.02s-1.61.29-2.57.19c-.77-.07-1.4-.24-1.9-.51-.5-.27-.9-.62-1.2-1.04-.3-.42-.5-.9-.61-1.44-.11-.54-.15-1.11-.11-1.71.52.7,1.07,1.19,1.66,1.48.59.28,1.17.41,1.74.38.65-.03,1.25-.25,1.79-.64.54-.39.95-.9,1.24-1.54.03-.08.07-.17.11-.26.04-.09.08-.19.11-.29-.63.18-1.29.26-1.97.23-1.02-.02-1.92-.19-2.7-.52-.78-.33-1.45-.79-1.99-1.38-.54-.58-.96-1.28-1.25-2.1-.29-.82-.45-1.72-.46-2.7-.02-1.02.1-1.95.34-2.81s.61-1.61,1.11-2.25,1.12-1.15,1.86-1.54c.74-.38,1.6-.6,2.56-.65.67-.03,1.3.02,1.9.17s1.11.42,1.53.8c-.02-.38-.04-.73-.06-1.04s-.05-.58-.06-.81ZM89.56,32.69c-.52.07-.95.25-1.3.54s-.63.64-.85,1.05c-.22.41-.37.86-.46,1.35s-.14.97-.14,1.44c0,.4.05.81.16,1.23.11.42.28.8.5,1.16.22.36.51.67.85.94.34.27.74.46,1.19.58.27.08.53.13.8.15.27.02.52,0,.77-.02.1-.63.18-1.3.25-2,.07-.7.11-1.4.14-2.1.03-.7.04-1.39.04-2.07s0-1.34-.03-1.98c-.3-.15-.6-.24-.9-.27s-.64-.03-1.02.02Z"/>
    <path class="cls-2" d="M110.93,38.86c-.68.1-1.3.19-1.86.26-.56.07-1.13.13-1.71.17-.58.04-1.22.07-1.92.09-.7.02-1.53.03-2.48.03.12,1.07.7,1.86,1.74,2.38,1.04.52,2.65.67,4.81.45-.28.38-.65.71-1.1.99-.45.27-.93.5-1.45.66-.52.17-1.05.28-1.59.35-.54.07-1.05.08-1.54.05-.8-.05-1.57-.24-2.3-.58-.73-.33-1.38-.81-1.92-1.44s-.99-1.4-1.31-2.31c-.33-.92-.48-1.98-.46-3.17.02-1.23.22-2.32.6-3.25.38-.93.88-1.71,1.49-2.33.61-.62,1.28-1.08,2.03-1.39.74-.31,1.48-.46,2.21-.46,1.08,0,2.06.16,2.94.48.88.32,1.61.85,2.21,1.59.6.74,1.05,1.72,1.34,2.94.29,1.22.39,2.72.29,4.5ZM104.58,31.94c-.35,0-.65.08-.91.25-.26.17-.47.45-.64.84s-.29.91-.36,1.56-.1,1.46-.09,2.42c.27.02.75.02,1.45.01.7,0,1.61-.03,2.73-.06.05-.83.02-1.57-.09-2.2-.11-.63-.26-1.16-.46-1.57-.2-.42-.44-.73-.72-.94s-.58-.31-.9-.31Z"/>
    <path class="cls-2" d="M123.23,30.69c-.12.7-.33,1.3-.64,1.81-.31.51-.66.92-1.06,1.25-.4.32-.83.57-1.3.73s-.93.24-1.38.24h-.47c.03.97.09,1.88.16,2.73.07.85.19,1.6.34,2.24.15.64.34,1.15.57,1.54.23.38.53.6.88.65.17.03.35.05.56.04.21,0,.44-.07.69-.19.25-.12.52-.31.81-.58.29-.27.61-.65.96-1.15.05.65.02,1.25-.1,1.81-.12.56-.33,1.05-.65,1.46-.32.42-.74.74-1.28.98-.53.23-1.18.35-1.95.35-1,0-1.89-.24-2.66-.73-.77-.48-1.32-1.15-1.64-2-.17-.45-.3-.98-.4-1.57-.1-.6-.17-1.25-.22-1.95-.05-.7-.06-1.43-.04-2.2.03-.77.08-1.53.16-2.3-.72-.4-1.24-.89-1.57-1.46-.33-.58-.57-1.15-.7-1.74.48.07.96.12,1.43.16.47.04.92.08,1.35.11.15-.65.34-1.27.56-1.85s.47-1.1.75-1.55c.28-.45.59-.82.94-1.12.35-.3.72-.5,1.12-.6-.02.78-.04,1.6-.06,2.46s-.05,1.78-.06,2.76c.8-.02,1.59-.05,2.38-.11.78-.06,1.62-.13,2.53-.21Z"/>
  </g>
  <g>
    <path class="cls-1" d="M22.17,191.97v2.91c0,.33-.28.61-.61.61s-.61-.28-.61-.61v-6.03c0-.33.28-.61.61-.61s.61.28.61.61v2.91l3.34-3.34c.23-.23.62-.24.87,0s.23.63,0,.87l-2.6,2.58,2.6,2.58c.23.23.25.62,0,.87-.24.24-.63.23-.87,0l-3.34-3.34Z"/>
    <path class="cls-1" d="M27.95,188.52c-.41,0-.74-.32-.74-.73s.33-.73.74-.73.75.32.75.73-.33.73-.75.73ZM27.35,190.01c0-.33.27-.6.6-.6s.6.27.6.6v4.87c0,.33-.27.6-.6.6s-.6-.27-.6-.6v-4.87Z"/>
    <path class="cls-1" d="M32.51,195.4c-1.78,0-3.04-1.32-3.04-2.95s1.26-2.95,3.04-2.95h.7c1.12,0,1.87.79,1.87,1.77s-.75,1.77-1.87,1.77h-1.12c-.32,0-.59-.27-.59-.59s.27-.59.59-.59h1.12c.4,0,.67-.27.67-.59s-.27-.59-.67-.59h-.7c-1.07,0-1.84.8-1.84,1.77s.77,1.77,1.84,1.77h1.7c.32,0,.59.27.59.59s-.27.59-.59.59h-1.7Z"/>
    <path class="cls-1" d="M36.46,195.4c-.32,0-.59-.27-.59-.59s.27-.59.59-.59h2.49c.4,0,.67-.27.67-.59s-.27-.59-.67-.59h-1.38c-1.12,0-1.87-.79-1.87-1.77s.75-1.77,1.87-1.77h2.49c.32,0,.59.27.59.59s-.27.59-.59.59h-2.49c-.4,0-.67.27-.67.59s.27.59.67.59h1.38c1.12,0,1.87.79,1.87,1.77s-.74,1.77-1.87,1.77h-2.49Z"/>
    <path class="cls-1" d="M51,190.01c0-.33.27-.6.6-.6s.6.27.6.6v3.27c0,1.25-1.01,2.26-2.26,2.26-.7,0-1.34-.32-1.75-.82-.41.5-1.05.82-1.75.82-1.25,0-2.26-1.01-2.26-2.26v-3.27c0-.33.27-.6.6-.6s.6.27.6.6v3.29c0,.6.5,1.1,1.1,1.1s1.1-.5,1.1-1.1v-3.29c0-.33.27-.6.6-.6s.6.27.6.6v3.29c0,.6.5,1.1,1.1,1.1s1.1-.5,1.1-1.1v-3.29Z"/>
    <path class="cls-1" d="M54.01,188.52c-.41,0-.75-.32-.75-.73s.33-.73.75-.73.74.32.74.73-.33.73-.74.73ZM53.41,190.01c0-.33.27-.6.6-.6s.6.27.6.6v4.87c0,.33-.27.6-.6.6s-.6-.27-.6-.6v-4.87Z"/>
    <path class="cls-1" d="M58.56,195.4c-1.78,0-3.04-1.32-3.04-2.95s1.26-2.95,3.04-2.95h.7c1.12,0,1.87.79,1.87,1.77s-.74,1.77-1.87,1.77h-1.12c-.32,0-.59-.27-.59-.59s.27-.59.59-.59h1.12c.4,0,.67-.27.67-.59s-.27-.59-.67-.59h-.7c-1.07,0-1.84.8-1.84,1.77s.77,1.77,1.84,1.77h1.7c.32,0,.59.27.59.59s-.27.59-.59.59h-1.7Z"/>
    <path class="cls-1" d="M67.25,195.4c-1.78,0-3.04-1.32-3.04-2.95s1.26-2.95,3.04-2.95h1.37v-1.85c0-.33.27-.6.6-.6s.6.27.6.6v7.15c0,.33-.27.6-.6.6h-1.97ZM68.62,190.68h-1.37c-1.07,0-1.84.8-1.84,1.77s.77,1.77,1.84,1.77h1.37v-3.54Z"/>
    <path class="cls-1" d="M73.77,195.4c-1.78,0-3.04-1.32-3.04-2.95s1.26-2.95,3.04-2.95h.7c1.12,0,1.87.79,1.87,1.77s-.74,1.77-1.87,1.77h-1.12c-.32,0-.59-.27-.59-.59s.27-.59.59-.59h1.12c.4,0,.67-.27.67-.59s-.27-.59-.67-.59h-.7c-1.07,0-1.84.8-1.84,1.77s.77,1.77,1.84,1.77h1.7c.32,0,.59.27.59.59s-.27.59-.59.59h-1.7Z"/>
    <path class="cls-1" d="M79.33,190.26c-.13-.3,0-.66.3-.79.3-.14.66,0,.79.3l1.74,4.01,1.74-4.01c.13-.3.49-.45.79-.3.3.13.43.49.3.79l-2.16,4.81c-.11.26-.35.43-.67.43s-.56-.18-.67-.43l-2.16-4.81Z"/>
    <path class="cls-1" d="M88.54,195.55c-1.84,0-3.13-1.38-3.13-3.09s1.29-3.09,3.13-3.09,3.13,1.38,3.13,3.09-1.3,3.09-3.13,3.09ZM88.54,190.53c-1.11,0-1.92.87-1.92,1.92s.81,1.93,1.92,1.93,1.93-.87,1.93-1.93-.81-1.92-1.93-1.92Z"/>
    <path class="cls-1" d="M92.58,187.65c0-.33.27-.6.6-.6s.6.27.6.6v7.23c0,.33-.27.6-.6.6s-.6-.27-.6-.6v-7.23Z"/>
    <path class="cls-1" d="M96.09,197.76c-.32,0-.59-.27-.59-.59s.27-.59.59-.59h2.11c.5,0,.9-.4.9-.9v-.28h-1.37c-1.78,0-3.04-1.32-3.04-2.95s1.26-2.95,3.04-2.95h1.97c.33,0,.6.27.6.6v5.58c0,1.15-.94,2.08-2.08,2.08h-2.14ZM99.11,190.68h-1.37c-1.07,0-1.84.8-1.84,1.77s.77,1.77,1.84,1.77h1.37v-3.54Z"/>
    <path class="cls-1" d="M104.26,195.4c-1.78,0-3.04-1.32-3.04-2.95s1.26-2.95,3.04-2.95h.7c1.12,0,1.87.79,1.87,1.77s-.75,1.77-1.87,1.77h-1.12c-.32,0-.59-.27-.59-.59s.27-.59.59-.59h1.12c.4,0,.67-.27.67-.59s-.27-.59-.67-.59h-.7c-1.07,0-1.84.8-1.84,1.77s.77,1.77,1.84,1.77h1.7c.32,0,.59.27.59.59s-.27.59-.59.59h-1.7Z"/>
    <path class="cls-1" d="M111.62,191.84c0-.63-.52-1.16-1.16-1.16h-1.51v4.21c0,.33-.27.6-.6.6s-.6-.27-.6-.6v-4.79c0-.33.27-.6.6-.6h2.12c1.3,0,2.36,1.06,2.36,2.36v3.03c0,.33-.27.6-.6.6s-.6-.27-.6-.6v-3.05Z"/>
    <path class="cls-1" d="M116.78,195.4c-1.78,0-3.04-1.32-3.04-2.95s1.26-2.95,3.04-2.95h1.37v-1.85c0-.33.27-.6.6-.6s.6.27.6.6v7.15c0,.33-.27.6-.6.6h-1.97ZM118.15,190.68h-1.37c-1.07,0-1.84.8-1.84,1.77s.77,1.77,1.84,1.77h1.37v-3.54Z"/>
    <path class="cls-1" d="M123.3,195.4c-1.78,0-3.04-1.32-3.04-2.95s1.26-2.95,3.04-2.95h.7c1.12,0,1.87.79,1.87,1.77s-.75,1.77-1.87,1.77h-1.12c-.32,0-.59-.27-.59-.59s.27-.59.59-.59h1.12c.4,0,.67-.27.67-.59s-.27-.59-.67-.59h-.7c-1.07,0-1.84.8-1.84,1.77s.77,1.77,1.84,1.77h1.7c.32,0,.59.27.59.59s-.27.59-.59.59h-1.7Z"/>
    <path class="cls-1" d="M22.04,213.54c-.32,0-.59-.27-.59-.59s.27-.59.59-.59h2.11c.5,0,.9-.4.9-.9v-.28h-1.37c-1.78,0-3.04-1.32-3.04-2.95s1.26-2.95,3.04-2.95h1.97c.33,0,.6.27.6.6v5.58c0,1.15-.94,2.08-2.08,2.08h-2.14ZM25.06,206.46h-1.37c-1.07,0-1.84.8-1.84,1.77s.77,1.77,1.84,1.77h1.37v-3.54Z"/>
    <path class="cls-1" d="M30.21,211.18c-1.78,0-3.04-1.32-3.04-2.95s1.26-2.95,3.04-2.95h.7c1.12,0,1.87.79,1.87,1.77s-.74,1.77-1.87,1.77h-1.12c-.32,0-.59-.27-.59-.59s.27-.59.59-.59h1.12c.4,0,.67-.27.67-.59s-.27-.59-.67-.59h-.7c-1.07,0-1.84.8-1.84,1.77s.77,1.77,1.84,1.77h1.7c.32,0,.59.27.59.59s-.27.59-.59.59h-1.7Z"/>
    <path class="cls-1" d="M34.17,211.18c-.32,0-.59-.27-.59-.59s.27-.59.59-.59h2.49c.4,0,.67-.27.67-.59s-.27-.59-.67-.59h-1.38c-1.12,0-1.87-.79-1.87-1.77s.74-1.77,1.87-1.77h2.49c.32,0,.59.27.59.59s-.27.59-.59.59h-2.49c-.4,0-.67.27-.67.59s.27.59.67.59h1.38c1.12,0,1.87.79,1.87,1.77s-.75,1.77-1.87,1.77h-2.49Z"/>
    <path class="cls-1" d="M40.65,211.18v1.85c0,.33-.27.6-.6.6s-.6-.27-.6-.6v-7.15c0-.33.27-.6.6-.6h1.97c1.78,0,3.04,1.32,3.04,2.95s-1.26,2.95-3.04,2.95h-1.37ZM42.02,210c1.07,0,1.84-.8,1.84-1.77s-.77-1.77-1.84-1.77h-1.37v3.54h1.37Z"/>
    <path class="cls-1" d="M48.83,211.18c-1.78,0-3.04-1.32-3.04-2.95s1.26-2.95,3.04-2.95h.7c1.12,0,1.87.79,1.87,1.77s-.75,1.77-1.87,1.77h-1.12c-.32,0-.59-.27-.59-.59s.27-.59.59-.59h1.12c.4,0,.67-.27.67-.59s-.27-.59-.67-.59h-.7c-1.07,0-1.84.8-1.84,1.77s.77,1.77,1.84,1.77h1.7c.32,0,.59.27.59.59s-.27.59-.59.59h-1.7Z"/>
    <path class="cls-1" d="M55.18,211.18c-1.78,0-3.04-1.32-3.04-2.95s1.26-2.95,3.04-2.95h.7c1.12,0,1.87.79,1.87,1.77s-.75,1.77-1.87,1.77h-1.12c-.32,0-.59-.27-.59-.59s.27-.59.59-.59h1.12c.4,0,.67-.27.67-.59s-.27-.59-.67-.59h-.7c-1.07,0-1.84.8-1.84,1.77s.77,1.77,1.84,1.77h1.7c.32,0,.59.27.59.59s-.27.59-.59.59h-1.7Z"/>
    <path class="cls-1" d="M58.66,203.43c0-.33.27-.6.6-.6s.6.27.6.6v7.23c0,.33-.27.6-.6.6s-.6-.27-.6-.6v-7.23Z"/>
    <path class="cls-1" d="M63.82,211.18c-1.78,0-3.04-1.32-3.04-2.95s1.26-2.95,3.04-2.95h1.37v-1.85c0-.33.27-.6.6-.6s.6.27.6.6v7.15c0,.33-.27.6-.6.6h-1.97ZM65.19,206.46h-1.37c-1.07,0-1.84.8-1.84,1.77s.77,1.77,1.84,1.77h1.37v-3.54Z"/>
    <path class="cls-1" d="M70.34,211.18c-1.78,0-3.04-1.32-3.04-2.95s1.26-2.95,3.04-2.95h.7c1.12,0,1.87.79,1.87,1.77s-.75,1.77-1.87,1.77h-1.12c-.32,0-.59-.27-.59-.59s.27-.59.59-.59h1.12c.4,0,.67-.27.67-.59s-.27-.59-.67-.59h-.7c-1.07,0-1.84.8-1.84,1.77s.77,1.77,1.84,1.77h1.7c.32,0,.59.27.59.59s-.27.59-.59.59h-1.7Z"/>
    <path class="cls-1" d="M77.84,211.18c-1.08,0-1.83-.82-1.83-1.83s.75-1.83,1.83-1.83h1.12c.32,0,.59.27.59.59s-.27.59-.59.59h-1.12c-.37,0-.62.31-.62.65s.26.65.62.65h2.16v-2.49c0-.59-.41-1.05-1.02-1.05h-1.89c-.32,0-.59-.27-.59-.59s.27-.59.59-.59h1.89c1.25,0,2.23.99,2.23,2.21v3.08c0,.33-.21.6-.6.6h-2.76Z"/>
    <path class="cls-1" d="M85.15,211.18c-1.78,0-3.04-1.32-3.04-2.95s1.26-2.95,3.04-2.95h1.22c.32,0,.59.27.59.59s-.27.59-.59.59h-1.22c-1.07,0-1.84.8-1.84,1.77s.77,1.77,1.84,1.77h1.22c.32,0,.59.27.59.59s-.27.59-.59.59h-1.22Z"/>
    <path class="cls-1" d="M90.74,211.18c-1.15,0-2.08-.94-2.08-2.08v-2.64h-.7c-.32,0-.59-.27-.59-.59s.27-.59.59-.59h.7v-1.18c0-.33.27-.6.6-.6s.6.27.6.6v1.18h1.55c.32,0,.59.27.59.59s-.27.59-.59.59h-1.55v2.65c0,.5.38.89.89.89h.66c.32,0,.59.27.59.59s-.27.59-.59.59h-.67Z"/>
    <path class="cls-1" d="M93.43,204.3c-.41,0-.74-.32-.74-.73s.33-.73.74-.73.75.32.75.73-.33.73-.75.73ZM92.83,205.79c0-.33.27-.6.6-.6s.6.27.6.6v4.87c0,.33-.27.6-.6.6s-.6-.27-.6-.6v-4.87Z"/>
    <path class="cls-1" d="M97.98,211.18c-1.78,0-3.04-1.32-3.04-2.95s1.26-2.95,3.04-2.95h.7c1.12,0,1.87.79,1.87,1.77s-.75,1.77-1.87,1.77h-1.12c-.32,0-.59-.27-.59-.59s.27-.59.59-.59h1.12c.4,0,.67-.27.67-.59s-.27-.59-.67-.59h-.7c-1.07,0-1.84.8-1.84,1.77s.77,1.77,1.84,1.77h1.7c.32,0,.59.27.59.59s-.27.59-.59.59h-1.7Z"/>
    <path class="cls-1" d="M102.67,208.34v2.33c0,.33-.27.6-.6.6s-.6-.27-.6-.6v-7.23c0-.33.27-.6.6-.6s.6.27.6.6v4.69l2.75-2.75c.23-.23.6-.23.83,0,.22.23.22.6,0,.83l-2.03,2.03,2.03,2.03c.23.23.22.6,0,.83-.23.23-.6.23-.83,0l-2.75-2.75Z"/>
    <path class="cls-1" d="M108.75,211.18c-1.08,0-1.83-.82-1.83-1.83s.75-1.83,1.83-1.83h1.12c.32,0,.59.27.59.59s-.27.59-.59.59h-1.12c-.37,0-.62.31-.62.65s.26.65.62.65h2.16v-2.49c0-.59-.41-1.05-1.02-1.05h-1.89c-.32,0-.59-.27-.59-.59s.27-.59.59-.59h1.89c1.25,0,2.23.99,2.23,2.21v3.08c0,.33-.21.6-.6.6h-2.76Z"/>
    <path class="cls-1" d="M114.87,211.18c-1.08,0-1.83-.82-1.83-1.83s.75-1.83,1.83-1.83h1.12c.32,0,.59.27.59.59s-.27.59-.59.59h-1.12c-.37,0-.62.31-.62.65s.26.65.62.65h2.16v-2.49c0-.59-.41-1.05-1.02-1.05h-1.89c-.32,0-.59-.27-.59-.59s.27-.59.59-.59h1.89c1.25,0,2.23.99,2.23,2.21v3.08c0,.33-.21.6-.6.6h-2.76Z"/>
    <path class="cls-1" d="M123.96,207.58c0,.33-.27.6-.6.6s-.6-.27-.6-.59v-.08c0-.59-.43-1.06-1.06-1.06h-1.06v4.21c0,.33-.27.6-.6.6s-.6-.27-.6-.6v-4.79c0-.33.27-.6.6-.6h1.66c1.27,0,2.26,1.01,2.26,2.24v.07Z"/>
    <path class="cls-1" d="M127.61,211.18c-1.15,0-2.08-.94-2.08-2.08v-2.64h-.7c-.32,0-.59-.27-.59-.59s.27-.59.59-.59h.7v-1.18c0-.33.27-.6.6-.6s.6.27.6.6v1.18h1.55c.32,0,.59.27.59.59s-.27.59-.59.59h-1.55v2.65c0,.5.38.89.89.89h.66c.32,0,.59.27.59.59s-.27.59-.59.59h-.67Z"/>
    <path class="cls-1" d="M27.75,223.39c0-.63-.52-1.16-1.16-1.16h-1.06v4.21c0,.33-.27.6-.6.6s-.6-.27-.6-.6v-4.21h-2.19v4.21c0,.33-.27.6-.6.6s-.6-.27-.6-.6v-4.79c0-.33.27-.6.6-.6h5.05c1.3,0,2.36,1.06,2.36,2.36v3.03c0,.33-.27.6-.6.6s-.6-.27-.6-.6v-3.05Z"/>
    <path class="cls-1" d="M33,227.1c-1.84,0-3.13-1.38-3.13-3.09s1.29-3.09,3.13-3.09,3.13,1.38,3.13,3.09-1.3,3.09-3.13,3.09ZM33,222.08c-1.11,0-1.93.87-1.93,1.92s.81,1.93,1.93,1.93,1.92-.87,1.92-1.93-.81-1.92-1.92-1.92Z"/>
    <path class="cls-1" d="M39.9,226.95c-1.78,0-3.04-1.32-3.04-2.95s1.26-2.95,3.04-2.95h.7c1.12,0,1.87.79,1.87,1.77s-.74,1.77-1.87,1.77h-1.12c-.32,0-.59-.27-.59-.59s.27-.59.59-.59h1.12c.4,0,.67-.27.67-.59s-.27-.59-.67-.59h-.7c-1.07,0-1.84.8-1.84,1.77s.77,1.77,1.84,1.77h1.7c.32,0,.59.27.59.59s-.27.59-.59.59h-1.7Z"/>
    <path class="cls-1" d="M46.27,226.95c-1.15,0-2.08-.94-2.08-2.08v-2.64h-.7c-.32,0-.59-.27-.59-.59s.27-.59.59-.59h.7v-1.18c0-.33.27-.6.6-.6s.6.27.6.6v1.18h1.55c.32,0,.59.27.59.59s-.27.59-.59.59h-1.55v2.65c0,.5.38.89.89.89h.66c.32,0,.59.27.59.59s-.27.59-.59.59h-.67Z"/>
    <path class="cls-1" d="M51.4,220.07c-.41,0-.74-.32-.74-.73s.33-.73.74-.73.75.32.75.73-.33.73-.75.73ZM50.8,221.56c0-.33.27-.6.6-.6s.6.27.6.6v4.87c0,.33-.27.6-.6.6s-.6-.27-.6-.6v-4.87Z"/>
    <path class="cls-1" d="M57.08,223.39c0-.63-.52-1.16-1.16-1.16h-1.51v4.21c0,.33-.27.6-.6.6s-.6-.27-.6-.6v-4.79c0-.33.27-.6.6-.6h2.12c1.3,0,2.36,1.06,2.36,2.36v3.03c0,.33-.27.6-.6.6s-.6-.27-.6-.6v-3.05Z"/>
    <path class="cls-1" d="M62.24,226.95c-1.78,0-3.04-1.32-3.04-2.95s1.26-2.95,3.04-2.95h1.22c.32,0,.59.27.59.59s-.27.59-.59.59h-1.22c-1.07,0-1.84.8-1.84,1.77s.77,1.77,1.84,1.77h1.22c.32,0,.59.27.59.59s-.27.59-.59.59h-1.22Z"/>
    <path class="cls-1" d="M66.34,226.95c-1.08,0-1.83-.82-1.83-1.83s.74-1.83,1.83-1.83h1.12c.32,0,.59.27.59.59s-.27.59-.59.59h-1.12c-.37,0-.62.31-.62.65s.26.65.62.65h2.16v-2.49c0-.59-.41-1.05-1.02-1.05h-1.89c-.32,0-.59-.27-.59-.59s.27-.59.59-.59h1.89c1.25,0,2.23.99,2.23,2.21v3.08c0,.33-.21.6-.6.6h-2.76Z"/>
    <path class="cls-1" d="M71.37,226.95c-.32,0-.59-.27-.59-.59s.27-.59.59-.59h2.49c.4,0,.67-.27.67-.59s-.27-.59-.67-.59h-1.38c-1.12,0-1.87-.79-1.87-1.77s.74-1.77,1.87-1.77h2.49c.32,0,.59.27.59.59s-.27.59-.59.59h-2.49c-.4,0-.67.27-.67.59s.27.59.67.59h1.38c1.12,0,1.87.79,1.87,1.77s-.75,1.77-1.87,1.77h-2.49Z"/>
    <path class="cls-1" d="M77.12,226.95c-.32,0-.59-.27-.59-.59s.27-.59.59-.59h2.49c.4,0,.67-.27.67-.59s-.27-.59-.67-.59h-1.38c-1.12,0-1.87-.79-1.87-1.77s.74-1.77,1.87-1.77h2.49c.32,0,.59.27.59.59s-.27.59-.59.59h-2.49c-.4,0-.67.27-.67.59s.27.59.67.59h1.38c1.12,0,1.87.79,1.87,1.77s-.75,1.77-1.87,1.77h-2.49Z"/>
    <path class="cls-1" d="M85.14,226.95c-1.78,0-3.04-1.32-3.04-2.95s1.26-2.95,3.04-2.95h.7c1.12,0,1.87.79,1.87,1.77s-.74,1.77-1.87,1.77h-1.12c-.32,0-.59-.27-.59-.59s.27-.59.59-.59h1.12c.4,0,.67-.27.67-.59s-.27-.59-.67-.59h-.7c-1.07,0-1.84.8-1.84,1.77s.77,1.77,1.84,1.77h1.7c.32,0,.59.27.59.59s-.27.59-.59.59h-1.7Z"/>
    <path class="cls-1" d="M93.15,223.36c0,.33-.27.6-.6.6s-.6-.27-.6-.59v-.08c0-.59-.43-1.06-1.06-1.06h-1.06v4.21c0,.33-.27.6-.6.6s-.6-.27-.6-.6v-4.79c0-.33.27-.6.6-.6h1.66c1.27,0,2.26,1.01,2.26,2.24v.07Z"/>
    <path class="cls-1" d="M96.84,226.95c-1.78,0-3.04-1.32-3.04-2.95s1.26-2.95,3.04-2.95h.7c1.12,0,1.87.79,1.87,1.77s-.75,1.77-1.87,1.77h-1.12c-.32,0-.59-.27-.59-.59s.27-.59.59-.59h1.12c.4,0,.67-.27.67-.59s-.27-.59-.67-.59h-.7c-1.07,0-1.84.8-1.84,1.77s.77,1.77,1.84,1.77h1.7c.32,0,.59.27.59.59s-.27.59-.59.59h-1.7Z"/>
    <path class="cls-1" d="M104.19,223.39c0-.63-.52-1.16-1.16-1.16h-1.51v4.21c0,.33-.27.6-.6.6s-.6-.27-.6-.6v-4.79c0-.33.27-.6.6-.6h2.12c1.3,0,2.36,1.06,2.36,2.36v3.03c0,.33-.27.6-.6.6s-.6-.27-.6-.6v-3.05Z"/>
  </g>
</svg>