<?xml version="1.0" encoding="UTF-8"?>
<svg id="Laag_1" data-name="Laag 1" xmlns="http://www.w3.org/2000/svg" viewBox="0 0 164.41 249.45">
  <defs>
    <style>
      .cls-1 {
        stroke: #fff;
        stroke-width: .46px;
      }

      .cls-1, .cls-2 {
        stroke-miterlimit: 10;
      }

      .cls-1, .cls-2, .cls-3 {
        fill: #fff;
      }

      .cls-2 {
        stroke-width: 2.74px;
      }

      .cls-2, .cls-4 {
        stroke: #1d1d1b;
      }

      .cls-4 {
        fill: #f7f7f7;
        stroke-linecap: round;
        stroke-linejoin: round;
        stroke-width: 2.72px;
      }

      .cls-5 {
        fill: #2f2f2f;
      }

      .cls-5, .cls-6, .cls-7, .cls-8, .cls-3 {
        stroke-width: 0px;
      }

      .cls-6 {
        fill: #1d1d1b;
      }

      .cls-7 {
        fill: #de2b65;
      }

      .cls-8 {
        fill: #8abb2a;
      }
    </style>
  </defs>
  <rect class="cls-5" x="0" y="0" width="164.41" height="249.45"/>
  <g>
    <path class="cls-7" d="M141.74,206.68c-4.35,0-7.89-3.7-7.89-8.26s3.54-8.25,7.89-8.25,7.89,3.7,7.89,8.25-3.54,8.26-7.89,8.26Z"/>
    <path class="cls-6" d="M141.74,191.17c3.8,0,6.89,3.25,6.89,7.26s-3.09,7.26-6.89,7.26-6.89-3.25-6.89-7.26,3.09-7.26,6.89-7.26M141.74,189.17c-4.91,0-8.89,4.14-8.89,9.26s3.98,9.26,8.89,9.26,8.89-4.14,8.89-9.26-3.98-9.26-8.89-9.26h0Z"/>
  </g>
  <g>
    <ellipse class="cls-8" cx="141.74" cy="226.17" rx="7.89" ry="8.26"/>
    <path class="cls-6" d="M141.74,218.92c3.8,0,6.89,3.25,6.89,7.26s-3.09,7.26-6.89,7.26-6.89-3.25-6.89-7.26,3.09-7.26,6.89-7.26M141.74,216.92c-4.91,0-8.89,4.14-8.89,9.26s3.98,9.26,8.89,9.26,8.89-4.14,8.89-9.26-3.98-9.26-8.89-9.26h0Z"/>
  </g>
  <g>
    <path class="cls-3" d="M59.6,37.76c-.02.35.06.73.24,1.15.17.42.42.8.74,1.15.32.35.7.65,1.14.89.44.24.91.36,1.41.36.2,0,.44-.02.71-.06.27-.04.54-.12.79-.25s.46-.3.64-.51.26-.5.26-.85c0-.45-.15-.85-.44-1.2-.29-.35-.64-.66-1.04-.94-.4-.28-.81-.51-1.22-.7-.42-.19-.75-.35-1-.49-.82-.43-1.5-.87-2.05-1.3-.55-.43-1-.88-1.34-1.32-.34-.45-.59-.93-.74-1.43s-.22-1.03-.22-1.6c0-.7.14-1.35.41-1.94s.67-1.1,1.17-1.54,1.13-.77,1.88-1.01,1.59-.36,2.54-.36,1.87.13,2.7.4c.83.27,1.5.66,2,1.17.5.52.78,1.14.84,1.88.06.73-.21,1.58-.81,2.53-.05-.53-.22-1-.5-1.39s-.62-.7-1.03-.94c-.4-.23-.83-.39-1.29-.46-.46-.08-.89-.08-1.29-.01-.25.05-.49.12-.73.21-.23.09-.44.22-.62.39-.18.17-.33.37-.42.61-.1.24-.14.52-.12.84.02.33.07.62.16.88s.26.5.5.74.57.5.99.76c.42.27.97.58,1.65.95.93.52,1.67,1,2.23,1.46.55.46.97.91,1.26,1.36.29.45.48.9.56,1.35.08.45.12.92.12,1.42,0,.6-.15,1.17-.44,1.7-.29.53-.7,1-1.21,1.4-.52.4-1.12.72-1.83.96-.7.24-1.46.38-2.28.41-1.05.03-2-.13-2.86-.49-.86-.36-1.52-.85-1.99-1.47s-.68-1.35-.65-2.16.43-1.67,1.18-2.55Z"/>
    <path class="cls-3" d="M72.53,26.51c.92-.07,1.69.1,2.33.49s1.14.94,1.51,1.65c.38.71.64,1.54.79,2.49.15.95.2,1.95.15,3,.65-.37,1.26-.73,1.84-1.09.57-.36,1.14-.74,1.69-1.15.55-.41,1.1-.85,1.65-1.34s1.12-1.04,1.73-1.68c.72,1.63.77,3.12.15,4.48-.62,1.35-1.99,2.61-4.12,3.77.63,1.2,1.42,2.44,2.38,3.71s2.06,2.46,3.33,3.56c-.77-.02-1.57-.15-2.41-.41-.84-.26-1.68-.63-2.5-1.11-.83-.48-1.62-1.07-2.38-1.77-.76-.7-1.44-1.52-2.04-2.45-.2.75-.43,1.46-.7,2.12-.27.67-.56,1.27-.89,1.81-.33.54-.67,1-1.03,1.38s-.74.65-1.14.81c.05-.43.09-1.12.11-2.05.03-.93.04-1.99.05-3.17,0-1.18,0-2.43-.01-3.75s-.05-2.58-.09-3.79c-.04-1.21-.1-2.3-.16-3.29-.07-.98-.14-1.73-.23-2.23Z"/>
    <path class="cls-3" d="M87.63,25.21c1.47-.02,2.53.18,3.19.59.66.41.97.89.95,1.45-.03.56-.37,1.12-1.04,1.69s-1.59,1-2.77,1.3c.02-.55.02-1.03.01-1.42,0-.4-.02-.78-.05-1.15-.02-.37-.06-.74-.11-1.11s-.11-.82-.17-1.34ZM87.7,31.71c.93-.05,1.71.07,2.34.36.62.29,1.12.71,1.48,1.24.36.53.6,1.16.71,1.88s.13,1.46.05,2.24c-.08.77-.25,1.55-.5,2.33-.25.77-.56,1.5-.94,2.17s-.8,1.27-1.29,1.77c-.48.51-.99.87-1.53,1.09.05-.43.09-.99.11-1.66.02-.68.04-1.41.05-2.21,0-.8,0-1.63-.01-2.5-.02-.87-.05-1.71-.09-2.54-.04-.83-.1-1.6-.16-2.33-.07-.73-.14-1.34-.22-1.84Z"/>
    <path class="cls-3" d="M95.1,29.59c.65-.05,1.22.03,1.71.24.49.21.93.5,1.31.89.38-.3.85-.51,1.39-.62.54-.12,1.1-.16,1.69-.12.92.05,1.76.28,2.54.69.77.41,1.45.95,2.01,1.61.57.67,1,1.43,1.31,2.29.31.86.45,1.77.44,2.74-.02.93-.16,1.8-.44,2.59-.28.79-.67,1.48-1.19,2.06-.52.58-1.15,1.05-1.9,1.39-.75.34-1.61.52-2.58.54-.87.02-1.67-.12-2.42-.42-.2.7-.43,1.36-.7,1.99s-.55,1.18-.85,1.67c-.3.49-.62.91-.95,1.26-.33.35-.68.6-1.05.75.05-.43.09-1.15.11-2.14.03-.99.04-2.13.05-3.41s0-2.64-.01-4.06c-.02-1.43-.05-2.79-.09-4.09-.04-1.3-.1-2.47-.16-3.51-.07-1.04-.14-1.81-.22-2.31ZM99.2,32.54c.22.58.38,1.22.5,1.91.12.69.18,1.41.2,2.16s-.01,1.52-.09,2.31c-.08.79-.19,1.57-.34,2.34.17-.02.33-.03.49-.05s.32-.05.49-.1c1.77-.43,2.62-1.74,2.58-3.92-.02-.55-.1-1.09-.26-1.62s-.38-1.01-.67-1.43c-.29-.42-.64-.77-1.04-1.05-.4-.28-.85-.45-1.35-.5-.08-.02-.17-.02-.25-.02s-.17,0-.25-.03Z"/>
  </g>
  <g>
    <path class="cls-1" d="M18.72,197.09c-.33,0-.61-.28-.61-.61v-5.85c0-.33.28-.61.61-.61h1.89c2.01,0,3.56,1.53,3.56,3.54s-1.55,3.54-3.56,3.54h-1.89ZM20.61,195.91c1.32,0,2.34-1.01,2.34-2.36s-1.01-2.36-2.34-2.36h-1.28v4.72h1.28Z"/>
    <path class="cls-1" d="M27.86,197.09c-1.78,0-3.04-1.32-3.04-2.95s1.26-2.95,3.04-2.95h.7c1.12,0,1.87.79,1.87,1.77s-.74,1.77-1.87,1.77h-1.12c-.32,0-.59-.27-.59-.59s.27-.59.59-.59h1.12c.4,0,.67-.27.67-.59s-.27-.59-.67-.59h-.7c-1.07,0-1.83.8-1.83,1.77s.77,1.77,1.83,1.77h1.7c.32,0,.59.27.59.59s-.27.59-.59.59h-1.7Z"/>
    <path class="cls-1" d="M34.99,197.09v1.85c0,.33-.27.6-.6.6s-.6-.27-.6-.6v-7.14c0-.33.27-.6.6-.6h1.97c1.78,0,3.04,1.32,3.04,2.95s-1.26,2.95-3.04,2.95h-1.37ZM36.36,195.91c1.07,0,1.84-.8,1.84-1.77s-.77-1.77-1.84-1.77h-1.37v3.54h1.37Z"/>
    <path class="cls-1" d="M43.17,197.09c-1.78,0-3.04-1.32-3.04-2.95s1.26-2.95,3.04-2.95h.7c1.12,0,1.87.79,1.87,1.77s-.74,1.77-1.87,1.77h-1.12c-.32,0-.59-.27-.59-.59s.27-.59.59-.59h1.12c.4,0,.67-.27.67-.59s-.27-.59-.67-.59h-.7c-1.07,0-1.83.8-1.83,1.77s.77,1.77,1.83,1.77h1.7c.32,0,.59.27.59.59s-.27.59-.59.59h-1.7Z"/>
    <path class="cls-1" d="M51.17,193.5c0,.33-.27.6-.6.6s-.6-.27-.6-.59v-.08c0-.59-.43-1.06-1.06-1.06h-1.06v4.2c0,.33-.27.6-.6.6s-.6-.27-.6-.6v-4.78c0-.33.27-.6.6-.6h1.66c1.27,0,2.26,1.01,2.26,2.23v.07Z"/>
    <path class="cls-1" d="M52.57,197.09c-.32,0-.59-.27-.59-.59s.27-.59.59-.59h2.49c.4,0,.67-.27.67-.59s-.27-.59-.67-.59h-1.38c-1.12,0-1.87-.79-1.87-1.77s.74-1.77,1.87-1.77h2.49c.32,0,.59.27.59.59s-.27.59-.59.59h-2.49c-.4,0-.67.27-.67.59s.27.59.67.59h1.38c1.12,0,1.87.79,1.87,1.77s-.75,1.77-1.87,1.77h-2.49Z"/>
    <path class="cls-1" d="M60.68,197.24c-1.83,0-3.12-1.38-3.12-3.09s1.29-3.09,3.12-3.09,3.12,1.38,3.12,3.09-1.3,3.09-3.12,3.09ZM60.68,192.22c-1.11,0-1.92.87-1.92,1.92s.81,1.92,1.92,1.92,1.92-.87,1.92-1.92-.81-1.92-1.92-1.92Z"/>
    <path class="cls-1" d="M67.67,197.24c-1.83,0-3.12-1.38-3.12-3.09s1.29-3.09,3.12-3.09,3.12,1.38,3.12,3.09-1.3,3.09-3.12,3.09ZM67.67,192.22c-1.11,0-1.92.87-1.92,1.92s.81,1.92,1.92,1.92,1.92-.87,1.92-1.92-.81-1.92-1.92-1.92Z"/>
    <path class="cls-1" d="M75.58,193.53c0-.63-.52-1.16-1.16-1.16h-1.51v4.2c0,.33-.27.6-.6.6s-.6-.27-.6-.6v-4.78c0-.33.27-.6.6-.6h2.11c1.3,0,2.36,1.06,2.36,2.36v3.02c0,.33-.27.6-.6.6s-.6-.27-.6-.6v-3.05Z"/>
    <path class="cls-1" d="M84.3,193.53c0-.63-.52-1.16-1.16-1.16h-1.51v4.2c0,.33-.27.6-.6.6s-.6-.27-.6-.6v-4.78c0-.33.27-.6.6-.6h2.11c1.3,0,2.36,1.06,2.36,2.36v3.02c0,.33-.27.6-.6.6s-.6-.27-.6-.6v-3.05Z"/>
    <path class="cls-1" d="M88.27,197.09c-1.08,0-1.82-.82-1.82-1.82s.75-1.82,1.82-1.82h1.12c.32,0,.59.27.59.59s-.27.59-.59.59h-1.12c-.37,0-.62.31-.62.64s.26.64.62.64h2.16v-2.49c0-.59-.41-1.04-1.02-1.04h-1.89c-.32,0-.59-.27-.59-.59s.27-.59.59-.59h1.89c1.25,0,2.22.99,2.22,2.21v3.08c0,.33-.21.6-.6.6h-2.76Z"/>
    <path class="cls-1" d="M93.66,199.45c-.32,0-.59-.27-.59-.59s.27-.59.59-.59h.23c1,0,1.38-.52,1.38-1.51v-5.05c0-.33.27-.6.6-.6s.6.27.6.6v5.04c0,1.66-.85,2.7-2.57,2.7h-.25ZM95.88,190.22c-.41,0-.74-.32-.74-.73s.33-.73.74-.73.75.32.75.73-.33.73-.75.73Z"/>
    <path class="cls-1" d="M100.52,197.24c-1.83,0-3.12-1.38-3.12-3.09s1.29-3.09,3.12-3.09,3.12,1.38,3.12,3.09-1.3,3.09-3.12,3.09ZM100.52,192.22c-1.11,0-1.92.87-1.92,1.92s.81,1.92,1.92,1.92,1.92-.87,1.92-1.92-.81-1.92-1.92-1.92Z"/>
    <path class="cls-1" d="M108.45,191.71c0-.33.27-.6.6-.6s.6.27.6.6v2.98c0,1.4-1.15,2.55-2.55,2.55s-2.55-1.15-2.55-2.55v-2.98c0-.33.27-.6.6-.6s.6.27.6.6v3.01c0,.73.61,1.35,1.35,1.35s1.35-.61,1.35-1.35v-3.01Z"/>
    <path class="cls-1" d="M24.91,209.3c0-.63-.52-1.16-1.16-1.16h-1.06v4.2c0,.33-.27.6-.6.6s-.6-.27-.6-.6v-4.2h-2.19v4.2c0,.33-.27.6-.6.6s-.6-.27-.6-.6v-4.78c0-.33.27-.6.6-.6h5.05c1.3,0,2.36,1.06,2.36,2.36v3.02c0,.33-.27.6-.6.6s-.6-.27-.6-.6v-3.05Z"/>
    <path class="cls-1" d="M30.15,213c-1.84,0-3.12-1.38-3.12-3.09s1.29-3.09,3.12-3.09,3.12,1.38,3.12,3.09-1.3,3.09-3.12,3.09ZM30.15,207.99c-1.11,0-1.92.87-1.92,1.92s.81,1.92,1.92,1.92,1.92-.87,1.92-1.92-.81-1.92-1.92-1.92Z"/>
    <path class="cls-1" d="M37.05,212.86c-1.78,0-3.04-1.32-3.04-2.95s1.26-2.95,3.04-2.95h.7c1.12,0,1.87.79,1.87,1.77s-.75,1.77-1.87,1.77h-1.12c-.32,0-.59-.27-.59-.59s.27-.59.59-.59h1.12c.4,0,.67-.27.67-.59s-.27-.59-.67-.59h-.7c-1.07,0-1.84.8-1.84,1.77s.77,1.77,1.84,1.77h1.7c.32,0,.59.27.59.59s-.27.59-.59.59h-1.7Z"/>
    <path class="cls-1" d="M43.41,212.86c-1.15,0-2.08-.93-2.08-2.08v-2.64h-.7c-.32,0-.59-.27-.59-.59s.27-.59.59-.59h.7v-1.18c0-.33.27-.6.6-.6s.6.27.6.6v1.18h1.55c.32,0,.59.27.59.59s-.27.59-.59.59h-1.55v2.65c0,.5.38.89.89.89h.66c.32,0,.59.27.59.59s-.27.59-.59.59h-.67Z"/>
    <path class="cls-1" d="M50.69,212.86c-1.78,0-3.04-1.32-3.04-2.95s1.26-2.95,3.04-2.95h.7c1.12,0,1.87.79,1.87,1.77s-.75,1.77-1.87,1.77h-1.12c-.32,0-.59-.27-.59-.59s.27-.59.59-.59h1.12c.4,0,.67-.27.67-.59s-.27-.59-.67-.59h-.7c-1.07,0-1.84.8-1.84,1.77s.77,1.77,1.84,1.77h1.7c.32,0,.59.27.59.59s-.27.59-.59.59h-1.7Z"/>
    <path class="cls-1" d="M57.03,212.86c-1.78,0-3.04-1.32-3.04-2.95s1.26-2.95,3.04-2.95h.7c1.12,0,1.87.79,1.87,1.77s-.75,1.77-1.87,1.77h-1.12c-.32,0-.59-.27-.59-.59s.27-.59.59-.59h1.12c.4,0,.67-.27.67-.59s-.27-.59-.67-.59h-.7c-1.07,0-1.84.8-1.84,1.77s.77,1.77,1.84,1.77h1.7c.32,0,.59.27.59.59s-.27.59-.59.59h-1.7Z"/>
    <path class="cls-1" d="M64.39,209.3c0-.63-.52-1.16-1.16-1.16h-1.51v4.2c0,.33-.27.6-.6.6s-.6-.27-.6-.6v-4.78c0-.33.27-.6.6-.6h2.11c1.3,0,2.36,1.06,2.36,2.36v3.02c0,.33-.27.6-.6.6s-.6-.27-.6-.6v-3.05Z"/>
    <path class="cls-1" d="M69.84,212.86c-.33,0-.6-.27-.6-.6v-7.14c0-.33.27-.6.6-.6s.6.27.6.6v1.85h1.37c1.78,0,3.04,1.32,3.04,2.95s-1.26,2.95-3.04,2.95h-1.97ZM71.81,211.68c1.07,0,1.84-.8,1.84-1.77s-.77-1.77-1.84-1.77h-1.37v3.54h1.37Z"/>
    <path class="cls-1" d="M78.62,212.86c-1.78,0-3.04-1.32-3.04-2.95s1.26-2.95,3.04-2.95h.7c1.12,0,1.87.79,1.87,1.77s-.74,1.77-1.87,1.77h-1.12c-.32,0-.59-.27-.59-.59s.27-.59.59-.59h1.12c.4,0,.67-.27.67-.59s-.27-.59-.67-.59h-.7c-1.07,0-1.83.8-1.83,1.77s.77,1.77,1.83,1.77h1.7c.32,0,.59.27.59.59s-.27.59-.59.59h-1.7Z"/>
    <path class="cls-1" d="M85.99,207.47c0-.33.27-.6.6-.6s.6.27.6.6v2.98c0,1.4-1.14,2.55-2.55,2.55s-2.55-1.15-2.55-2.55v-2.98c0-.33.27-.6.6-.6s.6.27.6.6v3.01c0,.73.61,1.35,1.35,1.35s1.35-.61,1.35-1.35v-3.01Z"/>
    <path class="cls-1" d="M92.92,209.26c0,.33-.27.6-.6.6s-.6-.27-.6-.59v-.08c0-.59-.43-1.06-1.06-1.06h-1.06v4.2c0,.33-.27.6-.6.6s-.6-.27-.6-.6v-4.78c0-.33.27-.6.6-.6h1.66c1.27,0,2.26,1.01,2.26,2.23v.07Z"/>
    <path class="cls-1" d="M96.57,212.86c-1.15,0-2.08-.93-2.08-2.08v-2.64h-.7c-.32,0-.59-.27-.59-.59s.27-.59.59-.59h.7v-1.18c0-.33.27-.6.6-.6s.6.27.6.6v1.18h1.55c.32,0,.59.27.59.59s-.27.59-.59.59h-1.55v2.65c0,.5.38.89.89.89h.66c.32,0,.59.27.59.59s-.27.59-.59.59h-.67Z"/>
    <path class="cls-1" d="M20.94,228.76c-1.83,0-3.12-1.38-3.12-3.09s1.29-3.09,3.12-3.09,3.12,1.38,3.12,3.09-1.3,3.09-3.12,3.09ZM20.94,223.75c-1.11,0-1.92.87-1.92,1.92s.81,1.92,1.92,1.92,1.92-.87,1.92-1.92-.81-1.92-1.92-1.92Z"/>
    <path class="cls-1" d="M24.49,223.48c-.13-.3,0-.66.3-.79.3-.14.66,0,.79.3l1.74,4,1.74-4c.13-.3.49-.45.79-.3.3.13.43.49.3.79l-2.16,4.8c-.11.26-.35.43-.67.43s-.56-.18-.67-.43l-2.16-4.8Z"/>
    <path class="cls-1" d="M33.6,228.62c-1.78,0-3.04-1.32-3.04-2.95s1.26-2.95,3.04-2.95h.7c1.12,0,1.87.79,1.87,1.77s-.75,1.77-1.87,1.77h-1.12c-.32,0-.59-.27-.59-.59s.27-.59.59-.59h1.12c.4,0,.67-.27.67-.59s-.27-.59-.67-.59h-.7c-1.07,0-1.84.8-1.84,1.77s.77,1.77,1.84,1.77h1.7c.32,0,.59.27.59.59s-.27.59-.59.59h-1.7Z"/>
    <path class="cls-1" d="M41.6,225.03c0,.33-.27.6-.6.6s-.6-.27-.6-.59v-.08c0-.59-.43-1.06-1.06-1.06h-1.06v4.2c0,.33-.27.6-.6.6s-.6-.27-.6-.6v-4.78c0-.33.27-.6.6-.6h1.66c1.27,0,2.26,1.01,2.26,2.23v.07Z"/>
    <path class="cls-1" d="M43,228.62c-.32,0-.59-.27-.59-.59s.27-.59.59-.59h2.49c.4,0,.67-.27.67-.59s-.27-.59-.67-.59h-1.38c-1.12,0-1.87-.79-1.87-1.77s.75-1.77,1.87-1.77h2.49c.32,0,.59.27.59.59s-.27.59-.59.59h-2.49c-.4,0-.67.27-.67.59s.27.59.67.59h1.38c1.12,0,1.87.79,1.87,1.77s-.74,1.77-1.87,1.77h-2.49Z"/>
    <path class="cls-1" d="M48.28,220.88c0-.33.27-.6.6-.6s.6.27.6.6v7.23c0,.33-.27.6-.6.6s-.6-.27-.6-.6v-7.23Z"/>
    <path class="cls-1" d="M52.24,228.62c-1.08,0-1.82-.82-1.82-1.82s.75-1.82,1.82-1.82h1.12c.32,0,.59.27.59.59s-.27.59-.59.59h-1.12c-.37,0-.62.31-.62.64s.26.64.62.64h2.16v-2.49c0-.59-.41-1.04-1.02-1.04h-1.89c-.32,0-.59-.27-.59-.59s.27-.59.59-.59h1.89c1.25,0,2.22.99,2.22,2.21v3.08c0,.33-.21.6-.6.6h-2.76Z"/>
    <path class="cls-1" d="M58.36,228.62c-1.08,0-1.82-.82-1.82-1.82s.75-1.82,1.82-1.82h1.12c.32,0,.59.27.59.59s-.27.59-.59.59h-1.12c-.37,0-.62.31-.62.64s.26.64.62.64h2.16v-2.49c0-.59-.41-1.04-1.02-1.04h-1.89c-.32,0-.59-.27-.59-.59s.27-.59.59-.59h1.89c1.25,0,2.22.99,2.22,2.21v3.08c0,.33-.21.6-.6.6h-2.76Z"/>
    <path class="cls-1" d="M66.79,225.06c0-.63-.52-1.16-1.16-1.16h-1.51v4.2c0,.33-.27.6-.6.6s-.6-.27-.6-.6v-4.78c0-.33.27-.6.6-.6h2.11c1.3,0,2.36,1.06,2.36,2.36v3.02c0,.33-.27.6-.6.6s-.6-.27-.6-.6v-3.05Z"/>
  </g>
  <g>
    <g>
      <path class="cls-4" d="M127.99,141.43c0,4.57-1.87,8.73-4.89,11.75-3.02,3.02-7.17,4.89-11.75,4.89h-12.91c-8.88,0-16.19-7.05-16.61-15.83-.01-.27-.02-.53-.02-.8v-12.13c0-3.04,2.33-5.64,5.37-5.82,1.25-.07,2.42.26,3.4.89v-15.44c0-3.01,2.28-5.58,5.28-5.8,1.24-.09,2.27.21,3.24.81.44-2.72,2.96-4.8,5.79-4.8,1.57,0,3,.64,4.03,1.68.85.85,1.42,1.87,1.59,3.12.9-.59,2-.83,3.14-.83,1.57,0,3,.64,4.03,1.68.94.94,1.49,2.06,1.59,3.45.85-.51,1.92-.66,2.98-.66,1.57,0,3,.64,4.03,1.68,1.03,1.03,1.68,2.46,1.68,4.03v24.33"/>
      <line class="cls-4" x1="99.11" y1="126.28" x2="99.11" y2="103.94"/>
      <line class="cls-4" x1="110.53" y1="126.28" x2="110.53" y2="103.94"/>
      <line class="cls-4" x1="119.3" y1="126.28" x2="119.3" y2="108.24"/>
      <line class="cls-4" x1="127.99" y1="137.29" x2="127.99" y2="141.43"/>
      <line class="cls-4" x1="90.58" y1="138.03" x2="90.58" y2="124.38"/>
    </g>
    <circle class="cls-2" cx="60.59" cy="81.52" r="24.15"/>
    <circle class="cls-2" cx="60.81" cy="81.52" r="19.25"/>
    <line class="cls-2" x1="59.17" y1="83.92" x2="59.17" y2="65.94"/>
    <line class="cls-2" x1="77.1" y1="82.62" x2="57.85" y2="82.62"/>
  </g>
</svg>