<?xml version="1.0" encoding="UTF-8"?>
<svg id="Laag_1" data-name="Laag 1" xmlns="http://www.w3.org/2000/svg" viewBox="0 0 164.41 249.45">
  <defs>
    <style>
      .cls-1 {
        stroke: #1d1e1c;
        stroke-linecap: round;
        stroke-linejoin: round;
        stroke-width: 5px;
      }

      .cls-1, .cls-2 {
        fill: #1d1d1b;
      }

      .cls-2, .cls-3 {
        stroke-width: 0px;
      }

      .cls-3 {
        fill: #eb7c19;
      }
    </style>
  </defs>
  <rect class="cls-3" x="0" y="0" width="164.41" height="249.45"/>
  <path class="cls-2" d="M24.06,41.75c.84.12,1.61.09,2.32-.09s1.32-.47,1.84-.88c.52-.41.92-.92,1.21-1.53.29-.61.44-1.28.47-2,.02-1.03-.17-1.87-.59-2.5-.42-.64-.99-1.12-1.71-1.46-.72-.34-1.56-.57-2.52-.7-.96-.13-1.97-.22-3.02-.27l.07-.97c.91-.12,1.82-.3,2.72-.54.9-.24,1.71-.56,2.43-.95.72-.4,1.3-.88,1.75-1.46.44-.58.67-1.26.67-2.05,0-.26-.05-.52-.14-.76-.1-.24-.28-.45-.54-.63-.26-.18-.62-.32-1.08-.43-.46-.11-1.03-.16-1.73-.16-.86,0-1.76-.11-2.68-.32-.92-.22-1.72-.57-2.39-1.06-.67-.49-1.16-1.12-1.46-1.87-.3-.76-.27-1.67.09-2.75.55.62,1.18,1.05,1.87,1.28.7.23,1.62.35,2.77.38,1.34.02,2.66.11,3.96.25,1.3.14,2.45.42,3.47.83,1.02.41,1.85.97,2.48,1.69.64.72.98,1.66,1.03,2.81.02.7-.01,1.36-.11,1.98s-.29,1.21-.58,1.76c-.29.55-.69,1.07-1.21,1.57-.52.49-1.17.94-1.96,1.35,1.32.55,2.32,1.37,3.01,2.47.68,1.09.93,2.42.74,3.98-.05.67-.23,1.39-.56,2.16-.32.77-.83,1.48-1.51,2.12-.68.65-1.57,1.19-2.66,1.64-1.09.44-2.41.68-3.94.7-.84.02-1.68-.07-2.52-.29-.84-.22-1.6-.55-2.27-.99-.67-.44-1.22-.98-1.66-1.62-.43-.64-.66-1.37-.68-2.21-.02-.38.03-.76.16-1.13s.35-.73.67-1.06c.1.41.25.82.45,1.22.2.41.47.79.79,1.13.32.35.7.65,1.13.9s.91.41,1.44.49Z"/>
  <path class="cls-2" d="M142.11,208.55c-.84-.12-1.61-.09-2.32.09-.71.18-1.32.47-1.84.88-.52.41-.92.92-1.21,1.53s-.44,1.28-.47,2c-.02,1.03.17,1.87.59,2.5s.99,1.12,1.71,1.46c.72.34,1.56.57,2.52.7.96.13,1.97.22,3.02.27l-.07.97c-.91.12-1.82.3-2.72.54-.9.24-1.71.56-2.43.95-.72.4-1.3.88-1.75,1.46-.44.58-.67,1.26-.67,2.05,0,.26.05.52.14.76.1.24.28.45.54.63.26.18.62.32,1.08.43.46.11,1.03.16,1.73.16.86,0,1.76.11,2.68.32s1.72.57,2.39,1.06c.67.49,1.16,1.12,1.46,1.87.3.76.27,1.67-.09,2.75-.55-.62-1.18-1.05-1.87-1.28-.7-.23-1.62-.35-2.77-.38-1.34-.02-2.66-.11-3.96-.25-1.3-.14-2.45-.42-3.47-.83-1.02-.41-1.85-.97-2.48-1.69-.64-.72-.98-1.66-1.03-2.81-.02-.7.01-1.36.11-1.98.1-.62.29-1.21.58-1.76.29-.55.69-1.07,1.21-1.57.52-.49,1.17-.94,1.96-1.35-1.32-.55-2.32-1.37-3.01-2.47-.68-1.09-.93-2.42-.74-3.98.05-.67.23-1.39.56-2.16.32-.77.83-1.48,1.51-2.12.68-.65,1.57-1.19,2.66-1.64,1.09-.44,2.41-.68,3.94-.7.84-.02,1.68.07,2.52.29.84.22,1.6.55,2.27.99s1.22.98,1.66,1.62.66,1.37.68,2.21c.02.38-.03.76-.16,1.13-.13.37-.35.73-.67,1.06-.1-.41-.25-.82-.45-1.22-.2-.41-.47-.79-.79-1.13s-.7-.65-1.13-.9c-.43-.25-.91-.41-1.44-.49Z"/>
  <path class="cls-1" d="M121.85,124.72c-10.81,0-20.6,4.49-27.68,11.76-7.09,7.27-11.47,17.3-11.47,28.39,0-11.09-4.38-21.12-11.46-28.39s-16.87-11.76-27.68-11.76c0-11.09,4.38-21.13,11.46-28.39,7.09-7.27,16.87-11.76,27.68-11.76s20.6,4.49,27.68,11.76c7.09,7.26,11.47,17.3,11.47,28.39Z"/>
</svg>