<?xml version="1.0" encoding="UTF-8"?>
<svg id="Laag_1" data-name="Laag 1" xmlns="http://www.w3.org/2000/svg" viewBox="0 0 164.41 249.45">
  <defs>
    <style>
      .cls-1 {
        stroke: #1d1e1c;
        stroke-linecap: round;
        stroke-linejoin: round;
        stroke-width: 5px;
      }

      .cls-1, .cls-2 {
        fill: #1d1d1b;
      }

      .cls-2, .cls-3 {
        stroke-width: 0px;
      }

      .cls-3 {
        fill: #8abb2a;
      }
    </style>
  </defs>
  <rect class="cls-3" x="0" y="0" width="164.41" height="249.45"/>
  <path class="cls-2" d="M30.25,21.07c.79.07,1.54.21,2.23.41.7.2,1.3.51,1.82.92.52.41.92.93,1.22,1.57.3.64.44,1.42.41,2.36-.05,1.75-.33,3.68-.85,5.8-.52,2.11-1.19,4.16-2.03,6.16-.84,1.99-1.81,3.8-2.92,5.44-1.1,1.63-2.28,2.86-3.53,3.67.38-.91.78-2.04,1.19-3.38.41-1.34.78-2.83,1.12-4.45.34-1.62.62-3.33.85-5.13.23-1.8.35-3.62.38-5.47,0-.79-.1-1.42-.29-1.87-.19-.46-.52-.8-.99-1.03-.47-.23-1.09-.38-1.85-.45-.77-.07-1.72-.12-2.84-.14-.89-.02-1.63-.16-2.23-.41s-1.09-.62-1.48-1.1c-.38-.48-.67-1.06-.85-1.75-.18-.68-.29-1.46-.34-2.32.77.46,1.47.8,2.11,1.03.64.23,1.37.34,2.21.34,1.1,0,2.18-.05,3.22-.16s2.19-.11,3.44-.02Z"/>
  <path class="cls-2" d="M137.17,227.02c-.79-.07-1.54-.21-2.23-.41-.7-.2-1.3-.51-1.82-.92s-.92-.93-1.22-1.57c-.3-.64-.44-1.42-.41-2.36.05-1.75.33-3.68.85-5.8.52-2.11,1.2-4.16,2.04-6.16s1.81-3.8,2.92-5.44c1.1-1.63,2.28-2.86,3.53-3.67-.38.91-.78,2.04-1.19,3.38-.41,1.34-.78,2.83-1.12,4.45-.34,1.62-.62,3.33-.85,5.13-.23,1.8-.35,3.62-.38,5.47,0,.79.1,1.42.29,1.87.19.46.52.8.99,1.03.47.23,1.09.38,1.85.45.77.07,1.72.12,2.84.14.89.02,1.63.16,2.23.41.6.25,1.09.62,1.48,1.1.38.48.67,1.06.85,1.75.18.68.29,1.46.34,2.32-.77-.46-1.47-.8-2.11-1.03-.64-.23-1.37-.34-2.21-.34-1.1,0-2.18.05-3.22.16-1.04.11-2.19.11-3.44.02Z"/>
  <path class="cls-1" d="M121.85,124.72c-10.81,0-20.6,4.49-27.68,11.76-7.09,7.27-11.47,17.3-11.47,28.39,0-11.09-4.38-21.12-11.46-28.39s-16.87-11.76-27.68-11.76c0-11.09,4.38-21.13,11.46-28.39,7.09-7.27,16.87-11.76,27.68-11.76s20.6,4.49,27.68,11.76c7.09,7.26,11.47,17.3,11.47,28.39Z"/>
</svg>