<?xml version="1.0" encoding="UTF-8"?>
<svg id="Laag_1" data-name="Laag 1" xmlns="http://www.w3.org/2000/svg" viewBox="0 0 164.41 249.45">
  <defs>
    <style>
      .cls-1 {
        stroke: #1d1d1b;
        stroke-linecap: round;
        stroke-linejoin: round;
        stroke-width: 2px;
      }

      .cls-1, .cls-2, .cls-3 {
        fill: #fff;
      }

      .cls-2 {
        stroke: #fff;
        stroke-miterlimit: 10;
        stroke-width: .45px;
      }

      .cls-4 {
        fill: #8081b7;
      }

      .cls-4, .cls-5, .cls-6, .cls-7, .cls-8, .cls-9, .cls-10, .cls-11, .cls-3, .cls-12 {
        stroke-width: 0px;
      }

      .cls-5 {
        fill: #2f2f2f;
      }

      .cls-6 {
        fill: #1d1d1b;
      }

      .cls-7 {
        fill: #090808;
      }

      .cls-8 {
        fill: #de2b65;
      }

      .cls-9 {
        fill: #dd2b66;
      }

      .cls-10 {
        fill: #89ba3f;
      }

      .cls-11 {
        fill: #8abb2a;
      }

      .cls-12 {
        fill: #e97c23;
      }
    </style>
  </defs>
  <rect class="cls-5" x="0" y="0" width="164.41" height="249.45"/>
  <g>
    <path class="cls-8" d="M141.74,206.68c-4.35,0-7.89-3.7-7.89-8.26s3.54-8.25,7.89-8.25,7.89,3.7,7.89,8.25-3.54,8.26-7.89,8.26Z"/>
    <path class="cls-6" d="M141.74,191.17c3.8,0,6.89,3.25,6.89,7.26s-3.09,7.26-6.89,7.26-6.89-3.25-6.89-7.26,3.09-7.26,6.89-7.26M141.74,189.17c-4.91,0-8.89,4.14-8.89,9.26s3.98,9.26,8.89,9.26,8.89-4.14,8.89-9.26-3.98-9.26-8.89-9.26h0Z"/>
  </g>
  <g>
    <ellipse class="cls-11" cx="141.74" cy="226.17" rx="7.89" ry="8.26"/>
    <path class="cls-6" d="M141.74,218.92c3.8,0,6.89,3.25,6.89,7.26s-3.09,7.26-6.89,7.26-6.89-3.25-6.89-7.26,3.09-7.26,6.89-7.26M141.74,216.92c-4.91,0-8.89,4.14-8.89,9.26s3.98,9.26,8.89,9.26,8.89-4.14,8.89-9.26-3.98-9.26-8.89-9.26h0Z"/>
  </g>
  <g>
    <path class="cls-2" d="M16.81,174.85c0-.32.27-.6.6-.6s.6.27.6.6v5.87c0,.32-.27.6-.6.6s-.6-.27-.6-.6v-5.87Z"/>
    <path class="cls-2" d="M21.86,181.22c-1.73,0-2.96-1.29-2.96-2.87s1.22-2.87,2.96-2.87h.68c1.09,0,1.82.77,1.82,1.72s-.73,1.72-1.82,1.72h-1.09c-.31,0-.57-.26-.57-.57s.26-.57.57-.57h1.09c.39,0,.65-.26.65-.57s-.26-.57-.65-.57h-.68c-1.04,0-1.79.78-1.79,1.72s.75,1.72,1.79,1.72h1.66c.31,0,.57.26.57.57s-.26.57-.57.57h-1.66Z"/>
    <path class="cls-2" d="M28.04,181.22c-1.73,0-2.96-1.29-2.96-2.87s1.22-2.87,2.96-2.87h1.33v-1.8c0-.32.26-.58.58-.58s.59.26.59.58v6.95c0,.32-.26.58-.59.58h-1.92ZM29.37,176.63h-1.33c-1.04,0-1.79.78-1.79,1.72s.75,1.72,1.79,1.72h1.33v-3.44Z"/>
    <path class="cls-2" d="M34.38,181.22c-1.73,0-2.96-1.29-2.96-2.87s1.22-2.87,2.96-2.87h.68c1.09,0,1.82.77,1.82,1.72s-.72,1.72-1.82,1.72h-1.09c-.31,0-.57-.26-.57-.57s.26-.57.57-.57h1.09c.39,0,.65-.26.65-.57s-.26-.57-.65-.57h-.68c-1.04,0-1.79.78-1.79,1.72s.75,1.72,1.79,1.72h1.66c.31,0,.57.26.57.57s-.26.57-.57.57h-1.66Z"/>
    <path class="cls-2" d="M42.17,177.73c0,.33-.26.58-.59.58s-.58-.26-.58-.57v-.08c0-.57-.42-1.03-1.03-1.03h-1.03v4.09c0,.32-.26.58-.59.58s-.58-.26-.58-.58v-4.66c0-.32.26-.58.58-.58h1.61c1.23,0,2.2.99,2.2,2.18v.07Z"/>
    <path class="cls-2" d="M45.76,181.22c-1.73,0-2.96-1.29-2.96-2.87s1.22-2.87,2.96-2.87h.68c1.09,0,1.82.77,1.82,1.72s-.72,1.72-1.82,1.72h-1.09c-.31,0-.57-.26-.57-.57s.26-.57.57-.57h1.09c.39,0,.65-.26.65-.57s-.26-.57-.65-.57h-.68c-1.04,0-1.79.78-1.79,1.72s.75,1.72,1.79,1.72h1.66c.31,0,.57.26.57.57s-.26.57-.57.57h-1.66Z"/>
    <path class="cls-2" d="M51.93,181.22c-1.73,0-2.96-1.29-2.96-2.87s1.22-2.87,2.96-2.87h.68c1.09,0,1.82.77,1.82,1.72s-.73,1.72-1.82,1.72h-1.09c-.31,0-.57-.26-.57-.57s.26-.57.57-.57h1.09c.39,0,.65-.26.65-.57s-.26-.57-.65-.57h-.68c-1.04,0-1.79.78-1.79,1.72s.75,1.72,1.79,1.72h1.66c.31,0,.57.26.57.57s-.26.57-.57.57h-1.66Z"/>
    <path class="cls-2" d="M59.09,177.76c0-.62-.51-1.13-1.13-1.13h-1.47v4.09c0,.32-.26.58-.58.58s-.58-.26-.58-.58v-4.66c0-.32.26-.58.58-.58h2.06c1.27,0,2.3,1.03,2.3,2.3v2.94c0,.32-.26.58-.58.58s-.58-.26-.58-.58v-2.97Z"/>
    <path class="cls-2" d="M63.82,173.69c0-.32.26-.58.58-.58s.59.26.59.58v7.04c0,.32-.26.58-.59.58s-.58-.26-.58-.58v-7.04Z"/>
    <path class="cls-2" d="M67.67,181.22c-1.05,0-1.78-.8-1.78-1.78s.73-1.78,1.78-1.78h1.09c.31,0,.57.26.57.57s-.26.57-.57.57h-1.09c-.36,0-.61.3-.61.63s.25.63.61.63h2.1v-2.43c0-.57-.4-1.02-1-1.02h-1.84c-.31,0-.57-.26-.57-.57s.26-.57.57-.57h1.84c1.21,0,2.17.96,2.17,2.15v3c0,.32-.21.58-.59.58h-2.69Z"/>
    <path class="cls-2" d="M73.63,181.22c-1.05,0-1.78-.8-1.78-1.78s.73-1.78,1.78-1.78h1.09c.31,0,.57.26.57.57s-.26.57-.57.57h-1.09c-.36,0-.61.3-.61.63s.25.63.61.63h2.1v-2.43c0-.57-.4-1.02-1-1.02h-1.84c-.31,0-.57-.26-.57-.57s.26-.57.57-.57h1.84c1.21,0,2.17.96,2.17,2.15v3c0,.32-.21.58-.58.58h-2.69Z"/>
    <path class="cls-2" d="M80.55,181.22c-1.12,0-2.02-.91-2.02-2.03v-2.57h-.68c-.31,0-.57-.26-.57-.57s.26-.57.57-.57h.68v-1.15c0-.32.26-.58.58-.58s.59.26.59.58v1.15h1.5c.31,0,.57.26.57.57s-.26.57-.57.57h-1.5v2.58c0,.49.37.87.87.87h.64c.31,0,.57.26.57.57s-.26.57-.57.57h-.65Z"/>
    <path class="cls-2" d="M87.64,181.22c-1.73,0-2.96-1.29-2.96-2.87s1.22-2.87,2.96-2.87h.68c1.09,0,1.82.77,1.82,1.72s-.73,1.72-1.82,1.72h-1.09c-.31,0-.57-.26-.57-.57s.26-.57.57-.57h1.09c.39,0,.65-.26.65-.57s-.26-.57-.65-.57h-.68c-1.04,0-1.79.78-1.79,1.72s.75,1.72,1.79,1.72h1.66c.31,0,.57.26.57.57s-.26.57-.57.57h-1.66Z"/>
    <path class="cls-2" d="M93.81,181.22c-1.73,0-2.96-1.29-2.96-2.87s1.22-2.87,2.96-2.87h.68c1.09,0,1.82.77,1.82,1.72s-.73,1.72-1.82,1.72h-1.09c-.31,0-.57-.26-.57-.57s.26-.57.57-.57h1.09c.39,0,.65-.26.65-.57s-.26-.57-.65-.57h-.68c-1.04,0-1.79.78-1.79,1.72s.75,1.72,1.79,1.72h1.66c.31,0,.57.26.57.57s-.26.57-.57.57h-1.66Z"/>
    <path class="cls-2" d="M100.97,177.76c0-.62-.51-1.13-1.13-1.13h-1.47v4.09c0,.32-.26.58-.59.58s-.58-.26-.58-.58v-4.66c0-.32.26-.58.58-.58h2.06c1.27,0,2.29,1.03,2.29,2.3v2.94c0,.32-.26.58-.58.58s-.58-.26-.58-.58v-2.97Z"/>
    <path class="cls-2" d="M106.87,178.46v2.26c0,.32-.26.58-.59.58s-.58-.26-.58-.58v-7.04c0-.32.26-.58.58-.58s.59.26.59.58v4.56l2.67-2.67c.23-.23.58-.23.81,0,.22.23.22.58,0,.81l-1.97,1.97,1.97,1.97c.23.23.22.58,0,.81-.23.23-.58.23-.81,0l-2.67-2.67Z"/>
    <path class="cls-2" d="M112.78,181.22c-1.05,0-1.78-.8-1.78-1.78s.73-1.78,1.78-1.78h1.09c.31,0,.57.26.57.57s-.26.57-.57.57h-1.09c-.36,0-.61.3-.61.63s.25.63.61.63h2.1v-2.43c0-.57-.4-1.02-1-1.02h-1.84c-.31,0-.57-.26-.57-.57s.26-.57.57-.57h1.84c1.21,0,2.17.96,2.17,2.15v3c0,.32-.21.58-.59.58h-2.68Z"/>
    <path class="cls-2" d="M118.74,181.22c-1.05,0-1.78-.8-1.78-1.78s.73-1.78,1.78-1.78h1.09c.31,0,.57.26.57.57s-.26.57-.57.57h-1.09c-.36,0-.61.3-.61.63s.25.63.61.63h2.1v-2.43c0-.57-.4-1.02-1-1.02h-1.84c-.31,0-.57-.26-.57-.57s.26-.57.57-.57h1.84c1.21,0,2.17.96,2.17,2.15v3c0,.32-.21.58-.58.58h-2.68Z"/>
    <path class="cls-2" d="M127.58,177.73c0,.33-.26.58-.58.58s-.58-.26-.58-.57v-.08c0-.57-.42-1.03-1.03-1.03h-1.03v4.09c0,.32-.26.58-.59.58s-.58-.26-.58-.58v-4.66c0-.32.26-.58.58-.58h1.61c1.23,0,2.2.99,2.2,2.18v.07Z"/>
    <path class="cls-2" d="M131.13,181.22c-1.12,0-2.03-.91-2.03-2.03v-2.57h-.68c-.31,0-.57-.26-.57-.57s.26-.57.57-.57h.68v-1.15c0-.32.26-.58.59-.58s.58.26.58.58v1.15h1.5c.31,0,.57.26.57.57s-.26.57-.57.57h-1.5v2.58c0,.49.37.87.87.87h.64c.31,0,.57.26.57.57s-.26.57-.57.57h-.65Z"/>
    <path class="cls-2" d="M20.59,191.33c0-.33.26-.58.59-.58s.58.26.58.58v2.9c0,1.36-1.12,2.48-2.48,2.48s-2.48-1.12-2.48-2.48v-2.9c0-.33.26-.58.59-.58s.58.26.58.58v2.93c0,.71.6,1.31,1.31,1.31s1.31-.6,1.31-1.31v-2.93Z"/>
    <path class="cls-2" d="M23.52,189.88c-.4,0-.72-.31-.72-.71s.32-.71.72-.71.73.31.73.71-.32.71-.73.71ZM22.94,191.33c0-.33.26-.58.58-.58s.59.26.59.58v4.74c0,.32-.26.58-.59.58s-.58-.26-.58-.58v-4.74Z"/>
    <path class="cls-2" d="M28.08,196.57c-1.12,0-2.02-.91-2.02-2.03v-2.57h-.68c-.31,0-.57-.26-.57-.57s.26-.57.57-.57h.68v-1.15c0-.32.26-.58.58-.58s.59.26.59.58v1.15h1.5c.31,0,.57.26.57.57s-.26.57-.57.57h-1.5v2.58c0,.49.37.87.87.87h.64c.31,0,.57.26.57.57s-.26.57-.57.57h-.65Z"/>
    <path class="cls-2" d="M32.86,196.57c-.31,0-.57-.25-.57-.56,0-.13.05-.29.17-.43l2.96-3.59h-2.46c-.31,0-.57-.26-.57-.57s.26-.57.57-.57h3.64c.31,0,.56.25.56.56,0,.14-.05.29-.17.43l-2.96,3.59h2.45c.31,0,.57.26.57.57s-.26.57-.57.57h-3.62Z"/>
    <path class="cls-2" d="M38.71,189.88c-.4,0-.73-.31-.73-.71s.33-.71.73-.71.72.31.72.71-.32.71-.72.71ZM38.12,191.33c0-.33.26-.58.59-.58s.58.26.58.58v4.74c0,.32-.26.58-.58.58s-.59-.26-.59-.58v-4.74Z"/>
    <path class="cls-2" d="M38.89,198.87c-.31,0-.57-.26-.57-.57s.26-.57.57-.57h.23c.97,0,1.34-.51,1.34-1.47v-4.92c0-.33.26-.58.59-.58s.58.26.58.58v4.9c0,1.61-.82,2.63-2.5,2.63h-.24ZM41.05,189.88c-.4,0-.73-.31-.73-.71s.33-.71.73-.71.72.31.72.71-.32.71-.72.71Z"/>
    <path class="cls-2" d="M46.57,193.11c0-.62-.51-1.13-1.12-1.13h-1.47v4.09c0,.32-.26.58-.58.58s-.59-.26-.59-.58v-4.66c0-.32.26-.58.59-.58h2.06c1.27,0,2.29,1.03,2.29,2.3v2.94c0,.32-.26.58-.58.58s-.59-.26-.59-.58v-2.97Z"/>
    <path class="cls-2" d="M53.97,196.57c-1.73,0-2.96-1.29-2.96-2.87s1.22-2.87,2.96-2.87h1.33v-1.8c0-.32.26-.58.59-.58s.58.26.58.58v6.95c0,.32-.26.58-.58.58h-1.92ZM55.3,191.98h-1.33c-1.04,0-1.79.78-1.79,1.72s.75,1.72,1.79,1.72h1.33v-3.44Z"/>
    <path class="cls-2" d="M60.32,196.57c-1.73,0-2.96-1.29-2.96-2.87s1.22-2.87,2.96-2.87h.68c1.09,0,1.82.77,1.82,1.72s-.73,1.72-1.82,1.72h-1.09c-.31,0-.57-.26-.57-.57s.26-.57.57-.57h1.09c.39,0,.65-.26.65-.57s-.26-.57-.65-.57h-.68c-1.04,0-1.79.78-1.79,1.72s.75,1.72,1.79,1.72h1.66c.31,0,.57.26.57.57s-.26.57-.57.57h-1.66Z"/>
    <path class="cls-2" d="M64.88,193.81v2.26c0,.32-.26.58-.58.58s-.59-.26-.59-.58v-7.04c0-.32.26-.58.59-.58s.58.26.58.58v4.56l2.67-2.67c.23-.23.58-.23.81,0,.22.23.22.58,0,.81l-1.97,1.97,1.97,1.97c.23.23.22.58,0,.81-.23.23-.58.23-.81,0l-2.67-2.67Z"/>
    <path class="cls-2" d="M74.47,196.57c-1.12,0-2.02-.91-2.02-2.03v-2.57h-.68c-.31,0-.57-.26-.57-.57s.26-.57.57-.57h.68v-1.15c0-.32.26-.58.58-.58s.59.26.59.58v1.15h1.5c.31,0,.57.26.57.57s-.26.57-.57.57h-1.5v2.58c0,.49.37.87.87.87h.64c.31,0,.57.26.57.57s-.26.57-.57.57h-.65Z"/>
    <path class="cls-2" d="M80.89,193.07c0,.33-.26.58-.59.58s-.58-.26-.58-.57v-.08c0-.57-.42-1.03-1.03-1.03h-1.03v4.09c0,.32-.26.58-.58.58s-.58-.26-.58-.58v-4.66c0-.32.26-.58.58-.58h1.61c1.23,0,2.2.99,2.2,2.18v.07Z"/>
    <path class="cls-2" d="M84.48,196.57c-1.73,0-2.96-1.29-2.96-2.87s1.22-2.87,2.96-2.87h.68c1.09,0,1.82.77,1.82,1.72s-.73,1.72-1.82,1.72h-1.09c-.31,0-.57-.26-.57-.57s.26-.57.57-.57h1.09c.39,0,.65-.26.65-.57s-.26-.57-.65-.57h-.68c-1.04,0-1.79.78-1.79,1.72s.75,1.72,1.79,1.72h1.66c.31,0,.57.26.57.57s-.26.57-.57.57h-1.66Z"/>
    <path class="cls-2" d="M89.04,193.81v2.26c0,.32-.26.58-.59.58s-.58-.26-.58-.58v-7.04c0-.32.26-.58.58-.58s.59.26.59.58v4.56l2.67-2.67c.23-.23.58-.23.81,0,.22.23.22.58,0,.81l-1.97,1.97,1.97,1.97c.23.23.22.58,0,.81-.23.23-.58.23-.81,0l-2.67-2.67Z"/>
    <path class="cls-2" d="M94.61,193.81v2.26c0,.32-.26.58-.59.58s-.58-.26-.58-.58v-7.04c0-.32.26-.58.58-.58s.59.26.59.58v4.56l2.67-2.67c.23-.23.58-.23.81,0,.22.23.22.58,0,.81l-1.97,1.97,1.97,1.97c.23.23.22.58,0,.81-.23.23-.58.23-.81,0l-2.67-2.67Z"/>
    <path class="cls-2" d="M101.35,196.57c-1.73,0-2.96-1.29-2.96-2.87s1.22-2.87,2.96-2.87h.68c1.09,0,1.82.77,1.82,1.72s-.73,1.72-1.82,1.72h-1.09c-.31,0-.57-.26-.57-.57s.26-.57.57-.57h1.09c.39,0,.65-.26.65-.57s-.26-.57-.65-.57h-.68c-1.04,0-1.79.78-1.79,1.72s.75,1.72,1.79,1.72h1.66c.31,0,.57.26.57.57s-.26.57-.57.57h-1.66Z"/>
    <path class="cls-2" d="M108.51,193.11c0-.62-.51-1.13-1.13-1.13h-1.47v4.09c0,.32-.26.58-.59.58s-.58-.26-.58-.58v-4.66c0-.32.26-.58.58-.58h2.06c1.27,0,2.29,1.03,2.29,2.3v2.94c0,.32-.26.58-.58.58s-.58-.26-.58-.58v-2.97Z"/>
    <path class="cls-2" d="M111.01,198.17c-.14.28-.48.39-.76.26-.28-.14-.4-.49-.27-.76l1.02-2.13c.14-.29.49-.39.77-.26.28.14.41.5.26.77l-1.02,2.12Z"/>
    <path class="cls-2" d="M115.77,196.57c-.31,0-.57-.25-.57-.56,0-.13.05-.29.17-.43l2.96-3.59h-2.46c-.31,0-.57-.26-.57-.57s.26-.57.57-.57h3.64c.31,0,.56.25.56.56,0,.14-.05.29-.17.43l-2.96,3.59h2.45c.31,0,.57.26.57.57s-.26.57-.57.57h-3.62Z"/>
    <path class="cls-2" d="M123.37,196.71c-1.79,0-3.04-1.34-3.04-3.01s1.26-3.01,3.04-3.01,3.04,1.34,3.04,3.01-1.27,3.01-3.04,3.01ZM123.37,191.83c-1.08,0-1.87.84-1.87,1.87s.79,1.87,1.87,1.87,1.87-.84,1.87-1.87-.79-1.87-1.87-1.87Z"/>
    <path class="cls-2" d="M17.26,211.92c-.31,0-.57-.26-.57-.57s.26-.57.57-.57h2.43c.39,0,.65-.26.65-.57s-.26-.57-.65-.57h-1.34c-1.09,0-1.82-.77-1.82-1.72s.73-1.72,1.82-1.72h2.43c.31,0,.57.26.57.57s-.26.57-.57.57h-2.43c-.39,0-.65.26-.65.57s.26.57.65.57h1.34c1.09,0,1.82.77,1.82,1.72s-.72,1.72-1.82,1.72h-2.43Z"/>
    <path class="cls-2" d="M25.07,211.92c-1.73,0-2.96-1.29-2.96-2.87s1.22-2.87,2.96-2.87h1.19c.31,0,.57.26.57.57s-.26.57-.57.57h-1.19c-1.04,0-1.79.78-1.79,1.72s.75,1.72,1.79,1.72h1.19c.31,0,.57.26.57.57s-.26.57-.57.57h-1.19Z"/>
    <path class="cls-2" d="M31.47,208.45c0-.62-.51-1.13-1.13-1.13h-1.47v4.09c0,.32-.26.58-.58.58s-.58-.26-.58-.58v-7.04c0-.32.26-.58.58-.58s.58.26.58.58v1.8h1.47c1.27,0,2.3,1.03,2.3,2.3v2.94c0,.32-.26.58-.58.58s-.58-.26-.58-.58v-2.97Z"/>
    <path class="cls-2" d="M37.6,206.68c0-.33.26-.58.59-.58s.58.26.58.58v2.9c0,1.36-1.12,2.48-2.48,2.48s-2.48-1.12-2.48-2.48v-2.9c0-.33.26-.58.59-.58s.58.26.58.58v2.93c0,.71.6,1.31,1.31,1.31s1.31-.6,1.31-1.31v-2.93Z"/>
    <path class="cls-2" d="M40.53,205.23c-.4,0-.72-.31-.72-.71s.32-.71.72-.71.73.31.73.71-.32.71-.73.71ZM39.94,206.68c0-.33.26-.58.58-.58s.59.26.59.58v4.74c0,.32-.26.58-.59.58s-.58-.26-.58-.58v-4.74Z"/>
    <path class="cls-2" d="M49.52,211.92c-1.12,0-2.03-.91-2.03-2.03v-2.57h-3.26v4.09c0,.32-.26.58-.59.58s-.58-.26-.58-.58v-4.09h-.68c-.31,0-.57-.26-.57-.57s.26-.57.57-.57h.68v-.39c0-1.07.79-1.91,1.96-1.91h1.14c.31,0,.57.26.57.57s-.26.57-.57.57h-1.14c-.48,0-.79.31-.79.75v.4h3.26v-1.15c0-.32.26-.58.59-.58s.58.26.58.58v1.15h1.49c.31,0,.57.26.57.57s-.26.57-.57.57h-1.49v2.58c0,.49.37.87.87.87h.63c.31,0,.57.26.57.57s-.26.57-.57.57h-.64Z"/>
    <path class="cls-2" d="M56.59,211.92c-1.73,0-2.96-1.29-2.96-2.87s1.22-2.87,2.96-2.87h.68c1.09,0,1.82.77,1.82,1.72s-.72,1.72-1.82,1.72h-1.09c-.31,0-.57-.26-.57-.57s.26-.57.57-.57h1.09c.39,0,.65-.26.65-.57s-.26-.57-.65-.57h-.68c-1.04,0-1.79.78-1.79,1.72s.75,1.72,1.79,1.72h1.66c.31,0,.57.26.57.57s-.26.57-.57.57h-1.66Z"/>
    <path class="cls-2" d="M64.38,208.42c0,.33-.26.58-.59.58s-.58-.26-.58-.57v-.08c0-.57-.42-1.03-1.03-1.03h-1.03v4.09c0,.32-.26.58-.59.58s-.58-.26-.58-.58v-4.66c0-.32.26-.58.58-.58h1.61c1.23,0,2.2.99,2.2,2.18v.07Z"/>
    <path class="cls-2" d="M68.26,211.92c-.33,0-.58-.26-.58-.58v-6.95c0-.32.26-.58.58-.58s.58.26.58.58v1.8h1.33c1.73,0,2.96,1.29,2.96,2.87s-1.22,2.87-2.96,2.87h-1.92ZM70.18,210.77c1.04,0,1.79-.78,1.79-1.72s-.75-1.72-1.79-1.72h-1.33v3.44h1.33Z"/>
    <path class="cls-2" d="M74.61,205.23c-.4,0-.73-.31-.73-.71s.33-.71.73-.71.72.31.72.71-.32.71-.72.71ZM74.02,206.68c0-.33.26-.58.59-.58s.58.26.58.58v4.74c0,.32-.26.58-.58.58s-.59-.26-.59-.58v-4.74Z"/>
    <path class="cls-2" d="M74.79,214.21c-.31,0-.57-.26-.57-.57s.26-.57.57-.57h.23c.97,0,1.34-.51,1.34-1.47v-4.92c0-.33.26-.58.59-.58s.58.26.58.58v4.9c0,1.61-.82,2.63-2.5,2.63h-.24ZM76.95,205.23c-.4,0-.73-.31-.73-.71s.33-.71.73-.71.72.31.72.71-.32.71-.72.71Z"/>
    <path class="cls-2" d="M81.67,205.23c-.4,0-.73-.31-.73-.71s.32-.71.73-.71.73.31.73.71-.32.71-.73.71ZM81.09,206.68c0-.33.26-.58.58-.58s.58.26.58.58v4.74c0,.32-.26.58-.58.58s-.58-.26-.58-.58v-4.74Z"/>
    <path class="cls-2" d="M86.1,211.92c-1.73,0-2.96-1.29-2.96-2.87s1.22-2.87,2.96-2.87h.68c1.09,0,1.82.77,1.82,1.72s-.73,1.72-1.82,1.72h-1.09c-.31,0-.57-.26-.57-.57s.26-.57.57-.57h1.09c.39,0,.65-.26.65-.57s-.26-.57-.65-.57h-.68c-1.04,0-1.79.78-1.79,1.72s.75,1.72,1.79,1.72h1.66c.31,0,.57.26.57.57s-.26.57-.57.57h-1.66Z"/>
    <path class="cls-2" d="M92.27,211.92c-1.73,0-2.96-1.29-2.96-2.87s1.22-2.87,2.96-2.87h1.33v-1.8c0-.32.26-.58.58-.58s.59.26.59.58v6.95c0,.32-.26.58-.59.58h-1.92ZM93.61,207.33h-1.33c-1.04,0-1.79.78-1.79,1.72s.75,1.72,1.79,1.72h1.33v-3.44Z"/>
    <path class="cls-2" d="M98.62,211.92c-1.73,0-2.96-1.29-2.96-2.87s1.22-2.87,2.96-2.87h.68c1.09,0,1.82.77,1.82,1.72s-.73,1.72-1.82,1.72h-1.09c-.31,0-.57-.26-.57-.57s.26-.57.57-.57h1.09c.39,0,.65-.26.65-.57s-.26-.57-.65-.57h-.68c-1.04,0-1.79.78-1.79,1.72s.75,1.72,1.79,1.72h1.66c.31,0,.57.26.57.57s-.26.57-.57.57h-1.66Z"/>
    <path class="cls-2" d="M106.41,208.42c0,.33-.26.58-.58.58s-.58-.26-.58-.57v-.08c0-.57-.42-1.03-1.03-1.03h-1.03v4.09c0,.32-.26.58-.59.58s-.58-.26-.58-.58v-4.66c0-.32.26-.58.58-.58h1.61c1.23,0,2.2.99,2.2,2.18v.07Z"/>
    <path class="cls-2" d="M110,211.92c-1.73,0-2.96-1.29-2.96-2.87s1.22-2.87,2.96-2.87h.68c1.09,0,1.82.77,1.82,1.72s-.73,1.72-1.82,1.72h-1.09c-.31,0-.57-.26-.57-.57s.26-.57.57-.57h1.09c.39,0,.65-.26.65-.57s-.26-.57-.65-.57h-.68c-1.04,0-1.79.78-1.79,1.72s.75,1.72,1.79,1.72h1.66c.31,0,.57.26.57.57s-.26.57-.57.57h-1.66Z"/>
    <path class="cls-2" d="M116.17,211.92c-1.73,0-2.96-1.29-2.96-2.87s1.22-2.87,2.96-2.87h.68c1.09,0,1.82.77,1.82,1.72s-.73,1.72-1.82,1.72h-1.09c-.31,0-.57-.26-.57-.57s.26-.57.57-.57h1.09c.39,0,.65-.26.65-.57s-.26-.57-.65-.57h-.68c-1.04,0-1.79.78-1.79,1.72s.75,1.72,1.79,1.72h1.66c.31,0,.57.26.57.57s-.26.57-.57.57h-1.66Z"/>
    <path class="cls-2" d="M123.33,208.45c0-.62-.51-1.13-1.13-1.13h-1.47v4.09c0,.32-.26.58-.59.58s-.58-.26-.58-.58v-4.66c0-.32.26-.58.58-.58h2.06c1.27,0,2.29,1.03,2.29,2.3v2.94c0,.32-.26.58-.58.58s-.58-.26-.58-.58v-2.97Z"/>
    <path class="cls-2" d="M19.48,227.26c-1.73,0-2.96-1.29-2.96-2.87s1.22-2.87,2.96-2.87h.68c1.09,0,1.82.77,1.82,1.72s-.72,1.72-1.82,1.72h-1.09c-.31,0-.57-.26-.57-.57s.26-.57.57-.57h1.09c.39,0,.65-.26.65-.57s-.26-.57-.65-.57h-.68c-1.04,0-1.79.78-1.79,1.72s.75,1.72,1.79,1.72h1.66c.31,0,.57.26.57.57s-.26.57-.57.57h-1.66Z"/>
    <path class="cls-2" d="M25.65,227.26c-1.73,0-2.96-1.29-2.96-2.87s1.22-2.87,2.96-2.87h.68c1.09,0,1.82.77,1.82,1.72s-.72,1.72-1.82,1.72h-1.09c-.31,0-.57-.26-.57-.57s.26-.57.57-.57h1.09c.39,0,.65-.26.65-.57s-.26-.57-.65-.57h-.68c-1.04,0-1.79.78-1.79,1.72s.75,1.72,1.79,1.72h1.66c.31,0,.57.26.57.57s-.26.57-.57.57h-1.66Z"/>
    <path class="cls-2" d="M32.81,223.8c0-.62-.51-1.13-1.13-1.13h-1.47v4.09c0,.32-.26.58-.58.58s-.58-.26-.58-.58v-4.66c0-.32.26-.58.58-.58h2.06c1.27,0,2.3,1.03,2.3,2.3v2.94c0,.32-.26.58-.58.58s-.58-.26-.58-.58v-2.97Z"/>
    <path class="cls-2" d="M38.71,224.5v2.26c0,.32-.26.58-.59.58s-.58-.26-.58-.58v-7.04c0-.32.26-.58.58-.58s.59.26.59.58v4.56l2.67-2.67c.23-.23.58-.23.81,0,.22.23.22.58,0,.81l-1.97,1.97,1.97,1.97c.23.23.22.58,0,.81-.23.23-.58.23-.81,0l-2.67-2.67Z"/>
    <path class="cls-2" d="M44.62,227.26c-1.05,0-1.78-.8-1.78-1.78s.73-1.78,1.78-1.78h1.09c.31,0,.57.26.57.57s-.26.57-.57.57h-1.09c-.36,0-.61.3-.61.63s.25.63.61.63h2.1v-2.43c0-.57-.4-1.02-1-1.02h-1.84c-.31,0-.57-.26-.57-.57s.26-.57.57-.57h1.84c1.21,0,2.17.96,2.17,2.15v3c0,.32-.21.58-.59.58h-2.69Z"/>
    <path class="cls-2" d="M50.58,227.26c-1.05,0-1.78-.8-1.78-1.78s.73-1.78,1.78-1.78h1.09c.31,0,.57.26.57.57s-.26.57-.57.57h-1.09c-.36,0-.61.3-.61.63s.25.63.61.63h2.1v-2.43c0-.57-.4-1.02-1-1.02h-1.84c-.31,0-.57-.26-.57-.57s.26-.57.57-.57h1.84c1.21,0,2.17.96,2.17,2.15v3c0,.32-.21.58-.59.58h-2.69Z"/>
    <path class="cls-2" d="M59.42,223.77c0,.33-.26.58-.59.58s-.58-.26-.58-.57v-.08c0-.57-.42-1.03-1.03-1.03h-1.03v4.09c0,.32-.26.58-.58.58s-.58-.26-.58-.58v-4.66c0-.32.26-.58.58-.58h1.61c1.23,0,2.2.99,2.2,2.18v.07Z"/>
    <path class="cls-2" d="M62.97,227.26c-1.12,0-2.03-.91-2.03-2.03v-2.57h-.68c-.31,0-.57-.26-.57-.57s.26-.57.57-.57h.68v-1.15c0-.32.26-.58.59-.58s.58.26.58.58v1.15h1.5c.31,0,.57.26.57.57s-.26.57-.57.57h-1.5v2.58c0,.49.37.87.87.87h.64c.31,0,.57.26.57.57s-.26.57-.57.57h-.65Z"/>
    <path class="cls-2" d="M70.06,227.26c-1.73,0-2.96-1.29-2.96-2.87s1.22-2.87,2.96-2.87h1.33v-1.8c0-.32.26-.58.58-.58s.58.26.58.58v6.95c0,.32-.26.58-.58.58h-1.92ZM71.39,222.67h-1.33c-1.04,0-1.79.78-1.79,1.72s.75,1.72,1.79,1.72h1.33v-3.44Z"/>
    <path class="cls-2" d="M76.49,227.41c-1.79,0-3.04-1.34-3.04-3.01s1.26-3.01,3.04-3.01,3.04,1.34,3.04,3.01-1.27,3.01-3.04,3.01ZM76.49,222.52c-1.08,0-1.87.84-1.87,1.87s.79,1.87,1.87,1.87,1.87-.84,1.87-1.87-.79-1.87-1.87-1.87Z"/>
    <path class="cls-2" d="M83.29,227.41c-1.79,0-3.04-1.34-3.04-3.01s1.26-3.01,3.04-3.01,3.04,1.34,3.04,3.01-1.27,3.01-3.04,3.01ZM83.29,222.52c-1.08,0-1.87.84-1.87,1.87s.79,1.87,1.87,1.87,1.87-.84,1.87-1.87-.79-1.87-1.87-1.87Z"/>
    <path class="cls-2" d="M91.62,223.77c0,.33-.26.58-.58.58s-.58-.26-.58-.57v-.08c0-.57-.42-1.03-1.03-1.03h-1.03v4.09c0,.32-.26.58-.59.58s-.58-.26-.58-.58v-4.66c0-.32.26-.58.58-.58h1.61c1.23,0,2.2.99,2.2,2.18v.07Z"/>
  </g>
  <g>
    <path class="cls-3" d="M41.22,26.71c-.25.7-.57,1.3-.96,1.79-.39.49-.83.9-1.33,1.22-.49.33-1.02.57-1.6.72-.57.16-1.17.25-1.79.26.43.67.73,1.45.89,2.34s.21,1.82.16,2.79c-.05.97-.2,1.93-.45,2.89-.25.96-.57,1.85-.96,2.66-.39.82-.84,1.53-1.35,2.14s-1.05,1.03-1.64,1.26c.03-.37.06-.89.09-1.56s.04-1.43.05-2.28c0-.84.01-1.74.01-2.7s-.01-1.91-.04-2.86c-.02-.95-.06-1.87-.1-2.75-.04-.88-.09-1.67-.14-2.35-.63-.18-1.23-.41-1.79-.67-.56-.27-1.05-.56-1.49-.88s-.8-.65-1.09-1.01-.48-.71-.56-1.06c1.03.13,2.13.22,3.3.28,1.17.05,2.36.07,3.59.06,1.23,0,2.45-.04,3.66-.09,1.22-.05,2.39-.12,3.52-.2Z"/>
    <path class="cls-3" d="M50.19,38.01c.03-1.85-.2-3.27-.7-4.25-.5-.98-1.23-1.46-2.2-1.42-.13,0-.25,0-.35.01-.1,0-.2.02-.3.04.23.67.37,1.41.4,2.23s-.02,1.65-.15,2.5c-.13.85-.33,1.69-.6,2.51-.27.82-.59,1.58-.97,2.27-.38.69-.81,1.29-1.28,1.8-.47.51-.96.87-1.47,1.09.05-.43.09-1.04.11-1.83.03-.78.04-1.66.05-2.62,0-.97,0-1.98-.01-3.04s-.05-2.08-.09-3.06c-.04-.98-.1-1.89-.16-2.73-.07-.83-.14-1.5-.23-2,.8-.07,1.49.02,2.08.26.58.24,1.07.59,1.45,1.04.72-.73,1.72-1.1,3.03-1.1.82,0,1.51.14,2.09.41.57.27,1.02.64,1.35,1.1.32.46.53.98.6,1.58.08.59.03,1.2-.14,1.81-.17.62-.46,1.22-.88,1.81-.42.59-.96,1.12-1.62,1.59Z"/>
    <path class="cls-3" d="M63.64,42.69c-.7.7-1.43,1.15-2.2,1.36s-1.48.3-2.15.26c-.65-.03-1.26-.2-1.83-.5-.57-.3-1.05-.7-1.46-1.19-.41-.49-.72-1.06-.94-1.71-.22-.65-.31-1.34-.27-2.08.03-.65.16-1.29.38-1.91.22-.62.54-1.18.97-1.67.43-.49.99-.88,1.66-1.18.68-.29,1.49-.44,2.44-.44.53,0,1.04.06,1.51.19s.93.35,1.36.66c-.05-.7-.35-1.23-.91-1.59s-1.22-.6-2-.74c-.78-.13-1.58-.17-2.41-.11-.83.06-1.54.16-2.12.31.33-.55.73-1.03,1.19-1.45.46-.42.95-.76,1.47-1.04.53-.28,1.06-.48,1.61-.61.55-.13,1.09-.18,1.62-.15.95.05,1.76.29,2.42.71.67.43,1.21.98,1.64,1.65s.74,1.45.94,2.33.3,1.8.3,2.76c0,.8-.05,1.61-.16,2.42-.11.82-.28,1.6-.5,2.34-.22.74-.5,1.43-.83,2.06-.33.63-.7,1.18-1.11,1.62-.08-.32-.18-.69-.28-1.11s-.22-.83-.35-1.21ZM58.52,38.49c.02.25.06.5.14.74.08.24.19.46.34.66.15.2.35.37.59.51.24.14.54.25.91.31.43.08.82.07,1.15-.04.33-.11.61-.27.84-.49.22-.22.39-.47.51-.76s.18-.59.18-.89c0-.4-.05-.77-.15-1.11s-.25-.64-.45-.9c-.2-.26-.46-.46-.77-.61-.32-.15-.69-.22-1.12-.2-.77.03-1.34.3-1.71.81-.38.51-.52,1.16-.44,1.96Z"/>
    <path class="cls-3" d="M83.27,42.64c-.28.42-.57.75-.85,1-.28.25-.55.44-.81.58-.26.13-.5.22-.73.26-.22.04-.43.06-.61.06-.65,0-1.18-.12-1.59-.35-.41-.23-.72-.56-.95-.98-.23-.42-.38-.92-.45-1.5-.08-.58-.12-1.22-.14-1.9v-.91c0-.41,0-.88.01-1.4,0-.53.01-1.09.01-1.7s0-1.22-.03-1.84c-.02-.58-.12-.97-.3-1.17-.18-.2-.58-.3-1.17-.3-.3,0-.59.01-.86.04-.27.03-.55.05-.84.09.17.7.25,1.45.24,2.25,0,.8-.08,1.61-.22,2.42-.14.82-.35,1.62-.62,2.4-.28.78-.6,1.5-.98,2.15-.38.65-.78,1.21-1.22,1.69-.44.48-.91.81-1.41,1.01.05-.43.09-1.05.11-1.84.02-.79.04-1.67.05-2.65,0-.98,0-2-.01-3.08s-.05-2.11-.09-3.11c-.04-1-.1-1.92-.16-2.76s-.14-1.51-.22-2.01c.95-.08,1.74.05,2.38.39.63.34,1.14.82,1.52,1.44.63-.4,1.33-.71,2.08-.92s1.5-.33,2.25-.33c.7,0,1.27.09,1.7.26.43.17.77.42,1.01.75.24.33.4.72.49,1.2.08.47.12,1.01.12,1.61,0,1.43,0,2.66.01,3.67,0,1.02.04,1.87.09,2.55.05.68.12,1.23.21,1.62.09.4.22.7.39.89.17.19.38.31.64.36.26.05.58.07.96.05Z"/>
    <path class="cls-3" d="M93.57,34.91c0-.25-.08-.52-.25-.81-.17-.29-.39-.56-.66-.81-.27-.25-.61-.46-1-.62-.39-.17-.81-.25-1.26-.25-.18,0-.37.01-.56.04-.19.03-.38.08-.55.16-.17.08-.32.2-.45.34-.12.14-.21.33-.24.56-.05.3.03.59.25.86.22.27.53.53.95.76.33.18.66.37.97.55s.58.32.8.42c.73.37,1.35.72,1.85,1.08.5.35.9.71,1.2,1.09.3.38.52.77.65,1.17.13.41.2.85.2,1.31,0,.58-.12,1.12-.36,1.6-.24.48-.59.9-1.05,1.26s-1.02.64-1.69.84-1.42.3-2.28.3c-1,0-1.91-.13-2.74-.4-.83-.27-1.48-.64-1.95-1.11-.47-.48-.74-1.04-.8-1.69-.06-.65.18-1.37.71-2.15.12.45.32.84.6,1.16.28.33.62.58,1,.78.38.19.8.32,1.25.39.45.07.91.08,1.38.02.43-.05.82-.2,1.17-.44.35-.24.53-.53.53-.86,0-.27-.04-.49-.12-.66s-.23-.35-.45-.51c-.22-.17-.52-.35-.91-.54s-.89-.44-1.49-.74c-.83-.42-1.5-.83-1.99-1.25-.49-.42-.87-.82-1.12-1.22-.26-.4-.42-.8-.5-1.21-.07-.41-.11-.81-.11-1.21,0-.5.13-.97.39-1.41.26-.44.62-.82,1.09-1.15s1.01-.59,1.64-.79c.62-.2,1.3-.32,2.04-.35.93-.03,1.79.1,2.56.4.77.3,1.37.7,1.79,1.21.42.51.61,1.1.57,1.79s-.38,1.38-1.05,2.1Z"/>
    <path class="cls-3" d="M108.59,31.86c-.12.7-.37,1.3-.75,1.81s-.82.92-1.32,1.25-1.02.57-1.56.72c-.54.16-1.04.24-1.49.24h-.38v.78c-.02.78-.02,1.57-.01,2.36,0,.79.02,1.56.04,2.31.02.75.03,1.47.05,2.15s.02,1.3.02,1.85c-.63-.15-1.19-.56-1.67-1.22-.48-.67-.89-1.48-1.21-2.44-.33-.96-.58-2.02-.76-3.19-.18-1.17-.3-2.33-.35-3.48-.72-.4-1.24-.89-1.57-1.46-.33-.58-.57-1.15-.7-1.74.82.1,1.58.17,2.27.22.05-.7.12-1.35.23-1.96.1-.61.23-1.13.4-1.56.32-.85.86-1.52,1.64-2,.77-.48,1.66-.72,2.66-.72.77,0,1.42.12,1.95.35.53.23.96.56,1.28.98s.53.9.65,1.46c.12.56.15,1.16.1,1.81-.35-.5-.67-.88-.96-1.15-.29-.27-.56-.46-.81-.58-.25-.12-.48-.17-.69-.17s-.4,0-.56.02c-.47.07-.83.43-1.1,1.09s-.47,1.51-.6,2.56c.8-.03,1.62-.07,2.47-.11s1.77-.1,2.75-.19Z"/>
    <path class="cls-3" d="M123.19,38.86c-.68.1-1.3.19-1.86.26-.56.07-1.13.13-1.71.17-.58.04-1.23.07-1.93.09-.7.02-1.53.03-2.47.03.12,1.07.7,1.86,1.74,2.38s2.65.67,4.81.45c-.28.38-.65.71-1.1.99-.45.28-.93.5-1.45.66-.52.17-1.05.28-1.59.35s-1.05.08-1.54.05c-.8-.05-1.57-.24-2.3-.58-.73-.33-1.38-.81-1.92-1.44-.55-.62-.99-1.4-1.31-2.31-.33-.92-.48-1.97-.46-3.17.02-1.23.22-2.32.6-3.25s.88-1.71,1.49-2.33c.61-.62,1.28-1.08,2.02-1.39.74-.31,1.48-.46,2.21-.46,1.08,0,2.06.16,2.94.47.88.32,1.61.85,2.21,1.59s1.05,1.72,1.34,2.94c.29,1.22.39,2.72.29,4.5ZM116.84,31.94c-.35,0-.65.08-.91.25-.26.17-.47.45-.64.84-.17.39-.29.91-.36,1.56-.08.65-.11,1.46-.09,2.42.27.02.75.02,1.45.01.7,0,1.61-.03,2.73-.06.05-.83.02-1.57-.09-2.2-.11-.63-.26-1.16-.46-1.57-.2-.42-.44-.73-.72-.94-.28-.21-.58-.31-.9-.31Z"/>
    <path class="cls-3" d="M133.82,38.01c.03-1.85-.2-3.27-.7-4.25-.5-.98-1.23-1.46-2.2-1.42-.13,0-.25,0-.35.01-.1,0-.2.02-.3.04.23.67.37,1.41.4,2.23s-.02,1.65-.15,2.5c-.13.85-.33,1.69-.6,2.51-.27.82-.59,1.58-.97,2.27-.38.69-.81,1.29-1.28,1.8-.47.51-.96.87-1.47,1.09.05-.43.09-1.04.11-1.83.03-.78.04-1.66.05-2.62,0-.97,0-1.98-.01-3.04-.02-1.06-.05-2.08-.09-3.06-.04-.98-.1-1.89-.16-2.73-.07-.83-.14-1.5-.23-2,.8-.07,1.49.02,2.08.26.58.24,1.07.59,1.45,1.04.72-.73,1.72-1.1,3.02-1.1.82,0,1.51.14,2.09.41.58.27,1.03.64,1.35,1.1.33.46.53.98.6,1.58s.03,1.2-.14,1.81c-.17.62-.46,1.22-.88,1.81-.42.59-.96,1.12-1.62,1.59Z"/>
  </g>
  <g>
    <path class="cls-1" d="M67.33,137.12l-4.26,3.72c-1.15,1-1.84,2.35-2.03,3.77-.18,1.31.13,2.37.23,2.68.21.65.49,1.15.71,1.49,2.72,4.15,5.44,8.3,8.16,12.46,1.16,1.77,3.14,2.81,5.25,2.76l12.01-.29c2.91-.07,5.36-2.19,5.86-5.05l1.42-8.12c.14-.8.44-1.56.88-2.25h0c2.36-3.68.2-8.57-4.11-9.31l-19.08-3.26c-1.81-.31-3.66.21-5.04,1.42Z"/>
    <g>
      <path class="cls-4" d="M56.92,148.11c-1.43,0-2.76-.76-3.46-1.99l-13.42-23.24c-.53-.92-.67-1.99-.39-3.02s.93-1.89,1.85-2.42l12.37-7.14c.6-.35,1.28-.53,1.98-.53,1.43,0,2.76.76,3.46,1.99l13.42,23.24c.53.92.67,1.99.39,3.02s-.93,1.89-1.85,2.42l-12.37,7.14c-.6.35-1.28.53-1.98.53Z"/>
      <path class="cls-6" d="M55.85,110.77c1.07,0,2.07.57,2.6,1.49l13.42,23.24c.82,1.43.33,3.25-1.09,4.08l-12.37,7.14c-.45.26-.96.4-1.48.4-1.07,0-2.07-.57-2.6-1.49l-13.42-23.24c-.82-1.43-.33-3.25,1.09-4.08l12.37-7.14c.45-.26.96-.4,1.48-.4M55.85,108.77c-.84,0-1.7.21-2.48.66l-12.37,7.14c-2.37,1.37-3.19,4.43-1.82,6.81l13.42,23.24c.92,1.59,2.6,2.49,4.33,2.49.84,0,1.7-.21,2.48-.66l12.37-7.14c2.37-1.37,3.19-4.43,1.82-6.81l-13.42-23.24c-.92-1.59-2.6-2.49-4.33-2.49h0Z"/>
    </g>
    <g>
      <path class="cls-9" d="M65.23,141.84c-1.93,0-3.62-1.3-4.12-3.15l-6.8-25.39c-.29-1.09-.14-2.24.43-3.22.57-.99,1.49-1.69,2.58-1.99l13.28-3.56c.36-.1.73-.14,1.09-.14,1.93,0,3.62,1.3,4.12,3.15l6.8,25.39c.61,2.27-.74,4.6-3.01,5.21l-13.28,3.56c-.36.1-.73.14-1.09.14Z"/>
      <path class="cls-6" d="M71.69,105.38c1.48,0,2.77.99,3.15,2.41l6.8,25.39c.22.83.11,1.71-.33,2.47-.44.76-1.14,1.3-1.97,1.52l-13.28,3.56c-.27.07-.55.11-.83.11-1.48,0-2.77-.99-3.15-2.41l-6.8-25.39c-.22-.83-.11-1.71.33-2.47.44-.76,1.14-1.3,1.97-1.52l13.28-3.56c.27-.07.55-.11.83-.11M71.69,103.38c-.45,0-.9.06-1.35.18l-13.28,3.56c-2.79.75-4.46,3.64-3.72,6.44l6.8,25.39c.63,2.34,2.76,3.89,5.08,3.89.45,0,.9-.06,1.35-.18l13.28-3.56c2.79-.75,4.46-3.64,3.72-6.44l-6.8-25.39c-.63-2.34-2.76-3.89-5.08-3.89h0Z"/>
    </g>
    <g>
      <path class="cls-12" d="M84.12,141.96c-.32,0-.65-.04-.96-.13l-14.26-3.82c-.96-.26-1.77-.88-2.27-1.75-.5-.87-.64-1.88-.38-2.84l7.07-26.38c.44-1.63,1.93-2.77,3.62-2.77.32,0,.65.04.96.13l14.26,3.82c.96.26,1.77.88,2.27,1.75s.64,1.88.38,2.84l-7.07,26.38c-.44,1.63-1.93,2.77-3.62,2.77Z"/>
      <path class="cls-6" d="M76.94,105.27h0c.24,0,.47.03.7.09l14.26,3.82c1.46.39,2.33,1.9,1.94,3.36l-7.07,26.38c-.32,1.2-1.41,2.03-2.66,2.03-.24,0-.47-.03-.7-.09l-14.26-3.82c-1.46-.39-2.33-1.9-1.94-3.36l7.07-26.38c.32-1.2,1.41-2.03,2.66-2.03M76.94,103.27c-2.09,0-4.02,1.4-4.59,3.52l-7.07,26.38c-.67,2.52.83,5.13,3.35,5.81l14.26,3.82c.41.11.82.16,1.22.16,2.09,0,4.02-1.4,4.59-3.52l7.07-26.38c.68-2.52-.83-5.13-3.35-5.81l-14.26-3.82c-.41-.11-.82-.16-1.22-.16h0Z"/>
    </g>
    <g>
      <path class="cls-10" d="M93.26,148.89c-.65,0-1.29-.17-1.86-.5l-12.8-7.39c-1.79-1.03-2.4-3.32-1.37-5.11l13.66-23.66c.66-1.15,1.91-1.87,3.25-1.87.65,0,1.29.17,1.86.5l12.8,7.39c.86.5,1.48,1.3,1.74,2.27.26.97.13,1.98-.37,2.84l-13.66,23.66c-.66,1.15-1.91,1.87-3.25,1.87Z"/>
      <path class="cls-6" d="M94.15,111.37h0c.48,0,.94.13,1.36.36l12.8,7.39c.63.36,1.08.95,1.27,1.66.19.71.1,1.45-.27,2.08l-13.66,23.66c-.49.84-1.4,1.37-2.39,1.37-.48,0-.94-.13-1.36-.36l-12.8-7.39c-1.31-.76-1.76-2.43-1-3.74l13.66-23.66c.49-.84,1.4-1.37,2.39-1.37M94.15,109.37c-1.64,0-3.24.85-4.12,2.37l-13.66,23.66c-1.3,2.26-.52,5.17,1.73,6.47l12.8,7.39c.74.43,1.55.63,2.36.63,1.64,0,3.24-.85,4.12-2.37l13.66-23.66c1.3-2.26.52-5.17-1.73-6.47l-12.8-7.39c-.74-.43-1.55-.63-2.36-.63h0Z"/>
    </g>
    <g>
      <path class="cls-4" d="M111.86,100.69c-.12,0-.24,0-.36-.02l-15.17-1.73c-.84-.1-1.6-.52-2.14-1.19-.53-.67-.77-1.5-.68-2.35l3.13-27.53c.18-1.62,1.55-2.84,3.18-2.84.12,0,.24,0,.36.02l15.17,1.73c.84.1,1.6.52,2.14,1.19s.77,1.51.68,2.35l-3.13,27.53c-.18,1.62-1.55,2.83-3.18,2.83Z"/>
      <path class="cls-6" d="M99.82,66.04h0c.08,0,.17,0,.25.01l15.17,1.73c1.2.14,2.07,1.23,1.93,2.43l-3.13,27.53c-.12,1.09-1.08,1.95-2.18,1.95-.08,0-.17,0-.25-.01l-15.17-1.73c-.58-.07-1.1-.36-1.47-.82-.37-.46-.53-1.03-.47-1.61l3.13-27.53c.12-1.09,1.08-1.95,2.18-1.95M99.82,64.04c-2.1,0-3.93,1.59-4.17,3.72l-3.13,27.53c-.26,2.29,1.4,4.38,3.7,4.65l15.17,1.73c.16.02.32.03.47.03,2.1,0,3.93-1.59,4.17-3.72l3.13-27.53c.26-2.29-1.4-4.38-3.7-4.65l-15.17-1.73c-.16-.02-.32-.03-.47-.03h0Z"/>
    </g>
    <path class="cls-1" d="M61.26,147.29s-3.91-8.33,7.19-12.28c11.1-3.95,20.2-1.63,16.51,1.54l-7.29,4.63"/>
    <g>
      <path class="cls-6" d="M125.7,62.4c-1.02-.58-2.03-1.16-3.05-1.74,0,0-.02.02-.03.02-.02,0-.03-.02-.05-.03-.18-.02-.34.06-.4.22-.13.32-.3.21-.49.08-1.27-.84-2.44-1.81-3.6-2.79-.96-.81-1.88-1.68-2.92-2.4-.62-.43-1.3-.66-2.02-.82-.27-.06-.51-.16-.75-.3-1.72-1-3.44-1.99-5.16-2.98-.72-.42-1.34-.19-1.67.6-.18.44-.16.87.02,1.34-.88-.17-1.71-.29-2.53-.49-.56-.14-.85.2-.97.6-.16.54-.06,1.01.38,1.79-.54-.08-1.06-.11-1.55-.24-1.07-.29-1.7.71-1.33,1.69.35.93,1.11,1.43,2.01,1.7,1.4.41,2.82.75,4.22,1.12.06.02.12.04.23.07-.23.18-.29.4-.34.63-.3,1.3-.61,2.6-.93,3.9-.02.08-.02.15-.02.22.13.01.26.03.38.05.12,0,.24,0,.36.02.02,0,.04-.01.06-.01.03,0,.06,0,.09,0,.01-.01.02-.03.04-.04-.03-.1-.03-.2,0-.32.28-1.15.56-2.31.83-3.46.06-.25.17-.4.4-.51.68-.35,1.39-.62,2.1-.89.27-.1.41-.28.31-.56-.1-.29-.33-.33-.6-.23-.46.17-.92.35-1.37.53-.11.05-.21.08-.34.05-1.76-.47-3.53-.91-5.28-1.41-.55-.16-1.03-.49-1.3-1.04-.09-.19-.14-.41-.03-.59.11-.19.32-.07.49-.04,2.29.37,4.58.75,6.87,1.13,1.13.19,2.26.38,3.39.58.24.04.45,0,.56-.22.09-.18.04-.37-.12-.52-.12-.11-.28-.11-.42-.13-2.05-.35-4.09-.69-6.14-1.03-.6-.1-1.13-.38-1.61-.74-.28-.21-.48-.52-.52-.89-.03-.26.04-.36.33-.3,2.65.56,5.33,1,8,1.41,1.92.29,3.62.92,5.07,2.3,1.57,1.49,3.23,2.9,5.09,4.03.27.16.13.3.04.46-.84,1.46-1.69,2.92-2.53,4.39-.13.23-.26.33-.53.32-.31-.01-.61.08-.91.2-.81.31-1.48.84-2.2,1.3-.55.35-1.11.68-1.78.75-.82.09-1.64.17-2.47.18-.15,0-.29,0-.43-.07-.87-.43-1.76-.84-2.72-1.05-.52-.11-.63-.51-.27-.9.72-.8,1.65-.92,2.65-.78.1.01.23.07.28.15.23.35.53.29.86.19.23-.08.47-.14.71-.19.31-.06.46-.24.47-.56.05-.86.1-1.72.15-2.58.02-.33-.09-.52-.45-.6-.58-.13-1.13-.33-1.19-1.07-.02-.23-.19-.36-.43-.33-.24.03-.4.15-.39.42,0,.1.06.22-.13.23-.57.02-1.12.23-1.7.1-.2-.04-.37,0-.49.2-.11.2-.07.38.08.52.11.1.17.17.11.34-.2.53-.31,1.06-.23,1.6.02,0,.04,0,.06.01.01,0,.09.02.03,0,.02,0,.04,0,.06,0,.09,0,.18.02.27.02.16.01.33.03.49.07-.1-.6-.05-1.17.2-1.65.04-.25.13-.25.24-.27.39-.04.78-.09,1.17-.14.13-.02.24.02.33.11.23.25.52.39.83.48.2.06.3.16.27.41-.06.52-.07,1.04-.1,1.57-.02.32-.44.6-.7.42-.59-.41-1.23-.42-1.9-.35-.02,0-.04,0-.06.01-.05.05-.11.09-.18.09-.09,0-.18,0-.26,0-.02,0-.04,0-.06,0,0,0-.02,0-.02,0-.03,0-.07.03-.11.03,0,0,0,0-.01,0-.02,0-.03.02-.05.02-.05.02-.1.05-.15.07-.07.03-.14.04-.21.05-.03.03-.07.05-.12.08l-.07-.04c-.11.1-.24.17-.38.25-.17.09-.29.2-.4.38-.13.2-.25.41-.39.61-.06.08-.11.16-.17.24.03.06.06.12.06.2.03.81.29,1.2,1.05,1.38.91.21,1.76.55,2.57,1,.24.13.48.17.74.17.94-.02,1.87-.09,2.8-.21.69-.09,1.29-.39,1.87-.76.63-.4,1.22-.85,1.88-1.19.22-.11.44-.2.76-.25-.15.25-.27.47-.4.68-.18.31-.15.55.18.75.94.53,1.87,1.07,2.8,1.61.29.17.5.13.67-.18,1.46-2.54,2.92-5.07,4.39-7.61.15-.26.14-.47-.13-.62ZM110.15,54.36c-1.01-.17-2.03-.33-3.04-.51-.38-.07-.81-.57-.84-.91-.02-.24.11-.41.24-.59.08-.11.19-.05.29,0,1.12.65,2.25,1.3,3.37,1.95,0,.02-.01.04-.02.06ZM124.8,63.15c-1.26,2.17-2.52,4.35-3.77,6.54-.11.18-.19.22-.37.1-.56-.34-1.12-.67-1.7-.98-.24-.13-.26-.23-.12-.46.64-1.08,1.26-2.16,1.88-3.25.62-1.07,1.24-2.14,1.85-3.22.11-.2.2-.23.4-.11.57.35,1.15.68,1.73,1,.19.1.21.19.1.37Z"/>
      <path class="cls-7" d="M122.57,60.64s.03.03.05.03c0,0,.02-.01.03-.02-.02,0-.05-.01-.07-.02Z"/>
      <path class="cls-3" d="M121.36,61.72c-1.86-1.13-3.52-2.54-5.09-4.03-1.46-1.38-3.15-2-5.07-2.3-2.68-.41-5.35-.85-8-1.41-.29-.06-.36.04-.33.3.04.38.23.68.52.89.48.36,1.01.64,1.61.74,2.05.34,4.1.68,6.14,1.03.14.02.3.02.42.13.16.15.2.34.12.52-.11.23-.32.26-.56.22-1.13-.2-2.26-.39-3.39-.58-2.29-.38-4.58-.76-6.87-1.13-.16-.03-.37-.15-.49.04-.11.18-.06.4.03.59.27.55.76.88,1.3,1.04,1.75.5,3.52.94,5.28,1.41.14.04.23,0,.34-.05.45-.18.91-.35,1.37-.53.27-.1.5-.06.6.23.09.28-.04.46-.31.56-.71.27-1.42.54-2.1.89-.22.12-.34.26-.4.51-.26,1.16-.54,2.31-.83,3.46-.03.14-.03.26.01.37,0,0,.02,0,.03,0,.1,0,.21,0,.31.02l1.9.28c.06-.17.28-1.75.17-1.85-.15-.14-.3-.42-.18-.62.11-.2.29-.24.49-.2.58.13,1.13-.09,1.7-.1.18,0,.13-.13.13-.23-.01-.27.15-.4.39-.42.24-.03.41.1.43.33.07.74.62.94,1.19,1.07.36.08.47.27.45.6-.05.86-.11,1.72-.15,2.58-.02.32-.16.5-.47.56-.24.05-.48.11-.71.19-.33.11-.63.16-.86-.19-.05-.08-.18-.14-.28-.15-1-.15-1.93-.02-2.65.78-.36.4-.25.79.27.9.97.2,1.85.61,2.72,1.05.14.07.28.07.43.07.83,0,1.65-.1,2.47-.18.67-.07,1.23-.39,1.78-.75.72-.46,1.39-.99,2.2-1.3.3-.12.6-.21.91-.2.28.01.4-.09.53-.32.83-1.47,1.68-2.93,2.53-4.39.09-.16.23-.29-.04-.46Z"/>
      <path class="cls-3" d="M120.72,65.1c-.63,1.08-1.24,2.17-1.88,3.25-.14.23-.12.33.12.46.57.31,1.14.64,1.7.98.19.11.27.08.37-.1,1.25-2.18,2.51-4.36,3.77-6.54.11-.19.09-.27-.1-.37-.58-.32-1.16-.65-1.73-1-.2-.12-.28-.09-.4.11-.61,1.08-1.23,2.15-1.85,3.22Z"/>
      <path class="cls-3" d="M110.17,54.3c-1.12-.65-2.25-1.3-3.37-1.95-.1-.06-.21-.11-.29,0-.13.17-.26.35-.24.59.03.33.46.84.84.91,1.01.19,2.02.34,3.04.51,0-.02.01-.04.02-.06Z"/>
    </g>
  </g>
</svg>