<?xml version="1.0" encoding="UTF-8"?>
<svg id="Laag_1" data-name="Laag 1" xmlns="http://www.w3.org/2000/svg" viewBox="0 0 164.41 249.45">
  <defs>
    <style>
      .cls-1 {
        stroke: #1d1e1c;
        stroke-linecap: round;
        stroke-linejoin: round;
        stroke-width: 5px;
      }

      .cls-1, .cls-2 {
        fill: #1d1d1b;
      }

      .cls-3 {
        fill: #8082b8;
      }

      .cls-3, .cls-2 {
        stroke-width: 0px;
      }
    </style>
  </defs>
  <rect class="cls-3" x="0" y="0" width="164.41" height="249.45"/>
  <path class="cls-2" d="M17.46,25.88c.62-.43,1.17-.85,1.64-1.26.47-.41.89-.83,1.28-1.26.38-.43.76-.89,1.13-1.39.37-.49.77-1.03,1.21-1.6,1.37.58,2.44,1.51,3.22,2.81s1.31,2.79,1.6,4.48.37,3.48.23,5.36c-.13,1.88-.43,3.69-.9,5.42-.47,1.73-1.07,3.28-1.82,4.66-.74,1.38-1.57,2.41-2.48,3.08.17-3.41.23-6.85.2-10.31-.04-3.47-.16-6.98-.38-10.53-.62.12-1.34.24-2.14.36-.8.12-1.73.18-2.79.18Z"/>
  <path class="cls-2" d="M147.47,223.93c-.62.43-1.17.85-1.64,1.26s-.89.83-1.28,1.26c-.38.43-.76.89-1.13,1.39-.37.49-.77,1.03-1.21,1.6-1.37-.58-2.44-1.51-3.22-2.81-.78-1.3-1.31-2.79-1.6-4.48-.29-1.69-.37-3.48-.23-5.36s.43-3.69.9-5.42c.47-1.73,1.07-3.28,1.82-4.66.74-1.38,1.57-2.41,2.48-3.08-.17,3.41-.23,6.85-.2,10.31s.16,6.98.38,10.53c.62-.12,1.34-.24,2.14-.36.8-.12,1.73-.18,2.79-.18Z"/>
  <path class="cls-1" d="M121.35,124.72c-10.81,0-20.6,4.49-27.68,11.76-7.09,7.27-11.47,17.3-11.47,28.39,0-11.09-4.38-21.12-11.46-28.39s-16.87-11.76-27.68-11.76c0-11.09,4.38-21.13,11.46-28.39,7.09-7.27,16.87-11.76,27.68-11.76s20.6,4.49,27.68,11.76c7.09,7.26,11.47,17.3,11.47,28.39Z"/>
</svg>