<?xml version="1.0" encoding="UTF-8"?>
<svg id="Laag_1" data-name="Laag 1" xmlns="http://www.w3.org/2000/svg" xmlns:xlink="http://www.w3.org/1999/xlink" viewBox="0 0 164.41 249.45">
  <defs>
    <style>
      .cls-1 {
        clip-path: url(#clippath);
      }

      .cls-2 {
        fill: none;
      }

      .cls-2, .cls-3, .cls-4 {
        stroke-width: 0px;
      }

      .cls-4 {
        fill: #ddcec1;
      }
    </style>
    <clipPath id="clippath">
      <rect class="cls-2" x="0" y="0" width="164.41" height="249.45" rx="26.93" ry="26.93"/>
    </clipPath>
  </defs>
  <g>
    <rect class="cls-3" x="2.5" y="2.5" width="159.41" height="244.45"/>
    <path class="cls-3" d="M159.41,5v239.45H5V5h154.41M164.41,0H0v249.45h164.41V0h0Z"/>
  </g>
  <g class="cls-1">
    <g>
      <path class="cls-4" d="M1.78,231.96c7.4,0,14.11-3,18.96-7.85,4.85-4.85,7.85-11.55,7.85-18.96,0,7.4,3,14.11,7.85,18.96,4.85,4.85,11.55,7.85,18.96,7.85-7.4,0-14.11,3-18.96,7.85-4.85,4.85-7.85,11.55-7.85,18.96,0-14.81-12-26.81-26.81-26.81Z"/>
      <path class="cls-4" d="M9.63,250.92c-4.85-4.85-7.85-11.55-7.85-18.96h26.81v26.81c-7.4,0-14.11-3-18.96-7.85Z"/>
      <path class="cls-4" d="M47.54,250.92c-4.85,4.85-11.55,7.85-18.96,7.85v-26.81h26.81c0,7.4-3,14.11-7.85,18.96Z"/>
      <path class="cls-4" d="M55.4,178.34c-7.4,0-14.11,3-18.96,7.85-4.85,4.85-7.85,11.55-7.85,18.96,0-7.4-3-14.11-7.85-18.96-4.85-4.85-11.55-7.85-18.96-7.85,7.4,0,14.11-3,18.96-7.85,4.85-4.85,7.85-11.55,7.85-18.96,0,14.81,12,26.81,26.81,26.81Z"/>
      <path class="cls-4" d="M47.54,159.39c4.85,4.85,7.85,11.55,7.85,18.96h-26.81v-26.81c7.4,0,14.11,3,18.96,7.85Z"/>
      <path class="cls-4" d="M9.63,159.39c4.85-4.85,11.55-7.85,18.96-7.85v26.81H1.78c0-7.4,3-14.11,7.85-18.96Z"/>
      <path class="cls-4" d="M109.01,231.96c-7.4,0-14.11,3-18.96,7.85-4.85,4.85-7.85,11.55-7.85,18.96,0-7.4-3-14.11-7.85-18.96-4.85-4.85-11.55-7.85-18.96-7.85,7.4,0,14.11-3,18.96-7.85,4.85-4.85,7.85-11.55,7.85-18.96,0,14.81,12,26.81,26.81,26.81Z"/>
      <path class="cls-4" d="M101.16,213.01c4.85,4.85,7.85,11.55,7.85,18.96h-26.81v-26.81c7.4,0,14.11,3,18.96,7.85Z"/>
      <path class="cls-4" d="M63.25,213.01c4.85-4.85,11.55-7.85,18.96-7.85v26.81h-26.81c0-7.4,3-14.11,7.85-18.96Z"/>
      <path class="cls-4" d="M55.4,178.34c7.4,0,14.11-3,18.96-7.85,4.85-4.85,7.85-11.55,7.85-18.96,0,7.4,3,14.11,7.85,18.96,4.85,4.85,11.55,7.85,18.96,7.85-7.4,0-14.11,3-18.96,7.85-4.85,4.85-7.85,11.55-7.85,18.96,0-14.81-12-26.81-26.81-26.81Z"/>
      <path class="cls-4" d="M63.25,197.3c-4.85-4.85-7.85-11.55-7.85-18.96h26.81v26.81c-7.4,0-14.11-3-18.96-7.85Z"/>
      <path class="cls-4" d="M101.16,197.3c-4.85,4.85-11.55,7.85-18.96,7.85v-26.81h26.81c0,7.4-3,14.11-7.85,18.96Z"/>
      <path class="cls-4" d="M109.01,231.96c7.4,0,14.11-3,18.96-7.85,4.85-4.85,7.85-11.55,7.85-18.96,0,7.4,3,14.11,7.85,18.96,4.85,4.85,11.55,7.85,18.96,7.85-7.4,0-14.11,3-18.96,7.85-4.85,4.85-7.85,11.55-7.85,18.96,0-14.81-12-26.81-26.81-26.81Z"/>
      <path class="cls-4" d="M116.87,250.92c-4.85-4.85-7.85-11.55-7.85-18.96h26.81v26.81c-7.4,0-14.11-3-18.96-7.85Z"/>
      <path class="cls-4" d="M154.78,250.92c-4.85,4.85-11.55,7.85-18.96,7.85v-26.81h26.81c0,7.4-3,14.11-7.85,18.96Z"/>
      <path class="cls-4" d="M162.63,178.34c-7.4,0-14.11,3-18.96,7.85-4.85,4.85-7.85,11.55-7.85,18.96,0-7.4-3-14.11-7.85-18.96-4.85-4.85-11.55-7.85-18.96-7.85,7.4,0,14.11-3,18.96-7.85,4.85-4.85,7.85-11.55,7.85-18.96,0,14.81,12,26.81,26.81,26.81Z"/>
      <path class="cls-4" d="M154.78,159.39c4.85,4.85,7.85,11.55,7.85,18.96h-26.81v-26.81c7.4,0,14.11,3,18.96,7.85Z"/>
      <path class="cls-4" d="M116.87,159.39c4.85-4.85,11.55-7.85,18.96-7.85v26.81h-26.81c0-7.4,3-14.11,7.85-18.96Z"/>
      <path class="cls-4" d="M1.78,124.72c7.4,0,14.11-3,18.96-7.85,4.85-4.85,7.85-11.55,7.85-18.96,0,7.4,3,14.11,7.85,18.96,4.85,4.85,11.55,7.85,18.96,7.85-7.4,0-14.11,3-18.96,7.85-4.85,4.85-7.85,11.55-7.85,18.96,0-14.81-12-26.81-26.81-26.81Z"/>
      <path class="cls-4" d="M9.63,143.68c-4.85-4.85-7.85-11.55-7.85-18.96h26.81v26.81c-7.4,0-14.11-3-18.96-7.85Z"/>
      <path class="cls-4" d="M47.54,143.68c-4.85,4.85-11.55,7.85-18.96,7.85v-26.81h26.81c0,7.4-3,14.11-7.85,18.96Z"/>
      <path class="cls-4" d="M55.4,71.11c-7.4,0-14.11,3-18.96,7.85-4.85,4.85-7.85,11.55-7.85,18.96,0-7.4-3-14.11-7.85-18.96-4.85-4.85-11.55-7.85-18.96-7.85,7.4,0,14.11-3,18.96-7.85,4.85-4.85,7.85-11.55,7.85-18.96,0,14.81,12,26.81,26.81,26.81Z"/>
      <path class="cls-4" d="M47.54,52.15c4.85,4.85,7.85,11.55,7.85,18.96h-26.81v-26.81c7.4,0,14.11,3,18.96,7.85Z"/>
      <path class="cls-4" d="M9.63,52.15c4.85-4.85,11.55-7.85,18.96-7.85v26.81H1.78c0-7.4,3-14.11,7.85-18.96Z"/>
      <path class="cls-4" d="M109.01,124.72c-7.4,0-14.11,3-18.96,7.85-4.85,4.85-7.85,11.55-7.85,18.96,0-7.4-3-14.11-7.85-18.96-4.85-4.85-11.55-7.85-18.96-7.85,7.4,0,14.11-3,18.96-7.85,4.85-4.85,7.85-11.55,7.85-18.96,0,14.81,12,26.81,26.81,26.81Z"/>
      <path class="cls-4" d="M101.16,105.77c4.85,4.85,7.85,11.55,7.85,18.96h-26.81v-26.81c7.4,0,14.11,3,18.96,7.85Z"/>
      <path class="cls-4" d="M63.25,105.77c4.85-4.85,11.55-7.85,18.96-7.85v26.81h-26.81c0-7.4,3-14.11,7.85-18.96Z"/>
      <path class="cls-4" d="M55.4,71.11c7.4,0,14.11-3,18.96-7.85,4.85-4.85,7.85-11.55,7.85-18.96,0,7.4,3,14.11,7.85,18.96,4.85,4.85,11.55,7.85,18.96,7.85-7.4,0-14.11,3-18.96,7.85-4.85,4.85-7.85,11.55-7.85,18.96,0-14.81-12-26.81-26.81-26.81Z"/>
      <path class="cls-4" d="M63.25,90.06c-4.85-4.85-7.85-11.55-7.85-18.96h26.81v26.81c-7.4,0-14.11-3-18.96-7.85Z"/>
      <path class="cls-4" d="M101.16,90.06c-4.85,4.85-11.55,7.85-18.96,7.85v-26.81h26.81c0,7.4-3,14.11-7.85,18.96Z"/>
      <path class="cls-4" d="M109.01,124.72c7.4,0,14.11-3,18.96-7.85,4.85-4.85,7.85-11.55,7.85-18.96,0,7.4,3,14.11,7.85,18.96,4.85,4.85,11.55,7.85,18.96,7.85-7.4,0-14.11,3-18.96,7.85-4.85,4.85-7.85,11.55-7.85,18.96,0-14.81-12-26.81-26.81-26.81Z"/>
      <path class="cls-4" d="M116.87,143.68c-4.85-4.85-7.85-11.55-7.85-18.96h26.81v26.81c-7.4,0-14.11-3-18.96-7.85Z"/>
      <path class="cls-4" d="M154.78,143.68c-4.85,4.85-11.55,7.85-18.96,7.85v-26.81h26.81c0,7.4-3,14.11-7.85,18.96Z"/>
      <path class="cls-4" d="M162.63,71.11c-7.4,0-14.11,3-18.96,7.85-4.85,4.85-7.85,11.55-7.85,18.96,0-7.4-3-14.11-7.85-18.96-4.85-4.85-11.55-7.85-18.96-7.85,7.4,0,14.11-3,18.96-7.85,4.85-4.85,7.85-11.55,7.85-18.96,0,14.81,12,26.81,26.81,26.81Z"/>
      <path class="cls-4" d="M154.78,52.15c4.85,4.85,7.85,11.55,7.85,18.96h-26.81v-26.81c7.4,0,14.11,3,18.96,7.85Z"/>
      <path class="cls-4" d="M116.87,52.15c4.85-4.85,11.55-7.85,18.96-7.85v26.81h-26.81c0-7.4,3-14.11,7.85-18.96Z"/>
      <path class="cls-4" d="M1.78,17.49c7.4,0,14.11-3,18.96-7.85,4.85-4.85,7.85-11.55,7.85-18.96,0,7.4,3,14.11,7.85,18.96,4.85,4.85,11.55,7.85,18.96,7.85-7.4,0-14.11,3-18.96,7.85-4.85,4.85-7.85,11.55-7.85,18.96,0-14.81-12-26.81-26.81-26.81Z"/>
      <path class="cls-4" d="M9.63,36.44C4.78,31.59,1.78,24.89,1.78,17.49h26.81v26.81c-7.4,0-14.11-3-18.96-7.85Z"/>
      <path class="cls-4" d="M47.54,36.44c-4.85,4.85-11.55,7.85-18.96,7.85v-26.81h26.81c0,7.4-3,14.11-7.85,18.96Z"/>
      <path class="cls-4" d="M109.01,17.49c-7.4,0-14.11,3-18.96,7.85-4.85,4.85-7.85,11.55-7.85,18.96,0-7.4-3-14.11-7.85-18.96-4.85-4.85-11.55-7.85-18.96-7.85,7.4,0,14.11-3,18.96-7.85,4.85-4.85,7.85-11.55,7.85-18.96,0,14.81,12,26.81,26.81,26.81Z"/>
      <path class="cls-4" d="M101.16-1.47c4.85,4.85,7.85,11.55,7.85,18.96h-26.81V-9.32c7.4,0,14.11,3,18.96,7.85Z"/>
      <path class="cls-4" d="M63.25-1.47c4.85-4.85,11.55-7.85,18.96-7.85v26.81h-26.81c0-7.4,3-14.11,7.85-18.96Z"/>
      <path class="cls-4" d="M109.01,17.49c7.4,0,14.11-3,18.96-7.85,4.85-4.85,7.85-11.55,7.85-18.96,0,7.4,3,14.11,7.85,18.96,4.85,4.85,11.55,7.85,18.96,7.85-7.4,0-14.11,3-18.96,7.85-4.85,4.85-7.85,11.55-7.85,18.96,0-14.81-12-26.81-26.81-26.81Z"/>
      <path class="cls-4" d="M116.87,36.44c-4.85-4.85-7.85-11.55-7.85-18.96h26.81v26.81c-7.4,0-14.11-3-18.96-7.85Z"/>
      <path class="cls-4" d="M154.78,36.44c-4.85,4.85-11.55,7.85-18.96,7.85v-26.81h26.81c0,7.4-3,14.11-7.85,18.96Z"/>
    </g>
  </g>
</svg>