<?xml version="1.0" encoding="UTF-8"?>
<svg id="Laag_1" data-name="Laag 1" xmlns="http://www.w3.org/2000/svg" viewBox="0 0 164.41 249.45">
  <defs>
    <style>
      .cls-1 {
        stroke-width: .44px;
      }

      .cls-1, .cls-2 {
        stroke: #fff;
      }

      .cls-1, .cls-2, .cls-3 {
        stroke-miterlimit: 10;
      }

      .cls-1, .cls-4 {
        fill: #fff;
      }

      .cls-2 {
        stroke-width: 1.59px;
      }

      .cls-2, .cls-3 {
        fill: none;
      }

      .cls-3 {
        stroke: #1d1d1b;
        stroke-width: 3.96px;
      }

      .cls-5 {
        fill: #2f2f2f;
      }

      .cls-5, .cls-6, .cls-7, .cls-8, .cls-4 {
        stroke-width: 0px;
      }

      .cls-6 {
        fill: #1d1d1b;
      }

      .cls-7 {
        fill: #de2b65;
      }

      .cls-8 {
        fill: #8abb2a;
      }
    </style>
  </defs>
  <rect class="cls-5" x="0" y="0" width="164.41" height="249.45"/>
  <g>
    <path class="cls-7" d="M141.74,206.68c-4.35,0-7.89-3.7-7.89-8.26s3.54-8.25,7.89-8.25,7.89,3.7,7.89,8.25-3.54,8.26-7.89,8.26Z"/>
    <path class="cls-6" d="M141.74,191.17c3.8,0,6.89,3.25,6.89,7.26s-3.09,7.26-6.89,7.26-6.89-3.25-6.89-7.26,3.09-7.26,6.89-7.26M141.74,189.17c-4.91,0-8.89,4.14-8.89,9.26s3.98,9.26,8.89,9.26,8.89-4.14,8.89-9.26-3.98-9.26-8.89-9.26h0Z"/>
  </g>
  <g>
    <path class="cls-8" d="M141.74,234.43c-4.35,0-7.89-3.7-7.89-8.26s3.54-8.26,7.89-8.26,7.89,3.7,7.89,8.26-3.54,8.26-7.89,8.26Z"/>
    <path class="cls-6" d="M141.74,218.92c3.8,0,6.89,3.25,6.89,7.26s-3.09,7.26-6.89,7.26-6.89-3.25-6.89-7.26,3.09-7.26,6.89-7.26M141.74,216.92c-4.91,0-8.89,4.14-8.89,9.26s3.98,9.26,8.89,9.26,8.89-4.14,8.89-9.26-3.98-9.26-8.89-9.26h0Z"/>
  </g>
  <g>
    <path class="cls-1" d="M20.2,194.84c-.1-.11-.16-.24-.16-.39,0-.32.26-.58.58-.58h1.2c.52,0,.85-.37.85-.84s-.33-.85-.85-.85h-2.38v5.11c0,.32-.26.58-.58.58s-.58-.26-.58-.58v-5.65c0-.32.26-.58.58-.58h2.97c1.15,0,2,.88,2,1.97s-.82,1.94-1.96,1.95l1.76,1.94c.21.23.2.6-.04.81-.23.21-.6.19-.81-.04l-2.57-2.85Z"/>
    <path class="cls-1" d="M28.53,192.67c0-.32.26-.57.57-.57s.57.25.57.57v2.84c0,1.33-1.09,2.43-2.43,2.43s-2.42-1.09-2.42-2.43v-2.84c0-.32.25-.57.57-.57s.57.25.57.57v2.87c0,.7.58,1.28,1.28,1.28s1.28-.58,1.28-1.28v-2.87Z"/>
    <path class="cls-1" d="M31.4,191.25c-.39,0-.71-.31-.71-.7s.32-.7.71-.7.71.31.71.7-.32.7-.71.7ZM30.82,192.67c0-.32.25-.57.57-.57s.57.25.57.57v4.64c0,.32-.25.57-.57.57s-.57-.25-.57-.57v-4.64Z"/>
    <path class="cls-1" d="M33.11,190.42c0-.32.25-.57.57-.57s.57.25.57.57v6.88c0,.32-.25.57-.57.57s-.57-.25-.57-.57v-6.88Z"/>
    <path class="cls-1" d="M41.42,194.4c0-.6-.5-1.1-1.1-1.1h-1.44v4c0,.32-.25.57-.57.57s-.57-.25-.57-.57v-6.88c0-.32.26-.57.57-.57s.57.25.57.57v1.76h1.44c1.24,0,2.24,1.01,2.24,2.24v2.88c0,.32-.25.57-.57.57s-.57-.25-.57-.57v-2.9Z"/>
    <path class="cls-1" d="M46.32,197.79c-1.69,0-2.89-1.26-2.89-2.81s1.2-2.81,2.89-2.81h.67c1.07,0,1.78.75,1.78,1.68s-.71,1.68-1.78,1.68h-1.07c-.31,0-.56-.25-.56-.56s.26-.56.56-.56h1.07c.38,0,.63-.25.63-.56s-.25-.56-.63-.56h-.67c-1.02,0-1.75.76-1.75,1.68s.73,1.68,1.75,1.68h1.62c.31,0,.56.25.56.56s-.25.56-.56.56h-1.62Z"/>
    <path class="cls-1" d="M52.38,197.79c-1.09,0-1.98-.89-1.98-1.98v-2.51h-.67c-.31,0-.56-.25-.56-.56s.25-.56.56-.56h.67v-1.12c0-.32.25-.57.57-.57s.57.25.57.57v1.12h1.47c.31,0,.56.25.56.56s-.25.56-.56.56h-1.47v2.52c0,.48.36.85.85.85h.62c.31,0,.56.25.56.56s-.25.56-.56.56h-.64Z"/>
    <path class="cls-1" d="M59.31,197.79c-1.69,0-2.89-1.26-2.89-2.81s1.2-2.81,2.89-2.81h1.3v-1.76c0-.32.25-.57.57-.57s.57.25.57.57v6.8c0,.32-.25.57-.57.57h-1.87ZM60.61,193.3h-1.3c-1.02,0-1.75.76-1.75,1.68s.73,1.68,1.75,1.68h1.3v-3.37Z"/>
    <path class="cls-1" d="M65.52,197.79c-1.69,0-2.89-1.26-2.89-2.81s1.2-2.81,2.89-2.81h.67c1.07,0,1.78.75,1.78,1.68s-.71,1.68-1.78,1.68h-1.07c-.31,0-.56-.25-.56-.56s.26-.56.56-.56h1.07c.38,0,.63-.25.63-.56s-.25-.56-.63-.56h-.67c-1.02,0-1.75.76-1.75,1.68s.73,1.68,1.75,1.68h1.62c.31,0,.56.25.56.56s-.25.56-.56.56h-1.62Z"/>
    <path class="cls-1" d="M69.98,195.09v2.21c0,.32-.25.57-.57.57s-.57-.25-.57-.57v-6.88c0-.32.25-.57.57-.57s.57.25.57.57v4.46l2.62-2.62c.22-.22.57-.22.79,0,.21.22.21.57,0,.79l-1.93,1.93,1.93,1.93c.22.22.21.57,0,.79-.22.22-.57.22-.79,0l-2.62-2.62Z"/>
    <path class="cls-1" d="M76.25,192.9c-.13-.29,0-.63.29-.75.29-.14.63,0,.75.29l1.65,3.81,1.65-3.81c.13-.29.47-.42.75-.29.29.13.41.47.29.75l-2.05,4.57c-.11.24-.33.41-.64.41s-.53-.17-.63-.41l-2.05-4.57Z"/>
    <path class="cls-1" d="M83.9,197.79c-1.03,0-1.74-.78-1.74-1.74s.71-1.74,1.74-1.74h1.07c.31,0,.56.25.56.56s-.26.56-.56.56h-1.07c-.35,0-.59.3-.59.61s.24.61.59.61h2.05v-2.37c0-.56-.39-.99-.97-.99h-1.8c-.31,0-.56-.25-.56-.56s.25-.56.56-.56h1.8c1.19,0,2.12.94,2.12,2.11v2.93c0,.32-.2.57-.57.57h-2.63Z"/>
    <path class="cls-1" d="M91.93,194.4c0-.6-.5-1.1-1.1-1.1h-1.44v4c0,.32-.26.57-.57.57s-.57-.25-.57-.57v-4.55c0-.32.26-.57.57-.57h2.01c1.24,0,2.24,1.01,2.24,2.24v2.88c0,.32-.25.57-.57.57s-.57-.25-.57-.57v-2.9Z"/>
    <path class="cls-1" d="M99.29,197.79c-1.09,0-1.98-.89-1.98-1.98v-2.51h-.67c-.31,0-.56-.25-.56-.56s.26-.56.56-.56h.67v-1.12c0-.32.26-.57.57-.57s.57.25.57.57v1.12h1.47c.31,0,.56.25.56.56s-.26.56-.56.56h-1.47v2.52c0,.48.36.85.85.85h.62c.31,0,.56.25.56.56s-.26.56-.56.56h-.63Z"/>
    <path class="cls-1" d="M107.75,192.67c0-.32.26-.57.57-.57s.57.25.57.57v3.11c0,1.19-.96,2.15-2.15,2.15-.67,0-1.27-.31-1.66-.78-.39.48-.99.78-1.66.78-1.19,0-2.15-.96-2.15-2.15v-3.11c0-.32.26-.57.57-.57s.57.25.57.57v3.13c0,.57.48,1.05,1.05,1.05s1.05-.48,1.05-1.05v-3.13c0-.32.26-.57.57-.57s.57.25.57.57v3.13c0,.57.48,1.05,1.05,1.05s1.05-.48,1.05-1.05v-3.13Z"/>
    <path class="cls-1" d="M112.66,197.79c-1.69,0-2.89-1.26-2.89-2.81s1.2-2.81,2.89-2.81h.67c1.07,0,1.78.75,1.78,1.68s-.71,1.68-1.78,1.68h-1.07c-.31,0-.56-.25-.56-.56s.26-.56.56-.56h1.07c.38,0,.63-.25.63-.56s-.25-.56-.63-.56h-.67c-1.02,0-1.75.76-1.75,1.68s.73,1.68,1.75,1.68h1.62c.31,0,.56.25.56.56s-.25.56-.56.56h-1.62Z"/>
    <path class="cls-1" d="M118.7,197.79c-1.69,0-2.89-1.26-2.89-2.81s1.2-2.81,2.89-2.81h.67c1.07,0,1.78.75,1.78,1.68s-.71,1.68-1.78,1.68h-1.07c-.31,0-.56-.25-.56-.56s.26-.56.56-.56h1.07c.38,0,.63-.25.63-.56s-.25-.56-.63-.56h-.67c-1.02,0-1.75.76-1.75,1.68s.73,1.68,1.75,1.68h1.62c.31,0,.56.25.56.56s-.25.56-.56.56h-1.62Z"/>
    <path class="cls-1" d="M19.4,212.8v1.76c0,.32-.25.57-.57.57s-.57-.25-.57-.57v-6.8c0-.32.25-.57.57-.57h1.87c1.69,0,2.89,1.26,2.89,2.81s-1.2,2.81-2.89,2.81h-1.3ZM20.71,211.68c1.02,0,1.75-.76,1.75-1.68s-.73-1.68-1.75-1.68h-1.3v3.37h1.3Z"/>
    <path class="cls-1" d="M27.19,212.8c-1.69,0-2.89-1.26-2.89-2.81s1.2-2.81,2.89-2.81h.67c1.07,0,1.78.75,1.78,1.68s-.71,1.68-1.78,1.68h-1.07c-.31,0-.56-.25-.56-.56s.25-.56.56-.56h1.07c.38,0,.64-.25.64-.56s-.26-.56-.64-.56h-.67c-1.02,0-1.75.76-1.75,1.68s.73,1.68,1.75,1.68h1.62c.31,0,.56.25.56.56s-.25.56-.56.56h-1.62Z"/>
    <path class="cls-1" d="M34.81,209.38c0,.32-.25.57-.57.57s-.57-.25-.57-.56v-.07c0-.56-.41-1.01-1.01-1.01h-1.01v4c0,.32-.25.57-.57.57s-.57-.25-.57-.57v-4.55c0-.32.26-.57.57-.57h1.58c1.21,0,2.15.96,2.15,2.13v.06Z"/>
    <path class="cls-1" d="M36.14,212.8c-.31,0-.56-.25-.56-.56s.26-.56.56-.56h2.37c.38,0,.64-.25.64-.56s-.26-.56-.64-.56h-1.31c-1.07,0-1.78-.75-1.78-1.68s.71-1.68,1.78-1.68h2.37c.31,0,.56.25.56.56s-.25.56-.56.56h-2.37c-.38,0-.64.25-.64.56s.26.56.64.56h1.31c1.07,0,1.78.75,1.78,1.68s-.71,1.68-1.78,1.68h-2.37Z"/>
    <path class="cls-1" d="M43.86,212.94c-1.75,0-2.98-1.31-2.98-2.94s1.23-2.94,2.98-2.94,2.98,1.31,2.98,2.94-1.24,2.94-2.98,2.94ZM43.86,208.16c-1.06,0-1.83.83-1.83,1.83s.77,1.83,1.83,1.83,1.83-.83,1.83-1.83-.77-1.83-1.83-1.83Z"/>
    <path class="cls-1" d="M51.4,209.41c0-.6-.5-1.1-1.1-1.1h-1.44v4c0,.32-.25.57-.57.57s-.57-.25-.57-.57v-4.55c0-.32.25-.57.57-.57h2.01c1.24,0,2.24,1.01,2.24,2.24v2.88c0,.32-.25.57-.57.57s-.57-.25-.57-.57v-2.9Z"/>
    <path class="cls-1" d="M56.3,212.8c-1.69,0-2.89-1.26-2.89-2.81s1.2-2.81,2.89-2.81h.67c1.07,0,1.78.75,1.78,1.68s-.71,1.68-1.78,1.68h-1.07c-.31,0-.56-.25-.56-.56s.25-.56.56-.56h1.07c.38,0,.63-.25.63-.56s-.25-.56-.63-.56h-.67c-1.02,0-1.75.76-1.75,1.68s.73,1.68,1.75,1.68h1.62c.31,0,.56.25.56.56s-.25.56-.56.56h-1.62Z"/>
    <path class="cls-1" d="M63.3,209.41c0-.6-.5-1.1-1.1-1.1h-1.44v4c0,.32-.25.57-.57.57s-.57-.25-.57-.57v-4.55c0-.32.25-.57.57-.57h2.01c1.24,0,2.24,1.01,2.24,2.24v2.88c0,.32-.25.57-.57.57s-.57-.25-.57-.57v-2.9Z"/>
    <path class="cls-1" d="M71.61,209.41c0-.6-.5-1.1-1.1-1.1h-1.44v4c0,.32-.25.57-.57.57s-.57-.25-.57-.57v-4.55c0-.32.25-.57.57-.57h2.01c1.24,0,2.24,1.01,2.24,2.24v2.88c0,.32-.26.57-.57.57s-.57-.25-.57-.57v-2.9Z"/>
    <path class="cls-1" d="M75.38,212.8c-1.03,0-1.74-.78-1.74-1.74s.71-1.74,1.74-1.74h1.07c.31,0,.56.25.56.56s-.25.56-.56.56h-1.07c-.35,0-.59.3-.59.61s.24.61.59.61h2.05v-2.37c0-.56-.39-.99-.97-.99h-1.8c-.31,0-.56-.25-.56-.56s.25-.56.56-.56h1.8c1.19,0,2.12.94,2.12,2.11v2.93c0,.32-.2.57-.57.57h-2.63Z"/>
    <path class="cls-1" d="M81.21,212.8c-1.03,0-1.74-.78-1.74-1.74s.71-1.74,1.74-1.74h1.07c.31,0,.56.25.56.56s-.25.56-.56.56h-1.07c-.35,0-.59.3-.59.61s.24.61.59.61h2.05v-2.37c0-.56-.39-.99-.97-.99h-1.8c-.31,0-.56-.25-.56-.56s.25-.56.56-.56h1.8c1.19,0,2.12.94,2.12,2.11v2.93c0,.32-.2.57-.57.57h-2.63Z"/>
    <path class="cls-1" d="M89.85,209.38c0,.32-.25.57-.57.57s-.57-.25-.57-.56v-.07c0-.56-.41-1.01-1.01-1.01h-1.01v4c0,.32-.25.57-.57.57s-.57-.25-.57-.57v-4.55c0-.32.25-.57.57-.57h1.58c1.21,0,2.15.96,2.15,2.13v.06Z"/>
    <path class="cls-1" d="M94.22,210.1v2.21c0,.32-.26.57-.57.57s-.57-.25-.57-.57v-6.88c0-.32.26-.57.57-.57s.57.25.57.57v4.46l2.61-2.62c.22-.22.57-.22.79,0,.21.22.21.57,0,.79l-1.93,1.93,1.93,1.93c.22.22.21.57,0,.79-.22.22-.57.22-.79,0l-2.61-2.62Z"/>
    <path class="cls-1" d="M100.82,212.8c-1.69,0-2.89-1.26-2.89-2.81s1.2-2.81,2.89-2.81h.67c1.07,0,1.78.75,1.78,1.68s-.71,1.68-1.78,1.68h-1.07c-.31,0-.56-.25-.56-.56s.25-.56.56-.56h1.07c.38,0,.64-.25.64-.56s-.25-.56-.64-.56h-.67c-1.02,0-1.75.76-1.75,1.68s.73,1.68,1.75,1.68h1.62c.31,0,.56.25.56.56s-.26.56-.56.56h-1.62Z"/>
    <path class="cls-1" d="M107.84,207.67c0-.32.25-.57.57-.57s.57.25.57.57v2.84c0,1.33-1.09,2.43-2.42,2.43s-2.43-1.09-2.43-2.43v-2.84c0-.32.26-.57.57-.57s.57.25.57.57v2.87c0,.7.58,1.28,1.28,1.28s1.28-.58,1.28-1.28v-2.87Z"/>
    <path class="cls-1" d="M110.49,212.8c-.31,0-.56-.24-.56-.55,0-.13.05-.29.17-.42l2.89-3.51h-2.4c-.31,0-.56-.25-.56-.56s.26-.56.56-.56h3.56c.31,0,.55.24.55.55,0,.14-.05.29-.17.42l-2.89,3.51h2.39c.31,0,.56.25.56.56s-.25.56-.56.56h-3.54Z"/>
    <path class="cls-1" d="M117.83,212.8c-1.69,0-2.89-1.26-2.89-2.81s1.2-2.81,2.89-2.81h.67c1.07,0,1.78.75,1.78,1.68s-.71,1.68-1.78,1.68h-1.07c-.31,0-.56-.25-.56-.56s.25-.56.56-.56h1.07c.38,0,.64-.25.64-.56s-.25-.56-.64-.56h-.67c-1.02,0-1.75.76-1.75,1.68s.73,1.68,1.75,1.68h1.62c.31,0,.56.25.56.56s-.26.56-.56.56h-1.62Z"/>
    <path class="cls-1" d="M19.89,229.43c-1.1-1.26-1.78-2.9-1.78-4.71s.68-3.45,1.78-4.71c.19-.22.52-.25.75-.05.22.19.24.53.05.75-.95,1.07-1.52,2.48-1.52,4.01s.57,2.94,1.52,4.01c.19.22.17.56-.05.75-.23.2-.56.17-.75-.05Z"/>
    <path class="cls-1" d="M25.12,224.42c0-.6-.5-1.1-1.1-1.1h-1.44v4c0,.32-.25.57-.57.57s-.57-.25-.57-.57v-4.55c0-.32.25-.57.57-.57h2.01c1.24,0,2.24,1.01,2.24,2.24v2.88c0,.32-.25.57-.57.57s-.57-.25-.57-.57v-2.9Z"/>
    <path class="cls-1" d="M27.99,221.26c-.39,0-.71-.31-.71-.7s.32-.7.71-.7.71.31.71.7-.32.7-.71.7ZM27.41,222.68c0-.32.25-.57.57-.57s.57.25.57.57v4.64c0,.32-.25.57-.57.57s-.57-.25-.57-.57v-4.64Z"/>
    <path class="cls-1" d="M32.32,227.81c-1.69,0-2.89-1.26-2.89-2.81s1.2-2.81,2.89-2.81h.67c1.07,0,1.78.75,1.78,1.68s-.71,1.68-1.78,1.68h-1.07c-.31,0-.56-.25-.56-.56s.25-.56.56-.56h1.07c.38,0,.63-.25.63-.56s-.25-.56-.63-.56h-.67c-1.02,0-1.75.76-1.75,1.68s.73,1.68,1.75,1.68h1.62c.31,0,.56.25.56.56s-.25.56-.56.56h-1.62Z"/>
    <path class="cls-1" d="M38.38,227.81c-1.09,0-1.98-.89-1.98-1.98v-2.51h-.67c-.31,0-.56-.25-.56-.56s.25-.56.56-.56h.67v-1.12c0-.32.25-.57.57-.57s.57.25.57.57v1.12h1.47c.31,0,.56.25.56.56s-.25.56-.56.56h-1.47v2.52c0,.48.36.85.85.85h.63c.31,0,.56.25.56.56s-.25.56-.56.56h-.64Z"/>
    <path class="cls-1" d="M41.15,230.05c-.31,0-.56-.25-.56-.56s.25-.56.56-.56h.22c.95,0,1.31-.5,1.31-1.44v-4.81c0-.32.25-.57.57-.57s.57.25.57.57v4.8c0,1.58-.81,2.57-2.45,2.57h-.23ZM43.26,221.26c-.39,0-.71-.31-.71-.7s.32-.7.71-.7.71.31.71.7-.32.7-.71.7Z"/>
    <path class="cls-1" d="M47.59,227.81c-1.69,0-2.89-1.26-2.89-2.81s1.2-2.81,2.89-2.81h.67c1.07,0,1.78.75,1.78,1.68s-.71,1.68-1.78,1.68h-1.07c-.31,0-.56-.25-.56-.56s.25-.56.56-.56h1.07c.38,0,.64-.25.64-.56s-.26-.56-.64-.56h-.67c-1.02,0-1.75.76-1.75,1.68s.73,1.68,1.75,1.68h1.62c.31,0,.56.25.56.56s-.25.56-.56.56h-1.62Z"/>
    <path class="cls-1" d="M55.86,227.81c-1.69,0-2.89-1.26-2.89-2.81s1.2-2.81,2.89-2.81h.67c1.07,0,1.78.75,1.78,1.68s-.71,1.68-1.78,1.68h-1.07c-.31,0-.56-.25-.56-.56s.25-.56.56-.56h1.07c.38,0,.64-.25.64-.56s-.25-.56-.64-.56h-.67c-1.02,0-1.75.76-1.75,1.68s.73,1.68,1.75,1.68h1.62c.31,0,.56.25.56.56s-.25.56-.56.56h-1.62Z"/>
    <path class="cls-1" d="M59.74,221.26c-.39,0-.71-.31-.71-.7s.32-.7.71-.7.71.31.71.7-.32.7-.71.7ZM59.17,222.68c0-.32.25-.57.57-.57s.57.25.57.57v4.64c0,.32-.25.57-.57.57s-.57-.25-.57-.57v-4.64Z"/>
    <path class="cls-1" d="M62.51,230.05c-.31,0-.56-.25-.56-.56s.25-.56.56-.56h2.01c.48,0,.86-.38.86-.86v-.26h-1.3c-1.69,0-2.89-1.26-2.89-2.81s1.2-2.81,2.89-2.81h1.87c.32,0,.57.25.57.57v5.3c0,1.09-.89,1.98-1.98,1.98h-2.03ZM65.38,223.32h-1.3c-1.02,0-1.75.76-1.75,1.68s.73,1.68,1.75,1.68h1.3v-3.37Z"/>
    <path class="cls-1" d="M70.28,227.81c-1.69,0-2.89-1.26-2.89-2.81s1.2-2.81,2.89-2.81h.67c1.07,0,1.78.75,1.78,1.68s-.71,1.68-1.78,1.68h-1.07c-.31,0-.56-.25-.56-.56s.25-.56.56-.56h1.07c.38,0,.64-.25.64-.56s-.25-.56-.64-.56h-.67c-1.02,0-1.75.76-1.75,1.68s.73,1.68,1.75,1.68h1.62c.31,0,.56.25.56.56s-.25.56-.56.56h-1.62Z"/>
    <path class="cls-1" d="M77.29,224.42c0-.6-.5-1.1-1.1-1.1h-1.44v4c0,.32-.25.57-.57.57s-.57-.25-.57-.57v-4.55c0-.32.25-.57.57-.57h2.01c1.24,0,2.24,1.01,2.24,2.24v2.88c0,.32-.26.57-.57.57s-.57-.25-.57-.57v-2.9Z"/>
    <path class="cls-1" d="M84.52,227.81c-1.69,0-2.89-1.26-2.89-2.81s1.2-2.81,2.89-2.81h1.3v-1.76c0-.32.26-.57.57-.57s.57.25.57.57v6.8c0,.32-.26.57-.57.57h-1.87ZM85.82,223.32h-1.3c-1.02,0-1.75.76-1.75,1.68s.73,1.68,1.75,1.68h1.3v-3.37Z"/>
    <path class="cls-1" d="M90.73,227.81c-1.69,0-2.89-1.26-2.89-2.81s1.2-2.81,2.89-2.81h.67c1.07,0,1.78.75,1.78,1.68s-.71,1.68-1.78,1.68h-1.07c-.31,0-.56-.25-.56-.56s.25-.56.56-.56h1.07c.38,0,.64-.25.64-.56s-.25-.56-.64-.56h-.67c-1.02,0-1.75.76-1.75,1.68s.73,1.68,1.75,1.68h1.62c.31,0,.56.25.56.56s-.26.56-.56.56h-1.62Z"/>
    <path class="cls-1" d="M95.19,225.11v2.21c0,.32-.26.57-.57.57s-.57-.25-.57-.57v-6.88c0-.32.26-.57.57-.57s.57.25.57.57v4.46l2.61-2.62c.22-.22.57-.22.79,0,.21.22.21.57,0,.79l-1.93,1.93,1.93,1.93c.22.22.21.57,0,.79-.22.22-.57.22-.79,0l-2.61-2.62Z"/>
    <path class="cls-1" d="M99.14,229.48c-.22-.19-.24-.53-.05-.75.95-1.07,1.52-2.48,1.52-4.01s-.57-2.94-1.52-4.01c-.19-.22-.17-.56.05-.75.23-.2.56-.17.75.05,1.1,1.26,1.78,2.9,1.78,4.71s-.68,3.45-1.78,4.71c-.19.22-.52.25-.75.05Z"/>
  </g>
  <g>
    <path class="cls-4" d="M23.72,28.54c.35-.52.7-.93,1.04-1.23s.67-.53.99-.7c.32-.17.61-.27.89-.32.28-.05.52-.08.74-.08.83,0,1.47.17,1.92.52.77.03,1.48.05,2.14.05s1.3-.01,1.92-.04c.62-.02,1.25-.05,1.86-.09s1.27-.06,1.95-.08c-.02.72-.24,1.34-.67,1.86s-.98.94-1.65,1.25-1.4.5-2.19.58-1.56.01-2.31-.19c0,.3,0,.61-.03.92-.02.32-.03.64-.05.97-.02.18-.03.44-.04.76s-.01.7-.01,1.11c.62.02,1.2.02,1.75.01.55,0,1.1-.02,1.64-.05s1.08-.05,1.62-.08c.54-.02,1.1-.05,1.69-.06-.02.7-.24,1.31-.66,1.84-.42.52-.96.94-1.61,1.25-.65.31-1.37.5-2.15.59-.78.08-1.54.03-2.28-.15.02.32.03.63.03.95s0,.63.03.95c.02.35.05.64.1.88.05.23.14.42.28.56.13.14.31.24.54.29s.52.08.89.08c.43,0,.85,0,1.24-.01.39,0,.81-.03,1.25-.05.44-.03.92-.07,1.44-.12.52-.06,1.11-.15,1.78-.26-.3.6-.71,1.15-1.23,1.64-.52.49-1.1.91-1.75,1.25s-1.34.6-2.06.79-1.45.26-2.16.22c-.85-.03-1.54-.16-2.06-.38-.52-.22-.94-.52-1.24-.91-.3-.39-.5-.87-.6-1.42s-.15-1.2-.15-1.94c0-1.77,0-3.27-.01-4.5,0-1.23-.04-2.27-.1-3.11s-.15-1.5-.26-1.99c-.12-.48-.28-.85-.49-1.09s-.47-.39-.79-.44-.7-.07-1.15-.05Z"/>
    <path class="cls-4" d="M38.24,29.59c.9-.12,1.76-.09,2.59.09.82.18,1.6.46,2.32.86.72.4,1.4.9,2.04,1.49.63.59,1.21,1.25,1.73,1.96.53-.88,1.03-1.74,1.5-2.56.47-.82.87-1.6,1.2-2.34.52.9.87,1.78,1.06,2.64s.25,1.68.19,2.46c-.07.78-.25,1.54-.54,2.26-.29.72-.66,1.4-1.11,2.04.4,1.2.66,2.38.78,3.54.12,1.16.06,2.2-.18,3.11-.28-.45-.67-1.04-1.16-1.78-.49-.73-1.05-1.55-1.66-2.45-.65.55-1.33,1.05-2.03,1.49-.7.44-1.4.82-2.09,1.14s-1.35.57-1.99.75c-.63.18-1.2.29-1.7.32.27-.27.6-.64.99-1.12.39-.48.82-1.03,1.3-1.65s.98-1.29,1.5-2.03,1.06-1.49,1.61-2.27c-.6-.82-1.2-1.63-1.81-2.44s-1.19-1.56-1.74-2.26-1.07-1.33-1.55-1.9c-.48-.57-.9-1.02-1.25-1.35Z"/>
    <path class="cls-4" d="M64.72,40.16c-.05.7-.23,1.3-.54,1.8-.31.5-.69.91-1.15,1.24-.46.33-.98.56-1.58.71-.59.15-1.2.22-1.84.2-1.02-.02-1.92-.2-2.7-.56-.78-.36-1.45-.85-1.99-1.46-.54-.62-.96-1.35-1.25-2.19-.29-.84-.45-1.75-.46-2.74-.02-1.02.14-1.98.46-2.9.32-.92.78-1.72,1.38-2.42.59-.7,1.29-1.27,2.11-1.7.82-.43,1.71-.67,2.67-.72.58-.03,1.15,0,1.69.11.54.11,1.02.31,1.42.6.41.29.73.67.98,1.15.24.47.36,1.07.36,1.79-.5-.43-.96-.71-1.38-.83-.42-.12-.92-.13-1.5-.05-.52.07-.99.25-1.41.54-.42.29-.79.66-1.1,1.11s-.55.95-.71,1.51c-.17.56-.26,1.13-.27,1.71-.03,1.17.18,2.09.65,2.78s1.15,1.14,2.05,1.38c.77.18,1.51.19,2.22.01.72-.18,1.34-.53,1.88-1.06Z"/>
    <path class="cls-4" d="M80.54,42.64c-.28.42-.57.75-.85,1s-.55.44-.81.58c-.26.13-.5.22-.72.26-.22.04-.43.06-.61.06-.65,0-1.18-.12-1.59-.35-.41-.23-.73-.56-.95-.97s-.38-.92-.45-1.5c-.08-.58-.12-1.22-.14-1.9-.02-.42-.01-1.02.01-1.8.02-.78.02-1.8-.01-3.05-.02-.58-.12-.98-.3-1.17-.18-.2-.58-.3-1.18-.3-.27,0-.52,0-.75.03s-.47.04-.7.08c-.02,1.15-.14,2.32-.38,3.5-.23,1.18-.55,2.29-.96,3.31-.41,1.02-.88,1.91-1.41,2.65-.53.74-1.11,1.24-1.73,1.49.05-.43.09-1.1.11-2.01s.04-1.94.05-3.1c0-1.16,0-2.38-.01-3.66-.02-1.28-.04-2.52-.09-3.7-.04-1.18-.1-2.25-.16-3.21-.07-.96-.14-1.69-.22-2.19.67-.05,1.25.02,1.76.21.51.19.95.48,1.33.85s.68.83.92,1.36.43,1.12.56,1.77c.57-.32,1.16-.55,1.77-.71.62-.16,1.24-.24,1.88-.24.7,0,1.27.09,1.7.26.43.18.77.43,1.01.75.24.33.4.73.49,1.2.08.48.12,1.01.12,1.61,0,1.43,0,2.65.01,3.66s.04,1.84.09,2.5c.05.66.12,1.17.21,1.55.09.38.22.65.39.84s.38.29.64.32c.26.03.58.04.96.03Z"/>
    <path class="cls-4" d="M90.19,42.69c-.7.7-1.43,1.15-2.2,1.36-.77.21-1.48.3-2.15.26-.65-.03-1.26-.2-1.83-.5-.57-.3-1.05-.7-1.46-1.19-.41-.49-.72-1.06-.94-1.71-.22-.65-.31-1.34-.28-2.08.03-.65.16-1.29.38-1.91s.54-1.18.97-1.67c.43-.49.99-.88,1.66-1.17.68-.29,1.49-.44,2.44-.44.53,0,1.04.06,1.51.19.47.12.93.35,1.36.66-.05-.7-.35-1.23-.91-1.59s-1.22-.6-2-.74c-.78-.13-1.58-.17-2.41-.11-.83.06-1.54.16-2.12.31.33-.55.73-1.03,1.19-1.45.46-.42.95-.76,1.47-1.04.53-.27,1.06-.48,1.61-.61.55-.13,1.09-.18,1.62-.15.95.05,1.76.29,2.42.71.67.42,1.21.97,1.64,1.65.42.67.74,1.45.94,2.32.2.88.3,1.8.3,2.76,0,.8-.05,1.61-.16,2.42-.11.82-.28,1.6-.5,2.34-.22.74-.5,1.43-.82,2.06-.33.63-.7,1.17-1.11,1.62-.08-.32-.17-.69-.28-1.11-.1-.42-.22-.83-.35-1.21ZM85.07,38.49c.02.25.06.5.14.74.08.24.19.46.34.66.15.2.35.37.59.51s.55.25.91.31c.43.08.82.07,1.15-.04.33-.11.61-.27.84-.49.22-.22.4-.47.51-.76.12-.29.18-.59.18-.89,0-.4-.05-.77-.15-1.11-.1-.34-.25-.64-.45-.9-.2-.26-.46-.46-.78-.61-.32-.15-.69-.22-1.12-.2-.77.03-1.34.3-1.71.81s-.52,1.16-.44,1.96Z"/>
    <path class="cls-4" d="M109.82,42.64c-.28.42-.57.75-.85,1-.28.25-.55.44-.81.58-.26.13-.5.22-.73.26-.22.04-.43.06-.61.06-.65,0-1.18-.12-1.59-.35s-.72-.56-.95-.97c-.23-.42-.38-.92-.45-1.5s-.12-1.22-.14-1.9v-.91c0-.41,0-.88.01-1.4,0-.52.01-1.09.01-1.7s0-1.22-.03-1.84c-.02-.58-.12-.98-.3-1.17-.18-.2-.58-.3-1.17-.3-.3,0-.59.01-.86.04-.27.02-.55.05-.84.09.17.7.25,1.45.24,2.25,0,.8-.08,1.61-.22,2.43-.14.82-.35,1.62-.62,2.4-.28.78-.6,1.5-.98,2.15-.38.65-.78,1.21-1.22,1.69-.44.47-.91.81-1.41,1.01.05-.43.09-1.05.11-1.84.02-.79.04-1.67.05-2.65,0-.97,0-2-.01-3.07-.02-1.08-.05-2.11-.09-3.11-.04-1-.1-1.92-.16-2.76s-.14-1.51-.22-2.01c.95-.08,1.74.05,2.38.39.63.34,1.14.82,1.52,1.44.63-.4,1.33-.71,2.08-.93.75-.22,1.5-.32,2.25-.32.7,0,1.27.09,1.7.26.43.18.77.43,1.01.75.24.33.4.73.49,1.2.08.48.12,1.01.12,1.61,0,1.43,0,2.66.01,3.68,0,1.02.04,1.87.09,2.55s.12,1.22.21,1.62c.09.4.22.7.39.89.17.19.38.31.64.36.26.05.58.07.96.05Z"/>
    <path class="cls-4" d="M119.82,29.04c1.45.43,2.5,1.57,3.15,3.41.65,1.84.92,4.3.8,7.36-.03.72-.1,1.46-.21,2.24-.11.78-.28,1.53-.52,2.25-.24.73-.55,1.41-.93,2.05-.38.64-.84,1.19-1.39,1.65-.55.46-1.2.8-1.95,1.03-.75.22-1.61.29-2.57.19-.77-.07-1.4-.24-1.9-.51s-.9-.62-1.2-1.04c-.3-.42-.5-.9-.61-1.44-.11-.54-.15-1.11-.11-1.71.52.7,1.07,1.19,1.66,1.47.59.28,1.17.41,1.74.38.65-.03,1.25-.25,1.79-.64.54-.39.95-.9,1.24-1.54.03-.08.07-.17.11-.26.04-.09.08-.19.11-.29-.63.18-1.29.26-1.97.22-1.02-.02-1.92-.19-2.7-.52-.78-.33-1.45-.79-1.99-1.38s-.96-1.28-1.25-2.1c-.29-.82-.45-1.72-.46-2.7-.02-1.02.1-1.95.34-2.81s.61-1.61,1.11-2.25,1.12-1.15,1.86-1.54c.74-.38,1.6-.6,2.56-.65.67-.03,1.3.02,1.9.17.6.15,1.11.42,1.53.8-.02-.38-.04-.73-.06-1.04s-.05-.58-.06-.81ZM118.09,32.69c-.52.07-.95.25-1.3.54-.35.29-.63.64-.85,1.05s-.37.86-.46,1.35c-.09.49-.14.97-.14,1.44,0,.4.05.81.16,1.23.11.42.28.8.5,1.16s.51.67.85.94.74.46,1.19.58c.27.08.53.13.8.15.27.02.52,0,.77-.02.1-.63.18-1.3.25-2,.07-.7.11-1.4.14-2.1.03-.7.04-1.39.04-2.07s0-1.34-.03-1.98c-.3-.15-.6-.24-.9-.27s-.64-.03-1.02.02Z"/>
    <path class="cls-4" d="M139.47,38.86c-.68.1-1.3.19-1.86.26s-1.13.13-1.71.17c-.58.04-1.22.07-1.92.09-.7.02-1.53.03-2.48.03.12,1.07.7,1.86,1.74,2.38s2.65.67,4.81.45c-.28.38-.65.71-1.1.99-.45.27-.93.5-1.45.66-.52.17-1.05.28-1.59.35-.54.07-1.05.08-1.54.05-.8-.05-1.57-.24-2.3-.58-.73-.33-1.38-.81-1.93-1.44-.55-.62-.99-1.4-1.31-2.31-.32-.92-.48-1.98-.46-3.17.02-1.23.22-2.32.6-3.25.38-.93.88-1.71,1.49-2.33.61-.62,1.28-1.08,2.03-1.39s1.48-.46,2.21-.46c1.08,0,2.06.16,2.94.48s1.61.85,2.21,1.59c.6.74,1.04,1.72,1.34,2.94.29,1.22.39,2.72.29,4.5ZM133.12,31.94c-.35,0-.65.08-.91.25-.26.17-.47.45-.64.84-.17.39-.29.91-.36,1.56-.07.65-.1,1.46-.09,2.42.27.02.75.02,1.45.01.7,0,1.61-.03,2.72-.06.05-.83.02-1.57-.09-2.2-.11-.63-.26-1.16-.46-1.58-.2-.42-.44-.73-.73-.94-.28-.21-.58-.31-.9-.31Z"/>
  </g>
  <g>
    <g>
      <path class="cls-4" d="M76.14,161.5c-5.28,0-9.73-3.96-10.35-9.2l-2.05-17.36c-.67-5.71,3.42-10.9,9.13-11.57l6.33-.75c.4-.05.82-.07,1.22-.07,5.28,0,9.73,3.96,10.35,9.2l2.05,17.36c.67,5.71-3.42,10.9-9.13,11.57l-6.33.75c-.41.05-.82.07-1.22.07Z"/>
      <path class="cls-6" d="M80.41,123.55c4.77,0,8.8,3.58,9.36,8.32l2.05,17.36c.29,2.49-.41,4.95-1.97,6.93-1.56,1.98-3.8,3.24-6.28,3.53l-6.33.75c-.37.04-.74.07-1.1.07-4.77,0-8.8-3.58-9.36-8.32l-2.05-17.36c-.61-5.16,3.09-9.85,8.25-10.46l6.33-.75c.37-.04.74-.07,1.1-.07M80.41,121.55c-.44,0-.89.03-1.34.08l-6.33.75c-6.24.74-10.74,6.44-10,12.68l2.05,17.36c.68,5.79,5.65,10.08,11.34,10.08.44,0,.89-.03,1.34-.08l6.33-.75c6.24-.74,10.74-6.44,10-12.68l-2.05-17.36c-.68-5.79-5.65-10.08-11.34-10.08h0Z"/>
    </g>
    <g>
      <path class="cls-4" d="M79.65,160.62c-5.75-.03-10.4-4.74-10.36-10.48l.1-17.48c.03-5.71,4.71-10.36,10.42-10.36l6.43.04c2.77.02,5.38,1.12,7.34,3.1,1.96,1.99,3.04,4.61,3.02,7.38l-.1,17.48c-.03,5.71-4.71,10.36-10.42,10.36l-6.43-.04Z"/>
      <path class="cls-6" d="M79.81,123.29h.05s6.37.04,6.37.04c5.2.03,9.4,4.28,9.37,9.48l-.1,17.48c-.03,5.17-4.26,9.37-9.42,9.37h-.05s-6.37-.04-6.37-.04c-5.2-.03-9.4-4.28-9.37-9.48l.1-17.48c.03-5.17,4.26-9.37,9.42-9.37M79.81,121.29c-6.25,0-11.38,5.1-11.42,11.36l-.1,17.48c-.04,6.28,5.07,11.45,11.35,11.49l6.37.04s.04,0,.07,0c6.25,0,11.38-5.1,11.42-11.36l.1-17.48c.04-6.28-5.07-11.45-11.35-11.49l-6.37-.04s-.04,0-.07,0h0Z"/>
    </g>
    <g>
      <path class="cls-4" d="M91.78,162.93c-.42,0-.86-.03-1.28-.08l-6.32-.78c-5.7-.71-9.77-5.92-9.06-11.62l2.15-17.35c.65-5.21,5.09-9.14,10.34-9.14.43,0,.86.03,1.28.08l6.32.78c5.7.71,9.77,5.92,9.06,11.62l-2.15,17.35c-.65,5.21-5.09,9.14-10.34,9.14Z"/>
      <path class="cls-6" d="M87.61,124.95h0c.38,0,.77.02,1.16.07l6.32.78c2.49.31,4.71,1.57,6.26,3.57,1.55,1.99,2.24,4.46,1.93,6.94l-2.15,17.35c-.58,4.71-4.6,8.26-9.35,8.26-.38,0-.77-.02-1.16-.07l-6.32-.78c-2.49-.31-4.71-1.57-6.26-3.57-1.55-1.99-2.24-4.46-1.93-6.94l2.15-17.35c.58-4.71,4.6-8.26,9.35-8.26M87.61,122.95c-5.67,0-10.62,4.25-11.34,10.02l-2.15,17.35c-.77,6.23,3.7,11.97,9.93,12.74l6.32.78c.47.06.94.09,1.4.09,5.67,0,10.62-4.25,11.34-10.02l2.15-17.35c.77-6.23-3.7-11.97-9.93-12.74l-6.32-.78c-.47-.06-.94-.09-1.4-.09h0Z"/>
    </g>
    <g>
      <path class="cls-4" d="M35.02,104.72c-4.54,0-8.65-3.02-9.98-7.35l-5.15-16.71c-.82-2.65-.55-5.47.76-7.94,1.3-2.47,3.48-4.28,6.13-5.09l6.09-1.88c.99-.31,2.02-.46,3.05-.46,4.54,0,8.65,3.02,9.98,7.35l5.15,16.71c1.69,5.49-1.4,11.34-6.89,13.03l-6.09,1.88c-.99.31-2.02.46-3.05.46Z"/>
      <path class="cls-6" d="M35.91,66.3h0c4.11,0,7.82,2.73,9.03,6.65l5.15,16.71c1.53,4.97-1.26,10.25-6.23,11.78l-6.09,1.88c-.9.28-1.82.42-2.75.42-4.11,0-7.82-2.73-9.03-6.65l-5.15-16.71c-1.53-4.97,1.26-10.25,6.23-11.78l6.09-1.88c.9-.28,1.82-.42,2.75-.42M35.91,64.3c-1.11,0-2.23.16-3.34.5l-6.09,1.88c-6,1.85-9.4,8.27-7.55,14.28l5.15,16.71c1.51,4.89,6.06,8.06,10.94,8.06,1.11,0,2.23-.16,3.34-.5l6.09-1.88c6-1.85,9.4-8.27,7.55-14.28l-5.15-16.71c-1.51-4.89-6.06-8.06-10.94-8.06h0Z"/>
    </g>
    <g>
      <path class="cls-4" d="M38.36,103.21c-5.07,0-9.38-3.62-10.27-8.6l-3.05-17.21c-.48-2.73.13-5.49,1.73-7.78,1.6-2.29,3.98-3.82,6.71-4.3l6.27-1.11c.6-.11,1.21-.16,1.81-.16,5.07,0,9.38,3.62,10.27,8.6l3.05,17.21c1,5.66-2.78,11.08-8.44,12.08l-6.27,1.11c-.6.11-1.21.16-1.81.16Z"/>
      <path class="cls-6" d="M41.56,65.04c4.58,0,8.48,3.27,9.28,7.78l3.05,17.21c.44,2.47-.12,4.96-1.56,7.03-1.45,2.07-3.6,3.45-6.07,3.89l-6.27,1.11c-.54.1-1.09.14-1.64.14-4.58,0-8.49-3.27-9.29-7.78l-3.05-17.21c-.91-5.12,2.52-10.02,7.63-10.92l6.27-1.11c.54-.1,1.09-.14,1.64-.14M41.56,63.04c-.66,0-1.32.06-1.99.18l-6.27,1.11c-6.19,1.1-10.35,7.06-9.25,13.24l3.05,17.21c.98,5.52,5.83,9.43,11.25,9.43.66,0,1.32-.06,1.99-.18l6.27-1.11c6.19-1.1,10.35-7.06,9.25-13.24l-3.05-17.21c-.98-5.52-5.83-9.43-11.25-9.43h0Z"/>
    </g>
    <g>
      <path class="cls-4" d="M44.28,103.68c-5.51,0-10.08-4.31-10.4-9.82l-1.01-17.45c-.16-2.77.77-5.44,2.63-7.53,1.86-2.09,4.4-3.32,7.17-3.48l6.36-.37c.2-.01.41-.02.61-.02,5.51,0,10.08,4.31,10.4,9.82l1.01,17.45c.33,5.74-4.06,10.68-9.8,11.01l-6.36.37c-.2.01-.41.02-.61.02Z"/>
      <path class="cls-6" d="M49.63,64.01v2c4.98,0,9.11,3.9,9.4,8.88l1.01,17.45c.3,5.19-3.67,9.65-8.86,9.95l-6.36.37c-.18.01-.37.02-.55.02-4.98,0-9.12-3.9-9.41-8.88l-1.01-17.45c-.3-5.19,3.67-9.65,8.86-9.95l6.36-.37c.18-.01.37-.02.55-.02v-2M49.63,64.01c-.22,0-.44,0-.67.02l-6.36.37c-6.27.36-11.1,5.79-10.74,12.06l1.01,17.45c.35,6.05,5.41,10.76,11.4,10.76.22,0,.44,0,.67-.02l6.36-.37c6.27-.36,11.1-5.79,10.74-12.06l-1.01-17.45c-.35-6.05-5.41-10.76-11.4-10.76h0Z"/>
    </g>
    <g>
      <path class="cls-4" d="M114.91,102.46c-5.75-.03-10.4-4.74-10.36-10.48l.1-17.48c.03-5.71,4.71-10.36,10.42-10.36l6.43.04c2.77.02,5.38,1.12,7.34,3.1,1.96,1.99,3.04,4.61,3.02,7.38l-.1,17.48c-.03,5.71-4.71,10.36-10.42,10.36l-6.43-.04Z"/>
      <path class="cls-6" d="M115.07,65.13h0,.05s6.37.04,6.37.04c2.5.01,4.86,1.01,6.64,2.81s2.75,4.16,2.73,6.67l-.1,17.48c-.03,5.17-4.26,9.37-9.42,9.37h-.05s-6.37-.04-6.37-.04c-5.2-.03-9.4-4.28-9.37-9.48l.1-17.48c.03-5.17,4.26-9.37,9.42-9.37M115.07,63.13c-6.25,0-11.38,5.1-11.42,11.36l-.1,17.48c-.04,6.28,5.07,11.45,11.36,11.49l6.37.04s.04,0,.07,0c6.25,0,11.38-5.1,11.42-11.36l.1-17.48c.04-6.28-5.07-11.45-11.35-11.49l-6.37-.04s-.04,0-.07,0h0Z"/>
    </g>
    <g>
      <path class="cls-4" d="M124.93,102.84c-.44,0-.9-.03-1.34-.09l-6.32-.82c-2.75-.36-5.2-1.77-6.9-3.98-1.7-2.21-2.45-4.94-2.09-7.69l2.25-17.34c.67-5.18,5.12-9.08,10.34-9.08.44,0,.9.03,1.34.09l6.32.82c5.7.74,9.73,5.98,8.99,11.68l-2.25,17.34c-.67,5.18-5.12,9.08-10.34,9.08Z"/>
      <path class="cls-6" d="M120.87,64.84h0c.4,0,.81.03,1.21.08l6.32.82c2.48.32,4.7,1.6,6.24,3.6,1.54,2,2.21,4.47,1.89,6.95l-2.25,17.34c-.61,4.68-4.63,8.21-9.35,8.21-.4,0-.81-.03-1.21-.08l-6.32-.82c-5.15-.67-8.8-5.4-8.13-10.56l2.25-17.34c.61-4.68,4.63-8.21,9.35-8.21M120.87,62.84c-5.64,0-10.58,4.22-11.33,9.95l-2.25,17.34c-.81,6.23,3.63,11.99,9.86,12.8l6.32.82c.49.06.98.1,1.47.1,5.64,0,10.58-4.21,11.33-9.95l2.25-17.34c.81-6.23-3.63-11.99-9.86-12.8l-6.32-.82c-.49-.06-.98-.1-1.47-.1h0Z"/>
    </g>
    <g>
      <path class="cls-4" d="M130.3,105.8c-.85,0-1.7-.11-2.53-.31l-6.18-1.55c-2.69-.68-4.96-2.37-6.39-4.77-1.43-2.4-1.85-5.2-1.17-7.88l4.27-16.96c1.17-4.64,5.33-7.88,10.12-7.88.85,0,1.7.11,2.53.31l6.18,1.55c5.57,1.4,8.97,7.08,7.56,12.65l-4.27,16.95c-1.17,4.64-5.33,7.88-10.12,7.88Z"/>
      <path class="cls-6" d="M128.42,67.45h0c.77,0,1.53.1,2.28.28l6.18,1.55c2.43.61,4.48,2.14,5.78,4.31,1.3,2.17,1.67,4.7,1.06,7.13l-4.27,16.95c-1.06,4.19-4.82,7.12-9.15,7.12-.77,0-1.54-.1-2.28-.28l-6.18-1.55c-2.43-.61-4.48-2.14-5.78-4.31-1.3-2.17-1.67-4.7-1.06-7.13l4.27-16.95c1.06-4.19,4.82-7.12,9.16-7.12M128.42,65.45c-5.11,0-9.79,3.47-11.09,8.63l-4.27,16.95c-1.53,6.09,2.2,12.33,8.29,13.86l6.18,1.55c.93.23,1.86.34,2.77.34,5.11,0,9.79-3.47,11.09-8.63l4.27-16.95c1.53-6.09-2.2-12.33-8.29-13.86l-6.18-1.55c-.93-.23-1.86-.34-2.77-.34h0Z"/>
    </g>
    <line class="cls-3" x1="74.71" y1="82.09" x2="92.03" y2="82.09"/>
    <g>
      <path class="cls-4" d="M76.3,87.65c-.36,0-.7-.09-1.02-.28l-5.9-3.41c-.64-.37-1.02-1.03-1.02-1.77s.38-1.4,1.02-1.77l5.9-3.41c.32-.18.66-.28,1.02-.28.98,0,2.05.78,2.05,2.05v6.82c0,1.26-1.06,2.05-2.05,2.05Z"/>
      <path class="cls-6" d="M76.3,77.53c.6,0,1.25.48,1.25,1.25v6.82c0,.77-.65,1.25-1.25,1.25-.21,0-.42-.06-.62-.17l-5.9-3.41c-.56-.33-.63-.87-.63-1.08s.06-.76.63-1.08l5.9-3.41c.2-.11.41-.17.62-.17M76.3,75.94c-.47,0-.96.12-1.41.38l-5.9,3.41c-1.89,1.09-1.89,3.82,0,4.92l5.9,3.41c.46.26.94.38,1.41.38,1.48,0,2.84-1.18,2.84-2.84v-6.82c0-1.65-1.36-2.84-2.84-2.84h0Z"/>
    </g>
    <g>
      <path class="cls-4" d="M89.41,87.66c-.98,0-2.03-.78-2.03-2.03v-6.82c0-1.27,1.07-2.06,2.06-2.06.36,0,.7.09,1.02.28l5.89,3.4c.64.37,1.02,1.03,1.02,1.77s-.38,1.4-1.02,1.77l-5.93,3.42c-.32.18-.66.28-1.01.28Z"/>
      <path class="cls-6" d="M89.44,77.54h0c.22,0,.43.06.63.17l5.89,3.4c.56.33.62.87.62,1.08s-.06.76-.62,1.08l-5.93,3.42c-.2.11-.4.17-.61.17-.6,0-1.24-.47-1.24-1.24v-6.82c0-.78.66-1.26,1.26-1.26M89.44,75.95c-1.49,0-2.85,1.19-2.85,2.85v6.82c0,1.65,1.35,2.83,2.83,2.83.47,0,.95-.12,1.41-.38l5.93-3.42c1.89-1.09,1.89-3.82,0-4.91l-5.89-3.4c-.46-.26-.94-.39-1.42-.39h0Z"/>
    </g>
    <line class="cls-2" x1="74.65" y1="82.19" x2="92.09" y2="82.19"/>
  </g>
</svg>