<?xml version="1.0" encoding="UTF-8"?>
<svg id="Laag_1" data-name="Laag 1" xmlns="http://www.w3.org/2000/svg" viewBox="0 0 164.41 249.45">
  <defs>
    <style>
      .cls-1 {
        stroke: #fff;
        stroke-miterlimit: 10;
        stroke-width: .45px;
      }

      .cls-1, .cls-2 {
        fill: #fff;
      }

      .cls-3 {
        fill: #2f2f2f;
      }

      .cls-3, .cls-4, .cls-5, .cls-6, .cls-2 {
        stroke-width: 0px;
      }

      .cls-4 {
        fill: #1d1d1b;
      }

      .cls-5 {
        fill: #de2b65;
      }

      .cls-6 {
        fill: #8abb2a;
      }
    </style>
  </defs>
  <rect class="cls-3" x="0" y="0" width="164.41" height="249.45"/>
  <g>
    <path class="cls-5" d="M141.74,206.68c-4.35,0-7.89-3.7-7.89-8.26s3.54-8.25,7.89-8.25,7.89,3.7,7.89,8.25-3.54,8.26-7.89,8.26Z"/>
    <path class="cls-4" d="M141.74,191.17c3.8,0,6.89,3.25,6.89,7.26s-3.09,7.26-6.89,7.26-6.89-3.25-6.89-7.26,3.09-7.26,6.89-7.26M141.74,189.17c-4.91,0-8.89,4.14-8.89,9.26s3.98,9.26,8.89,9.26,8.89-4.14,8.89-9.26-3.98-9.26-8.89-9.26h0Z"/>
  </g>
  <g>
    <ellipse class="cls-6" cx="141.74" cy="226.17" rx="7.89" ry="8.26"/>
    <path class="cls-4" d="M141.74,218.92c3.8,0,6.89,3.25,6.89,7.26s-3.09,7.26-6.89,7.26-6.89-3.25-6.89-7.26,3.09-7.26,6.89-7.26M141.74,216.92c-4.91,0-8.89,4.14-8.89,9.26s3.98,9.26,8.89,9.26,8.89-4.14,8.89-9.26-3.98-9.26-8.89-9.26h0Z"/>
  </g>
  <g>
    <g>
      <ellipse class="cls-5" cx="82.22" cy="113.39" rx="41.75" ry="42.39"/>
      <path class="cls-4" d="M82.22,72.5c22.19,0,40.25,18.34,40.25,40.89s-18.06,40.89-40.25,40.89-40.25-18.34-40.25-40.89,18.06-40.89,40.25-40.89M82.22,69.5c-23.91,0-43.25,19.63-43.25,43.89s19.34,43.89,43.25,43.89,43.25-19.63,43.25-43.89-19.34-43.89-43.25-43.89h0Z"/>
    </g>
    <g>
      <path class="cls-2" d="M82.22,147c-18.25,0-33.1-15.08-33.1-33.61s14.85-33.61,33.1-33.61,33.1,15.08,33.1,33.61-14.85,33.61-33.1,33.61Z"/>
      <path class="cls-4" d="M82.22,81.27c17.42,0,31.6,14.41,31.6,32.11s-14.18,32.11-31.6,32.11-31.6-14.41-31.6-32.11,14.18-32.11,31.6-32.11M82.22,78.27c-19.12,0-34.6,15.7-34.6,35.11s15.48,35.11,34.6,35.11,34.6-15.7,34.6-35.11-15.48-35.11-34.6-35.11h0Z"/>
    </g>
    <g>
      <path class="cls-5" d="M82.22,138.22c-13.48,0-24.45-11.14-24.45-24.83s10.97-24.83,24.45-24.83,24.45,11.14,24.45,24.83-10.97,24.83-24.45,24.83Z"/>
      <path class="cls-4" d="M82.22,90.05c12.65,0,22.95,10.47,22.95,23.33s-10.3,23.33-22.95,23.33-22.95-10.47-22.95-23.33,10.3-23.33,22.95-23.33M82.22,87.05c-14.34,0-25.95,11.78-25.95,26.33s11.61,26.33,25.95,26.33,25.95-11.78,25.95-26.33-11.61-26.33-25.95-26.33h0Z"/>
    </g>
    <g>
      <path class="cls-2" d="M82.22,129.44c-8.71,0-15.8-7.2-15.8-16.06s7.09-16.06,15.8-16.06,15.8,7.2,15.8,16.06-7.09,16.06-15.8,16.06Z"/>
      <path class="cls-4" d="M82.22,98.83c7.88,0,14.3,6.53,14.3,14.56s-6.42,14.56-14.3,14.56-14.3-6.53-14.3-14.56,6.42-14.56,14.3-14.56M82.22,95.83c-9.56,0-17.3,7.85-17.3,17.56s7.74,17.56,17.3,17.56,17.3-7.85,17.3-17.56-7.74-17.56-17.3-17.56h0Z"/>
    </g>
    <g>
      <path class="cls-5" d="M82.22,120.66c-3.94,0-7.15-3.26-7.15-7.28s3.21-7.28,7.15-7.28,7.15,3.26,7.15,7.28-3.21,7.28-7.15,7.28Z"/>
      <path class="cls-4" d="M82.22,107.61c3.12,0,5.65,2.59,5.65,5.78s-2.53,5.78-5.65,5.78-5.65-2.59-5.65-5.78,2.53-5.78,5.65-5.78M82.22,104.61c-4.78,0-8.65,3.93-8.65,8.78s3.87,8.78,8.65,8.78,8.65-3.93,8.65-8.78-3.87-8.78-8.65-8.78h0Z"/>
    </g>
  </g>
  <g>
    <path class="cls-2" d="M54.47,26.71c-.25.7-.57,1.3-.96,1.79-.39.49-.83.9-1.33,1.23-.49.32-1.02.57-1.6.72-.57.16-1.17.25-1.79.26.43.67.73,1.45.89,2.34.16.89.21,1.82.16,2.79s-.2,1.93-.45,2.89c-.25.96-.57,1.85-.96,2.66-.39.82-.84,1.53-1.35,2.14s-1.05,1.03-1.64,1.26c.03-.37.06-.89.09-1.56.02-.68.04-1.43.05-2.28s.01-1.74.01-2.7-.01-1.91-.04-2.86c-.02-.95-.06-1.87-.1-2.75-.04-.88-.09-1.67-.14-2.35-.63-.18-1.23-.41-1.79-.68-.56-.27-1.05-.56-1.49-.88-.43-.32-.8-.65-1.09-1.01s-.48-.71-.56-1.06c1.03.13,2.13.22,3.3.27,1.17.05,2.36.07,3.59.06,1.23,0,2.45-.04,3.66-.09,1.22-.05,2.39-.12,3.52-.2Z"/>
    <path class="cls-2" d="M63.62,42.69c-.7.7-1.43,1.15-2.2,1.36-.77.21-1.48.3-2.15.26-.65-.03-1.26-.2-1.82-.5-.57-.3-1.05-.7-1.46-1.19-.41-.49-.72-1.06-.94-1.71-.22-.65-.31-1.34-.28-2.08.03-.65.16-1.29.38-1.91s.54-1.18.98-1.67c.43-.49.99-.88,1.66-1.17.67-.29,1.49-.44,2.44-.44.53,0,1.04.06,1.51.19s.93.35,1.36.66c-.05-.7-.35-1.23-.91-1.59-.56-.36-1.23-.6-2-.74-.78-.13-1.58-.17-2.41-.11-.83.06-1.54.16-2.12.31.33-.55.73-1.03,1.19-1.45.46-.42.95-.76,1.48-1.04.52-.27,1.06-.48,1.61-.61.55-.13,1.09-.18,1.62-.15.95.05,1.76.29,2.42.71s1.21.97,1.64,1.65c.42.67.74,1.45.94,2.32s.3,1.8.3,2.76c0,.8-.05,1.61-.16,2.42-.11.82-.28,1.6-.5,2.34-.23.74-.5,1.43-.83,2.06-.33.63-.7,1.17-1.11,1.62-.08-.32-.17-.69-.28-1.11-.1-.42-.22-.83-.35-1.21ZM58.49,38.49c.02.25.06.5.14.74.07.24.19.46.34.66.15.2.35.37.59.51.24.14.55.25.91.31.43.08.82.07,1.15-.04.33-.11.61-.27.84-.49.23-.22.4-.47.51-.76.12-.29.17-.59.17-.89,0-.4-.05-.77-.15-1.11-.1-.34-.25-.64-.45-.9s-.46-.46-.78-.61c-.32-.15-.69-.22-1.12-.2-.77.03-1.34.3-1.71.81s-.52,1.16-.44,1.96Z"/>
    <path class="cls-2" d="M77.49,38.01c.03-1.85-.2-3.27-.7-4.25s-1.23-1.46-2.2-1.42c-.13,0-.25,0-.35.01-.1,0-.2.02-.3.04.23.67.37,1.41.4,2.22.03.82-.02,1.65-.15,2.5-.13.85-.33,1.69-.6,2.51s-.59,1.58-.98,2.28c-.38.69-.81,1.29-1.27,1.8-.47.51-.96.87-1.48,1.09.05-.43.09-1.04.11-1.83s.04-1.66.05-2.62,0-1.98-.01-3.04c-.02-1.06-.05-2.08-.09-3.06-.04-.98-.1-1.89-.16-2.72-.07-.83-.14-1.5-.22-2,.8-.07,1.49.02,2.07.26.58.24,1.07.59,1.45,1.04.72-.73,1.72-1.1,3.02-1.1.82,0,1.51.14,2.09.41.58.28,1.03.64,1.35,1.1.33.46.52.98.6,1.57.07.59.03,1.2-.14,1.81-.17.62-.46,1.22-.88,1.81-.42.59-.96,1.12-1.62,1.59Z"/>
    <path class="cls-2" d="M91.29,29.04c1.45.43,2.5,1.57,3.15,3.41.65,1.84.92,4.3.8,7.36-.03.72-.1,1.46-.21,2.24-.11.78-.28,1.53-.52,2.25-.24.73-.55,1.41-.93,2.05-.38.64-.84,1.19-1.39,1.65-.55.46-1.2.8-1.95,1.03-.75.22-1.61.29-2.57.19-.77-.07-1.4-.24-1.9-.51s-.9-.62-1.2-1.04c-.3-.42-.5-.9-.61-1.44-.11-.54-.15-1.11-.11-1.71.52.7,1.07,1.19,1.66,1.47.59.28,1.17.41,1.74.38.65-.03,1.25-.25,1.79-.64.54-.39.95-.9,1.24-1.54.03-.08.07-.17.11-.26.04-.09.08-.19.11-.29-.63.18-1.29.26-1.97.22-1.02-.02-1.92-.19-2.7-.52-.78-.33-1.45-.79-1.99-1.38s-.96-1.28-1.25-2.1c-.29-.82-.45-1.72-.46-2.7-.02-1.02.1-1.95.34-2.81s.61-1.61,1.11-2.25,1.12-1.15,1.86-1.54c.74-.38,1.6-.6,2.56-.65.67-.03,1.3.02,1.9.17.6.15,1.11.42,1.53.8-.02-.38-.04-.73-.06-1.04s-.05-.58-.06-.81ZM89.57,32.69c-.52.07-.95.25-1.3.54-.35.29-.63.64-.85,1.05s-.37.86-.46,1.35c-.09.49-.14.97-.14,1.44,0,.4.05.81.16,1.23.11.42.28.8.5,1.16s.51.67.85.94.74.46,1.19.58c.27.08.53.13.8.15.27.02.52,0,.77-.02.1-.63.18-1.3.25-2,.07-.7.11-1.4.14-2.1.03-.7.04-1.39.04-2.07s0-1.34-.03-1.98c-.3-.15-.6-.24-.9-.27s-.64-.03-1.02.02Z"/>
    <path class="cls-2" d="M110.94,38.86c-.68.1-1.3.19-1.86.26-.56.08-1.13.13-1.71.17-.58.04-1.22.07-1.92.09s-1.53.03-2.48.03c.12,1.07.7,1.86,1.74,2.38,1.04.52,2.65.67,4.81.45-.28.38-.65.71-1.1.99-.45.27-.93.5-1.45.66-.52.17-1.05.28-1.59.35-.54.07-1.05.08-1.54.05-.8-.05-1.57-.24-2.3-.58s-1.38-.81-1.92-1.44-.99-1.4-1.31-2.31-.48-1.98-.46-3.17c.02-1.23.22-2.32.6-3.25.38-.93.88-1.71,1.49-2.33s1.28-1.08,2.03-1.39c.74-.31,1.48-.46,2.21-.46,1.08,0,2.06.16,2.94.48s1.61.85,2.21,1.59c.6.74,1.05,1.72,1.34,2.94.29,1.22.39,2.72.29,4.5ZM104.59,31.94c-.35,0-.65.08-.91.25-.26.17-.47.45-.64.84s-.29.91-.36,1.56c-.08.65-.1,1.46-.09,2.42.27.02.75.02,1.45.01s1.61-.03,2.73-.06c.05-.83.02-1.57-.09-2.2-.11-.63-.26-1.16-.46-1.58-.2-.42-.44-.73-.72-.94-.28-.21-.58-.31-.9-.31Z"/>
    <path class="cls-2" d="M123.24,30.69c-.12.7-.33,1.3-.64,1.81-.31.51-.66.92-1.06,1.25s-.83.57-1.3.73-.93.24-1.38.24h-.47c.03.97.09,1.88.16,2.72.07.85.19,1.6.34,2.24.15.64.34,1.15.57,1.54s.53.6.88.65c.17.03.35.05.56.04s.44-.07.69-.19.52-.31.81-.58.61-.65.96-1.15c.05.65.02,1.25-.1,1.81-.12.56-.33,1.05-.65,1.46-.32.42-.74.74-1.28.97-.53.23-1.18.35-1.95.35-1,0-1.89-.24-2.66-.73-.77-.48-1.32-1.15-1.64-2-.17-.45-.3-.97-.4-1.57-.1-.6-.17-1.25-.22-1.95-.05-.7-.06-1.43-.04-2.2s.08-1.53.16-2.3c-.72-.4-1.24-.89-1.57-1.46-.33-.58-.57-1.15-.7-1.74.48.07.96.12,1.43.16.47.04.92.08,1.35.11.15-.65.34-1.27.56-1.85.22-.58.47-1.1.75-1.55s.59-.83.94-1.12.72-.5,1.12-.6c-.02.78-.04,1.6-.06,2.46s-.05,1.78-.06,2.76c.8-.02,1.59-.05,2.38-.11s1.62-.13,2.53-.21Z"/>
  </g>
  <g>
    <path class="cls-1" d="M19.59,191.18v2.84c0,.33-.27.6-.6.6s-.6-.27-.6-.6v-5.89c0-.33.27-.6.6-.6s.6.27.6.6v2.84l3.26-3.26c.23-.23.61-.24.85,0s.23.62,0,.85l-2.54,2.52,2.54,2.52c.23.23.24.61,0,.85-.24.24-.62.23-.85,0l-3.26-3.26Z"/>
    <path class="cls-1" d="M25.23,187.81c-.4,0-.73-.31-.73-.72s.33-.72.73-.72.73.31.73.72-.33.72-.73.72ZM24.65,189.27c0-.33.26-.59.59-.59s.59.26.59.59v4.76c0,.33-.26.59-.59.59s-.59-.26-.59-.59v-4.76Z"/>
    <path class="cls-1" d="M29.68,194.53c-1.74,0-2.97-1.29-2.97-2.88s1.23-2.88,2.97-2.88h.68c1.1,0,1.83.77,1.83,1.73s-.73,1.73-1.83,1.73h-1.1c-.31,0-.58-.26-.58-.58s.26-.57.58-.57h1.1c.39,0,.65-.26.65-.58s-.26-.58-.65-.58h-.68c-1.04,0-1.79.78-1.79,1.73s.75,1.73,1.79,1.73h1.66c.31,0,.57.26.57.58s-.26.58-.57.58h-1.66Z"/>
    <path class="cls-1" d="M33.54,194.53c-.31,0-.58-.26-.58-.58s.26-.58.58-.58h2.43c.39,0,.65-.26.65-.58s-.26-.58-.65-.58h-1.35c-1.1,0-1.82-.77-1.82-1.73s.73-1.73,1.82-1.73h2.43c.32,0,.58.26.58.58s-.26.58-.58.58h-2.43c-.39,0-.65.26-.65.58s.26.58.65.58h1.35c1.1,0,1.82.77,1.82,1.73s-.73,1.73-1.82,1.73h-2.43Z"/>
    <path class="cls-1" d="M47.73,189.27c0-.33.26-.59.59-.59s.59.26.59.59v3.19c0,1.22-.99,2.21-2.2,2.21-.68,0-1.3-.32-1.71-.8-.4.49-1.02.8-1.71.8-1.22,0-2.21-.99-2.21-2.21v-3.19c0-.33.26-.59.59-.59s.59.26.59.59v3.22c0,.59.49,1.08,1.08,1.08s1.08-.49,1.08-1.08v-3.22c0-.33.26-.59.59-.59s.59.26.59.59v3.22c0,.59.49,1.08,1.08,1.08s1.08-.49,1.08-1.08v-3.22Z"/>
    <path class="cls-1" d="M50.67,187.81c-.4,0-.73-.31-.73-.72s.33-.72.73-.72.73.31.73.72-.33.72-.73.72ZM50.08,189.27c0-.33.26-.59.59-.59s.59.26.59.59v4.76c0,.33-.26.59-.59.59s-.59-.26-.59-.59v-4.76Z"/>
    <path class="cls-1" d="M55.11,194.53c-1.74,0-2.97-1.29-2.97-2.88s1.23-2.88,2.97-2.88h.68c1.1,0,1.82.77,1.82,1.73s-.73,1.73-1.82,1.73h-1.1c-.31,0-.58-.26-.58-.58s.26-.57.58-.57h1.1c.39,0,.65-.26.65-.58s-.26-.58-.65-.58h-.68c-1.04,0-1.79.78-1.79,1.73s.75,1.73,1.79,1.73h1.66c.32,0,.58.26.58.58s-.26.58-.58.58h-1.66Z"/>
    <path class="cls-1" d="M63.59,194.53c-1.74,0-2.97-1.29-2.97-2.88s1.23-2.88,2.97-2.88h1.34v-1.8c0-.33.26-.59.59-.59s.59.26.59.59v6.97c0,.33-.26.59-.59.59h-1.92ZM64.93,189.92h-1.34c-1.04,0-1.79.78-1.79,1.73s.75,1.73,1.79,1.73h1.34v-3.45Z"/>
    <path class="cls-1" d="M69.96,194.53c-1.74,0-2.97-1.29-2.97-2.88s1.23-2.88,2.97-2.88h.68c1.1,0,1.82.77,1.82,1.73s-.73,1.73-1.82,1.73h-1.1c-.31,0-.57-.26-.57-.58s.26-.57.57-.57h1.1c.39,0,.65-.26.65-.58s-.26-.58-.65-.58h-.68c-1.04,0-1.79.78-1.79,1.73s.75,1.73,1.79,1.73h1.66c.31,0,.58.26.58.58s-.26.58-.58.58h-1.66Z"/>
    <path class="cls-1" d="M75.39,189.51c-.13-.29,0-.64.29-.77.29-.14.64,0,.77.29l1.69,3.91,1.69-3.91c.13-.29.48-.44.77-.29.29.13.42.48.29.77l-2.11,4.69c-.11.25-.34.42-.65.42s-.54-.17-.65-.42l-2.11-4.69Z"/>
    <path class="cls-1" d="M84.37,194.67c-1.79,0-3.05-1.35-3.05-3.02s1.26-3.02,3.05-3.02,3.05,1.35,3.05,3.02-1.27,3.02-3.05,3.02ZM84.37,189.77c-1.09,0-1.88.85-1.88,1.88s.79,1.88,1.88,1.88,1.88-.85,1.88-1.88-.79-1.88-1.88-1.88Z"/>
    <path class="cls-1" d="M88.32,186.97c0-.33.26-.59.59-.59s.59.26.59.59v7.06c0,.33-.26.59-.59.59s-.59-.26-.59-.59v-7.06Z"/>
    <path class="cls-1" d="M91.75,196.83c-.31,0-.58-.26-.58-.58s.26-.58.58-.58h2.06c.49,0,.88-.39.88-.88v-.27h-1.34c-1.74,0-2.97-1.29-2.97-2.88s1.23-2.88,2.97-2.88h1.92c.33,0,.59.26.59.59v5.44c0,1.12-.91,2.03-2.03,2.03h-2.09ZM94.69,189.92h-1.34c-1.04,0-1.79.78-1.79,1.73s.75,1.73,1.79,1.73h1.34v-3.45Z"/>
    <path class="cls-1" d="M99.72,194.53c-1.74,0-2.97-1.29-2.97-2.88s1.23-2.88,2.97-2.88h.68c1.1,0,1.83.77,1.83,1.73s-.73,1.73-1.83,1.73h-1.1c-.31,0-.58-.26-.58-.58s.26-.57.58-.57h1.1c.39,0,.65-.26.65-.58s-.26-.58-.65-.58h-.68c-1.04,0-1.79.78-1.79,1.73s.75,1.73,1.79,1.73h1.66c.31,0,.58.26.58.58s-.26.58-.58.58h-1.66Z"/>
    <path class="cls-1" d="M106.91,191.05c0-.62-.51-1.13-1.13-1.13h-1.48v4.11c0,.33-.26.59-.59.59s-.59-.26-.59-.59v-4.67c0-.33.26-.59.59-.59h2.06c1.27,0,2.3,1.03,2.3,2.3v2.95c0,.33-.26.59-.59.59s-.59-.26-.59-.59v-2.98Z"/>
    <path class="cls-1" d="M111.94,194.53c-1.74,0-2.97-1.29-2.97-2.88s1.23-2.88,2.97-2.88h1.34v-1.8c0-.33.26-.59.59-.59s.59.26.59.59v6.97c0,.33-.26.59-.59.59h-1.92ZM113.28,189.92h-1.34c-1.04,0-1.79.78-1.79,1.73s.75,1.73,1.79,1.73h1.34v-3.45Z"/>
    <path class="cls-1" d="M118.31,194.53c-1.74,0-2.97-1.29-2.97-2.88s1.23-2.88,2.97-2.88h.68c1.1,0,1.83.77,1.83,1.73s-.73,1.73-1.83,1.73h-1.1c-.31,0-.58-.26-.58-.58s.26-.57.58-.57h1.1c.39,0,.65-.26.65-.58s-.26-.58-.65-.58h-.68c-1.04,0-1.79.78-1.79,1.73s.75,1.73,1.79,1.73h1.66c.31,0,.58.26.58.58s-.26.58-.58.58h-1.66Z"/>
    <path class="cls-1" d="M19.46,212.23c-.31,0-.58-.26-.58-.58s.26-.58.58-.58h2.06c.49,0,.88-.39.88-.88v-.27h-1.34c-1.74,0-2.97-1.29-2.97-2.88s1.23-2.88,2.97-2.88h1.92c.33,0,.59.26.59.59v5.44c0,1.12-.91,2.03-2.03,2.03h-2.09ZM22.41,205.32h-1.34c-1.04,0-1.79.78-1.79,1.73s.75,1.73,1.79,1.73h1.34v-3.45Z"/>
    <path class="cls-1" d="M27.44,209.93c-1.74,0-2.97-1.29-2.97-2.88s1.23-2.88,2.97-2.88h.68c1.1,0,1.82.77,1.82,1.73s-.73,1.73-1.82,1.73h-1.1c-.31,0-.58-.26-.58-.58s.26-.57.58-.57h1.1c.39,0,.65-.26.65-.58s-.26-.58-.65-.58h-.68c-1.04,0-1.79.78-1.79,1.73s.75,1.73,1.79,1.73h1.66c.32,0,.58.26.58.58s-.26.58-.58.58h-1.66Z"/>
    <path class="cls-1" d="M31.3,209.93c-.31,0-.58-.26-.58-.58s.26-.58.58-.58h2.43c.39,0,.65-.26.65-.58s-.26-.58-.65-.58h-1.35c-1.1,0-1.82-.77-1.82-1.73s.73-1.73,1.82-1.73h2.43c.31,0,.58.26.58.58s-.26.58-.58.58h-2.43c-.39,0-.65.26-.65.58s.26.58.65.58h1.35c1.1,0,1.82.77,1.82,1.73s-.73,1.73-1.82,1.73h-2.43Z"/>
    <path class="cls-1" d="M37.63,209.93v1.8c0,.33-.26.59-.59.59s-.59-.26-.59-.59v-6.97c0-.33.26-.59.59-.59h1.92c1.74,0,2.97,1.29,2.97,2.88s-1.23,2.88-2.97,2.88h-1.34ZM38.96,208.77c1.04,0,1.79-.78,1.79-1.73s-.75-1.73-1.79-1.73h-1.34v3.45h1.34Z"/>
    <path class="cls-1" d="M45.61,209.93c-1.74,0-2.97-1.29-2.97-2.88s1.23-2.88,2.97-2.88h.68c1.1,0,1.83.77,1.83,1.73s-.73,1.73-1.83,1.73h-1.1c-.31,0-.58-.26-.58-.58s.26-.57.58-.57h1.1c.39,0,.65-.26.65-.58s-.26-.58-.65-.58h-.68c-1.04,0-1.79.78-1.79,1.73s.75,1.73,1.79,1.73h1.66c.31,0,.57.26.57.58s-.26.58-.57.58h-1.66Z"/>
    <path class="cls-1" d="M51.81,209.93c-1.74,0-2.97-1.29-2.97-2.88s1.23-2.88,2.97-2.88h.68c1.1,0,1.83.77,1.83,1.73s-.73,1.73-1.83,1.73h-1.1c-.31,0-.58-.26-.58-.58s.26-.57.58-.57h1.1c.39,0,.65-.26.65-.58s-.26-.58-.65-.58h-.68c-1.04,0-1.79.78-1.79,1.73s.75,1.73,1.79,1.73h1.66c.31,0,.57.26.57.58s-.26.58-.57.58h-1.66Z"/>
    <path class="cls-1" d="M55.21,202.37c0-.33.26-.59.59-.59s.59.26.59.59v7.06c0,.33-.26.59-.59.59s-.59-.26-.59-.59v-7.06Z"/>
    <path class="cls-1" d="M60.24,209.93c-1.74,0-2.97-1.29-2.97-2.88s1.23-2.88,2.97-2.88h1.34v-1.8c0-.33.26-.59.59-.59s.59.26.59.59v6.97c0,.33-.26.59-.59.59h-1.92ZM61.58,205.32h-1.34c-1.04,0-1.79.78-1.79,1.73s.75,1.73,1.79,1.73h1.34v-3.45Z"/>
    <path class="cls-1" d="M66.61,209.93c-1.74,0-2.97-1.29-2.97-2.88s1.23-2.88,2.97-2.88h.68c1.1,0,1.83.77,1.83,1.73s-.73,1.73-1.83,1.73h-1.1c-.31,0-.58-.26-.58-.58s.26-.57.58-.57h1.1c.39,0,.65-.26.65-.58s-.26-.58-.65-.58h-.68c-1.04,0-1.79.78-1.79,1.73s.75,1.73,1.79,1.73h1.66c.31,0,.57.26.57.58s-.26.58-.57.58h-1.66Z"/>
    <path class="cls-1" d="M73.93,209.93c-1.05,0-1.78-.8-1.78-1.78s.73-1.78,1.78-1.78h1.1c.31,0,.57.26.57.58s-.26.58-.57.58h-1.1c-.36,0-.61.3-.61.63s.25.63.61.63h2.11v-2.43c0-.58-.4-1.02-1-1.02h-1.85c-.31,0-.58-.26-.58-.58s.26-.58.58-.58h1.85c1.22,0,2.17.97,2.17,2.16v3.01c0,.33-.21.59-.59.59h-2.69Z"/>
    <path class="cls-1" d="M81.07,209.93c-1.74,0-2.97-1.29-2.97-2.88s1.23-2.88,2.97-2.88h1.19c.32,0,.58.26.58.58s-.26.58-.58.58h-1.19c-1.04,0-1.79.78-1.79,1.73s.75,1.73,1.79,1.73h1.19c.32,0,.58.26.58.58s-.26.58-.58.58h-1.19Z"/>
    <path class="cls-1" d="M86.53,209.93c-1.12,0-2.03-.91-2.03-2.03v-2.57h-.68c-.31,0-.58-.26-.58-.58s.26-.58.58-.58h.68v-1.15c0-.33.26-.59.59-.59s.59.26.59.59v1.15h1.51c.31,0,.58.26.58.58s-.26.58-.58.58h-1.51v2.59c0,.49.37.87.87.87h.64c.31,0,.58.26.58.58s-.26.58-.58.58h-.65Z"/>
    <path class="cls-1" d="M89.15,203.21c-.4,0-.73-.31-.73-.72s.33-.72.73-.72.73.31.73.72-.33.72-.73.72ZM88.56,204.67c0-.33.26-.59.59-.59s.59.26.59.59v4.76c0,.33-.26.59-.59.59s-.59-.26-.59-.59v-4.76Z"/>
    <path class="cls-1" d="M93.59,209.93c-1.74,0-2.97-1.29-2.97-2.88s1.23-2.88,2.97-2.88h.68c1.1,0,1.83.77,1.83,1.73s-.73,1.73-1.83,1.73h-1.1c-.31,0-.58-.26-.58-.58s.26-.57.58-.57h1.1c.39,0,.65-.26.65-.58s-.26-.58-.65-.58h-.68c-1.04,0-1.79.78-1.79,1.73s.75,1.73,1.79,1.73h1.66c.31,0,.58.26.58.58s-.26.58-.58.58h-1.66Z"/>
    <path class="cls-1" d="M98.17,207.16v2.27c0,.33-.26.59-.59.59s-.59-.26-.59-.59v-7.06c0-.33.26-.59.59-.59s.59.26.59.59v4.57l2.68-2.68c.23-.23.59-.23.81,0,.22.23.22.59,0,.81l-1.98,1.98,1.98,1.98c.23.23.22.59,0,.81-.23.23-.59.23-.81,0l-2.68-2.68Z"/>
    <path class="cls-1" d="M104.1,209.93c-1.05,0-1.78-.8-1.78-1.78s.73-1.78,1.78-1.78h1.1c.31,0,.58.26.58.58s-.26.58-.58.58h-1.1c-.36,0-.61.3-.61.63s.25.63.61.63h2.11v-2.43c0-.58-.4-1.02-1-1.02h-1.85c-.31,0-.57-.26-.57-.58s.26-.58.57-.58h1.85c1.22,0,2.17.97,2.17,2.16v3.01c0,.33-.21.59-.59.59h-2.69Z"/>
    <path class="cls-1" d="M110.08,209.93c-1.05,0-1.78-.8-1.78-1.78s.73-1.78,1.78-1.78h1.1c.31,0,.58.26.58.58s-.26.58-.58.58h-1.1c-.36,0-.61.3-.61.63s.25.63.61.63h2.11v-2.43c0-.58-.4-1.02-1-1.02h-1.85c-.31,0-.57-.26-.57-.58s.26-.58.57-.58h1.85c1.22,0,2.17.97,2.17,2.16v3.01c0,.33-.21.59-.59.59h-2.69Z"/>
    <path class="cls-1" d="M118.95,206.42c0,.33-.26.59-.59.59s-.59-.26-.59-.58v-.08c0-.57-.42-1.03-1.03-1.03h-1.03v4.11c0,.33-.26.59-.59.59s-.59-.26-.59-.59v-4.67c0-.33.26-.59.59-.59h1.62c1.24,0,2.21.99,2.21,2.18v.07Z"/>
    <path class="cls-1" d="M122.52,209.93c-1.12,0-2.03-.91-2.03-2.03v-2.57h-.68c-.31,0-.58-.26-.58-.58s.26-.58.58-.58h.68v-1.15c0-.33.26-.59.59-.59s.59.26.59.59v1.15h1.51c.31,0,.58.26.58.58s-.26.58-.58.58h-1.51v2.59c0,.49.37.87.87.87h.64c.31,0,.58.26.58.58s-.26.58-.58.58h-.65Z"/>
    <path class="cls-1" d="M25.04,221.85c0-.62-.51-1.13-1.13-1.13h-1.03v4.11c0,.33-.26.59-.59.59s-.59-.26-.59-.59v-4.11h-2.14v4.11c0,.33-.26.59-.59.59s-.59-.26-.59-.59v-4.67c0-.33.26-.59.59-.59h4.93c1.27,0,2.3,1.03,2.3,2.3v2.95c0,.33-.26.59-.59.59s-.59-.26-.59-.59v-2.98Z"/>
    <path class="cls-1" d="M30.16,225.47c-1.79,0-3.05-1.35-3.05-3.02s1.26-3.02,3.05-3.02,3.05,1.35,3.05,3.02-1.27,3.02-3.05,3.02ZM30.16,220.57c-1.09,0-1.88.85-1.88,1.88s.79,1.88,1.88,1.88,1.88-.85,1.88-1.88-.79-1.88-1.88-1.88Z"/>
    <path class="cls-1" d="M36.9,225.33c-1.74,0-2.97-1.29-2.97-2.88s1.23-2.88,2.97-2.88h.68c1.1,0,1.82.77,1.82,1.73s-.73,1.73-1.82,1.73h-1.1c-.31,0-.58-.26-.58-.58s.26-.57.58-.57h1.1c.39,0,.65-.26.65-.58s-.26-.58-.65-.58h-.68c-1.04,0-1.79.78-1.79,1.73s.75,1.73,1.79,1.73h1.66c.32,0,.58.26.58.58s-.26.58-.58.58h-1.66Z"/>
    <path class="cls-1" d="M43.11,225.33c-1.12,0-2.03-.91-2.03-2.03v-2.57h-.68c-.31,0-.57-.26-.57-.58s.26-.58.57-.58h.68v-1.15c0-.33.26-.59.59-.59s.59.26.59.59v1.15h1.51c.31,0,.57.26.57.58s-.26.58-.57.58h-1.51v2.59c0,.49.37.87.87.87h.64c.31,0,.57.26.57.58s-.26.58-.57.58h-.65Z"/>
    <path class="cls-1" d="M48.13,218.61c-.4,0-.73-.31-.73-.72s.33-.72.73-.72.73.31.73.72-.33.72-.73.72ZM47.54,220.07c0-.33.26-.59.59-.59s.59.26.59.59v4.76c0,.33-.26.59-.59.59s-.59-.26-.59-.59v-4.76Z"/>
    <path class="cls-1" d="M53.67,221.85c0-.62-.51-1.13-1.13-1.13h-1.48v4.11c0,.33-.26.59-.59.59s-.59-.26-.59-.59v-4.67c0-.33.26-.59.59-.59h2.06c1.27,0,2.3,1.03,2.3,2.3v2.95c0,.33-.26.59-.59.59s-.59-.26-.59-.59v-2.98Z"/>
    <path class="cls-1" d="M58.7,225.33c-1.74,0-2.97-1.29-2.97-2.88s1.23-2.88,2.97-2.88h1.2c.31,0,.58.26.58.58s-.26.58-.58.58h-1.2c-1.04,0-1.79.78-1.79,1.73s.75,1.73,1.79,1.73h1.2c.31,0,.58.26.58.58s-.26.58-.58.58h-1.2Z"/>
    <path class="cls-1" d="M62.7,225.33c-1.05,0-1.78-.8-1.78-1.78s.73-1.78,1.78-1.78h1.1c.31,0,.58.26.58.58s-.26.58-.58.58h-1.1c-.36,0-.61.3-.61.63s.25.63.61.63h2.11v-2.43c0-.58-.4-1.02-1-1.02h-1.85c-.31,0-.57-.26-.57-.58s.26-.58.57-.58h1.85c1.22,0,2.17.97,2.17,2.16v3.01c0,.33-.21.59-.59.59h-2.69Z"/>
    <path class="cls-1" d="M67.61,225.33c-.31,0-.57-.26-.57-.58s.26-.58.57-.58h2.43c.39,0,.65-.26.65-.58s-.26-.58-.65-.58h-1.35c-1.1,0-1.82-.77-1.82-1.73s.73-1.73,1.82-1.73h2.43c.31,0,.57.26.57.58s-.26.58-.57.58h-2.43c-.39,0-.65.26-.65.58s.26.58.65.58h1.35c1.1,0,1.82.77,1.82,1.73s-.73,1.73-1.82,1.73h-2.43Z"/>
    <path class="cls-1" d="M73.22,225.33c-.31,0-.58-.26-.58-.58s.26-.58.58-.58h2.43c.39,0,.65-.26.65-.58s-.26-.58-.65-.58h-1.35c-1.1,0-1.82-.77-1.82-1.73s.73-1.73,1.82-1.73h2.43c.31,0,.58.26.58.58s-.26.58-.58.58h-2.43c-.39,0-.65.26-.65.58s.26.58.65.58h1.35c1.1,0,1.82.77,1.82,1.73s-.73,1.73-1.82,1.73h-2.43Z"/>
    <path class="cls-1" d="M81.06,225.33c-1.74,0-2.97-1.29-2.97-2.88s1.23-2.88,2.97-2.88h.68c1.1,0,1.82.77,1.82,1.73s-.73,1.73-1.82,1.73h-1.1c-.31,0-.57-.26-.57-.58s.26-.57.57-.57h1.1c.39,0,.65-.26.65-.58s-.26-.58-.65-.58h-.68c-1.04,0-1.79.78-1.79,1.73s.75,1.73,1.79,1.73h1.66c.31,0,.58.26.58.58s-.26.58-.58.58h-1.66Z"/>
    <path class="cls-1" d="M88.87,221.82c0,.33-.26.59-.59.59s-.59-.26-.59-.58v-.08c0-.57-.42-1.03-1.03-1.03h-1.03v4.11c0,.33-.26.59-.59.59s-.59-.26-.59-.59v-4.67c0-.33.26-.59.59-.59h1.62c1.24,0,2.21.99,2.21,2.18v.07Z"/>
    <path class="cls-1" d="M92.47,225.33c-1.74,0-2.97-1.29-2.97-2.88s1.23-2.88,2.97-2.88h.68c1.1,0,1.83.77,1.83,1.73s-.73,1.73-1.83,1.73h-1.1c-.31,0-.58-.26-.58-.58s.26-.57.58-.57h1.1c.39,0,.65-.26.65-.58s-.26-.58-.65-.58h-.68c-1.04,0-1.79.78-1.79,1.73s.75,1.73,1.79,1.73h1.66c.31,0,.58.26.58.58s-.26.58-.58.58h-1.66Z"/>
    <path class="cls-1" d="M99.66,221.85c0-.62-.51-1.13-1.13-1.13h-1.48v4.11c0,.33-.26.59-.59.59s-.59-.26-.59-.59v-4.67c0-.33.26-.59.59-.59h2.06c1.27,0,2.3,1.03,2.3,2.3v2.95c0,.33-.26.59-.59.59s-.59-.26-.59-.59v-2.98Z"/>
  </g>
</svg>