<?xml version="1.0" encoding="UTF-8"?>
<svg id="Laag_1" data-name="Laag 1" xmlns="http://www.w3.org/2000/svg" viewBox="0 0 164.41 249.45">
  <defs>
    <style>
      .cls-1 {
        stroke: #fff;
        stroke-miterlimit: 10;
        stroke-width: .48px;
      }

      .cls-1, .cls-2 {
        fill: #fff;
      }

      .cls-3 {
        fill: #8082b8;
      }

      .cls-3, .cls-4, .cls-5, .cls-6, .cls-7, .cls-2, .cls-8 {
        stroke-width: 0px;
      }

      .cls-4 {
        fill: #2f2f2f;
      }

      .cls-5 {
        fill: #1d1d1b;
      }

      .cls-6 {
        fill: #de2b65;
      }

      .cls-7 {
        fill: #8abb2a;
      }

      .cls-8 {
        fill: #eb7c19;
      }
    </style>
  </defs>
  <rect class="cls-4" x="0" width="164.41" height="249.45"/>
  <g>
    <path class="cls-3" d="M141.73,206.68c-4.35,0-7.89-3.7-7.89-8.26s3.54-8.25,7.89-8.25,7.89,3.7,7.89,8.25-3.54,8.26-7.89,8.26Z"/>
    <path class="cls-5" d="M141.73,191.17c3.8,0,6.89,3.25,6.89,7.26s-3.09,7.26-6.89,7.26-6.89-3.25-6.89-7.26,3.09-7.26,6.89-7.26M141.73,189.17c-4.91,0-8.89,4.14-8.89,9.26s3.98,9.26,8.89,9.26,8.89-4.14,8.89-9.26-3.98-9.26-8.89-9.26h0Z"/>
  </g>
  <g>
    <ellipse class="cls-8" cx="141.73" cy="226.17" rx="7.89" ry="8.26"/>
    <path class="cls-5" d="M141.73,218.92c3.8,0,6.89,3.25,6.89,7.26s-3.09,7.26-6.89,7.26-6.89-3.25-6.89-7.26,3.09-7.26,6.89-7.26M141.73,216.92c-4.91,0-8.89,4.14-8.89,9.26s3.98,9.26,8.89,9.26,8.89-4.14,8.89-9.26-3.98-9.26-8.89-9.26h0Z"/>
  </g>
  <g>
    <g>
      <path class="cls-3" d="M54.87,149.01c-3.37,0-6.51-1.8-8.18-4.7l-18.04-31.24c-2.59-4.5-1.05-10.26,3.45-12.86l14.18-8.19c1.42-.82,3.04-1.25,4.67-1.25,3.38,0,6.51,1.8,8.18,4.7l18.04,31.24c1.25,2.17,1.58,4.7.93,7.14-.65,2.44-2.21,4.47-4.37,5.72l-14.18,8.19c-1.42.82-3.04,1.25-4.68,1.25Z"/>
      <path class="cls-5" d="M50.95,92.21h0c2.86,0,5.52,1.53,6.94,3.98l18.04,31.24c1.06,1.83,1.34,3.98.78,6.05-.55,2.07-1.87,3.79-3.7,4.85l-14.18,8.19c-1.2.69-2.57,1.06-3.96,1.06-2.86,0-5.52-1.52-6.94-3.98l-18.04-31.24c-1.06-1.83-1.34-3.98-.78-6.05.55-2.07,1.87-3.79,3.7-4.85l14.18-8.19c1.2-.69,2.57-1.06,3.96-1.06M50.95,89.34c-1.84,0-3.7.47-5.39,1.45l-14.18,8.19c-5.17,2.98-6.96,9.65-3.97,14.82l18.04,31.24c2,3.47,5.67,5.42,9.43,5.42,1.84,0,3.7-.47,5.39-1.45l14.18-8.19c5.17-2.98,6.96-9.65,3.97-14.82l-18.04-31.24c-2-3.47-5.67-5.42-9.43-5.42h0Z"/>
    </g>
    <g>
      <path class="cls-6" d="M68.63,139.7c-4.26,0-8.01-2.87-9.11-6.98l-9.34-34.84c-.65-2.42-.31-4.95.95-7.14,1.26-2.18,3.29-3.74,5.7-4.39l15.82-4.24c.79-.21,1.61-.32,2.42-.32,4.26,0,8.01,2.87,9.11,6.98l9.34,34.84c1.34,5.01-1.64,10.19-6.66,11.53l-15.82,4.24c-.79.21-1.61.32-2.42.32Z"/>
      <path class="cls-5" d="M75.08,83.23c3.61,0,6.79,2.43,7.72,5.91l9.34,34.84c1.14,4.25-1.39,8.63-5.64,9.77l-15.82,4.24c-.67.18-1.36.27-2.05.27-3.61,0-6.79-2.43-7.72-5.91l-9.34-34.84c-.55-2.05-.26-4.19.81-6.05,1.07-1.85,2.79-3.17,4.83-3.72l15.82-4.24c.67-.18,1.36-.27,2.05-.27M75.08,80.36c-.92,0-1.86.12-2.79.37l-15.82,4.24c-5.76,1.54-9.22,7.52-7.67,13.29l9.34,34.84c1.29,4.83,5.71,8.04,10.5,8.04.92,0,1.86-.12,2.79-.37l15.82-4.24c5.76-1.54,9.22-7.52,7.67-13.29l-9.34-34.84c-1.29-4.83-5.71-8.04-10.5-8.04h0Z"/>
    </g>
    <g>
      <path class="cls-8" d="M94.03,139.7c-.81,0-1.63-.11-2.42-.32l-15.82-4.24c-5.01-1.34-8-6.52-6.66-11.53l9.34-34.84c1.1-4.11,4.85-6.98,9.11-6.98.81,0,1.63.11,2.42.32l15.82,4.24c2.42.65,4.44,2.21,5.7,4.39,1.26,2.19,1.6,4.72.95,7.14l-9.34,34.84c-1.1,4.11-4.85,6.98-9.11,6.98Z"/>
      <path class="cls-5" d="M87.58,83.23h0c.69,0,1.38.09,2.05.27l15.82,4.24c4.25,1.14,6.78,5.52,5.64,9.77l-9.34,34.84c-.93,3.48-4.11,5.91-7.72,5.91-.69,0-1.38-.09-2.05-.27l-15.82-4.24c-4.25-1.14-6.78-5.52-5.64-9.77l9.34-34.84c.93-3.48,4.11-5.91,7.72-5.91M87.58,80.36c-4.79,0-9.2,3.21-10.5,8.04l-9.34,34.84c-1.54,5.76,1.91,11.74,7.67,13.29l15.82,4.24c.93.25,1.87.37,2.79.37,4.79,0,9.2-3.21,10.5-8.04l9.34-34.84c1.54-5.76-1.91-11.74-7.67-13.29l-15.82-4.24c-.93-.25-1.87-.37-2.79-.37h0Z"/>
    </g>
    <g>
      <path class="cls-7" d="M109.54,150.1c-1.64,0-3.26-.43-4.68-1.25l-14.18-8.19c-4.5-2.6-6.04-8.36-3.45-12.86l18.04-31.24c1.67-2.9,4.81-4.7,8.18-4.7,1.64,0,3.26.43,4.68,1.25l14.18,8.19c4.5,2.6,6.04,8.36,3.45,12.86l-18.04,31.24c-1.67,2.9-4.81,4.7-8.18,4.7Z"/>
      <path class="cls-5" d="M113.46,93.3h0c1.39,0,2.76.37,3.96,1.06l14.18,8.19c1.83,1.06,3.15,2.78,3.7,4.85.55,2.07.27,4.21-.78,6.05l-18.04,31.24c-1.42,2.45-4.08,3.98-6.94,3.98-1.39,0-2.76-.37-3.96-1.06l-14.18-8.19c-1.83-1.06-3.15-2.78-3.7-4.85-.55-2.07-.27-4.21.78-6.05l18.04-31.24c1.42-2.45,4.08-3.98,6.94-3.98M113.46,90.43c-3.76,0-7.42,1.95-9.43,5.42l-18.04,31.24c-2.98,5.17-1.2,11.84,3.97,14.82l14.18,8.19c1.7.98,3.56,1.45,5.39,1.45,3.76,0,7.42-1.95,9.43-5.42l18.04-31.24c2.98-5.17,1.2-11.84-3.97-14.82l-14.18-8.19c-1.7-.98-3.56-1.45-5.39-1.45h0Z"/>
    </g>
  </g>
  <g>
    <path class="cls-2" d="M63.19,39.39c.02.73-.13,1.39-.44,1.98-.31.58-.72,1.08-1.25,1.5-.53.42-1.12.73-1.79.95-.67.22-1.33.32-2,.3-1.22-.02-2.28-.24-3.2-.67-.92-.43-1.68-1.02-2.3-1.75-.62-.73-1.08-1.6-1.4-2.6s-.48-2.09-.5-3.27c-.02-1.22.15-2.37.5-3.45.35-1.08.84-2.05,1.47-2.89.63-.84,1.39-1.52,2.26-2.03.88-.51,1.84-.8,2.89-.86.62-.03,1.22.02,1.81.17.59.15,1.12.4,1.58.76s.83.82,1.12,1.39.46,1.24.51,2.02c-.53-.52-1.07-.84-1.61-.98-.54-.13-1.12-.16-1.74-.08-.63.08-1.2.3-1.69.65-.49.35-.91.79-1.25,1.32-.34.53-.61,1.13-.79,1.79-.18.66-.28,1.34-.3,2.04-.03,1.4.21,2.51.72,3.32.52.82,1.33,1.37,2.45,1.65.4.1.83.15,1.29.15s.91-.05,1.35-.16.86-.27,1.26-.48c.4-.21.74-.47,1.03-.79Z"/>
    <path class="cls-2" d="M72.82,29.01c-.87.72-1.56,1.51-2.07,2.38-.52.87-.89,1.73-1.12,2.6-.23.87-.35,1.7-.34,2.51,0,.81.11,1.53.31,2.16.2.63.47,1.14.82,1.51.35.38.75.56,1.2.56.48,0,.89-.16,1.24-.48.34-.32.6-.73.79-1.25.18-.52.28-1.11.29-1.77,0-.67-.08-1.35-.25-2.06-.18-.71-.44-1.4-.8-2.09-.36-.68-.82-1.3-1.39-1.85,1.32.02,2.42.27,3.32.75.9.48,1.6,1.11,2.11,1.89.51.77.83,1.65.96,2.61.13.97.08,1.95-.15,2.95-.15.68-.41,1.34-.78,1.96-.37.62-.81,1.17-1.34,1.65s-1.12.85-1.8,1.12-1.4.41-2.16.41c-.98,0-1.87-.17-2.65-.5-.78-.33-1.45-.8-2-1.41-.55-.61-.98-1.33-1.29-2.17-.31-.84-.47-1.76-.49-2.76-.03-1.07.12-2.08.45-3.05.33-.97.83-1.84,1.47-2.62.65-.78,1.45-1.44,2.4-1.98.95-.53,2.03-.89,3.25-1.08Z"/>
    <path class="cls-2" d="M80.62,26.76c.97-.07,1.77.11,2.41.54.64.43,1.15,1.01,1.52,1.76s.62,1.63.75,2.64c.12,1.01.15,2.06.06,3.15s-.25,2.18-.51,3.26c-.26,1.08-.58,2.08-.97,2.99s-.84,1.69-1.34,2.35c-.5.66-1.03,1.1-1.6,1.34.05-.43.09-1.11.11-2.03.03-.92.04-1.96.05-3.12,0-1.17,0-2.4-.01-3.7-.02-1.3-.05-2.55-.09-3.74-.04-1.19-.1-2.27-.16-3.24-.07-.97-.14-1.7-.23-2.2Z"/>
    <path class="cls-2" d="M96.17,29.01c-.87.72-1.56,1.51-2.07,2.38-.52.87-.89,1.73-1.12,2.6-.23.87-.35,1.7-.34,2.51,0,.81.11,1.53.31,2.16.2.63.47,1.14.82,1.51.35.38.75.56,1.2.56.48,0,.89-.16,1.24-.48.34-.32.6-.73.79-1.25.18-.52.28-1.11.29-1.77,0-.67-.08-1.35-.25-2.06-.18-.71-.44-1.4-.8-2.09-.36-.68-.82-1.3-1.39-1.85,1.32.02,2.42.27,3.32.75.9.48,1.6,1.11,2.11,1.89.51.77.83,1.65.96,2.61.13.97.08,1.95-.15,2.95-.15.68-.41,1.34-.78,1.96-.37.62-.81,1.17-1.34,1.65s-1.12.85-1.8,1.12-1.4.41-2.16.41c-.98,0-1.87-.17-2.65-.5-.78-.33-1.45-.8-2-1.41-.55-.61-.98-1.33-1.29-2.17-.31-.84-.47-1.76-.49-2.76-.03-1.07.12-2.08.45-3.05.33-.97.83-1.84,1.47-2.62.65-.78,1.45-1.44,2.4-1.98.95-.53,2.03-.89,3.25-1.08Z"/>
    <path class="cls-2" d="M111.67,38.01c.03-1.85-.2-3.27-.7-4.25-.5-.98-1.23-1.46-2.2-1.42-.13,0-.25,0-.35.01-.1,0-.2.02-.3.04.23.67.37,1.41.4,2.23.03.82-.02,1.65-.15,2.5-.13.85-.33,1.69-.6,2.51-.27.82-.59,1.58-.98,2.27-.38.69-.81,1.29-1.27,1.8-.47.51-.96.87-1.48,1.09.05-.43.09-1.04.11-1.83.03-.78.04-1.66.05-2.62,0-.97,0-1.98-.01-3.04-.02-1.06-.05-2.08-.09-3.06-.04-.98-.1-1.89-.16-2.73-.07-.83-.14-1.5-.22-2,.8-.07,1.49.02,2.07.26.58.24,1.07.59,1.45,1.04.72-.73,1.72-1.1,3.02-1.1.82,0,1.51.14,2.09.41.58.27,1.03.64,1.35,1.1s.52.98.6,1.57c.07.59.03,1.2-.14,1.81-.17.62-.46,1.22-.88,1.81-.42.59-.96,1.12-1.62,1.59Z"/>
  </g>
  <g>
    <path class="cls-1" d="M20.87,187.3c-.14-.32.02-.69.34-.83.31-.14.69.01.83.33l2.06,5.05,2.06-5.05c.14-.32.52-.47.83-.33.32.14.48.5.34.83l-2.66,6.28c-.1.24-.33.38-.57.38s-.47-.14-.57-.38l-2.66-6.28Z"/>
    <path class="cls-1" d="M30.44,193.82c-1.83,0-3.13-1.36-3.13-3.04s1.3-3.04,3.13-3.04h.72c1.16,0,1.93.81,1.93,1.82s-.77,1.82-1.93,1.82h-1.16c-.33,0-.61-.27-.61-.61s.27-.61.61-.61h1.16c.41,0,.69-.28.69-.61s-.28-.61-.69-.61h-.72c-1.1,0-1.89.83-1.89,1.82s.79,1.82,1.89,1.82h1.75c.33,0,.61.28.61.61s-.28.61-.61.61h-1.75Z"/>
    <path class="cls-1" d="M38.69,190.11c0,.34-.28.62-.62.62s-.62-.27-.62-.61v-.08c0-.61-.45-1.09-1.09-1.09h-1.09v4.33c0,.34-.28.62-.62.62s-.62-.28-.62-.62v-4.93c0-.34.28-.62.62-.62h1.71c1.31,0,2.33,1.04,2.33,2.3v.07Z"/>
    <path class="cls-1" d="M40.92,193.82c-1.11,0-1.88-.85-1.88-1.88s.77-1.88,1.88-1.88h1.16c.33,0,.61.28.61.61s-.28.61-.61.61h-1.16c-.38,0-.64.32-.64.66s.26.66.64.66h2.23v-2.57c0-.61-.42-1.08-1.05-1.08h-1.95c-.33,0-.61-.28-.61-.61s.28-.61.61-.61h1.95c1.28,0,2.29,1.02,2.29,2.28v3.18c0,.34-.22.62-.62.62h-2.84Z"/>
    <path class="cls-1" d="M49.62,190.15c0-.65-.54-1.19-1.19-1.19h-1.56v4.33c0,.34-.27.62-.62.62s-.62-.28-.62-.62v-4.93c0-.34.27-.62.62-.62h2.18c1.34,0,2.43,1.09,2.43,2.43v3.12c0,.34-.28.62-.62.62s-.62-.28-.62-.62v-3.14Z"/>
    <path class="cls-1" d="M54.93,193.82c-1.84,0-3.13-1.36-3.13-3.04s1.3-3.04,3.13-3.04h1.41v-1.9c0-.34.28-.62.62-.62s.62.28.62.62v7.36c0,.34-.27.62-.62.62h-2.03ZM56.34,188.96h-1.41c-1.1,0-1.89.83-1.89,1.82s.79,1.82,1.89,1.82h1.41v-3.65Z"/>
    <path class="cls-1" d="M61.65,193.82c-1.83,0-3.13-1.36-3.13-3.04s1.3-3.04,3.13-3.04h.72c1.16,0,1.93.81,1.93,1.82s-.77,1.82-1.93,1.82h-1.16c-.33,0-.61-.27-.61-.61s.28-.61.61-.61h1.16c.41,0,.69-.28.69-.61s-.27-.61-.69-.61h-.72c-1.1,0-1.89.83-1.89,1.82s.79,1.82,1.89,1.82h1.75c.33,0,.61.28.61.61s-.27.61-.61.61h-1.75Z"/>
    <path class="cls-1" d="M69.9,190.11c0,.34-.27.62-.62.62s-.62-.27-.62-.61v-.08c0-.61-.45-1.09-1.09-1.09h-1.09v4.33c0,.34-.27.62-.62.62s-.62-.28-.62-.62v-4.93c0-.34.28-.62.62-.62h1.71c1.31,0,2.33,1.04,2.33,2.3v.07Z"/>
    <path class="cls-1" d="M76.22,193.82c-1.84,0-3.13-1.36-3.13-3.04s1.3-3.04,3.13-3.04h1.41v-1.9c0-.34.28-.62.62-.62s.62.28.62.62v7.36c0,.34-.27.62-.62.62h-2.03ZM77.63,188.96h-1.41c-1.1,0-1.89.83-1.89,1.82s.79,1.82,1.89,1.82h1.41v-3.65Z"/>
    <path class="cls-1" d="M82.95,193.82c-1.83,0-3.13-1.36-3.13-3.04s1.3-3.04,3.13-3.04h.72c1.16,0,1.93.81,1.93,1.82s-.77,1.82-1.93,1.82h-1.16c-.33,0-.61-.27-.61-.61s.28-.61.61-.61h1.16c.41,0,.69-.28.69-.61s-.27-.61-.69-.61h-.72c-1.1,0-1.89.83-1.89,1.82s.79,1.82,1.89,1.82h1.75c.33,0,.61.28.61.61s-.27.61-.61.61h-1.75Z"/>
    <path class="cls-1" d="M21.68,210.07c-.33,0-.61-.28-.61-.61s.27-.61.61-.61h2.57c.41,0,.69-.28.69-.61s-.27-.61-.69-.61h-1.42c-1.16,0-1.93-.81-1.93-1.82s.77-1.82,1.93-1.82h2.57c.33,0,.61.28.61.61s-.27.61-.61.61h-2.57c-.41,0-.69.27-.69.61s.27.61.69.61h1.42c1.16,0,1.93.81,1.93,1.82s-.77,1.82-1.93,1.82h-2.57Z"/>
    <path class="cls-1" d="M28.36,210.07v1.9c0,.34-.28.62-.62.62s-.62-.28-.62-.62v-7.36c0-.34.28-.62.62-.62h2.03c1.83,0,3.13,1.36,3.13,3.04s-1.3,3.04-3.13,3.04h-1.41ZM29.77,208.86c1.1,0,1.89-.83,1.89-1.82s-.79-1.82-1.89-1.82h-1.41v3.65h1.41Z"/>
    <path class="cls-1" d="M36.79,210.07c-1.83,0-3.13-1.36-3.13-3.04s1.3-3.04,3.13-3.04h.72c1.16,0,1.93.81,1.93,1.82s-.77,1.82-1.93,1.82h-1.16c-.33,0-.61-.27-.61-.61s.28-.61.61-.61h1.16c.41,0,.69-.28.69-.61s-.27-.61-.69-.61h-.72c-1.1,0-1.89.83-1.89,1.82s.79,1.82,1.89,1.82h1.75c.33,0,.61.28.61.61s-.27.61-.61.61h-1.75Z"/>
    <path class="cls-1" d="M43.33,210.07c-1.83,0-3.13-1.36-3.13-3.04s1.3-3.04,3.13-3.04h.72c1.16,0,1.93.81,1.93,1.82s-.77,1.82-1.93,1.82h-1.16c-.33,0-.61-.27-.61-.61s.28-.61.61-.61h1.16c.41,0,.69-.28.69-.61s-.27-.61-.69-.61h-.72c-1.1,0-1.89.83-1.89,1.82s.79,1.82,1.89,1.82h1.75c.33,0,.61.28.61.61s-.27.61-.61.61h-1.75Z"/>
    <path class="cls-1" d="M46.92,202.09c0-.34.28-.62.62-.62s.62.28.62.62v7.45c0,.34-.27.62-.62.62s-.62-.28-.62-.62v-7.45Z"/>
    <path class="cls-1" d="M50.64,207.15v2.4c0,.34-.27.62-.62.62s-.62-.28-.62-.62v-7.45c0-.34.28-.62.62-.62s.62.28.62.62v4.83l2.83-2.83c.24-.24.62-.24.86,0,.23.24.23.62,0,.86l-2.09,2.09,2.09,2.09c.24.24.23.62,0,.86-.24.24-.62.24-.86,0l-2.83-2.83Z"/>
    <path class="cls-1" d="M55.3,202.09c0-.34.28-.62.62-.62s.62.28.62.62v7.45c0,.34-.27.62-.62.62s-.62-.28-.62-.62v-7.45Z"/>
    <path class="cls-1" d="M60.61,210.07c-1.84,0-3.13-1.36-3.13-3.04s1.3-3.04,3.13-3.04h.72c1.16,0,1.93.81,1.93,1.82s-.77,1.82-1.93,1.82h-1.16c-.33,0-.61-.27-.61-.61s.28-.61.61-.61h1.16c.41,0,.69-.28.69-.61s-.27-.61-.69-.61h-.72c-1.1,0-1.89.83-1.89,1.82s.79,1.82,1.89,1.82h1.75c.33,0,.61.28.61.61s-.28.61-.61.61h-1.75Z"/>
    <path class="cls-1" d="M68.21,204.52c0-.34.27-.62.62-.62s.62.27.62.62v3.07c0,1.45-1.18,2.63-2.63,2.63s-2.63-1.18-2.63-2.63v-3.07c0-.34.28-.62.62-.62s.62.27.62.62v3.11c0,.76.63,1.39,1.39,1.39s1.39-.63,1.39-1.39v-3.11Z"/>
    <path class="cls-1" d="M75.35,206.37c0,.34-.27.62-.62.62s-.62-.27-.62-.61v-.08c0-.61-.45-1.09-1.09-1.09h-1.09v4.33c0,.34-.27.62-.62.62s-.62-.28-.62-.62v-4.93c0-.34.28-.62.62-.62h1.71c1.31,0,2.33,1.04,2.33,2.3v.07Z"/>
    <path class="cls-1" d="M82.83,206.4c0-.65-.54-1.19-1.19-1.19h-1.56v4.33c0,.34-.28.62-.62.62s-.62-.28-.62-.62v-4.93c0-.34.28-.62.62-.62h2.18c1.34,0,2.43,1.09,2.43,2.43v3.12c0,.34-.28.62-.62.62s-.62-.28-.62-.62v-3.14Z"/>
    <path class="cls-1" d="M86.92,210.07c-1.11,0-1.88-.85-1.88-1.88s.77-1.88,1.88-1.88h1.16c.33,0,.61.28.61.61s-.28.61-.61.61h-1.16c-.38,0-.64.32-.64.66s.26.66.64.66h2.22v-2.57c0-.61-.42-1.08-1.06-1.08h-1.95c-.33,0-.61-.28-.61-.61s.28-.61.61-.61h1.95c1.28,0,2.29,1.02,2.29,2.28v3.18c0,.34-.22.62-.62.62h-2.84Z"/>
    <path class="cls-1" d="M93.23,210.07c-1.11,0-1.88-.85-1.88-1.88s.77-1.88,1.88-1.88h1.16c.33,0,.61.28.61.61s-.27.61-.61.61h-1.16c-.38,0-.64.32-.64.66s.27.66.64.66h2.23v-2.57c0-.61-.43-1.08-1.06-1.08h-1.95c-.33,0-.61-.28-.61-.61s.28-.61.61-.61h1.95c1.28,0,2.29,1.02,2.29,2.28v3.18c0,.34-.22.62-.62.62h-2.84Z"/>
    <path class="cls-1" d="M102.59,206.37c0,.34-.27.62-.62.62s-.62-.27-.62-.61v-.08c0-.61-.45-1.09-1.09-1.09h-1.09v4.33c0,.34-.27.62-.62.62s-.62-.28-.62-.62v-4.93c0-.34.27-.62.62-.62h1.71c1.31,0,2.33,1.04,2.33,2.3v.07Z"/>
    <path class="cls-1" d="M108.91,210.07c-1.84,0-3.13-1.36-3.13-3.04s1.3-3.04,3.13-3.04h.72c1.16,0,1.93.81,1.93,1.82s-.77,1.82-1.93,1.82h-1.16c-.33,0-.61-.27-.61-.61s.27-.61.61-.61h1.16c.41,0,.69-.28.69-.61s-.28-.61-.69-.61h-.72c-1.1,0-1.89.83-1.89,1.82s.79,1.82,1.89,1.82h1.75c.33,0,.61.28.61.61s-.28.61-.61.61h-1.75Z"/>
    <path class="cls-1" d="M115.45,210.07c-1.84,0-3.13-1.36-3.13-3.04s1.3-3.04,3.13-3.04h.72c1.16,0,1.93.81,1.93,1.82s-.77,1.82-1.93,1.82h-1.16c-.33,0-.61-.27-.61-.61s.27-.61.61-.61h1.16c.41,0,.69-.28.69-.61s-.28-.61-.69-.61h-.72c-1.1,0-1.89.83-1.89,1.82s.79,1.82,1.89,1.82h1.75c.33,0,.61.28.61.61s-.28.61-.61.61h-1.75Z"/>
    <path class="cls-1" d="M123.03,206.4c0-.65-.54-1.19-1.19-1.19h-1.56v4.33c0,.34-.28.62-.62.62s-.62-.28-.62-.62v-4.93c0-.34.28-.62.62-.62h2.18c1.34,0,2.43,1.09,2.43,2.43v3.12c0,.34-.27.62-.62.62s-.62-.28-.62-.62v-3.14Z"/>
    <path class="cls-1" d="M22.44,223.4v2.4c0,.34-.28.62-.62.62s-.62-.28-.62-.62v-7.45c0-.34.28-.62.62-.62s.62.28.62.62v4.83l2.83-2.83c.24-.24.62-.24.86,0,.23.24.23.62,0,.86l-2.09,2.09,2.09,2.09c.24.24.23.62,0,.86-.24.24-.62.24-.86,0l-2.83-2.83Z"/>
    <path class="cls-1" d="M27.1,218.34c0-.34.28-.62.62-.62s.62.28.62.62v7.45c0,.34-.28.62-.62.62s-.62-.28-.62-.62v-7.45Z"/>
    <path class="cls-1" d="M32.41,226.32c-1.83,0-3.13-1.36-3.13-3.04s1.3-3.04,3.13-3.04h.72c1.16,0,1.93.81,1.93,1.82s-.77,1.82-1.93,1.82h-1.16c-.33,0-.61-.27-.61-.61s.28-.61.61-.61h1.16c.41,0,.69-.28.69-.61s-.27-.61-.69-.61h-.72c-1.1,0-1.89.83-1.89,1.82s.79,1.82,1.89,1.82h1.75c.33,0,.61.28.61.61s-.27.61-.61.61h-1.75Z"/>
    <path class="cls-1" d="M40.01,220.78c0-.34.28-.62.62-.62s.62.27.62.62v3.07c0,1.45-1.18,2.63-2.63,2.63s-2.63-1.18-2.63-2.63v-3.07c0-.34.27-.62.62-.62s.62.27.62.62v3.11c0,.76.63,1.39,1.39,1.39s1.39-.63,1.39-1.39v-3.11Z"/>
    <path class="cls-1" d="M47.15,222.62c0,.34-.28.62-.62.62s-.62-.27-.62-.61v-.08c0-.61-.45-1.09-1.09-1.09h-1.09v4.33c0,.34-.28.62-.62.62s-.62-.28-.62-.62v-4.93c0-.34.28-.62.62-.62h1.71c1.31,0,2.33,1.04,2.33,2.3v.07Z"/>
    <path class="cls-1" d="M54.63,222.66c0-.65-.54-1.19-1.19-1.19h-1.56v4.33c0,.34-.28.62-.62.62s-.62-.28-.62-.62v-4.93c0-.34.28-.62.62-.62h2.18c1.34,0,2.43,1.09,2.43,2.43v3.12c0,.34-.28.62-.62.62s-.62-.28-.62-.62v-3.14Z"/>
    <path class="cls-1" d="M58.72,226.32c-1.11,0-1.88-.85-1.88-1.88s.77-1.88,1.88-1.88h1.16c.33,0,.61.28.61.61s-.27.61-.61.61h-1.16c-.38,0-.64.32-.64.66s.26.66.64.66h2.23v-2.57c0-.61-.42-1.08-1.06-1.08h-1.95c-.33,0-.61-.28-.61-.61s.28-.61.61-.61h1.95c1.28,0,2.29,1.02,2.29,2.28v3.18c0,.34-.22.62-.62.62h-2.84Z"/>
    <path class="cls-1" d="M65.03,226.32c-1.11,0-1.88-.85-1.88-1.88s.77-1.88,1.88-1.88h1.16c.33,0,.61.28.61.61s-.27.61-.61.61h-1.16c-.38,0-.64.32-.64.66s.26.66.64.66h2.23v-2.57c0-.61-.42-1.08-1.06-1.08h-1.95c-.33,0-.61-.28-.61-.61s.28-.61.61-.61h1.95c1.28,0,2.29,1.02,2.29,2.28v3.18c0,.34-.22.62-.62.62h-2.84Z"/>
    <path class="cls-1" d="M74.39,222.62c0,.34-.28.62-.62.62s-.62-.27-.62-.61v-.08c0-.61-.45-1.09-1.09-1.09h-1.09v4.33c0,.34-.27.62-.62.62s-.62-.28-.62-.62v-4.93c0-.34.27-.62.62-.62h1.71c1.31,0,2.33,1.04,2.33,2.3v.07Z"/>
    <path class="cls-1" d="M79.11,223.4v2.4c0,.34-.27.62-.62.62s-.62-.28-.62-.62v-7.45c0-.34.28-.62.62-.62s.62.28.62.62v4.83l2.83-2.83c.24-.24.62-.24.86,0,.23.24.23.62,0,.86l-2.09,2.09,2.09,2.09c.24.24.23.62,0,.86-.24.24-.62.24-.86,0l-2.83-2.83Z"/>
    <path class="cls-1" d="M86.26,226.32c-1.83,0-3.13-1.36-3.13-3.04s1.3-3.04,3.13-3.04h.72c1.16,0,1.93.81,1.93,1.82s-.77,1.82-1.93,1.82h-1.16c-.33,0-.61-.27-.61-.61s.27-.61.61-.61h1.16c.41,0,.69-.28.69-.61s-.28-.61-.69-.61h-.72c-1.1,0-1.89.83-1.89,1.82s.79,1.82,1.89,1.82h1.75c.33,0,.61.28.61.61s-.28.61-.61.61h-1.75Z"/>
    <path class="cls-1" d="M93.87,220.78c0-.34.27-.62.62-.62s.62.27.62.62v3.07c0,1.45-1.18,2.63-2.63,2.63s-2.63-1.18-2.63-2.63v-3.07c0-.34.28-.62.62-.62s.62.27.62.62v3.11c0,.76.63,1.39,1.39,1.39s1.39-.63,1.39-1.39v-3.11Z"/>
    <path class="cls-1" d="M96.74,226.32c-.33,0-.61-.26-.61-.6,0-.14.06-.31.18-.46l3.13-3.81h-2.6c-.33,0-.61-.28-.61-.61s.28-.61.61-.61h3.85c.33,0,.6.26.6.6,0,.15-.06.31-.18.46l-3.13,3.81h2.59c.33,0,.61.28.61.61s-.27.61-.61.61h-3.83Z"/>
    <path class="cls-1" d="M104.69,226.32c-1.84,0-3.13-1.36-3.13-3.04s1.3-3.04,3.13-3.04h.72c1.16,0,1.93.81,1.93,1.82s-.77,1.82-1.93,1.82h-1.16c-.33,0-.61-.27-.61-.61s.27-.61.61-.61h1.16c.41,0,.69-.28.69-.61s-.28-.61-.69-.61h-.72c-1.1,0-1.89.83-1.89,1.82s.79,1.82,1.89,1.82h1.75c.33,0,.61.28.61.61s-.28.61-.61.61h-1.75Z"/>
  </g>
</svg>