<?xml version="1.0" encoding="UTF-8"?>
<svg id="Laag_1" data-name="Laag 1" xmlns="http://www.w3.org/2000/svg" viewBox="0 0 164.41 249.45">
  <defs>
    <style>
      .cls-1 {
        stroke: #fff;
        stroke-width: .48px;
      }

      .cls-1, .cls-2, .cls-3, .cls-4, .cls-5, .cls-6 {
        stroke-miterlimit: 10;
      }

      .cls-1, .cls-7 {
        fill: #fff;
      }

      .cls-2, .cls-3, .cls-4, .cls-5, .cls-6 {
        stroke: #1d1d1b;
        stroke-width: 2.19px;
      }

      .cls-2, .cls-8 {
        fill: #8abb2a;
      }

      .cls-3 {
        fill: #ff6d00;
      }

      .cls-4, .cls-9 {
        fill: #2f2f2f;
      }

      .cls-5, .cls-10 {
        fill: #8082b8;
      }

      .cls-6 {
        fill: #de2b65;
      }

      .cls-10, .cls-9, .cls-11, .cls-8, .cls-7 {
        stroke-width: 0px;
      }

      .cls-11 {
        fill: #1d1d1b;
      }
    </style>
  </defs>
  <rect class="cls-9" x="0" width="164.41" height="249.45"/>
  <g>
    <path class="cls-10" d="M141.73,206.68c-4.35,0-7.89-3.7-7.89-8.26s3.54-8.25,7.89-8.25,7.89,3.7,7.89,8.25-3.54,8.26-7.89,8.26Z"/>
    <path class="cls-11" d="M141.73,191.17c3.8,0,6.89,3.25,6.89,7.26s-3.09,7.26-6.89,7.26-6.89-3.25-6.89-7.26,3.09-7.26,6.89-7.26M141.73,189.17c-4.91,0-8.89,4.14-8.89,9.26s3.98,9.26,8.89,9.26,8.89-4.14,8.89-9.26-3.98-9.26-8.89-9.26h0Z"/>
  </g>
  <g>
    <ellipse class="cls-8" cx="141.73" cy="226.17" rx="7.89" ry="8.26"/>
    <path class="cls-11" d="M141.73,218.92c3.8,0,6.89,3.25,6.89,7.26s-3.09,7.26-6.89,7.26-6.89-3.25-6.89-7.26,3.09-7.26,6.89-7.26M141.73,216.92c-4.91,0-8.89,4.14-8.89,9.26s3.98,9.26,8.89,9.26,8.89-4.14,8.89-9.26-3.98-9.26-8.89-9.26h0Z"/>
  </g>
  <g>
    <path class="cls-5" d="M89.05,69.41h9.97v2c0,1.4,1.52,2.28,2.73,1.58l11.66-6.73c1.22-.7,1.22-2.46,0-3.16l-11.66-6.73c-1.21-.7-2.73.18-2.73,1.58v1.9h-10c-2.79.02-5.29.88-7.48,2.61-2.16,1.71-3.57,3.91-4.25,6.58-.15.57-.25,1.14-.29,1.72-.03.38-.04.77-.06,1.15v19.62h9.58v-19.62"/>
    <path class="cls-4" d="M86.5,71.9c0-.89.45-1.68,1.16-2.15.41-.27.83-.35,1.39-.35"/>
    <path class="cls-2" d="M74.37,84.59h-9.97v2c0,1.4-1.52,2.28-2.73,1.58l-11.66-6.73c-1.22-.7-1.22-2.46,0-3.16l11.66-6.73c1.21-.7,2.73.18,2.73,1.58v1.9h10c2.79.02,5.29.88,7.48,2.61,2.16,1.71,3.57,3.91,4.25,6.58.15.57.25,1.14.29,1.72.03.38.04.77.06,1.15v19.62h-9.58v-19.62"/>
    <path class="cls-4" d="M76.92,87.08c0-.89-.45-1.68-1.16-2.15-.41-.27-.83-.35-1.39-.35"/>
    <path class="cls-6" d="M89.05,101.36h9.97v2c0,1.4,1.52,2.28,2.73,1.58l11.66-6.73c1.22-.7,1.22-2.46,0-3.16l-11.66-6.73c-1.21-.7-2.73.18-2.73,1.58v1.9h-10c-2.79.02-5.29.88-7.48,2.61-2.16,1.71-3.57,3.91-4.25,6.58-.15.57-.25,1.14-.29,1.72-.03.38-.04.77-.06,1.15v19.62h9.58v-19.62"/>
    <path class="cls-4" d="M86.5,103.86c0-.89.45-1.68,1.16-2.15.41-.27.83-.35,1.39-.35"/>
    <path class="cls-3" d="M74.37,116.54h-9.97v2c0,1.4-1.52,2.28-2.73,1.58l-11.66-6.73c-1.22-.7-1.22-2.46,0-3.16l11.66-6.73c1.21-.7,2.73.18,2.73,1.58v1.9h10c2.79.02,5.29.88,7.48,2.61,2.16,1.71,3.57,3.91,4.25,6.58.15.57.25,1.14.29,1.72.03.38.04.77.06,1.15v18.38c0,.69-.56,1.24-1.24,1.24h-7.1c-.68,0-1.24-.55-1.24-1.24v-18.39"/>
    <path class="cls-4" d="M76.92,119.04c0-.89-.45-1.68-1.16-2.15-.41-.27-.83-.35-1.39-.35"/>
  </g>
  <g>
    <path class="cls-7" d="M45.4,27.3c.64.43,1.15,1.01,1.53,1.76s.62,1.63.75,2.64c.12,1.01.15,2.06.06,3.15s-.25,2.18-.51,3.26c-.26,1.08-.58,2.08-.98,2.99s-.84,1.69-1.34,2.35c-.5.66-1.03,1.1-1.6,1.34.03-.37.06-.93.09-1.69.03-.76.04-1.62.05-2.59,0-.97,0-2,0-3.11,0-1.11-.02-2.21-.04-3.31-.2.75-.45,1.5-.75,2.24-.3.74-.66,1.45-1.09,2.12-.43.68-.91,1.29-1.45,1.85-.54.56-1.14,1.03-1.79,1.41-.53-1.82-1.09-3.47-1.66-4.95-.57-1.48-1.14-2.81-1.69-3.97-.02.45-.03,1.01-.04,1.69,0,.67-.01,1.4-.01,2.16s.01,1.55.04,2.34c.02.79.06,1.54.11,2.25.05.71.12,1.34.2,1.89.08.55.18.97.3,1.25-.92-.02-1.65-.1-2.21-.24-.56-.14-.99-.38-1.3-.71s-.52-.78-.62-1.34c-.11-.56-.16-1.26-.16-2.11,0-1.75,0-3.25-.01-4.51,0-1.26-.04-2.31-.1-3.16-.06-.85-.15-1.53-.26-2.04-.12-.51-.28-.89-.49-1.15s-.47-.42-.79-.49c-.32-.07-.7-.09-1.15-.07.35-.52.7-.93,1.04-1.23.34-.3.67-.53.99-.7.32-.17.61-.27.89-.32.28-.05.52-.08.74-.08.55,0,1,.07,1.36.21.36.14.65.34.88.59s.39.55.5.91c.11.36.18.76.21,1.21.92.68,1.76,1.62,2.54,2.8.77,1.18,1.35,2.56,1.71,4.12.32-.47.68-1.06,1.09-1.79s.8-1.51,1.16-2.35c.37-.84.68-1.7.95-2.59.27-.88.42-1.73.45-2.52v-.05c.97-.07,1.77.11,2.41.54Z"/>
    <path class="cls-7" d="M58.87,42.69c-.7.7-1.43,1.15-2.2,1.36-.77.21-1.48.3-2.15.26-.65-.03-1.26-.2-1.83-.5-.57-.3-1.05-.7-1.46-1.19-.41-.49-.72-1.06-.94-1.71-.22-.65-.31-1.34-.28-2.08.03-.65.16-1.29.38-1.91s.54-1.18.97-1.67.99-.88,1.66-1.18c.68-.29,1.49-.44,2.44-.44.53,0,1.04.06,1.51.19.47.12.93.35,1.36.66-.05-.7-.35-1.23-.91-1.59s-1.22-.6-2-.74-1.58-.17-2.41-.11c-.83.06-1.54.16-2.12.31.33-.55.73-1.03,1.19-1.45.46-.42.95-.76,1.47-1.04s1.06-.48,1.61-.61c.55-.13,1.09-.18,1.62-.15.95.05,1.76.29,2.42.71.67.43,1.21.98,1.64,1.65.42.67.74,1.45.94,2.32.2.88.3,1.8.3,2.76,0,.8-.05,1.61-.16,2.42-.11.82-.28,1.6-.5,2.34-.22.74-.5,1.43-.82,2.06-.33.63-.7,1.18-1.11,1.62-.08-.32-.17-.69-.28-1.11-.1-.42-.22-.83-.35-1.21ZM53.74,38.49c.02.25.06.5.14.74s.19.46.34.66c.15.2.35.37.59.51s.55.25.91.31c.43.08.82.07,1.15-.04.33-.11.61-.27.84-.49.22-.22.4-.47.51-.76.12-.29.18-.59.18-.89,0-.4-.05-.77-.15-1.11-.1-.34-.25-.64-.45-.9-.2-.26-.46-.46-.78-.61-.32-.15-.69-.22-1.12-.2-.77.03-1.34.3-1.71.81-.38.51-.52,1.16-.44,1.96Z"/>
    <path class="cls-7" d="M72.14,26.51c.97-.07,1.77.11,2.41.54.64.43,1.15,1.02,1.53,1.8.38.77.62,1.67.75,2.69s.15,2.08.06,3.19c-.08,1.11-.25,2.21-.51,3.3-.26,1.09-.58,2.1-.98,3.02-.39.93-.84,1.72-1.34,2.39s-1.03,1.12-1.6,1.35c.02-.13.03-.28.04-.45,0-.17.02-.37.04-.6-.7.28-1.47.41-2.33.38-.97-.02-1.82-.2-2.57-.54-.75-.34-1.38-.8-1.9-1.39s-.91-1.27-1.19-2.06-.42-1.65-.44-2.59c-.02-.97.13-1.88.44-2.74.31-.86.74-1.62,1.3-2.29.56-.67,1.23-1.2,2.01-1.61.78-.41,1.63-.64,2.55-.69.37-.02.72,0,1.06.02.34.03.67.1.99.2-.03-.87-.08-1.64-.14-2.33-.06-.68-.12-1.22-.19-1.6ZM72.59,41.51c.03-1.25.04-2.65.03-4.19-.02-1.54-.04-3.05-.08-4.54-.1,0-.2,0-.3.01-.1,0-.21.02-.33.04-.5.05-.95.22-1.35.5-.4.28-.75.63-1.04,1.05-.29.42-.52.89-.67,1.43-.16.53-.25,1.07-.26,1.62-.05,2.18.81,3.49,2.58,3.92.48.13.96.18,1.42.15Z"/>
    <path class="cls-7" d="M93.49,42.64c-.28.42-.57.75-.85,1-.28.25-.55.44-.81.58-.26.13-.5.22-.73.26-.22.04-.43.06-.61.06-.65,0-1.18-.12-1.59-.35-.41-.23-.72-.56-.95-.98-.23-.42-.38-.92-.45-1.5-.08-.58-.12-1.22-.14-1.9v-.91c0-.41,0-.88.01-1.4,0-.52.01-1.09.01-1.7s0-1.22-.03-1.84c-.02-.58-.12-.98-.3-1.17-.18-.2-.58-.3-1.17-.3-.3,0-.59.01-.86.04-.27.02-.55.05-.84.09.17.7.25,1.45.24,2.25,0,.8-.08,1.61-.22,2.43-.14.82-.35,1.62-.62,2.4-.28.78-.6,1.5-.98,2.15s-.78,1.21-1.22,1.69c-.44.48-.91.81-1.41,1.01.05-.43.09-1.05.11-1.84.02-.79.04-1.67.05-2.65,0-.98,0-2-.01-3.07-.02-1.08-.05-2.11-.09-3.11-.04-1-.1-1.92-.16-2.76s-.14-1.51-.22-2.01c.95-.08,1.74.05,2.38.39.63.34,1.14.82,1.52,1.44.63-.4,1.33-.71,2.08-.93.75-.22,1.5-.32,2.25-.32.7,0,1.27.09,1.7.26.43.18.77.43,1.01.75.24.33.4.73.49,1.2.08.48.12,1.01.12,1.61,0,1.43,0,2.66.01,3.68,0,1.02.04,1.87.09,2.55.05.68.12,1.23.21,1.62.09.4.22.7.39.89.17.19.38.31.64.36.26.05.58.07.96.05Z"/>
    <path class="cls-7" d="M107.27,38.86c-.68.1-1.3.19-1.86.26-.56.07-1.13.13-1.71.17-.58.04-1.22.07-1.92.09-.7.02-1.53.03-2.48.03.12,1.07.7,1.86,1.74,2.38s2.65.67,4.81.45c-.28.38-.65.71-1.1.99-.45.27-.93.5-1.45.66-.52.17-1.05.28-1.59.35-.54.07-1.05.08-1.54.05-.8-.05-1.57-.24-2.3-.58-.73-.33-1.38-.81-1.93-1.44-.55-.62-.99-1.4-1.31-2.31-.32-.92-.48-1.98-.46-3.17.02-1.23.22-2.32.6-3.25.38-.93.88-1.71,1.49-2.33.61-.62,1.28-1.08,2.03-1.39.74-.31,1.48-.46,2.21-.46,1.08,0,2.06.16,2.94.48.88.32,1.61.85,2.21,1.59.6.74,1.04,1.72,1.34,2.94.29,1.22.39,2.72.29,4.5ZM100.92,31.94c-.35,0-.65.08-.91.25-.26.17-.47.45-.64.84-.17.39-.29.91-.36,1.56-.07.65-.1,1.46-.09,2.42.27.02.75.02,1.45.01.7,0,1.61-.03,2.72-.06.05-.83.02-1.57-.09-2.2-.11-.63-.26-1.16-.46-1.57s-.44-.73-.73-.94-.58-.31-.9-.31Z"/>
    <path class="cls-7" d="M118.99,34.91c0-.25-.08-.52-.25-.81-.17-.29-.39-.56-.66-.81s-.61-.46-1-.62-.81-.25-1.26-.25c-.18,0-.37.01-.56.04-.19.03-.38.08-.55.16-.17.08-.33.2-.45.34-.12.14-.2.33-.24.56-.05.3.03.59.25.86.22.27.53.53.95.76.33.18.66.37.97.55.32.18.58.32.8.42.73.37,1.35.73,1.85,1.08s.9.71,1.2,1.09c.3.38.52.77.65,1.17.13.41.2.85.2,1.31,0,.58-.12,1.12-.36,1.6-.24.48-.59.9-1.05,1.26-.46.36-1.02.64-1.69.84-.67.2-1.42.3-2.27.3-1,0-1.91-.13-2.74-.4-.83-.27-1.47-.64-1.95-1.11s-.74-1.04-.8-1.69.18-1.37.71-2.15c.12.45.32.84.6,1.16.28.33.62.58,1,.78.38.19.8.32,1.25.39.45.07.91.08,1.38.02.43-.05.82-.2,1.17-.44.35-.24.52-.53.52-.86,0-.27-.04-.49-.12-.66-.08-.17-.23-.35-.45-.51s-.52-.35-.91-.54c-.39-.19-.89-.44-1.49-.74-.83-.42-1.5-.83-1.99-1.25-.49-.42-.87-.82-1.12-1.22-.26-.4-.42-.8-.5-1.21-.08-.41-.11-.81-.11-1.21,0-.5.13-.97.39-1.41.26-.44.62-.82,1.09-1.15.47-.32,1.01-.59,1.64-.79.62-.2,1.3-.32,2.04-.35.93-.03,1.79.1,2.56.4.77.3,1.37.7,1.79,1.21.42.51.61,1.1.57,1.79-.03.68-.38,1.38-1.05,2.1Z"/>
    <path class="cls-7" d="M132.69,34.91c0-.25-.08-.52-.25-.81-.17-.29-.39-.56-.66-.81-.28-.25-.61-.46-1-.62-.39-.17-.81-.25-1.26-.25-.18,0-.37.01-.56.04-.19.03-.38.08-.55.16-.18.08-.33.2-.45.34-.12.14-.2.33-.24.56-.05.3.03.59.25.86.22.27.53.53.95.76.33.18.66.37.97.55.32.18.58.32.8.42.73.37,1.35.73,1.85,1.08s.9.71,1.2,1.09.52.77.65,1.17c.13.41.2.85.2,1.31,0,.58-.12,1.12-.36,1.6-.24.48-.59.9-1.05,1.26s-1.02.64-1.69.84-1.42.3-2.27.3c-1,0-1.91-.13-2.74-.4-.82-.27-1.47-.64-1.95-1.11-.48-.48-.74-1.04-.8-1.69s.18-1.37.71-2.15c.12.45.32.84.6,1.16.28.33.62.58,1,.78s.8.32,1.25.39c.45.07.91.08,1.38.02.43-.05.83-.2,1.18-.44.35-.24.52-.53.52-.86,0-.27-.04-.49-.12-.66-.08-.17-.23-.35-.45-.51s-.52-.35-.91-.54c-.39-.19-.89-.44-1.49-.74-.83-.42-1.5-.83-1.99-1.25-.49-.42-.87-.82-1.12-1.22-.26-.4-.43-.8-.5-1.21-.08-.41-.11-.81-.11-1.21,0-.5.13-.97.39-1.41.26-.44.62-.82,1.09-1.15.47-.32,1.01-.59,1.64-.79.62-.2,1.3-.32,2.04-.35.93-.03,1.79.1,2.56.4.78.3,1.37.7,1.79,1.21.42.51.61,1.1.58,1.79-.03.68-.38,1.38-1.05,2.1Z"/>
  </g>
  <g>
    <path class="cls-1" d="M17.14,156.84c0-.34.29-.63.63-.63s.63.29.63.63v6.2c0,.34-.29.63-.63.63s-.63-.29-.63-.63v-6.2Z"/>
    <path class="cls-1" d="M22.47,163.58c-1.83,0-3.12-1.36-3.12-3.03s1.29-3.03,3.12-3.03h.72c1.16,0,1.92.81,1.92,1.82s-.77,1.82-1.92,1.82h-1.16c-.33,0-.61-.27-.61-.61s.27-.61.61-.61h1.16c.41,0,.69-.27.69-.61s-.27-.61-.69-.61h-.72c-1.1,0-1.89.82-1.89,1.82s.79,1.82,1.89,1.82h1.75c.33,0,.61.27.61.61s-.27.61-.61.61h-1.75Z"/>
    <path class="cls-1" d="M29,163.58c-1.83,0-3.12-1.36-3.12-3.03s1.29-3.03,3.12-3.03h1.41v-1.9c0-.34.27-.62.62-.62s.62.27.62.62v7.35c0,.34-.27.62-.62.62h-2.03ZM30.41,158.73h-1.41c-1.1,0-1.89.82-1.89,1.82s.79,1.82,1.89,1.82h1.41v-3.64Z"/>
    <path class="cls-1" d="M35.71,163.58c-1.83,0-3.12-1.36-3.12-3.03s1.29-3.03,3.12-3.03h.72c1.16,0,1.92.81,1.92,1.82s-.77,1.82-1.92,1.82h-1.16c-.33,0-.61-.27-.61-.61s.27-.61.61-.61h1.16c.41,0,.69-.27.69-.61s-.27-.61-.69-.61h-.72c-1.1,0-1.89.82-1.89,1.82s.79,1.82,1.89,1.82h1.75c.33,0,.61.27.61.61s-.27.61-.61.61h-1.75Z"/>
    <path class="cls-1" d="M43.94,159.89c0,.34-.27.62-.62.62s-.62-.27-.62-.61v-.08c0-.61-.45-1.09-1.09-1.09h-1.09v4.33c0,.34-.27.62-.62.62s-.62-.27-.62-.62v-4.92c0-.34.27-.62.62-.62h1.71c1.3,0,2.32,1.04,2.32,2.3v.07Z"/>
    <path class="cls-1" d="M47.73,163.58c-1.83,0-3.12-1.36-3.12-3.03s1.29-3.03,3.12-3.03h.72c1.16,0,1.92.81,1.92,1.82s-.77,1.82-1.92,1.82h-1.16c-.33,0-.61-.27-.61-.61s.27-.61.61-.61h1.16c.41,0,.69-.27.69-.61s-.27-.61-.69-.61h-.72c-1.1,0-1.89.82-1.89,1.82s.79,1.82,1.89,1.82h1.75c.33,0,.61.27.61.61s-.27.61-.61.61h-1.75Z"/>
    <path class="cls-1" d="M54.26,163.58c-1.83,0-3.12-1.36-3.12-3.03s1.29-3.03,3.12-3.03h.72c1.16,0,1.92.81,1.92,1.82s-.77,1.82-1.92,1.82h-1.16c-.33,0-.61-.27-.61-.61s.27-.61.61-.61h1.16c.41,0,.69-.27.69-.61s-.27-.61-.69-.61h-.72c-1.1,0-1.89.82-1.89,1.82s.79,1.82,1.89,1.82h1.75c.33,0,.61.27.61.61s-.27.61-.61.61h-1.75Z"/>
    <path class="cls-1" d="M61.82,159.92c0-.65-.54-1.19-1.19-1.19h-1.56v4.33c0,.34-.27.62-.62.62s-.62-.27-.62-.62v-4.92c0-.34.28-.62.62-.62h2.17c1.34,0,2.43,1.09,2.43,2.43v3.11c0,.34-.27.62-.62.62s-.62-.27-.62-.62v-3.14Z"/>
    <path class="cls-1" d="M66.82,155.62c0-.34.27-.62.62-.62s.62.27.62.62v7.44c0,.34-.27.62-.62.62s-.62-.27-.62-.62v-7.44Z"/>
    <path class="cls-1" d="M72.12,163.58c-1.83,0-3.12-1.36-3.12-3.03s1.29-3.03,3.12-3.03h.72c1.16,0,1.92.81,1.92,1.82s-.77,1.82-1.92,1.82h-1.16c-.33,0-.61-.27-.61-.61s.27-.61.61-.61h1.16c.41,0,.69-.27.69-.61s-.27-.61-.69-.61h-.72c-1.1,0-1.89.82-1.89,1.82s.79,1.82,1.89,1.82h1.75c.33,0,.61.27.61.61s-.27.61-.61.61h-1.75Z"/>
    <path class="cls-1" d="M75.31,158.3c-.14-.31,0-.68.31-.81.31-.15.67,0,.81.31l1.79,4.12,1.79-4.12c.14-.31.5-.46.81-.31.31.14.45.5.31.81l-2.22,4.94c-.11.26-.35.45-.69.45s-.57-.18-.69-.45l-2.22-4.94Z"/>
    <path class="cls-1" d="M84.69,163.58c-1.83,0-3.12-1.36-3.12-3.03s1.29-3.03,3.12-3.03h.72c1.16,0,1.92.81,1.92,1.82s-.77,1.82-1.92,1.82h-1.16c-.33,0-.61-.27-.61-.61s.28-.61.61-.61h1.16c.41,0,.69-.27.69-.61s-.27-.61-.69-.61h-.72c-1.1,0-1.89.82-1.89,1.82s.79,1.82,1.89,1.82h1.75c.33,0,.61.27.61.61s-.27.61-.61.61h-1.75Z"/>
    <path class="cls-1" d="M92.92,159.89c0,.34-.27.62-.62.62s-.62-.27-.62-.61v-.08c0-.61-.45-1.09-1.09-1.09h-1.09v4.33c0,.34-.27.62-.62.62s-.62-.27-.62-.62v-4.92c0-.34.27-.62.62-.62h1.71c1.3,0,2.32,1.04,2.32,2.3v.07Z"/>
    <path class="cls-1" d="M96.67,163.58c-1.18,0-2.14-.96-2.14-2.14v-2.71h-.72c-.33,0-.61-.27-.61-.61s.27-.61.61-.61h.72v-1.21c0-.34.27-.62.62-.62s.62.27.62.62v1.21h1.59c.33,0,.61.27.61.61s-.27.61-.61.61h-1.59v2.72c0,.51.39.91.91.91h.68c.33,0,.61.27.61.61s-.27.61-.61.61h-.69Z"/>
    <path class="cls-1" d="M101.72,163.58c-.33,0-.61-.26-.61-.6,0-.14.06-.31.18-.46l3.12-3.8h-2.6c-.33,0-.61-.27-.61-.61s.27-.61.61-.61h3.85c.33,0,.59.26.59.6,0,.15-.06.31-.18.46l-3.12,3.8h2.59c.33,0,.61.27.61.61s-.27.61-.61.61h-3.82Z"/>
    <path class="cls-1" d="M107.91,156.51c-.42,0-.77-.33-.77-.75s.34-.76.77-.76.77.33.77.76-.34.75-.77.75ZM107.29,158.04c0-.34.27-.62.62-.62s.62.27.62.62v5.01c0,.34-.27.62-.62.62s-.62-.27-.62-.62v-5.01Z"/>
    <path class="cls-1" d="M108.1,166.01c-.33,0-.61-.27-.61-.61s.27-.61.61-.61h.24c1.03,0,1.42-.54,1.42-1.56v-5.2c0-.34.27-.62.62-.62s.62.27.62.62v5.18c0,1.71-.87,2.78-2.64,2.78h-.25ZM110.38,156.51c-.42,0-.77-.33-.77-.75s.34-.76.77-.76.77.33.77.76-.34.75-.77.75Z"/>
    <path class="cls-1" d="M116.22,159.92c0-.65-.54-1.19-1.19-1.19h-1.56v4.33c0,.34-.27.62-.62.62s-.62-.27-.62-.62v-4.92c0-.34.27-.62.62-.62h2.17c1.34,0,2.43,1.09,2.43,2.43v3.11c0,.34-.27.62-.62.62s-.62-.27-.62-.62v-3.14Z"/>
    <path class="cls-1" d="M124.04,163.58c-1.83,0-3.12-1.36-3.12-3.03s1.29-3.03,3.12-3.03h1.41v-1.9c0-.34.27-.62.62-.62s.62.27.62.62v7.35c0,.34-.27.62-.62.62h-2.02ZM125.44,158.73h-1.41c-1.1,0-1.89.82-1.89,1.82s.79,1.82,1.89,1.82h1.41v-3.64Z"/>
    <path class="cls-1" d="M130.75,163.58c-1.83,0-3.12-1.36-3.12-3.03s1.29-3.03,3.12-3.03h.72c1.16,0,1.92.81,1.92,1.82s-.77,1.82-1.92,1.82h-1.16c-.33,0-.61-.27-.61-.61s.27-.61.61-.61h1.16c.41,0,.69-.27.69-.61s-.27-.61-.69-.61h-.72c-1.1,0-1.89.82-1.89,1.82s.79,1.82,1.89,1.82h1.75c.33,0,.61.27.61.61s-.27.61-.61.61h-1.75Z"/>
    <path class="cls-1" d="M135.57,160.66v2.39c0,.34-.27.62-.62.62s-.62-.27-.62-.62v-7.44c0-.34.27-.62.62-.62s.62.27.62.62v4.82l2.83-2.83c.24-.24.62-.24.86,0,.23.24.23.62,0,.86l-2.08,2.08,2.08,2.08c.24.24.23.62,0,.86-.24.24-.62.24-.86,0l-2.83-2.83Z"/>
    <path class="cls-1" d="M17.75,179.8c-.34,0-.62-.27-.62-.62v-7.35c0-.34.27-.62.62-.62s.62.27.62.62v1.9h1.41c1.83,0,3.12,1.36,3.12,3.03s-1.29,3.03-3.12,3.03h-2.03ZM19.77,178.59c1.1,0,1.89-.82,1.89-1.82s-.79-1.82-1.89-1.82h-1.41v3.64h1.41Z"/>
    <path class="cls-1" d="M24.46,172.73c-.42,0-.77-.33-.77-.75s.34-.76.77-.76.77.33.77.76-.34.75-.77.75ZM23.84,174.26c0-.34.27-.62.62-.62s.62.27.62.62v5.01c0,.34-.27.62-.62.62s-.62-.27-.62-.62v-5.01Z"/>
    <path class="cls-1" d="M24.65,182.23c-.33,0-.61-.27-.61-.61s.27-.61.61-.61h.24c1.03,0,1.42-.54,1.42-1.56v-5.2c0-.34.27-.62.62-.62s.62.27.62.62v5.18c0,1.71-.87,2.78-2.64,2.78h-.25ZM26.93,172.73c-.42,0-.77-.33-.77-.75s.34-.76.77-.76.77.33.77.76-.34.75-.77.75Z"/>
    <path class="cls-1" d="M29.64,182.23c-.33,0-.61-.27-.61-.61s.27-.61.61-.61h.24c1.03,0,1.42-.54,1.42-1.56v-5.2c0-.34.27-.62.62-.62s.62.27.62.62v5.18c0,1.71-.87,2.78-2.64,2.78h-.25ZM31.92,172.73c-.42,0-.77-.33-.77-.75s.34-.76.77-.76.77.33.77.76-.34.75-.77.75Z"/>
    <path class="cls-1" d="M36.69,179.95c-1.89,0-3.22-1.42-3.22-3.18s1.33-3.18,3.22-3.18,3.22,1.42,3.22,3.18-1.34,3.18-3.22,3.18ZM36.69,174.79c-1.14,0-1.98.89-1.98,1.98s.84,1.98,1.98,1.98,1.98-.89,1.98-1.98-.84-1.98-1.98-1.98Z"/>
    <path class="cls-1" d="M44.86,174.26c0-.34.27-.62.62-.62s.62.27.62.62v3.07c0,1.44-1.18,2.62-2.62,2.62s-2.62-1.18-2.62-2.62v-3.07c0-.34.27-.62.62-.62s.62.27.62.62v3.1c0,.76.63,1.38,1.38,1.38s1.38-.63,1.38-1.38v-3.1Z"/>
    <path class="cls-1" d="M50.47,172.73c-.42,0-.77-.33-.77-.75s.34-.76.77-.76.77.33.77.76-.34.75-.77.75ZM49.85,174.26c0-.34.27-.62.62-.62s.62.27.62.62v5.01c0,.34-.27.62-.62.62s-.62-.27-.62-.62v-5.01Z"/>
    <path class="cls-1" d="M56.3,176.14c0-.65-.54-1.19-1.19-1.19h-1.56v4.33c0,.34-.27.62-.62.62s-.62-.27-.62-.62v-4.92c0-.34.27-.62.62-.62h2.17c1.34,0,2.43,1.09,2.43,2.43v3.11c0,.34-.28.62-.62.62s-.62-.27-.62-.62v-3.14Z"/>
    <path class="cls-1" d="M58.94,181.5c-.15.3-.5.41-.8.27-.3-.15-.42-.51-.29-.8l1.08-2.25c.15-.31.51-.41.81-.27.3.15.43.53.27.81l-1.08,2.24Z"/>
    <path class="cls-1" d="M65.19,179.8c-1.11,0-1.88-.85-1.88-1.88s.77-1.88,1.88-1.88h1.16c.33,0,.61.27.61.61s-.28.61-.61.61h-1.16c-.38,0-.64.32-.64.66s.26.66.64.66h2.22v-2.56c0-.61-.42-1.08-1.05-1.08h-1.95c-.33,0-.61-.27-.61-.61s.27-.61.61-.61h1.95c1.28,0,2.29,1.02,2.29,2.28v3.17c0,.34-.22.62-.62.62h-2.84Z"/>
    <path class="cls-1" d="M69.88,171.84c0-.34.28-.62.62-.62s.62.27.62.62v7.44c0,.34-.27.62-.62.62s-.62-.27-.62-.62v-7.44Z"/>
    <path class="cls-1" d="M72.36,171.84c0-.34.28-.62.62-.62s.62.27.62.62v7.44c0,.34-.27.62-.62.62s-.62-.27-.62-.62v-7.44Z"/>
    <path class="cls-1" d="M77.66,179.8c-1.83,0-3.12-1.36-3.12-3.03s1.29-3.03,3.12-3.03h.72c1.16,0,1.92.81,1.92,1.82s-.77,1.82-1.92,1.82h-1.16c-.33,0-.61-.27-.61-.61s.27-.61.61-.61h1.16c.41,0,.69-.27.69-.61s-.27-.61-.69-.61h-.72c-1.1,0-1.89.82-1.89,1.82s.79,1.82,1.89,1.82h1.75c.33,0,.61.27.61.61s-.27.61-.61.61h-1.75Z"/>
    <path class="cls-1" d="M81.72,179.8c-.33,0-.61-.27-.61-.61s.27-.61.61-.61h2.56c.41,0,.69-.27.69-.61s-.27-.61-.69-.61h-1.42c-1.16,0-1.92-.81-1.92-1.82s.77-1.82,1.92-1.82h2.56c.33,0,.61.27.61.61s-.27.61-.61.61h-2.56c-.41,0-.69.27-.69.61s.27.61.69.61h1.42c1.16,0,1.92.81,1.92,1.82s-.77,1.82-1.92,1.82h-2.56Z"/>
    <path class="cls-1" d="M96.67,174.26c0-.34.27-.62.62-.62s.62.27.62.62v3.36c0,1.28-1.04,2.32-2.32,2.32-.72,0-1.37-.33-1.8-.85-.42.51-1.08.85-1.8.85-1.28,0-2.32-1.04-2.32-2.32v-3.36c0-.34.27-.62.62-.62s.62.27.62.62v3.39c0,.62.51,1.13,1.13,1.13s1.13-.52,1.13-1.13v-3.39c0-.34.27-.62.62-.62s.62.27.62.62v3.39c0,.62.51,1.13,1.13,1.13s1.13-.52,1.13-1.13v-3.39Z"/>
    <path class="cls-1" d="M102.06,179.95c-1.89,0-3.22-1.42-3.22-3.18s1.33-3.18,3.22-3.18,3.22,1.42,3.22,3.18-1.34,3.18-3.22,3.18ZM102.06,174.79c-1.14,0-1.98.89-1.98,1.98s.84,1.98,1.98,1.98,1.98-.89,1.98-1.98-.84-1.98-1.98-1.98Z"/>
    <path class="cls-1" d="M110.87,176.11c0,.34-.27.62-.62.62s-.62-.27-.62-.61v-.08c0-.61-.45-1.09-1.09-1.09h-1.09v4.33c0,.34-.27.62-.62.62s-.62-.27-.62-.62v-4.92c0-.34.27-.62.62-.62h1.71c1.3,0,2.32,1.04,2.32,2.3v.07Z"/>
    <path class="cls-1" d="M114.66,179.8c-1.83,0-3.12-1.36-3.12-3.03s1.29-3.03,3.12-3.03h1.41v-1.9c0-.34.27-.62.62-.62s.62.27.62.62v7.35c0,.34-.27.62-.62.62h-2.02ZM116.07,174.95h-1.41c-1.1,0-1.89.82-1.89,1.82s.79,1.82,1.89,1.82h1.41v-3.64Z"/>
    <path class="cls-1" d="M121.51,179.8c-1.18,0-2.14-.96-2.14-2.14v-2.71h-.72c-.33,0-.61-.27-.61-.61s.27-.61.61-.61h.72v-1.21c0-.34.27-.62.62-.62s.62.27.62.62v1.21h1.59c.33,0,.61.27.61.61s-.27.61-.61.61h-1.59v2.72c0,.51.39.91.91.91h.68c.33,0,.61.27.61.61s-.27.61-.61.61h-.69Z"/>
    <path class="cls-1" d="M18.26,198.45c-.33,0-.61-.27-.61-.61s.27-.61.61-.61h2.17c.52,0,.93-.41.93-.93v-.29h-1.41c-1.83,0-3.12-1.36-3.12-3.03s1.29-3.03,3.12-3.03h2.03c.34,0,.62.27.62.62v5.73c0,1.18-.96,2.14-2.14,2.14h-2.2ZM21.36,191.17h-1.41c-1.1,0-1.89.82-1.89,1.82s.79,1.82,1.89,1.82h1.41v-3.64Z"/>
    <path class="cls-1" d="M26.66,196.02c-1.83,0-3.12-1.36-3.12-3.03s1.29-3.03,3.12-3.03h.72c1.16,0,1.92.81,1.92,1.82s-.77,1.82-1.92,1.82h-1.16c-.33,0-.61-.27-.61-.61s.27-.61.61-.61h1.16c.41,0,.69-.27.69-.61s-.27-.61-.69-.61h-.72c-1.1,0-1.89.82-1.89,1.82s.79,1.82,1.89,1.82h1.75c.33,0,.61.27.61.61s-.27.61-.61.61h-1.75Z"/>
    <path class="cls-1" d="M30.73,196.02c-.33,0-.61-.27-.61-.61s.27-.61.61-.61h2.56c.41,0,.69-.27.69-.61s-.27-.61-.69-.61h-1.42c-1.16,0-1.92-.81-1.92-1.82s.77-1.82,1.92-1.82h2.56c.33,0,.61.27.61.61s-.27.61-.61.61h-2.56c-.41,0-.69.27-.69.61s.27.61.69.61h1.42c1.16,0,1.92.81,1.92,1.82s-.77,1.82-1.92,1.82h-2.56Z"/>
    <path class="cls-1" d="M38.98,196.02c-1.83,0-3.12-1.36-3.12-3.03s1.29-3.03,3.12-3.03h1.26c.33,0,.61.27.61.61s-.27.61-.61.61h-1.26c-1.1,0-1.89.82-1.89,1.82s.79,1.82,1.89,1.82h1.26c.33,0,.61.27.61.61s-.27.61-.61.61h-1.26Z"/>
    <path class="cls-1" d="M45.75,192.36c0-.65-.54-1.19-1.19-1.19h-1.56v4.33c0,.34-.27.62-.62.62s-.62-.27-.62-.62v-7.44c0-.34.28-.62.62-.62s.62.27.62.62v1.9h1.56c1.34,0,2.43,1.09,2.43,2.43v3.11c0,.34-.27.62-.62.62s-.62-.27-.62-.62v-3.14Z"/>
    <path class="cls-1" d="M52.23,190.48c0-.34.27-.62.62-.62s.62.27.62.62v3.07c0,1.44-1.18,2.62-2.62,2.62s-2.62-1.18-2.62-2.62v-3.07c0-.34.27-.62.62-.62s.62.27.62.62v3.1c0,.76.63,1.38,1.38,1.38s1.38-.63,1.38-1.38v-3.1Z"/>
    <path class="cls-1" d="M57.53,196.02c-1.83,0-3.12-1.36-3.12-3.03s1.29-3.03,3.12-3.03h1.41v-1.9c0-.34.27-.62.62-.62s.62.27.62.62v7.35c0,.34-.27.62-.62.62h-2.03ZM58.94,191.17h-1.41c-1.1,0-1.89.82-1.89,1.82s.79,1.82,1.89,1.82h1.41v-3.64Z"/>
    <path class="cls-1" d="M61.57,197.71c-.15.3-.5.41-.8.27-.3-.15-.42-.51-.29-.8l1.08-2.25c.15-.31.52-.41.81-.27.3.15.44.53.27.81l-1.08,2.24Z"/>
    <path class="cls-1" d="M69.05,196.02c-1.83,0-3.12-1.36-3.12-3.03s1.29-3.03,3.12-3.03h1.41v-1.9c0-.34.27-.62.62-.62s.62.27.62.62v7.35c0,.34-.27.62-.62.62h-2.03ZM70.46,191.17h-1.41c-1.1,0-1.89.82-1.89,1.82s.79,1.82,1.89,1.82h1.41v-3.64Z"/>
    <path class="cls-1" d="M74.53,196.02c-1.11,0-1.88-.85-1.88-1.88s.77-1.88,1.88-1.88h1.16c.33,0,.61.27.61.61s-.27.61-.61.61h-1.16c-.38,0-.64.32-.64.66s.26.66.64.66h2.22v-2.56c0-.61-.42-1.08-1.05-1.08h-1.95c-.33,0-.61-.27-.61-.61s.27-.61.61-.61h1.95c1.28,0,2.29,1.02,2.29,2.28v3.17c0,.34-.22.62-.62.62h-2.84Z"/>
    <path class="cls-1" d="M80.83,196.02c-1.11,0-1.88-.85-1.88-1.88s.77-1.88,1.88-1.88h1.16c.33,0,.61.27.61.61s-.28.61-.61.61h-1.16c-.38,0-.64.32-.64.66s.26.66.64.66h2.22v-2.56c0-.61-.42-1.08-1.05-1.08h-1.95c-.33,0-.61-.27-.61-.61s.27-.61.61-.61h1.95c1.28,0,2.29,1.02,2.29,2.28v3.17c0,.34-.22.62-.62.62h-2.84Z"/>
    <path class="cls-1" d="M90.17,192.32c0,.34-.27.62-.62.62s-.62-.27-.62-.61v-.08c0-.61-.45-1.09-1.09-1.09h-1.09v4.33c0,.34-.27.62-.62.62s-.62-.27-.62-.62v-4.92c0-.34.28-.62.62-.62h1.71c1.3,0,2.32,1.04,2.32,2.3v.07Z"/>
    <path class="cls-1" d="M95.12,192.36c0-.65-.54-1.19-1.19-1.19h-1.56v4.33c0,.34-.27.62-.62.62s-.62-.27-.62-.62v-4.92c0-.34.27-.62.62-.62h2.17c1.34,0,2.43,1.09,2.43,2.43v3.11c0,.34-.27.62-.62.62s-.62-.27-.62-.62v-3.14Z"/>
    <path class="cls-1" d="M99.19,196.02c-1.11,0-1.88-.85-1.88-1.88s.77-1.88,1.88-1.88h1.16c.33,0,.61.27.61.61s-.27.61-.61.61h-1.16c-.38,0-.64.32-.64.66s.26.66.64.66h2.22v-2.56c0-.61-.42-1.08-1.05-1.08h-1.95c-.33,0-.61-.27-.61-.61s.27-.61.61-.61h1.95c1.28,0,2.29,1.02,2.29,2.28v3.17c0,.34-.22.62-.62.62h-2.84Z"/>
    <path class="cls-1" d="M24.13,206.7c0-.34.27-.62.62-.62s.62.27.62.62v3.36c0,1.28-1.04,2.32-2.32,2.32-.72,0-1.37-.33-1.8-.85-.42.51-1.08.85-1.8.85-1.28,0-2.32-1.04-2.32-2.32v-3.36c0-.34.27-.62.62-.62s.62.27.62.62v3.39c0,.62.51,1.13,1.13,1.13s1.13-.52,1.13-1.13v-3.39c0-.34.27-.62.62-.62s.62.27.62.62v3.39c0,.62.51,1.13,1.13,1.13s1.13-.52,1.13-1.13v-3.39Z"/>
    <path class="cls-1" d="M29.53,212.39c-1.89,0-3.22-1.42-3.22-3.18s1.33-3.18,3.22-3.18,3.21,1.42,3.21,3.18-1.34,3.18-3.21,3.18ZM29.53,207.23c-1.14,0-1.98.89-1.98,1.98s.84,1.98,1.98,1.98,1.98-.89,1.98-1.98-.83-1.98-1.98-1.98Z"/>
    <path class="cls-1" d="M38.33,208.54c0,.34-.28.62-.62.62s-.62-.27-.62-.61v-.08c0-.61-.45-1.09-1.09-1.09h-1.09v4.33c0,.34-.27.62-.62.62s-.62-.27-.62-.62v-4.92c0-.34.27-.62.62-.62h1.71c1.3,0,2.32,1.04,2.32,2.3v.07Z"/>
    <path class="cls-1" d="M42.12,212.24c-1.83,0-3.12-1.36-3.12-3.03s1.29-3.03,3.12-3.03h1.41v-1.9c0-.34.27-.62.62-.62s.62.27.62.62v7.35c0,.34-.27.62-.62.62h-2.03ZM43.53,207.39h-1.41c-1.1,0-1.89.82-1.89,1.82s.79,1.82,1.89,1.82h1.41v-3.64Z"/>
    <path class="cls-1" d="M48.83,212.24c-1.83,0-3.12-1.36-3.12-3.03s1.29-3.03,3.12-3.03h.72c1.16,0,1.92.81,1.92,1.82s-.77,1.82-1.92,1.82h-1.16c-.33,0-.61-.27-.61-.61s.27-.61.61-.61h1.16c.41,0,.69-.27.69-.61s-.27-.61-.69-.61h-.72c-1.1,0-1.89.82-1.89,1.82s.79,1.82,1.89,1.82h1.75c.33,0,.61.27.61.61s-.27.61-.61.61h-1.75Z"/>
    <path class="cls-1" d="M56.4,208.58c0-.65-.54-1.19-1.19-1.19h-1.56v4.33c0,.34-.27.62-.62.62s-.62-.27-.62-.62v-4.92c0-.34.27-.62.62-.62h2.17c1.34,0,2.43,1.09,2.43,2.43v3.11c0,.34-.27.62-.62.62s-.62-.27-.62-.62v-3.14Z"/>
    <path class="cls-1" d="M62.99,212.24c-1.11,0-1.88-.85-1.88-1.88s.77-1.88,1.88-1.88h1.16c.33,0,.61.27.61.61s-.27.61-.61.61h-1.16c-.38,0-.64.32-.64.66s.26.66.64.66h2.22v-2.56c0-.61-.42-1.08-1.05-1.08h-1.95c-.33,0-.61-.27-.61-.61s.27-.61.61-.61h1.95c1.28,0,2.29,1.02,2.29,2.28v3.17c0,.34-.22.62-.62.62h-2.84Z"/>
    <path class="cls-1" d="M67.69,204.28c0-.34.27-.62.62-.62s.62.27.62.62v7.44c0,.34-.27.62-.62.62s-.62-.27-.62-.62v-7.44Z"/>
    <path class="cls-1" d="M70.16,204.28c0-.34.27-.62.62-.62s.62.27.62.62v7.44c0,.34-.27.62-.62.62s-.62-.27-.62-.62v-7.44Z"/>
    <path class="cls-1" d="M75.46,212.24c-1.83,0-3.12-1.36-3.12-3.03s1.29-3.03,3.12-3.03h.72c1.16,0,1.92.81,1.92,1.82s-.77,1.82-1.92,1.82h-1.16c-.33,0-.61-.27-.61-.61s.27-.61.61-.61h1.16c.41,0,.69-.27.69-.61s-.27-.61-.69-.61h-.72c-1.1,0-1.89.82-1.89,1.82s.79,1.82,1.89,1.82h1.75c.33,0,.61.27.61.61s-.27.61-.61.61h-1.75Z"/>
    <path class="cls-1" d="M82.8,209.32v2.39c0,.34-.27.62-.62.62s-.62-.27-.62-.62v-7.44c0-.34.28-.62.62-.62s.62.27.62.62v4.82l2.83-2.83c.24-.24.62-.24.86,0,.23.24.23.62,0,.86l-2.08,2.08,2.08,2.08c.24.24.23.62,0,.86-.24.24-.62.24-.86,0l-2.83-2.83Z"/>
    <path class="cls-1" d="M89.05,212.24c-1.11,0-1.88-.85-1.88-1.88s.77-1.88,1.88-1.88h1.16c.33,0,.61.27.61.61s-.27.61-.61.61h-1.16c-.38,0-.64.32-.64.66s.26.66.64.66h2.22v-2.56c0-.61-.42-1.08-1.05-1.08h-1.95c-.33,0-.61-.27-.61-.61s.27-.61.61-.61h1.95c1.28,0,2.29,1.02,2.29,2.28v3.17c0,.34-.22.62-.62.62h-2.84Z"/>
    <path class="cls-1" d="M95.35,212.24c-1.11,0-1.88-.85-1.88-1.88s.77-1.88,1.88-1.88h1.16c.33,0,.61.27.61.61s-.27.61-.61.61h-1.16c-.38,0-.64.32-.64.66s.26.66.64.66h2.22v-2.56c0-.61-.42-1.08-1.05-1.08h-1.95c-.33,0-.61-.27-.61-.61s.27-.61.61-.61h1.95c1.28,0,2.29,1.02,2.29,2.28v3.17c0,.34-.22.62-.62.62h-2.84Z"/>
    <path class="cls-1" d="M104.69,208.54c0,.34-.27.62-.62.62s-.62-.27-.62-.61v-.08c0-.61-.45-1.09-1.09-1.09h-1.09v4.33c0,.34-.27.62-.62.62s-.62-.27-.62-.62v-4.92c0-.34.27-.62.62-.62h1.71c1.3,0,2.32,1.04,2.32,2.3v.07Z"/>
    <path class="cls-1" d="M108.44,212.24c-1.18,0-2.14-.96-2.14-2.14v-2.71h-.72c-.33,0-.61-.27-.61-.61s.27-.61.61-.61h.72v-1.21c0-.34.27-.62.62-.62s.62.27.62.62v1.21h1.59c.33,0,.61.27.61.61s-.27.61-.61.61h-1.59v2.72c0,.51.39.91.91.91h.68c.33,0,.61.27.61.61s-.27.61-.61.61h-.69Z"/>
    <path class="cls-1" d="M113.24,212.24c-1.83,0-3.12-1.36-3.12-3.03s1.29-3.03,3.12-3.03h.72c1.16,0,1.92.81,1.92,1.82s-.77,1.82-1.92,1.82h-1.16c-.33,0-.61-.27-.61-.61s.27-.61.61-.61h1.16c.41,0,.69-.27.69-.61s-.27-.61-.69-.61h-.72c-1.1,0-1.89.82-1.89,1.82s.79,1.82,1.89,1.82h1.75c.33,0,.61.27.61.61s-.27.61-.61.61h-1.75Z"/>
    <path class="cls-1" d="M120.81,208.58c0-.65-.54-1.19-1.19-1.19h-1.56v4.33c0,.34-.27.62-.62.62s-.62-.27-.62-.62v-4.92c0-.34.27-.62.62-.62h2.17c1.34,0,2.43,1.09,2.43,2.43v3.11c0,.34-.27.62-.62.62s-.62-.27-.62-.62v-3.14Z"/>
    <path class="cls-1" d="M19.95,228.46c-1.83,0-3.12-1.36-3.12-3.03s1.29-3.03,3.12-3.03h.72c1.16,0,1.92.81,1.92,1.82s-.77,1.82-1.92,1.82h-1.16c-.33,0-.61-.27-.61-.61s.27-.61.61-.61h1.16c.41,0,.69-.27.69-.61s-.27-.61-.69-.61h-.72c-1.1,0-1.89.82-1.89,1.82s.79,1.82,1.89,1.82h1.75c.33,0,.61.27.61.61s-.27.61-.61.61h-1.75Z"/>
    <path class="cls-1" d="M26.48,228.46c-1.83,0-3.12-1.36-3.12-3.03s1.29-3.03,3.12-3.03h.72c1.16,0,1.92.81,1.92,1.82s-.77,1.82-1.92,1.82h-1.16c-.33,0-.61-.27-.61-.61s.27-.61.61-.61h1.16c.41,0,.69-.27.69-.61s-.27-.61-.69-.61h-.72c-1.1,0-1.89.82-1.89,1.82s.79,1.82,1.89,1.82h1.75c.33,0,.61.27.61.61s-.27.61-.61.61h-1.75Z"/>
    <path class="cls-1" d="M34.71,224.76c0,.34-.27.62-.62.62s-.62-.27-.62-.61v-.08c0-.61-.45-1.09-1.09-1.09h-1.09v4.33c0,.34-.27.62-.62.62s-.62-.27-.62-.62v-4.92c0-.34.28-.62.62-.62h1.71c1.3,0,2.32,1.04,2.32,2.3v.07Z"/>
    <path class="cls-1" d="M35.68,220.5c0-.34.27-.62.62-.62s.62.27.62.62v7.44c0,.34-.27.62-.62.62s-.62-.27-.62-.62v-7.44Z"/>
    <path class="cls-1" d="M38.77,221.39c-.42,0-.77-.33-.77-.75s.34-.76.77-.76.77.33.77.76-.34.75-.77.75ZM38.15,222.92c0-.34.27-.62.62-.62s.62.27.62.62v5.01c0,.34-.27.62-.62.62s-.62-.27-.62-.62v-5.01Z"/>
    <path class="cls-1" d="M38.96,230.89c-.33,0-.61-.27-.61-.61s.27-.61.61-.61h.24c1.03,0,1.42-.54,1.42-1.56v-5.2c0-.34.27-.62.62-.62s.62.27.62.62v5.18c0,1.71-.87,2.78-2.64,2.78h-.25ZM41.24,221.39c-.42,0-.77-.33-.77-.75s.34-.76.77-.76.77.33.77.76-.34.75-.77.75Z"/>
    <path class="cls-1" d="M44.33,225.54v2.39c0,.34-.27.62-.62.62s-.62-.27-.62-.62v-7.44c0-.34.27-.62.62-.62s.62.27.62.62v4.82l2.83-2.83c.24-.24.62-.24.86,0,.23.24.23.62,0,.86l-2.08,2.08,2.08,2.08c.24.24.23.62,0,.86-.24.24-.62.24-.86,0l-2.83-2.83Z"/>
    <path class="cls-1" d="M51.11,223.17c-.14-.31,0-.68.31-.81.31-.15.68,0,.81.31l1.79,4.12,1.79-4.12c.14-.31.5-.46.81-.31.31.14.45.5.31.81l-2.22,4.94c-.12.26-.36.45-.69.45s-.57-.18-.69-.45l-2.22-4.94Z"/>
    <path class="cls-1" d="M60.48,228.46c-1.83,0-3.12-1.36-3.12-3.03s1.29-3.03,3.12-3.03h.72c1.16,0,1.92.81,1.92,1.82s-.77,1.82-1.92,1.82h-1.16c-.33,0-.61-.27-.61-.61s.27-.61.61-.61h1.16c.41,0,.69-.27.69-.61s-.27-.61-.69-.61h-.72c-1.1,0-1.89.82-1.89,1.82s.79,1.82,1.89,1.82h1.75c.33,0,.61.27.61.61s-.27.61-.61.61h-1.75Z"/>
    <path class="cls-1" d="M68.72,224.76c0,.34-.28.62-.62.62s-.62-.27-.62-.61v-.08c0-.61-.45-1.09-1.09-1.09h-1.09v4.33c0,.34-.27.62-.62.62s-.62-.27-.62-.62v-4.92c0-.34.27-.62.62-.62h1.71c1.3,0,2.32,1.04,2.32,2.3v.07Z"/>
    <path class="cls-1" d="M72.51,228.46c-1.83,0-3.12-1.36-3.12-3.03s1.29-3.03,3.12-3.03h1.41v-1.9c0-.34.27-.62.62-.62s.62.27.62.62v7.35c0,.34-.27.62-.62.62h-2.03ZM73.91,223.61h-1.41c-1.1,0-1.89.82-1.89,1.82s.79,1.82,1.89,1.82h1.41v-3.64Z"/>
    <path class="cls-1" d="M79.21,228.46c-1.83,0-3.12-1.36-3.12-3.03s1.29-3.03,3.12-3.03h.72c1.16,0,1.92.81,1.92,1.82s-.77,1.82-1.92,1.82h-1.16c-.33,0-.61-.27-.61-.61s.28-.61.61-.61h1.16c.41,0,.69-.27.69-.61s-.27-.61-.69-.61h-.72c-1.1,0-1.89.82-1.89,1.82s.79,1.82,1.89,1.82h1.75c.33,0,.61.27.61.61s-.27.61-.61.61h-1.75Z"/>
    <path class="cls-1" d="M85.74,228.46c-1.83,0-3.12-1.36-3.12-3.03s1.29-3.03,3.12-3.03h.72c1.16,0,1.92.81,1.92,1.82s-.77,1.82-1.92,1.82h-1.16c-.33,0-.61-.27-.61-.61s.28-.61.61-.61h1.16c.41,0,.69-.27.69-.61s-.27-.61-.69-.61h-.72c-1.1,0-1.89.82-1.89,1.82s.79,1.82,1.89,1.82h1.75c.33,0,.61.27.61.61s-.27.61-.61.61h-1.75Z"/>
    <path class="cls-1" d="M89.32,220.5c0-.34.27-.62.62-.62s.62.27.62.62v7.44c0,.34-.27.62-.62.62s-.62-.27-.62-.62v-7.44Z"/>
    <path class="cls-1" d="M94.62,228.46c-1.83,0-3.12-1.36-3.12-3.03s1.29-3.03,3.12-3.03h1.41v-1.9c0-.34.27-.62.62-.62s.62.27.62.62v7.35c0,.34-.27.62-.62.62h-2.02ZM96.03,223.61h-1.41c-1.1,0-1.89.82-1.89,1.82s.79,1.82,1.89,1.82h1.41v-3.64Z"/>
  </g>
</svg>