<?xml version="1.0" encoding="UTF-8"?>
<svg id="Laag_1" data-name="Laag 1" xmlns="http://www.w3.org/2000/svg" viewBox="0 0 395.02 471.1">
  <defs>
    <style>
      .cls-1 {
        fill: #000000;
      }
    </style>
  </defs>
  <path class="cls-1" d="m201.2,183.06l-51.63,123.49L21.57,6.85C19.08,1.23,12.83-1.27,6.59,1.23.97,3.73-1.53,9.97.97,16.21l136.11,319.05-51.2,120.5c-2.5,5.62,0,11.86,5.62,14.36,5.62,2.49,12.49,0,14.99-5.62l117.52-277.45"/>
  <path class="cls-1" d="m241.47,148.82l56.7-132.61c2.5-6.24,0-12.48-5.62-14.98-6.24-2.5-12.49,0-14.99,5.62l-59.58,139.52"/>
  <path class="cls-1" d="m187.98,331.18c-5.62,0-10.61-5-10.61-10.61s4.99-10.61,10.61-10.61h112.13c43.08,0,72.43-28.72,72.43-67.44s-29.35-66.18-72.43-66.18h-62.44c-55.57,0-94.9-37.47-94.9-87.41S182.11.26,237.68.26h16.24c5.62,0,10.61,4.99,10.61,10.61s-4.99,10.61-10.61,10.61h-16.24c-43.08,0-72.42,28.72-72.42,67.43s29.34,66.18,72.42,66.18h62.44c55.57,0,94.91,37.46,94.91,87.41s-39.34,88.66-94.91,88.66h-112.13Z"/>
  <rect class="cls-1" x="307.1" y="0" width="49.15" height="21.18" rx="10.59" ry="10.59"/>
</svg>