<?xml version="1.0" encoding="UTF-8"?>
<svg id="Laag_2" data-name="Laag 2" xmlns="http://www.w3.org/2000/svg" viewBox="0 0 372.42 96.66">
  <defs>
    <style>
      .cls-1 {
        stroke-width: 0px;
      }
    </style>
  </defs>
  <g id="Laag_1-2" data-name="Laag 1-2">
    <path class="cls-1" d="M134.11,48.36c.24-25.44,36.7-37.05,54.88-48.36C141.4,24.65,63.88,48.36,0,48.36c63.84,0,141.29,23.66,188.89,48.3-18.2-11.29-54.54-22.91-54.78-48.3Z"/>
    <path class="cls-1" d="M192.49,73.9c.17-.39.26-.79.26-1.21,0-2.09-1.97-3.44-4.93-3.44-3.65,0-8.01,1.64-11.92,1.64-4.73,0-7.79-2.48-7.79-6.2,0-2.63,1.38-4.57,3.41-5.99-.36.49-.54,1-.54,1.54,0,1.41,1.22,2.22,3.23,2.22,2.95,0,8.9-2.01,13.51-2.01,5,0,8,2.51,8,6.68,0,2.56-1.2,4.99-3.23,6.78h0ZM168.53,42.37c0-6.21,4.48-10.69,11.19-11.48-1.84,1.52-2.71,5.35-2.71,11.48s.87,9.96,2.71,11.48c-6.71-.79-11.19-5.27-11.19-11.48ZM186.76,42.37c0-6.13-.87-9.96-2.71-11.48,6.71.79,11.19,5.27,11.19,11.48s-4.48,10.69-11.19,11.48c1.84-1.52,2.71-5.35,2.71-11.48ZM194.45,30.18c-2.01,0-3.44-1.49-3.44-3.6,0-2.25,1.41-4.19,3.95-5.06,1.94.64,3.15,2.3,3.15,4.48,0,2.45-1.52,4.19-3.66,4.19h0Z"/>
    <path class="cls-1" d="M207.54,58.32c-4.28,0-6.89-2.87-6.89-7.58v-18.29c2.66-.06,5.65-.58,8.37-1.48v19.5c0,2.58,1.54,4.29,3.87,4.29,1,0,2.03-.37,2.98-1.02-2.29,2.98-5.17,4.57-8.33,4.57h0ZM224.98,58.32c-5.49,0-5.95-4.31-5.99-7.81v-18.12c2.66-.06,5.65-.58,8.37-1.48v20.93c0,2.48.93,3.87,2.7,3.87.39,0,.76-.07,1.11-.21-1.55,1.85-3.65,2.8-6.19,2.8h0v.02Z"/>
    <path class="cls-1" d="M240.61,58.32c-4.28,0-6.89-2.87-6.89-7.58v-18.29c2.66-.06,5.65-.58,8.37-1.48v19.5c0,2.58,1.54,4.29,3.87,4.29,1,0,2.03-.37,2.98-1.02-2.29,2.98-5.17,4.57-8.33,4.57h0ZM258.05,58.32c-5.49,0-5.94-4.31-5.98-7.81v-18.12c2.66-.06,5.65-.58,8.37-1.48v20.93c0,2.48.93,3.87,2.7,3.87.39,0,.76-.07,1.11-.21-1.55,1.85-3.64,2.8-6.19,2.8h0v.02Z"/>
    <path class="cls-1" d="M275.23,58.27c3.22-.37,5.61-2.55,5.61-5.41,0-6.88-13.99-6.14-13.99-14.36,0-4.8,4.46-7.74,11.71-7.74.37,0,.73,0,1.08.02-2.58.58-4.26,2.23-4.26,4.43,0,6.54,14.68,6.43,14.68,14.94,0,5.02-5.09,8.16-13.46,8.16-.47,0-.92-.02-1.37-.05h0ZM282.54,36.01c0-1.58.84-3.13,2.79-4.36,2.49.83,3.83,2.23,3.83,4.1,0,2.02-1.54,3.6-3.5,3.6-1.79,0-3.13-1.42-3.13-3.34h.01Z"/>
    <path class="cls-1" d="M301.46,58.32c-5.84,0-5.99-4.88-5.99-8.42v-28.04c2.66-.06,5.65-.58,8.37-1.48v31.53c0,2.56.98,3.87,2.97,3.87.47,0,.89-.07,1.28-.22-1.63,1.81-3.89,2.76-6.64,2.76h.01Z"/>
    <path class="cls-1" d="M319.64,58.32c-6.03,0-9.96-4.62-9.96-11.76,0-8.55,6.16-15.15,14.31-15.75-3,1.72-4.88,7.2-4.88,14.58,0,6.51,1.81,10.07,5.3,10.07.91,0,1.74-.28,2.46-.8-1.69,2.43-4.13,3.66-7.23,3.66h0ZM335.48,58.32c-3.97,0-5.77-2.09-5.96-6.88-.02-.45-.02-1.21-.02-1.54v-15.37c0-1.47-.3-2.57-.9-3.28.75.25,1.42.59,2.17,1.13,2.47-.19,4.8-.65,7.1-1.4v20.93c0,2.48.93,3.87,2.7,3.87.39,0,.75-.07,1.09-.2-1.55,1.81-3.63,2.75-6.18,2.75h0Z"/>
    <path class="cls-1" d="M344.23,21.85c2.66-.06,5.65-.58,8.37-1.48v34.18c0,1.47.3,2.57.9,3.28-.75-.25-1.42-.59-2.04-1.03l-.35-.1c-2.27.19-4.67.67-6.88,1.4V21.85h0ZM362.99,43.69c0-6.51-1.81-10.07-5.3-10.07-.91,0-1.74.28-2.46.8,1.68-2.43,4.12-3.66,7.23-3.66,6.04,0,9.96,4.63,9.96,11.76,0,8.55-6.16,15.15-14.31,15.75,3-1.72,4.88-7.2,4.88-14.58h0Z"/>
  </g>
</svg>