<?xml version="1.0" encoding="UTF-8"?>
<svg id="Laag_2" data-name="Laag 2" xmlns="http://www.w3.org/2000/svg" viewBox="0 0 76.56 91.18">
  <defs>
    <style>
      .cls-1 {
        fill: #de2b65;
      }

      .cls-1, .cls-2 {
        stroke: #1d1d1b;
        stroke-linecap: round;
        stroke-linejoin: round;
        stroke-width: 3.72px;
      }

      .cls-2 {
        fill: #fff;
      }
    </style>
  </defs>
  <g id="Laag_1-2" data-name="Laag 1">
    <g>
      <path class="cls-1" d="m1.86,33.37c0-10.26,2.53-19.94,7-28.43,7.8,3.61,16.48,5.63,25.65,5.63,11.5,0,22.27-3.18,31.46-8.71,5.55,9.2,8.74,19.99,8.74,31.52,0,24.98-14.97,46.45-36.42,55.95C16.82,79.83,1.86,58.35,1.86,33.37Z"/>
      <g>
        <path class="cls-2" d="m55.5,52.26c0,3.41-1.39,6.51-3.64,8.75-2.25,2.25-5.35,3.64-8.75,3.64h-9.62c-6.62,0-12.07-5.25-12.38-11.8,0-.2-.01-.4-.01-.6v-9.04c0-2.27,1.74-4.2,4-4.34.93-.05,1.81.2,2.53.66v-11.5c0-2.24,1.7-4.16,3.93-4.32.93-.07,1.69.16,2.42.6.32-2.03,2.2-3.58,4.32-3.58,1.17,0,2.23.48,3.01,1.25.64.64,1.06,1.39,1.19,2.33.67-.44,1.49-.62,2.34-.62,1.17,0,2.23.48,3.01,1.25.7.7,1.11,1.53,1.19,2.57.64-.38,1.43-.49,2.22-.49,1.17,0,2.23.48,3.01,1.25s1.25,1.84,1.25,3.01v18.13"/>
        <line class="cls-2" x1="33.98" y1="40.98" x2="33.98" y2="24.32"/>
        <line class="cls-2" x1="42.49" y1="40.98" x2="42.49" y2="24.32"/>
        <line class="cls-2" x1="49.02" y1="40.98" x2="49.02" y2="27.53"/>
        <line class="cls-2" x1="55.5" y1="49.18" x2="55.5" y2="52.26"/>
        <line class="cls-2" x1="27.63" y1="49.73" x2="27.63" y2="39.56"/>
      </g>
    </g>
  </g>
</svg>