<?xml version="1.0" encoding="UTF-8"?>
<svg id="Laag_2" data-name="Laag 2" xmlns="http://www.w3.org/2000/svg" viewBox="0 0 78.44 66.16">
  <defs>
    <style>
      .cls-1, .cls-2, .cls-3 {
        stroke-width: 3.25px;
      }

      .cls-1, .cls-2, .cls-3, .cls-4 {
        stroke-linecap: round;
        stroke-linejoin: round;
      }

      .cls-1, .cls-2, .cls-4 {
        stroke: #1d1d1b;
      }

      .cls-1, .cls-4, .cls-5 {
        fill: #fff;
      }

      .cls-2, .cls-3 {
        fill: #f7f7f7;
      }

      .cls-3 {
        stroke: #000;
      }

      .cls-4 {
        stroke-width: 3.39px;
      }

      .cls-6 {
        fill: #1d1d1b;
      }

      .cls-6, .cls-5 {
        stroke-width: 0px;
      }
    </style>
  </defs>
  <g id="Laag_1-2" data-name="Laag 1">
    <g>
      <g>
        <path class="cls-1" d="m63.83,52.56c1.32-1.12,2.69-2.17,4.04-3.25.94-.75,1.98-1.45,2.72-2.4,2.29-2.96-1.18-4.78-3.82-4.94-1.15-.07-1.35-1.74-.34-2.18,2.25-1,5.83-2.22,5.83-5.21,0-1.6-1.32-2.65-2.67-3.24-1.07-.47-2.92-1.03-4.08-.51-1.37.52-2.28-1.49-.93-2.09,3.31-1.27,4.04-4.6,2.72-7.68-1.06-2.48-3.61-5.01-6.4-3.41-1.28.73-2.19-1.36-.93-2.09,1.86-1.07,3.75-.88,5.38,0,.02-.01.03-.03.06-.04.14-.06.28-.12.42-.19.11-.4.41-.72.89-.77.39-.04.78-.1,1.16-.17.25-.12.5-.24.74-.36.11-.28.31-.51.6-.64,1.21-.54,2.4-1.13,3.61-1.68,1.48-.96,2.84-2.07,3.99-3.4.03-1.06-.18-2.08-.75-3.13-1.7-3.17-5.62-4.41-8.91-2.95l-16.86,7.51c.21-1.37,0-2.81-.69-4.14-1.67-3.23-5.65-4.52-8.97-3.04l-13.25,5.9c-.29.13-.58.27-.87.41-9.39,4.73-13.53,16.15-9.21,25.85l6.28,14.1c2.23,5,6.29,8.63,11.05,10.46s10.21,1.85,15.21-.38l13.67-6.09c.1-.09.2-.18.3-.26Z"/>
        <path class="cls-3" d="m64.4,14.62c3.3-1.47,6.59-2.94,9.89-4.4"/>
        <path class="cls-3" d="m52.35,19.99l6.52-2.9"/>
        <path class="cls-3" d="m62.17,42.05l3.26-1.45"/>
        <line class="cls-2" x1="54.37" y1="56.9" x2="49.85" y2="58.91"/>
        <line class="cls-2" x1="35.36" y1="16.39" x2="50.28" y2="9.75"/>
        <path class="cls-5" d="m60.86,10.12c-1.38.96-2.86,1.77-4.41,2.43-.31.13-.62.58-.69.9-.08.34-.06.66.08.98.28.66,1.05,1.1,1.77.87,1.65-.53,3.3-1.05,4.94-1.58.75-.24,1.3-1.05,1.05-1.85-.24-.75-1.04-1.3-1.85-1.05-1.65.53-3.3,1.05-4.94,1.58l1.16,2.74c1.55-.66,3.03-1.47,4.41-2.43.33-.23.58-.5.69-.9.1-.36.05-.84-.15-1.16-.41-.64-1.36-1.02-2.05-.54h0Z"/>
        <path class="cls-5" d="m62.25,9.7c-1.4,1.39-3.07,2.24-4.82,3.13-1.93.97-3.87,1.94-5.8,2.91-.72.36-.93,1.39-.54,2.05.43.74,1.33.9,2.05.54,2-1,3.99-2,5.99-3s3.71-1.98,5.24-3.5c.58-.57.57-1.55,0-2.12s-1.54-.57-2.12,0h0Z"/>
        <path class="cls-5" d="m58.47,22.17c.35-.23.71-.46,1.08-.66.05-.03.61-.28.61-.3,0,.04-.35.13,0,0,.09-.03.18-.06.27-.09s.19-.05.28-.07c.06-.01.13-.03.19-.04-.24.03-.3.04-.19.02.17-.01.33-.02.5-.01.05,0,.1,0,.15.01l-.25-.03c.08,0,.19.03.26.05.09.02.17.05.26.08.25.07-.33-.16-.08-.04.13.07.25.16.38.23-.35-.18-.17-.13-.05-.02.03.03.05.05.08.08.1.12.07.07-.1-.13.02.06.09.14.12.19.13.22-.08-.3-.02-.04.01.05.09.43.05.15s0,.1,0,.16c0,.13-.09.36.02-.04-.02.09-.03.18-.06.27s-.05.18-.08.27c-.02.06-.04.12-.06.18-.06.15-.04.12.04-.09-.06.01-.21.44-.25.52-.11.2-.22.39-.34.58-.41.67-.17,1.68.54,2.05s1.61.18,2.05-.54c.6-.98,1.15-2.11,1.13-3.29-.01-1.27-.7-2.44-1.81-3.06-1.01-.56-2.18-.67-3.3-.42s-2.04.83-2.95,1.42c-.66.43-.99,1.35-.54,2.05.42.66,1.35.99,2.05.54h0Z"/>
        <path class="cls-5" d="m62.45,36.07l1.64-.97c.25-.15.5-.3.76-.45.13-.08.27-.16.4-.23.04-.02.39-.19.22-.12-.1.04-.08.04.06-.02.08-.03.16-.05.25-.06-.26.04-.02.03.11.03-.34-.02.03.03.1.05.32.08-.15-.1.12.04.26.14.5.28.75.44.12.08.24.17.37.25.25.17-.18-.19.06.04.06.06.28.32.06.03.15.21-.02-.12-.03-.22,0,.17,0,.16.01-.05l-.03.11c.08-.17.07-.18,0-.03-.03.05-.07.11-.1.16-.06.09-.05.07.04-.05-.05.06-.11.13-.17.19-.08.09-.17.18-.26.27-.18.17-.36.34-.55.5-.09.08-.19.16-.29.24.27-.22-.09.06-.14.1-.22.15-.44.3-.67.44-.21.13-.43.24-.65.35-.11.05-.22.11-.34.16-.16.07-.15.07.02,0-.08.03-.15.06-.23.09l1.16,2.74c1.28-.67,2.53-1.38,3.74-2.16.64-.41,1.26-.88,1.63-1.57.44-.82.42-1.75.07-2.6-1.35-3.19-5.89-2.5-8.37-1.29-.71.35-.95,1.41-.54,2.05.47.72,1.3.91,2.05.54.12-.06.25-.12.37-.17-.28.12.09-.03.15-.05.26-.09.52-.17.79-.23.13-.03.27-.05.4-.08.35-.08-.19,0,.14-.02.27-.02.54-.04.82-.04.13,0,.25,0,.38.01.08,0,.16.01.24.02l-.16-.02c.21-.01.51.11.7.19-.33-.12,0,.02.07.06.28.13-.11-.16.06.04.05.05.1.11.15.16l-.1-.13c.04.06.08.13.11.19-.07-.18-.08-.21-.05-.11.02.05.03.1.05.16-.02-.2-.02-.25-.02-.13,0,.05,0,.11,0,.16.04-.2.04-.25.01-.13-.03.1-.01.07.06-.1-.02.05-.05.1-.09.15-.06.09-.04.07.06-.08-.04.04-.08.08-.12.12-.04.04-.09.08-.13.12.13-.1.16-.12.07-.05-.1.06-.19.13-.29.2-.24.15-.48.3-.72.45-1,.62-2.02,1.2-3.07,1.74-.66.35-.89,1.22-.61,1.87s1.07,1.14,1.77.87c1.41-.54,2.68-1.29,3.81-2.3.55-.49,1.1-1.06,1.42-1.73.49-1.03.39-2.14-.36-3.02-.46-.54-1.15-.98-1.77-1.32-.86-.48-1.77-.73-2.75-.57-.79.13-1.47.58-2.15.97l-2.02,1.19c-.68.4-.98,1.37-.54,2.05s1.33.97,2.05.54h0Z"/>
        <path class="cls-5" d="m65.06,36.81c-.85.54-1.73,1.03-2.64,1.48-.21.1-.42.2-.64.3-.12.06-.24.11-.37.17-.09.04-.5.25-.1.05-.44.23-.94.38-1.41.55-.74.26-1.31,1.03-1.05,1.85.23.73,1.05,1.33,1.85,1.05,2.05-.73,4.03-1.67,5.87-2.84.66-.42.99-1.36.54-2.05s-1.34-.99-2.05-.54h0Z"/>
        <path class="cls-5" d="m64.75,45.93c1.31-.72,2.8-1.2,4.26-1.31.35-.03.73-.07,1.08-.02-.12-.02-.13-.02-.02,0,.1.03.1.02-.02-.01-.29-.18-.41-.39-.37-.64.01-.07,0-.01-.05.17-.13.23,0,.04-.12.26-.08.15-.17.29-.27.43-.07.1-.42.46-.62.64-.99.87-2.65,1.4-3.99,1.9-1.73.64-3.46,1.29-5.18,1.93-.7.26-1.19.87-1.07,1.65.1.69.72,1.35,1.47,1.3,3.99-.27,7.78-1.97,10.57-4.85,1.34-1.39-.78-3.51-2.12-2.12-2.24,2.32-5.31,3.76-8.45,3.97l.4,2.95c2.13-.79,4.26-1.58,6.39-2.38s4-1.68,5.25-3.53c.66-.97,1.12-2.31.52-3.42s-1.79-1.29-2.89-1.25c-2.2.08-4.34.69-6.26,1.75-1.69.93-.18,3.52,1.51,2.59h0Z"/>
        <path class="cls-5" d="m56.47,17.03c3.84-2.59,8.59-2.87,12.82-4.54,1.85-.73,4.24-1.72,5.14-3.63.99-2.13-.74-4.51-3.06-4.03l1.16,2.74c-.3.14-.13,0-.2.18-.08.21-.13.4-.28.59-.3.4-.74.69-1.15.96-.96.63-1.97,1.18-3,1.67-2.15,1.01-4.44,1.72-6.72,2.39-4.49,1.32-9.07,2.5-13.15,4.88-1.48.87-.49,3.15,1.16,2.74,5.54-1.36,10.93-3.23,16.15-5.53,1.54-.68.44-3.31-1.16-2.74-5.15,1.81-10.13,4.07-15.09,6.33-1.53.7-.44,3.32,1.16,2.74,6.12-2.23,12.08-4.87,17.83-7.91,1.71-.9.19-3.49-1.51-2.59-5.53,2.93-11.24,5.47-17.12,7.61l1.16,2.74c4.73-2.16,9.47-4.3,14.38-6.03l-1.16-2.74c-4.98,2.2-10.15,3.93-15.43,5.23l1.16,2.74c5.52-3.22,11.97-4.04,17.84-6.4,2.52-1.01,6.06-2.36,7.46-4.87s-.94-5.96-3.83-4.58c-1.61.77-.42,3.07,1.16,2.74-.22-.2-.38-.22-.48-.06l-.21.26c-.31.18-.59.46-.9.65-.66.4-1.36.75-2.08,1.04-1.51.61-3.1,1.02-4.68,1.43-3.07.8-6.19,1.61-8.86,3.41-1.59,1.07-.09,3.67,1.51,2.59h0Z"/>
        <path class="cls-6" d="m60.84,55.83c1.7-.75,3.41-1.5,5.11-2.25s3.38-1.34,4.85-2.36c2.29-1.58,4.48-4.26,4.54-7.17s-2.47-4.73-5.21-5c-3.18-.31-6.56.82-9.3,2.35-1.71.96-.21,3.39,1.51,2.59s3.43-1.59,5.15-2.39c1.3-.6,2.61-1.18,3.75-2.05,2.63-2,2.81-4.73,1.57-7.64-2.85-6.65-10.9-3.11-15.55-.83-1.53.75-.46,3.24,1.16,2.74,2.96-.92,5.93-2.22,7.94-4.67,1.84-2.25,2.75-5.28,1.69-8.09s-3.72-4.5-6.75-4.32c-3.41.21-6.1,2.31-9.24,3.36l.8,2.89c5.94-2.34,11.88-4.67,17.81-7.03,2.55-1.02,4.49-2.38,6.14-4.61,1.46-1.97,1.38-4.7-1.12-5.7-1.79-.72-2.57,2.18-.8,2.89-.02,0-.25.66-.33.81-.2.36-.5.67-.77.98-.66.76-1.35,1.45-2.22,1.95-1.94,1.11-4.22,1.78-6.29,2.6-4.4,1.74-8.81,3.48-13.21,5.22-1.75.69-1.07,3.52.8,2.89,3.14-1.05,10.16-6.19,12.31-1.12,2.04,4.8-3.93,7.93-7.54,9.05l1.16,2.74c3.09-1.51,9.59-5.05,11.45-.23.38.98.71,2.05.03,2.96-.54.72-1.41,1.2-2.19,1.61-2.34,1.23-4.82,2.26-7.22,3.38l1.51,2.59c2.09-1.17,4.49-1.98,6.9-1.98,2.18,0,3.74,1.16,2.73,3.43s-3.01,3.54-5.13,4.49c-2.5,1.12-5.02,2.21-7.53,3.31-1.76.77-.24,3.36,1.51,2.59h0Z"/>
        <path class="cls-5" d="m71.8,7.52l.2.4c.23.46.8.74,1.3.74.53,0,1.03-.29,1.3-.74.08-.14.16-.28.24-.42l-2.05.54s.04.03.06.04l-.3-.23c.06.05.1.1.15.15l-.23-.3c.05.07.09.14.12.21l-.15-.36c.04.1.07.2.08.31l-.05-.4c.01.12.01.25,0,.37l.05-.4c-.02.14-.05.27-.11.39l.15-.36c-.06.14-.14.27-.24.39l.23-.3c-.16.21-.36.38-.57.54l.3-.23c-.16.13-.33.24-.51.36-.33.22-.58.51-.69.9-.1.36-.05.84.15,1.16s.51.6.9.69.82.07,1.16-.15c.38-.26.77-.53,1.11-.85.42-.4.71-.87.91-1.41.09-.25.12-.54.14-.8s-.02-.54-.08-.8c-.02-.07-.04-.14-.07-.2-.07-.17-.13-.35-.23-.5-.22-.35-.46-.57-.8-.8-.17-.11-.36-.17-.56-.18-.2-.04-.4-.04-.6.03-.37.12-.7.34-.9.69-.08.14-.16.28-.24.42h2.59l-.2-.4c-.16-.32-.56-.6-.9-.69-.36-.1-.84-.05-1.16.15s-.6.51-.69.9l-.05.4c0,.27.07.52.2.76h0Z"/>
        <path class="cls-5" d="m74.75,8.01c.1-.34.15-.71.11-1.06-.03-.24-.05-.48-.12-.71s-.16-.45-.27-.66c-.15-.31-.38-.61-.63-.84-.17-.16-.35-.3-.54-.42-.2-.13-.44-.22-.66-.3-.2-.06-.4-.07-.6-.03-.2,0-.39.07-.56.18-.31.18-.61.54-.69.9-.09.38-.07.81.15,1.16l.23.3c.19.19.41.31.66.39.02,0,.04.01.05.02l-.36-.15c.13.06.24.12.35.21l-.3-.23c.12.1.23.21.33.33l-.23-.3c.1.13.18.28.25.43l-.15-.36c.06.15.11.31.13.48l-.05-.4c.02.15.02.29,0,.43l.05-.4c-.01.09-.03.17-.05.26-.11.37-.04.82.15,1.16.18.31.54.61.9.69.38.09.81.07,1.16-.15s.58-.51.69-.9h0Z"/>
        <path class="cls-5" d="m62.6,22.96c-.24.02-.3.03-.18.03.04,0,.09,0,.13,0-.05.02-.34-.08-.14-.01.04.01.08.02.12.04.11.04.06.02-.16-.07.01.03.16.09.19.11.14.08-.23-.23-.06-.04.05.06.16.25.06.05-.1-.22,0,.02.04.07.02.04.04.08.06.12.05.1.03.05-.06-.14,0,.03.05.16.06.2.1.31,0-.32,0,.01,0,.09.06.46-.01.52.06-.05.06-.32,0-.03-.02.09-.04.17-.06.26-.03.1-.07.2-.1.3-.09.27.1-.21.02-.05-.14.28-.29.53-.46.79-.1.15.21-.25.04-.05-.06.07-.12.14-.18.21-.1.11-.21.22-.33.32-.04.04-.25.21-.06.05s-.02.01-.07.04c-.12.08-.25.16-.39.23-.04.02-.08.04-.12.06-.1.05-.05.03.15-.06-.07,0-.15.06-.21.08-.16.05-.32.09-.48.12-.49.09-.94.57-1.05,1.05-.26,1.14.6,2.16,1.76,2.09.66-.04,1.27-.4,1.82-.74.91-.55,1.82-1.26,2.5-2.09.51-.61.85-1.23.94-2.03.07-.63-.12-1.3-.44-1.84-.68-1.15-1.89-1.7-3.11-2.07-.75-.23-1.67.27-1.85,1.05s.24,1.6,1.05,1.85c.17.05.34.1.51.16.02,0,.33.14.12.04s.07.03.11.05c.07.04.39.28.45.27-.15-.12-.18-.14-.1-.08.04.03.07.06.11.1.04.04.09.12.13.14-.12-.17-.15-.2-.09-.11.03.04.05.08.08.12.03.05.05.13.09.17-.08-.2-.1-.25-.07-.14.02.04.03.09.04.14.06.22-.04-.08-.02-.12,0,.05,0,.09,0,.14,0,.12,0,.06.02-.16-.02.02-.05.15-.05.18.09-.2.11-.24.05-.14-.02.04-.05.08-.07.13-.03.05-.2.27-.05.09s-.05.06-.07.07c-.05.06-.11.12-.17.18-.12.13-.25.25-.38.37s-.26.24-.4.35c-.05.04-.18.11-.21.17l.14-.1s-.08.06-.13.09c-.29.21-.58.4-.89.58-.15.09-.31.17-.47.25-.23.11-.09.02.06-.01.35-.09.84,0,1.07.31l.39.66v-.04c0,.27,0,.53,0,.8v-.05c-.34.35-.69.7-1.04,1.05,2.02-.39,3.59-2.08,4.22-3.98.36-1.1.36-2.47-.29-3.47-.32-.48-.74-.92-1.26-1.19-.67-.35-1.35-.42-2.08-.29s-1.28,1.13-1.05,1.85c.27.84,1.01,1.19,1.85,1.05h0Z"/>
        <path class="cls-5" d="m66.18,34.07c.09-.12.19-.22.31-.31l-.3.23c.13-.1.27-.18.42-.24l-.36.15c.16-.07.33-.11.5-.14l-.4.05c.17-.02.35-.02.52,0l-.4-.05c.16.02.31.06.46.12l-.36-.15c.14.06.26.13.38.22l-.3-.23c.12.09.22.2.31.31l-.23-.3c.1.13.18.27.24.42l-.15-.36c.07.16.11.33.14.5l-.05-.4c.02.17.02.35,0,.52l.05-.4c-.02.16-.06.31-.12.46l.15-.36c-.04.09-.08.17-.13.25-.2.32-.25.79-.15,1.16s.36.73.69.9c.74.39,1.61.17,2.05-.54.17-.27.3-.57.37-.87s.12-.63.1-.94c-.03-.62-.19-1.28-.55-1.79-.22-.32-.44-.56-.74-.8s-.59-.38-.97-.52c-.59-.21-1.28-.2-1.89-.06-.32.07-.65.21-.93.38s-.57.39-.78.66c-.15.14-.25.3-.31.48-.09.18-.14.37-.13.58,0,.37.16.81.44,1.06s.66.46,1.06.44c.37-.02.82-.13,1.06-.44h0Z"/>
        <path class="cls-5" d="m71.67,7.33c-.08.22-.17.44-.26.66l.15-.36c-.27.64-.58,1.26-.92,1.87-.26.47-.27,1.05,0,1.51.13.23.31.4.54.54.23.14.49.2.76.2.51-.05,1-.16,1.43-.45s.76-.62,1.04-1.06c.13-.21.23-.45.32-.68.05-.12.08-.25.1-.37.04-.24.09-.5.07-.75s-.05-.53-.13-.78c-.13-.37-.34-.69-.69-.9-.32-.19-.8-.27-1.16-.15s-.71.34-.9.69-.28.78-.15,1.16c.03.09.06.19.07.28l-.05-.4c.02.14.02.28,0,.42l.05-.4c-.02.15-.06.29-.12.44l.15-.36c-.06.15-.15.29-.25.42l.23-.3c-.09.12-.2.23-.32.32l.3-.23c-.11.08-.23.15-.36.21l.36-.15c-.11.04-.22.08-.34.09l.4-.05s-.04,0-.06,0l1.3,2.26c.52-.92.96-1.89,1.33-2.89.06-.2.07-.4.03-.6,0-.2-.07-.39-.18-.56-.18-.31-.54-.61-.9-.69-.38-.09-.81-.07-1.16.15l-.3.23c-.19.19-.31.41-.39.66h0Z"/>
        <path class="cls-5" d="m68.04,34.2s.07-.06.1-.09l-.3.23c.07-.05.14-.09.22-.13l-.36.15c.09-.04.19-.06.29-.08l-.4.05c.09-.01.18-.01.28,0l-.4-.05c.09.01.18.04.27.07l-.36-.15c.08.03.15.08.22.13l-.3-.23c.06.05.11.1.16.16l-.23-.3c.06.08.11.16.15.25l-.15-.36c.03.09.06.17.07.26l-.05-.4c.01.1.01.2,0,.29l.05-.4c-.01.08-.03.16-.06.24l.15-.36s-.02.04-.03.06c-.11.17-.17.36-.18.56-.04.2-.04.4.03.6l.15.36c.09.17.22.32.39.42.09.09.2.16.33.19.18.09.37.14.58.13l.4-.05c.25-.07.47-.2.66-.39.25-.31.38-.49.5-.88.05-.16.06-.36.08-.52,0-.05,0-.1,0-.15-.03-.41-.09-.63-.26-1-.09-.19-.23-.37-.39-.52-.28-.27-.67-.44-1.06-.44-.21,0-.4.04-.58.13-.19.06-.35.16-.48.31-.26.29-.46.66-.44,1.06s.15.78.44,1.06c.03.03.05.05.07.08l-.23-.3s.06.09.08.13l-.15-.36c.03.06.04.13.05.19l-.05-.4c0,.07,0,.13,0,.2l.05-.4c0,.06-.03.12-.05.17l.15-.36s-.05.09-.08.13l.23-.3v.02c.77.61,1.56,1.21,2.34,1.82.09-.2.2-.41.24-.63s.09-.46.06-.68-.04-.46-.12-.68c-.08-.2-.16-.43-.28-.61s-.25-.36-.42-.5c-.13-.11-.26-.22-.41-.31s-.32-.15-.48-.21c-.21-.08-.46-.1-.68-.12s-.46.03-.69.06-.46.15-.67.25c-.05.03-.1.06-.15.09-.15.1-.3.21-.43.34-.15.14-.25.3-.31.48-.09.18-.14.37-.13.58,0,.21.04.4.13.58.06.19.16.35.31.48.29.26.66.46,1.06.44s.77-.15,1.06-.44h0Z"/>
      </g>
      <rect class="cls-4" x="8.07" y="29.07" width="13.26" height="34.17" transform="translate(-17.5 9.97) rotate(-24)"/>
    </g>
  </g>
</svg>