<?xml version="1.0" encoding="UTF-8"?>
<svg id="Laag_2" data-name="Laag 2" xmlns="http://www.w3.org/2000/svg" viewBox="0 0 112.5 71.18">
  <defs>
    <style>
      .cls-1 {
        fill: #8082b8;
      }

      .cls-1, .cls-2, .cls-3, .cls-4, .cls-5 {
        stroke-width: 0px;
      }

      .cls-2 {
        fill: #1d1d1b;
      }

      .cls-3 {
        fill: #de2b65;
      }

      .cls-4 {
        fill: #8abb2a;
      }

      .cls-5 {
        fill: #eb7c19;
      }
    </style>
  </defs>
  <g id="Laag_1-2" data-name="Laag 1">
    <g>
      <g>
        <path class="cls-1" d="m28.91,68.66c-3.37,0-6.51-1.8-8.18-4.7L2.69,32.72c-2.59-4.5-1.05-10.26,3.45-12.86l14.18-8.19c1.42-.82,3.04-1.25,4.67-1.25,3.38,0,6.51,1.8,8.18,4.7l18.04,31.24c1.25,2.17,1.58,4.7.93,7.14-.65,2.44-2.21,4.47-4.37,5.72l-14.18,8.19c-1.42.82-3.04,1.25-4.68,1.25Z"/>
        <path class="cls-2" d="m24.99,11.86h0c2.86,0,5.52,1.53,6.94,3.98l18.04,31.24c1.06,1.83,1.34,3.98.78,6.05-.55,2.07-1.87,3.79-3.7,4.85l-14.18,8.19c-1.2.69-2.57,1.06-3.96,1.06-2.86,0-5.52-1.52-6.94-3.98L3.93,32c-1.06-1.83-1.34-3.98-.78-6.05.55-2.07,1.87-3.79,3.7-4.85l14.18-8.19c1.2-.69,2.57-1.06,3.96-1.06m0-2.87c-1.84,0-3.7.47-5.39,1.45l-14.18,8.19C.25,21.6-1.54,28.27,1.45,33.44l18.04,31.24c2,3.47,5.67,5.42,9.43,5.42,1.84,0,3.7-.47,5.39-1.45l14.18-8.19c5.17-2.98,6.96-9.65,3.97-14.82l-18.04-31.24c-2-3.47-5.67-5.42-9.43-5.42h0Z"/>
      </g>
      <g>
        <path class="cls-3" d="m42.68,59.34c-4.26,0-8.01-2.87-9.11-6.98l-9.34-34.84c-.65-2.42-.31-4.95.95-7.14,1.26-2.18,3.29-3.74,5.7-4.39l15.82-4.24c.79-.21,1.61-.32,2.42-.32,4.26,0,8.01,2.87,9.11,6.98l9.34,34.84c1.34,5.01-1.64,10.19-6.66,11.53l-15.82,4.24c-.79.21-1.61.32-2.42.32Z"/>
        <path class="cls-2" d="m49.13,2.87c3.61,0,6.79,2.43,7.72,5.91l9.34,34.84c1.14,4.25-1.39,8.63-5.64,9.77l-15.82,4.24c-.67.18-1.36.27-2.05.27-3.61,0-6.79-2.43-7.72-5.91l-9.34-34.84c-.55-2.05-.26-4.19.81-6.05,1.07-1.85,2.79-3.17,4.83-3.72l15.82-4.24c.67-.18,1.36-.27,2.05-.27M49.13,0c-.92,0-1.86.12-2.79.37l-15.82,4.24c-5.76,1.54-9.22,7.52-7.67,13.29l9.34,34.84c1.29,4.83,5.71,8.04,10.5,8.04.92,0,1.86-.12,2.79-.37l15.82-4.24c5.76-1.54,9.22-7.52,7.67-13.29l-9.34-34.84C58.33,3.21,53.92,0,49.13,0h0Z"/>
      </g>
      <g>
        <path class="cls-5" d="m68.08,59.34c-.81,0-1.63-.11-2.42-.32l-15.82-4.24c-5.01-1.34-8-6.52-6.66-11.53l9.34-34.84c1.1-4.11,4.85-6.98,9.11-6.98.81,0,1.63.11,2.42.32l15.82,4.24c2.42.65,4.44,2.21,5.7,4.39,1.26,2.19,1.6,4.72.95,7.14l-9.34,34.84c-1.1,4.11-4.85,6.98-9.11,6.98Z"/>
        <path class="cls-2" d="m61.63,2.87h0c.69,0,1.38.09,2.05.27l15.82,4.24c4.25,1.14,6.78,5.52,5.64,9.77l-9.34,34.84c-.93,3.48-4.11,5.91-7.72,5.91-.69,0-1.38-.09-2.05-.27l-15.82-4.24c-4.25-1.14-6.78-5.52-5.64-9.77l9.34-34.84c.93-3.48,4.11-5.91,7.72-5.91M61.63,0c-4.79,0-9.2,3.21-10.5,8.04l-9.34,34.84c-1.54,5.76,1.91,11.74,7.67,13.29l15.82,4.24c.93.25,1.87.37,2.79.37,4.79,0,9.2-3.21,10.5-8.04l9.34-34.84c1.54-5.76-1.91-11.74-7.67-13.29L64.42.37C63.49.12,62.55,0,61.63,0h0Z"/>
      </g>
      <g>
        <path class="cls-4" d="m83.59,69.75c-1.64,0-3.26-.43-4.68-1.25l-14.18-8.19c-4.5-2.6-6.04-8.36-3.45-12.86l18.04-31.24c1.67-2.9,4.81-4.7,8.18-4.7,1.64,0,3.26.43,4.68,1.25l14.18,8.19c4.5,2.6,6.04,8.36,3.45,12.86l-18.04,31.24c-1.67,2.9-4.81,4.7-8.18,4.7Z"/>
        <path class="cls-2" d="m87.5,12.95h0c1.39,0,2.76.37,3.96,1.06l14.18,8.19c1.83,1.06,3.15,2.78,3.7,4.85.55,2.07.27,4.21-.78,6.05l-18.04,31.24c-1.42,2.45-4.08,3.98-6.94,3.98-1.39,0-2.76-.37-3.96-1.06l-14.18-8.19c-1.83-1.06-3.15-2.78-3.7-4.85-.55-2.07-.27-4.21.78-6.05l18.04-31.24c1.42-2.45,4.08-3.98,6.94-3.98m0-2.87c-3.76,0-7.42,1.95-9.43,5.42l-18.04,31.24c-2.98,5.17-1.2,11.84,3.97,14.82l14.18,8.19c1.7.98,3.56,1.45,5.39,1.45,3.76,0,7.42-1.95,9.43-5.42l18.04-31.24c2.98-5.17,1.2-11.84-3.97-14.82l-14.18-8.19c-1.7-.98-3.56-1.45-5.39-1.45h0Z"/>
      </g>
    </g>
  </g>
</svg>