<?xml version="1.0" encoding="UTF-8"?>
<svg id="Laag_2" data-name="Laag 2" xmlns="http://www.w3.org/2000/svg" viewBox="0 0 126.64 80.49">
  <defs>
    <style>
      .cls-1, .cls-2 {
        stroke: #1d1d1b;
      }

      .cls-1, .cls-2, .cls-3 {
        stroke-miterlimit: 10;
        stroke-width: 5.17px;
      }

      .cls-1, .cls-4 {
        fill: #eb7c19;
      }

      .cls-2, .cls-5 {
        fill: #8082b8;
      }

      .cls-3 {
        fill: none;
        stroke: #000;
      }

      .cls-5, .cls-6, .cls-4 {
        stroke-width: 0px;
      }

      .cls-6 {
        fill: #fff;
      }
    </style>
  </defs>
  <g id="Laag_1-2" data-name="Laag 1">
    <g>
      <path class="cls-5" d="m13.36,49.68c4.08,3.07,8.16,6.14,12.23,9.21,3.37,2.54,6.72,5.44,10.76,6.85,4.35,1.52,8.63.88,13.12.66s8.35.25,12.52-1.56c3.72-1.62,7.61-2.48,11.35-4.14,4.26-1.89,8.73-1.45,13.07-2.92,1.98-.67,3.53-1.88,5.36-2.84,2.3-1.2,4.78-1.33,7.3-1.82,4.77-.93,9.26-2.6,13.67-4.62,2.1-.97,3.09-4.5,1.67-6.37-1.76-2.31-3.27-2.95-5.75-4.26s-4.3-3.78-6.65-5.45c-4.91-3.49-10.38-6.84-16.21-8.54s-11.2-.94-16.89.47c-2.91.72-5.67,1.68-8.34,3.05s-5.03,3.37-8.21,3.29l1.24,9.15c3.54-.78,6.23-2.29,9.03-4.54,3.54-2.84-.29-9.51-4.53-7.78-3.85,1.57-7.43,1.19-11.12,3.51s-7.22,2.63-11.62,3.21c-7.31.96-14.84,1.72-20.16,7.4-3.41,3.64.1,8.44,4.53,7.78,7.06-1.05,14.11-2.09,21.17-3.14l-3.59-8.51c-3.02,1.63-6.03,3.25-9.05,4.88-4.09,2.2-2.2,8.74,2.35,8.68,4.14-.06,8.29-.11,12.43-.17l-2.35-8.68c-1.88,1.26-3.73,2.29-5.87,3.06-4.65,1.67-4.34,9.43,1.24,9.15,2.99-.15,5.98-.3,8.97-.46l-2.35-8.68c-2.38,1.36-4.76,2.72-7.15,4.08-4.55,2.6-1.52,10,3.59,8.51,2.36-.68,4.48-.95,6.93-.89l-3.29-7.95c-1.06.87-2.12,1.73-3.17,2.6-3.87,3.17.4,8.67,4.53,7.78,2.49-.54,4.9-.8,7.44-.86l-3.29-7.95-1.61,1.63c-3.53,3.57.18,8.45,4.53,7.78,1.99-.31,3.9-.42,5.9-.47-.78-2.89-1.57-5.78-2.35-8.68-.58.54-1.24.95-1.98,1.24-4.67,2.34-1.42,10.24,3.59,8.51.83-.29,1.67-.58,2.5-.86,4.93-1.7,4.14-8.92-1.24-9.15-6.06-.26-13.27.47-19.15-1.01l2.78,2.14c-2.46-3.27-4.96-4.6-9.06-4.73l2.35,8.68c8.87-4.74,18.48-7.49,28.12-10.19,5.33-1.49,3.79-8.64-1.24-9.15s-10.01-.2-14.9,1.28c-5.83,1.76-3.35,9.99,2.48,8.98,7.12-1.24,14.19-2.73,21.2-4.48l-5.26-6.84c-2.69,4.64-9.11,6.67-13.19,9.99-4.22,3.43,1.17,9.77,5.64,7.31,2.54-1.4,5.1-2.64,7.81-3.68l-4.53-7.78c-1.88,1.73-3.39,3.63-4.72,5.81-1.93,3.17,1.38,8.48,5.26,6.84,2.94-1.24,5.89-2.18,9.07-2.54l-2.35-8.68c-3.19,1.67-6.43,3.11-9.81,4.34l2.48,8.98c3.91-1.62,7.8-3.26,12.07-3.54l-3.29-7.95c-1.42,1.39-2.84,2.77-4.26,4.16-3.16,3.08.05,9.47,4.53,7.78,3.16-1.19,6.14-2.57,9.03-4.33,3.99-2.43,2.26-8.54-2.35-8.68-8.79-.26-17.58-.22-26.37.12-6.12.24-5.84,8.64,0,9.31,6.41.74,12.81-.34,18.6-3.21,2.79-1.38,5.08-3.53,7.83-4.93,2.47-1.26,4.66-1.7,6.72-3.73,2.53-2.5,1.28-6.81-2.05-7.78-2.82-.83-5.58-1.23-8.52-1.29l4.02,7.01.63-.87-2.78,2.14c6.54-2.64,11.58,2.72,16.27,6.33,2.6,2,5.92-.31,6.84-2.78l.58-1.56-5.73,3.25-.19-.24,5.73-5.73c-7.8-1.36-14.77.49-20.86,5.54l7.95,3.29-.55.84c4.31-2.2,2.02-8.52-2.35-8.68-1.75-.06-3.49-.12-5.24-.18-5.99-.21-5.99,9.1,0,9.31,1.75.06,3.49.12,5.24.18-.78-2.89-1.57-5.78-2.35-8.68-2.75,1.4-4.34,4.09-4.06,7.2.38,4.17,4.74,5.95,7.95,3.29s7.56-3.89,11.8-3.15c3.23.56,6.97-2.06,5.73-5.73-1.11-3.26-3.03-5.21-6.32-6.26-2.55-.82-4.88.97-5.73,3.25l-.58,1.56,6.84-2.78c-4.36-3.36-8.13-7.26-13.81-7.81-4.96-.48-9.89-.81-13.05,3.55-2.17,2.99.78,6.94,4.02,7.01,2.14.05,3.98.35,6.04.96l-2.05-7.78c-1.35,1.34-3.82,1.71-5.47,2.65-1.98,1.14-3.72,2.65-5.72,3.77-4.77,2.68-10,3.33-15.38,2.71v9.31c8.79-.34,17.58-.38,26.37-.12l-2.35-8.68c-2.2,1.34-4.39,2.48-6.81,3.39l4.53,7.78,4.26-4.16c2.76-2.69.8-8.22-3.29-7.95-5.17.34-9.79,1.9-14.55,3.87-5.38,2.24-3.27,11.06,2.48,8.98,4.13-1.5,8.14-3.24,12.04-5.28s2.31-9.21-2.35-8.68c-4.07.47-7.76,1.28-11.55,2.88l5.26,6.84c.94-1.55,1.93-2.7,3.26-3.92,3.28-3.02-.13-9.48-4.53-7.78-3.46,1.33-6.79,2.83-10.03,4.62l5.64,7.31c5.1-4.15,11.16-5.88,14.64-11.88,2.07-3.57-1.35-7.81-5.26-6.84-7.02,1.75-14.08,3.24-21.2,4.48l2.48,8.98c4.18-1.26,8.1-1.38,12.42-.95l-1.24-9.15c-10.42,2.91-20.76,6-30.34,11.13-4.23,2.26-2.08,8.53,2.35,8.68,1.53.05,1.32.93,2.69,1.79,1.86,1.17,4.6,1.04,6.66,1.13,5.36.23,10.72.46,16.08.69l-1.24-9.15c-.83.29-1.67.58-2.5.86l3.59,8.51c.74-.29,1.4-.7,1.98-1.24,3.37-2.58,2.73-8.8-2.35-8.68-2.83.07-5.58.37-8.38.8l4.53,7.78,1.61-1.63c2.78-2.81.8-8.05-3.29-7.95-3.36.08-6.63.49-9.91,1.2l4.53,7.78,3.17-2.6c3.3-2.7.42-7.85-3.29-7.95-3.23-.09-6.3.32-9.41,1.22l3.59,8.51c2.38-1.36,4.76-2.72,7.15-4.08,3.9-2.22,2.33-8.91-2.35-8.68-2.99.15-5.98.3-8.97.46l1.24,9.15c2.88-1.04,5.54-2.29,8.09-4,3.68-2.47,2.5-8.74-2.35-8.68-4.14.06-8.29.11-12.43.17l2.35,8.68c3.02-1.63,6.03-3.25,9.05-4.88,5.01-2.7,1.27-9.23-3.59-8.51-7.06,1.05-14.11,2.09-21.17,3.14l4.53,7.78c4.76-5.08,13.97-4.66,20.37-5.57,3.07-.44,5.65-1.05,8.3-2.68,1.58-.97,2.61-1.96,4.47-2.34,1.98-.4,3.73-.35,5.65-1.13l-4.53-7.78c-1.52,1.22-3.06,1.73-4.92,2.14-5.25,1.16-3.89,9.02,1.24,9.15s8.58-2.42,12.91-4.56,10.74-3.95,15.74-3.16,9.93,3.97,14.26,6.82c2.28,1.5,3.89,3.38,5.94,5.08,1.01.84,4.55,1.85,5.16,2.65l1.67-6.37c-3.94,1.81-8.05,3.07-12.31,3.85s-6.97,1.88-10.72,3.91c-3.52,1.9-7.61,1.23-11.37,2.32-3.97,1.15-7.79,2.93-11.76,4.16-3.64,1.13-5.88,2.35-9.86,2.34s-8.65,1.27-12.6-.12c-3.65-1.29-6.83-4.35-9.88-6.65-3.82-2.88-7.65-5.76-11.47-8.64-4.79-3.61-9.43,4.48-4.7,8.04h0Z"/>
      <path class="cls-4" d="m7.84,56.27c1.35,1.75,2.96,3.14,4.99,4.03,1.83.8,3.21-1.5,1.57-2.68-1.79-1.29-3.42-2.85-4.77-4.6l-2.12,2.12c11.52,6.3,23.03,12.61,34.55,18.91l.37-2.84c-2.48.47-5.09.19-7.39-.87-2.48-1.15-4.7-2.86-6.95-4.39-4.67-3.16-9.34-6.32-14.01-9.48l-1.57,2.68c2.11,1.43,4.22,2.85,6.33,4.28l1.2-2.84c-1.46-.55-2.92-1.1-4.37-1.65-1.78-.67-2.49,1.88-1.2,2.84,6.35,4.73,14.12,6.96,21.54,9.39,3.92,1.29,7.97,2.61,12.15,2.18s8.66-1.89,12.89-2.95c4.99-1.25,9.98-2.5,14.97-3.75,1.67-.42,1.36-3.16-.41-3.05-.97.06-1.93.12-2.9.18l.41,3.05c7.9-1.51,15.7-3.54,23.33-6.07l-1.2-2.84c-5.89,3.09-12.25,5.09-18.84,5.99l1.51,2.59c2.64-2.19,6.48-2.2,9.69-2.82,3.84-.74,6.99-2.81,10.51-4.38,6.81-3.04,14.77-1.92,21.28-5.87,1.49-.91.53-3.3-1.2-2.84-2.52.68-4.92,1.7-7.16,3.03-1.06.63-1,2.61.37,2.84,2.68.44,5.19.12,7.66-1,1.6-.72.47-3.38-1.2-2.84-4.67,1.53-9.37,2.95-14.11,4.24-2.33.63-4.67,1.23-7.02,1.8-1.17.29-2.35.56-3.53.83-.63.14-1.26.29-1.89.42-.15.03-1.7.31-1.32.48l.71.93-.03-.2-.4,1.51.12-.16-1.51.4.16.03c1.95.35,2.79-2.65.83-2.99l-.16-.03c-.5-.09-1.16-.05-1.51.4-.73.94-.82,2.22.36,2.86s2.64-.02,3.8-.28c2.99-.66,5.96-1.38,8.93-2.14,5.85-1.51,11.64-3.21,17.38-5.1l-1.2-2.84c-1.65.74-3.49.98-5.27.69l.37,2.84c2.02-1.2,4.15-2.1,6.42-2.72l-1.2-2.84c-3.27,1.99-7.06,2.61-10.78,3.19s-7.42,1.24-10.89,2.86c-1.74.81-3.39,1.79-5.14,2.58s-3.53,1.2-5.39,1.51c-3.56.59-7.04,1.04-9.91,3.42-1.35,1.12.18,2.77,1.51,2.59,6.85-.93,13.46-3.08,19.58-6.3,1.54-.81.48-3.39-1.2-2.84-7.64,2.53-15.43,4.56-23.33,6.07-1.71.33-1.33,3.15.41,3.05.97-.06,1.93-.12,2.9-.18l-.41-3.05c-8.33,2.09-16.65,4.46-25.06,6.25-4.09.87-7.85.03-11.75-1.23-3.7-1.19-7.41-2.37-11.05-3.72-4-1.48-7.86-3.31-11.29-5.86l-1.2,2.84c1.46.55,2.92,1.1,4.37,1.65,1.73.65,2.57-1.91,1.2-2.84-2.11-1.43-4.22-2.85-6.33-4.28-1.66-1.12-3.21,1.57-1.57,2.68,5.07,3.43,10.15,6.87,15.22,10.3,2.34,1.59,4.66,3.28,7.35,4.23s5.44,1.03,8.16.51c1.32-.25,1.49-2.22.37-2.84-11.52-6.3-23.03-12.61-34.55-18.91-1.24-.68-3.14.81-2.12,2.12,1.7,2.2,3.63,4.09,5.89,5.72l1.57-2.68c-1.51-.66-2.87-1.59-3.88-2.92-.51-.67-1.33-1.01-2.12-.56-.66.37-1.07,1.46-.56,2.12h0Z"/>
      <path class="cls-1" d="m8.11,59.2c8.75,5.47,17.49,10.93,26.24,16.4"/>
      <path class="cls-1" d="m32.94,74.72h0s8.22,4.53,15.49,2.78c23.66-5.68,46.57-14.2,70.38-19.33"/>
      <path class="cls-2" d="m33.97,65.41c5.19,2.68,10.36,3.71,16.57,2.68,22.76-5.17,42.42-12.42,64.55-18.16"/>
      <path class="cls-2" d="m113.65,38.44c-7.52-4.7-15.05-9.41-22.57-14.11"/>
      <path class="cls-3" d="m92.48,25.2h0s-8.22-4.53-15.49-2.78"/>
      <path class="cls-2" d="m113.65,50.3s17.37-3.83-.88-12.42"/>
      <path class="cls-1" d="m8.35,48.88c-1.91.62-4.97,1.72-5.62,3.88-1.19,3.95,5.66,6.87,8.2,8.07"/>
      <path class="cls-2" d="m92.73,25.13c-5.19-2.68-10.36-3.71-16.57-2.68-22.76,5.17-42.42,12.42-64.55,18.16"/>
      <path class="cls-2" d="m13.05,52.11c7.52,4.7,15.05,9.41,22.57,14.11"/>
      <path class="cls-2" d="m13.93,52.66c-18.26-8.59-.88-12.42-.88-12.42"/>
      <path class="cls-1" d="m116.72,58.62c2.01-.48,4.35-1.18,5.93-2.57,3.59-3.15-.48-6.36-3.43-8.08"/>
      <g>
        <path class="cls-6" d="m12.53,3.92c.92-.02,1.73.1,2.44.38.7.27,1.31.66,1.81,1.15.5.49.91,1.08,1.2,1.76.3.68.5,1.4.61,2.17.88-.07,1.72-.15,2.54-.26.81-.11,1.65-.22,2.5-.33-.15.51-.4.99-.74,1.47-.34.47-.75.92-1.22,1.33-.47.42-1,.79-1.58,1.12-.58.33-1.19.62-1.83.86-.35,1.27-.94,2.45-1.76,3.54s-1.87,1.92-3.15,2.49c.04-.77.07-1.61.08-2.52.01-.91,0-1.86-.05-2.85-1.34-.13-2.54-.58-3.61-1.35-1.06-.77-1.82-1.95-2.25-3.56,1.08.11,2.07.18,3,.21.92.03,1.8.06,2.63.08-.09-1.23-.19-2.34-.3-3.34-.11-1-.22-1.78-.33-2.35Z"/>
        <path class="cls-6" d="m34.23,0c.94.04,1.82.19,2.63.44.81.25,1.53.63,2.14,1.14.61.51,1.11,1.15,1.48,1.93.37.78.59,1.72.66,2.82.09,1.58-.1,3.06-.56,4.43s-1.07,2.62-1.83,3.75c-.76,1.13-1.58,2.14-2.45,3.01-.88.88-1.68,1.61-2.4,2.21,1.78-.11,3.46-.31,5.04-.61s3.04-.66,4.38-1.1c-.2,1.05-.69,1.97-1.48,2.75-.79.78-1.73,1.42-2.82,1.93s-2.25.86-3.49,1.07c-1.24.21-2.41.25-3.51.13s-2.05-.41-2.85-.86c-.8-.45-1.3-1.08-1.5-1.89.86-.72,1.77-1.58,2.75-2.55.98-.98,1.87-2.06,2.68-3.24s1.49-2.46,2.03-3.84.81-2.83.81-4.36c0-.5-.11-1-.33-1.5s-.7-.84-1.45-1.04c-.42-.11-.92-.09-1.51.07-.59.15-1.17.49-1.73,1-.56.52-1.06,1.24-1.5,2.16s-.71,2.11-.82,3.56c-.64-1.05-1.09-2.03-1.35-2.91s-.37-1.72-.33-2.49c.04-1.03.31-1.93.81-2.7.49-.77,1.1-1.4,1.83-1.89s1.5-.86,2.34-1.09c.83-.23,1.61-.33,2.34-.31Z"/>
      </g>
    </g>
  </g>
</svg>