<?xml version="1.0" encoding="UTF-8"?>
<svg id="Laag_2" data-name="Laag 2" xmlns="http://www.w3.org/2000/svg" viewBox="0 0 127.57 101.09">
  <defs>
    <style>
      .cls-1 {
        stroke: #fff;
        stroke-width: 1.59px;
      }

      .cls-1, .cls-2 {
        fill: none;
        stroke-miterlimit: 10;
      }

      .cls-2 {
        stroke: #1d1d1b;
        stroke-width: 3.96px;
      }

      .cls-3 {
        fill: #1d1d1b;
      }

      .cls-3, .cls-4 {
        stroke-width: 0px;
      }

      .cls-4 {
        fill: #fff;
      }
    </style>
  </defs>
  <g id="Laag_1-2" data-name="Laag 1">
    <g>
      <g>
        <path class="cls-4" d="m57.71,98.66c-5.28,0-9.73-3.96-10.35-9.2l-2.05-17.36c-.67-5.71,3.42-10.9,9.13-11.57l6.33-.75c.41-.05.82-.07,1.22-.07,5.28,0,9.73,3.96,10.35,9.2l2.05,17.36c.67,5.71-3.42,10.9-9.13,11.57l-6.33.75c-.41.05-.82.07-1.22.07Z"/>
        <path class="cls-3" d="m61.98,60.71c4.77,0,8.8,3.58,9.36,8.32l2.05,17.36c.29,2.49-.41,4.95-1.97,6.93-1.56,1.98-3.8,3.24-6.28,3.53l-6.33.75c-.37.04-.74.07-1.1.07-4.77,0-8.8-3.58-9.36-8.32l-2.05-17.36c-.29-2.49.41-4.95,1.97-6.93s3.8-3.24,6.28-3.53l6.33-.75c.37-.04.74-.07,1.1-.07m0-2c-.44,0-.89.03-1.34.08l-6.33.75c-6.24.74-10.74,6.44-10,12.68l2.05,17.36c.68,5.79,5.65,10.08,11.34,10.08.44,0,.89-.03,1.34-.08l6.33-.75c6.24-.74,10.74-6.44,10-12.68l-2.05-17.36c-.68-5.79-5.65-10.08-11.34-10.08h0Z"/>
      </g>
      <g>
        <path class="cls-4" d="m61.22,97.78c-5.75-.03-10.4-4.74-10.36-10.48l.1-17.48c.03-5.71,4.71-10.36,10.42-10.36l6.43.04c5.75.03,10.4,4.74,10.36,10.48l-.1,17.48c-.03,5.71-4.71,10.36-10.42,10.36l-6.43-.04Z"/>
        <path class="cls-3" d="m61.38,60.45h.05s6.37.04,6.37.04c2.5.01,4.86,1.01,6.64,2.81,1.78,1.8,2.75,4.16,2.73,6.67l-.1,17.48c-.03,5.17-4.26,9.37-9.42,9.37h-.05s-6.37-.04-6.37-.04c-2.5-.01-4.86-1.01-6.64-2.81-1.78-1.8-2.75-4.16-2.73-6.67l.1-17.48c.03-5.17,4.26-9.37,9.42-9.37m0-2c-6.25,0-11.38,5.1-11.42,11.36l-.1,17.48c-.04,6.28,5.07,11.45,11.35,11.49l6.37.04s.04,0,.07,0c6.25,0,11.38-5.1,11.42-11.36l.1-17.48c.04-6.28-5.07-11.45-11.35-11.49l-6.37-.04s-.04,0-.07,0h0Z"/>
      </g>
      <g>
        <path class="cls-4" d="m73.35,100.09c-.42,0-.86-.03-1.28-.08l-6.32-.78c-5.7-.71-9.77-5.92-9.06-11.62l2.15-17.35c.65-5.21,5.09-9.14,10.34-9.14.42,0,.86.03,1.28.08l6.32.78c5.7.71,9.77,5.92,9.06,11.62l-2.15,17.35c-.65,5.21-5.09,9.14-10.34,9.14Z"/>
        <path class="cls-3" d="m69.18,62.11h0c.38,0,.77.02,1.16.07l6.32.78c5.16.64,8.83,5.35,8.19,10.51l-2.15,17.35c-.58,4.71-4.6,8.26-9.35,8.26-.38,0-.77-.02-1.16-.07l-6.32-.78c-5.16-.64-8.83-5.35-8.19-10.51l2.15-17.35c.58-4.71,4.6-8.26,9.35-8.26m0-2c-5.67,0-10.62,4.25-11.34,10.02l-2.15,17.35c-.77,6.23,3.7,11.97,9.93,12.74l6.32.78c.47.06.94.09,1.4.09,5.67,0,10.62-4.25,11.34-10.02l2.15-17.35c.77-6.23-3.7-11.97-9.93-12.74l-6.32-.78c-.47-.06-.94-.09-1.4-.09h0Z"/>
      </g>
      <g>
        <path class="cls-4" d="m16.59,41.88c-4.54,0-8.65-3.02-9.98-7.35L1.46,17.82c-.82-2.65-.55-5.47.76-7.94s3.48-4.28,6.13-5.09l6.09-1.88c.99-.31,2.02-.46,3.05-.46,4.54,0,8.65,3.02,9.98,7.35l5.15,16.71c1.69,5.49-1.4,11.34-6.89,13.03l-6.09,1.88c-.99.31-2.02.46-3.05.46Z"/>
        <path class="cls-3" d="m17.48,3.46h0c4.11,0,7.82,2.73,9.03,6.65l5.15,16.71c1.53,4.97-1.26,10.25-6.23,11.78l-6.09,1.88c-.9.28-1.82.42-2.75.42-4.11,0-7.82-2.73-9.03-6.65L2.41,17.53c-1.53-4.97,1.26-10.25,6.23-11.78l6.09-1.88c.9-.28,1.82-.42,2.75-.42m0-2c-1.11,0-2.23.16-3.34.5l-6.09,1.88C2.05,5.69-1.35,12.11.5,18.12l5.15,16.71c1.51,4.89,6.06,8.06,10.94,8.06,1.11,0,2.23-.16,3.34-.5l6.09-1.88c6-1.85,9.4-8.27,7.55-14.28l-5.15-16.71c-1.51-4.89-6.06-8.06-10.94-8.06h0Z"/>
      </g>
      <g>
        <path class="cls-4" d="m19.93,40.37c-5.07,0-9.38-3.62-10.27-8.6l-3.05-17.21c-.48-2.73.13-5.49,1.73-7.78,1.6-2.29,3.98-3.82,6.71-4.3l6.27-1.11c.6-.11,1.21-.16,1.81-.16,5.07,0,9.38,3.62,10.27,8.6l3.05,17.21c1,5.66-2.78,11.08-8.44,12.08l-6.27,1.11c-.6.11-1.21.16-1.81.16Z"/>
        <path class="cls-3" d="m23.13,2.2c4.58,0,8.48,3.27,9.28,7.78l3.05,17.21c.91,5.12-2.52,10.02-7.63,10.92l-6.27,1.11c-.54.1-1.09.14-1.64.14-4.58,0-8.49-3.27-9.29-7.78l-3.05-17.21c-.91-5.12,2.52-10.02,7.63-10.92l6.27-1.11c.54-.1,1.09-.14,1.64-.14m0-2c-.66,0-1.32.06-1.99.18l-6.27,1.11c-6.19,1.1-10.35,7.06-9.25,13.24l3.05,17.21c.98,5.52,5.83,9.43,11.25,9.43.66,0,1.32-.06,1.99-.18l6.27-1.11c6.19-1.1,10.35-7.06,9.25-13.24l-3.05-17.21C33.4,4.11,28.56.2,23.13.2h0Z"/>
      </g>
      <g>
        <path class="cls-4" d="m25.85,40.84c-5.51,0-10.08-4.31-10.4-9.82l-1.01-17.45c-.33-5.74,4.06-10.68,9.8-11.01l6.36-.37c.2-.01.41-.02.61-.02,5.51,0,10.08,4.31,10.4,9.82l1.01,17.45c.33,5.74-4.06,10.68-9.8,11.01l-6.36.37c-.2.01-.41.02-.61.02Z"/>
        <path class="cls-3" d="m31.2,1.17v2c4.98,0,9.11,3.9,9.4,8.88l1.01,17.45c.15,2.5-.7,4.92-2.38,6.8-1.68,1.89-3.98,3.01-6.48,3.15l-6.36.37c-.18.01-.37.02-.55.02-4.98,0-9.12-3.9-9.4-8.88l-1.01-17.45c-.15-2.5.7-4.92,2.38-6.8,1.68-1.89,3.98-3.01,6.48-3.15l6.36-.37c.18-.01.37-.02.55-.02v-2m0,0c-.22,0-.44,0-.67.02l-6.36.37c-6.27.36-11.1,5.79-10.74,12.06l1.01,17.45c.35,6.05,5.41,10.76,11.4,10.76.22,0,.44,0,.67-.02l6.36-.37c6.27-.36,11.1-5.79,10.74-12.06l-1.01-17.45c-.35-6.05-5.41-10.76-11.4-10.76h0Z"/>
      </g>
      <g>
        <path class="cls-4" d="m96.48,39.62c-5.75-.03-10.4-4.74-10.36-10.48l.1-17.48c.03-5.71,4.71-10.36,10.42-10.36l6.43.04c2.77.02,5.38,1.12,7.34,3.1,1.96,1.99,3.04,4.61,3.02,7.38l-.1,17.48c-.03,5.71-4.71,10.36-10.42,10.36l-6.43-.04Z"/>
        <path class="cls-3" d="m96.64,2.29h0,.05s6.37.04,6.37.04c5.2.03,9.4,4.28,9.37,9.48l-.1,17.48c-.03,5.17-4.26,9.37-9.42,9.37h-.05s-6.37-.04-6.37-.04c-2.5-.01-4.86-1.01-6.64-2.81-1.78-1.8-2.75-4.16-2.73-6.67l.1-17.48c.03-5.17,4.26-9.37,9.42-9.37m0-2c-6.25,0-11.38,5.1-11.42,11.36l-.1,17.48c-.04,6.28,5.07,11.45,11.36,11.49l6.37.04s.04,0,.07,0c6.25,0,11.38-5.1,11.42-11.36l.1-17.48c.04-6.28-5.07-11.45-11.35-11.49l-6.37-.04s-.04,0-.07,0h0Z"/>
      </g>
      <g>
        <path class="cls-4" d="m106.5,40c-.44,0-.9-.03-1.34-.09l-6.32-.82c-2.75-.36-5.2-1.77-6.9-3.98-1.7-2.21-2.45-4.94-2.09-7.69l2.25-17.34c.67-5.18,5.12-9.08,10.34-9.08.45,0,.9.03,1.34.09l6.32.82c5.7.74,9.73,5.98,9,11.68l-2.25,17.34c-.67,5.18-5.12,9.08-10.34,9.08Z"/>
        <path class="cls-3" d="m102.44,0v2h0c.4,0,.81.03,1.21.08l6.32.82c5.15.67,8.8,5.41,8.13,10.56l-2.25,17.34c-.61,4.68-4.63,8.21-9.35,8.21-.4,0-.81-.03-1.21-.08l-6.32-.82c-2.48-.32-4.7-1.6-6.24-3.6-1.54-2-2.21-4.47-1.89-6.95l2.25-17.34c.61-4.68,4.63-8.21,9.35-8.21V0m0,0c-5.64,0-10.58,4.22-11.33,9.95l-2.25,17.34c-.81,6.23,3.63,11.99,9.86,12.8l6.32.82c.49.06.98.1,1.47.1,5.64,0,10.58-4.21,11.33-9.95l2.25-17.34c.81-6.23-3.63-11.99-9.86-12.8l-6.32-.82C103.41.03,102.92,0,102.44,0h0Z"/>
      </g>
      <g>
        <path class="cls-4" d="m111.87,42.96c-.85,0-1.7-.11-2.53-.31l-6.18-1.56c-2.69-.68-4.96-2.37-6.39-4.77-1.43-2.4-1.85-5.2-1.17-7.89l4.27-16.95c1.17-4.64,5.33-7.88,10.12-7.88.85,0,1.7.11,2.53.31l6.18,1.56c2.69.68,4.96,2.37,6.39,4.77,1.43,2.4,1.85,5.2,1.17,7.88l-4.27,16.95c-1.17,4.64-5.33,7.88-10.12,7.88Z"/>
        <path class="cls-3" d="m109.99,4.61h0c.77,0,1.53.1,2.28.28l6.18,1.55c5.04,1.27,8.11,6.4,6.84,11.44l-4.27,16.95c-1.06,4.19-4.82,7.12-9.15,7.12-.77,0-1.54-.1-2.28-.28l-6.18-1.55c-2.43-.61-4.48-2.14-5.78-4.31-1.3-2.17-1.67-4.7-1.06-7.13l4.27-16.95c1.06-4.19,4.82-7.12,9.15-7.12m0-2c-5.11,0-9.79,3.47-11.09,8.63l-4.27,16.95c-1.53,6.09,2.2,12.33,8.29,13.86l6.18,1.55c.93.23,1.86.34,2.77.34,5.11,0,9.79-3.47,11.09-8.63l4.27-16.95c1.53-6.09-2.2-12.33-8.29-13.86l-6.18-1.55c-.93-.23-1.86-.34-2.77-.34h0Z"/>
      </g>
      <line class="cls-2" x1="56.27" y1="19.25" x2="73.6" y2="19.25"/>
      <g>
        <path class="cls-4" d="m57.87,24.81c-.36,0-.7-.09-1.02-.28l-5.9-3.41c-.64-.37-1.02-1.03-1.02-1.77s.38-1.4,1.02-1.77l5.9-3.41c.32-.18.66-.28,1.02-.28.98,0,2.05.78,2.05,2.05v6.82c0,1.26-1.06,2.05-2.05,2.05Z"/>
        <path class="cls-3" d="m57.87,14.69c.6,0,1.25.48,1.25,1.25v6.82c0,.77-.65,1.25-1.25,1.25-.21,0-.42-.06-.62-.17l-5.9-3.41c-.56-.33-.63-.87-.63-1.08s.06-.76.63-1.08l5.9-3.41c.2-.11.41-.17.62-.17m0-1.59c-.47,0-.96.12-1.41.38l-5.9,3.41c-1.89,1.09-1.89,3.82,0,4.92l5.9,3.41c.46.26.94.38,1.41.38,1.48,0,2.84-1.18,2.84-2.84v-6.82c0-1.65-1.36-2.84-2.84-2.84h0Z"/>
      </g>
      <g>
        <path class="cls-4" d="m70.98,24.81c-.98,0-2.03-.78-2.03-2.03v-6.82c0-1.27,1.07-2.06,2.06-2.06.36,0,.7.09,1.02.28l5.89,3.4c.64.37,1.02,1.03,1.02,1.77,0,.74-.38,1.4-1.02,1.77l-5.93,3.42c-.32.18-.66.28-1.01.28Z"/>
        <path class="cls-3" d="m71.01,14.7h0c.22,0,.43.06.63.17l5.89,3.4c.56.33.62.86.62,1.08s-.06.76-.62,1.08l-5.93,3.42c-.19.11-.4.17-.61.17-.6,0-1.24-.47-1.24-1.24v-6.82c0-.78.66-1.26,1.26-1.26m0-1.59c-1.49,0-2.85,1.19-2.85,2.85v6.82c0,1.65,1.35,2.83,2.83,2.83.47,0,.95-.12,1.41-.38l5.93-3.42c1.89-1.09,1.89-3.82,0-4.91l-5.89-3.4c-.46-.26-.94-.39-1.42-.39h0Z"/>
      </g>
      <line class="cls-1" x1="56.22" y1="19.35" x2="73.66" y2="19.35"/>
    </g>
  </g>
</svg>