<?xml version="1.0" encoding="UTF-8"?>
<svg id="Laag_2" data-name="Laag 2" xmlns="http://www.w3.org/2000/svg" viewBox="0 0 91.81 106.45">
  <defs>
    <style>
      .cls-1 {
        fill: #eb7c19;
      }

      .cls-1, .cls-2 {
        stroke: #1d1d1b;
        stroke-miterlimit: 10;
        stroke-width: 5px;
      }

      .cls-2, .cls-3 {
        fill: #de2b65;
      }

      .cls-3 {
        stroke-width: 0px;
      }
    </style>
  </defs>
  <g id="Laag_1-2" data-name="Laag 1">
    <g>
      <rect class="cls-1" x="2.5" y="17.15" width="86.81" height="86.81" rx="12" ry="12"/>
      <polygon class="cls-2" points="89.31 54.81 51.65 54.81 51.65 17.15 40.16 17.15 40.16 54.81 2.5 54.81 2.5 66.3 40.16 66.3 40.16 103.95 51.65 103.95 51.65 66.3 89.31 66.3 89.31 54.81"/>
      <path class="cls-3" d="m49.97,13.91c2.7-1.55,5.46-2.86,8.46-3.74,1.09-.32,8.21-2.33,8.68-1.44.98,1.87-8.87,2.08-9.76,1.9-2.95-.59-5.69-1.95-8.26-3.47-4.86-2.87-8.91-5.74-14.64-6.54C29.92-.02,24.89-.46,20.44.83c-7.46,2.16-12.39,12.61-3.58,16.6,9.54,4.32,21.74,2.13,30.72-2.37,4.6-2.31.56-9.21-4.04-6.91-5.43,2.72-11.47,3.95-17.53,3.29-2.42-.26-7.89-.86-3.45-2.9,2.07-.95,5.17-.51,7.38-.36,11.56.76,19.31,11.23,31.35,10.75,6.78-.27,19.38-7.21,12.45-15.37-6.15-7.25-21.45-.22-27.81,3.44-4.46,2.57-.44,9.48,4.04,6.91h0Z"/>
    </g>
  </g>
</svg>