<?xml version="1.0" encoding="UTF-8"?>
<svg id="Laag_1" data-name="Laag 1" xmlns="http://www.w3.org/2000/svg" viewBox="0 0 96.32 96.32">
  <defs>
    <style>
      .cls-1 {
        fill: #fff;
        stroke-width: 0px;
      }
    </style>
  </defs>
  <path class="cls-1" d="M48.16,8.55c21.84,0,39.62,17.77,39.62,39.62s-17.77,39.62-39.62,39.62S8.55,70.01,8.55,48.16,26.32,8.55,48.16,8.55M48.16,0C21.56,0,0,21.56,0,48.16s21.56,48.16,48.16,48.16,48.16-21.56,48.16-48.16S74.76,0,48.16,0h0Z"/>
  <path class="cls-1" d="M42.29,17.74c4.56-.05,7.86.56,9.91,1.83,2.05,1.27,3.03,2.77,2.95,4.51-.08,1.74-1.15,3.49-3.23,5.25-2.07,1.76-4.95,3.11-8.63,4.04.05-1.71.06-3.19.04-4.43-.03-1.24-.08-2.43-.16-3.58-.08-1.14-.19-2.29-.35-3.46-.16-1.17-.34-2.55-.54-4.16ZM42.53,37.94c2.9-.16,5.32.22,7.26,1.13,1.94.91,3.47,2.19,4.59,3.85s1.85,3.6,2.22,5.83c.36,2.23.41,4.55.16,6.96-.26,2.41-.78,4.82-1.55,7.23-.78,2.41-1.75,4.66-2.91,6.76-1.17,2.1-2.5,3.94-4,5.52-1.5,1.58-3.08,2.71-4.74,3.38.16-1.35.27-3.07.35-5.17.08-2.1.13-4.39.16-6.88.03-2.49.01-5.08-.04-7.77-.05-2.69-.14-5.32-.27-7.89-.13-2.56-.3-4.97-.51-7.23-.21-2.25-.44-4.16-.7-5.71Z"/>
</svg>