<?xml version="1.0" encoding="UTF-8"?>
<svg id="Laag_2" data-name="Laag 2" xmlns="http://www.w3.org/2000/svg" viewBox="0 0 66.59 93.93">
  <defs>
    <style>
      .cls-1 {
        stroke-width: .35px;
      }

      .cls-1, .cls-2, .cls-3, .cls-4 {
        stroke: #000;
      }

      .cls-1, .cls-3, .cls-4 {
        stroke-linecap: round;
        stroke-linejoin: round;
      }

      .cls-2 {
        stroke-miterlimit: 10;
      }

      .cls-2, .cls-3, .cls-4 {
        stroke-width: 1.7px;
      }

      .cls-2, .cls-4 {
        fill: none;
      }

      .cls-3 {
        fill: #fff;
      }

      .cls-5 {
        fill: #4d4d4d;
        stroke-width: 0px;
      }
    </style>
  </defs>
  <g id="Laag_1-2" data-name="Laag 1">
    <g>
      <path class="cls-5" d="m60.89,82.25c-.76-.06-1.58-.06-2.21.44-.27.22-.45.52-.73.74s-.57.38-.83.61-.52.51-.6.84c-.1.43.22.75.63.79s.84-.05,1.23-.1c.5-.07.99-.15,1.48-.26.92-.2,1.82-.46,2.72-.73.57-.18,2.12-.39,1.74-1.32-.16-.38-.55-.52-.91-.64-.46-.14-.93-.25-1.41-.33-.88-.14-1.87-.29-2.69.13-.36.18-.87.49-1.04.87s0,.78.34.99c.76.47,1.97.07,2.71-.27.52-.24.15-1.14-.39-.93-.44.17-.88.34-1.32.5s-.88.42-1.32.5c.1-.02.01.13.04-.02.01-.06-.01-.15,0-.21.02-.14.09-.27.18-.37.24-.26.65-.33.98-.28l.14-1c-.72-.04-1.42.2-1.99.64-.48.38-1.18,1.17-.94,1.84.26.72,1.49.75,2.11.71.9-.05,1.77-.32,2.62-.61l-.5-.85c-.44.42-.99.64-1.6.66-.67.02-.65.96,0,1.02,1.53.14,3.82.37,4.73-1.22.36-.63.38-1.58-.34-1.96-.37-.2-.87-.2-1.28-.22-.52-.03-1.03-.01-1.54.04s-.71.67-.26.95c.71.45,1.49.77,2.31.96.36.08.76-.24.63-.63-.22-.65-.78-1.06-1.45-1.2-.79-.17-1.6.1-2.37-.1v.98c.97-.14,1.95-.13,2.91-.02.61.07.64-.82.14-1-.92-.34-1.87-.41-2.84-.27-.49.07-.48.91,0,.98.74.12,1.49-.17,2.21.14.63.28,1.14.79,1.62,1.27.14.14.44.21.62.08.6-.46.54-1.55-.31-1.7l.23.85c-.07.06-.12.07-.15.02l-.03-.03s-.08.11-.13.14c-.19.13-.47.14-.68.16-.56.06-1.12.06-1.68.11s-1.08.14-1.59.34c-.4.15-.87.4-1.27.14-.55-.37-1.06.52-.52.88.78.52,1.58.11,2.36-.14.92-.29,1.89-.21,2.84-.32.74-.09,1.69-.4,1.69-1.31,0-.82-.96-1.26-1.56-.71-.27.25-.15.78.23.85.03,0,0-.05-.02-.04,0,0,0,0,0,.01-.03.05,0,0,.08-.14l.62.08c-.54-.55-1.12-1.11-1.83-1.44-.35-.16-.71-.27-1.09-.29-.45-.03-.91.12-1.35.05v.98c.78-.11,1.56,0,2.29.27l.14-1c-1.07-.12-2.12-.09-3.18.06-.51.07-.46.87,0,.98.66.17,1.31.06,1.98.06.39,0,.98.09,1.13.52l.63-.63c-.74-.17-1.42-.46-2.07-.86l-.26.95c.68-.07,1.38-.09,2.06,0,.25.03.36.03.32.31-.03.24-.2.46-.38.61-.43.37-1.05.44-1.6.46-.66.02-1.32-.01-1.97-.07v1.02c.88-.03,1.68-.36,2.33-.96.36-.34-.01-1.02-.5-.85-1.07.36-2.28.79-3.41.47-.07-.02-.13-.04-.19-.06.08.19.13.23.17.12.08-.06.13-.24.19-.33.12-.16.27-.3.43-.42.38-.27.81-.38,1.28-.36.56.03.71-.92.14-1-.64-.1-1.29-.02-1.81.4-.49.39-.75,1.05-.61,1.67.07.3.23.6.51.75.36.19.71.03,1.06-.11.76-.29,1.53-.58,2.29-.88l-.39-.93c-.24.11-.49.2-.75.25s-.54.01-.79.06c-.02,0-.05,0-.07-.01-.12-.04-.12.06,0,.3.04,0,.26-.2.3-.23.22-.15.44-.28.7-.33.53-.09,1.15.02,1.68.11.26.05.52.1.78.17.09.02.72.18.73.2l.05-.39c.17-.09.16-.1-.02-.03l-.14.04c-.14.04-.28.09-.41.13-.28.09-.55.17-.83.26-.53.16-1.06.31-1.6.45s-1.07.26-1.62.35c-.29.05-.57.09-.86.12-.12.01-.24.02-.36.03-.07,0-.14.01-.22.02-.19-.01-.19.01,0,.07l.15.36c0-.15.49-.46.62-.55.28-.19.56-.38.79-.63.26-.28.44-.53.83-.62.36-.08.75-.04,1.11-.01.66.05.65-.97,0-1.02h0Z"/>
      <path class="cls-5" d="m21.69,91.86h.55v-1.01c-.66.03-1.24.27-1.73.73-.26.25-.15.61.1.8.49.37,1.12.16,1.55-.2.35-.29.56-.95,1.04-1.06l-.39-.93c-.33.21-.66.41-.98.62l-.25.16c-.2.08-.15.2.16.38.09-.02.31-.25.39-.31.6-.43,1.21-.85,1.83-1.25,1.29-.83,2.56-1.5,4.12-1.56.66-.03.66-.99,0-1.02-.74-.03-1.25.54-1.6,1.13-.15.26-.04.53.18.7.38.28.89.19,1.25-.08.41-.31.46-.79.77-1.16.24-.29.17-.74-.23-.85-.59-.17-1.82-.21-2.05.55-.25.81.88,1.17,1.48.99l-.58-.75c-.23.5-.67.8-1.11,1.1-.52.37-1.04.73-1.56,1.1-.9.63-1.8,1.27-2.9,1.48l.58.75c.51-.81,1.32-1.34,2.09-1.87.92-.63,1.84-1.26,2.76-1.89l-.62-.8c-.84.82-1.69,1.65-2.66,2.31-.46.32-.97.64-1.5.83-.21.08-.2-.01-.11.25s.09.17.3.08c.28-.13.55-.25.82-.41,1.07-.61,1.94-1.47,2.91-2.22.34-.26,1.03-.84,1.5-.64.53.23-.28.7-.48.84-1.07.74-2.23,1.52-3.57,1.66-.65.07-.65,1.09,0,1.02,1.64-.17,3.07-1.05,4.38-2,.56-.41,1.09-1.01.79-1.74s-1.12-.94-1.81-.75c-.81.22-1.49.85-2.12,1.38s-1.28,1.08-2,1.51c-.53.32-1.63.56-1.63,1.34,0,.34.24.64.57.73.35.1.7-.04,1.02-.18,1.67-.73,3.02-2.03,4.31-3.28.41-.39-.13-1.14-.62-.8-1,.69-1.99,1.37-2.99,2.06-.84.58-1.67,1.19-2.22,2.08-.25.4.16.83.58.75,1.23-.24,2.26-.97,3.26-1.67.57-.4,1.14-.8,1.71-1.2.48-.35.94-.73,1.2-1.28.18-.38-.12-.89-.58-.75.02,0-.24.02-.22.01-.11-.1-.13-.04-.08.19-.08.23-.05.29.11.2.11.02.26-.05.38-.04.13,0,.25.03.38.07l-.23-.85c-.19.24-.31.49-.45.76-.06.11-.11.2-.19.3-.03.03-.07.05-.11.06.07.04.06.02-.03-.03l.18.7c.16-.27.36-.64.72-.63v-1.02c-1.06.04-2.08.29-3.03.76s-1.86,1.09-2.74,1.7c-.55.38-2.01,1.12-1.52,2.01.23.42.72.46,1.11.28.5-.22.96-.58,1.42-.87.49-.31.17-1.06-.39-.93-.46.1-.77.42-1.04.79-.14.19-.48.79-.76.57l.1.8c.28-.26.62-.41,1.01-.43.65-.03.66-1.01,0-1.02h-.55c-.66-.02-.66,1,0,1.01h0Z"/>
      <path class="cls-5" d="m44.99,90.31c.53.06,1.06.21,1.55.43l.39-.93c-.55-.08-1.07-.25-1.58-.48-.47-.21-1.18-.15-1.18.51,0,.62.78.83,1.24,1.02.55.22,1.11.41,1.68.57s1.11.29,1.67.43,1.15.29,1.65-.07c.45-.32.58-.93.24-1.38-.31-.41-.85-.52-1.32-.65-1.35-.39-2.7-.77-4.05-1.16-.41-.12-.83.37-.58.75.48.7,1.32.81,2.08.99.43.1.86.2,1.29.3.26.06.67.09.8.36l.31-.75c-.54.16-1.09.1-1.58-.19l-.39.93c.08.02.16.05.25.07.63.18.9-.81.27-.98-.08-.02-.16-.05-.25-.07-.56-.16-.9.64-.39.93.72.42,1.57.52,2.37.29.34-.1.44-.45.31-.75-.34-.74-1.36-.82-2.05-.98-.43-.1-.86-.2-1.29-.3-.27-.06-.66-.12-.83-.37l-.58.75c.92.26,1.85.53,2.77.79.46.13.92.26,1.38.4.18.05.38.09.55.17,0,0,.14.08.13.08,0,0-.03-.12,0-.11,0,0-.08.05-.1.06-.08.02-.18,0-.25-.01-.22-.04-.45-.1-.67-.16-.44-.11-.88-.22-1.32-.34s-.87-.25-1.3-.41c-.2-.07-.41-.15-.61-.23-.1-.04-.19-.08-.29-.13-.06-.03-.13-.06-.19-.09-.08-.04-.09-.05-.02-.01l.07.26v-.07c-.02.09-.05.17-.07.26l-.02.02-.23.13s-.04,0-.04,0c.02.04.19.09.22.11.18.08.35.15.54.22.34.12.7.2,1.06.26.25.04.5-.04.6-.3.09-.21.03-.53-.21-.64-.67-.3-1.34-.48-2.06-.57-.27-.03-.51.26-.51.51,0,.3.24.48.51.51h0Z"/>
      <path class="cls-5" d="m11.5,86.62c-1.3.79-2.07,2.52-1.61,4.01.07.22.18.43.39.54.26.15.56.07.81-.04.35-.15.66-.37.94-.64.53-.49.91-1.12,1.39-1.66.52-.59,1.42-1.04,1.25-1.96-.19-1.03-1.33-1.24-2.21-1.17-.46.04-.92.14-1.27.47s-.52.81-.35,1.26.61.77,1.1.68c.43-.08.89-.45,1.08-.84.23-.5.03-1.17-.55-1.31s-.99.3-1.32.68c-.64.72-1.23,1.84-.55,2.75.18.23.57.39.8.1.49-.6.97-1.2,1.46-1.81l-.87-.36c.02.33-.21.59-.41.83-.18.21-.21.52,0,.72.19.19.53.2.72,0,.33-.35.67-.69,1-1.04s.68-.67.52-1.18c-.13-.39-.58-.72-.91-.94-.4-.27-.92-.16-1.15.27-.17.31-.15.68-.25,1.02-.09.32-.24.61-.4.91-.36.69-.71,1.36-.78,2.14-.04.42.6.7.87.36.88-1.08,1.84-2.1,2.86-3.04.19-.17.19-.48.04-.67-.16-.21-.42-.25-.66-.13-.75.37-1.12,1.13-1.47,1.84-.15.3-.31.76-.59.96,0,0-.12.08-.12.06,0-.01.1.01.11.01.09.01.03.08.03,0,0-.1-.06-.23-.07-.33-.02-.11-.03-.22-.03-.33-.03-.8.29-1.66,1.07-2,.21-.09.72-.25.86.02.18.35.11.85.01,1.2-.28.97-1.1,1.64-1.95,2.11-.57.32-.06,1.2.52.88,1.06-.6,2.02-1.45,2.4-2.65.18-.58.22-1.27,0-1.85-.27-.7-.93-.93-1.63-.82-1.21.18-2.08,1.26-2.25,2.43-.08.57-.08,1.29.19,1.82.35.69,1.17.57,1.66.1.77-.74.84-2.12,1.81-2.6l-.62-.8c-1.03.94-1.98,1.96-2.86,3.04l.87.36c.04-.49.28-.95.51-1.38.26-.5.55-1.01.68-1.57.03-.15.05-.3.07-.44-.01.07.02-.1.02-.1,0-.04.02-.12.03-.09.03.07-.34,0-.3.08.02.06.17.14.22.17.02.02.28.26.29.25-.05.02.02-.2.02-.19,0,0-.15.16-.17.18l-.37.39-.75.78.72.72c.38-.45.74-.94.71-1.55-.02-.4-.57-.73-.87-.36-.49.6-.97,1.2-1.46,1.81l.8.1c-.31-.42-.09-.91.2-1.28.15-.19.32-.4.5-.56.16-.13.08,0-.04-.13-.09-.1,0-.11-.08-.02-.08.08-.19.13-.27.21l-.03.02s-.02,0,.06,0c.05-.02-.06.18-.03-.03,0,.05,0-.03,0-.03.03-.08.07-.13.15-.18.19-.13.45-.14.68-.15.27-.01.6-.04.85.11.12.07.23.2.2.31-.04.16-.27.32-.41.43-.39.33-.71.71-1.02,1.11-.29.38-.58.77-.93,1.09-.16.15-.31.26-.5.37-.03.02-.09.03-.11.06h0c-.16.04-.09.11.19.22.01-.11-.07-.26-.09-.37-.13-.95.35-2.02,1.21-2.54.56-.34.05-1.22-.52-.88h0Z"/>
      <path class="cls-5" d="m1.91,76.61c.14-.17.29-.34.44-.5.07-.07.15-.15.22-.22.04-.03.08-.07.12-.1.03-.02.05-.04.08-.06-.03.02-.03.02,0,0,.09-.06.18-.12.27-.17.04-.02.09-.05.13-.07-.08.04.04-.01.06-.02.05-.01.09-.03.14-.04.03,0,.14-.02.05-.01.11-.01.23,0,.34,0v-1.02c-.49.03-1.04.02-1.49-.05-.26-.04-.5.04-.6.3s0,.5.21.64c.88.58,2,.75,3.03.48.2-.05.34-.23.37-.42.03-.21-.07-.39-.24-.51-.29-.21-.59-.42-.88-.63l-.12.93s.07-.02.11-.03c.06-.02-.07,0,0,0,.04,0,.07,0,.11,0-.07,0-.03,0,.02.01.01,0,.09.04.04.01-.06-.03.04.03.06.04-.04-.02-.03-.03,0,0,.01.01.09.12.03.03l.31-.75c-.45.16-.9.33-1.35.49-.23.08-.46.17-.69.25-.07.02-.13.05-.2.06-.04.01-.08.02-.13.03.12-.02,0,0-.03,0-.03,0-.12-.03-.05,0,.04,0,.04,0,0,0,.06.03.07.03.04.02-.05-.03.06.07,0,0,.04.05.06.07.06.14-.01.06-.02.08,0,.04.01-.04,0-.03-.01.03.06-.07-.04.02,0-.02.01-.02.03-.03.05-.05-.04.03-.04.03-.01,0,.03-.02.07-.04.1-.06-.09.04.04,0,.05-.01-.09.02.06,0,.08,0,.1,0,.19,0,.29,0,.25,0,.51,0,.75-.1.2-.07.34-.21.37-.42s-.08-.38-.24-.51c-.3-.23-.65-.4-1.01-.51l-.14,1c.4,0,.8,0,1.2.04.27.02.52-.25.51-.51-.01-.3-.22-.49-.51-.51-.4-.04-.8-.05-1.2-.04-.58.01-.69.83-.14,1,.27.08.51.21.77.41l.12-.93c-.23.09-.44.05-.73.06s-.59.07-.83.26-.46.47-.47.8c0,.31.16.62.42.77.48.27,1.01.08,1.48-.09.58-.21,1.16-.43,1.74-.64.29-.11.5-.46.31-.75-.33-.48-.95-.74-1.51-.53-.43.16-.49.67-.12.93.29.21.59.42.88.63l.12-.93c-.1.03-.21.05-.32.07-.17.03.09,0-.08,0-.05,0-.11,0-.16.01-.11,0-.22,0-.32,0-.05,0-.11,0-.16-.01-.17-.02.09.02-.08-.01-.21-.04-.42-.1-.62-.17-.09-.03.02.01-.08-.03-.04-.02-.08-.04-.12-.06-.1-.05-.2-.11-.3-.18l-.39.93c.58.09,1.17.12,1.76.08.27-.02.52-.22.51-.51-.01-.3-.23-.48-.51-.51-1.08-.13-1.94.73-2.57,1.48-.18.21-.21.51,0,.72.18.18.55.21.72,0h0Z"/>
      <path class="cls-3" d="m60.45,59.98c-5.11-14.98-5.45-30.64-7.15-46.31-.68-6.13-5.45-11.58-11.92-12.6-2.72-.34-5.45-.34-8.17.34-.68.34-1.36.68-2.38,1.02-4.09,1.7-7.15,5.45-9.19,9.53-4.09,9.53-5.45,19.41-7.15,29.62-1.36,10.55-6.47,19.75-11.24,28.94-.6,1.2-1.46,2.39-1.77,3.47.02.01.04.03.07.04.07.04.11.11.14.17,2.45-1.65,5.27.78,6.22,3.12.68,1.7.69,3.65.91,5.45.25,2.01.49,4.01.56,6.04.01,0,.02.01.03.02.85-2.13,2.83-4.86,5.37-3.3,2.27,1.39,3.59,4.39,4.32,6.88.09.04.17.08.25.12,1.37-1.56,11.25-12.2,16.03.13.02,0,.05,0,.07,0,1.2-1.72,9.78-4.61,13.43-3.18.38.04.77.13,1.06.34.36.08.7.19,1.03.33.46.2.9.45,1.31.75,3.1-4.22,5.12-12.49,12.82-8.24l-4.66-22.7Z"/>
      <path class="cls-4" d="m46.68,57.76c-1.53,5.78,6.52,31.27,5.58,32.7"/>
      <path class="cls-4" d="m59.54,81.43s1.18-5.62-1.78-16.57c-.59-2.07-4.15-14.64-4.29-16.49"/>
      <path class="cls-4" d="m13.28,90.04c1.12-.96,1.8-2.31,2.64-3.5"/>
      <ellipse class="cls-1" cx="43.91" cy="19.29" rx="2.55" ry="6.13"/>
      <ellipse class="cls-1" cx="35.4" cy="19.29" rx="2.55" ry="6.13"/>
      <path class="cls-4" d="m65.45,82.33s2.95,3.52-10.13,3.78"/>
      <path class="cls-4" d="m20.09,93.08c4.02-.37,7.4-3.38,10.42-5.79"/>
      <path class="cls-4" d="m19.04,46.59c1.37,6.07-11.68,29.89-10.63,31.51"/>
      <path class="cls-4" d="m16.81,87.28s4.06-5.22,6.51-18.04c.43-2.44,3.08-17.24,3.87-19.23"/>
      <path class="cls-4" d="m35.11,92.13c1.17-2.19.83-4.57,1.17-6.95.68-8.85-.68-17.36.15-25.88"/>
      <path class="cls-4" d="m1.09,74.8c.63-.35-1.52,2.34,1.09,1.84,1.49-.28,2.97-.36,4.35-.8"/>
      <path class="cls-4" d="m9.21,89.43c.34-.34-.46,5.11,4.54,0"/>
      <path class="cls-2" d="m19.44,91.75s-.78,2.02,2.5.53"/>
      <path class="cls-4" d="m51.27,91.25s3.56,2.8-10.22-1.21"/>
    </g>
  </g>
</svg>