<?xml version="1.0" encoding="UTF-8"?>
<svg id="Laag_2" data-name="Laag 2" xmlns="http://www.w3.org/2000/svg" viewBox="0 0 67.4 84.74">
  <defs>
    <style>
      .cls-1 {
        fill: #8abb2a;
      }

      .cls-1, .cls-2, .cls-3, .cls-4, .cls-5 {
        stroke: #1d1d1b;
        stroke-miterlimit: 10;
        stroke-width: 2.19px;
      }

      .cls-2 {
        fill: #ff6d00;
      }

      .cls-3 {
        fill: #2f2f2f;
      }

      .cls-4 {
        fill: #8082b8;
      }

      .cls-5 {
        fill: #de2b65;
      }
    </style>
  </defs>
  <g id="Laag_1-2" data-name="Laag 1">
    <g>
      <path class="cls-4" d="m41.04,14.39h9.97v2c0,1.4,1.52,2.28,2.73,1.58l11.66-6.73c1.22-.7,1.22-2.46,0-3.16l-11.66-6.73c-1.21-.7-2.73.18-2.73,1.58v1.9h-10c-2.79.02-5.29.88-7.48,2.61-2.16,1.71-3.57,3.91-4.25,6.58-.15.57-.25,1.14-.29,1.72-.03.38-.04.77-.06,1.15v19.62h9.58v-19.62"/>
      <path class="cls-3" d="m38.49,16.88c0-.89.45-1.68,1.16-2.15.41-.27.83-.35,1.39-.35"/>
      <path class="cls-1" d="m26.36,29.57h-9.97v2c0,1.4-1.52,2.28-2.73,1.58l-11.66-6.73c-1.22-.7-1.22-2.46,0-3.16l11.66-6.73c1.21-.7,2.73.18,2.73,1.58v1.9h10c2.79.02,5.29.88,7.48,2.61,2.16,1.71,3.57,3.91,4.25,6.58.15.57.25,1.14.29,1.72.03.38.04.77.06,1.15v19.62h-9.58v-19.62"/>
      <path class="cls-3" d="m28.91,32.06c0-.89-.45-1.68-1.16-2.15-.41-.27-.83-.35-1.39-.35"/>
      <path class="cls-5" d="m41.04,46.34h9.97v2c0,1.4,1.52,2.28,2.73,1.58l11.66-6.73c1.22-.7,1.22-2.46,0-3.16l-11.66-6.73c-1.21-.7-2.73.18-2.73,1.58v1.9h-10c-2.79.02-5.29.88-7.48,2.61-2.16,1.71-3.57,3.91-4.25,6.58-.15.57-.25,1.14-.29,1.72-.03.38-.04.77-.06,1.15v19.62h9.58v-19.62"/>
      <path class="cls-3" d="m38.49,48.84c0-.89.45-1.68,1.16-2.15.41-.27.83-.35,1.39-.35"/>
      <path class="cls-2" d="m26.36,61.52h-9.97v2c0,1.4-1.52,2.28-2.73,1.58l-11.66-6.73c-1.22-.7-1.22-2.46,0-3.16l11.66-6.73c1.21-.7,2.73.18,2.73,1.58v1.9h10c2.79.02,5.29.88,7.48,2.61,2.16,1.71,3.57,3.91,4.25,6.58.15.57.25,1.14.29,1.72.03.38.04.77.06,1.15v18.38c0,.69-.56,1.24-1.24,1.24h-7.1c-.68,0-1.24-.55-1.24-1.24v-18.39"/>
      <path class="cls-3" d="m28.91,64.02c0-.89-.45-1.68-1.16-2.15-.41-.27-.83-.35-1.39-.35"/>
    </g>
  </g>
</svg>