<?xml version="1.0" encoding="UTF-8"?>
<svg id="Laag_2" data-name="Laag 2" xmlns="http://www.w3.org/2000/svg" viewBox="0 0 164.41 249.45">
  <defs>
    <style>
      .cls-1, .cls-2, .cls-3 {
        stroke-width: 0px;
      }

      .cls-2 {
        fill: #1d1d1b;
      }

      .cls-3 {
        fill: #ececec;
      }
    </style>
  </defs>
  <g id="Laag_1-2" data-name="Laag 1">
    <g>
      <path class="cls-3" d="m26.93,2.5h110.55c13.48,0,24.43,10.95,24.43,24.43v195.59c0,13.48-10.95,24.43-24.43,24.43H26.93c-13.48,0-24.43-10.95-24.43-24.43V26.93C2.5,13.45,13.45,2.5,26.93,2.5Z"/>
      <path class="cls-1" d="m137.48,5c12.09,0,21.93,9.84,21.93,21.93v195.59c0,12.09-9.84,21.93-21.93,21.93H26.93c-12.09,0-21.93-9.84-21.93-21.93V26.93C5,14.84,14.84,5,26.93,5h110.55m0-5H26.93C12.06,0,0,12.06,0,26.93v195.59c0,14.87,12.06,26.93,26.93,26.93h110.55c14.87,0,26.93-12.06,26.93-26.93V26.93c0-14.87-12.06-26.93-26.93-26.93h0Z"/>
    </g>
    <g>
      <path class="cls-2" d="m26.74,42.67c-.79.03-1.55-.08-2.3-.35-.75-.26-1.38-.64-1.87-1.12-.5-.48-.8-1.06-.92-1.75-.12-.69.06-1.45.54-2.28.11.35.29.71.53,1.08.24.37.52.7.85,1s.7.54,1.1.72.84.28,1.31.28c.22,0,.49-.02.8-.07.31-.05.61-.14.9-.29.29-.14.53-.35.73-.61.2-.26.3-.61.3-1.04s-.13-.84-.41-1.21-.6-.72-1-1.03c-.39-.31-.81-.58-1.26-.82-.45-.23-.85-.42-1.2-.56-.82-.38-1.49-.76-2.02-1.14-.53-.38-.95-.77-1.27-1.18-.32-.41-.54-.84-.67-1.28s-.19-.94-.19-1.46c0-.66.12-1.26.37-1.81.25-.55.61-1.03,1.09-1.43.48-.4,1.07-.71,1.76-.94.7-.22,1.49-.34,2.39-.34.64,0,1.31.08,2.02.23.7.15,1.32.41,1.85.77.53.36.91.84,1.14,1.43.23.59.18,1.34-.16,2.23-.18-.43-.43-.8-.76-1.1-.33-.3-.69-.54-1.08-.72-.39-.18-.8-.29-1.22-.35-.42-.06-.83-.06-1.21-.01-.29.05-.57.13-.84.24-.27.11-.52.27-.73.47s-.39.44-.52.72-.18.61-.14,1c.02.38.08.7.19.96.11.26.3.5.55.72.25.22.6.46,1.04.71s1.01.56,1.72.92c.93.48,1.66.94,2.18,1.38.53.44.93.87,1.2,1.3.27.42.45.85.52,1.28.07.43.11.88.11,1.34,0,.56-.14,1.08-.41,1.57-.27.49-.65.92-1.14,1.28s-1.06.66-1.73.89c-.66.22-1.38.35-2.15.38Z"/>
      <path class="cls-2" d="m41.04,42.12c-.46.02-.92-.02-1.37-.11-.45-.09-.86-.23-1.22-.42-.37,1.28-.8,2.4-1.31,3.37-.5.97-1.04,1.63-1.6,1.98.05-.67.08-1.52.11-2.54.02-1.02.04-2.13.05-3.31,0-1.18,0-2.4-.01-3.66s-.04-2.45-.08-3.58c-.04-1.13-.09-2.15-.14-3.06-.06-.91-.12-1.62-.2-2.14,1.02.1,1.86.51,2.5,1.25.38-.37.84-.62,1.38-.76.54-.14,1.11-.18,1.72-.13.85.06,1.64.28,2.36.66.73.38,1.36.87,1.91,1.48.54.61.96,1.32,1.26,2.14.3.82.44,1.69.42,2.62-.02.9-.15,1.72-.41,2.47-.26.75-.62,1.4-1.1,1.94-.48.54-1.08.98-1.79,1.3-.71.32-1.53.49-2.46.5Zm-2.57-11.11c.27.58.48,1.22.61,1.94.13.72.21,1.48.23,2.28.02.8-.02,1.62-.11,2.46s-.22,1.67-.4,2.48c.42.02.86-.02,1.34-.12,1.98-.45,2.95-1.87,2.9-4.27-.02-.59-.1-1.16-.26-1.72s-.39-1.04-.7-1.48c-.3-.43-.68-.79-1.13-1.08-.45-.29-.97-.46-1.56-.53-.37-.03-.68-.02-.94.02Z"/>
      <path class="cls-2" d="m54.72,28.44c1.34,0,2.44.23,3.29.7.85.46,1.5,1.09,1.97,1.88s.77,1.72.92,2.8c.15,1.07.21,2.22.18,3.43-.64.1-1.22.18-1.74.24-.52.06-1.07.12-1.64.16s-1.22.07-1.93.08c-.71.02-1.57.02-2.58.02.06.58.2,1.08.42,1.51.22.43.56.79,1.02,1.08.46.29,1.07.5,1.82.62s1.7.18,2.83.14c-.32.26-.68.48-1.08.66-.4.18-.82.34-1.26.46s-.88.21-1.32.26c-.44.06-.86.07-1.26.04-.72-.05-1.42-.22-2.09-.53s-1.27-.75-1.8-1.33-.95-1.31-1.27-2.17c-.32-.86-.47-1.88-.46-3.05.02-1.2.2-2.24.56-3.12.36-.88.82-1.61,1.39-2.18s1.2-1,1.91-1.28c.7-.28,1.41-.42,2.11-.42Zm.5,1.92c-.42,0-.78.09-1.08.26-.3.18-.56.48-.76.9s-.34,1-.43,1.73c-.09.73-.12,1.65-.08,2.77h2.24c.74,0,1.55-.02,2.41-.05.11-1.94-.06-3.36-.52-4.27-.46-.91-1.05-1.36-1.79-1.34Z"/>
      <path class="cls-2" d="m64.54,42.86c.05-.67.08-1.48.11-2.44s.04-1.97.05-3.06c0-1.09,0-2.2-.01-3.32-.02-1.13-.04-2.2-.08-3.23-.04-1.02-.09-1.96-.14-2.8s-.12-1.52-.2-2.03c.85,0,1.55.22,2.1.65.55.43.98,1,1.28,1.7.3.7.5,1.52.58,2.44.08.92.08,1.88,0,2.87s-.24,1.98-.48,2.96c-.24.98-.52,1.9-.85,2.74s-.69,1.57-1.09,2.2-.82,1.06-1.25,1.32Z"/>
      <path class="cls-2" d="m72.24,42.74c.06-1.01.11-2.16.14-3.47.03-1.3.04-2.62.01-3.94-.02-1.32-.07-2.57-.14-3.76-.07-1.18-.17-2.15-.28-2.9.7,0,1.3.12,1.79.36.49.24.89.57,1.21.98.69-.83,1.69-1.25,3-1.25.64,0,1.2.09,1.67.28s.87.43,1.19.73c.32.3.56.66.72,1.06.16.4.24.82.24,1.27,0,.67-.18,1.37-.53,2.09-.35.72-.86,1.38-1.54,1.97.06-1.14.02-2.06-.12-2.77-.14-.71-.37-1.26-.67-1.66-.3-.39-.67-.66-1.09-.8-.42-.14-.88-.22-1.36-.22-.42,0-.76.03-1.03.1.27.59.44,1.26.49,2,.05.74.04,1.52-.06,2.32s-.26,1.6-.5,2.39-.52,1.53-.85,2.22c-.33.69-.69,1.3-1.08,1.82-.39.53-.8.92-1.21,1.18Z"/>
      <path class="cls-2" d="m89.74,28.44c1.34,0,2.44.23,3.29.7.85.46,1.5,1.09,1.97,1.88.46.79.77,1.72.92,2.8.15,1.07.21,2.22.18,3.43-.64.1-1.22.18-1.74.24-.52.06-1.07.12-1.64.16s-1.22.07-1.93.08c-.71.02-1.57.02-2.58.02.06.58.2,1.08.42,1.51.22.43.55.79,1.02,1.08.46.29,1.07.5,1.82.62s1.7.18,2.83.14c-.32.26-.68.48-1.08.66-.4.18-.82.34-1.26.46-.44.12-.88.21-1.32.26-.44.06-.86.07-1.26.04-.72-.05-1.42-.22-2.09-.53s-1.27-.75-1.8-1.33c-.53-.58-.95-1.31-1.27-2.17-.32-.86-.47-1.88-.46-3.05.02-1.2.2-2.24.56-3.12.36-.88.82-1.61,1.39-2.18s1.2-1,1.91-1.28c.7-.28,1.41-.42,2.11-.42Zm.5,1.92c-.42,0-.78.09-1.08.26-.3.18-.56.48-.76.9-.2.42-.34,1-.43,1.73-.09.73-.12,1.65-.08,2.77h2.24c.74,0,1.55-.02,2.41-.05.11-1.94-.06-3.36-.52-4.27-.46-.91-1.05-1.36-1.79-1.34Z"/>
      <path class="cls-2" d="m106.61,42.74c.08-.18.15-.35.2-.53.06-.18.12-.36.18-.55-.37.18-.76.3-1.19.37-.42.07-.85.1-1.28.08-.94-.02-1.78-.18-2.52-.48s-1.36-.73-1.87-1.28c-.51-.55-.91-1.22-1.19-1.99-.28-.78-.43-1.64-.44-2.58-.02-.96.1-1.85.34-2.66.24-.82.59-1.52,1.06-2.12.46-.6,1.04-1.08,1.74-1.43.7-.35,1.49-.55,2.39-.6.8-.03,1.54.08,2.21.35s1.18.7,1.54,1.31c-.03-.43-.07-.85-.12-1.26-.05-.41-.1-.8-.14-1.16.77.37,1.38.94,1.85,1.73s.82,1.66,1.06,2.63.39,1.96.44,2.99c.06,1.02.06,1.95.01,2.78-.03.74-.11,1.48-.23,2.23-.12.75-.29,1.47-.52,2.15-.22.68-.52,1.32-.88,1.91-.36.59-.8,1.1-1.32,1.51-.52.42-1.13.73-1.82.94-.7.21-1.5.27-2.41.19-1.14-.1-1.98-.45-2.53-1.07-.55-.62-.88-1.37-.97-2.27.51.53,1.02.88,1.53,1.04.5.17,1.04.24,1.6.2.74-.03,1.39-.27,1.97-.71.58-.44,1.02-1.01,1.34-1.72Zm-1.39-2.81c.7.19,1.44.22,2.21.1.27-1.36.42-2.8.46-4.31.03-1.51,0-2.97-.07-4.38-.37-.16-.74-.27-1.13-.32-.38-.06-.78-.07-1.2-.04-.56.05-1.04.22-1.43.53-.39.3-.71.68-.95,1.14-.24.46-.41.95-.52,1.49-.1.54-.16,1.05-.16,1.55,0,.43.05.88.16,1.33.1.46.27.88.49,1.26.22.38.51.72.86,1.02s.78.51,1.27.64Z"/>
      <path class="cls-2" d="m119.57,28.44c1.34,0,2.44.23,3.29.7.85.46,1.5,1.09,1.97,1.88.46.79.77,1.72.92,2.8.15,1.07.21,2.22.18,3.43-.64.1-1.22.18-1.74.24-.52.06-1.07.12-1.64.16-.58.04-1.22.07-1.93.08-.71.02-1.57.02-2.58.02.06.58.2,1.08.42,1.51s.56.79,1.02,1.08c.46.29,1.07.5,1.82.62.75.13,1.7.18,2.83.14-.32.26-.68.48-1.08.66-.4.18-.82.34-1.26.46s-.88.21-1.32.26c-.44.06-.86.07-1.26.04-.72-.05-1.42-.22-2.09-.53-.67-.3-1.27-.75-1.8-1.33s-.95-1.31-1.27-2.17c-.32-.86-.47-1.88-.46-3.05.02-1.2.21-2.24.56-3.12.36-.88.82-1.61,1.39-2.18.57-.58,1.2-1,1.91-1.28.7-.28,1.41-.42,2.11-.42Zm.5,1.92c-.42,0-.78.09-1.08.26-.3.18-.56.48-.76.9-.2.42-.34,1-.43,1.73-.09.73-.12,1.65-.08,2.77h2.24c.74,0,1.55-.02,2.41-.05.11-1.94-.06-3.36-.52-4.27-.46-.91-1.05-1.36-1.79-1.34Z"/>
      <path class="cls-2" d="m129.39,42.86c.05-.67.08-1.48.11-2.44s.04-1.97.05-3.06c0-1.09,0-2.2-.01-3.32-.02-1.13-.04-2.2-.08-3.23-.04-1.02-.09-1.96-.14-2.8s-.12-1.52-.2-2.03c.85,0,1.55.22,2.1.65s.98,1,1.28,1.7c.3.7.5,1.52.58,2.44.08.92.08,1.88,0,2.87-.08.99-.24,1.98-.48,2.96-.24.98-.52,1.9-.85,2.74-.33.84-.69,1.57-1.09,2.2s-.82,1.06-1.25,1.32Z"/>
      <path class="cls-2" d="m141.58,28.49c.62-.02,1.27.07,1.94.25.67.18,1.24.47,1.69.85s.74.86.86,1.43c.12.57-.04,1.22-.49,1.96-.13-.26-.29-.51-.49-.77s-.44-.48-.72-.68-.6-.36-.95-.49c-.35-.13-.73-.19-1.13-.19-.21,0-.43.01-.66.04-.23.02-.45.08-.65.17-.2.09-.38.23-.54.42-.16.19-.27.46-.34.79-.08.48.02.87.3,1.16.28.3.64.58,1.09.85.34.19.67.38,1.01.58s.62.34.84.43c.7.35,1.29.68,1.75.97.46.3.83.59,1.1.89s.46.62.58.96c.11.34.17.73.17,1.16,0,1.07-.44,1.96-1.31,2.66-.87.7-2.12,1.06-3.76,1.06-.56,0-1.19-.07-1.9-.22-.71-.14-1.33-.38-1.88-.72-.55-.34-.95-.78-1.2-1.32s-.2-1.22.13-2.02c.42.77,1.02,1.31,1.8,1.62.78.31,1.62.42,2.5.32.26-.03.5-.1.74-.19.24-.1.46-.22.65-.36.19-.14.35-.31.47-.5.12-.19.18-.4.18-.62,0-.42-.11-.77-.32-1.06s-.49-.54-.82-.74c-.33-.21-.68-.39-1.06-.55-.38-.16-.72-.31-1.04-.46-.83-.37-1.48-.72-1.93-1.07s-.8-.69-1.02-1.03c-.22-.34-.36-.7-.41-1.06-.05-.36-.07-.73-.07-1.12,0-.45.12-.88.37-1.28s.59-.76,1.03-1.07c.44-.3.96-.55,1.55-.73.59-.18,1.23-.29,1.92-.32Z"/>
    </g>
    <g>
      <path class="cls-2" d="m26.56,191.51c-.35,0-.64-.3-.64-.65s.29-.62.64-.62h2.84c.62,0,1.02-.42,1.02-.95s-.4-.96-1.02-.96h-1.46c-1.38,0-2.31-.98-2.31-2.22s.94-2.23,2.31-2.23h2.87c.35,0,.64.29.64.64s-.29.64-.64.64h-2.84c-.62,0-1.02.43-1.02.96s.4.95,1.02.95h1.51c1.33,0,2.27,1,2.27,2.23s-.94,2.22-2.31,2.22h-2.87Z"/>
      <path class="cls-2" d="m35.77,191.51c-1.92,0-3.27-1.43-3.27-3.18s1.35-3.18,3.27-3.18h1.32c.35,0,.64.29.64.64s-.29.64-.64.64h-1.32c-1.15,0-1.98.86-1.98,1.91s.83,1.91,1.98,1.91h1.32c.35,0,.64.29.64.64s-.29.64-.64.64h-1.32Z"/>
      <path class="cls-2" d="m40.19,191.51c-1.16,0-1.97-.89-1.97-1.97s.8-1.97,1.97-1.97h1.21c.35,0,.64.29.64.64s-.29.64-.64.64h-1.21c-.4,0-.67.33-.67.7s.28.7.67.7h2.33v-2.69c0-.64-.44-1.13-1.1-1.13h-2.04c-.35,0-.64-.29-.64-.64s.29-.64.64-.64h2.04c1.34,0,2.4,1.07,2.4,2.39v3.32c0,.36-.23.65-.65.65h-2.97Z"/>
      <path class="cls-2" d="m49.28,187.68c0-.68-.56-1.25-1.25-1.25h-1.63v4.53c0,.36-.29.65-.65.65s-.65-.29-.65-.65v-5.16c0-.36.29-.65.65-.65h2.28c1.4,0,2.54,1.14,2.54,2.54v3.26c0,.36-.29.65-.65.65s-.65-.29-.65-.65v-3.29Z"/>
      <path class="cls-2" d="m57.48,191.51c-1.92,0-3.27-1.43-3.27-3.18s1.36-3.18,3.27-3.18h1.48v-1.99c0-.36.29-.65.65-.65s.65.29.65.65v7.7c0,.36-.29.65-.65.65h-2.12Zm1.48-5.08h-1.48c-1.15,0-1.98.86-1.98,1.91s.83,1.91,1.98,1.91h1.48v-3.81Z"/>
      <path class="cls-2" d="m64.51,191.51c-1.92,0-3.27-1.43-3.27-3.18s1.35-3.18,3.27-3.18h.76c1.21,0,2.01.85,2.01,1.91s-.8,1.91-2.01,1.91h-1.21c-.35,0-.64-.29-.64-.64s.29-.63.64-.63h1.21c.43,0,.72-.29.72-.64s-.29-.64-.72-.64h-.76c-1.15,0-1.98.86-1.98,1.91s.83,1.91,1.98,1.91h1.83c.35,0,.64.29.64.64s-.29.64-.64.64h-1.83Z"/>
      <path class="cls-2" d="m74.48,191.66c-2.17-.06-3.86-1.8-3.86-3.96s1.76-3.97,3.98-3.97,3.98,1.78,3.98,3.97c0,1.7-1.05,3.15-2.57,3.72l1.5,1.66c.24.26.23.68-.05.92-.26.24-.68.22-.92-.05l-2.06-2.29Zm2.78-3.96c0-1.5-1.18-2.7-2.66-2.7s-2.66,1.2-2.66,2.7,1.17,2.7,2.66,2.7,2.66-1.2,2.66-2.7Z"/>
      <path class="cls-2" d="m81.79,188.17c-.11-.12-.18-.28-.18-.44,0-.36.3-.66.66-.66h1.35c.59,0,.96-.42.96-.95s-.37-.96-.96-.96h-2.7v5.79c0,.36-.3.66-.66.66s-.66-.3-.66-.66v-6.4c0-.36.3-.66.66-.66h3.37c1.31,0,2.27,1,2.27,2.23s-.92,2.2-2.22,2.21l1.99,2.2c.24.26.23.68-.05.92-.26.24-.68.22-.92-.05l-2.92-3.23Z"/>
      <path class="cls-2" d="m87.15,188.33c-.35,0-.64-.29-.64-.63s.29-.64.64-.64h1.61c.35,0,.64.29.64.64s-.29.63-.64.63h-1.61Z"/>
      <path class="cls-2" d="m93.36,191.51c-1.92,0-3.27-1.43-3.27-3.18s1.35-3.18,3.27-3.18h1.32c.35,0,.64.29.64.64s-.29.64-.64.64h-1.32c-1.15,0-1.98.86-1.98,1.91s.83,1.91,1.98,1.91h1.32c.35,0,.64.29.64.64s-.29.64-.64.64h-1.32Z"/>
      <path class="cls-2" d="m99.1,191.67c-1.98,0-3.37-1.49-3.37-3.33s1.39-3.33,3.37-3.33,3.37,1.49,3.37,3.33-1.4,3.33-3.37,3.33Zm0-5.41c-1.2,0-2.07.94-2.07,2.07s.88,2.08,2.07,2.08,2.08-.94,2.08-2.08-.88-2.07-2.08-2.07Z"/>
      <path class="cls-2" d="m106.54,191.51c-1.92,0-3.27-1.43-3.27-3.18s1.36-3.18,3.27-3.18h1.48v-1.99c0-.36.29-.65.65-.65s.65.29.65.65v7.7c0,.36-.29.65-.65.65h-2.12Zm1.48-5.08h-1.48c-1.15,0-1.98.86-1.98,1.91s.83,1.91,1.98,1.91h1.48v-3.81Z"/>
      <path class="cls-2" d="m113.57,191.51c-1.92,0-3.27-1.43-3.27-3.18s1.35-3.18,3.27-3.18h.76c1.21,0,2.01.85,2.01,1.91s-.8,1.91-2.01,1.91h-1.21c-.35,0-.64-.29-.64-.64s.29-.63.64-.63h1.21c.43,0,.72-.29.72-.64s-.29-.64-.72-.64h-.76c-1.15,0-1.98.86-1.98,1.91s.83,1.91,1.98,1.91h1.83c.35,0,.64.29.64.64s-.29.64-.64.64h-1.83Z"/>
      <path class="cls-2" d="m122.93,191.51c-1.92,0-3.27-1.43-3.27-3.18s1.36-3.18,3.27-3.18h.76c1.21,0,2.01.85,2.01,1.91s-.8,1.91-2.01,1.91h-1.21c-.35,0-.64-.29-.64-.64s.29-.63.64-.63h1.21c.43,0,.72-.29.72-.64s-.29-.64-.72-.64h-.76c-1.15,0-1.98.86-1.98,1.91s.83,1.91,1.98,1.91h1.83c.35,0,.64.29.64.64s-.29.64-.64.64h-1.83Z"/>
      <path class="cls-2" d="m130.86,187.68c0-.68-.56-1.25-1.25-1.25h-1.63v4.53c0,.36-.29.65-.65.65s-.65-.29-.65-.65v-5.16c0-.36.29-.65.65-.65h2.28c1.4,0,2.54,1.14,2.54,2.54v3.26c0,.36-.29.65-.65.65s-.65-.29-.65-.65v-3.29Z"/>
      <path class="cls-2" d="m26.13,205.91c-.36,0-.65-.29-.65-.65v-7.7c0-.36.29-.65.65-.65s.65.29.65.65v1.99h1.47c1.92,0,3.27,1.43,3.27,3.18s-1.36,3.18-3.27,3.18h-2.12Zm2.12-1.27c1.15,0,1.98-.86,1.98-1.91s-.83-1.91-1.98-1.91h-1.47v3.81h1.47Z"/>
      <path class="cls-2" d="m35.6,205.91c-1.92,0-3.27-1.43-3.27-3.18s1.35-3.18,3.27-3.18h.76c1.21,0,2.01.85,2.01,1.91s-.8,1.91-2.01,1.91h-1.21c-.35,0-.64-.29-.64-.64s.29-.63.64-.63h1.21c.43,0,.72-.29.72-.64s-.29-.64-.72-.64h-.76c-1.15,0-1.98.86-1.98,1.91s.83,1.91,1.98,1.91h1.83c.35,0,.64.29.64.64s-.29.64-.64.64h-1.83Z"/>
      <path class="cls-2" d="m40.65,202.86v2.51c0,.36-.29.65-.65.65s-.65-.29-.65-.65v-7.8c0-.36.29-.65.65-.65s.65.29.65.65v5.05l2.96-2.96c.25-.25.65-.25.9,0,.24.25.24.65,0,.9l-2.18,2.18,2.18,2.18c.25.25.24.65,0,.9-.25.25-.65.25-.9,0l-2.96-2.96Z"/>
      <path class="cls-2" d="m46.17,198.5c-.44,0-.8-.35-.8-.79s.36-.79.8-.79.8.35.8.79-.36.79-.8.79Zm-.65,1.61c0-.36.29-.65.65-.65s.65.29.65.65v5.25c0,.36-.29.65-.65.65s-.65-.29-.65-.65v-5.25Z"/>
      <path class="cls-2" d="m46.38,208.46c-.35,0-.64-.29-.64-.64s.29-.64.64-.64h.25c1.08,0,1.49-.56,1.49-1.63v-5.45c0-.36.29-.65.65-.65s.65.29.65.65v5.43c0,1.79-.91,2.92-2.77,2.92h-.26Zm2.39-9.96c-.44,0-.8-.35-.8-.79s.36-.79.8-.79.8.35.8.79-.36.79-.8.79Z"/>
      <path class="cls-2" d="m52,202.86v2.51c0,.36-.29.65-.65.65s-.65-.29-.65-.65v-7.8c0-.36.29-.65.65-.65s.65.29.65.65v5.05l2.96-2.96c.25-.25.65-.25.9,0,.24.25.24.65,0,.9l-2.18,2.18,2.18,2.18c.25.25.24.65,0,.9-.25.25-.65.25-.9,0l-2.96-2.96Z"/>
      <path class="cls-2" d="m62.48,205.91c-1.92,0-3.27-1.43-3.27-3.18s1.36-3.18,3.27-3.18h1.48v-1.99c0-.36.29-.65.65-.65s.65.29.65.65v7.7c0,.36-.29.65-.65.65h-2.12Zm1.48-5.08h-1.48c-1.15,0-1.98.86-1.98,1.91s.83,1.91,1.98,1.91h1.48v-3.81Z"/>
      <path class="cls-2" d="m69.51,205.91c-1.92,0-3.27-1.43-3.27-3.18s1.35-3.18,3.27-3.18h.76c1.21,0,2.01.85,2.01,1.91s-.8,1.91-2.01,1.91h-1.21c-.35,0-.64-.29-.64-.64s.29-.63.64-.63h1.21c.43,0,.72-.29.72-.64s-.29-.64-.72-.64h-.76c-1.15,0-1.98.86-1.98,1.91s.83,1.91,1.98,1.91h1.83c.35,0,.64.29.64.64s-.29.64-.64.64h-1.83Z"/>
      <path class="cls-2" d="m76.41,205.91c-.35,0-.64-.29-.64-.64s.29-.64.64-.64h2.69c.43,0,.72-.29.72-.64s-.29-.64-.72-.64h-1.49c-1.21,0-2.01-.85-2.01-1.91s.8-1.91,2.01-1.91h2.69c.35,0,.64.29.64.64s-.29.64-.64.64h-2.69c-.43,0-.72.29-.72.64s.29.64.72.64h1.49c1.21,0,2.02.85,2.02,1.91s-.8,1.91-2.02,1.91h-2.69Z"/>
      <path class="cls-2" d="m83.39,205.91v1.99c0,.36-.29.65-.65.65s-.65-.29-.65-.65v-7.7c0-.36.29-.65.65-.65h2.12c1.92,0,3.27,1.43,3.27,3.18s-1.36,3.18-3.27,3.18h-1.48Zm1.48-1.27c1.15,0,1.98-.86,1.98-1.91s-.83-1.91-1.98-1.91h-1.48v3.81h1.48Z"/>
      <path class="cls-2" d="m92.21,205.91c-1.92,0-3.27-1.43-3.27-3.18s1.35-3.18,3.27-3.18h.76c1.21,0,2.01.85,2.01,1.91s-.8,1.91-2.01,1.91h-1.21c-.35,0-.64-.29-.64-.64s.29-.63.64-.63h1.21c.43,0,.72-.29.72-.64s-.29-.64-.72-.64h-.76c-1.15,0-1.98.86-1.98,1.91s.83,1.91,1.98,1.91h1.83c.35,0,.64.29.64.64s-.29.64-.64.64h-1.83Z"/>
      <path class="cls-2" d="m95.97,197.57c0-.36.29-.65.65-.65s.65.29.65.65v7.8c0,.36-.29.65-.65.65s-.65-.29-.65-.65v-7.8Z"/>
      <path class="cls-2" d="m103.43,202.04c0,.36-.29.65-.65.65s-.65-.29-.65-.64v-.08c0-.63-.47-1.14-1.14-1.14h-1.14v4.53c0,.36-.29.65-.65.65s-.65-.29-.65-.65v-5.16c0-.36.29-.65.65-.65h1.79c1.37,0,2.43,1.09,2.43,2.41v.07Z"/>
      <path class="cls-2" d="m107.41,205.91c-1.92,0-3.27-1.43-3.27-3.18s1.35-3.18,3.27-3.18h.76c1.21,0,2.01.85,2.01,1.91s-.8,1.91-2.01,1.91h-1.21c-.35,0-.64-.29-.64-.64s.29-.63.64-.63h1.21c.43,0,.72-.29.72-.64s-.29-.64-.72-.64h-.76c-1.15,0-1.98.86-1.98,1.91s.83,1.91,1.98,1.91h1.83c.35,0,.64.29.64.64s-.29.64-.64.64h-1.83Z"/>
      <path class="cls-2" d="m112.47,208.46c-.35,0-.64-.29-.64-.64s.29-.64.64-.64h2.28c.54,0,.97-.43.97-.97v-.3h-1.48c-1.92,0-3.27-1.43-3.27-3.18s1.35-3.18,3.27-3.18h2.12c.36,0,.65.29.65.65v6.01c0,1.24-1.01,2.24-2.24,2.24h-2.3Zm3.25-7.63h-1.48c-1.15,0-1.98.86-1.98,1.91s.83,1.91,1.98,1.91h1.48v-3.81Z"/>
      <path class="cls-2" d="m121.28,205.91c-1.92,0-3.27-1.43-3.27-3.18s1.35-3.18,3.27-3.18h.76c1.21,0,2.01.85,2.01,1.91s-.8,1.91-2.01,1.91h-1.21c-.35,0-.64-.29-.64-.64s.29-.63.64-.63h1.21c.43,0,.72-.29.72-.64s-.29-.64-.72-.64h-.76c-1.15,0-1.98.86-1.98,1.91s.83,1.91,1.98,1.91h1.83c.35,0,.64.29.64.64s-.29.64-.64.64h-1.83Z"/>
      <path class="cls-2" d="m125.04,197.57c0-.36.29-.65.65-.65s.65.29.65.65v7.8c0,.36-.29.65-.65.65s-.65-.29-.65-.65v-7.8Z"/>
      <path class="cls-2" d="m128.13,205.91c-.35,0-.64-.29-.64-.64s.29-.64.64-.64h2.69c.43,0,.72-.29.72-.64s-.29-.64-.72-.64h-1.49c-1.21,0-2.01-.85-2.01-1.91s.8-1.91,2.01-1.91h2.69c.35,0,.64.29.64.64s-.29.64-.64.64h-2.69c-.43,0-.72.29-.72.64s.29.64.72.64h1.49c1.21,0,2.01.85,2.01,1.91s-.8,1.91-2.01,1.91h-2.69Z"/>
      <path class="cls-2" d="m38.65,220.47c-1.98,0-3.37-1.49-3.37-3.33s1.39-3.33,3.37-3.33,3.37,1.49,3.37,3.33-1.4,3.33-3.37,3.33Zm0-5.41c-1.2,0-2.07.94-2.07,2.07s.88,2.08,2.07,2.08,2.08-.94,2.08-2.08-.88-2.07-2.08-2.07Z"/>
      <path class="cls-2" d="m44.31,220.31v1.99c0,.36-.29.65-.65.65s-.65-.29-.65-.65v-7.7c0-.36.29-.65.65-.65h2.12c1.92,0,3.27,1.43,3.27,3.18s-1.36,3.18-3.27,3.18h-1.47Zm1.47-1.27c1.15,0,1.98-.86,1.98-1.91s-.83-1.91-1.98-1.91h-1.47v3.81h1.47Z"/>
      <path class="cls-2" d="m55.74,220.47c-1.98,0-3.37-1.49-3.37-3.33s1.39-3.33,3.37-3.33,3.37,1.49,3.37,3.33-1.4,3.33-3.37,3.33Zm0-5.41c-1.2,0-2.07.94-2.07,2.07s.88,2.08,2.07,2.08,2.08-.94,2.08-2.08-.88-2.07-2.08-2.07Z"/>
      <path class="cls-2" d="m64.27,216.48c0-.68-.56-1.25-1.25-1.25h-1.63v4.53c0,.36-.29.65-.65.65s-.65-.29-.65-.65v-5.16c0-.36.29-.65.65-.65h2.28c1.4,0,2.54,1.14,2.54,2.54v3.26c0,.36-.29.65-.65.65s-.65-.29-.65-.65v-3.29Z"/>
      <path class="cls-2" d="m67.27,220.31c-.35,0-.64-.28-.64-.62,0-.14.06-.32.19-.48l3.27-3.98h-2.72c-.35,0-.64-.29-.64-.64s.29-.64.64-.64h4.03c.35,0,.62.28.62.62,0,.16-.06.32-.19.48l-3.27,3.98h2.71c.35,0,.64.29.64.64s-.29.64-.64.64h-4.01Z"/>
      <path class="cls-2" d="m75.59,220.31c-1.92,0-3.27-1.43-3.27-3.18s1.35-3.18,3.27-3.18h.76c1.21,0,2.01.85,2.01,1.91s-.8,1.91-2.01,1.91h-1.21c-.35,0-.64-.29-.64-.64s.29-.63.64-.63h1.21c.43,0,.72-.29.72-.64s-.29-.64-.72-.64h-.76c-1.15,0-1.98.86-1.98,1.91s.83,1.91,1.98,1.91h1.83c.35,0,.64.29.64.64s-.29.64-.64.64h-1.83Z"/>
      <path class="cls-2" d="m89.33,214.51c0-.36.29-.65.65-.65s.65.29.65.65v3.53c0,1.34-1.09,2.43-2.43,2.43-.76,0-1.44-.35-1.88-.89-.44.54-1.13.89-1.88.89-1.34,0-2.44-1.09-2.44-2.43v-3.53c0-.36.29-.65.65-.65s.65.29.65.65v3.55c0,.65.54,1.19,1.19,1.19s1.19-.54,1.19-1.19v-3.55c0-.36.29-.65.65-.65s.65.29.65.65v3.55c0,.65.54,1.19,1.19,1.19s1.19-.54,1.19-1.19v-3.55Z"/>
      <path class="cls-2" d="m94.88,220.31c-1.92,0-3.27-1.43-3.27-3.18s1.36-3.18,3.27-3.18h.76c1.21,0,2.01.85,2.01,1.91s-.8,1.91-2.01,1.91h-1.21c-.35,0-.64-.29-.64-.64s.29-.63.64-.63h1.21c.43,0,.72-.29.72-.64s-.29-.64-.72-.64h-.76c-1.15,0-1.98.86-1.98,1.91s.83,1.91,1.98,1.91h1.83c.35,0,.64.29.64.64s-.29.64-.64.64h-1.83Z"/>
      <path class="cls-2" d="m99.29,220.31c-.36,0-.65-.29-.65-.65v-7.7c0-.36.29-.65.65-.65s.65.29.65.65v1.99h1.48c1.92,0,3.27,1.43,3.27,3.18s-1.36,3.18-3.27,3.18h-2.12Zm2.12-1.27c1.15,0,1.98-.86,1.98-1.91s-.83-1.91-1.98-1.91h-1.48v3.81h1.48Z"/>
      <path class="cls-2" d="m106.18,220.31c-.35,0-.64-.29-.64-.64s.29-.64.64-.64h2.69c.43,0,.72-.29.72-.64s-.29-.64-.72-.64h-1.49c-1.21,0-2.01-.85-2.01-1.91s.8-1.91,2.01-1.91h2.69c.35,0,.64.29.64.64s-.29.64-.64.64h-2.69c-.43,0-.72.29-.72.64s.29.64.72.64h1.49c1.21,0,2.02.85,2.02,1.91s-.8,1.91-2.02,1.91h-2.69Z"/>
      <path class="cls-2" d="m112.51,212.9c-.44,0-.8-.35-.8-.79s.36-.79.8-.79.8.35.8.79-.36.79-.8.79Zm-.65,1.61c0-.36.29-.65.65-.65s.65.29.65.65v5.25c0,.36-.29.65-.65.65s-.65-.29-.65-.65v-5.25Z"/>
      <path class="cls-2" d="m117.56,220.31c-1.24,0-2.24-1.01-2.24-2.24v-2.84h-.76c-.35,0-.63-.29-.63-.64s.29-.64.63-.64h.76v-1.27c0-.36.29-.65.65-.65s.65.29.65.65v1.27h1.67c.35,0,.64.29.64.64s-.29.64-.64.64h-1.67v2.85c0,.54.41.96.96.96h.71c.35,0,.64.29.64.64s-.29.64-.64.64h-.72Z"/>
      <path class="cls-2" d="m122.59,220.31c-1.92,0-3.27-1.43-3.27-3.18s1.36-3.18,3.27-3.18h.76c1.21,0,2.01.85,2.01,1.91s-.8,1.91-2.01,1.91h-1.21c-.35,0-.64-.29-.64-.64s.29-.63.64-.63h1.21c.43,0,.72-.29.72-.64s-.29-.64-.72-.64h-.76c-1.15,0-1.98.86-1.98,1.91s.83,1.91,1.98,1.91h1.83c.35,0,.64.29.64.64s-.29.64-.64.64h-1.83Z"/>
    </g>
    <g>
      <path class="cls-1" d="m89.32,168.45v-7.18h-7.06v3.53h-7.39v3.68h-3.91v-3.54h-6.9v3.51h-3.89v-14.59h7.25v3.3h3.43v-6.77h-7.02v-7.35h-3.65v-3.93h3.8v3.54h3.21v-3.52h3.89v3.82h-3.52v3.4h14.35v-7.22h11.3v3.79h-3.54v3.46h3.56v3.65h3.21v-7.25h3.66v-11h3.95v3.52h3.42v-3.59h7.39v-7.06h3.89v7.25h-3.52v3.46h14.38v3.61h3.4v-6.98h-10.66v-7.39h3.3v-3.71h3.68v-3.42h-3.6v-3.67h-3.17v7.24h-11.28v-3.53h-3.46v10.67h-11.08v3.71h-3.42v3.65h-7.64v-3.56h-7.39v-7.15h-3.66v-3.64h-3.42v3.58h-3.68v3.17h3.59v3.71h3.62v3.89h-7.5v-3.52h-3.17v3.53h-7.39v3.68h-7.6v-7.22h-3.46v3.55h-7.39v3.68h-3.62v-3.86h3.29v-10.54h-3.33v-3.66h-3.65v-3.95h3.55v-3.65h3.68v3.8h-3.3v3.43h6.72v-10.7h-3.5v-3.95h3.54v-3.66h3.71v-3.71h3.66v-3.46h3.71v-3.62h3.95v3.54h3.42v-3.56h3.91v6.97h3.21v-18.05h3.65v-3.43h-6.75v3.55h-3.92v-11.19h3.55v-3.17h-3.53v-3.93h3.79v3.54h3.21v-3.51h3.95v3.53h3.42v-3.55h3.95v3.57h3.66v7.07h3.46v-3.54h3.66v-3.4h3.95v3.27h3.21v-3.32h3.66v-3.64h3.91v3.58h3.68v7.31h-3.84v-6.96h-3.42v3.36h-3.68v7.1h7.24v3.95h-3.53v7.08h3.29v-3.53h3.95v7.24h3.65v11.08h-3.52v3.46h3.57v7.35h3.66v3.63h3.46v-7.21h11.04v7.28h7.36v3.91h-3.55v3.46h3.52v14.72h-3.53v7.39h-3.68v3.42h7.22v3.95h-3.51v3.21h3.53v7.59h-3.61v3.67h-3.91v-3.56h-3.42v3.53h-3.71v-7.2h-3.46v3.56h-3.66v3.62h-25.87Zm0-76.51h-3.46v7.12h-3.58v6.98h3.4v-3.61h3.7v-3.61h3.91v3.68h3.46v7.35h3.7v7.28h6.99v-3.43h-3.65v-11.03h-3.7v-7.14h-3.54v-3.91h3.53v-3.46h-3.64v-3.57h-3.21v3.65h-3.56v3.46h3.54v3.8h-3.88v-3.54Zm-36.3,35.97h7.1v-3.37h7.15v-3.71h3.55v-10.68h-10.53v7.31h-7.23v3.46h3.5v3.91h-3.54v3.08Zm72.63,26.22h-21.63v3.4h-3.54v6.99h14.45v-3.62h3.7v-3.7h7.02v-3.08Zm-43.65-55.44v-18.15h3.57v-3.46h-3.64v-3.57h-3.46v7.33h-3.57v3.46h3.64v14.39h3.45Zm36.52,40.68h-10.67v10.65h10.67v-10.65Zm-25.55-29.38h-11.05v-3.55h-3.46v7.34h-3.55v6.99h3.4v-3.62h3.7v-3.7h10.95v-3.45Zm-3.64,7.49h-7.14v3.67h-3.61v3.41h3.67v3.36h3.41v-3.43h7.29v-3.41h-3.63v-3.61Zm-43.69-4.09h10.7v-3.38h-3.52v-3.95h3.5v-3.46h-3.65v-3.53h-3.45v11.02h-3.57v3.29Zm39.93,40.42v-7.05h-3.4v3.61h-7.24v6.76h3.4v-3.32h7.24Zm43.76-7.41v-7.02h-6.72v10.66h3.13v-3.64h3.58Zm-76.67-25.21h-10.66v3.29h10.66v-3.29Zm51.11,32.54v-10.67h-3.28v10.67h3.28Zm-32.52-51.03v7.01h3.37v-3.61h3.57v-3.39h-6.93Zm3.35-25.89v-3.67h3.61v-3.32h-6.98v6.99h3.37Zm25.52,44.3v-3.61h-3.32v6.99h6.96v-3.38h-3.64Zm-43.42-18.74h6.99v-3.29h-6.99v3.29Zm17.86-17.77h-3.33v6.93h3.33v-6.93Zm-.06,79.96v-6.97h-3.29v6.97h3.29Zm55.22-7.02v6.97h3.29v-6.97h-3.29Zm3.29-29.6v-3.07h-6.97v3.07h6.97Zm-47.07,29.21h6.97v-3.04h-6.97v3.04Zm3.73-87.36v3.33h3.28v-3.33h-3.28Zm-47.7,58.5v3.3h3.28v-3.3h-3.28Zm21.78.02h-3.33v3.26h3.33v-3.26Zm29.19,3.34v-3.33h-3.26v3.33h3.26Zm-39.93,3.64h3.31v-3.29h-3.31v3.29Zm39.93-29.24v-3.29h-3.3v3.29h3.3Zm-3.66-21.5h-3.3v3.28h3.3v-3.28Zm-10.67,72.98v3.29h3.29v-3.29h-3.29Zm-21.87-51.12v3.29h3.29v-3.29h-3.29Zm17.8-10.78h-3.29v3.05h3.29v-3.05Zm-21.49-.03v3.04h3.3v-3.04h-3.3Zm47.02,61.57v-3.04h-3.29v3.04h3.29Zm-32.92,3.72v-3.33h-3.03v3.33h3.03Zm29.27-36.01h-3.09v3.03h3.09v-3.03Z"/>
      <path class="cls-1" d="m30.96,168.37v-25.43h25.4v25.43h-25.4Zm3.67-21.81v18.19h18.14v-18.19h-18.14Z"/>
      <path class="cls-1" d="m111.48,62.47h25.4v25.41h-25.4v-25.41Zm21.78,3.66h-18.14v18.12h18.14v-18.12Z"/>
      <path class="cls-1" d="m30.97,87.86v-25.38h25.37v25.38h-25.37Zm21.84-21.68h-18.19v18.06h18.19v-18.06Z"/>
      <path class="cls-1" d="m114.99,95.28h3.57v-3.57h11.07v3.54h3.41v-3.55h3.92v3.82h-3.62v10.79h-3.9v-10.68h-3.45v7.01h-7.14v3.67h-3.86v-11.03Zm3.9.32v3.07h3.3v-3.07h-3.3Z"/>
      <path class="cls-1" d="m45.56,91.73v3.78h-3.64v3.43h-3.9v-3.3h-3.21v3.27h-3.89v-7.18h14.64Z"/>
      <path class="cls-1" d="m60.18,84.3h3.77v3.82h-3.77v-3.82Z"/>
      <path class="cls-1" d="m34.72,128.09v3.78h-3.78v-3.78h3.78Z"/>
      <path class="cls-1" d="m63.84,117.35v-3.79h3.53v3.79h-3.53Z"/>
      <path class="cls-1" d="m111.39,161.12h-3.78v-3.8h3.78v3.8Z"/>
      <path class="cls-1" d="m111.3,142.8h3.78v3.78h-3.78v-3.78Z"/>
      <path class="cls-1" d="m49.08,150.24v10.86h-10.79v-10.86h10.79Z"/>
      <path class="cls-1" d="m129.59,69.85v10.74h-10.9v-10.74h10.9Z"/>
      <path class="cls-1" d="m38.26,80.6v-10.79h10.84v10.79h-10.84Z"/>
    </g>
  </g>
</svg>