<?xml version="1.0" encoding="UTF-8"?>
<svg id="Laag_2" data-name="Laag 2" xmlns="http://www.w3.org/2000/svg" viewBox="0 0 132.21 57.83">
  <defs>
    <style>
      .cls-1 {
        fill: #fff;
      }

      .cls-1, .cls-2, .cls-3, .cls-4, .cls-5, .cls-6, .cls-7 {
        stroke: #1d1d1b;
        stroke-miterlimit: 10;
      }

      .cls-2 {
        fill: #c68e78;
      }

      .cls-3 {
        fill: #a6a6a5;
      }

      .cls-4 {
        fill: #8f9ecc;
      }

      .cls-5 {
        fill: #8082b8;
      }

      .cls-6 {
        fill: #161416;
      }

      .cls-7 {
        fill: #151514;
      }

      .cls-8 {
        fill: #1d1d1b;
        stroke-width: 0px;
      }
    </style>
  </defs>
  <g id="Laag_1-2" data-name="Laag 1">
    <g>
      <g>
        <path class="cls-6" d="m131.71,35.03v-2.81c-.17-.24-.76.78-.61-.19.16-1.1.03-2.12-.2-3.17-.07-.33.11-.73.18-1.1-.31,0-.57-.13-.62-.49-.1-.77-.16-1.55-.23-2.33-.21-.03-.52.14-.5-.34.03-.42.03-.85.04-1.27h0c-.07-.16-.14-.32-.21-.47h0c-.65.04-1.09-.25-1.28-.95-.22-.16-.21-.31,0-.47.02-.58-.79-.9-.44-1.59-.1-.36-.33-.6-.62-.78-.77.38-.6-.28-.65-.7-.07-.07-.14-.14-.21-.22-1.14.58-1.2-.48-1.5-1.17-.65.37-1.35-.33-2,.12-.06.04-.26-.03-.26-.07-.21-1.45-1.11-.89-1.86-.76-.21.03-.32-.12-.38-.32-.11-.04-.19-.11-.25-.2-2.3,1.19-4.75,2.01-7.13,3.03-1.44.62-2.96,1.23-4.5,1.48.23.13.42.37.49.71.17.03.34.05.4.27.25.09.58-.49.62-.13.08.58,1.26.43.68,1.32,2.6,3.37,3.74,7.36,4.12,11.66.05.12.11.24.16.36,0,1.44,0,2.88,0,4.31.42.47.26.85-.17,1.17l-.1.67c.32,1.36-.27,2.53-.67,3.74-.11.34-.32.61-.73.39-.05.05-.1.09-.16.14-.15.9-.81,1.46-1.38,2.23.45-.06.77-.07,1.07-.15,2.46-.64,5.16-.36,7.28-2.27.13-.11.38-.21.5-.15,1.03.5,1.9-.26,2.85-.32.35-.02.87-.66,1.16.14.75.06,1.28-.67,2.03-.67,1.97,0,3.47-1.33,4.02-3.48-.39-.39-.34-.63.19-.7,0-.19-.01-.38.16-.5,0-.22.02-.45.03-.68.06-.09.12-.17.18-.26.02-.15.04-.31.05-.46-.37-.35-.32-.59.16-.71.02-.15.04-.3.06-.45-.35-.54-.51-1.04.18-1.42Zm-1.8-8.65c-.04-.08-.11-.16-.11-.24,0-.09.07-.17.1-.26.03.1.07.2.09.28-.04.09-.06.16-.09.22Z"/>
        <path class="cls-6" d="m101.42,22.03c-1.86,0-2.8-1.54-2.84-3.11-.1-.17-.19-.34-.28-.52.25,1.28.44,2.58.6,3.88.11.96.43,1.22,1.24.76.37-.21.8-.29,1.21-.43.08-.13.17-.27.25-.4.05,0,.09-.01.12-.05.07-.01.13-.02.2-.03.04-.06.08-.11.11-.16-.19.04-.39.06-.61.06Z"/>
        <path class="cls-6" d="m15.22,53.21c-3.07-.21-6.16-.12-9.22-.58-.84-.13-1.56-.4-2.1-1.12.04-1.68-.53-2.56-1.71-2.65,0,0,0,.01,0,.01-.01-.19-.02-.39-.21-.49h0c-.02-.13-.04-.26-.05-.39-.05-.02-.09-.06-.11-.12.24-1.25.12-2.39-.88-3.23-.01-.15-.03-.31-.04-.46,1.07-.61.52-1.67.65-2.57-.38.09,0,.6-.35.66-.34-.51.43-1.54-.72-1.6v-1.87c.75-1.09.56-2.31.4-3.52.02-.15.03-.31.05-.46.36-.11.72-.22,1.11-.34-.39-.47-.75-1.15-.41-1.48.6-.57.17-1.01.11-1.51-.05-.34.08-.62.26-.88.06-.1.11-.2.17-.31-.02-.07,0-.12.05-.16.68-.94,1.75-1.63,1.68-3.06h0c.57.09.71-.25.64-.79.04-.05.09-.1.13-.15.85-.21,1.75-.35,1.82-1.61,0,0,0,0,0,0,.99.04,1.99-.13,2.97.21.67.23,1.12-.54,1.81-.47,2.04.23,4.1.34,6.14.54,1.9.19,3.8.44,5.7.65.35.04.71.12,1.05.14.78.04.4.49.34.85-1.09.29-1.32,1.4-1.7,2.28-1.6,3.7-2.14,7.69-2.31,11.72-.15,3.74.1,7.46,1.69,10.9-.06.8.75,1.1.87,1.99-1.4,0-2.8.05-4.19-.01-1.15-.05-2.34.31-3.44-.32-.02-.01-.13.16-.2.25Z"/>
        <path class="cls-7" d="m.5,40.65c1.15.06.38,1.09.72,1.6.34-.06-.04-.57.35-.66-.13.9.42,1.96-.65,2.57-.42-.46.06-1.2-.41-1.65v-1.87Z"/>
        <path class="cls-7" d="m131.71,32.22c-.17-.24-.76.78-.61-.19.16-1.1.03-2.12-.2-3.17-.07-.34.11-.74.18-1.12.47.88.17,1.96.63,2.84v1.64Z"/>
        <path class="cls-7" d="m.9,35.26c.16,1.21.35,2.43-.4,3.52v-1.87c.48-.45-.01-1.18.4-1.65Z"/>
        <path class="cls-7" d="m131.52,36.46c-.35-.54-.51-1.04.18-1.42v1.4c-.06,0-.12.01-.18.02Z"/>
        <path class="cls-2" d="m29.28,27.87c.73.13,1.46.28,2.2.4,2.34.36,4.18-.88,6.02-2.2,1.6-1.15,3.39-.71,5.08-.53,2.63.29,5.01,1.39,7.11,3.2,2.77,2.39,6.05,3.62,9.32,4.88.25.32.6.4.95.48.91.66,1.88,1.19,2.66,2.1.55.64.55,1.18.29,1.93-.67,1.96-2.08,2.64-3.82,2.73-1.49.07-2.96-.17-4.38-.71-.18-.09-.36-.18-.54-.27-.87-.57-1.81-1.01-2.7-1.56-1.59-.98-1.59-.9-2.15,1.17-.24.88-.16,1.42.65,1.86.69.37,1.29.96,1.93,1.45.15.13.3.26.45.39.47.68.88,1.55,1.57,1.83,1.37.54,2.44,1.52,3.64,2.31,1.75,1.15,3.75,1.65,5.75,2.05,1.99.9,3.03.63,4.43-1.03,1.31-1.55,2.38-3.35,3.9-4.7-.23,2.21-.93,4.19-2.41,5.79-.22.23-.58.48-.46.86.14.45.47-.02.74.06,1.21.36,2.35.84,3.32,1.72.33.3.6.67.74,1.11.32,1.02.08,1.44-.91,1.48-2.92.11-5.84.37-8.77.29-.54-.02-1.04.02-1.48.47-.47.49-1.12.55-1.71.47-3.05-.37-5.96.74-8.95.98-1.38.11-2.76.29-4.14.42-1.79.16-3.05-.68-4.21-2.03-1.9-2.22-3.91-4.32-5.98-6.35-.92-.9-1.98-1.33-3.17-1.49-1.02-.14-2.04-.32-3.07-.41-.42-.04-.91-.27-1.3.16-.99.22-1.9-.29-2.85-.37-.06-.17-.16-.34-.18-.52-.66-4.71-.47-9.38.68-13.98.39-1.56.73-3.17,1.75-4.44Z"/>
        <path class="cls-2" d="m101.34,22.62c-.4.14-.84.22-1.21.43-.81.46-1.12.19-1.24-.76-.15-1.3-.35-2.6-.6-3.88-.36-.78-.55-1.64-.71-2.51-.08-.45-.16-.9-.26-1.35-.27-.56-.65-1.07-1.21-1.49-.71-.44-1.36-.99-2.14-1.28-.24-.09-.44-.23-.54-.51-.53-1.48-1.17-2.93-1.56-4.45-.52-2.03-1.46-3.47-3.36-4.21-3.4-1.33-6.82-2.36-10.5-2.03-1.06.09-1.32.57-1.23,1.62.13,1.49,1.08,2.28,2.03,3.1,2.19,1.33,4.58,1.87,7.05,1.92,1.49.03,2.86.53,4.28.85.75.17,1.15.68.86,1.63-.26.84-.67,1.08-1.44.82-.81-.27-1.65-.44-2.47-.65-1.08-.11-2.15-.23-3.23-.32-.42-.04-.84,0-1.22.24-.2.22-.39.43-.59.65-.52,2.05.14,3.6,1.72,4.75.22.14.44.28.67.42.08.09.16.17.24.26,1.09.19,2,.92,3.05,1.2.23.06.23.27.18.46-.03.11-.1.21-.14.31-.4,1-.57,2.26-1.24,2.93-.76.76-1.86-.19-2.83-.21-.25,0-.5-.05-.74-.08-.22.02-.42-.04-.58-.21-.38-.04-.75-.09-1.13-.13-.74-.07-1.44-.36-2.19-.34-2.08.04-2.95,2.02-2.05,3.86.44.9,1.11,1.58,1.79,2.25.48.14.72.32.46.98-.74,1.87-.91,2.05-2.62,2.06.55,2.22,1.63,4.14,2.81,6.01.64.8,1.44,1.45,1.93,2.39v-.02c.05.09.11.18.17.27,1.62.69,2.53,2.06,3.13,3.77.2.57.57,1.07.91,1.58,1.26,1.92,2.94,2.9,5.15,2.58.63-.09,1.27-.2,1.88-.4,2.99-.99,5.86-2.37,8.88-3.28,2.42-.82,4.84-1.64,7.26-2.46-.14-5.77-1.31-11.15-4.99-15.54-.6-.72-1.39-1.28-2.39-1.25Z"/>
        <path class="cls-1" d="m114.97,38.77c0-1.44,0-2.88,0-4.31-.13-.08-.19-.19-.16-.36-.38-4.31-1.52-8.29-4.12-11.66-.44-.4-.87-.79-1.31-1.19l.02.02c-.14-.1-.28-.19-.41-.29h0c-.57-.35-1.12-.36-1.66-.25-.9.38-1.9.64-2.9.73-.02,0-.04,0-.06,0-.03,0-.06,0-.09,0-.06.04-.12.07-.19.11-.22.04-.44.07-.66.11-.3.36-.75.15-1.09.36-.07.02-.13.04-.2.05-.07,0-.14.02-.21.02-.07.01-.13.02-.2.03l-.05.07s-.07-.02-.07-.02c-.08.13-.16.27-.25.4.99-.04,1.78.53,2.39,1.25,3.69,4.39,4.85,9.78,4.99,15.54-.07,1.83-.27,3.63-1.06,5.28-.35.72-.8,1.35-1.45,1.78.32,0,.65.04.95-.04,2-.5,3.99-1.02,5.98-1.54.05-.05.1-.09.16-.14.72-1.27,1.07-2.7,1.4-4.14l.1-.67c-.02-.4-.11-.82.17-1.17Z"/>
        <path class="cls-1" d="m29.28,27.87c-1.02,1.27-1.37,2.89-1.75,4.44-1.15,4.6-1.34,9.27-.68,13.98.03.18.12.35.18.52.23,1.61.53,3.2,1.32,4.61.1.65-.34.45-.6.43-1.85-.17-3.71-.36-5.56-.55-1.59-3.44-1.84-7.16-1.69-10.9.16-4.03.71-8.01,2.31-11.72.38-.88.62-1.99,1.7-2.28,1.75.24,3.5.47,5.3.72-.03.37-.41.46-.53.74Z"/>
        <path class="cls-1" d="m59.96,34.11c-.35-.08-.7-.16-.95-.48.07-.09.15-.16.2-.26.94-2.14,2.56-1.91,4.31-1.59,3.83.69,7.67,1.27,11.51,1.88.9.14,1.66.67,2.49.99.55.21.51.71.15,1.12-1.02,1.17-1.91,2.46-2.97,3.61-1.17,1.26-2.06,2.84-3.06,4.27-1.52,1.35-2.59,3.14-3.9,4.7-1.4,1.66-2.44,1.93-4.43,1.03,1.1-1.38,2.18-2.78,3.29-4.14.94-1.16,1.67-2.53,2.66-3.61,1.78-1.93,3.36-4.04,4.93-6.17.17-.24.37-.53.21-.84-.16-.31-.49-.25-.77-.27-.79-.06-1.6.05-2.38-.19-2.9-.89-5.92-1.02-8.86-1.62-1.39-.28-1.86.11-2.44,1.57Z"/>
        <path class="cls-1" d="m78.77,25.92c.48.14.72.32.46.98-.74,1.87-.91,2.05-2.62,2.06-3.31-1.25-6.61-2.52-9.93-3.75-2.49-.92-2.51-.94-1.45-3.52,1.63-2.98,3.15-6.04,4.6-9.13.54-.68.8-1.54,1.22-2.3.52-.93.65-2.2,1.67-2.71.91-.46,1.39-1.25,1.74-2.19.67-.72,1.47-.64,2.28-.45.69.16,1.35.46,2.08.38,2.19,1.33,4.58,1.87,7.05,1.92,1.49.03,2.86.53,4.28.85.75.17,1.15.68.86,1.63-.26.84-.67,1.08-1.44.82-.81-.27-1.65-.44-2.47-.65.59-1.51.59-1.52-.82-1.89-.45-.12-.9-.26-1.36-.27-1.68-.06-3.29-.62-4.89-1.04-1.39-.36-2.79-.73-4.19-1.02-.8-.16-1.02.63-1.19,1.21-.2.71.45.48.76.58,2.41.79,4.82,1.56,7.23,2.33-.2.22-.39.43-.59.65-2.39-.74-4.76-1.55-7.17-2.17-.79-.21-1.89-.47-2.31.83-.25.78-.72,1.39-1.09,2.07-1.95,3.67-3.51,7.59-5.62,11.17-.11.2-.25.4-.29.62-.08.52-.16.93.55,1.18,3.15,1.09,6.28,2.27,9.4,3.45,2.29.86,2.28.88,3.25-1.65Z"/>
        <path class="cls-3" d="m108.72,39.41c-.07,1.83-.27,3.63-1.06,5.28-.35.72-.8,1.35-1.45,1.78-.49.56-.91.13-1.34-.11-1.72-.96-2.62-2.68-3.41-4.49,2.42-.82,4.84-1.64,7.26-2.46Z"/>
        <path class="cls-3" d="m28.34,51.43c-.79-1.42-1.08-3.01-1.32-4.61.96.07,1.86.59,2.85.37.31,1.26-.64,3.87-1.54,4.25Z"/>
        <path class="cls-6" d="m81.34,37.35c.06.09.12.18.17.27-.06-.09-.12-.18-.17-.27Z"/>
        <path class="cls-7" d="m1.77,31.46c.06.5.49.94-.11,1.51-.35.34.01,1.02.41,1.48-.39.12-.75.23-1.11.34.13-1.15.37-2.28.82-3.34Z"/>
        <path class="cls-7" d="m3.92,27.05c.08,1.44-1,2.12-1.68,3.06.39-1.13.93-2.17,1.68-3.06Z"/>
        <path class="cls-7" d="m6.5,24.5c-.08,1.26-.98,1.39-1.82,1.61.51-.67,1.1-1.23,1.82-1.61Z"/>
        <path class="cls-7" d="m4.55,26.26c.08.54-.06.88-.64.8.21-.27.42-.53.64-.8Z"/>
        <path class="cls-7" d="m2.19,30.27c-.06.1-.11.2-.17.31-.03-.16.04-.25.17-.31Z"/>
        <path class="cls-7" d="m124.86,16.99c-.65.37-1.35-.32-2.01.12-.06.04-.26-.03-.26-.07-.21-1.45-1.11-.89-1.86-.76-.21.03-.32-.12-.38-.32,1.74-.89,3.1.16,4.51,1.03Z"/>
        <path class="cls-7" d="m129.56,22.86c-.65.05-1.09-.24-1.28-.94h0c.12.02.3.22.36.02.07-.26-.16-.39-.35-.49h0c.02-.58-.79-.9-.44-1.59.73.89,1.32,1.88,1.72,3Z"/>
        <path class="cls-7" d="m131.08,27.76c-.32,0-.58-.12-.63-.49-.1-.78-.16-1.56-.24-2.34.62.82.73,1.83.86,2.83Z"/>
        <path class="cls-7" d="m126.36,18.17c-1.15.59-1.2-.49-1.5-1.18.57.28,1.06.7,1.5,1.18Z"/>
        <path class="cls-7" d="m130.24,24.95c-.21-.04-.54.15-.51-.34.03-.42.03-.85.04-1.27.32.48.47,1.02.46,1.61Z"/>
        <path class="cls-7" d="m127.22,19.08c-.77.38-.6-.28-.65-.7l.65.7Z"/>
        <path class="cls-7" d="m129.77,23.33c-.07-.15-.14-.31-.21-.46.07.15.14.31.21.46Z"/>
        <path class="cls-7" d="m131.31,37.62c-.37-.35-.32-.59.16-.71.03.26.03.51-.16.71Z"/>
        <path class="cls-7" d="m130.69,40.21c-.39-.4-.34-.64.21-.7-.06.24.04.53-.21.7Z"/>
        <path class="cls-7" d="m130.88,39.53c0-.19-.02-.39.16-.51.03.2.03.39-.16.51Z"/>
        <path class="cls-7" d="m131.07,38.34c.06-.09.12-.17.18-.26.03.16-.06.22-.18.26Z"/>
        <path class="cls-7" d="m113.3,44.75c.72-1.27,1.07-2.7,1.4-4.14.32,1.36-.27,2.53-.67,3.74-.11.34-.32.61-.73.39Z"/>
        <path class="cls-7" d="m110.68,22.44c-.44-.4-.87-.79-1.31-1.19.25.11.59-.49.64-.13.08.58,1.26.43.68,1.32Z"/>
        <path class="cls-7" d="m114.8,39.95c-.02-.4-.11-.82.17-1.17.42.47.26.85-.17,1.17Z"/>
        <path class="cls-7" d="m129.99,26.16c-.04.09-.06.16-.09.22-.04-.08-.11-.16-.11-.24,0-.09.07-.17.1-.26.03.1.07.2.09.28Z"/>
        <path class="cls-7" d="m128.28,21.92c-.22-.16-.21-.31,0-.47,0,0,0,0,0,0,0,.16,0,.31,0,.47h0Z"/>
        <path class="cls-7" d="m109.39,21.27c-.14-.1-.28-.19-.41-.29.18.03.36.05.41.29Z"/>
        <path class="cls-7" d="m101.71,22.17l-.05.07s-.07-.02-.07-.02c.05,0,.09-.01.12-.05Z"/>
        <path class="cls-7" d="m114.96,34.46c-.13-.08-.19-.19-.16-.36.05.12.11.24.16.36Z"/>
        <path class="cls-7" d="m2.2,48.86c1.17.08,1.75.97,1.71,2.65-.82-.69-1.36-1.59-1.71-2.65Z"/>
        <path class="cls-7" d="m.95,44.64c1.01.85,1.12,1.98.88,3.23-.53-1-.71-2.12-.88-3.23Z"/>
        <path class="cls-7" d="m2,48.38c.19.1.19.3.21.49-.19-.1-.2-.29-.21-.49Z"/>
        <path class="cls-7" d="m1.94,47.99c.02.13.04.26.05.39-.07-.12-.31-.22-.05-.39Z"/>
        <path class="cls-2" d="m72.68,3.47c-.05-.02-.08-.07-.11-.1,0,0-.01,0-.02,0-.17,0-.33-.06-.47-.15-.05-.03-.08-.08-.13-.12-.04,0-.07.03-.11.02-2.78-.44-4.01.97-3.69,3.96.22,1.98.97,3.7,1.68,5.47.54-.68.8-1.54,1.22-2.3.52-.93.65-2.2,1.67-2.71.91-.46,1.39-1.25,1.74-2.19-.47-.77-.89-1.58-1.78-1.88Z"/>
        <path class="cls-5" d="m59.96,34.11c.58-1.46,1.05-1.85,2.44-1.57,2.95.6,5.96.73,8.86,1.62.78.24,1.58.13,2.38.19.28.02.61-.05.77.27.16.32-.03.6-.21.84-1.56,2.13-3.14,4.23-4.93,6.17-.99,1.07-1.72,2.45-2.66,3.61-1.11,1.37-2.2,2.76-3.29,4.14-2-.4-4-.9-5.75-2.05-1.2-.79-2.27-1.77-3.64-2.31-.69-.27-1.11-1.15-1.57-1.83.84-.96,1.78-1.82,2.36-3.03,1.42.54,2.88.79,4.38.71,1.74-.09,3.16-.77,3.82-2.73.26-.75.26-1.29-.29-1.93-.77-.9-1.74-1.44-2.66-2.1Z"/>
        <path class="cls-1" d="m51.9,42.79c.65-1.07,1.47-1.98,2.27-2.91.18.09.36.18.54.27-.57,1.21-1.52,2.07-2.36,3.03-.15-.13-.3-.26-.45-.39Z"/>
        <path class="cls-5" d="m78.77,25.92c-.97,2.53-.97,2.51-3.25,1.65-3.13-1.18-6.25-2.36-9.4-3.45-.71-.25-.64-.66-.55-1.18.04-.22.17-.42.29-.62,2.11-3.58,3.66-7.5,5.62-11.17.37-.69.84-1.3,1.09-2.07.42-1.3,1.52-1.04,2.31-.83,2.41.62,4.79,1.43,7.17,2.17-.52,2.06.14,3.6,1.72,4.75-.38.85-.65,1.8-1.17,2.52-.56.77-.55,1.88-1.36,2.45-.74-.07-1.44-.36-2.19-.34-2.08.04-2.95,2.02-2.05,3.86.44.9,1.11,1.58,1.79,2.25Z"/>
        <path class="cls-5" d="m82.63,9.77c-2.41-.78-4.83-1.54-7.23-2.33-.31-.1-.96.13-.76-.58.16-.58.39-1.38,1.19-1.21,1.41.29,2.8.65,4.19,1.02,1.6.42,3.21.98,4.89,1.04.45.02.91.15,1.36.27,1.41.37,1.41.38.82,1.89-1.08-.11-2.15-.23-3.23-.32-.42-.04-.84,0-1.22.24Z"/>
        <path class="cls-1" d="m84.66,15.86c1.09.19,2,.92,3.05,1.2.23.06.23.27.18.46-.03.11-.1.21-.14.31-.4,1-.57,2.26-1.24,2.93-.76.76-1.86-.19-2.83-.21-.25,0-.5-.05-.74-.08.57-1.54,1.15-3.09,1.72-4.63Z"/>
        <path class="cls-1" d="m81.23,20.15c.8-.57.8-1.68,1.36-2.45.52-.73.79-1.67,1.17-2.52.22.14.44.28.67.43-.69,1.56-1.38,3.12-2.07,4.68-.38-.04-.75-.09-1.13-.13Z"/>
        <path class="cls-4" d="m82.36,20.28c.69-1.56,1.38-3.12,2.07-4.68.08.09.16.17.24.26-.57,1.54-1.15,3.09-1.72,4.63-.22.02-.42-.04-.59-.21Z"/>
        <path class="cls-6" d="m128.28,21.92c0-.16,0-.31,0-.47.19.1.43.22.35.49-.06.2-.23,0-.36-.02Z"/>
      </g>
      <path class="cls-8" d="m87.26,17.36c.76.3,1.57.46,2.38.51.34.02.63.05.87.33.23.26.32.6.39.93.15.8.18,1.65.26,2.46.09.91.18,1.82.27,2.73.06.63,1.06.64,1,0-.1-1.01-.2-2.01-.3-3.02-.09-.91-.08-1.92-.36-2.8-.22-.72-.74-1.4-1.51-1.56-.45-.09-.92-.07-1.37-.15s-.93-.22-1.37-.39c-.6-.24-.86.73-.27.96h0Z"/>
      <path class="cls-8" d="m92.31,23.93c-.77-.86-1.83-1.44-2.86-1.92-.55-.26-1.12-.49-1.7-.69-.52-.17-1.06-.29-1.5-.62-.22-.16-.56-.03-.68.18-.15.26-.04.52.18.68.42.32.93.47,1.43.62.57.18,1.13.39,1.68.64.99.45,2.02.99,2.76,1.81.43.48,1.14-.23.71-.71h0Z"/>
      <path class="cls-8" d="m79.23,26.54c2.65.72,5.23,1.68,7.71,2.87.58.28,1.09-.58.5-.86-2.56-1.23-5.22-2.22-7.95-2.97-.62-.17-.89.79-.27.96h0Z"/>
    </g>
  </g>
</svg>