<?xml version="1.0" encoding="UTF-8"?>
<svg id="Laag_2" data-name="Laag 2" xmlns="http://www.w3.org/2000/svg" viewBox="0 0 60.56 61.71">
  <defs>
    <style>
      .cls-1 {
        fill: none;
        stroke: #fff;
        stroke-linecap: round;
        stroke-linejoin: round;
        stroke-width: 1.71px;
      }

      .cls-2 {
        fill: #8082b8;
      }

      .cls-2, .cls-3, .cls-4 {
        stroke-width: 0px;
      }

      .cls-3 {
        fill: #1d1d1b;
      }

      .cls-4 {
        fill: #fff;
      }
    </style>
  </defs>
  <g id="Laag_1-2" data-name="Laag 1">
    <g>
      <g>
        <path class="cls-3" d="m35,60.85c-5.5,0-14.26-4.62-14.26-10.09V10.94c0-5.56,4.53-10.09,10.09-10.09h18.78c5.56,0,10.09,4.53,10.09,10.09v39.82c0,6.54-.94,10.09-5.92,10.09h-18.78Z"/>
        <path class="cls-3" d="m49.61,1.71c5.09,0,9.24,4.14,9.24,9.24v39.82c0,6.99-1.23,9.24-5.06,9.24h-18.78c-5.61,0-13.41-4.65-13.41-9.24V10.94c0-5.09,4.14-9.24,9.24-9.24h18.78m0-1.71h-18.78c-6.02,0-10.94,4.93-10.94,10.94v39.82c0,6.02,9.1,10.94,15.12,10.94h18.78c6.02,0,6.77-4.93,6.77-10.94V10.94c0-6.02-4.93-10.94-10.94-10.94h0Z"/>
      </g>
      <g>
        <rect class="cls-2" x="24.76" y="4.98" width="30.91" height="51.75" rx="6.55" ry="6.55"/>
        <path class="cls-3" d="m49.13,4.27v1.41c3.22,0,5.84,2.62,5.84,5.84v38.65c0,3.22-2.62,5.84-5.84,5.84h-17.81c-3.22,0-5.84-2.62-5.84-5.84V11.53c0-3.22,2.62-5.84,5.84-5.84h17.81v-1.41m0,0h-17.81c-3.99,0-7.26,3.27-7.26,7.26v38.65c0,3.99,3.27,7.26,7.26,7.26h17.81c3.99,0,7.26-3.27,7.26-7.26V11.53c0-3.99-3.27-7.26-7.26-7.26h0Z"/>
      </g>
      <g>
        <path class="cls-4" d="m1.82,54.96c-.35,0-.69-.17-.9-.45-.13-.17-.32-.52-.2-.99l1.62-6.03c.16-.59.67-.85,1.12-.85.21,0,.53.06.8.34.22.22.51.34.83.34s.61-.12.83-.34l14.41-14.41c.45-.46.45-1.2,0-1.65L5.21,15.79l2.76-2.76,15.46,15.46c.05.05.11.09.17.12l3.12,3.12-3.13,3.13c-.06.03-.11.07-.16.11l-14.76,14.76c-.22.22-.34.51-.34.83s.12.61.34.83c.29.29.4.71.3,1.11s-.41.7-.81.81l-6.04,1.62c-.1.03-.2.04-.3.04Z"/>
        <path class="cls-3" d="m7.98,13.99l14.97,14.97c.07.07.14.13.22.18l2.59,2.59-2.58,2.58c-.08.05-.16.12-.23.19l-14.76,14.76c-.72.72-.72,1.9,0,2.62.16.16.15.35.12.45-.03.1-.1.27-.33.33l-6.04,1.62s-.09.02-.13.02c-.14,0-.27-.07-.36-.19-.06-.08-.13-.22-.08-.4l1.62-6.03c.07-.25.29-.34.46-.34.12,0,.23.05.32.14.35.35.81.54,1.31.54s.96-.19,1.31-.54l14.41-14.41c.35-.35.54-.82.54-1.31s-.19-.96-.54-1.31L6.18,15.79l1.8-1.8m0-1.73c-.12,0-.25.05-.34.14l-3.04,3.04c-.19.19-.19.5,0,.69l15.25,15.25c.19.19.19.5,0,.69l-14.41,14.41c-.1.1-.22.14-.34.14s-.25-.05-.34-.14c-.37-.37-.83-.54-1.29-.54-.78,0-1.54.5-1.77,1.36L.06,53.34c-.32,1.2.6,2.3,1.76,2.3.16,0,.32-.02.48-.06l6.04-1.62c1.36-.36,1.81-2.06.82-3.06h0c-.19-.19-.19-.5,0-.69l14.76-14.76.02.02,3.73-3.73.02-.02-.02-.02-3.73-3.73-.02.02-15.6-15.6c-.1-.1-.22-.14-.34-.14h0Z"/>
      </g>
      <line class="cls-1" x1="49.94" y1="5.63" x2="42.96" y2="17.71"/>
      <line class="cls-1" x1="53.43" y1="7.81" x2="48.98" y2="15.52"/>
    </g>
  </g>
</svg>