<?xml version="1.0" encoding="UTF-8"?>
<svg id="Laag_2" data-name="Laag 2" xmlns="http://www.w3.org/2000/svg" viewBox="0 0 86.85 76.95">
  <defs>
    <style>
      .cls-1 {
        fill: #1d1d1d;
      }

      .cls-1, .cls-2 {
        stroke-width: 0px;
      }

      .cls-2 {
        fill: #fff;
      }
    </style>
  </defs>
  <g id="Laag_1-2" data-name="Laag 1">
    <g>
      <g>
        <path class="cls-1" d="m65.46,68.17c-.09-.1-.16-.18-.25-.28-1.19.22-2.37.44-3.56.67-1.19.22-2.38.45-3.57.67-1.24.23-2.49.47-3.73.69-.32.06-.59.19-.84.38-1.11.84-2.23,1.67-3.35,2.5-1.15.85-2.3,1.71-3.46,2.54-.57.4-1.18.75-1.83.99-.81.3-1.64.51-2.51.59-.53.05-1.06.05-1.59.04-1.18-.02-2.28-.36-3.34-.84-1.13-.51-2.11-1.24-2.94-2.17-.43-.48-.81-.99-1.17-1.52-2.76-4.07-5.51-8.14-8.27-12.21-2.41-3.55-4.81-7.11-7.22-10.66-2.66-3.93-5.33-7.86-7.99-11.8-.29-.42-.59-.84-.87-1.27-.52-.82-.82-1.72-1.03-2.65-.18-.83-.23-1.67-.21-2.52.03-1.12.31-2.17.74-3.19.32-.77.74-1.48,1.26-2.12.52-.64,1.1-1.23,1.77-1.73,1.82-1.37,3.65-2.72,5.46-4.08.22-.16.42-.35.61-.55.69-.75,1.47-1.38,2.37-1.86.47-.25.91-.56,1.37-.81.86-.48,1.74-.94,2.61-1.42.98-.53,1.97-1.07,2.95-1.61.22-.12.45-.26.64-.42.97-.78,2.06-1.33,3.23-1.73,1.14-.39,2.28-.83,3.43-1.19,1.1-.35,2.22-.65,3.33-.95,2.89-.78,5.77-1.56,8.66-2.32.34-.09.66-.22.96-.41.81-.5,1.69-.78,2.61-.98.76-.16,1.52-.22,2.29-.23,4.64-.06,9.29-.1,13.93-.15,3.54-.04,7.08-.06,10.63-.11,1.02-.01,2.01.12,2.99.38.51.14,1,.36,1.46.62.78.45,1.56.9,2.21,1.53,1.29,1.27,2.25,2.74,2.71,4.52.18.69.32,1.39.33,2.11.03,2.33.08,4.66.11,6.99.11,8.56.22,17.13.33,25.69.04,3.5.08,7.01.14,10.51.01.81-.02,1.61-.13,2.41-.05.38-.13.76-.24,1.13-.4,1.31-1,2.52-1.89,3.57-.12.14-.23.28-.35.42-1.12,1.35-2.54,2.25-4.21,2.79-.83.27-1.68.37-2.55.35-3.93-.09-7.85-.19-11.78-.29-.07,0-.15,0-.25-.02Z"/>
        <path class="cls-1" d="m8.27,22.14c-.1-.13-.21-.25-.3-.38-.74-1-1.48-2-2.23-3-.09-.12-.17-.24-.28-.34-.17-.16-.38-.22-.61-.11-.16.08-.32.17-.48.27-1.32.85-2.65,1.71-3.97,2.56-.12.08-.24.14-.41.16.07-.09.14-.19.23-.27,1.18-1.21,2.34-2.43,3.54-3.61.51-.5.63-.99.36-1.67-.66-1.63-1.26-3.28-1.88-4.93-.03-.09-.12-.19-.01-.33.14.18.27.34.39.52.88,1.24,1.75,2.49,2.62,3.73.09.13.18.28.3.4.2.22.42.26.7.13.15-.07.29-.16.43-.25,1.43-.93,2.85-1.86,4.28-2.79.1-.07.2-.15.4-.15-.11.13-.16.21-.24.29-1.28,1.29-2.55,2.59-3.85,3.85-.53.51-.66,1.02-.39,1.72.51,1.3.94,2.62,1.4,3.93.03.08.05.17.08.25-.03.01-.06.02-.09.03Z"/>
        <path class="cls-1" d="m19.77,4.81c.06,0,.09,0,.09,0,.08.19.16.37.23.56.41,1.16.82,2.31,1.22,3.47.02.07.05.14.08.21.14.31.33.4.66.32.14-.04.28-.09.42-.14,1.76-.62,3.52-1.24,5.28-1.86.15-.05.31-.09.49-.1-.11.07-.21.16-.32.22-1.73.93-3.45,1.86-5.18,2.79-.15.08-.29.15-.43.24-.36.22-.54.53-.52.96.03,1.01.05,2.02.07,3.02,0,.16,0,.33,0,.49-.15.04-.17-.06-.2-.14-.33-.85-.67-1.71-1-2.56-.05-.12-.09-.24-.14-.36-.14-.31-.26-.39-.6-.34-.14.02-.28.07-.42.11-1.22.39-2.44.78-3.66,1.17-.07.02-.13.03-.23-.01.1-.07.19-.14.29-.2,1.11-.65,2.22-1.29,3.33-1.94.13-.07.26-.14.38-.22.29-.2.45-.47.43-.83-.03-.42-.03-.84-.06-1.26-.06-1.06-.13-2.12-.19-3.18,0-.14,0-.28,0-.42Z"/>
        <path class="cls-1" d="m33.71,7.25c0-.05-.04-.13-.02-.15.11-.09.24-.17.36-.25.7-.43,1.41-.86,2.11-1.29.12-.08.25-.15.37-.24.2-.15.32-.35.36-.6.02-.11.02-.22.03-.33.08-1.41.17-2.82.25-4.23,0-.05.02-.11.02-.16.17,0,.15.13.17.23.23,1.11.46,2.22.69,3.34.03.16.06.32.11.48.04.15.18.25.33.22.16-.03.32-.08.47-.14,1.49-.61,2.98-1.23,4.46-1.85.66-.27,1.32-.54,1.98-.82.1-.04.19-.11.28-.16h0c.05.16-.07.2-.16.25-.4.22-.8.44-1.2.66-1.79.96-3.58,1.93-5.36,2.89-.08.04-.16.09-.24.13-.34.2-.52.49-.56.89-.1.8-.23,1.59-.35,2.38-.14,0-.16-.09-.19-.18-.17-.6-.36-1.19-.51-1.79-.09-.36-.28-.38-.57-.32-.05.01-.1.04-.16.05-.81.29-1.62.57-2.43.86-.08.03-.16.09-.24.13h0Z"/>
        <path class="cls-2" d="m83.05,35.59c.1,6.95.19,13.9.29,20.85,0,.66-.03,1.32-.12,1.97-.11.77-.42,1.47-.87,2.12-.53.77-1.19,1.39-2.04,1.8-.55.27-1.11.48-1.72.55-.31.03-.62.06-.93.06-8.18.11-16.37.21-24.55.31-.81.01-1.61-.08-2.38-.34-.82-.27-1.52-.72-2.12-1.33-.62-.64-1.06-1.4-1.35-2.24-.19-.57-.25-1.15-.26-1.73-.04-2.77-.08-5.54-.11-8.31-.06-4.62-.12-9.24-.17-13.87-.08-6.91-.16-13.83-.24-20.74,0-.62,0-1.25.19-1.85.4-1.34,1.16-2.4,2.36-3.13.33-.2.66-.38,1.03-.52.72-.27,1.46-.37,2.21-.38,3.69-.04,7.38-.08,11.07-.11,4.46-.05,8.92-.1,13.38-.14.76,0,1.5.05,2.23.26.83.24,1.54.69,2.14,1.29.4.4.75.85,1.05,1.34.31.51.47,1.07.57,1.65.06.4.09.8.09,1.21.1,7.1.19,14.2.29,21.29,0,0,0,0-.01,0Zm-28.3-.18c-.09.17-.15.28-.21.39-.83,1.45-1.66,2.89-2.49,4.34-.72,1.25-1.45,2.5-2.17,3.76-.17.3-.34.61-.46.94-.23.63-.36,1.28-.19,1.94.19.73.5,1.42,1.11,1.92.16.13.31.26.47.38.44.34.94.57,1.5.65.27.04.54.1.81.14.31.04.62.1.93.1,3.43,0,6.86,0,10.29,0,.14,0,.29-.02.44-.03.1-.36.04-.71.05-1.06,0-.35.01-.7,0-1.05-.01-.34.07-.69-.09-1.06-.22,0-.44,0-.66,0-3.27,0-6.53,0-9.8,0-.24,0-.48,0-.71-.03-.67-.1-1.04-.7-.82-1.34.1-.29.25-.57.4-.84.19-.35.41-.69.61-1.04,1.2-2.08,2.4-4.16,3.6-6.24.05-.09.12-.16.2-.26.3.16.58.31.84.46.56.32,1.11.65,1.66.97.1.05.2.18.36.06-.43-.79-.85-1.58-1.29-2.36-.45-.8-.83-1.63-1.32-2.39-.16,0-.29,0-.42,0-1.17.03-2.35.07-3.52.1-.44.01-.88.01-1.32.02-.06,0-.11.05-.23.1.83.49,1.6.94,2.42,1.42Zm4.18-3.55c.08-.09.12-.13.15-.17.8-1.38,1.6-2.76,2.4-4.14.97-1.68,1.95-3.36,2.93-5.04.09-.16.21-.3.34-.43.43-.42,1-.41,1.41.03.16.17.3.37.42.57,1.45,2.51,2.9,5.01,4.35,7.52.05.09.08.2.13.32-.32.18-.62.35-.92.53-.32.18-.63.37-.95.56-.29.18-.61.31-.87.57.6.04,1.19.13,1.79.13.62,0,1.25.03,1.87.02.6-.01,1.2.11,1.81.03.78-1.45,1.54-2.87,2.3-4.29.08-.15.15-.29.22-.44,0-.02.01-.04,0-.05,0-.02-.02-.03-.06-.07-.78.45-1.56.91-2.37,1.38-.09-.13-.17-.23-.23-.34-1.59-2.74-3.18-5.49-4.77-8.23-.15-.25-.31-.5-.5-.72-1.03-1.29-2.56-1.66-4.05-1.09-.75.29-1.41.69-1.88,1.37-.16.23-.35.42-.52.64-.12.16-.25.32-.35.49-1.69,2.92-3.38,5.84-5.07,8.76-.1.17-.19.35-.3.55.89.57,1.8,1.03,2.71,1.56Zm14.27,3.16c.06.12.11.26.18.38.13.22.26.44.39.66.98,1.7,1.96,3.4,2.94,5.1.57.98,1.14,1.97,1.71,2.95.16.27.31.54.35.86.08.6-.23,1.05-.83,1.15-.18.03-.37.03-.55.03-2.88,0-5.76,0-8.64,0-.14,0-.28-.02-.45-.03-.07-1.08.02-2.13-.06-3.31-.3.38-.45.71-.64,1.01-.19.31-.38.63-.57.94-.18.3-.37.59-.55.89-.19.31-.38.63-.57.94-.19.31-.37.62-.54.9.02.09.02.13.04.16.9,1.47,1.8,2.94,2.7,4.41.02.03.08.04.16.08,0-.21.02-.39.02-.57,0-.61,0-1.21,0-1.82,0-.12.04-.24.06-.39.23,0,.43,0,.63,0,3.01,0,6.02,0,9.03,0,.48,0,.95,0,1.42-.13.54-.14,1.06-.35,1.47-.72.8-.74,1.21-1.69,1.24-2.79,0-.33.03-.68-.07-.98-.25-.78-.52-1.57-.93-2.29-1.68-2.9-3.36-5.81-5.04-8.71-.06-.11-.14-.2-.21-.29-.54.23-2.34,1.28-2.69,1.57Z"/>
      </g>
      <path class="cls-2" d="m36.69,63.55c-.13-.24-.28-.47-.4-.71-1.61-3.32-3.21-6.64-4.81-9.97-1.24-2.57-2.48-5.14-3.72-7.71-1.74-3.59-3.49-7.19-5.24-10.78-.99-2.05-1.97-4.1-2.97-6.14-.29-.58-.48-1.18-.59-1.82-.22-1.23.04-2.36.61-3.45.2-.38.47-.69.82-.94.87-.61,1.72-1.26,2.57-1.89.29-.22.61-.4.91-.54.15.07.13.17.12.26-.1,1.13.06,2.23.39,3.31,1.21,3.96,2.44,7.92,3.66,11.88.59,1.91,1.18,3.81,1.76,5.72.56,1.82,1.1,3.64,1.66,5.45.48,1.57.95,3.14,1.44,4.71.4,1.3.83,2.6,1.23,3.9.29.96.56,1.92.85,2.88.37,1.22.74,2.43,1.12,3.64.18.59.38,1.17.56,1.76.04.13.03.29.04.43h0Z"/>
      <path class="cls-2" d="m34.01,14.21c-.07.2-.12.38-.19.55-.31.74-.4,1.52-.49,2.3-.12,1,.03,1.98.2,2.95.19,1.08.37,2.17.57,3.25.24,1.35.48,2.71.72,4.06.13.76.26,1.52.39,2.27.13.72.26,1.44.39,2.16.14.79.27,1.59.4,2.38.06.34.12.68.18,1.03.1.59.19,1.19.3,1.78.14.75.29,1.51.43,2.26.08.43.13.87.2,1.3.06.4.14.79.21,1.18.09.52.18,1.04.28,1.56.08.45.17.89.25,1.34.02.11.05.22.05.33,0,.2.02.4.11.59.02.05.03.1.04.16.06.43.11.87.17,1.3.02.11.05.21.08.32.03.16.06.32.09.48.02.14.05.29.07.43.03.16.05.32.08.48.03.16.06.32.1.48.01.05.04.1.05.16.06.43.12.86.18,1.3.02.11.04.21.07.32.03.16.08.32.09.48.01.18.02.36.11.53.03.06.05.14.05.21,0,.28.02.54.14.8.04.09.02.22.03.33.02.14.05.29.08.43.03.14.08.28.08.43,0,.2.03.4.11.59.05.11.03.25.05.38.02.13,0,.27.06.38.1.21.11.42.11.64,0,.11.03.21.05.32.03.16.07.32.09.48.01.18,0,.36.11.53.04.07.06.17.06.26,0,.26.07.5.12.75.06.36.16.72.18,1.07.03.46.24.88.2,1.35-.01.11.1.23.13.36.02.12,0,.24,0,.36-.16.02-.12-.08-.14-.14-.25-.8-.5-1.59-.74-2.39-.29-.96-.55-1.92-.84-2.87-.3-.97-.62-1.94-.91-2.91-.29-.96-.56-1.92-.85-2.88-.4-1.32-.83-2.64-1.24-3.97-.33-1.08-.65-2.17-.98-3.25-.62-2.05-1.25-4.09-1.88-6.14-.88-2.89-1.76-5.79-2.64-8.68-.67-2.19-1.34-4.38-2.03-6.57-.34-1.08-.39-2.18-.08-3.25.24-.84.61-1.65,1.28-2.28.13-.12.28-.24.44-.33.77-.42,1.54-.85,2.33-1.24.44-.22.92-.37,1.38-.55.03,0,.07.02.16.05Z"/>
      <path class="cls-2" d="m33.66,65.3c-.14-.17-.29-.33-.41-.51-3.78-5.59-7.55-11.19-11.32-16.78-2.74-4.06-5.49-8.11-8.23-12.16-.11-.17-.23-.33-.35-.49-.43-.58-.78-1.21-.98-1.9-.26-.89-.33-1.79-.13-2.72.17-.77.46-1.46.92-2.1.31-.44.71-.79,1.11-1.14.33-.29.69-.55,1.04-.81.07-.05.15-.09.26-.16.04.15.09.27.1.39.08.81.27,1.59.54,2.35.08.22.17.45.27.66,1.97,4.04,3.94,8.07,5.91,12.11,2.25,4.61,4.49,9.22,6.74,13.83,1.46,2.99,2.91,5.98,4.37,8.98.07.15.18.28.13.46l.02-.02Z"/>
      <path class="cls-2" d="m43.22,11c0,.13.01.21,0,.28-.19.88-.24,1.78-.23,2.68.09,5.41.21,10.82.25,16.23.02,3.45.15,6.89.19,10.34,0,.04,0,.07,0,.11-.01,3.32,0,6.64.14,9.96,0,.2,0,.4-.07.61-.04-.17-.08-.33-.11-.5-.03-.16-.07-.32-.1-.48-.09-.49-.17-.97-.25-1.46-.08-.49-.16-.97-.24-1.46-.06-.36-.11-.72-.17-1.08-.08-.43-.18-.86-.26-1.29-.08-.45-.13-.9-.21-1.35-.08-.45-.17-.9-.25-1.35-.08-.47-.15-.94-.23-1.41-.05-.32-.1-.65-.16-.97-.08-.45-.18-.9-.26-1.35-.08-.47-.15-.94-.23-1.41-.08-.45-.16-.9-.24-1.35-.07-.36-.14-.72-.2-1.08-.18-1.06-.35-2.13-.53-3.2-.18-1.06-.38-2.13-.57-3.19-.19-1.06-.36-2.13-.54-3.2-.24-1.37-.49-2.74-.72-4.12-.22-1.28-.41-2.57-.63-3.85-.11-.65.01-1.28.15-1.91.15-.69.47-1.31.89-1.88.44-.6.98-1.08,1.62-1.46.62-.37,1.29-.62,2-.73.3-.05.6-.17.96-.14Z"/>
    </g>
  </g>
</svg>