<?xml version="1.0" encoding="UTF-8"?>
<svg id="Laag_2" data-name="Laag 2" xmlns="http://www.w3.org/2000/svg" viewBox="0 0 94.28 103.42">
  <defs>
    <style>
      .cls-1 {
        fill: #fff;
        stroke-miterlimit: 10;
        stroke-width: 2.74px;
      }

      .cls-1, .cls-2 {
        stroke: #1d1d1b;
      }

      .cls-2 {
        fill: #f7f7f7;
        stroke-linecap: round;
        stroke-linejoin: round;
        stroke-width: 2.72px;
      }
    </style>
  </defs>
  <g id="Laag_1-2" data-name="Laag 1">
    <g>
      <g>
        <path class="cls-2" d="m92.92,85.42c0,4.57-1.87,8.73-4.89,11.75-3.02,3.02-7.17,4.89-11.75,4.89h-12.91c-8.88,0-16.19-7.05-16.61-15.83-.01-.27-.02-.53-.02-.8v-12.13c0-3.04,2.33-5.64,5.37-5.82,1.25-.07,2.42.26,3.4.89v-15.44c0-3.01,2.28-5.58,5.28-5.8,1.24-.09,2.27.21,3.24.81.44-2.72,2.96-4.8,5.79-4.8,1.57,0,3,.64,4.03,1.68.85.85,1.42,1.87,1.59,3.12.9-.59,2-.83,3.14-.83,1.57,0,3,.64,4.03,1.68.94.94,1.49,2.06,1.59,3.45.85-.51,1.92-.66,2.98-.66,1.57,0,3,.64,4.03,1.68,1.03,1.03,1.68,2.46,1.68,4.03v24.33"/>
        <line class="cls-2" x1="64.04" y1="70.28" x2="64.04" y2="47.93"/>
        <line class="cls-2" x1="75.46" y1="70.28" x2="75.46" y2="47.93"/>
        <line class="cls-2" x1="84.23" y1="70.28" x2="84.23" y2="52.24"/>
        <line class="cls-2" x1="92.92" y1="81.29" x2="92.92" y2="85.42"/>
        <line class="cls-2" x1="55.51" y1="82.03" x2="55.51" y2="68.38"/>
      </g>
      <circle class="cls-1" cx="25.52" cy="25.52" r="24.15"/>
      <circle class="cls-1" cx="25.74" cy="25.52" r="19.25"/>
      <line class="cls-1" x1="24.1" y1="27.92" x2="24.1" y2="9.94"/>
      <line class="cls-1" x1="42.02" y1="26.61" x2="22.78" y2="26.61"/>
    </g>
  </g>
</svg>