<?xml version="1.0" encoding="UTF-8"?>
<svg id="Laag_2" data-name="Laag 2" xmlns="http://www.w3.org/2000/svg" viewBox="0 0 66.47 103.17">
  <defs>
    <style>
      .cls-1 {
        fill: none;
        stroke: #8abb2a;
        stroke-miterlimit: 10;
        stroke-width: 3px;
      }

      .cls-2 {
        fill: #1d1d1b;
      }

      .cls-2, .cls-3 {
        stroke-width: 0px;
      }

      .cls-3 {
        fill: #8abb2a;
      }
    </style>
  </defs>
  <g id="Laag_1-2" data-name="Laag 1">
    <g>
      <g>
        <path class="cls-3" d="m22.53,85.55c-2.76,0-4.12-3.31-4.77-6.08l-.07-.28v-12.83c-.33.13-.71.21-1.12.21-2.09,0-3.49-1.91-4.28-5.82l-.05-.24v-10.5c-3.59-.53-7.54-1.75-8.83-5.01-1.58-3.98,1.98-8.07,4.18-10.55-2.06-2.66-3.96-5.98-4.06-6.16l-.05-.08-.04-.09c-1.51-3.19-.94-5.4-.2-6.69,1.69-2.93,5.42-3.33,5.83-3.37l1-.09.52.42c.11.02.3.04.59.04.57,0,1.58-.09,3.15-.54l.09-.03.09-.02c1.72-.36,1.96-1.04,2.03-1.33l-.44-.23.69-2.03s.15-.6-.09-2.45l-.04-.32.04-.32c.95-7.55,5.06-8.68,7.42-8.68,2.65,0,4.98,1.43,5.6,1.84.41.23,1.77,1.01,3.66,2.33.83.3,1.35.45,1.67.52.1-.16.21-.32.33-.49l.2-.28.27-.22c2.98-2.44,5.58-3.62,7.95-3.62,4.17,0,6.1,3.57,6.7,6.03.65,1.04.7,2.51.19,5.17.03,1.23.3,1.93.55,2.17.04.04.18.17.58.17.17,0,.29-.03.29-.03l.15-.04h.13s.39-.07.99-.07c2.54,0,4.57,1.03,5.57,2.84,1.43,2.57.65,6.22-2.4,11.16-.02.03-.04.06-.05.08,3.14,3.43,4.24,6.64,3.28,9.56-1.5,4.55-7.51,6.16-9.71,6.6l.04.66.51,3.36c.21.7.44,2.12.49,5.45v.46s-.15.43-.15.43c-1.03,2.82-2.35,5.83-4.99,5.83-1.6,0-2.78-1.07-3.49-3.13.03.57.06,1.23.08,1.97v.44s-.12.41-.12.41c-.91,2.76-1.92,5.24-4.25,5.24-.06,0-.12,0-.18,0l.23.82v5l-.18.45c-.55,1.38-2.02,5.05-5.14,5.05s-4.66-3.95-5.03-5.16l-.11-.35-.04-5.74-.45.22-.73,1.02v2.35c.03.4.72,8.1.72,8.1l-.11.42c-.5,1.96-1.55,6.03-4.68,6.03Zm19.62-31.87l.45-2.23v-2.82c-.23-.26-.41-.42-.53-.52-.17.2-.37.53-.51.84l-.15,1.73.75,2.99Z"/>
        <path class="cls-2" d="m24.15,5c2.21,0,4.29,1.48,4.29,1.48,0,0,1.51.81,3.8,2.43,1.6.6,2.58.84,3.25.84,1.1,0,1.31-.69,1.96-1.62,2.76-2.26,4.83-3.06,6.37-3.06,3.74,0,4.39,4.72,4.39,4.72,0,0,0,0,.01,0,.09,0,.72.12-.01,3.75,0,4.44,2.3,5.08,3.63,5.08.53,0,.91-.1.91-.1,0,0,.26-.04.65-.04,1.88,0,6.84.81,1.04,10.19-1.24,2.01-.44,2.38-.44,2.38,10.45,10.5-5.01,12.84-5.01,12.84-.26-1.04-.52-1.38-.75-1.38-.46,0-.81,1.38-.81,1.38l.21,3.27.57,3.73s.36.6.42,4.84c-1.14,3.13-2,4.18-2.64,4.18-1.3,0-1.68-4.36-1.68-4.36l.78-3.85v-3.93c-1.21-1.69-2.25-2.28-3.1-2.28-1.9,0-2.9,2.87-2.9,2.87l-.22,2.52.78,3.11v2.33s.34,1.24.44,4.99c-.87,2.63-1.47,3.52-1.88,3.52-.85,0-.9-3.84-.9-3.84l-.78-2.41v-3.81c-.26-2.08-.6-2.77-.95-2.77-.69,0-1.38,2.77-1.38,2.77l-.17,3.24.17,3.76.78,3.89.78,2.82v4.18c-1.05,2.61-2,3.48-2.82,3.48-1.6,0-2.64-3.39-2.64-3.39l-.05-7.95s.12-.63,0-6.23c-.54-3.14-.97-4.18-1.31-4.18-.67,0-.97,4.18-.97,4.18v3.19l-.78,3.11-1.56.78-1.55,2.18v3.26s.07.78.7,7.78c-.8,3.11-1.58,4.15-2.26,4.15-1.36,0-2.33-4.15-2.33-4.15v-13.23l.78-2.24v-7.09c-.52-2.08-.95-2.77-1.3-2.77-.69,0-1.04,2.77-1.04,2.77,0,0-.47.75-.31,3.92-.62,2.86-1.23,3.81-1.76,3.81-1.06,0-1.83-3.81-1.83-3.81v-12.47c-17.12-1.56-5.45-10.89-3.89-13.35-2.33-2.46-5.15-7.38-5.15-7.38-2.81-5.95,3.59-6.5,3.59-6.5,0,0,.48.39,1.9.39.88,0,2.12-.15,3.83-.64,2.85-.59,3.74-2.13,3.98-3.33.11.04.22.05.33.05.3,0,.6-.14.75-.42.22-.41.12-.98-.32-1.22-.2-.11-.4-.2-.6-.31.15-.43.31-1.41.02-3.59.65-5.16,2.85-6.49,4.94-6.49M24.15,0S24.15,0,24.15,0c-2,0-8.64.78-9.91,10.86l-.08.64.08.64c.12.89.12,1.38.11,1.58l-.6,1.74-.09.03c-1.02.29-1.71.4-2.13.43l-.65-.53-2.01.17c-.9.08-5.52.66-7.79,4.61-1.04,1.81-1.86,4.83.11,9l.08.18.1.17c.2.36,1.46,2.53,3.04,4.79-2.36,2.86-5.1,7.09-3.31,11.6,1.45,3.66,5.03,5.34,8.65,6.16v8.67l.1.49c.9,4.46,2.69,7.04,5.35,7.67v10.57l.13.56c1.55,6.62,4.77,8.01,7.2,8.01,5.03,0,6.52-5.66,7.09-7.85,1.01.63,2.13.96,3.32.96,3.19,0,5.7-2.23,7.46-6.62l.36-.89v-4.42c1.76-.96,2.79-2.88,3.46-4.57.64.21,1.25.27,1.78.27,4.61,0,6.45-5.04,7.33-7.47l.32-.87v-.92c-.06-3.2-.27-4.89-.56-5.93l-.25-1.61c3.23-.99,7.82-3.15,9.32-7.7,1.12-3.4.25-6.96-2.6-10.6,2.01-3.57,3.81-8.21,1.58-12.21-1.46-2.62-4.29-4.12-7.75-4.12-.03,0-.06,0-.09,0,.38-2.28.39-4.19-.43-5.79C51.85,3.8,48.78.07,43.82.07h0c-2.97,0-6.08,1.37-9.52,4.18-1.59-1.09-2.75-1.76-3.25-2.04C30.08,1.57,27.36,0,24.15,0h0Z"/>
      </g>
      <g>
        <path class="cls-3" d="m48.17,81.79c-1.94,0-3.31-1.69-4.05-5.03l-.06-.27v-2.96l1.13-5.09c.37-1.98,1.34-3.03,2.87-3.03,2.43,0,2.91,2.7,3.1,4.03l.54,1.93.62,4.45-.09.43c-.41,1.94-1.16,5.54-4.06,5.54h0Z"/>
        <path class="cls-2" d="m48.07,67.92c.36,0,.65,2.04.65,2.04l.54,1.93.54,3.85c-.56,2.68-1.12,3.55-1.62,3.55-.92,0-1.61-3.07-1.61-3.07v-2.41l1.08-4.82c.15-.79.29-1.07.43-1.07m0-5c-3.95,0-5.06,3.73-5.32,5.05l-1.06,4.75-.12.54v3.51l.12.54c1.29,5.77,4.24,6.98,6.49,6.98,4.93,0,6.08-5.47,6.51-7.53l.18-.85-.12-.86-.54-3.85-.05-.33-.09-.32-.46-1.64c-.46-2.81-1.81-5.98-5.54-5.98h0Z"/>
      </g>
      <g>
        <path class="cls-3" d="m49,97.17c-.42,0-.85-.07-1.28-.2-.93-.13-1.74-.61-2.31-1.37-1.43-1.91-.79-5.08-.28-6.8l.28-.96.86-.5c.89-.52,1.77-.78,2.64-.78,1.75,0,3.04,1.06,3.68,2.23.5.65,1.12,1.87,1.12,3.85v.69l-.35.59c-.72,1.21-1.93,3.25-4.35,3.25h0Z"/>
        <path class="cls-2" d="m48.9,89.06c1.15,0,1.56,1.1,1.56,1.1,0,0,.74.62.74,2.48-.6,1.01-1.2,2.02-2.2,2.02-.23,0-.47-.05-.74-.16-2.21,0-.74-5-.74-5,.55-.32,1-.44,1.38-.44m0-5c-1.31,0-2.62.38-3.9,1.12l-1.72,1-.56,1.91c-1.41,4.8-.41,7.55.68,9,.92,1.23,2.25,2.04,3.75,2.31.61.17,1.23.26,1.85.26,3.85,0,5.71-3.13,6.5-4.47l.7-1.18v-1.37c0-2.53-.79-4.21-1.54-5.24-1.05-1.79-3.07-3.34-5.76-3.34h0Z"/>
      </g>
      <g>
        <path class="cls-3" d="m31.9,99.66c-5.35-4.13-1.21-13.07-.72-14.07l.37-.76.76-.38c.58-.29,1.2-.57,1.94-.57.54,0,2.35.19,2.78,2.6.04.24.08.42.19.64.1.19.21.39.32.58.87,1.5,2.31,4.02.62,8.4-.73,1.88-1.64,4.23-3.93,4.23h0c-.26,0-.49-.04-.69-.08l-.65.18-.99-.76Z"/>
        <path class="cls-2" d="m34.25,86.37c.43,0,.16.72.73,1.86.78,1.56,2.33,3.11.84,6.96-.85,2.2-1.26,2.63-1.6,2.63-.21,0-.4-.17-.65-.17-.05,0-.1,0-.15.02-3.89-3,0-11,0-11,.42-.21.67-.31.82-.31m0-5c-1.22,0-2.19.4-3.06.83l-1.52.76-.74,1.53c-.13.26-1.27,2.65-1.86,5.56-1.39,6.79,1.47,10.17,3.3,11.59l1.98,1.53,1.33-.37c.17.02.35.03.54.03,4.01,0,5.48-3.79,6.26-5.82,2.13-5.49.16-8.91-.78-10.55-.07-.13-.14-.25-.21-.37,0-.02,0-.04-.01-.06-.62-3.44-3.21-4.66-5.24-4.66h0Z"/>
      </g>
      <g>
        <path class="cls-3" d="m10.83,84.38c-1.89,0-3.1-1.58-3.6-4.7l-.03-.2v-4.25l1.65-3.58c.56-1.89,2.18-1.99,2.51-1.99,2.77,0,2.9,2.39,3.27,9.49l.02.38-.09.37c-.37,1.45-1.15,4.47-3.72,4.47Z"/>
        <path class="cls-2" d="m11.35,72.17c.4,0,.77,7.12.77,7.12-.5,1.95-.93,2.59-1.29,2.59-.72,0-1.13-2.59-1.13-2.59v-3.5l1.51-3.28c.05-.23.1-.34.15-.34m0-5h-.01c-1.88,0-4.01,1.12-4.83,3.58l-1.35,2.94-.46,1v4.99l.06.39c.41,2.54,1.73,6.8,6.07,6.8s5.74-4.78,6.14-6.35l.19-.74-.04-.76c0-.08-.1-1.87-.24-3.7-.09-1.14-.18-2.03-.28-2.72-.67-4.91-3.89-5.44-5.24-5.44h0Z"/>
      </g>
      <g>
        <path class="cls-3" d="m58.28,63.89l-.64-.44c-2.9-1.99-2.99-5.58-2.99-5.98v-5.8l.25-.52c.25-.53,1.66-3.15,4.22-3.15,1.17,0,2.82.55,4.08,3.15l.14.28.06.3c.37,1.76,1.38,7.7-.93,10.54-.85,1.04-2.06,1.62-3.42,1.62h-.78Z"/>
        <path class="cls-2" d="m59.13,50.5c.56,0,1.2.44,1.83,1.74,0,0,1.9,9.15-1.9,9.15-1.9-1.31-1.9-3.92-1.9-3.92v-5.23s.85-1.74,1.97-1.74m0-5h0c-3.14,0-5.4,2.36-6.47,4.56l-.5,1.03v6.38c0,2.42,1.07,5.98,4.07,8.04l1.28.88h1.55c2.12,0,4.02-.9,5.36-2.54,1.21-1.49,3.01-5.1,1.44-12.63l-.13-.61-.27-.56c-1.92-3.97-4.79-4.56-6.33-4.56h0Z"/>
      </g>
      <line class="cls-1" x1="20.94" y1="13.89" x2="19.94" y2="18.89"/>
      <line class="cls-1" x1="45.89" y1="43.55" x2="50.83" y2="41.63"/>
      <line class="cls-1" x1="45.71" y1="45.86" x2="47.48" y2="40.98"/>
    </g>
  </g>
</svg>