<?xml version="1.0" encoding="UTF-8"?>
<svg id="Laag_2" data-name="Laag 2" xmlns="http://www.w3.org/2000/svg" viewBox="0 0 109.57 104.3">
  <defs>
    <style>
      .cls-1 {
        stroke: #1d1d1b;
        stroke-linejoin: round;
        stroke-width: 1.42px;
      }

      .cls-1, .cls-2 {
        fill: #fff;
      }

      .cls-3 {
        fill: #1d1d1b;
      }

      .cls-3, .cls-2 {
        stroke-width: 0px;
      }
    </style>
  </defs>
  <g id="Laag_1-2" data-name="Laag 1">
    <g>
      <path class="cls-1" d="m74.2,22.21v-1.61c4.46.43,8,4.34,8.31,9.21h3.42c-.32-6.92-5.39-12.49-11.74-12.93v-1.54c0-1.33-1.33-2.16-2.39-1.5l-5.48,3.44c-1.06.67-1.06,2.33,0,2.99l5.48,3.44c1.06.67,2.39-.17,2.39-1.5Z"/>
      <g>
        <path class="cls-2" d="m66.91,49.96h14.01c5.61,0,10.16,4.55,10.16,10.16v28.03c0,5.61-4.55,10.16-10.16,10.16h-14.01c-5.61,0-10.16-4.55-10.16-10.16v-28.03c0-5.61,4.55-10.16,10.16-10.16Z"/>
        <path class="cls-3" d="m80.91,51.22c4.91,0,8.9,3.99,8.9,8.9v28.03c0,4.91-3.99,8.9-8.9,8.9h-14.01c-4.91,0-8.9-3.99-8.9-8.9v-28.03c0-4.91,3.99-8.9,8.9-8.9h14.01m0-2.52h-14.01c-6.28,0-11.42,5.14-11.42,11.42v28.03c0,6.28,5.14,11.42,11.42,11.42h14.01c6.28,0,11.42-5.14,11.42-11.42v-28.03c0-6.28-5.14-11.42-11.42-11.42h0Z"/>
      </g>
      <g>
        <path class="cls-2" d="m85.06,99.07c-.41,0-.83-.03-1.25-.08l-13.9-1.72c-5.56-.69-9.52-5.77-8.83-11.33l3.45-27.82c.63-5.08,4.96-8.91,10.08-8.91.42,0,.83.03,1.25.08l13.9,1.72c5.56.69,9.52,5.77,8.83,11.33l-3.45,27.82c-.63,5.08-4.96,8.91-10.08,8.91Z"/>
        <path class="cls-3" d="m74.61,50.47h0c.36,0,.73.02,1.09.07l13.9,1.72c2.35.29,4.45,1.49,5.91,3.37,1.47,1.88,2.11,4.21,1.82,6.56l-3.45,27.82c-.55,4.45-4.35,7.81-8.83,7.81-.36,0-.73-.02-1.09-.07l-13.9-1.72c-2.35-.29-4.45-1.49-5.91-3.37-1.47-1.88-2.11-4.21-1.82-6.56l3.45-27.82c.55-4.45,4.35-7.81,8.83-7.81m0-2.52c-5.67,0-10.62,4.25-11.34,10.02l-3.45,27.82c-.77,6.23,3.7,11.97,9.93,12.74l13.9,1.72c.47.06.94.09,1.4.09,5.67,0,10.62-4.25,11.34-10.02l3.45-27.82c.77-6.23-3.7-11.97-9.93-12.74l-13.9-1.72c-.47-.06-.94-.09-1.4-.09h0Z"/>
      </g>
      <g>
        <path class="cls-2" d="m91.45,103.04c-.81,0-1.62-.1-2.41-.29l-13.6-3.34c-2.62-.64-4.84-2.28-6.26-4.61-1.41-2.33-1.83-5.06-1.19-7.68l6.69-27.22c1.12-4.56,5.18-7.74,9.88-7.74.81,0,1.62.1,2.41.29l13.6,3.34c5.44,1.34,8.78,6.85,7.44,12.29l-6.69,27.22c-1.12,4.56-5.18,7.74-9.88,7.74Z"/>
        <path class="cls-3" d="m84.57,53.42h0c.71,0,1.42.09,2.11.26l13.6,3.34c2.3.56,4.24,2,5.48,4.04,1.24,2.04,1.61,4.43,1.04,6.73l-6.69,27.22c-.98,3.99-4.54,6.78-8.66,6.78-.71,0-1.42-.09-2.11-.26l-13.6-3.34c-4.77-1.17-7.69-6-6.52-10.77l6.69-27.22c.98-3.99,4.54-6.78,8.66-6.78m0-2.52c-5.13,0-9.83,3.5-11.11,8.7l-6.69,27.22c-1.5,6.1,2.27,12.32,8.37,13.82l13.6,3.34c.91.22,1.81.33,2.71.33,5.13,0,9.83-3.5,11.11-8.7l6.69-27.22c1.5-6.1-2.27-12.32-8.37-13.82l-13.6-3.34c-.91-.22-1.81-.33-2.71-.33h0Z"/>
      </g>
      <path class="cls-1" d="m41.51,73.64v1.61c-4.46-.43-8-4.34-8.31-9.21h-3.42c.32,6.92,5.39,12.49,11.74,12.93v1.54c0,1.33,1.33,2.16,2.39,1.5l5.48-3.44c1.06-.67,1.06-2.33,0-2.99l-5.48-3.44c-1.06-.67-2.39.17-2.39,1.5Z"/>
      <g>
        <path class="cls-2" d="m17.85,52.87c-4.67,0-8.84-3.29-9.91-7.83L1.53,17.75c-.62-2.63-.17-5.35,1.26-7.67,1.43-2.31,3.67-3.93,6.3-4.55l13.64-3.21c.76-.18,1.54-.27,2.31-.27,4.67,0,8.84,3.29,9.91,7.83l6.42,27.29c1.28,5.45-2.11,10.93-7.57,12.22l-13.64,3.21c-.76.18-1.54.27-2.31.27Z"/>
        <path class="cls-3" d="m25.04,3.32c4.09,0,7.74,2.89,8.68,6.86l6.42,27.28c1.12,4.78-1.85,9.58-6.63,10.7l-13.64,3.21c-.67.16-1.35.24-2.02.24-4.09,0-7.74-2.89-8.68-6.86L2.76,17.46c-1.12-4.78,1.85-9.58,6.63-10.7l13.64-3.21c.67-.16,1.35-.24,2.02-.24m0-2.52c-.86,0-1.73.1-2.6.3l-13.64,3.21C2.69,5.74-1.14,11.92.3,18.04l6.42,27.29c1.23,5.25,5.95,8.81,11.13,8.81.86,0,1.73-.1,2.6-.3l13.64-3.21c6.11-1.44,9.94-7.62,8.5-13.73l-6.42-27.29c-1.23-5.25-5.95-8.81-11.13-8.81h0Z"/>
      </g>
      <g>
        <path class="cls-2" d="m21.76,50.95c-5.2,0-9.54-3.9-10.1-9.07l-3.01-27.87c-.29-2.69.49-5.33,2.2-7.45,1.71-2.12,4.13-3.45,6.81-3.74l13.93-1.5c.37-.04.73-.06,1.09-.06,5.2,0,9.54,3.9,10.1,9.07l3.01,27.87c.6,5.57-3.44,10.59-9.01,11.19l-13.93,1.5c-.37.04-.73.06-1.09.06Z"/>
        <path class="cls-3" d="m32.68,2.52c4.48,0,8.37,3.49,8.85,7.94l3.01,27.87c.25,2.35-.43,4.67-1.93,6.53-1.5,1.86-3.62,3.02-5.97,3.28l-13.93,1.5c-.32.03-.64.05-.96.05-4.56,0-8.36-3.42-8.85-7.94l-3.01-27.87c-.25-2.35.43-4.67,1.93-6.53,1.5-1.86,3.62-3.02,5.97-3.28l13.93-1.5c.32-.03.64-.05.96-.05m0-2.52c-.41,0-.81.02-1.23.07l-13.93,1.5c-6.25.67-10.8,6.34-10.13,12.58l3.01,27.87c.63,5.83,5.61,10.19,11.35,10.19.41,0,.81-.02,1.23-.07l13.93-1.5c6.25-.67,10.8-6.34,10.13-12.58l-3.01-27.87C43.4,4.36,38.42,0,32.68,0h0Z"/>
      </g>
      <g>
        <path class="cls-2" d="m28.72,51.71c-5.6-.06-10.12-4.66-10.06-10.26l.28-28.03c.06-5.55,4.61-10.06,10.16-10.06l14.11.14c5.6.06,10.12,4.66,10.06,10.26l-.28,28.03c-.06,5.55-4.61,10.06-10.16,10.06l-14.11-.14Z"/>
        <path class="cls-3" d="m29.1,4.62h.09s14.01.14,14.01.14c4.91.05,8.86,4.08,8.81,8.99l-.28,28.03c-.05,4.86-4.04,8.81-8.9,8.81h-.09s-14.01-.14-14.01-.14c-4.91-.05-8.86-4.08-8.81-8.99l.28-28.03c.05-4.86,4.04-8.81,8.9-8.81m0-2.52c-6.23,0-11.36,5.06-11.42,11.31l-.28,28.03c-.06,6.28,5.03,11.47,11.31,11.53l14.01.14s.08,0,.11,0c6.23,0,11.36-5.06,11.42-11.31l.28-28.03c.06-6.28-5.03-11.47-11.31-11.53l-14.01-.14s-.08,0-.11,0h0Z"/>
      </g>
    </g>
  </g>
</svg>