<?xml version="1.0" encoding="UTF-8"?>
<svg id="Laag_2" data-name="Laag 2" xmlns="http://www.w3.org/2000/svg" viewBox="0 0 86.5 87.78">
  <defs>
    <style>
      .cls-1 {
        fill: #1d1d1b;
      }

      .cls-1, .cls-2, .cls-3 {
        stroke-width: 0px;
      }

      .cls-2 {
        fill: #de2b65;
      }

      .cls-3 {
        fill: #fff;
      }
    </style>
  </defs>
  <g id="Laag_1-2" data-name="Laag 1">
    <g>
      <g>
        <ellipse class="cls-2" cx="43.25" cy="43.89" rx="41.75" ry="42.39"/>
        <path class="cls-1" d="m43.25,3c22.19,0,40.25,18.34,40.25,40.89s-18.06,40.89-40.25,40.89S3,66.44,3,43.89,21.06,3,43.25,3m0-3C19.34,0,0,19.63,0,43.89s19.34,43.89,43.25,43.89,43.25-19.63,43.25-43.89S67.16,0,43.25,0h0Z"/>
      </g>
      <g>
        <path class="cls-3" d="m43.25,77.5c-18.25,0-33.1-15.08-33.1-33.61S25,10.28,43.25,10.28s33.1,15.08,33.1,33.61-14.85,33.61-33.1,33.61Z"/>
        <path class="cls-1" d="m43.25,11.78c17.42,0,31.6,14.41,31.6,32.11s-14.18,32.11-31.6,32.11-31.6-14.41-31.6-32.11S25.83,11.78,43.25,11.78m0-3c-19.12,0-34.6,15.7-34.6,35.11s15.48,35.11,34.6,35.11,34.6-15.7,34.6-35.11S62.37,8.78,43.25,8.78h0Z"/>
      </g>
      <g>
        <path class="cls-2" d="m43.25,68.73c-13.48,0-24.45-11.14-24.45-24.83s10.97-24.83,24.45-24.83,24.45,11.14,24.45,24.83-10.97,24.83-24.45,24.83Z"/>
        <path class="cls-1" d="m43.25,20.56c12.65,0,22.95,10.47,22.95,23.33s-10.3,23.33-22.95,23.33-22.95-10.47-22.95-23.33,10.3-23.33,22.95-23.33m0-3c-14.34,0-25.95,11.78-25.95,26.33s11.61,26.33,25.95,26.33,25.95-11.78,25.95-26.33-11.61-26.33-25.95-26.33h0Z"/>
      </g>
      <g>
        <path class="cls-3" d="m43.25,59.95c-8.71,0-15.8-7.2-15.8-16.06s7.09-16.06,15.8-16.06,15.8,7.2,15.8,16.06-7.09,16.06-15.8,16.06Z"/>
        <path class="cls-1" d="m43.25,29.33c7.88,0,14.3,6.53,14.3,14.56s-6.42,14.56-14.3,14.56-14.3-6.53-14.3-14.56,6.42-14.56,14.3-14.56m0-3c-9.56,0-17.3,7.85-17.3,17.56s7.74,17.56,17.3,17.56,17.3-7.85,17.3-17.56-7.74-17.56-17.3-17.56h0Z"/>
      </g>
      <g>
        <path class="cls-2" d="m43.25,51.17c-3.94,0-7.15-3.27-7.15-7.28s3.21-7.28,7.15-7.28,7.15,3.26,7.15,7.28-3.21,7.28-7.15,7.28Z"/>
        <path class="cls-1" d="m43.25,38.11c3.12,0,5.65,2.59,5.65,5.78s-2.53,5.78-5.65,5.78-5.65-2.59-5.65-5.78,2.53-5.78,5.65-5.78m0-3c-4.78,0-8.65,3.93-8.65,8.78s3.87,8.78,8.65,8.78,8.65-3.93,8.65-8.78-3.87-8.78-8.65-8.78h0Z"/>
      </g>
    </g>
  </g>
</svg>