<?xml version="1.0" encoding="UTF-8"?>
<svg id="Laag_2" data-name="Laag 2" xmlns="http://www.w3.org/2000/svg" viewBox="0 0 93.04 79.83">
  <defs>
    <style>
      .cls-1 {
        fill: none;
        stroke: #8082b8;
        stroke-linecap: round;
        stroke-linejoin: round;
        stroke-width: 8px;
      }
    </style>
  </defs>
  <g id="Laag_1-2" data-name="Laag 1">
    <path class="cls-1" d="m4,44.25c5.23,19.41,24.12,35.47,45.85,30.74,18.89-4.72,32.11-26.45,20.78-45.34-3.78-6.61-9.44-9.44-17-11.33-8.5-1.89-16.06,2.83-20.78,9.44-2.83,5.67-1.89,13.22,3.78,17.95,3.78,2.83,8.5,1.89,10.39-.94,2.83-4.72-6.61-9.44.94-12.28,5.67-1.89,10.39,1.89,12.28,6.61,1.89,7.56-1.89,16.06-8.5,19.83-9.44,4.72-21.72,2.83-28.33-5.67-12.28-16.06-5.67-38.72,12.28-46.28,24.56-11.33,54.78,11.33,53.31,37.78"/>
  </g>
</svg>