<?xml version="1.0" encoding="UTF-8"?>
<svg id="Laag_2" data-name="Laag 2" xmlns="http://www.w3.org/2000/svg" viewBox="0 0 70.39 100.91">
  <defs>
    <style>
      .cls-1 {
        fill: #fff;
        stroke: #1d1d1b;
        stroke-linejoin: round;
        stroke-width: 1.64px;
      }

      .cls-2 {
        fill: #1d1d1b;
      }

      .cls-2, .cls-3, .cls-4 {
        stroke-width: 0px;
      }

      .cls-3 {
        fill: #de2b65;
      }

      .cls-4 {
        fill: #eb7c19;
      }
    </style>
  </defs>
  <g id="Laag_1-2" data-name="Laag 1">
    <g>
      <path class="cls-3" d="m6.95,1.2h19.42c3.18,0,5.76,2.58,5.76,5.76v36.66c0,3.18-2.58,5.76-5.76,5.76H6.95c-3.18,0-5.76-2.58-5.76-5.76V6.95C1.2,3.77,3.77,1.2,6.95,1.2Z"/>
      <path class="cls-2" d="m26.38,2.39c2.52,0,4.56,2.05,4.56,4.56v36.66c0,2.52-2.05,4.56-4.56,4.56H6.95c-2.52,0-4.56-2.05-4.56-4.56V6.95c0-2.52,2.05-4.56,4.56-4.56h19.42m0-2.39H6.95C3.13,0,0,3.13,0,6.95v36.66c0,3.82,3.13,6.95,6.95,6.95h19.42c3.82,0,6.95-3.13,6.95-6.95V6.95c0-3.82-3.13-6.95-6.95-6.95h0Z"/>
    </g>
    <g>
      <rect class="cls-4" x="38.26" y="51.54" width="30.94" height="48.18" rx="4.57" ry="4.57"/>
      <path class="cls-2" d="m64.62,52.73c1.86,0,3.37,1.51,3.37,3.37v39.04c0,1.86-1.51,3.37-3.37,3.37h-21.8c-1.86,0-3.37-1.51-3.37-3.37v-39.04c0-1.86,1.51-3.37,3.37-3.37h21.8m0-2.39h-21.8c-3.17,0-5.76,2.59-5.76,5.76v39.04c0,3.17,2.59,5.76,5.76,5.76h21.8c3.17,0,5.76-2.59,5.76-5.76v-39.04c0-3.17-2.59-5.76-5.76-5.76h0Z"/>
    </g>
    <path class="cls-1" d="m21.3,69.29v1.95c-4.9-.52-8.8-5.24-9.14-11.13h-3.76c.35,8.37,5.92,15.09,12.9,15.63v1.86c0,1.61,1.46,2.61,2.62,1.81l6.02-4.15c1.17-.8,1.17-2.81,0-3.62l-6.02-4.15c-1.17-.8-2.62.2-2.62,1.81Z"/>
    <path class="cls-1" d="m49.18,32.04v-1.95c4.9.52,8.8,5.24,9.14,11.13h3.76c-.35-8.37-5.92-15.09-12.9-15.63v-1.86c0-1.61-1.46-2.61-2.62-1.81l-6.02,4.15c-1.17.8-1.17,2.81,0,3.62l6.02,4.15c1.17.8,2.62-.2,2.62-1.81Z"/>
  </g>
</svg>