<?xml version="1.0" encoding="UTF-8"?>
<svg id="Laag_2" data-name="Laag 2" xmlns="http://www.w3.org/2000/svg" viewBox="0 0 87.41 113.56">
  <defs>
    <style>
      .cls-1 {
        stroke: #1d1d1b;
        stroke-linecap: round;
        stroke-linejoin: round;
        stroke-width: 2px;
      }

      .cls-1, .cls-2 {
        fill: #fff;
      }

      .cls-3 {
        fill: #8081b7;
      }

      .cls-3, .cls-4, .cls-5, .cls-6, .cls-7, .cls-2, .cls-8 {
        stroke-width: 0px;
      }

      .cls-4 {
        fill: #1d1d1b;
      }

      .cls-5 {
        fill: #090808;
      }

      .cls-6 {
        fill: #dd2b66;
      }

      .cls-7 {
        fill: #89ba3f;
      }

      .cls-8 {
        fill: #e97c23;
      }
    </style>
  </defs>
  <g id="Laag_1-2" data-name="Laag 1">
    <g>
      <path class="cls-1" d="m28.81,85.68l-4.26,3.72c-1.15,1-1.84,2.35-2.03,3.77-.18,1.31.13,2.37.23,2.68.21.65.49,1.15.71,1.49,2.72,4.15,5.44,8.3,8.16,12.46,1.16,1.77,3.14,2.81,5.25,2.76l12.01-.29c2.91-.07,5.36-2.19,5.86-5.05l1.42-8.12c.14-.8.44-1.56.88-2.25h0c2.36-3.68.2-8.57-4.11-9.31l-19.08-3.26c-1.81-.31-3.66.21-5.04,1.42Z"/>
      <g>
        <path class="cls-3" d="m18.41,96.67c-1.43,0-2.76-.76-3.46-1.99L1.53,71.45c-.53-.92-.67-1.99-.39-3.02s.93-1.89,1.85-2.42l12.37-7.14c.6-.35,1.28-.53,1.98-.53,1.43,0,2.76.76,3.46,1.99l13.42,23.24c.53.92.67,1.99.39,3.02s-.93,1.89-1.85,2.42l-12.37,7.14c-.6.35-1.28.53-1.98.53Z"/>
        <path class="cls-4" d="m17.34,59.33c1.07,0,2.07.57,2.6,1.49l13.42,23.24c.82,1.42.33,3.25-1.09,4.08l-12.37,7.14c-.45.26-.96.4-1.48.4-1.07,0-2.07-.57-2.6-1.49l-13.42-23.24c-.4-.69-.5-1.49-.29-2.26.21-.77.7-1.42,1.38-1.81l12.37-7.14c.45-.26.96-.4,1.48-.4m0-2c-.84,0-1.7.21-2.48.66l-12.37,7.14c-2.37,1.37-3.2,4.43-1.82,6.81l13.42,23.24c.92,1.59,2.6,2.49,4.33,2.49.84,0,1.7-.21,2.48-.66l12.37-7.14c2.37-1.37,3.2-4.43,1.82-6.81l-13.42-23.24c-.92-1.59-2.6-2.49-4.33-2.49h0Z"/>
      </g>
      <g>
        <path class="cls-6" d="m26.72,90.4c-1.93,0-3.62-1.3-4.12-3.15l-6.8-25.39c-.29-1.09-.14-2.24.43-3.23.57-.99,1.49-1.69,2.58-1.99l13.28-3.56c.36-.1.73-.14,1.09-.14,1.93,0,3.62,1.3,4.12,3.15l6.8,25.39c.61,2.27-.74,4.6-3.01,5.21l-13.28,3.56c-.36.1-.73.14-1.09.14Z"/>
        <path class="cls-4" d="m33.17,53.94c1.48,0,2.77.99,3.15,2.41l6.8,25.39c.22.83.11,1.71-.33,2.47-.44.76-1.14,1.3-1.97,1.52l-13.28,3.56c-.27.07-.55.11-.83.11-1.48,0-2.77-.99-3.15-2.41l-6.8-25.39c-.22-.83-.11-1.71.33-2.47.44-.76,1.14-1.3,1.97-1.52l13.28-3.56c.27-.07.55-.11.83-.11m0-2c-.45,0-.9.06-1.35.18l-13.28,3.56c-2.79.75-4.46,3.64-3.72,6.44l6.8,25.39c.63,2.34,2.76,3.89,5.08,3.89.45,0,.9-.06,1.35-.18l13.28-3.56c2.79-.75,4.46-3.64,3.72-6.44l-6.8-25.39c-.63-2.34-2.76-3.89-5.08-3.89h0Z"/>
      </g>
      <g>
        <path class="cls-8" d="m45.6,90.52c-.32,0-.65-.04-.96-.13l-14.26-3.82c-.96-.26-1.77-.88-2.27-1.75-.5-.87-.64-1.88-.38-2.84l7.07-26.38c.44-1.63,1.93-2.77,3.62-2.77.32,0,.65.04.96.13l14.26,3.82c.96.26,1.77.88,2.27,1.75s.64,1.88.38,2.84l-7.07,26.38c-.44,1.63-1.93,2.77-3.62,2.77Z"/>
        <path class="cls-4" d="m38.42,53.83h0c.24,0,.47.03.7.09l14.26,3.82c.7.19,1.29.64,1.66,1.28.37.64.47,1.38.28,2.08l-7.07,26.38c-.32,1.2-1.41,2.03-2.66,2.03-.24,0-.47-.03-.7-.09l-14.26-3.82c-.7-.19-1.29-.64-1.66-1.28-.37-.64-.47-1.38-.28-2.08l7.07-26.38c.32-1.2,1.41-2.03,2.66-2.03m0-2c-2.09,0-4.02,1.4-4.59,3.52l-7.07,26.38c-.68,2.52.83,5.13,3.35,5.81l14.26,3.82c.41.11.82.16,1.22.16,2.09,0,4.02-1.4,4.59-3.52l7.07-26.38c.68-2.52-.83-5.13-3.35-5.81l-14.26-3.82c-.41-.11-.82-.16-1.22-.16h0Z"/>
      </g>
      <g>
        <path class="cls-7" d="m54.75,97.45c-.65,0-1.29-.17-1.86-.5l-12.8-7.39c-1.79-1.03-2.4-3.32-1.37-5.11l13.66-23.66c.66-1.15,1.91-1.87,3.25-1.87.65,0,1.29.17,1.86.5l12.8,7.39c.86.5,1.48,1.3,1.74,2.27.26.97.13,1.98-.37,2.84l-13.66,23.66c-.66,1.15-1.91,1.87-3.25,1.87Z"/>
        <path class="cls-4" d="m55.64,59.94h0c.48,0,.94.13,1.36.36l12.8,7.39c.63.36,1.08.95,1.27,1.66.19.71.1,1.45-.27,2.08l-13.66,23.66c-.49.84-1.4,1.37-2.39,1.37-.48,0-.94-.13-1.36-.36l-12.8-7.39c-1.31-.76-1.76-2.43-1-3.74l13.66-23.66c.49-.84,1.4-1.37,2.39-1.37m0-2c-1.64,0-3.24.85-4.12,2.37l-13.66,23.66c-1.3,2.26-.52,5.17,1.73,6.47l12.8,7.39c.74.43,1.55.63,2.36.63,1.64,0,3.24-.85,4.12-2.37l13.66-23.66c1.3-2.26.52-5.17-1.73-6.47l-12.8-7.39c-.74-.43-1.55-.63-2.36-.63h0Z"/>
      </g>
      <g>
        <path class="cls-3" d="m73.34,49.25c-.12,0-.24,0-.36-.02l-15.17-1.73c-.84-.1-1.6-.52-2.14-1.19s-.77-1.5-.68-2.35l3.13-27.53c.18-1.62,1.55-2.83,3.18-2.83.12,0,.24,0,.36.02l15.17,1.73c.84.1,1.6.52,2.14,1.19s.77,1.5.68,2.35l-3.13,27.53c-.18,1.62-1.55,2.84-3.18,2.84Z"/>
        <path class="cls-4" d="m61.31,14.6h0c.08,0,.17,0,.25.01l15.17,1.73c.58.07,1.1.36,1.47.82.37.46.53,1.03.47,1.61l-3.13,27.53c-.12,1.09-1.08,1.95-2.18,1.95-.08,0-.17,0-.25-.01l-15.17-1.73c-1.2-.14-2.07-1.23-1.93-2.43l3.13-27.53c.12-1.09,1.08-1.95,2.18-1.95m0-2c-2.1,0-3.93,1.59-4.17,3.72l-3.13,27.53c-.26,2.29,1.4,4.38,3.69,4.65l15.17,1.73c.16.02.32.03.47.03,2.1,0,3.93-1.59,4.17-3.72l3.13-27.53c.26-2.29-1.4-4.38-3.69-4.65l-15.17-1.73c-.16-.02-.32-.03-.47-.03h0Z"/>
      </g>
      <path class="cls-1" d="m22.75,95.85s-3.91-8.33,7.19-12.28,20.2-1.63,16.51,1.54l-7.29,4.63"/>
      <g>
        <path class="cls-4" d="m87.18,10.96c-1.02-.58-2.03-1.16-3.05-1.74,0,0-.02.02-.03.02-.02,0-.03-.02-.05-.03-.18-.02-.34.06-.4.22-.13.32-.3.21-.49.08-1.27-.84-2.44-1.81-3.6-2.79-.96-.81-1.88-1.68-2.92-2.4-.62-.43-1.3-.66-2.02-.82-.27-.06-.51-.16-.75-.3-1.72-1-3.44-1.99-5.16-2.98-.72-.42-1.34-.19-1.67.6-.18.44-.16.87.02,1.34-.88-.17-1.71-.29-2.53-.49-.56-.14-.85.2-.97.6-.16.54-.06,1.01.38,1.79-.54-.08-1.06-.11-1.55-.24-1.07-.29-1.7.71-1.33,1.69.35.93,1.11,1.43,2.01,1.7,1.4.41,2.82.75,4.22,1.12.06.02.12.04.23.07-.23.18-.29.4-.34.63-.3,1.3-.61,2.6-.93,3.9-.02.08-.02.15-.02.22.13.01.26.03.38.05.12,0,.24,0,.36.02.02,0,.04-.01.06-.01.03,0,.06,0,.09,0,.01-.01.02-.03.04-.04-.03-.1-.03-.2,0-.32.28-1.15.56-2.31.83-3.46.06-.25.17-.4.4-.51.68-.35,1.39-.62,2.1-.89.27-.1.41-.28.31-.56-.1-.29-.33-.33-.6-.23-.46.17-.92.35-1.37.53-.11.05-.21.08-.34.05-1.76-.47-3.53-.91-5.28-1.41-.55-.16-1.03-.49-1.3-1.04-.09-.19-.14-.41-.03-.59.11-.19.32-.07.49-.04,2.29.37,4.58.75,6.87,1.13,1.13.19,2.26.38,3.39.58.24.04.45,0,.56-.22.09-.18.04-.37-.12-.52-.12-.11-.28-.11-.42-.13-2.05-.35-4.09-.69-6.14-1.03-.6-.1-1.13-.38-1.61-.74-.28-.21-.48-.52-.52-.89-.03-.26.04-.36.33-.3,2.65.56,5.33,1,8,1.41,1.92.29,3.62.92,5.07,2.3,1.57,1.49,3.23,2.9,5.09,4.03.27.16.13.3.04.46-.84,1.46-1.69,2.92-2.53,4.39-.13.23-.26.33-.53.32-.31-.01-.61.08-.91.2-.81.31-1.48.84-2.2,1.3-.55.35-1.11.68-1.78.75-.82.09-1.64.17-2.47.18-.15,0-.29,0-.43-.07-.87-.43-1.76-.84-2.72-1.05-.52-.11-.63-.51-.27-.9.72-.8,1.65-.92,2.65-.78.1.01.23.07.28.15.23.35.53.29.86.19.23-.08.47-.14.71-.19.31-.06.46-.24.47-.56.05-.86.1-1.72.15-2.58.02-.33-.09-.52-.45-.6-.58-.13-1.13-.33-1.19-1.07-.02-.23-.19-.36-.43-.33-.24.03-.4.15-.39.42,0,.1.06.22-.13.23-.57.02-1.12.23-1.7.1-.2-.04-.37,0-.49.2-.11.2-.07.38.08.52.11.1.17.17.11.34-.2.53-.31,1.06-.23,1.6.02,0,.04,0,.06.01.01,0,.09.02.03,0,.02,0,.04,0,.06,0,.09,0,.18.02.27.02.16.01.33.03.49.07-.1-.6-.05-1.17.2-1.65.04-.25.13-.25.24-.27.39-.04.78-.09,1.17-.14.13-.02.24.02.33.11.23.25.52.39.83.48.2.06.3.16.27.41-.06.52-.07,1.04-.1,1.57-.02.32-.44.6-.7.42-.59-.41-1.23-.42-1.9-.35-.02,0-.04,0-.06.01-.05.05-.11.09-.18.09-.09,0-.18,0-.26,0-.02,0-.04,0-.06,0,0,0-.02,0-.02,0-.03,0-.07.03-.11.03,0,0,0,0-.01,0-.02,0-.03.02-.05.02-.05.02-.1.05-.15.07-.07.03-.14.04-.21.05-.03.03-.07.05-.12.08l-.07-.04c-.11.1-.24.17-.38.25-.17.09-.29.2-.4.38-.13.2-.25.41-.39.61-.06.08-.11.16-.17.24.03.06.06.12.06.2.03.81.29,1.2,1.05,1.38.91.21,1.76.55,2.57,1,.24.13.48.17.74.17.94-.02,1.87-.09,2.8-.21.69-.09,1.29-.39,1.87-.76.63-.4,1.22-.85,1.88-1.19.22-.11.44-.2.76-.25-.15.25-.27.47-.4.68-.18.31-.15.55.18.75.94.53,1.87,1.07,2.8,1.61.29.17.5.13.67-.18,1.46-2.54,2.92-5.07,4.39-7.61.15-.26.14-.47-.13-.62Zm-15.54-8.04c-1.01-.17-2.03-.33-3.04-.51-.38-.07-.81-.57-.84-.91-.02-.24.11-.41.24-.59.08-.11.19-.05.29,0,1.12.65,2.25,1.3,3.37,1.95,0,.02-.01.04-.02.06Zm14.64,8.79c-1.26,2.17-2.52,4.35-3.77,6.54-.11.18-.19.22-.37.1-.56-.34-1.12-.67-1.7-.98-.24-.13-.26-.23-.12-.46.64-1.08,1.26-2.16,1.88-3.25.62-1.07,1.24-2.14,1.85-3.22.11-.2.2-.23.4-.11.57.35,1.15.68,1.73,1,.19.1.21.19.1.37Z"/>
        <path class="cls-5" d="m84.06,9.2s.03.03.05.03c0,0,.02-.01.03-.02-.02,0-.05-.01-.07-.02Z"/>
        <path class="cls-2" d="m82.85,10.28c-1.86-1.13-3.52-2.54-5.09-4.03-1.46-1.38-3.15-2-5.07-2.3-2.68-.41-5.35-.85-8-1.41-.29-.06-.36.04-.33.3.04.38.23.68.52.89.48.36,1.01.64,1.61.74,2.05.34,4.1.68,6.14,1.03.14.02.3.02.42.13.16.15.2.34.12.52-.11.23-.32.26-.56.22-1.13-.2-2.26-.39-3.39-.58-2.29-.38-4.58-.76-6.87-1.13-.16-.03-.37-.15-.49.04-.11.18-.06.4.03.59.27.55.76.88,1.3,1.04,1.75.5,3.52.94,5.28,1.41.14.04.23,0,.34-.05.45-.18.91-.35,1.37-.53.27-.1.5-.06.6.23.09.28-.04.46-.31.56-.71.27-1.42.54-2.1.89-.22.12-.34.26-.4.51-.26,1.16-.54,2.31-.83,3.46-.03.14-.03.26.01.37,0,0,.02,0,.03,0,.1,0,.21,0,.31.02l1.9.28c.06-.17.28-1.75.17-1.85-.15-.14-.3-.42-.18-.62.11-.2.29-.24.49-.2.58.13,1.13-.09,1.7-.1.18,0,.13-.13.13-.23-.01-.27.15-.4.39-.42.24-.03.41.1.43.33.07.74.62.94,1.19,1.07.36.08.47.27.45.6-.05.86-.11,1.72-.15,2.58-.02.32-.16.5-.47.56-.24.05-.48.11-.71.19-.33.11-.63.16-.86-.19-.05-.08-.18-.14-.28-.15-1-.15-1.93-.02-2.65.78-.36.4-.25.79.27.9.97.2,1.85.61,2.72,1.05.14.07.28.07.43.07.83,0,1.65-.1,2.47-.18.67-.07,1.23-.39,1.78-.75.72-.46,1.39-.99,2.2-1.3.3-.12.6-.21.91-.2.28.01.4-.09.53-.32.83-1.47,1.68-2.93,2.53-4.39.09-.16.23-.29-.04-.46Z"/>
        <path class="cls-2" d="m82.2,13.66c-.63,1.08-1.24,2.17-1.88,3.25-.14.23-.12.33.12.46.57.31,1.14.64,1.7.98.19.11.27.08.37-.1,1.25-2.18,2.51-4.36,3.77-6.54.11-.19.09-.27-.1-.37-.58-.32-1.16-.65-1.73-1-.2-.12-.28-.09-.4.11-.61,1.08-1.23,2.15-1.85,3.22Z"/>
        <path class="cls-2" d="m71.66,2.86c-1.12-.65-2.25-1.3-3.37-1.95-.1-.06-.21-.11-.29,0-.13.17-.26.35-.24.59.03.33.46.84.84.91,1.01.19,2.02.34,3.04.51,0-.02.01-.04.02-.06Z"/>
      </g>
    </g>
  </g>
</svg>