<?xml version="1.0" encoding="UTF-8"?>
<svg id="Laag_2" data-name="Laag 2" xmlns="http://www.w3.org/2000/svg" viewBox="0 0 131.84 83.44">
  <defs>
    <style>
      .cls-1 {
        fill: #1d1d1d;
      }

      .cls-1, .cls-2 {
        stroke-width: 0px;
      }

      .cls-2 {
        fill: #fff;
      }
    </style>
  </defs>
  <g id="Laag_1-2" data-name="Laag 1">
    <g>
      <g>
        <path class="cls-1" d="m131.84,58.14c-.59.67-1.1,1.34-1.7,1.92-7.28,6.99-14.6,13.94-21.84,20.98-1.87,1.82-4.2,1.87-6.46,2.12-8.52.96-16.66-.61-24.52-3.94-5.95-2.52-11.39-5.87-16.38-9.96-2.68-2.19-2.58-5.04.31-6.97,4.36-2.91,8.76-5.74,13.15-8.61,2.38-1.56,4.75-3.12,7.13-4.68,2.49-1.63,5.07-1.58,7.43.27,3.36,2.63,6.87,4.99,10.87,6.57,6.35,2.51,12.93,3.4,19.7,2.75,2.9-.28,5.75-.94,8.63-1.39,1.26-.2,2.57-.45,3.68.93Zm-6.63,2.71c-3.02.23-5.96.57-8.91.65-7.59.2-14.87-1.23-21.54-4.95-2.71-1.51-5.16-3.49-7.7-5.3-1.48-1.05-2.21-1.12-3.69-.15-6.9,4.53-13.79,9.05-20.69,13.57-1.4.92-1.42,1.22-.14,2.27,4.73,3.89,9.86,7.16,15.49,9.6,7.56,3.27,15.42,4.88,23.68,3.88,1.73-.21,3.54-.14,5.01-1.58,5.14-5.05,10.38-9.99,15.57-14.99,1-.96,1.94-1.98,2.92-3Z"/>
        <g>
          <path class="cls-1" d="m50.22,0c1.79.67,3.67,1.3,5.49,2.05,10.84,4.48,21.67,8.97,32.47,13.53.92.39,1.7,1.25,2.37,2.04.74.87.38,1.85-.08,2.81-.2.41-.23,1.09-.02,1.46.66,1.14.57,2.16-.02,3.29-.19.36-.19.99,0,1.34.62,1.13.68,2.15.01,3.28-.21.35-.22,1.01-.02,1.36.67,1.17.67,2.24-.04,3.39-.18.3-.21.85-.06,1.17,1.03,2.23.55,3.77-1.66,4.93-7.8,4.09-15.62,8.16-23.42,12.24-6.32,3.3-12.66,6.55-18.93,9.93-3.06,1.65-5.96,1.79-9.15.31-11.51-5.34-23.07-10.56-34.61-15.83-1.94-.89-2.65-1.95-2.48-3.77.04-.41.35-.79.43-1.21.08-.42.17-.96-.02-1.3-.63-1.16-.63-2.24.03-3.38.18-.3.21-.88.04-1.16-.73-1.23-.71-2.38.02-3.59.16-.27.16-.8,0-1.06-.75-1.22-.73-2.37,0-3.58.15-.25.16-.71.05-.99-1.12-2.7-.63-3.95,2.06-5.23,6.51-3.09,13.01-6.18,19.52-9.28,8.14-3.86,16.26-7.74,24.42-11.57,1.05-.5,2.23-.73,3.61-1.17Zm-.03,2.16c-1.17.37-2.21.57-3.13,1.01-12.19,5.77-24.37,11.57-36.55,17.36-2.5,1.19-5,2.36-7.48,3.57-1.15.56-1.33,1.58-.44,2.26.31.24.69.4,1.06.57,11.72,5.36,23.44,10.71,35.18,16.05,1.81.82,3.66.84,5.45-.09,6.54-3.39,13.07-6.8,19.61-10.21,7.88-4.12,15.77-8.22,23.63-12.39.55-.29,1.17-.99,1.22-1.54.03-.41-.75-1.07-1.3-1.3-10.85-4.55-21.72-9.07-32.59-13.57-1.54-.64-3.12-1.17-4.65-1.73Zm-8.87,46.35c1.16-.38,2.21-.57,3.11-1.04,10.59-5.49,21.16-11.01,31.73-16.53,3.87-2.02,7.74-4.03,11.59-6.07.75-.39,1.44-.94.91-1.89-.55-.98-1.23-.3-1.84.02-13.77,7.18-27.53,14.37-41.3,21.55-2.37,1.24-4.84,1.47-7.29.35-11.3-5.12-22.57-10.29-33.87-15.42-.69-.31-1.57-1.15-2.15.03-.57,1.18.47,1.59,1.29,2.03.07.04.15.07.22.1,10.99,5.02,21.97,10.06,32.97,15.06,1.51.69,3.1,1.22,4.62,1.81Zm.22,9.25c1.06-.35,2.21-.58,3.22-1.1,9.6-4.97,19.17-9.98,28.75-14.99,4.72-2.47,9.43-4.95,14.15-7.43.8-.42,1.53-.93,1-1.95-.6-1.15-1.28-.09-1.92.04-.04,0-.07.04-.11.06-13.62,7.13-27.24,14.26-40.86,21.39-2.49,1.3-5.03,1.61-7.63.44-6.31-2.85-12.6-5.74-18.9-8.62-5.2-2.38-10.4-4.78-15.62-7.13-.34-.15-1.15-.03-1.22.16-.17.44-.13,1.04.03,1.51.09.27.54.45.86.6,11.71,5.37,23.43,10.74,35.16,16.07.93.42,1.97.6,3.11.94Zm-.17-4.53c1.41-.53,2.7-.86,3.84-1.46,12.25-6.37,24.49-12.78,36.72-19.18,2.02-1.06,4.05-2.1,6.05-3.2.68-.37,1.14-.97.66-1.79-.48-.84-1.06-.36-1.64-.06-13.8,7.22-27.59,14.44-41.39,21.65-2.49,1.3-5.02,1.5-7.63.3-6.18-2.84-12.37-5.65-18.56-8.47-5.24-2.39-10.47-4.81-15.73-7.16-.38-.17-.98.13-1.47.22.14.56.22,1.15.46,1.67.11.23.53.33.82.46,10.92,5,21.83,10,32.76,14.97,1.66.75,3.38,1.37,5.09,2.06Zm-.04,9.3c1.34-.48,2.56-.76,3.63-1.32,12.83-6.66,25.63-13.36,38.44-20.05,1.49-.78,3.01-1.51,4.44-2.39.45-.28.91-.97.92-1.47.02-.91-.68-1-1.92-.35-13.84,7.23-27.68,14.46-41.53,21.69-2.4,1.25-4.86,1.24-7.31.21-1.59-.67-3.13-1.44-4.69-2.15-9.87-4.51-19.73-9.01-29.59-13.53-.58-.27-1.2-.45-1.4.22-.14.49.13,1.15.35,1.68.09.22.53.31.82.44,10.92,4.99,21.84,9.99,32.76,14.96,1.66.75,3.38,1.38,5.08,2.07Z"/>
          <path class="cls-2" d="m50.18,2.16c1.52.56,3.11,1.09,4.65,1.73,10.87,4.5,21.74,9.01,32.59,13.57.55.23,1.33.9,1.3,1.3-.04.55-.66,1.25-1.22,1.54-7.86,4.16-15.74,8.27-23.63,12.39-6.53,3.41-13.07,6.82-19.61,10.21-1.79.93-3.64.91-5.45.09-11.73-5.34-23.45-10.7-35.18-16.05-.36-.17-.74-.33-1.06-.57-.89-.68-.71-1.7.44-2.26,2.48-1.22,4.98-2.39,7.48-3.57,12.18-5.79,24.36-11.59,36.55-17.36.92-.44,1.95-.64,3.13-1.01Z"/>
          <path class="cls-2" d="m41.31,48.5c-1.53-.59-3.11-1.12-4.62-1.81-11-5-21.98-10.04-32.97-15.06-.07-.03-.15-.06-.22-.1-.82-.43-1.86-.85-1.29-2.03.57-1.19,1.45-.35,2.15-.03,11.29,5.13,22.57,10.3,33.87,15.42,2.46,1.11,4.92.88,7.29-.35,13.77-7.18,27.53-14.37,41.3-21.55.61-.32,1.29-.99,1.84-.02.54.96-.16,1.5-.91,1.89-3.86,2.03-7.73,4.05-11.59,6.07-10.57,5.52-21.14,11.04-31.73,16.53-.9.47-1.94.66-3.11,1.04Z"/>
          <path class="cls-2" d="m41.52,57.75c-1.14-.34-2.18-.52-3.11-.94-11.73-5.33-23.44-10.7-35.16-16.07-.32-.15-.77-.33-.86-.6-.15-.47-.2-1.07-.03-1.51.08-.2.88-.31,1.22-.16,5.22,2.35,10.41,4.75,15.62,7.13,6.3,2.88,12.59,5.77,18.9,8.62,2.6,1.17,5.14.86,7.63-.44,13.62-7.14,27.24-14.26,40.86-21.39.04-.02.07-.05.11-.06.64-.13,1.32-1.19,1.92-.04.53,1.02-.2,1.53-1,1.95-4.72,2.47-9.43,4.96-14.15,7.43-9.58,5.01-19.15,10.02-28.75,14.99-1,.52-2.16.75-3.22,1.1Z"/>
          <path class="cls-2" d="m41.35,53.22c-1.71-.69-3.43-1.3-5.09-2.06-10.93-4.97-21.84-9.98-32.76-14.97-.29-.13-.71-.23-.82-.46-.24-.52-.32-1.11-.46-1.67.5-.08,1.09-.39,1.47-.22,5.26,2.35,10.49,4.77,15.73,7.16,6.19,2.83,12.38,5.63,18.56,8.47,2.61,1.2,5.14,1,7.63-.3,13.8-7.21,27.6-14.43,41.39-21.65.57-.3,1.15-.78,1.64.06.47.82.01,1.42-.66,1.79-2,1.1-4.03,2.14-6.05,3.2-12.24,6.4-24.47,12.81-36.72,19.18-1.15.6-2.43.93-3.84,1.46Z"/>
          <path class="cls-2" d="m41.31,62.52c-1.7-.69-3.42-1.31-5.08-2.07-10.93-4.97-21.85-9.97-32.76-14.96-.29-.13-.73-.22-.82-.44-.22-.53-.49-1.19-.35-1.68.2-.67.82-.49,1.4-.22,9.86,4.52,19.73,9.02,29.59,13.53,1.57.72,3.11,1.48,4.69,2.15,2.45,1.03,4.92,1.04,7.31-.21,13.84-7.23,27.69-14.46,41.53-21.69,1.25-.65,1.94-.56,1.92.35,0,.51-.46,1.19-.92,1.47-1.43.88-2.95,1.61-4.44,2.39-12.81,6.69-25.61,13.39-38.44,20.05-1.08.56-2.3.84-3.63,1.32Z"/>
        </g>
        <path class="cls-2" d="m125.21,60.85c-.98,1.01-1.92,2.04-2.92,3-5.19,5-10.43,9.94-15.57,14.99-1.47,1.44-3.28,1.37-5.01,1.58-8.26,1.01-16.12-.6-23.68-3.88-5.63-2.44-10.76-5.71-15.49-9.6-1.28-1.05-1.25-1.35.14-2.27,6.9-4.52,13.8-9.05,20.69-13.57,1.48-.97,2.21-.91,3.69.15,2.54,1.81,4.99,3.79,7.7,5.3,6.67,3.72,13.95,5.14,21.54,4.95,2.95-.08,5.89-.42,8.91-.65Zm-17.27,8.24c-7.44,2.68-15.06-2.22-18.16-6.07,1.49-1.51,3-3.03,4.59-4.63h-14.35v14.14c.11.08.22.16.32.24,1.43-1.6,2.86-3.2,4.29-4.78,7.85,7.36,17.93,5.88,23.31,1.11Z"/>
      </g>
      <path class="cls-1" d="m107.94,69.09c-5.37,4.77-15.46,6.25-23.31-1.11-1.42,1.59-2.85,3.19-4.29,4.78-.11-.08-.22-.16-.32-.24,0-4.69,0-9.38,0-14.14,4.82,0,9.55,0,14.35,0-1.59,1.61-3.1,3.13-4.59,4.63,3.09,3.85,10.72,8.75,18.16,6.07Z"/>
    </g>
  </g>
</svg>