<?xml version="1.0" encoding="utf-8"?>
<!-- Generator: Adobe Illustrator 28.1.0, SVG Export Plug-In . SVG Version: 6.00 Build 0)  -->
<svg version="1.1" id="Laag_2_00000074443326262652846040000011552605612746339204_"
	 xmlns="http://www.w3.org/2000/svg" xmlns:xlink="http://www.w3.org/1999/xlink" x="0px" y="0px" viewBox="0 0 372.4 96.7"
	 style="enable-background:new 0 0 372.4 96.7;" xml:space="preserve">
<style type="text/css">
	.st0{fill:#FFFFFF;}
</style>
<g id="Laag_1-2">
	<path class="st0" d="M134.1,48.4c0.2-25.4,36.7-37,54.9-48.4C141.4,24.6,63.9,48.4,0,48.4c63.8,0,141.3,23.7,188.9,48.3
		C170.7,85.4,134.4,73.8,134.1,48.4z"/>
	<path class="st0" d="M192.5,73.9c0.2-0.4,0.3-0.8,0.3-1.2c0-2.1-2-3.4-4.9-3.4c-3.6,0-8,1.6-11.9,1.6c-4.7,0-7.8-2.5-7.8-6.2
		c0-2.6,1.4-4.6,3.4-6c-0.4,0.5-0.5,1-0.5,1.5c0,1.4,1.2,2.2,3.2,2.2c2.9,0,8.9-2,13.5-2c5,0,8,2.5,8,6.7
		C195.7,69.7,194.5,72.1,192.5,73.9L192.5,73.9L192.5,73.9z M168.5,42.4c0-6.2,4.5-10.7,11.2-11.5c-1.8,1.5-2.7,5.3-2.7,11.5
		s0.9,10,2.7,11.5C173,53.1,168.5,48.6,168.5,42.4z M186.8,42.4c0-6.1-0.9-10-2.7-11.5c6.7,0.8,11.2,5.3,11.2,11.5
		s-4.5,10.7-11.2,11.5C185.9,52.3,186.8,48.5,186.8,42.4z M194.4,30.2c-2,0-3.4-1.5-3.4-3.6c0-2.2,1.4-4.2,3.9-5.1
		c1.9,0.6,3.1,2.3,3.1,4.5C198.1,28.5,196.6,30.2,194.4,30.2L194.4,30.2L194.4,30.2z"/>
	<path class="st0" d="M207.5,58.3c-4.3,0-6.9-2.9-6.9-7.6V32.4c2.7-0.1,5.6-0.6,8.4-1.5v19.5c0,2.6,1.5,4.3,3.9,4.3c1,0,2-0.4,3-1
		C213.6,56.7,210.7,58.3,207.5,58.3L207.5,58.3L207.5,58.3z M225,58.3c-5.5,0-5.9-4.3-6-7.8v-0.7V32.4c2.7-0.1,5.6-0.6,8.4-1.5v20.9
		c0,2.5,0.9,3.9,2.7,3.9c0.4,0,0.8-0.1,1.1-0.2C229.6,57.3,227.5,58.3,225,58.3L225,58.3L225,58.3z"/>
	<path class="st0" d="M240.6,58.3c-4.3,0-6.9-2.9-6.9-7.6V32.4c2.7-0.1,5.6-0.6,8.4-1.5v19.5c0,2.6,1.5,4.3,3.9,4.3c1,0,2-0.4,3-1
		C246.6,56.7,243.8,58.3,240.6,58.3L240.6,58.3L240.6,58.3z M258,58.3c-5.5,0-5.9-4.3-6-7.8v-0.7V32.4c2.7-0.1,5.7-0.6,8.4-1.5v20.9
		c0,2.5,0.9,3.9,2.7,3.9c0.4,0,0.8-0.1,1.1-0.2C262.7,57.3,260.6,58.3,258,58.3L258,58.3L258,58.3z"/>
	<path class="st0" d="M275.2,58.3c3.2-0.4,5.6-2.5,5.6-5.4c0-6.9-14-6.1-14-14.4c0-4.8,4.5-7.7,11.7-7.7c0.4,0,0.7,0,1.1,0
		c-2.6,0.6-4.3,2.2-4.3,4.4c0,6.5,14.7,6.4,14.7,14.9c0,5-5.1,8.2-13.5,8.2C276.1,58.3,275.7,58.3,275.2,58.3L275.2,58.3z M282.5,36
		c0-1.6,0.8-3.1,2.8-4.4c2.5,0.8,3.8,2.2,3.8,4.1c0,2-1.5,3.6-3.5,3.6C283.9,39.3,282.5,37.9,282.5,36L282.5,36z"/>
	<path class="st0" d="M301.5,58.3c-5.8,0-6-4.9-6-8.4v-28c2.7-0.1,5.6-0.6,8.4-1.5v31.5c0,2.6,1,3.9,3,3.9c0.5,0,0.9-0.1,1.3-0.2
		C306.5,57.4,304.2,58.3,301.5,58.3L301.5,58.3L301.5,58.3z"/>
	<path class="st0" d="M319.6,58.3c-6,0-10-4.6-10-11.8c0-8.5,6.2-15.1,14.3-15.8c-3,1.7-4.9,7.2-4.9,14.6c0,6.5,1.8,10.1,5.3,10.1
		c0.9,0,1.7-0.3,2.5-0.8C325.2,57.1,322.7,58.3,319.6,58.3L319.6,58.3L319.6,58.3z M335.5,58.3c-4,0-5.8-2.1-6-6.9
		c0-0.5,0-1.2,0-1.5V34.5c0-1.5-0.3-2.6-0.9-3.3c0.8,0.2,1.4,0.6,2.2,1.1c2.5-0.2,4.8-0.6,7.1-1.4v20.9c0,2.5,0.9,3.9,2.7,3.9
		c0.4,0,0.8-0.1,1.1-0.2C340.1,57.4,338,58.3,335.5,58.3L335.5,58.3L335.5,58.3z"/>
	<path class="st0" d="M344.2,21.9c2.7-0.1,5.6-0.6,8.4-1.5v34.2c0,1.5,0.3,2.6,0.9,3.3c-0.8-0.2-1.4-0.6-2-1l-0.4-0.1
		c-2.3,0.2-4.7,0.7-6.9,1.4L344.2,21.9L344.2,21.9z M363,43.7c0-6.5-1.8-10.1-5.3-10.1c-0.9,0-1.7,0.3-2.5,0.8
		c1.7-2.4,4.1-3.7,7.2-3.7c6,0,10,4.6,10,11.8c0,8.5-6.2,15.2-14.3,15.8C361.1,56.5,363,51.1,363,43.7L363,43.7z"/>
</g>
</svg>
