<?xml version="1.0" encoding="UTF-8"?>
<svg id="Laag_1" data-name="Laag 1" xmlns="http://www.w3.org/2000/svg" viewBox="0 0 94.26 92.76">
  <defs>
    <style>
      .cls-1 {
        fill: #fff;
        stroke-width: 0px;
      }
    </style>
  </defs>
  <g id="KOhNpQ">
    <path class="cls-1" d="M55.91,68.69c2.52-.58,4.96-1.01,7.31-1.71,7.82-2.35,12.19-7.77,13.51-15.72.67-4.01.87-8.04-.33-12.01-.69-2.28-1.79-4.36-3.34-6.17-.47-.54-.59-.98-.37-1.69,1.13-3.72.77-7.4-.53-11-.13-.36-.77-.82-1.11-.77-1.58.22-3.23.38-4.68.99-2.29.97-4.43,2.3-6.67,3.42-.48.24-1.13.4-1.63.28-7.27-1.74-14.52-1.74-21.79-.02-.53.13-1.26,0-1.73-.28-3.13-1.93-6.3-3.76-10.01-4.34-2.01-.32-2.22-.2-2.77,1.72-.98,3.41-1.16,6.84-.12,10.29.1.32.02.84-.19,1.09-4.23,5.03-4.96,10.89-4.12,17.13.53,3.99,1.68,7.74,4.23,10.95,3.22,4.06,7.64,5.99,12.56,7.01,1.37.29,2.76.48,4.28.74-1.58,1.71-2.37,3.65-2.78,5.78-.06.31-.44.67-.76.81-5.23,2.25-9.92.74-12.96-4.13-1.57-2.51-3.64-4.36-6.66-4.89-.57-.1-1.2-.06-1.77.06-1.2.26-1.36.89-.47,1.78.31.32.66.62,1.04.85,2.37,1.38,4.07,3.44,4.9,5.95,1.83,5.5,7.21,7.86,12.97,7.31,1.11-.11,2.21-.27,3.48-.42,0,3.08.08,6.07-.03,9.05-.06,1.67-1.64,2.43-3.46,1.82-4.1-1.39-7.96-3.28-11.46-5.82C6.47,76.6-.45,62.85.02,45.63.63,23.48,17.07,4.67,38.86.74c25.34-4.56,49.7,12.31,54.54,37.77,4.41,23.19-8.62,46.09-30.68,53.89-2.64.93-3.94,0-3.93-2.81.02-3.93.03-7.86.07-11.79.03-3.37-.52-6.56-2.95-9.11Z"/>
  </g>
</svg>