<?xml version="1.0" encoding="UTF-8"?>
<svg id="Laag_1" data-name="Laag 1" xmlns="http://www.w3.org/2000/svg" viewBox="0 0 92.91 92.87">
  <defs>
    <style>
      .cls-1 {
        fill: #fff;
        stroke-width: 0px;
      }
    </style>
  </defs>
  <g id="bPGOwV.tif">
    <g>
      <path class="cls-1" d="M92.91,26.27v40.41c-.07.58-.15,1.15-.2,1.73-.43,5.46-2.02,10.5-5.49,14.81-5.18,6.42-12.14,9.26-20.2,9.54-5.21.18-10.43.05-15.64.05-8.39,0-16.78.06-25.17-.03-6.18-.07-11.84-1.86-16.69-5.8C3.1,81.76.16,74.79.08,66.66c-.14-13.36-.06-26.73-.03-40.09,0-1.72.15-3.46.45-5.15C1.95,13.31,6.07,7.03,13.47,3.13,17.94.78,22.78,0,27.78,0c12.33,0,24.65-.01,36.98.02,1.93,0,3.87.13,5.78.37,10.43,1.31,18.86,8.82,21.32,19.05.54,2.23.71,4.55,1.05,6.83ZM46.38,84.25c5.9,0,11.81,0,17.71,0,1.38,0,2.77-.01,4.14-.16,6.86-.77,12.05-3.96,14.86-10.46,1.14-2.64,1.52-5.43,1.52-8.29,0-12.36,0-24.72,0-37.09,0-1.31-.02-2.63-.2-3.93-.76-5.41-3.02-9.95-7.79-12.94-3.1-1.94-6.55-2.72-10.16-2.73-13.12-.02-26.24-.02-39.36,0-1.1,0-2.21.07-3.3.23-6.59.93-11.45,4.18-13.89,10.57-.98,2.58-1.3,5.28-1.3,8.03,0,12.57-.01,25.14.02,37.71,0,1.58.12,3.18.39,4.74,1.08,6.26,4.43,10.75,10.5,13.01,2.59.96,5.28,1.31,8.03,1.31,6.28.01,12.57,0,18.85,0Z"/>
      <path class="cls-1" d="M70.35,46.32c-.03,13.22-10.81,23.92-24.06,23.89-13.25-.04-23.9-10.8-23.84-24.09.06-13.16,10.87-23.86,24.04-23.8,13.13.05,23.89,10.88,23.86,24.01ZM46.41,61.57c8.44,0,15.38-6.92,15.37-15.35-.01-8.4-7.02-15.38-15.4-15.34-8.39.04-15.26,6.92-15.28,15.33-.02,8.45,6.87,15.36,15.32,15.36Z"/>
      <path class="cls-1" d="M71.29,27.13c-3.01,0-5.38-2.39-5.38-5.4,0-3.04,2.43-5.44,5.48-5.41,2.97.03,5.38,2.49,5.35,5.46-.03,2.98-2.46,5.37-5.45,5.36Z"/>
    </g>
  </g>
</svg>