<?xml version="1.0" encoding="UTF-8"?>
<svg id="Laag_1" data-name="Laag 1" xmlns="http://www.w3.org/2000/svg" viewBox="0 0 92.28 92.8">
  <defs>
    <style>
      .cls-1 {
        fill: #fff;
        stroke-width: 0px;
      }
    </style>
  </defs>
  <g id="aOrBNc.tif">
    <g>
      <path class="cls-1" d="M.19,92.8h-.19c.1-.44.17-.88.29-1.31,1.96-7.19,3.92-14.39,5.92-21.57.2-.72.1-1.27-.24-1.9C.84,58.56-.86,48.49,1.05,37.94,5.95,10.85,33.07-5.85,59.4,1.9c23.63,6.96,37.68,31.9,31.37,55.68-7.6,28.63-39.51,42.77-65.78,29.16-.4-.21-1-.26-1.44-.15-5.64,1.44-11.26,2.92-16.89,4.41-2.16.57-4.31,1.2-6.47,1.8ZM10.98,81.84c4.6-1.21,9.02-2.35,13.42-3.54.74-.2,1.32-.11,1.98.28,8.5,5.1,17.66,6.78,27.38,4.86,20.83-4.12,34.23-24.5,29.92-45.33C78.36,12.43,48.83-.36,26.47,13.34,8.18,24.53,2.63,48.12,14.01,66.39c.62.99.74,1.82.42,2.94-1.19,4.1-2.28,8.22-3.46,12.51Z"/>
      <path class="cls-1" d="M35.08,27.38c1.03,2.67,2.16,5.3,3.28,7.93.38.89.36,1.68-.21,2.45-.92,1.24-1.82,2.5-2.79,3.69-.61.75-.7,1.43-.2,2.28,3.75,6.34,9.01,10.92,15.87,13.64.89.35,1.63.21,2.24-.55,1.15-1.43,2.32-2.84,3.46-4.28.79-1,1.27-1.27,2.39-.76,3.27,1.49,6.52,3.05,9.73,4.67.39.2.72.93.72,1.41-.09,4.87-1.52,7.22-6.76,9.42-2.97,1.24-6.03.93-9.08.08-11.04-3.08-19.18-10.02-25.69-19.16-2.05-2.87-3.9-5.84-4.68-9.33-1.11-4.98.12-9.29,3.79-12.88,1.16-1.13,7.25-.43,7.95,1.38Z"/>
    </g>
  </g>
</svg>