<?xml version="1.0" encoding="UTF-8"?>
<svg id="Laag_1" data-name="Laag 1" xmlns="http://www.w3.org/2000/svg" viewBox="0 0 96.08 86.87">
  <defs>
    <style>
      .cls-1 {
        fill: #fff;
        stroke-width: 0px;
      }
    </style>
  </defs>
  <g id="_0YZ2XX.tif" data-name="0YZ2XX.tif">
    <path class="cls-1" d="M96.08,86.84c-.6,0-.96,0-1.32,0-9.04,0-18.08-.02-27.12.02-.92,0-1.46-.29-2-1.01-7.29-9.57-14.61-19.13-21.92-28.68-.15-.2-.31-.38-.53-.65-1.37,1.55-2.7,3.07-4.04,4.6-7.25,8.28-14.5,16.56-21.73,24.86-.53.61-1.07.89-1.91.88-4.13-.05-8.26-.02-12.39-.02-.33,0-.66,0-1.23,0,11.55-13.21,22.95-26.23,34.42-39.34C24.26,31.74,12.22,15.99,0,.02c.56,0,.91,0,1.26,0,9.38,0,18.77,0,28.15-.02.74,0,1.18.23,1.62.81,6.62,8.79,13.26,17.56,19.9,26.33.13.17.27.33.47.58,1.51-1.72,2.99-3.4,4.47-5.09,6.36-7.27,12.73-14.54,19.07-21.83C75.47.2,76,0,76.79,0c4.13.04,8.26.02,12.39.02.33,0,.66,0,1.23,0-10.82,12.37-21.47,24.54-32.18,36.78,12.58,16.63,25.15,33.24,37.86,50.05ZM78.6,78.01c-.29-.42-.44-.65-.61-.87-11.33-14.98-22.66-29.95-33.99-44.93-5.81-7.68-11.62-15.35-17.4-23.04-.46-.61-.93-.86-1.7-.84-2.28.06-4.57.02-6.85.02-.22,0-.45.05-.75.08.17.25.27.41.38.56,11.34,14.82,22.67,29.63,34.01,44.45,6.1,7.97,12.19,15.93,18.3,23.89.21.27.54.64.82.65,2.52.05,5.05.03,7.79.03Z"/>
  </g>
</svg>